<svg width="192" height="192" viewBox="0 0 192 192" fill="none" xmlns="http://www.w3.org/2000/svg">
<g clip-path="url(#clip0_1_33)">
<path d="M95.0736 181.126C75.4348 181.113 56.404 174.313 41.205 161.876C26.0059 149.439 15.5731 132.131 11.6739 112.883C7.7746 93.6354 10.6486 73.6314 19.8091 56.2599C28.9696 38.8885 43.8532 25.2175 61.9389 17.5629C82.7417 8.77501 106.183 8.61093 127.107 17.1068C148.031 25.6026 164.723 42.0624 173.511 62.8652C182.299 83.6681 182.463 107.11 173.967 128.034C165.471 148.957 149.011 165.649 128.208 174.437C117.726 178.873 106.456 181.148 95.0736 181.126Z" fill="#008282"/>
<path d="M95.0736 12.4283C114.353 12.4423 133.035 19.1198 147.955 31.3296C162.876 43.5395 173.117 60.5311 176.945 79.4267C180.773 98.3223 177.952 117.96 168.96 135.014C159.968 152.068 145.358 165.49 127.604 173.006C107.18 181.634 84.1663 181.794 63.6245 173.453C43.0826 165.112 26.6955 148.953 18.0682 128.529C9.44096 108.106 9.28016 85.0919 17.6212 64.55C25.9623 44.0081 42.122 27.621 62.5453 18.9938C72.8361 14.6396 83.8996 12.4066 95.0736 12.4283V12.4283ZM95.0736 9.32051C47.2031 9.32051 8.39587 48.1295 8.39587 96C8.39587 143.871 47.2031 182.679 95.0736 182.679C142.944 182.679 181.753 143.871 181.753 96C181.753 48.1295 142.946 9.32051 95.0736 9.32051Z" fill="#00284D"/>
<path d="M68.0367 170.471C46.6793 170.471 28.3102 158.817 20.1012 140.061L19.6283 138.982C6.39902 132.211 6.05273 118.605 6.04395 118.013L6 114.865L88.7578 114.831C90.1127 114.835 91.4574 114.597 92.7287 114.128C93.6354 113.806 94.4231 113.217 94.988 112.438C95.5528 111.659 95.8683 110.727 95.8928 109.765C95.959 108.783 95.7257 107.803 95.2235 106.956C94.7214 106.108 93.9741 105.433 93.0803 105.019C83.9256 100.612 79.074 90.2818 81.2836 79.8931C83.0414 71.642 89.7563 62.6789 103.353 62.2763H103.444L186.007 62.243V65.3508C186.007 72.7055 181.764 83.9221 161.547 95.5851C149.868 102.319 135.419 107.398 127.938 107.398C124.96 107.398 123.032 108.758 121.873 111.678C121.39 112.894 120.819 114.977 120.819 117.983V118.104C120.179 134.259 114.2 147.827 103.529 157.346C94.0172 165.806 81.4102 170.471 68.0367 170.471Z" fill="#00284D"/>
<path d="M103.439 65.3772C80.8565 66.0469 77.761 94.2053 94.4198 102.216C100.806 105.288 100.447 114.571 93.8045 117.038C92.1891 117.635 90.4802 117.94 88.7578 117.938L9.15002 117.973C9.15002 117.973 9.32581 130.928 22.0946 136.721C24.9035 137.976 27.946 138.623 31.0225 138.62H34.967L35.2043 138.972C47.4457 156.889 71.8969 161.491 89.8143 149.249C94.4062 146.114 98.2808 142.04 101.182 137.296C101.297 137.123 101.475 137 101.678 136.955C101.881 136.909 102.094 136.943 102.272 137.05C102.45 137.157 102.581 137.329 102.636 137.53C102.691 137.73 102.666 137.945 102.567 138.128C90.7899 157.407 65.611 163.489 46.3313 151.712C41.5141 148.769 37.3581 144.861 34.125 140.234H31.0225C28.2682 140.236 25.5349 139.755 22.9471 138.812C42.2426 182.897 115.408 175.921 117.693 117.971C117.693 116.355 117.693 104.279 127.924 104.279C140.128 104.279 182.887 86.8647 182.887 65.3455L103.439 65.3772Z" fill="#DEE2E6"/>
<path d="M124.886 83.0941C127.977 83.0941 130.483 80.5883 130.483 77.4973C130.483 74.4062 127.977 71.9004 124.886 71.9004C121.795 71.9004 119.289 74.4062 119.289 77.4973C119.289 80.5883 121.795 83.0941 124.886 83.0941Z" fill="white"/>
<path d="M124.886 80.533C126.563 80.533 127.922 79.1739 127.922 77.4973C127.922 75.8207 126.563 74.4615 124.886 74.4615C123.209 74.4615 121.85 75.8207 121.85 77.4973C121.85 79.1739 123.209 80.533 124.886 80.533Z" fill="#00284D"/>
<path d="M125.169 65.3895C126.773 65.3879 128.361 65.7022 129.844 66.3144C131.326 66.9267 132.674 67.825 133.809 68.958C134.944 70.0909 135.845 71.4364 136.46 72.9176C137.076 74.3987 137.393 75.9866 137.395 77.5904C137.395 84.1682 132.199 89.809 125.617 89.809C117.468 89.809 110.927 95.8629 110.687 103.872C110.687 104.012 110.687 104.151 110.687 104.29C110.687 110.783 114.007 116.067 117.749 116.368C117.992 112.625 119.425 104.283 127.931 104.283C140.096 104.283 182.618 86.9772 182.887 65.5529C182.887 65.4932 182.887 65.4352 182.887 65.3772L125.169 65.3895Z" fill="#FE9903"/>
<path d="M22.0946 136.72C24.9035 137.975 27.946 138.622 31.0225 138.618H34.967L35.2043 138.97C47.4457 156.887 71.8969 161.489 89.8143 149.248C94.4062 146.112 98.2808 142.038 101.182 137.295C101.245 137.19 101.331 137.102 101.433 137.036C56.4932 166.534 41.4481 133.158 41.4481 133.158C26.5664 133.146 24.3498 117.973 24.3498 117.973H24.3147H9.15002C9.15002 117.973 9.33987 130.926 22.0946 136.72Z" fill="#CED4DA"/>
</g>
<defs>
<clipPath id="clip0_1_33">
<rect width="180" height="180" fill="white" transform="translate(6 6)"/>
</clipPath>
</defs>
</svg>
