<svg width="180" height="180" viewBox="0 0 180 180" fill="none" xmlns="http://www.w3.org/2000/svg">
<g clip-path="url(#clip0_1_30)">
<path d="M89.1457 168.505C71.0343 168.493 53.4837 162.222 39.4668 150.752C25.4499 139.283 15.8285 123.321 12.2325 105.57C8.63657 87.8193 11.2871 69.3712 19.735 53.3508C28.183 37.3305 41.9091 24.7228 58.5881 17.6636C77.7729 9.55918 99.3914 9.40787 118.688 17.2429C137.984 25.078 153.378 40.2576 161.482 59.4424C169.587 78.6272 169.738 100.246 161.903 119.542C154.068 138.838 138.888 154.232 119.703 162.336C110.036 166.427 99.6428 168.525 89.1457 168.505Z" fill="#008282"/>
<path d="M89.1457 12.9283C106.926 12.9413 124.154 19.0993 137.914 30.3595C151.674 41.6197 161.119 57.2898 164.649 74.7157C168.179 92.1416 165.578 110.252 157.285 125.98C148.993 141.707 135.519 154.085 119.146 161.017C100.311 168.973 79.0867 169.121 60.1426 161.429C41.1984 153.737 26.0859 138.834 18.1296 119.999C10.1733 101.164 10.025 79.9403 17.7174 60.9961C25.4097 42.0519 40.3125 26.9394 59.1473 18.9831C68.6377 14.9676 78.8407 12.9083 89.1457 12.9283V12.9283ZM89.1457 10.0622C44.9984 10.0622 9.20953 45.8527 9.20953 90C9.20953 134.147 44.9984 169.938 89.1457 169.938C133.293 169.938 169.083 134.147 169.083 90C169.083 45.8527 133.295 10.0622 89.1457 10.0622Z" fill="#00284D"/>
<path d="M64.2116 158.679C44.5154 158.679 27.5749 147.931 20.0044 130.634L19.5683 129.639C7.36799 123.395 7.04863 110.847 7.04053 110.301L7 107.398L83.3211 107.367C84.5706 107.37 85.8107 107.15 86.9831 106.718C87.8193 106.421 88.5457 105.878 89.0667 105.159C89.5876 104.441 89.8786 103.582 89.9011 102.695C89.9622 101.788 89.747 100.885 89.2839 100.104C88.8208 99.3221 88.1317 98.6994 87.3074 98.3178C78.8647 94.2537 74.3905 84.7266 76.4282 75.1459C78.0493 67.5365 84.2419 59.2705 96.781 58.8993H96.8653L173.006 58.8685V61.7346C173.006 68.5173 169.093 78.8615 150.449 89.6174C139.678 95.8278 126.353 100.511 119.454 100.511C116.708 100.511 114.929 101.766 113.861 104.459C113.415 105.58 112.888 107.501 112.888 110.273V110.385C112.298 125.283 106.785 137.796 96.9431 146.575C88.1714 154.377 76.5449 158.679 64.2116 158.679Z" fill="#00284D"/>
<path d="M96.8604 61.7589C76.0342 62.3766 73.1795 88.3449 88.5426 95.7322C94.432 98.5658 94.1013 107.127 87.9752 109.401C86.4854 109.952 84.9094 110.233 83.3211 110.231L9.90497 110.264C9.90497 110.264 10.0671 122.211 21.8427 127.554C24.4331 128.712 27.239 129.308 30.0762 129.305H33.714L33.9328 129.629C45.2221 146.153 67.7715 150.397 84.2953 139.108C88.5301 136.216 92.1033 132.459 94.779 128.084C94.8851 127.924 95.0488 127.812 95.236 127.769C95.4232 127.727 95.6195 127.758 95.7841 127.857C95.9487 127.956 96.0688 128.114 96.1195 128.3C96.1702 128.485 96.1476 128.682 96.0564 128.851C85.195 146.631 61.9745 152.24 44.1943 141.379C39.7518 138.665 35.9191 135.061 32.9375 130.793H30.0762C27.5362 130.796 25.0154 130.352 22.6289 129.482C40.4237 170.139 107.898 163.705 110.006 110.262C110.006 108.772 110.006 97.6353 119.441 97.6353C130.696 97.6353 170.129 81.5752 170.129 61.7297L96.8604 61.7589Z" fill="#DEE2E6"/>
<path d="M116.639 78.0979C119.49 78.0979 121.801 75.787 121.801 72.9364C121.801 70.0857 119.49 67.7748 116.639 67.7748C113.789 67.7748 111.478 70.0857 111.478 72.9364C111.478 75.787 113.789 78.0979 116.639 78.0979Z" fill="white"/>
<path d="M116.639 75.736C118.186 75.736 119.439 74.4825 119.439 72.9363C119.439 71.3902 118.186 70.1367 116.639 70.1367C115.093 70.1367 113.84 71.3902 113.84 72.9363C113.84 74.4825 115.093 75.736 116.639 75.736Z" fill="#00284D"/>
<path d="M116.9 61.7703C118.38 61.7688 119.845 62.0587 121.212 62.6233C122.579 63.188 123.821 64.0164 124.868 65.0612C125.915 66.1061 126.746 67.3469 127.313 68.7129C127.881 70.0788 128.174 71.5432 128.175 73.0223C128.175 79.0884 123.383 84.2905 117.314 84.2905C109.798 84.2905 103.766 89.8736 103.544 97.2593C103.544 97.389 103.544 97.517 103.544 97.6451C103.544 103.633 106.606 108.506 110.058 108.784C110.282 105.332 111.603 97.6386 119.447 97.6386C130.667 97.6386 169.881 81.6789 170.129 61.9211C170.129 61.8659 170.129 61.8124 170.129 61.7589L116.9 61.7703Z" fill="#FE9903"/>
<path d="M21.8427 127.553C24.4331 128.71 27.239 129.307 30.0762 129.303H33.714L33.9328 129.628C45.2221 146.151 67.7715 150.395 84.2953 139.106C88.5301 136.214 92.1033 132.457 94.779 128.083C94.8372 127.987 94.9164 127.905 95.0108 127.844C53.5659 155.048 39.6909 124.268 39.6909 124.268C25.9668 124.257 23.9226 110.264 23.9226 110.264H23.8901H9.90497C9.90497 110.264 10.08 122.21 21.8427 127.553Z" fill="#CED4DA"/>
</g>
<defs>
<clipPath id="clip0_1_30">
<rect width="166" height="166" fill="white" transform="translate(7 7)"/>
</clipPath>
</defs>
</svg>
