<svg width="512" height="512" viewBox="0 0 512 512" fill="none" xmlns="http://www.w3.org/2000/svg">
<g clip-path="url(#clip0_1_36)">
<path d="M253.54 482.056C201.388 482.023 150.851 463.964 110.489 430.937C70.1268 397.911 42.4219 351.948 32.0673 300.834C21.7126 249.721 29.3447 196.599 53.6708 150.468C77.9969 104.337 117.521 68.0331 165.549 47.7059C220.792 24.3692 283.043 23.9335 338.607 46.4946C394.171 69.0558 438.497 112.766 461.834 168.009C485.171 223.252 485.606 285.503 463.045 341.067C440.484 396.631 396.774 440.957 341.531 464.294C313.694 476.074 283.767 482.115 253.54 482.056Z" fill="#008282"/>
<path d="M253.54 34.0708C304.737 34.108 354.348 51.8403 393.97 84.2642C433.592 116.688 460.788 161.81 470.954 211.989C481.119 262.167 473.627 314.316 449.749 359.604C425.87 404.892 387.072 440.535 339.925 460.494C285.69 483.405 224.575 483.832 170.025 461.681C115.475 439.531 71.9581 396.618 49.0479 342.383C26.1377 288.148 25.7107 227.033 47.8609 172.483C70.011 117.933 112.924 74.4159 167.159 51.5056C194.487 39.9429 223.867 34.013 253.54 34.0708V34.0708ZM253.54 25.8178C126.417 25.8178 23.3624 128.877 23.3624 256C23.3624 383.123 126.417 486.182 253.54 486.182C380.663 486.182 483.722 383.123 483.722 256C483.722 128.877 380.667 25.8178 253.54 25.8178Z" fill="#00284D"/>
<path d="M181.742 453.763C125.026 453.763 76.2459 422.815 54.4464 373.007L53.1908 370.141C18.0596 352.16 17.14 316.03 17.1167 314.457L17 306.097L236.768 306.008C240.366 306.017 243.937 305.385 247.313 304.141C249.721 303.285 251.812 301.72 253.312 299.652C254.813 297.584 255.65 295.109 255.715 292.555C255.891 289.945 255.272 287.343 253.938 285.093C252.605 282.843 250.62 281.05 248.247 279.951C223.936 268.249 211.052 240.815 216.92 213.227C221.588 191.316 239.419 167.514 275.526 166.445H275.769L495.019 166.356V174.609C495.019 194.14 483.75 223.926 430.064 254.898C399.05 272.781 360.679 286.267 340.812 286.267C332.905 286.267 327.784 289.88 324.708 297.634C323.424 300.864 321.907 306.395 321.907 314.378V314.7C320.208 357.598 304.332 393.63 275.993 418.907C250.735 441.374 217.256 453.763 181.742 453.763Z" fill="#00284D"/>
<path d="M275.755 174.679C215.785 176.458 207.565 251.234 251.803 272.506C268.762 280.666 267.81 305.317 250.17 311.866C245.88 313.453 241.342 314.262 236.768 314.256L25.365 314.35C25.365 314.35 25.8318 348.753 59.7399 364.138C67.1991 367.471 75.2787 369.189 83.4485 369.18H93.9234L94.5536 370.113C127.061 417.694 191.993 429.914 239.573 397.407C251.768 389.08 262.057 378.261 269.761 365.665C270.067 365.204 270.538 364.879 271.077 364.757C271.616 364.635 272.182 364.726 272.656 365.011C273.129 365.295 273.475 365.751 273.621 366.284C273.767 366.817 273.702 367.386 273.44 367.873C242.164 419.071 175.3 435.222 124.102 403.947C111.309 396.132 100.273 385.753 91.6875 373.465H83.4485C76.1343 373.471 68.8758 372.193 62.0039 369.688C113.244 486.761 307.539 468.234 313.607 314.345C313.607 310.055 313.607 277.986 340.775 277.986C373.185 277.986 486.733 231.741 486.733 174.595L275.755 174.679Z" fill="#DEE2E6"/>
<path d="M332.709 221.728C340.917 221.728 347.572 215.074 347.572 206.865C347.572 198.657 340.917 192.002 332.709 192.002C324.5 192.002 317.846 198.657 317.846 206.865C317.846 215.074 324.5 221.728 332.709 221.728Z" fill="white"/>
<path d="M332.709 214.927C337.161 214.927 340.77 211.317 340.77 206.865C340.77 202.413 337.161 198.803 332.709 198.803C328.257 198.803 324.647 202.413 324.647 206.865C324.647 211.317 328.257 214.927 332.709 214.927Z" fill="#00284D"/>
<path d="M333.46 174.712C337.719 174.708 341.938 175.542 345.874 177.168C349.811 178.794 353.389 181.18 356.404 184.188C359.418 187.197 361.811 190.77 363.445 194.703C365.079 198.637 365.922 202.853 365.926 207.112C365.926 224.58 352.128 239.559 334.651 239.559C313.01 239.559 295.64 255.636 295.001 276.903C295.001 277.277 295.001 277.645 295.001 278.014C295.001 295.258 303.819 309.29 313.757 310.088C314.401 300.15 318.205 277.995 340.794 277.995C373.101 277.995 486.019 232.039 486.733 175.146C486.733 174.987 486.733 174.833 486.733 174.679L333.46 174.712Z" fill="#FE9903"/>
<path d="M59.7399 364.134C67.1991 367.466 75.2787 369.184 83.4485 369.175H93.9234L94.5536 370.109C127.061 417.689 191.993 429.91 239.573 397.402C251.768 389.075 262.057 378.257 269.761 365.66C269.929 365.384 270.157 365.149 270.429 364.974C151.087 443.307 111.134 354.676 111.134 354.676C71.6152 354.644 65.7289 314.35 65.7289 314.35H65.6356H25.365C25.365 314.35 25.8691 348.748 59.7399 364.134Z" fill="#CED4DA"/>
</g>
<defs>
<clipPath id="clip0_1_36">
<rect width="478" height="478" fill="white" transform="translate(17 17)"/>
</clipPath>
</defs>
</svg>
