<svg width="320" height="120" viewBox="0 0 320 120" fill="none" xmlns="http://www.w3.org/2000/svg">
<g clip-path="url(#clip0_1288_3671)">
<rect width="320" height="120" fill="#C0CEDB"/>
<rect width="272" height="159.297" transform="translate(24 8)" fill="#C0CEDB"/>
<rect width="51.7716" height="159" transform="translate(24 8)" fill="#00284D"/>
<rect x="24" y="8" width="51.7716" height="9.55783" fill="#00284D"/>
<path d="M26.0788 14.7877L26.904 12.4843H27.3946L28.2182 14.7877H27.7546L27.5667 14.2541H26.7383L26.5456 14.7877H26.0788ZM26.8419 13.8479H27.4552L27.1509 12.9335L26.8419 13.8479ZM28.5051 15.3007V13.1406H28.9719L28.9735 13.3779C28.9979 13.3386 29.0276 13.3031 29.0627 13.2712C29.0988 13.2383 29.1386 13.2096 29.1821 13.1852C29.2257 13.1608 29.2729 13.1422 29.3239 13.1294C29.3749 13.1156 29.4285 13.1087 29.4848 13.1087C29.6069 13.1087 29.7158 13.139 29.8114 13.1995C29.9069 13.259 29.9818 13.3514 30.036 13.4767C30.0912 13.601 30.1188 13.7592 30.1188 13.9514C30.1188 14.1511 30.0891 14.3151 30.0296 14.4436C29.9712 14.5711 29.8905 14.6656 29.7875 14.7272C29.6845 14.7888 29.5682 14.8196 29.4386 14.8196C29.3855 14.8196 29.3356 14.8121 29.2889 14.7973C29.2421 14.7835 29.1986 14.7638 29.1582 14.7383C29.1189 14.7129 29.0834 14.6836 29.0515 14.6507C29.0207 14.6167 28.9936 14.5801 28.9703 14.5408V15.3007H28.5051ZM29.3271 14.4787C29.428 14.4787 29.5124 14.4367 29.5804 14.3528C29.6494 14.2689 29.6839 14.1362 29.6839 13.9546C29.6839 13.7953 29.651 13.671 29.5852 13.5818C29.5204 13.4916 29.4344 13.4464 29.3271 13.4464C29.2071 13.4464 29.1174 13.4953 29.0579 13.593C28.9995 13.6896 28.9703 13.8102 28.9703 13.9546C28.9703 14.047 28.983 14.133 29.0085 14.2127C29.035 14.2923 29.0743 14.3566 29.1264 14.4054C29.1795 14.4543 29.2464 14.4787 29.3271 14.4787ZM30.4279 15.3007V13.1406H30.8946L30.8962 13.3779C30.9206 13.3386 30.9504 13.3031 30.9854 13.2712C31.0215 13.2383 31.0614 13.2096 31.1049 13.1852C31.1484 13.1608 31.1957 13.1422 31.2467 13.1294C31.2976 13.1156 31.3513 13.1087 31.4076 13.1087C31.5297 13.1087 31.6385 13.139 31.7341 13.1995C31.8297 13.259 31.9046 13.3514 31.9587 13.4767C32.014 13.601 32.0416 13.7592 32.0416 13.9514C32.0416 14.1511 32.0118 14.3151 31.9524 14.4436C31.894 14.5711 31.8132 14.6656 31.7102 14.7272C31.6072 14.7888 31.4909 14.8196 31.3614 14.8196C31.3083 14.8196 31.2584 14.8121 31.2116 14.7973C31.1649 14.7835 31.1214 14.7638 31.081 14.7383C31.0417 14.7129 31.0061 14.6836 30.9743 14.6507C30.9435 14.6167 30.9164 14.5801 30.893 14.5408V15.3007H30.4279ZM31.2499 14.4787C31.3507 14.4787 31.4352 14.4367 31.5031 14.3528C31.5722 14.2689 31.6067 14.1362 31.6067 13.9546C31.6067 13.7953 31.5738 13.671 31.5079 13.5818C31.4431 13.4916 31.3571 13.4464 31.2499 13.4464C31.1299 13.4464 31.0401 13.4953 30.9806 13.593C30.9222 13.6896 30.893 13.8102 30.893 13.9546C30.893 14.047 30.9058 14.133 30.9313 14.2127C30.9578 14.2923 30.9971 14.3566 31.0491 14.4054C31.1022 14.4543 31.1692 14.4787 31.2499 14.4787ZM33.9307 12.4843H34.3958V14.7877H33.9769L32.8825 13.2027V14.7877H32.4189V12.4843H32.8793L33.9307 14.0088V12.4843ZM35.3269 14.8196C35.2218 14.8196 35.1272 14.7999 35.0433 14.7606C34.9595 14.7213 34.8931 14.6645 34.8442 14.5902C34.7954 14.5148 34.771 14.4235 34.771 14.3162C34.771 14.1357 34.8384 13.9987 34.9733 13.9052C35.1081 13.8107 35.3211 13.7618 35.612 13.7587L35.8175 13.7555V13.6567C35.8175 13.5813 35.7952 13.5234 35.7506 13.4831C35.7071 13.4417 35.6391 13.4215 35.5467 13.4225C35.4788 13.4236 35.414 13.4395 35.3524 13.4703C35.2919 13.5011 35.2504 13.5548 35.2281 13.6312H34.841C34.8474 13.5123 34.8819 13.4146 34.9446 13.3381C35.0072 13.2606 35.0922 13.2032 35.1995 13.1661C35.3078 13.1278 35.4304 13.1087 35.5674 13.1087C35.7363 13.1087 35.8717 13.13 35.9736 13.1724C36.0756 13.2139 36.1494 13.2739 36.1951 13.3525C36.2407 13.43 36.2636 13.5224 36.2636 13.6296V14.7877H35.8749L35.8366 14.5042C35.7804 14.6231 35.7097 14.7054 35.6248 14.7511C35.5409 14.7967 35.4416 14.8196 35.3269 14.8196ZM35.483 14.5137C35.5255 14.5137 35.5664 14.5063 35.6057 14.4914C35.646 14.4755 35.6816 14.4548 35.7124 14.4293C35.7443 14.4028 35.7697 14.373 35.7889 14.3401C35.808 14.3072 35.8175 14.2732 35.8175 14.2381V13.9944L35.6503 13.9976C35.5727 13.9987 35.5005 14.0082 35.4336 14.0263C35.3667 14.0433 35.3126 14.0714 35.2711 14.1107C35.2308 14.15 35.2106 14.2031 35.2106 14.27C35.2106 14.3465 35.2372 14.4065 35.2903 14.45C35.3434 14.4925 35.4076 14.5137 35.483 14.5137ZM36.6753 14.7877V13.1406H37.1309V13.3732C37.1808 13.3009 37.2477 13.2388 37.3316 13.1868C37.4166 13.1347 37.5233 13.1087 37.6518 13.1087C37.7081 13.1087 37.7654 13.1188 37.8239 13.139C37.8823 13.1592 37.937 13.1889 37.9879 13.2282C38.04 13.2664 38.0819 13.3148 38.1138 13.3732C38.1669 13.2978 38.2364 13.2351 38.3225 13.1852C38.4095 13.1342 38.5062 13.1087 38.6124 13.1087C38.674 13.1087 38.7361 13.1188 38.7988 13.139C38.8625 13.1592 38.9209 13.1921 38.974 13.2378C39.0271 13.2834 39.0696 13.3445 39.1014 13.4209C39.1343 13.4964 39.1508 13.5898 39.1508 13.7013V14.7877H38.6857V13.7587C38.6857 13.6928 38.6724 13.6402 38.6458 13.601C38.6203 13.5606 38.5874 13.5319 38.5471 13.5149C38.5078 13.4969 38.4658 13.4879 38.4212 13.4879C38.3798 13.4879 38.3379 13.4964 38.2954 13.5133C38.2529 13.5293 38.2168 13.5553 38.1871 13.5914C38.1573 13.6275 38.1425 13.6748 38.1425 13.7332V14.7877H37.6789V13.7172C37.6789 13.6673 37.6656 13.6254 37.6391 13.5914C37.6125 13.5574 37.5791 13.5319 37.5387 13.5149C37.4994 13.4969 37.4591 13.4879 37.4176 13.4879C37.3752 13.4879 37.3327 13.4969 37.2902 13.5149C37.2477 13.5319 37.2122 13.559 37.1835 13.5962C37.1548 13.6323 37.1405 13.6779 37.1405 13.7332V14.7877H36.6753ZM39.9107 14.0709C39.9096 14.1548 39.9229 14.2281 39.9505 14.2907C39.9781 14.3523 40.0179 14.4001 40.07 14.4341C40.1231 14.467 40.1868 14.4835 40.2611 14.4835C40.3408 14.4835 40.4103 14.4665 40.4698 14.4325C40.5303 14.3985 40.5723 14.3427 40.5957 14.2652H41.0146C40.9966 14.382 40.9498 14.4819 40.8744 14.5647C40.8001 14.6475 40.7098 14.7107 40.6036 14.7543C40.4974 14.7978 40.387 14.8196 40.2723 14.8196C40.1098 14.8196 39.9664 14.7856 39.8422 14.7176C39.719 14.6486 39.6229 14.5514 39.5539 14.4261C39.4848 14.3008 39.4503 14.1532 39.4503 13.9833C39.4503 13.8187 39.4816 13.6705 39.5443 13.5388C39.6069 13.4061 39.6977 13.3015 39.8167 13.225C39.9367 13.1475 40.0806 13.1087 40.2484 13.1087C40.4162 13.1087 40.5569 13.1443 40.6705 13.2155C40.7852 13.2855 40.8712 13.3838 40.9286 13.5102C40.987 13.6355 41.0162 13.7804 41.0162 13.945V14.0709H39.9107ZM39.9091 13.7937H40.5813C40.5813 13.7279 40.5691 13.6673 40.5447 13.6121C40.5203 13.5569 40.4831 13.5133 40.4332 13.4815C40.3843 13.4496 40.3227 13.4337 40.2484 13.4337C40.1762 13.4337 40.1146 13.4512 40.0636 13.4863C40.0137 13.5202 39.9755 13.5648 39.9489 13.6201C39.9224 13.6753 39.9091 13.7332 39.9091 13.7937Z" fill="white"/>
<rect x="75.7715" y="8" width="220.228" height="9.55783" fill="#00284D"/>
<path d="M78.9412 12.1307H82.1769C82.2392 12.1307 82.3014 12.0762 82.3014 12.0062V11.6951C82.3014 11.6329 82.2392 11.5706 82.1769 11.5706H78.9412C78.8712 11.5706 78.8168 11.6329 78.8168 11.6951V12.0062C78.8168 12.0762 78.8712 12.1307 78.9412 12.1307ZM78.9412 13.3752H82.1769C82.2392 13.3752 82.3014 13.3207 82.3014 13.2507V12.9396C82.3014 12.8774 82.2392 12.8151 82.1769 12.8151H78.9412C78.8712 12.8151 78.8168 12.8774 78.8168 12.9396V13.2507C78.8168 13.3207 78.8712 13.3752 78.9412 13.3752ZM78.9412 14.6197H82.1769C82.2392 14.6197 82.3014 14.5652 82.3014 14.4952V14.1841C82.3014 14.1219 82.2392 14.0596 82.1769 14.0596H78.9412C78.8712 14.0596 78.8168 14.1219 78.8168 14.1841V14.4952C78.8168 14.5652 78.8712 14.6197 78.9412 14.6197Z" fill="white"/>
<path d="M84.4099 14.5886V12.2851H85.2574C85.4252 12.2851 85.5754 12.3143 85.7082 12.3727C85.8409 12.4301 85.9455 12.515 86.022 12.6276C86.0995 12.7402 86.1383 12.8777 86.1383 13.0402C86.1383 13.1931 86.1043 13.3237 86.0363 13.4321C85.9684 13.5404 85.8728 13.6232 85.7496 13.6806C85.6275 13.7379 85.4836 13.7666 85.3179 13.7666H84.8783V14.5886H84.4099ZM84.8735 13.4066H85.3052C85.422 13.4066 85.5176 13.3694 85.5919 13.2951C85.6662 13.2197 85.7034 13.1267 85.7034 13.0163C85.7034 12.9016 85.6641 12.8108 85.5855 12.7439C85.5069 12.6759 85.4114 12.642 85.2988 12.642H84.8735V13.4066ZM86.8636 14.6204C86.7585 14.6204 86.664 14.6008 86.5801 14.5615C86.4962 14.5222 86.4298 14.4654 86.381 14.391C86.3321 14.3156 86.3077 14.2243 86.3077 14.117C86.3077 13.9365 86.3751 13.7995 86.51 13.7061C86.6449 13.6115 86.8578 13.5627 87.1488 13.5595L87.3543 13.5563V13.4576C87.3543 13.3822 87.332 13.3243 87.2874 13.2839C87.2438 13.2425 87.1759 13.2223 87.0835 13.2234C87.0155 13.2244 86.9507 13.2404 86.8891 13.2712C86.8286 13.302 86.7872 13.3556 86.7649 13.4321H86.3778C86.3842 13.3131 86.4187 13.2154 86.4813 13.139C86.544 13.0614 86.6289 13.0041 86.7362 12.9669C86.8445 12.9287 86.9672 12.9096 87.1042 12.9096C87.273 12.9096 87.4084 12.9308 87.5104 12.9733C87.6123 13.0147 87.6861 13.0747 87.7318 13.1533C87.7775 13.2308 87.8003 13.3232 87.8003 13.4305V14.5886H87.4116L87.3734 14.305C87.3171 14.424 87.2465 14.5063 87.1615 14.5519C87.0776 14.5976 86.9783 14.6204 86.8636 14.6204ZM87.0198 14.3146C87.0622 14.3146 87.1031 14.3071 87.1424 14.2923C87.1828 14.2763 87.2183 14.2556 87.2491 14.2301C87.281 14.2036 87.3065 14.1739 87.3256 14.1409C87.3447 14.108 87.3543 14.074 87.3543 14.039V13.7953L87.187 13.7984C87.1095 13.7995 87.0373 13.8091 86.9704 13.8271C86.9035 13.8441 86.8493 13.8723 86.8079 13.9115C86.7675 13.9508 86.7474 14.0039 86.7474 14.0708C86.7474 14.1473 86.7739 14.2073 86.827 14.2509C86.8801 14.2933 86.9444 14.3146 87.0198 14.3146ZM88.9751 15.1334C88.682 15.1334 88.459 15.0962 88.3061 15.0219C88.1542 14.9475 88.0783 14.8498 88.0783 14.7287C88.0783 14.6725 88.0931 14.6252 88.1229 14.587C88.1526 14.5487 88.1871 14.5185 88.2264 14.4962C88.2668 14.4728 88.3034 14.4553 88.3363 14.4436C88.3703 14.4309 88.391 14.4224 88.3984 14.4181C88.3815 14.4086 88.357 14.3948 88.3252 14.3767C88.2933 14.3576 88.2636 14.3321 88.236 14.3002C88.2094 14.2673 88.1961 14.2248 88.1961 14.1728C88.1961 14.1144 88.2237 14.0602 88.279 14.0103C88.3353 13.9604 88.4202 13.9259 88.5338 13.9068C88.4255 13.8558 88.3432 13.7868 88.2869 13.6997C88.2307 13.6126 88.2025 13.5234 88.2025 13.4321C88.2025 13.3237 88.2365 13.2308 88.3045 13.1533C88.3724 13.0758 88.4648 13.0168 88.5816 12.9765C88.6995 12.9361 88.8328 12.9159 88.9815 12.9159C89.0951 12.9159 89.188 12.9282 89.2602 12.9526C89.3325 12.9759 89.3994 13.0067 89.461 13.045C89.4854 13.0354 89.5178 13.0232 89.5581 13.0083C89.5985 12.9924 89.642 12.9754 89.6888 12.9574C89.7355 12.9382 89.7811 12.9197 89.8257 12.9016C89.8704 12.8825 89.9102 12.8655 89.9452 12.8506L89.9436 13.2106L89.6585 13.2568C89.6702 13.2855 89.6792 13.3163 89.6856 13.3492C89.6919 13.3822 89.6951 13.4092 89.6951 13.4305C89.6951 13.526 89.667 13.6153 89.6107 13.6981C89.5555 13.7809 89.4721 13.8478 89.3606 13.8988C89.2502 13.9498 89.1132 13.9753 88.9496 13.9753C88.9294 13.9753 88.9024 13.9747 88.8684 13.9737C88.8355 13.9726 88.8084 13.971 88.7871 13.9689C88.7245 13.9721 88.6815 13.98 88.6581 13.9928C88.6347 14.0055 88.6231 14.0204 88.6231 14.0374C88.6231 14.0629 88.6469 14.0799 88.6947 14.0884C88.7425 14.0958 88.8147 14.1027 88.9114 14.1091C88.9454 14.1112 88.9926 14.1139 89.0532 14.117C89.1137 14.1202 89.1806 14.1245 89.2539 14.1298C89.4556 14.1436 89.6059 14.1935 89.7047 14.2795C89.8045 14.3645 89.8544 14.4717 89.8544 14.6013C89.8544 14.7553 89.7811 14.8822 89.6346 14.982C89.4891 15.0829 89.2693 15.1334 88.9751 15.1334ZM89.05 14.8737C89.1795 14.8737 89.2719 14.8578 89.3271 14.8259C89.3824 14.7941 89.41 14.7484 89.41 14.6889C89.41 14.639 89.3887 14.5987 89.3463 14.5679C89.3038 14.536 89.2417 14.5174 89.1599 14.5121L88.7824 14.4866C88.7335 14.4845 88.69 14.4919 88.6517 14.5089C88.6146 14.5259 88.5854 14.5493 88.5641 14.579C88.5439 14.6087 88.5338 14.6406 88.5338 14.6746C88.5338 14.7436 88.5758 14.7941 88.6597 14.8259C88.7436 14.8578 88.8737 14.8737 89.05 14.8737ZM88.9624 13.7156C89.0505 13.7156 89.1211 13.6917 89.1742 13.6439C89.2284 13.5951 89.2555 13.5292 89.2555 13.4464C89.2555 13.3604 89.2284 13.2914 89.1742 13.2393C89.1211 13.1873 89.0505 13.1613 88.9624 13.1613C88.8753 13.1613 88.8041 13.1873 88.7489 13.2393C88.6947 13.2914 88.6677 13.3604 88.6677 13.4464C88.6677 13.5282 88.6937 13.5935 88.7457 13.6423C88.7988 13.6912 88.871 13.7156 88.9624 13.7156ZM90.5545 13.8717C90.5534 13.9556 90.5667 14.0289 90.5943 14.0916C90.6219 14.1531 90.6617 14.2009 90.7138 14.2349C90.7669 14.2678 90.8306 14.2843 90.9049 14.2843C90.9846 14.2843 91.0541 14.2673 91.1136 14.2333C91.1741 14.1993 91.2161 14.1436 91.2395 14.0661H91.6584C91.6404 14.1829 91.5936 14.2827 91.5182 14.3655C91.4439 14.4484 91.3536 14.5116 91.2474 14.5551C91.1412 14.5987 91.0308 14.6204 90.9161 14.6204C90.7536 14.6204 90.6102 14.5864 90.486 14.5185C90.3628 14.4494 90.2667 14.3523 90.1977 14.227C90.1286 14.1016 90.0941 13.954 90.0941 13.7841C90.0941 13.6195 90.1254 13.4714 90.1881 13.3397C90.2508 13.2069 90.3416 13.1023 90.4605 13.0259C90.5805 12.9483 90.7244 12.9096 90.8922 12.9096C91.06 12.9096 91.2007 12.9451 91.3143 13.0163C91.429 13.0864 91.515 13.1846 91.5724 13.311C91.6308 13.4363 91.66 13.5813 91.66 13.7459V13.8717H90.5545ZM90.5529 13.5945H91.2251C91.2251 13.5287 91.2129 13.4682 91.1885 13.4129C91.1641 13.3577 91.1269 13.3142 91.077 13.2823C91.0281 13.2505 90.9665 13.2345 90.8922 13.2345C90.82 13.2345 90.7584 13.2521 90.7074 13.2871C90.6575 13.3211 90.6193 13.3657 90.5927 13.4209C90.5662 13.4761 90.5529 13.534 90.5529 13.5945ZM93.5629 12.2851H94.0281V14.5886H93.6091L92.5148 13.0036V14.5886H92.0512V12.2851H92.5116L93.5629 13.8096V12.2851ZM94.9592 14.6204C94.854 14.6204 94.7595 14.6008 94.6756 14.5615C94.5917 14.5222 94.5254 14.4654 94.4765 14.391C94.4277 14.3156 94.4032 14.2243 94.4032 14.117C94.4032 13.9365 94.4707 13.7995 94.6055 13.7061C94.7404 13.6115 94.9533 13.5627 95.2443 13.5595L95.4498 13.5563V13.4576C95.4498 13.3822 95.4275 13.3243 95.3829 13.2839C95.3394 13.2425 95.2714 13.2223 95.179 13.2234C95.111 13.2244 95.0463 13.2404 94.9847 13.2712C94.9241 13.302 94.8827 13.3556 94.8604 13.4321H94.4733C94.4797 13.3131 94.5142 13.2154 94.5769 13.139C94.6395 13.0614 94.7245 13.0041 94.8317 12.9669C94.9401 12.9287 95.0627 12.9096 95.1997 12.9096C95.3686 12.9096 95.504 12.9308 95.6059 12.9733C95.7079 13.0147 95.7817 13.0747 95.8273 13.1533C95.873 13.2308 95.8958 13.3232 95.8958 13.4305V14.5886H95.5072L95.4689 14.305C95.4126 14.424 95.342 14.5063 95.2571 14.5519C95.1732 14.5976 95.0739 14.6204 94.9592 14.6204ZM95.1153 14.3146C95.1578 14.3146 95.1987 14.3071 95.2379 14.2923C95.2783 14.2763 95.3139 14.2556 95.3447 14.2301C95.3765 14.2036 95.402 14.1739 95.4211 14.1409C95.4403 14.108 95.4498 14.074 95.4498 14.039V13.7953L95.2825 13.7984C95.205 13.7995 95.1328 13.8091 95.0659 13.8271C94.999 13.8441 94.9448 13.8723 94.9034 13.9115C94.8631 13.9508 94.8429 14.0039 94.8429 14.0708C94.8429 14.1473 94.8694 14.2073 94.9225 14.2509C94.9756 14.2933 95.0399 14.3146 95.1153 14.3146ZM96.3076 14.5886V12.9414H96.7632V13.174C96.8131 13.1018 96.88 13.0397 96.9639 12.9876C97.0489 12.9356 97.1556 12.9096 97.2841 12.9096C97.3404 12.9096 97.3977 12.9197 97.4561 12.9398C97.5145 12.96 97.5692 12.9897 97.6202 13.029C97.6722 13.0673 97.7142 13.1156 97.7461 13.174C97.7992 13.0986 97.8687 13.0359 97.9547 12.986C98.0418 12.9351 98.1385 12.9096 98.2447 12.9096C98.3063 12.9096 98.3684 12.9197 98.431 12.9398C98.4948 12.96 98.5532 12.9929 98.6063 13.0386C98.6594 13.0843 98.7018 13.1453 98.7337 13.2218C98.7666 13.2972 98.7831 13.3906 98.7831 13.5022V14.5886H98.3179V13.5595C98.3179 13.4937 98.3047 13.4411 98.2781 13.4018C98.2526 13.3614 98.2197 13.3328 98.1793 13.3158C98.1401 13.2977 98.0981 13.2887 98.0535 13.2887C98.0121 13.2887 97.9701 13.2972 97.9277 13.3142C97.8852 13.3301 97.8491 13.3561 97.8193 13.3922C97.7896 13.4283 97.7747 13.4756 97.7747 13.534V14.5886H97.3112V13.5181C97.3112 13.4682 97.2979 13.4262 97.2714 13.3922C97.2448 13.3583 97.2113 13.3328 97.171 13.3158C97.1317 13.2977 97.0913 13.2887 97.0499 13.2887C97.0074 13.2887 96.965 13.2977 96.9225 13.3158C96.88 13.3328 96.8444 13.3598 96.8158 13.397C96.7871 13.4331 96.7727 13.4788 96.7727 13.534V14.5886H96.3076ZM99.543 13.8717C99.5419 13.9556 99.5552 14.0289 99.5828 14.0916C99.6104 14.1531 99.6502 14.2009 99.7023 14.2349C99.7553 14.2678 99.8191 14.2843 99.8934 14.2843C99.9731 14.2843 100.043 14.2673 100.102 14.2333C100.163 14.1993 100.205 14.1436 100.228 14.0661H100.647C100.629 14.1829 100.582 14.2827 100.507 14.3655C100.432 14.4484 100.342 14.5116 100.236 14.5551C100.13 14.5987 100.019 14.6204 99.9046 14.6204C99.7421 14.6204 99.5987 14.5864 99.4745 14.5185C99.3513 14.4494 99.2552 14.3523 99.1861 14.227C99.1171 14.1016 99.0826 13.954 99.0826 13.7841C99.0826 13.6195 99.1139 13.4714 99.1766 13.3397C99.2392 13.2069 99.33 13.1023 99.449 13.0259C99.569 12.9483 99.7129 12.9096 99.8807 12.9096C100.048 12.9096 100.189 12.9451 100.303 13.0163C100.417 13.0864 100.504 13.1846 100.561 13.311C100.619 13.4363 100.648 13.5813 100.648 13.7459V13.8717H99.543ZM99.5414 13.5945H100.214C100.214 13.5287 100.201 13.4682 100.177 13.4129C100.153 13.3577 100.115 13.3142 100.065 13.2823C100.017 13.2505 99.955 13.2345 99.8807 13.2345C99.8084 13.2345 99.7469 13.2521 99.6959 13.2871C99.646 13.3211 99.6077 13.3657 99.5812 13.4209C99.5546 13.4761 99.5414 13.534 99.5414 13.5945Z" fill="white"/>
<rect x="76" y="18" width="220" height="26" fill="#DEE2E6"/>
<rect x="76" y="48" width="220" height="81" fill="#DEE2E6"/>
<rect x="85" y="27" width="81" height="8" fill="#00203E"/>
<rect x="85" y="57" width="81" height="4" fill="#00203E"/>
<rect x="85" y="89" width="81" height="4" fill="#00203E"/>
<rect opacity="0.5" x="85" y="65" width="198" height="4" fill="#00284D"/>
<rect opacity="0.5" x="85" y="97" width="198" height="4" fill="#00284D"/>
<rect opacity="0.5" x="85" y="71" width="198" height="4" fill="#00284D"/>
<rect opacity="0.5" x="85" y="103" width="198" height="4" fill="#00284D"/>
<rect opacity="0.5" x="85" y="77" width="142" height="4" fill="#00284D"/>
<rect opacity="0.5" x="85" y="109" width="142" height="4" fill="#00284D"/>
<g style="mix-blend-mode:color">
<rect width="320" height="120" fill="#808080"/>
</g>
<g style="mix-blend-mode:color">
<rect width="320" height="120" fill="#00284D"/>
</g>
</g>
<defs>
<clipPath id="clip0_1288_3671">
<rect width="320" height="120" fill="white"/>
</clipPath>
</defs>
</svg>
