<svg width="320" height="120" viewBox="0 0 320 120" fill="none" xmlns="http://www.w3.org/2000/svg">
<rect width="320" height="120" fill="#C0CEDB"/>
<g filter="url(#filter0_i)">
<rect x="20" y="52" width="280" height="40" rx="4" fill="white"/>
<rect x="21" y="53" width="278" height="38" rx="3" stroke="#6C757D" stroke-width="2"/>
</g>
<path d="M44.384 66.432H42.92L39.376 76.32L35.832 66.432H34.368L38.488 78H40.272L44.384 66.432ZM47.6065 78.16C48.7905 78.16 49.8065 77.736 50.4465 76.448L50.5585 78H51.8225V72.224C51.8225 70.496 50.7505 69.568 48.5985 69.568C46.5905 69.568 45.3585 70.456 45.2705 72.064H46.5745C46.7745 71.08 47.5745 70.664 48.5265 70.656C49.7985 70.656 50.3905 71.296 50.3905 72.304V72.952L48.9185 72.992C46.0865 73.056 44.8785 73.928 44.8785 75.76C44.8785 77.272 45.9985 78.16 47.6065 78.16ZM48.0465 77.096C47.0305 77.096 46.3105 76.552 46.3105 75.616C46.3105 74.392 47.2625 73.92 49.1665 73.888L50.3905 73.864V75.28C50.3905 76.2 49.1585 77.096 48.0465 77.096ZM56.2183 78.104C56.4263 78.104 56.7143 78.056 56.9623 77.976V77.016L56.5143 77.008C55.9303 76.968 55.5863 76.568 55.5863 75.728V66.112H54.1303V75.872C54.1303 77.032 54.4343 78.104 56.2183 78.104ZM61.7484 78.16C62.9164 78.168 63.9244 77.656 64.2284 76.416L64.3804 78H65.5564V69.728H64.0844V75.112C64.0844 76.368 63.2764 77.008 62.0604 77.008C60.7084 77.008 60.0524 76.272 60.0524 75.192V69.728H58.5724V75.344C58.5724 77.208 60.0284 78.144 61.7484 78.16ZM69.0776 74.208H75.0056V73.664C75.0056 71.152 73.7096 69.568 71.3816 69.568C68.9736 69.568 67.5816 71.336 67.5816 73.944C67.5816 76.584 69.1736 78.16 71.4856 78.16C73.0936 78.16 74.6456 77.272 74.9496 75.584H73.5576C73.3496 76.52 72.5176 77.016 71.4616 77.016C69.8536 77.016 69.0776 75.776 69.0776 74.208ZM69.0856 73.208C69.0776 71.976 69.8136 70.688 71.3736 70.688C72.8696 70.688 73.5816 71.784 73.5816 73.208H69.0856Z" fill="#343A40"/>
<path d="M32.776 37.344L33.872 36.576L32.32 34.696L34.504 34.04L34.128 32.872L31.968 33.816L32.152 31.432H30.824L30.992 33.808L28.864 32.912L28.44 34.08L30.68 34.704L29.096 36.632L30.176 37.384L31.488 35.232L32.776 37.344ZM40.1268 31.432L40.1188 43H47.3188V41.32H42.0948V31.432H40.1268ZM51.2616 43.16C52.4296 43.16 53.3496 42.752 53.9496 41.512L54.1096 43H55.7496V37.2C55.7496 35.536 54.7336 34.568 52.3736 34.568C50.3336 34.568 48.9576 35.424 48.8696 37.128H50.5256C50.7416 36.272 51.4776 35.936 52.2856 35.92C53.3656 35.912 53.8776 36.44 53.8776 37.312V37.872L52.6376 37.904C49.7576 37.952 48.5016 38.872 48.5016 40.696C48.5016 42.264 49.6696 43.16 51.2616 43.16ZM51.8936 41.84C51.0136 41.84 50.3576 41.344 50.3576 40.496C50.3576 39.392 51.3576 38.984 52.8616 38.968L53.8776 38.952V40.256C53.8696 41.064 52.8536 41.84 51.8936 41.84ZM62.1908 43.16C64.5108 43.16 65.7028 41.44 65.7028 38.824C65.7028 36.08 64.4228 34.568 62.3668 34.568C61.0068 34.568 60.1188 35.304 59.7748 35.936V31.112H57.8228V43H59.2548L59.4788 41.304C59.7348 42.096 60.4228 43.16 62.1908 43.16ZM61.7908 41.728C60.3908 41.728 59.7748 40.888 59.7748 38.776C59.7908 36.976 60.3908 36.016 61.7668 36.016C63.0468 36.016 63.7828 36.96 63.7828 38.776C63.7828 40.864 62.9508 41.728 61.7908 41.728ZM69.0394 39.312H74.7594V38.72C74.7594 36.224 73.4474 34.568 71.0074 34.568C68.5274 34.568 67.0954 36.416 67.0954 38.952C67.0954 41.552 68.7274 43.16 71.1194 43.16C72.7914 43.16 74.4394 42.2 74.7274 40.472H72.9514C72.7274 41.32 71.9994 41.72 71.0794 41.72C69.7434 41.72 69.0314 40.72 69.0394 39.312ZM69.0314 38.104C69.0314 37.04 69.7114 35.968 70.9994 35.968C72.2954 35.968 72.9194 36.904 72.9194 38.104H69.0314ZM79.0036 43.12C79.2676 43.12 79.5876 43.056 79.8756 42.96V41.736L79.4596 41.72C78.8036 41.664 78.5236 41.264 78.5236 40.544V31.112H76.6196V40.768C76.6196 41.944 76.8596 43.12 79.0036 43.12Z" fill="#00284D"/>
<g style="mix-blend-mode:color">
<rect width="320" height="120" fill="#808080"/>
</g>
<g style="mix-blend-mode:color">
<rect width="320" height="120" fill="#00284D"/>
</g>
<defs>
<filter id="filter0_i" x="20" y="52" width="280" height="43" filterUnits="userSpaceOnUse" color-interpolation-filters="sRGB">
<feFlood flood-opacity="0" result="BackgroundImageFix"/>
<feBlend mode="normal" in="SourceGraphic" in2="BackgroundImageFix" result="shape"/>
<feColorMatrix in="SourceAlpha" type="matrix" values="0 0 0 0 0 0 0 0 0 0 0 0 0 0 0 0 0 0 127 0" result="hardAlpha"/>
<feOffset dy="3"/>
<feGaussianBlur stdDeviation="2"/>
<feComposite in2="hardAlpha" operator="arithmetic" k2="-1" k3="1"/>
<feColorMatrix type="matrix" values="0 0 0 0 0 0 0 0 0 0 0 0 0 0 0 0 0 0 0.1 0"/>
<feBlend mode="normal" in2="shape" result="effect1_innerShadow"/>
</filter>
</defs>
</svg>
