<svg width="320" height="120" viewBox="0 0 320 120" fill="none" xmlns="http://www.w3.org/2000/svg">
<rect width="320" height="120" fill="#C0CEDB"/>
<path d="M67.0625 52.5C67.5312 52.5 68 52.1094 68 51.5625V48.75C68 46.7188 66.2812 45 64.25 45H60.5V40.9375C60.5 40.4688 60.0312 40 59.5625 40H56.4375C55.8906 40 55.5 40.4688 55.5 40.9375V45H45.5V40.9375C45.5 40.4688 45.0312 40 44.5625 40H41.4375C40.8906 40 40.5 40.4688 40.5 40.9375V45H36.75C34.6406 45 33 46.7188 33 48.75V51.5625C33 52.1094 33.3906 52.5 33.9375 52.5H67.0625ZM33.9375 55C33.3906 55 33 55.4688 33 55.9375V76.25C33 78.3594 34.6406 80 36.75 80H64.25C66.2812 80 68 78.3594 68 76.25V55.9375C68 55.4688 67.5312 55 67.0625 55H33.9375ZM58.625 65.9375V69.0625C58.625 69.6094 58.1562 70 57.6875 70H53V74.6875C53 75.2344 52.5312 75.625 52.0625 75.625H48.9375C48.3906 75.625 48 75.2344 48 74.6875V70H43.3125C42.7656 70 42.375 69.6094 42.375 69.0625V65.9375C42.375 65.4688 42.7656 65 43.3125 65H48V60.3125C48 59.8438 48.3906 59.375 48.9375 59.375H52.0625C52.5312 59.375 53 59.8438 53 60.3125V65H57.6875C58.1562 65 58.625 65.4688 58.625 65.9375Z" fill="white"/>
<path d="M104 40.625C93.2969 40.625 84.625 49.2969 84.625 60C84.625 70.7031 93.2969 79.375 104 79.375C114.703 79.375 123.375 70.7031 123.375 60C123.375 49.2969 114.703 40.625 104 40.625ZM111.188 65.0781L109.625 67.0312C109.391 67.3438 109.078 67.5781 108.609 67.5781C108.375 67.5781 108.062 67.4219 107.906 67.2656L102.672 63.3594C101.891 62.8125 101.5 61.9531 101.5 60.9375V48.75C101.5 48.125 102.047 47.5 102.75 47.5H105.25C105.875 47.5 106.5 48.125 106.5 48.75V60L111.031 63.3594C111.266 63.5938 111.5 63.9062 111.5 64.2969C111.5 64.6094 111.344 64.9219 111.188 65.0781Z" fill="#00284D"/>
<path d="M176.094 44.9219C171.797 41.25 165.469 41.9531 161.484 46.0156L160 47.5781L158.438 46.0156C154.531 41.9531 148.125 41.25 143.828 44.9219C138.906 49.1406 138.672 56.6406 143.047 61.1719L158.203 76.7969C159.141 77.8125 160.781 77.8125 161.719 76.7969L176.875 61.1719C181.25 56.6406 181.016 49.1406 176.094 44.9219Z" fill="white"/>
<path d="M230.062 77.5H228.5V41.875C228.5 40.8594 227.641 40 226.625 40H200.375C199.281 40 198.5 40.8594 198.5 41.875V77.5H196.938C196.391 77.5 196 77.9688 196 78.4375V80H231V78.4375C231 77.9688 230.531 77.5 230.062 77.5ZM206 45.9375C206 45.4688 206.391 45 206.938 45H210.062C210.531 45 211 45.4688 211 45.9375V49.0625C211 49.6094 210.531 50 210.062 50H206.938C206.391 50 206 49.6094 206 49.0625V45.9375ZM206 53.4375C206 52.9688 206.391 52.5 206.938 52.5H210.062C210.531 52.5 211 52.9688 211 53.4375V56.5625C211 57.1094 210.531 57.5 210.062 57.5H206.938C206.391 57.5 206 57.1094 206 56.5625V53.4375ZM210.062 65H206.938C206.391 65 206 64.6094 206 64.0625V60.9375C206 60.4688 206.391 60 206.938 60H210.062C210.531 60 211 60.4688 211 60.9375V64.0625C211 64.6094 210.531 65 210.062 65ZM216 77.5H211V70.9375C211 70.4688 211.391 70 211.938 70H215.062C215.531 70 216 70.4688 216 70.9375V77.5ZM221 64.0625C221 64.6094 220.531 65 220.062 65H216.938C216.391 65 216 64.6094 216 64.0625V60.9375C216 60.4688 216.391 60 216.938 60H220.062C220.531 60 221 60.4688 221 60.9375V64.0625ZM221 56.5625C221 57.1094 220.531 57.5 220.062 57.5H216.938C216.391 57.5 216 57.1094 216 56.5625V53.4375C216 52.9688 216.391 52.5 216.938 52.5H220.062C220.531 52.5 221 52.9688 221 53.4375V56.5625ZM221 49.0625C221 49.6094 220.531 50 220.062 50H216.938C216.391 50 216 49.6094 216 49.0625V45.9375C216 45.4688 216.391 45 216.938 45H220.062C220.531 45 221 45.4688 221 45.9375V49.0625Z" fill="#00284D"/>
<path d="M285.047 64.6875L281.688 62.8125C282.078 60.9375 282.078 59.1406 281.688 57.2656L285.047 55.3906C285.438 55.1562 285.594 54.6875 285.438 54.2969C284.578 51.4844 283.094 48.9844 281.219 46.875C280.906 46.5625 280.438 46.4844 280.047 46.7188L276.688 48.5938C275.281 47.4219 273.719 46.4844 272 45.8594V42.0312C272 41.6406 271.688 41.25 271.219 41.1719C268.328 40.4688 265.438 40.5469 262.703 41.1719C262.234 41.25 262 41.6406 262 42.0312V45.8594C260.203 46.4844 258.641 47.4219 257.234 48.6719L253.875 46.7188C253.484 46.4844 253.016 46.5625 252.703 46.875C250.828 48.9844 249.344 51.4844 248.484 54.2969C248.328 54.6875 248.484 55.1562 248.875 55.3906L252.234 57.2656C251.922 59.1406 251.922 60.9375 252.234 62.8125L248.875 64.6875C248.484 64.9219 248.328 65.3906 248.484 65.7812C249.344 68.5938 250.828 71.0938 252.703 73.2031C253.016 73.5156 253.484 73.5938 253.875 73.3594L257.234 71.4844C258.641 72.6562 260.203 73.5938 262 74.2188V78.0469C262 78.4375 262.312 78.8281 262.703 78.9844C265.594 79.6094 268.484 79.5312 271.219 78.9844C271.688 78.8281 272 78.4375 272 78.0469V74.2188C273.719 73.5938 275.281 72.6562 276.688 71.4844L280.047 73.3594C280.438 73.5938 280.906 73.5156 281.219 73.2031C283.172 71.0938 284.578 68.5938 285.516 65.7812C285.594 65.3906 285.438 64.9219 285.047 64.6875ZM267 66.25C263.484 66.25 260.75 63.5156 260.75 60C260.75 56.5625 263.484 53.75 267 53.75C270.438 53.75 273.25 56.5625 273.25 60C273.25 63.5156 270.438 66.25 267 66.25Z" fill="white"/>
<g style="mix-blend-mode:color">
<rect width="320" height="120" fill="#808080"/>
</g>
<g style="mix-blend-mode:color">
<rect width="320" height="120" fill="#00284D"/>
</g>
</svg>
