<svg width="320" height="120" viewBox="0 0 320 120" fill="none" xmlns="http://www.w3.org/2000/svg">
<rect width="320" height="120" fill="#C0CEDB"/>
<rect x="91" y="41" width="138" height="38" rx="3" fill="white"/>
<path d="M211.121 60.625C210.52 60.625 210.219 61.3359 210.656 61.7461L213.91 65C214.156 65.2734 214.566 65.2734 214.84 65L218.094 61.7461C218.504 61.3359 218.203 60.625 217.629 60.625H211.121ZM218.094 57.7539L214.84 54.5C214.566 54.2539 214.156 54.2539 213.91 54.5L210.656 57.7539C210.219 58.1914 210.52 58.875 211.121 58.875H217.629C218.203 58.875 218.504 58.1914 218.094 57.7539Z" fill="#6C757D"/>
<path d="M107.248 60.664V66H108.728V54.432H107.248V59.36H101.008V54.432H99.528V66H101.008V60.664H107.248ZM112.453 62.208H118.381V61.664C118.381 59.152 117.085 57.568 114.757 57.568C112.349 57.568 110.957 59.336 110.957 61.944C110.957 64.584 112.549 66.16 114.861 66.16C116.469 66.16 118.021 65.272 118.325 63.584H116.933C116.725 64.52 115.893 65.016 114.837 65.016C113.229 65.016 112.453 63.776 112.453 62.208ZM112.461 61.208C112.453 59.976 113.189 58.688 114.749 58.688C116.245 58.688 116.957 59.784 116.957 61.208H112.461ZM122.515 66.104C122.723 66.104 123.011 66.056 123.259 65.976V65.016L122.811 65.008C122.227 64.968 121.883 64.568 121.883 63.728V54.112H120.427V63.872C120.427 65.032 120.731 66.104 122.515 66.104ZM127.125 66.104C127.333 66.104 127.621 66.056 127.869 65.976V65.016L127.421 65.008C126.837 64.968 126.493 64.568 126.493 63.728V54.112H125.037V63.872C125.037 65.032 125.341 66.104 127.125 66.104ZM132.786 66.16C135.25 66.16 136.554 64.424 136.554 61.896C136.554 59.112 135.074 57.568 132.794 57.568C130.346 57.568 128.994 59.304 128.994 61.896C128.994 64.656 130.49 66.16 132.786 66.16ZM132.794 64.992C131.138 64.992 130.466 63.608 130.466 61.864C130.466 59.896 131.29 58.728 132.794 58.728C134.418 58.728 135.09 60.096 135.09 61.864C135.09 63.808 134.274 64.992 132.794 64.992Z" fill="#495057"/>
<rect x="91" y="41" width="138" height="38" rx="3" stroke="#6C757D" stroke-width="2"/>
<g style="mix-blend-mode:color">
<rect width="320" height="120" fill="#808080"/>
</g>
<g style="mix-blend-mode:color">
<rect width="320" height="120" fill="#00284D"/>
</g>
</svg>
