<svg width="320" height="120" viewBox="0 0 320 120" fill="none" xmlns="http://www.w3.org/2000/svg">
<rect width="320" height="120" fill="#C0CEDB"/>
<path d="M161.375 36.1169C164.746 36.1169 167.762 39.1331 167.762 42.504C167.762 46.0524 164.746 48.8911 161.375 48.8911C157.827 48.8911 154.988 46.0524 154.988 42.504C154.988 39.1331 157.827 36.1169 161.375 36.1169ZM182.133 53.6815C177.165 54.746 172.375 55.8105 167.585 56.3427C167.762 74.2621 169.714 78.1653 172.02 84.0202C172.73 85.6169 171.843 87.5686 170.246 88.1008C168.649 88.8105 166.698 87.9234 166.165 86.3266C164.569 82.4234 163.149 79.0524 162.085 72.3105H160.488C159.423 79.0524 158.004 82.4234 156.407 86.3266C155.875 87.9234 153.923 88.8105 152.327 88.1008C150.73 87.5686 149.843 85.6169 150.552 84.0202C152.859 78.1653 154.81 74.2621 154.988 56.3427C150.198 55.8105 145.407 54.746 140.44 53.6815C138.843 53.1492 137.956 51.7298 138.31 50.1331C138.665 48.7137 140.262 47.6492 141.681 48.004C158.891 52.0847 163.681 52.0847 180.891 48.004C182.31 47.6492 183.907 48.7137 184.262 50.1331C184.617 51.7298 183.73 53.1492 182.133 53.6815Z" fill="black"/>
<path opacity="0.5" d="M160 25.4718C180.226 25.4718 196.903 42.1492 196.903 62.375C196.903 82.7782 180.226 99.2782 160 99.2782C139.597 99.2782 123.097 82.7782 123.097 62.375C123.097 42.1492 139.597 25.4718 160 25.4718ZM160 18.375C135.694 18.375 116 38.246 116 62.375C116 86.6814 135.694 106.375 160 106.375C184.129 106.375 204 86.6814 204 62.375C204 38.246 184.129 18.375 160 18.375Z" fill="black"/>
<g style="mix-blend-mode:color">
<rect width="320" height="120" fill="#808080"/>
</g>
<g style="mix-blend-mode:color">
<rect width="320" height="120" fill="#00284D"/>
</g>
</svg>
