<svg width="320" height="120" viewBox="0 0 320 120" fill="none" xmlns="http://www.w3.org/2000/svg">
<rect width="320" height="120" fill="#C0CEDB"/>
<path d="M24 37H296C297.657 37 299 38.3431 299 40V80C299 81.6569 297.657 83 296 83H24C22.3431 83 21 81.6569 21 80V40C21 38.3431 22.3431 37 24 37Z" fill="#FFECB3" stroke="#5C3400" stroke-width="2"/>
<path d="M277.836 60.75L282.133 56.4531C282.691 55.9375 282.691 55.0781 282.133 54.5625L281.188 53.6172C280.672 53.0586 279.812 53.0586 279.297 53.6172L275 57.9141L270.66 53.6172C270.145 53.0586 269.285 53.0586 268.77 53.6172L267.824 54.5625C267.266 55.0781 267.266 55.9375 267.824 56.4531L272.121 60.75L267.824 65.0898C267.266 65.6055 267.266 66.4648 267.824 66.9805L268.77 67.9258C269.285 68.4844 270.145 68.4844 270.66 67.9258L275 63.6289L279.297 67.9258C279.812 68.4844 280.672 68.4844 281.188 67.9258L282.133 66.9805C282.691 66.4648 282.691 65.6055 282.133 65.0898L277.836 60.75Z" fill="#5C3400"/>
<path d="M80.192 55.432H77.912L75.76 63.072L73.584 55.432H71.896L69.744 63.072L67.592 55.432H65.304L68.712 67H70.544L72.736 59.44L74.912 67H76.776L80.192 55.432ZM83.1279 67.16C84.2879 67.16 85.1279 66.776 85.6959 65.576L85.8879 67H87.8399V61.184C87.8399 59.56 86.8719 58.568 84.3439 58.568C82.2719 58.568 80.7759 59.4 80.6879 61.192H82.6319C82.8639 60.432 83.5519 60.152 84.2319 60.144C85.1679 60.136 85.5999 60.56 85.5999 61.32V61.816L84.5599 61.832C81.6399 61.864 80.3359 62.824 80.3359 64.632C80.3359 66.248 81.5519 67.16 83.1279 67.16ZM83.9199 65.624C83.1519 65.624 82.5519 65.168 82.5519 64.4C82.5519 63.392 83.5919 63.048 84.7599 63.032L85.5999 63.016V64.24C85.5919 64.952 84.7599 65.624 83.9199 65.624ZM89.7344 67H92.0704V62.472C92.0704 61.36 92.7744 60.624 94.6144 60.784C94.7264 60.792 94.8704 60.8 94.9664 60.84V58.616C94.9024 58.584 94.7584 58.568 94.6064 58.568C93.3024 58.568 92.3744 59.424 91.9824 60.688V58.728H89.7344V67ZM96.3281 67H98.6641V61.704C98.6641 60.896 99.4401 60.488 100.208 60.488C100.968 60.488 101.584 60.936 101.584 61.832V67H103.92V61.544C103.92 59.496 102.536 58.656 101.024 58.656C99.7201 58.656 99.0001 59.296 98.6241 59.896V58.728H96.3281V67ZM108.085 55.44H105.812V57.544H108.085V55.44ZM108.069 58.728H105.837V67H108.069V58.728ZM110.125 67H112.461V61.704C112.461 60.896 113.237 60.488 114.005 60.488C114.765 60.488 115.381 60.936 115.381 61.832V67H117.717V61.544C117.717 59.496 116.333 58.656 114.821 58.656C113.517 58.656 112.797 59.296 112.421 59.896V58.728H110.125V67ZM123.449 69.736C126.393 69.736 127.857 68.616 127.857 67.064C127.857 65.76 126.865 64.832 124.841 64.696C124.113 64.648 123.473 64.616 123.121 64.592C122.145 64.536 121.673 64.496 121.673 64.232C121.673 64.064 121.873 63.92 122.497 63.888C122.705 63.912 123.121 63.92 123.313 63.92C125.785 63.92 127.057 62.624 127.057 61.184C127.057 60.968 126.993 60.608 126.881 60.312L128.305 60.08L128.321 58.272C127.625 58.56 126.385 59.056 125.889 59.248C125.273 58.864 124.617 58.6 123.481 58.6C121.233 58.6 119.561 59.56 119.561 61.192C119.561 62.112 120.137 63.072 121.233 63.576C120.089 63.776 119.537 64.328 119.537 64.912C119.537 65.696 120.297 65.992 120.553 66.144C120.393 66.232 118.945 66.576 118.945 67.704C118.945 68.92 120.505 69.736 123.449 69.736ZM123.385 62.616C122.465 62.616 121.905 62.088 121.905 61.264C121.905 60.408 122.497 59.832 123.385 59.832C124.265 59.832 124.849 60.4 124.849 61.264C124.849 62.104 124.265 62.616 123.385 62.616ZM123.825 68.432C122.049 68.432 121.233 68.128 121.233 67.432C121.233 66.92 121.729 66.448 122.481 66.488L124.377 66.616C125.193 66.672 125.633 67.008 125.633 67.504C125.633 68.104 125.121 68.432 123.825 68.432ZM132.216 55.432H129.48L130.136 63.432H131.6L132.216 55.432ZM132.12 64.504H129.568V67H132.12V64.504ZM138.325 67H142.165C145.117 67 146.613 65.984 146.613 63.888C146.613 62.584 146.005 61.496 144.181 61.104C145.765 60.544 146.325 59.672 146.325 58.448C146.325 56.496 144.853 55.432 142.045 55.432H138.325V67ZM139.805 60.52V56.656H142.117C143.757 56.656 144.893 57.288 144.893 58.632C144.893 60.096 143.525 60.52 142.325 60.52H139.805ZM139.805 65.768V61.776H142.325C143.877 61.776 145.109 62.376 145.109 63.824C145.109 65.144 144.077 65.768 142.149 65.768H139.805ZM149.906 63.208H155.834V62.664C155.834 60.152 154.538 58.568 152.21 58.568C149.802 58.568 148.41 60.336 148.41 62.944C148.41 65.584 150.002 67.16 152.314 67.16C153.922 67.16 155.474 66.272 155.778 64.584H154.386C154.178 65.52 153.346 66.016 152.29 66.016C150.682 66.016 149.906 64.776 149.906 63.208ZM149.914 62.208C149.906 60.976 150.642 59.688 152.202 59.688C153.698 59.688 154.41 60.784 154.41 62.208H149.914ZM164.786 58.568C162.346 58.568 160.978 60.32 160.978 62.896C160.978 65.672 162.546 67.16 164.786 67.16C166.538 67.16 167.882 66.112 168.098 64.448H166.81C166.666 65.28 165.946 66.032 164.81 66.032C163.226 66.032 162.394 64.792 162.394 62.88C162.394 60.768 163.378 59.76 164.794 59.76C165.93 59.76 166.65 60.472 166.794 61.344H168.106C167.882 59.656 166.562 58.568 164.786 58.568ZM172.372 67.16C173.556 67.16 174.572 66.736 175.212 65.448L175.324 67H176.588V61.224C176.588 59.496 175.516 58.568 173.364 58.568C171.356 58.568 170.124 59.456 170.036 61.064H171.34C171.54 60.08 172.34 59.664 173.292 59.656C174.564 59.656 175.156 60.296 175.156 61.304V61.952L173.684 61.992C170.852 62.056 169.644 62.928 169.644 64.76C169.644 66.272 170.764 67.16 172.372 67.16ZM172.812 66.096C171.796 66.096 171.076 65.552 171.076 64.616C171.076 63.392 172.028 62.92 173.932 62.888L175.156 62.864V64.28C175.156 65.2 173.924 66.096 172.812 66.096ZM178.896 67H180.368V61.856C180.368 60.48 181.44 59.92 182.76 60.008C182.928 60.008 183.224 60.032 183.384 60.104V58.672C183.248 58.6 182.992 58.568 182.752 58.568C181.704 58.568 180.72 59.128 180.304 60.32V58.728H178.896V67ZM186.109 63.208H192.037V62.664C192.037 60.152 190.741 58.568 188.413 58.568C186.005 58.568 184.613 60.336 184.613 62.944C184.613 65.584 186.205 67.16 188.517 67.16C190.125 67.16 191.677 66.272 191.981 64.584H190.589C190.381 65.52 189.549 66.016 188.493 66.016C186.885 66.016 186.109 64.776 186.109 63.208ZM186.117 62.208C186.109 60.976 186.845 59.688 188.405 59.688C189.901 59.688 190.613 60.784 190.613 62.208H186.117ZM198.363 58.728H196.331V57.576C196.331 56.84 196.531 56.48 197.211 56.48H198.443L198.435 55.432H196.875C195.539 55.432 194.875 56.136 194.875 57.448V58.728H193.123V59.808H194.875V67H196.355V59.808H198.363V58.728ZM203.139 67.16C204.307 67.168 205.315 66.656 205.619 65.416L205.771 67H206.947V58.728H205.475V64.112C205.475 65.368 204.667 66.008 203.451 66.008C202.099 66.008 201.443 65.272 201.443 64.192V58.728H199.963V64.344C199.963 66.208 201.419 67.144 203.139 67.16ZM211.578 67.104C211.786 67.104 212.074 67.056 212.322 66.976V66.016L211.874 66.008C211.29 65.968 210.946 65.568 210.946 64.728V55.112H209.49V64.872C209.49 66.032 209.794 67.104 211.578 67.104ZM214.068 67H215.828V65.112H214.068V67Z" fill="#5C3400"/>
<path d="M55.6562 60.75C55.6562 54.9062 50.8438 50.0938 45 50.0938C39.1133 50.0938 34.3438 54.9062 34.3438 60.75C34.3438 66.6367 39.1133 71.4062 45 71.4062C50.8438 71.4062 55.6562 66.6367 55.6562 60.75ZM45 62.8984C46.0742 62.8984 46.9766 63.8008 46.9766 64.875C46.9766 65.9922 46.0742 66.8516 45 66.8516C43.8828 66.8516 43.0234 65.9922 43.0234 64.875C43.0234 63.8008 43.8828 62.8984 45 62.8984ZM43.1094 55.8086C43.0664 55.5078 43.3242 55.25 43.625 55.25H46.332C46.6328 55.25 46.8906 55.5078 46.8477 55.8086L46.5469 61.6523C46.5039 61.9531 46.2891 62.125 46.0312 62.125H43.9258C43.668 62.125 43.4531 61.9531 43.4102 61.6523L43.1094 55.8086Z" fill="#5C3400"/>
<g style="mix-blend-mode:color">
<rect width="320" height="120" fill="#808080"/>
</g>
<g style="mix-blend-mode:color">
<rect width="320" height="120" fill="#00284D"/>
</g>
</svg>
