<svg width="320" height="120" viewBox="0 0 320 120" fill="none" xmlns="http://www.w3.org/2000/svg">
<rect width="320" height="120" fill="#C0CEDB"/>
<rect width="274" height="59.9375" transform="translate(23 30)" fill="white"/>
<path d="M177.111 65.9954L176.032 65.3933C176.158 64.7913 176.158 64.2143 176.032 63.6122L177.111 63.0102C177.237 62.9349 177.287 62.7844 177.237 62.659C176.961 61.7559 176.484 60.9532 175.882 60.2759C175.782 60.1755 175.631 60.1505 175.506 60.2257L174.427 60.8278C173.975 60.4515 173.474 60.1505 172.922 59.9498V58.7206C172.922 58.5952 172.822 58.4697 172.671 58.4446C171.743 58.2189 170.815 58.244 169.937 58.4446C169.786 58.4697 169.711 58.5952 169.711 58.7206V59.9498C169.134 60.1505 168.632 60.4515 168.181 60.8528L167.102 60.2257C166.977 60.1505 166.826 60.1755 166.726 60.2759C166.124 60.9532 165.647 61.7559 165.371 62.659C165.321 62.7844 165.371 62.9349 165.497 63.0102L166.575 63.6122C166.475 64.2143 166.475 64.7913 166.575 65.3933L165.497 65.9954C165.371 66.0706 165.321 66.2211 165.371 66.3466C165.647 67.2496 166.124 68.0524 166.726 68.7297C166.826 68.83 166.977 68.8551 167.102 68.7798L168.181 68.1778C168.632 68.5541 169.134 68.8551 169.711 69.0558V70.285C169.711 70.4104 169.811 70.5358 169.937 70.586C170.865 70.7867 171.793 70.7616 172.671 70.586C172.822 70.5358 172.922 70.4104 172.922 70.285V69.0558C173.474 68.8551 173.975 68.5541 174.427 68.1778L175.506 68.7798C175.631 68.8551 175.782 68.83 175.882 68.7297C176.509 68.0524 176.961 67.2496 177.262 66.3466C177.287 66.2211 177.237 66.0706 177.111 65.9954ZM171.316 66.4971C170.188 66.4971 169.31 65.6191 169.31 64.4902C169.31 63.3865 170.188 62.4834 171.316 62.4834C172.42 62.4834 173.323 63.3865 173.323 64.4902C173.323 65.6191 172.42 66.4971 171.316 66.4971Z" fill="#00284D"/>
<path d="M220.726 65.9954L219.648 65.3933C219.773 64.7913 219.773 64.2143 219.648 63.6122L220.726 63.0102C220.852 62.9349 220.902 62.7844 220.852 62.659C220.576 61.7559 220.099 60.9532 219.497 60.2759C219.397 60.1755 219.246 60.1505 219.121 60.2257L218.042 60.8278C217.591 60.4515 217.089 60.1505 216.537 59.9498V58.7206C216.537 58.5952 216.437 58.4697 216.286 58.4446C215.358 58.2189 214.43 58.244 213.552 58.4446C213.401 58.4697 213.326 58.5952 213.326 58.7206V59.9498C212.749 60.1505 212.247 60.4515 211.796 60.8528L210.717 60.2257C210.592 60.1505 210.441 60.1755 210.341 60.2759C209.739 60.9532 209.262 61.7559 208.986 62.659C208.936 62.7844 208.986 62.9349 209.112 63.0102L210.19 63.6122C210.09 64.2143 210.09 64.7913 210.19 65.3933L209.112 65.9954C208.986 66.0706 208.936 66.2211 208.986 66.3466C209.262 67.2496 209.739 68.0524 210.341 68.7297C210.441 68.83 210.592 68.8551 210.717 68.7798L211.796 68.1778C212.247 68.5541 212.749 68.8551 213.326 69.0558V70.285C213.326 70.4104 213.427 70.5358 213.552 70.586C214.48 70.7867 215.408 70.7616 216.286 70.586C216.437 70.5358 216.537 70.4104 216.537 70.285V69.0558C217.089 68.8551 217.591 68.5541 218.042 68.1778L219.121 68.7798C219.246 68.8551 219.397 68.83 219.497 68.7297C220.124 68.0524 220.576 67.2496 220.877 66.3466C220.902 66.2211 220.852 66.0706 220.726 65.9954ZM214.932 66.4971C213.803 66.4971 212.925 65.6191 212.925 64.4902C212.925 63.3865 213.803 62.4834 214.932 62.4834C216.035 62.4834 216.938 63.3865 216.938 64.4902C216.938 65.6191 216.035 66.4971 214.932 66.4971Z" fill="#00284D"/>
<path d="M261.666 65.9954L260.587 65.3933C260.713 64.7913 260.713 64.2143 260.587 63.6122L261.666 63.0102C261.791 62.9349 261.841 62.7844 261.791 62.659C261.515 61.7559 261.039 60.9532 260.437 60.2759C260.336 60.1755 260.186 60.1505 260.06 60.2257L258.982 60.8278C258.53 60.4515 258.028 60.1505 257.477 59.9498V58.7206C257.477 58.5952 257.376 58.4697 257.226 58.4446C256.298 58.2189 255.369 58.244 254.491 58.4446C254.341 58.4697 254.266 58.5952 254.266 58.7206V59.9498C253.689 60.1505 253.187 60.4515 252.735 60.8528L251.657 60.2257C251.531 60.1505 251.381 60.1755 251.28 60.2759C250.678 60.9532 250.202 61.7559 249.926 62.659C249.876 62.7844 249.926 62.9349 250.051 63.0102L251.13 63.6122C251.03 64.2143 251.03 64.7913 251.13 65.3933L250.051 65.9954C249.926 66.0706 249.876 66.2211 249.926 66.3466C250.202 67.2496 250.678 68.0524 251.28 68.7297C251.381 68.83 251.531 68.8551 251.657 68.7798L252.735 68.1778C253.187 68.5541 253.689 68.8551 254.266 69.0558V70.285C254.266 70.4104 254.366 70.5358 254.491 70.586C255.42 70.7867 256.348 70.7616 257.226 70.586C257.376 70.5358 257.477 70.4104 257.477 70.285V69.0558C258.028 68.8551 258.53 68.5541 258.982 68.1778L260.06 68.7798C260.186 68.8551 260.336 68.83 260.437 68.7297C261.064 68.0524 261.515 67.2496 261.816 66.3466C261.841 66.2211 261.791 66.0706 261.666 65.9954ZM255.871 66.4971C254.742 66.4971 253.864 65.6191 253.864 64.4902C253.864 63.3865 254.742 62.4834 255.871 62.4834C256.975 62.4834 257.878 63.3865 257.878 64.4902C257.878 65.6191 256.975 66.4971 255.871 66.4971Z" fill="#00284D"/>
<path d="M50.659 57.9561H51.6587V60.6875H52.0568V57.9561H53.0009V57.5922H50.659V57.9561ZM53.4301 60.6875H53.8239V59.2105C53.8239 58.9129 54.0936 58.7695 54.3933 58.7695C54.6845 58.7695 54.8835 58.9215 54.8835 59.1848V60.6875H55.2796V59.1056C55.2796 58.701 54.9392 58.4463 54.5068 58.4463C54.1514 58.4463 53.9267 58.6175 53.8154 58.7995V57.5065H53.4301V60.6875ZM56.3014 57.5943H55.8968V58.0053H56.3014V57.5943ZM56.2907 58.4741H55.9075V60.6875H56.2907V58.4741ZM57.7509 60.7303C58.2903 60.7303 58.6028 60.4799 58.6028 60.0731C58.6028 59.8548 58.4915 59.5851 58.0848 59.478L57.6396 59.3667C57.3955 59.3068 57.2671 59.2276 57.2671 59.0692C57.2671 58.8337 57.4619 58.7224 57.7445 58.7224C58.0185 58.7224 58.1811 58.8551 58.2111 59.067H58.5622C58.5472 58.6518 58.2282 58.4313 57.7487 58.4313C57.1879 58.4313 56.9032 58.7053 56.9053 59.0927C56.9075 59.4224 57.1365 59.5915 57.494 59.6771L57.9521 59.7906C58.1533 59.8377 58.2475 59.9319 58.2475 60.0945C58.2475 60.3257 58.0484 60.4349 57.7487 60.4349C57.4683 60.4349 57.2457 60.3022 57.19 60.0432H56.8304C56.8946 60.5205 57.2885 60.7303 57.7509 60.7303ZM60.5534 57.5943H60.1488V58.0053H60.5534V57.5943ZM60.5426 58.4741H60.1595V60.6875H60.5426V58.4741ZM62.0029 60.7303C62.5423 60.7303 62.8548 60.4799 62.8548 60.0731C62.8548 59.8548 62.7435 59.5851 62.3368 59.478L61.8915 59.3667C61.6475 59.3068 61.5191 59.2276 61.5191 59.0692C61.5191 58.8337 61.7139 58.7224 61.9964 58.7224C62.2704 58.7224 62.4331 58.8551 62.4631 59.067H62.8142C62.7992 58.6518 62.4802 58.4313 62.0007 58.4313C61.4399 58.4313 61.1552 58.7053 61.1573 59.0927C61.1595 59.4224 61.3885 59.5915 61.746 59.6771L62.2041 59.7906C62.4053 59.8377 62.4995 59.9319 62.4995 60.0945C62.4995 60.3257 62.3004 60.4349 62.0007 60.4349C61.7203 60.4349 61.4977 60.3022 61.442 60.0432H61.0824C61.1466 60.5205 61.5405 60.7303 62.0029 60.7303ZM65.1971 60.7303C65.7365 60.7303 66.049 60.4799 66.049 60.0731C66.049 59.8548 65.9377 59.5851 65.531 59.478L65.0858 59.3667C64.8417 59.3068 64.7133 59.2276 64.7133 59.0692C64.7133 58.8337 64.9081 58.7224 65.1906 58.7224C65.4646 58.7224 65.6273 58.8551 65.6573 59.067H66.0084C65.9934 58.6518 65.6744 58.4313 65.1949 58.4313C64.6341 58.4313 64.3494 58.7053 64.3515 59.0927C64.3537 59.4224 64.5827 59.5915 64.9402 59.6771L65.3983 59.7906C65.5995 59.8377 65.6937 59.9319 65.6937 60.0945C65.6937 60.3257 65.4946 60.4349 65.1949 60.4349C64.9145 60.4349 64.6919 60.3022 64.6362 60.0432H64.2766C64.3408 60.5205 64.7347 60.7303 65.1971 60.7303ZM66.5706 60.6875H66.9645V59.2083C66.9645 58.8979 67.2364 58.7674 67.4633 58.7674C67.6688 58.7674 67.9128 58.9001 67.9128 59.1634V60.6875H68.3067V59.2083C68.3067 58.8722 68.5957 58.7674 68.8033 58.7674C69.0366 58.7674 69.2571 58.8787 69.2571 59.279V60.6875H69.6553V59.2404C69.6553 58.5854 69.2464 58.4313 68.9339 58.4313C68.6406 58.4313 68.3966 58.5768 68.2596 58.793C68.144 58.5576 67.8636 58.4313 67.6217 58.4313C67.2771 58.4313 67.0737 58.6004 66.9517 58.7952V58.4741H66.5706V60.6875ZM70.8874 60.7303C71.2042 60.7303 71.476 60.6169 71.6473 60.2722L71.6772 60.6875H72.0155V59.142C72.0155 58.6796 71.7286 58.4313 71.1528 58.4313C70.6155 58.4313 70.2858 58.6689 70.2623 59.0992H70.6112C70.6647 58.8359 70.8788 58.7245 71.1335 58.7224C71.4739 58.7224 71.6323 58.8937 71.6323 59.1634V59.3368L71.2384 59.3475C70.4806 59.3646 70.1574 59.5979 70.1574 60.0881C70.1574 60.4927 70.4571 60.7303 70.8874 60.7303ZM71.0051 60.4456C70.7332 60.4456 70.5406 60.3 70.5406 60.0496C70.5406 59.7221 70.7953 59.5958 71.3048 59.5872L71.6323 59.5808V59.9597C71.6323 60.2059 71.3026 60.4456 71.0051 60.4456ZM73.1917 60.7153C73.2473 60.7153 73.3244 60.7025 73.3907 60.6811V60.4242L73.2709 60.4221C73.1146 60.4114 73.0226 60.3043 73.0226 60.0796V57.5065H72.633V60.1181C72.633 60.4285 72.7143 60.7153 73.1917 60.7153ZM74.425 60.7153C74.4807 60.7153 74.5578 60.7025 74.6241 60.6811V60.4242L74.5042 60.4221C74.348 60.4114 74.2559 60.3043 74.2559 60.0796V57.5065H73.8663V60.1181C73.8663 60.4285 73.9477 60.7153 74.425 60.7153ZM75.3448 59.6728H76.931V59.5273C76.931 58.8551 76.5843 58.4313 75.9613 58.4313C75.317 58.4313 74.9445 58.9044 74.9445 59.6022C74.9445 60.3086 75.3705 60.7303 75.9892 60.7303C76.4194 60.7303 76.8347 60.4927 76.9161 60.041H76.5436C76.4879 60.2915 76.2653 60.4242 75.9827 60.4242C75.5525 60.4242 75.3448 60.0924 75.3448 59.6728ZM75.347 59.4053C75.3448 59.0756 75.5418 58.731 75.9592 58.731C76.3595 58.731 76.55 59.0242 76.55 59.4053H75.347ZM77.4786 60.6875H77.8725V59.3111C77.8725 58.9429 78.1594 58.793 78.5126 58.8166C78.5575 58.8166 78.6367 58.823 78.6795 58.8423V58.4591C78.6431 58.4398 78.5746 58.4313 78.5104 58.4313C78.23 58.4313 77.9667 58.5811 77.8554 58.9001V58.4741H77.4786V60.6875ZM81.318 58.7631V58.472H80.8193V57.8298H80.5281L80.4318 58.4741H80.0615V58.7631H80.4211V60.1523C80.4211 60.5077 80.5431 60.6982 81.0033 60.6982C81.1639 60.6982 81.2752 60.6832 81.3309 60.6618V60.3964H81.089C80.8813 60.3964 80.8193 60.375 80.8193 60.1395V58.7631H81.318ZM82.0886 59.6728H83.6748V59.5273C83.6748 58.8551 83.3281 58.4313 82.7051 58.4313C82.0608 58.4313 81.6883 58.9044 81.6883 59.6022C81.6883 60.3086 82.1143 60.7303 82.733 60.7303C83.1632 60.7303 83.5785 60.4927 83.6599 60.041H83.2874C83.2317 60.2915 83.0091 60.4242 82.7265 60.4242C82.2963 60.4242 82.0886 60.0924 82.0886 59.6728ZM82.0908 59.4053C82.0886 59.0756 82.2856 58.731 82.703 58.731C83.1033 58.731 83.2938 59.0242 83.2938 59.4053H82.0908ZM86.0263 60.6875L85.1744 59.538L85.9621 58.4741H85.5297L84.9539 59.2511L84.378 58.4741H83.9478L84.7312 59.538L83.8793 60.6875H84.3117L84.9517 59.8205L85.5961 60.6875H86.0263ZM87.5141 58.7631V58.472H87.0154V57.8298H86.7242L86.6279 58.4741H86.2576V58.7631H86.6172V60.1523C86.6172 60.5077 86.7392 60.6982 87.1995 60.6982C87.36 60.6982 87.4713 60.6832 87.527 60.6618V60.3964H87.2851C87.0774 60.3964 87.0154 60.375 87.0154 60.1395V58.7631H87.5141ZM91.9773 58.4741H91.607L91.1211 60.1716H91.0868L90.5688 58.4741H90.2691L89.7703 60.1759H89.7361L89.2309 58.4741H88.8627L89.5477 60.6875H89.933L90.4147 59.0542L90.9177 60.6875H91.3073L91.9773 58.4741ZM92.4296 60.6875H92.8234V59.2105C92.8234 58.9129 93.0932 58.7695 93.3928 58.7695C93.684 58.7695 93.8831 58.9215 93.8831 59.1848V60.6875H94.2791V59.1056C94.2791 58.701 93.9387 58.4463 93.5063 58.4463C93.151 58.4463 92.9262 58.6175 92.8149 58.7995V57.5065H92.4296V60.6875ZM95.3009 57.5943H94.8963V58.0053H95.3009V57.5943ZM95.2902 58.4741H94.907V60.6875H95.2902V58.4741ZM96.8446 58.4313C96.1917 58.4313 95.8256 58.9001 95.8256 59.5894C95.8256 60.3322 96.2452 60.7303 96.8446 60.7303C97.3134 60.7303 97.673 60.4499 97.7308 60.0046H97.3862C97.3476 60.2273 97.155 60.4285 96.851 60.4285C96.4272 60.4285 96.2045 60.0967 96.2045 59.5851C96.2045 59.02 96.4678 58.7502 96.8467 58.7502C97.1507 58.7502 97.3433 58.9407 97.3819 59.1741H97.7329C97.673 58.7224 97.3198 58.4313 96.8446 58.4313ZM98.2536 60.6875H98.6474V59.2105C98.6474 58.9129 98.9172 58.7695 99.2169 58.7695C99.508 58.7695 99.7071 58.9215 99.7071 59.1848V60.6875H100.103V59.1056C100.103 58.701 99.7627 58.4463 99.3303 58.4463C98.975 58.4463 98.7502 58.6175 98.6389 58.7995V57.5065H98.2536V60.6875ZM101.998 59.6728H103.584V59.5273C103.584 58.8551 103.238 58.4313 102.615 58.4313C101.97 58.4313 101.598 58.9044 101.598 59.6022C101.598 60.3086 102.024 60.7303 102.642 60.7303C103.073 60.7303 103.488 60.4927 103.569 60.041H103.197C103.141 60.2915 102.919 60.4242 102.636 60.4242C102.206 60.4242 101.998 60.0924 101.998 59.6728ZM102 59.4053C101.998 59.0756 102.195 58.731 102.612 58.731C103.013 58.731 103.203 59.0242 103.203 59.4053H102ZM105.936 60.6875L105.084 59.538L105.872 58.4741H105.439L104.863 59.2511L104.288 58.4741H103.857L104.641 59.538L103.789 60.6875H104.221L104.861 59.8205L105.506 60.6875H105.936ZM106.398 61.3768H106.796V60.2872C106.888 60.4756 107.096 60.7303 107.492 60.7303C108.074 60.7303 108.421 60.3107 108.421 59.5508C108.421 58.7888 108.053 58.4313 107.524 58.4313C107.117 58.4313 106.897 58.6775 106.796 58.8594L106.792 58.4741H106.398V61.3768ZM107.417 60.4221C107.006 60.4221 106.792 60.041 106.792 59.5637C106.792 59.0756 107.006 58.7395 107.417 58.7395C107.821 58.7395 108.038 59.0606 108.038 59.5637C108.038 60.1523 107.781 60.4221 107.417 60.4221ZM109.507 60.7153C109.563 60.7153 109.64 60.7025 109.706 60.6811V60.4242L109.586 60.4221C109.43 60.4114 109.338 60.3043 109.338 60.0796V57.5065H108.948V60.1181C108.948 60.4285 109.03 60.7153 109.507 60.7153ZM110.844 60.7303C111.161 60.7303 111.433 60.6169 111.604 60.2722L111.634 60.6875H111.972V59.142C111.972 58.6796 111.686 58.4313 111.11 58.4313C110.572 58.4313 110.243 58.6689 110.219 59.0992H110.568C110.622 58.8359 110.836 58.7245 111.09 58.7224C111.431 58.7224 111.589 58.8937 111.589 59.1634V59.3368L111.195 59.3475C110.438 59.3646 110.114 59.5979 110.114 60.0881C110.114 60.4927 110.414 60.7303 110.844 60.7303ZM110.962 60.4456C110.69 60.4456 110.498 60.3 110.498 60.0496C110.498 59.7221 110.752 59.5958 111.262 59.5872L111.589 59.5808V59.9597C111.589 60.2059 111.26 60.4456 110.962 60.4456ZM112.994 57.5943H112.59V58.0053H112.994V57.5943ZM112.984 58.4741H112.601V60.6875H112.984V58.4741ZM113.677 60.6875H114.071V59.2083C114.071 58.9108 114.345 58.7695 114.645 58.7695C114.933 58.7695 115.133 58.9343 115.133 59.279V60.6875H115.529V59.2404C115.529 58.6839 115.173 58.442 114.754 58.442C114.398 58.442 114.169 58.6111 114.06 58.7952V58.4741H113.677V60.6875ZM116.923 60.7303C117.463 60.7303 117.775 60.4799 117.775 60.0731C117.775 59.8548 117.664 59.5851 117.257 59.478L116.812 59.3667C116.568 59.3068 116.439 59.2276 116.439 59.0692C116.439 58.8337 116.634 58.7224 116.917 58.7224C117.191 58.7224 117.354 58.8551 117.384 59.067H117.735C117.72 58.6518 117.401 58.4313 116.921 58.4313C116.36 58.4313 116.076 58.7053 116.078 59.0927C116.08 59.4224 116.309 59.5915 116.666 59.6771L117.124 59.7906C117.326 59.8377 117.42 59.9319 117.42 60.0945C117.42 60.3257 117.221 60.4349 116.921 60.4349C116.641 60.4349 116.418 60.3022 116.362 60.0432H116.003C116.067 60.5205 116.461 60.7303 116.923 60.7303ZM120.447 58.7631V58.472H119.948V57.8298H119.657L119.561 58.4741H119.191V58.7631H119.55V60.1523C119.55 60.5077 119.672 60.6982 120.132 60.6982C120.293 60.6982 120.404 60.6832 120.46 60.6618V60.3964H120.218C120.01 60.3964 119.948 60.375 119.948 60.1395V58.7631H120.447ZM120.985 60.6875H121.379V59.2105C121.379 58.9129 121.649 58.7695 121.948 58.7695C122.24 58.7695 122.439 58.9215 122.439 59.1848V60.6875H122.835V59.1056C122.835 58.701 122.494 58.4463 122.062 58.4463C121.707 58.4463 121.482 58.6175 121.37 58.7995V57.5065H120.985V60.6875ZM123.856 57.5943H123.452V58.0053H123.856V57.5943ZM123.846 58.4741H123.463V60.6875H123.846V58.4741ZM125.306 60.7303C125.845 60.7303 126.158 60.4799 126.158 60.0731C126.158 59.8548 126.047 59.5851 125.64 59.478L125.195 59.3667C124.951 59.3068 124.822 59.2276 124.822 59.0692C124.822 58.8337 125.017 58.7224 125.3 58.7224C125.574 58.7224 125.736 58.8551 125.766 59.067H126.117C126.102 58.6518 125.783 58.4313 125.304 58.4313C124.743 58.4313 124.458 58.7053 124.46 59.0927C124.463 59.4224 124.692 59.5915 125.049 59.6771L125.507 59.7906C125.708 59.8377 125.803 59.9319 125.803 60.0945C125.803 60.3257 125.604 60.4349 125.304 60.4349C125.023 60.4349 124.801 60.3022 124.745 60.0432H124.386C124.45 60.5205 124.844 60.7303 125.306 60.7303ZM51.9819 66.7303C52.6048 66.7303 52.9174 66.2701 52.9174 65.5722C52.9174 64.8209 52.5642 64.4313 52.0119 64.4313C51.5902 64.4313 51.359 64.6817 51.2862 64.8252V63.5065H50.8881V66.6875H51.1899L51.2327 66.2337C51.2884 66.4071 51.4639 66.7303 51.9819 66.7303ZM51.9113 66.4263C51.4639 66.4263 51.2862 66.1716 51.2862 65.553C51.2926 65.0349 51.4639 64.7395 51.9027 64.7395C52.3052 64.7395 52.5192 65.0371 52.5192 65.553C52.5192 66.1609 52.2688 66.4263 51.9113 66.4263ZM54.0013 66.7153C54.057 66.7153 54.134 66.7025 54.2004 66.6811V66.4242L54.0805 66.4221C53.9242 66.4114 53.8322 66.3043 53.8322 66.0796V63.5065H53.4426V66.1181C53.4426 66.4285 53.5239 66.7153 54.0013 66.7153ZM55.5162 66.7303C56.1755 66.7303 56.5244 66.2658 56.5244 65.5894C56.5244 64.8444 56.1284 64.4313 55.5183 64.4313C54.8633 64.4313 54.5015 64.8958 54.5015 65.5894C54.5015 66.3279 54.9018 66.7303 55.5162 66.7303ZM55.5183 66.4178C55.0752 66.4178 54.8954 66.0475 54.8954 65.5808C54.8954 65.0542 55.1159 64.7417 55.5183 64.7417C55.9529 64.7417 56.1327 65.1077 56.1327 65.5808C56.1327 66.101 55.9144 66.4178 55.5183 66.4178ZM57.9412 64.4313C57.2883 64.4313 56.9223 64.9001 56.9223 65.5894C56.9223 66.3322 57.3418 66.7303 57.9412 66.7303C58.41 66.7303 58.7696 66.4499 58.8274 66.0046H58.4828C58.4443 66.2273 58.2516 66.4285 57.9476 66.4285C57.5238 66.4285 57.3012 66.0967 57.3012 65.5851C57.3012 65.02 57.5645 64.7502 57.9434 64.7502C58.2473 64.7502 58.44 64.9407 58.4785 65.1741H58.8296C58.7696 64.7224 58.4164 64.4313 57.9412 64.4313ZM61.2939 66.6875L60.4398 65.3175L61.2383 64.4741H60.7844L59.7441 65.5808V63.5065H59.3502V66.6875H59.7441V66.0282L60.1808 65.5765L60.8743 66.6875H61.2939ZM61.6622 66.6875H62.1331V66.1823H61.6622V66.6875ZM63.4986 63.9561H64.4983V66.6875H64.8964V63.9561H65.8404V63.5922H63.4986V63.9561ZM66.2696 66.6875H66.6635V65.2105C66.6635 64.9129 66.9332 64.7695 67.2329 64.7695C67.524 64.7695 67.7231 64.9215 67.7231 65.1848V66.6875H68.1191V65.1056C68.1191 64.701 67.7788 64.4463 67.3464 64.4463C66.991 64.4463 66.7662 64.6175 66.6549 64.7995V63.5065H66.2696V66.6875ZM69.1409 63.5943H68.7364V64.0053H69.1409V63.5943ZM69.1302 64.4741H68.7471V66.6875H69.1302V64.4741ZM70.5904 66.7303C71.1299 66.7303 71.4424 66.4799 71.4424 66.0731C71.4424 65.8548 71.3311 65.5851 70.9244 65.478L70.4791 65.3667C70.2351 65.3068 70.1067 65.2276 70.1067 65.0692C70.1067 64.8337 70.3015 64.7224 70.584 64.7224C70.858 64.7224 71.0207 64.8551 71.0507 65.067H71.4017C71.3868 64.6518 71.0678 64.4313 70.5883 64.4313C70.0275 64.4313 69.7428 64.7053 69.7449 65.0927C69.747 65.4224 69.9761 65.5915 70.3336 65.6771L70.7917 65.7906C70.9929 65.8377 71.0871 65.9319 71.0871 66.0945C71.0871 66.3257 70.888 66.4349 70.5883 66.4349C70.3079 66.4349 70.0853 66.3022 70.0296 66.0432H69.67C69.7342 66.5205 70.1281 66.7303 70.5904 66.7303ZM73.3929 63.5943H72.9883V64.0053H73.3929V63.5943ZM73.3822 64.4741H72.999V66.6875H73.3822V64.4741ZM74.8424 66.7303C75.3819 66.7303 75.6944 66.4799 75.6944 66.0731C75.6944 65.8548 75.5831 65.5851 75.1764 65.478L74.7311 65.3667C74.4871 65.3068 74.3586 65.2276 74.3586 65.0692C74.3586 64.8337 74.5534 64.7224 74.836 64.7224C75.11 64.7224 75.2727 64.8551 75.3027 65.067H75.6537C75.6387 64.6518 75.3198 64.4313 74.8403 64.4313C74.2794 64.4313 73.9947 64.7053 73.9969 65.0927C73.999 65.4224 74.2281 65.5915 74.5856 65.6771L75.0436 65.7906C75.2449 65.8377 75.3391 65.9319 75.3391 66.0945C75.3391 66.3257 75.14 66.4349 74.8403 66.4349C74.5599 66.4349 74.3372 66.3022 74.2816 66.0432H73.922C73.9862 66.5205 74.3801 66.7303 74.8424 66.7303ZM78.0366 66.7303C78.5761 66.7303 78.8886 66.4799 78.8886 66.0731C78.8886 65.8548 78.7773 65.5851 78.3706 65.478L77.9253 65.3667C77.6813 65.3068 77.5529 65.2276 77.5529 65.0692C77.5529 64.8337 77.7477 64.7224 78.0302 64.7224C78.3042 64.7224 78.4669 64.8551 78.4969 65.067H78.8479C78.833 64.6518 78.514 64.4313 78.0345 64.4313C77.4737 64.4313 77.189 64.7053 77.1911 65.0927C77.1932 65.4224 77.4223 65.5915 77.7798 65.6771L78.2379 65.7906C78.4391 65.8377 78.5333 65.9319 78.5333 66.0945C78.5333 66.3257 78.3342 66.4349 78.0345 66.4349C77.7541 66.4349 77.5315 66.3022 77.4758 66.0432H77.1162C77.1804 66.5205 77.5743 66.7303 78.0366 66.7303ZM79.4102 66.6875H79.8041V65.2083C79.8041 64.8979 80.076 64.7674 80.3029 64.7674C80.5084 64.7674 80.7524 64.9001 80.7524 65.1634V66.6875H81.1463V65.2083C81.1463 64.8722 81.4352 64.7674 81.6429 64.7674C81.8762 64.7674 82.0967 64.8787 82.0967 65.279V66.6875H82.4949V65.2404C82.4949 64.5854 82.086 64.4313 81.7735 64.4313C81.4802 64.4313 81.2362 64.5768 81.0992 64.793C80.9836 64.5576 80.7032 64.4313 80.4613 64.4313C80.1166 64.4313 79.9133 64.6004 79.7912 64.7952V64.4741H79.4102V66.6875ZM83.7269 66.7303C84.0437 66.7303 84.3156 66.6169 84.4868 66.2722L84.5168 66.6875H84.855V65.142C84.855 64.6796 84.5682 64.4313 83.9924 64.4313C83.4551 64.4313 83.1254 64.6689 83.1019 65.0992H83.4508C83.5043 64.8359 83.7184 64.7245 83.9731 64.7224C84.3135 64.7224 84.4719 64.8937 84.4719 65.1634V65.3368L84.078 65.3475C83.3202 65.3646 82.997 65.5979 82.997 66.0881C82.997 66.4927 83.2967 66.7303 83.7269 66.7303ZM83.8447 66.4456C83.5728 66.4456 83.3801 66.3 83.3801 66.0496C83.3801 65.7221 83.6349 65.5958 84.1443 65.5872L84.4719 65.5808V65.9597C84.4719 66.2059 84.1422 66.4456 83.8447 66.4456ZM86.0312 66.7153C86.0869 66.7153 86.164 66.7025 86.2303 66.6811V66.4242L86.1104 66.4221C85.9542 66.4114 85.8621 66.3043 85.8621 66.0796V63.5065H85.4725V66.1181C85.4725 66.4285 85.5539 66.7153 86.0312 66.7153ZM87.2646 66.7153C87.3203 66.7153 87.3973 66.7025 87.4637 66.6811V66.4242L87.3438 66.4221C87.1875 66.4114 87.0955 66.3043 87.0955 66.0796V63.5065H86.7059V66.1181C86.7059 66.4285 86.7872 66.7153 87.2646 66.7153ZM88.1844 65.6728H89.7706V65.5273C89.7706 64.8551 89.4238 64.4313 88.8009 64.4313C88.1566 64.4313 87.7841 64.9044 87.7841 65.6022C87.7841 66.3086 88.2101 66.7303 88.8287 66.7303C89.259 66.7303 89.6743 66.4927 89.7556 66.041H89.3832C89.3275 66.2915 89.1049 66.4242 88.8223 66.4242C88.392 66.4242 88.1844 66.0924 88.1844 65.6728ZM88.1865 65.4053C88.1844 65.0756 88.3813 64.731 88.7988 64.731C89.1991 64.731 89.3896 65.0242 89.3896 65.4053H88.1865ZM90.3182 66.6875H90.7121V65.3111C90.7121 64.9429 90.9989 64.793 91.3521 64.8166C91.3971 64.8166 91.4763 64.823 91.5191 64.8423V64.4591C91.4827 64.4398 91.4142 64.4313 91.35 64.4313C91.0696 64.4313 90.8063 64.5811 90.695 64.9001V64.4741H90.3182V66.6875ZM94.1576 64.7631V64.472H93.6588V63.8298H93.3677L93.2714 64.4741H92.901V64.7631H93.2607V66.1523C93.2607 66.5077 93.3827 66.6982 93.8429 66.6982C94.0035 66.6982 94.1148 66.6832 94.1704 66.6618V66.3964H93.9285C93.7209 66.3964 93.6588 66.375 93.6588 66.1395V64.7631H94.1576ZM94.9282 65.6728H96.5144V65.5273C96.5144 64.8551 96.1676 64.4313 95.5447 64.4313C94.9004 64.4313 94.5279 64.9044 94.5279 65.6022C94.5279 66.3086 94.9539 66.7303 95.5725 66.7303C96.0028 66.7303 96.4181 66.4927 96.4994 66.041H96.127C96.0713 66.2915 95.8487 66.4242 95.5661 66.4242C95.1359 66.4242 94.9282 66.0924 94.9282 65.6728ZM94.9304 65.4053C94.9282 65.0756 95.1251 64.731 95.5426 64.731C95.9429 64.731 96.1334 65.0242 96.1334 65.4053H94.9304ZM98.8659 66.6875L98.0139 65.538L98.8017 64.4741H98.3693L97.7934 65.2511L97.2176 64.4741H96.7873L97.5708 65.538L96.7188 66.6875H97.1513L97.7913 65.8205L98.4356 66.6875H98.8659ZM100.354 64.7631V64.472H99.8549V63.8298H99.5638L99.4675 64.4741H99.0971V64.7631H99.4568V66.1523C99.4568 66.5077 99.5788 66.6982 100.039 66.6982C100.2 66.6982 100.311 66.6832 100.367 66.6618V66.3964H100.125C99.917 66.3964 99.8549 66.375 99.8549 66.1395V64.7631H100.354ZM104.817 64.4741H104.447L103.961 66.1716H103.926L103.408 64.4741H103.109L102.61 66.1759H102.576L102.07 64.4741H101.702L102.387 66.6875H102.773L103.254 65.0542L103.757 66.6875H104.147L104.817 64.4741ZM105.269 66.6875H105.663V65.2105C105.663 64.9129 105.933 64.7695 106.232 64.7695C106.524 64.7695 106.723 64.9215 106.723 65.1848V66.6875H107.119V65.1056C107.119 64.701 106.778 64.4463 106.346 64.4463C105.991 64.4463 105.766 64.6175 105.654 64.7995V63.5065H105.269V66.6875ZM108.14 63.5943H107.736V64.0053H108.14V63.5943ZM108.13 64.4741H107.747V66.6875H108.13V64.4741ZM109.684 64.4313C109.031 64.4313 108.665 64.9001 108.665 65.5894C108.665 66.3322 109.085 66.7303 109.684 66.7303C110.153 66.7303 110.513 66.4499 110.57 66.0046H110.226C110.187 66.2273 109.995 66.4285 109.691 66.4285C109.267 66.4285 109.044 66.0967 109.044 65.5851C109.044 65.02 109.307 64.7502 109.686 64.7502C109.99 64.7502 110.183 64.9407 110.221 65.1741H110.573C110.513 64.7224 110.159 64.4313 109.684 64.4313ZM111.093 66.6875H111.487V65.2105C111.487 64.9129 111.757 64.7695 112.056 64.7695C112.348 64.7695 112.547 64.9215 112.547 65.1848V66.6875H112.943V65.1056C112.943 64.701 112.602 64.4463 112.17 64.4463C111.815 64.4463 111.59 64.6175 111.478 64.7995V63.5065H111.093V66.6875ZM114.838 65.6728H116.424V65.5273C116.424 64.8551 116.077 64.4313 115.454 64.4313C114.81 64.4313 114.437 64.9044 114.437 65.6022C114.437 66.3086 114.863 66.7303 115.482 66.7303C115.912 66.7303 116.328 66.4927 116.409 66.041H116.036C115.981 66.2915 115.758 66.4242 115.476 66.4242C115.045 66.4242 114.838 66.0924 114.838 65.6728ZM114.84 65.4053C114.838 65.0756 115.035 64.731 115.452 64.731C115.852 64.731 116.043 65.0242 116.043 65.4053H114.84ZM118.775 66.6875L117.923 65.538L118.711 64.4741H118.279L117.703 65.2511L117.127 64.4741H116.697L117.48 65.538L116.628 66.6875H117.061L117.701 65.8205L118.345 66.6875H118.775ZM119.238 67.3768H119.636V66.2872C119.728 66.4756 119.935 66.7303 120.331 66.7303C120.914 66.7303 121.26 66.3107 121.26 65.5508C121.26 64.7888 120.892 64.4313 120.364 64.4313C119.957 64.4313 119.736 64.6775 119.636 64.8594L119.631 64.4741H119.238V67.3768ZM120.256 66.4221C119.845 66.4221 119.631 66.041 119.631 65.5637C119.631 65.0756 119.845 64.7395 120.256 64.7395C120.661 64.7395 120.877 65.0606 120.877 65.5637C120.877 66.1523 120.62 66.4221 120.256 66.4221ZM122.347 66.7153C122.402 66.7153 122.479 66.7025 122.546 66.6811V66.4242L122.426 66.4221C122.27 66.4114 122.177 66.3043 122.177 66.0796V63.5065H121.788V66.1181C121.788 66.4285 121.869 66.7153 122.347 66.7153ZM123.684 66.7303C124.001 66.7303 124.273 66.6169 124.444 66.2722L124.474 66.6875H124.812V65.142C124.812 64.6796 124.525 64.4313 123.949 64.4313C123.412 64.4313 123.082 64.6689 123.059 65.0992H123.408C123.461 64.8359 123.675 64.7245 123.93 64.7224C124.27 64.7224 124.429 64.8937 124.429 65.1634V65.3368L124.035 65.3475C123.277 65.3646 122.954 65.5979 122.954 66.0881C122.954 66.4927 123.254 66.7303 123.684 66.7303ZM123.802 66.4456C123.53 66.4456 123.337 66.3 123.337 66.0496C123.337 65.7221 123.592 65.5958 124.101 65.5872L124.429 65.5808V65.9597C124.429 66.2059 124.099 66.4456 123.802 66.4456ZM125.834 63.5943H125.429V64.0053H125.834V63.5943ZM125.823 64.4741H125.44V66.6875H125.823V64.4741ZM126.517 66.6875H126.91V65.2083C126.91 64.9108 127.184 64.7695 127.484 64.7695C127.773 64.7695 127.972 64.9343 127.972 65.279V66.6875H128.368V65.2404C128.368 64.6839 128.013 64.442 127.593 64.442C127.238 64.442 127.009 64.6111 126.9 64.7952V64.4741H126.517V66.6875ZM129.763 66.7303C130.302 66.7303 130.615 66.4799 130.615 66.0731C130.615 65.8548 130.503 65.5851 130.097 65.478L129.652 65.3667C129.407 65.3068 129.279 65.2276 129.279 65.0692C129.279 64.8337 129.474 64.7224 129.756 64.7224C130.03 64.7224 130.193 64.8551 130.223 65.067H130.574C130.559 64.6518 130.24 64.4313 129.761 64.4313C129.2 64.4313 128.915 64.7053 128.917 65.0927C128.919 65.4224 129.148 65.5915 129.506 65.6771L129.964 65.7906C130.165 65.8377 130.259 65.9319 130.259 66.0945C130.259 66.3257 130.06 66.4349 129.761 66.4349C129.48 66.4349 129.258 66.3022 129.202 66.0432H128.842C128.907 66.5205 129.3 66.7303 129.763 66.7303ZM52.014 70.7631V70.472H51.5153V69.8298H51.2241L51.1278 70.4741H50.7575V70.7631H51.1171V72.1523C51.1171 72.5077 51.2391 72.6982 51.6994 72.6982C51.8599 72.6982 51.9712 72.6832 52.0269 72.6618V72.3964H51.785C51.5773 72.3964 51.5153 72.375 51.5153 72.1395V70.7631H52.014ZM52.5521 72.6875H52.9459V71.2105C52.9459 70.9129 53.2157 70.7695 53.5153 70.7695C53.8065 70.7695 54.0055 70.9215 54.0055 71.1848V72.6875H54.4016V71.1056C54.4016 70.701 54.0612 70.4463 53.6288 70.4463C53.2735 70.4463 53.0487 70.6175 52.9374 70.7995V69.5065H52.5521V72.6875ZM55.4234 69.5943H55.0188V70.0053H55.4234V69.5943ZM55.4127 70.4741H55.0295V72.6875H55.4127V70.4741ZM56.8729 72.7303C57.4123 72.7303 57.7249 72.4799 57.7249 72.0731C57.7249 71.8548 57.6135 71.5851 57.2068 71.478L56.7616 71.3667C56.5175 71.3068 56.3891 71.2276 56.3891 71.0692C56.3891 70.8337 56.5839 70.7224 56.8665 70.7224C57.1405 70.7224 57.3031 70.8551 57.3331 71.067H57.6842C57.6692 70.6518 57.3502 70.4313 56.8707 70.4313C56.3099 70.4313 56.0252 70.7053 56.0273 71.0927C56.0295 71.4224 56.2585 71.5915 56.616 71.6771L57.0741 71.7906C57.2753 71.8377 57.3695 71.9319 57.3695 72.0945C57.3695 72.3257 57.1704 72.4349 56.8707 72.4349C56.5903 72.4349 56.3677 72.3022 56.312 72.0432H55.9524C56.0166 72.5205 56.4105 72.7303 56.8729 72.7303ZM60.3646 72.7303C60.9876 72.7303 61.3001 72.2701 61.3001 71.5722C61.3001 70.8209 60.9469 70.4313 60.3946 70.4313C59.9729 70.4313 59.7417 70.6817 59.6689 70.8252V69.5065H59.2708V72.6875H59.5726L59.6154 72.2337C59.6711 72.4071 59.8466 72.7303 60.3646 72.7303ZM60.294 72.4263C59.8466 72.4263 59.6689 72.1716 59.6689 71.553C59.6754 71.0349 59.8466 70.7395 60.2854 70.7395C60.6879 70.7395 60.9019 71.0371 60.9019 71.553C60.9019 72.1609 60.6515 72.4263 60.294 72.4263ZM62.384 72.7153C62.4397 72.7153 62.5167 72.7025 62.5831 72.6811V72.4242L62.4632 72.4221C62.307 72.4114 62.2149 72.3043 62.2149 72.0796V69.5065H61.8253V72.1181C61.8253 72.4285 61.9067 72.7153 62.384 72.7153ZM63.8989 72.7303C64.5582 72.7303 64.9071 72.2658 64.9071 71.5894C64.9071 70.8444 64.5111 70.4313 63.9011 70.4313C63.246 70.4313 62.8843 70.8958 62.8843 71.5894C62.8843 72.3279 63.2846 72.7303 63.8989 72.7303ZM63.9011 72.4178C63.4579 72.4178 63.2781 72.0475 63.2781 71.5808C63.2781 71.0542 63.4986 70.7417 63.9011 70.7417C64.3356 70.7417 64.5154 71.1077 64.5154 71.5808C64.5154 72.101 64.2971 72.4178 63.9011 72.4178ZM66.3239 70.4313C65.6711 70.4313 65.305 70.9001 65.305 71.5894C65.305 72.3322 65.7246 72.7303 66.3239 72.7303C66.7927 72.7303 67.1524 72.4499 67.2102 72.0046H66.8655C66.827 72.2273 66.6343 72.4285 66.3304 72.4285C65.9065 72.4285 65.6839 72.0967 65.6839 71.5851C65.6839 71.02 65.9472 70.7502 66.3261 70.7502C66.6301 70.7502 66.8227 70.9407 66.8612 71.1741H67.2123C67.1524 70.7224 66.7992 70.4313 66.3239 70.4313ZM69.6766 72.6875L68.8225 71.3175L69.621 70.4741H69.1672L68.1268 71.5808V69.5065H67.7329V72.6875H68.1268V72.0282L68.5635 71.5765L69.2571 72.6875H69.6766ZM70.0449 72.6875H70.5159V72.1823H70.0449V72.6875Z" fill="#00284D"/>
<path d="M51.5217 51.7168H53.8678C55.5589 51.7168 56.3038 51.1816 56.3038 50.0385C56.3038 49.4649 56.1155 48.8184 55.0837 48.5444C55.8886 48.2062 56.1583 47.7652 56.1583 47.1487C56.1583 46.1041 55.3877 45.5261 53.7651 45.5261H51.5217V51.7168ZM52.7675 48.0863V46.4937H53.8764C54.5014 46.4937 54.951 46.7762 54.951 47.3114C54.951 47.8551 54.4715 48.0863 53.962 48.0863H52.7675ZM52.7675 50.7492V49.0795H53.962C54.5742 49.0795 55.0366 49.3664 55.0366 49.9144C55.0366 50.4239 54.6427 50.7492 53.8935 50.7492H52.7675ZM58.4408 45.5304H57.2249V46.6564H58.4408V45.5304ZM58.4322 47.29H57.2378V51.7168H58.4322V47.29ZM61.5292 53.181C63.1047 53.181 63.8882 52.5816 63.8882 51.751C63.8882 51.0532 63.3573 50.5566 62.2742 50.4838C61.8846 50.4581 61.5421 50.441 61.3537 50.4281C60.8314 50.3982 60.5788 50.3768 60.5788 50.2355C60.5788 50.1456 60.6858 50.0685 61.0198 50.0514C61.1311 50.0642 61.3537 50.0685 61.4565 50.0685C62.7794 50.0685 63.4601 49.375 63.4601 48.6043C63.4601 48.4887 63.4258 48.2961 63.3659 48.1377L64.128 48.0135L64.1365 47.046C63.7641 47.2001 63.1005 47.4655 62.835 47.5683C62.5054 47.3628 62.1543 47.2215 61.5464 47.2215C60.3433 47.2215 59.4486 47.7352 59.4486 48.6086C59.4486 49.101 59.7568 49.6147 60.3433 49.8844C59.7311 49.9915 59.4357 50.2869 59.4357 50.5994C59.4357 51.019 59.8424 51.1774 59.9794 51.2587C59.8938 51.3058 59.1189 51.4899 59.1189 52.0935C59.1189 52.7443 59.9537 53.181 61.5292 53.181ZM61.495 49.3707C61.0026 49.3707 60.703 49.0881 60.703 48.6471C60.703 48.189 61.0198 47.8808 61.495 47.8808C61.9659 47.8808 62.2785 48.1848 62.2785 48.6471C62.2785 49.0967 61.9659 49.3707 61.495 49.3707ZM61.7305 52.4831C60.78 52.4831 60.3433 52.3205 60.3433 51.948C60.3433 51.674 60.6088 51.4214 61.0112 51.4428L62.0259 51.5113C62.4626 51.5413 62.698 51.7211 62.698 51.9865C62.698 52.3076 62.424 52.4831 61.7305 52.4831ZM66.4184 46.6392H68.2893V51.7168H69.5437V46.6392H71.3718V45.5261H66.4184V46.6392ZM72.4724 49.7902H75.4479V49.452C75.4479 48.1248 74.7372 47.2044 73.3843 47.2044C72.0271 47.2044 71.2351 48.2233 71.2351 49.5548C71.2351 50.929 72.1342 51.8024 73.4485 51.8024C74.369 51.8024 75.2937 51.2587 75.4436 50.3125H74.3176C74.1892 50.7278 73.8467 50.8991 73.4185 50.8991C72.8192 50.8991 72.4681 50.4667 72.4724 49.7902ZM72.4724 49.0453C72.4681 48.5572 72.8063 48.0777 73.38 48.0777C73.9837 48.0777 74.2791 48.5101 74.2791 49.0453H72.4724ZM80.3553 51.7168L78.6514 49.4092L80.2183 47.29H78.9125L77.9963 48.5315L77.0759 47.29H75.7658L77.3199 49.4092L75.6202 51.7168H76.9303L77.9878 50.274L79.0452 51.7168H80.3553ZM83.6189 48.1591V47.2857H82.6342V45.9542H81.7437L81.4269 47.29H80.6691V48.1591H81.3884V50.5694C81.3884 51.2801 81.688 51.7639 82.8568 51.7639C83.2892 51.7639 83.5119 51.7082 83.6317 51.6569V50.8862H83.0366C82.7626 50.8862 82.6428 50.8434 82.6428 50.518L82.6342 48.1591H83.6189ZM84.3982 51.7168H85.7682V50.3554H84.3982V51.7168Z" fill="#00284D"/>
<g style="mix-blend-mode:color">
<rect width="320" height="120" fill="#808080"/>
</g>
<g style="mix-blend-mode:color">
<rect width="320" height="120" fill="#00284D"/>
</g>
</svg>
