<svg width="320" height="120" viewBox="0 0 320 120" fill="none" xmlns="http://www.w3.org/2000/svg">
<rect width="320" height="120" fill="#C0CEDB"/>
<g filter="url(#filter0_d)">
<rect x="20" y="41" width="84" height="38" rx="4" fill="white"/>
<path opacity="0.5" d="M46 58V54.4375C46 54.1562 45.875 53.9062 45.6875 53.7188L44.2812 52.3125C44.0938 52.125 43.8438 52 43.5625 52H35C34.4375 52 34 52.4688 34 53V58C32.875 58 32 58.9062 32 60V63.5C32 63.7812 32.2188 64 32.5 64H34V67C34 67.5625 34.4375 68 35 68H45C45.5312 68 46 67.5625 46 67V64H47.5C47.75 64 48 63.7812 48 63.5V60C48 58.9062 47.0938 58 46 58ZM44 66H36V63H44V66ZM44 59H36V54H42V55.5C42 55.7812 42.2188 56 42.5 56H44V59ZM45.5 61.25C45.0625 61.25 44.75 60.9375 44.75 60.5C44.75 60.0938 45.0625 59.75 45.5 59.75C45.9062 59.75 46.25 60.0938 46.25 60.5C46.25 60.9375 45.9062 61.25 45.5 61.25Z" fill="#00284D"/>
<path d="M57.7233 66H59.2433V61.72H61.8353C64.2673 61.72 65.9233 60.4 65.9233 58.088C65.9233 55.704 64.1153 54.432 61.6353 54.432H57.7233V66ZM59.2353 60.472V55.664H61.7313C63.3553 55.664 64.4833 56.464 64.4833 58C64.4833 59.52 63.3873 60.472 61.8033 60.472H59.2353ZM67.6068 66H69.0788V60.856C69.0788 59.48 70.1508 58.92 71.4708 59.008C71.6388 59.008 71.9348 59.032 72.0948 59.104V57.672C71.9588 57.6 71.7028 57.568 71.4628 57.568C70.4148 57.568 69.4308 58.128 69.0148 59.32V57.728H67.6068V66ZM75.3688 54.44H73.8568V55.976H75.3688V54.44ZM75.3288 57.728H73.8968V66H75.3288V57.728ZM77.9193 66H79.3913V60.472C79.3913 59.36 80.4153 58.832 81.5353 58.832C82.6153 58.832 83.3593 59.448 83.3593 60.736V66H84.8393V60.592C84.8393 58.512 83.5113 57.608 81.9433 57.608C80.6153 57.608 79.7593 58.24 79.3513 58.928V57.728H77.9193V66ZM91.0179 58.808V57.72H89.1539V55.32H88.0659L87.7059 57.728H86.3219V58.808H87.6659V64C87.6659 65.328 88.1219 66.04 89.8419 66.04C90.4419 66.04 90.8579 65.984 91.0659 65.904V64.912H90.1619C89.3859 64.912 89.1539 64.832 89.1539 63.952V58.808H91.0179Z" fill="#00203E"/>
<rect x="21" y="42" width="82" height="36" rx="3" stroke="#00284D" stroke-width="2"/>
</g>
<g filter="url(#filter1_d)">
<rect x="112" y="41" width="90" height="38" rx="4" fill="white"/>
<path opacity="0.5" d="M139.688 57.9688C138.969 58.5312 138.062 59.2188 134.875 61.5312C134.25 62 133.094 63.0312 132 63.0312C130.875 63.0312 129.75 62 129.094 61.5312C125.906 59.2188 125 58.5312 124.281 57.9688C124.156 57.875 124 57.9688 124 58.125V64.5C124 65.3438 124.656 66 125.5 66H138.5C139.312 66 140 65.3438 140 64.5V58.125C140 57.9688 139.812 57.875 139.688 57.9688ZM132 62C132.719 62.0312 133.75 61.0938 134.281 60.7188C138.438 57.7188 138.75 57.4375 139.688 56.6875C139.875 56.5625 140 56.3438 140 56.0938V55.5C140 54.6875 139.312 54 138.5 54H125.5C124.656 54 124 54.6875 124 55.5V56.0938C124 56.3438 124.094 56.5625 124.281 56.6875C125.219 57.4375 125.531 57.7188 129.688 60.7188C130.219 61.0938 131.25 62.0312 132 62Z" fill="#00284D"/>
<path d="M149.887 66H157.335V64.68L151.367 64.664V60.808H156.599V59.512H151.375V55.736H157.175L157.183 54.432H149.887V66ZM159.302 66H160.774V60.472C160.774 59.312 161.79 58.824 162.638 58.824C163.406 58.824 164.318 59.32 164.318 60.304V66H165.79V60.472C165.79 59.216 166.87 58.824 167.646 58.824C168.518 58.824 169.342 59.24 169.342 60.736V66H170.83V60.592C170.83 58.144 169.302 57.568 168.134 57.568C167.038 57.568 166.126 58.112 165.614 58.92C165.182 58.04 164.134 57.568 163.23 57.568C161.942 57.568 161.182 58.2 160.726 58.928V57.728H159.302V66ZM175.435 66.16C176.619 66.16 177.635 65.736 178.275 64.448L178.387 66H179.651V60.224C179.651 58.496 178.579 57.568 176.427 57.568C174.419 57.568 173.187 58.456 173.099 60.064H174.403C174.603 59.08 175.403 58.664 176.355 58.656C177.627 58.656 178.219 59.296 178.219 60.304V60.952L176.747 60.992C173.915 61.056 172.707 61.928 172.707 63.76C172.707 65.272 173.827 66.16 175.435 66.16ZM175.875 65.096C174.859 65.096 174.139 64.552 174.139 63.616C174.139 62.392 175.091 61.92 176.995 61.888L178.219 61.864V63.28C178.219 64.2 176.987 65.096 175.875 65.096ZM183.47 54.44H181.958V55.976H183.47V54.44ZM183.43 57.728H181.998V66H183.43V57.728ZM188.109 66.104C188.317 66.104 188.605 66.056 188.853 65.976V65.016L188.405 65.008C187.821 64.968 187.477 64.568 187.477 63.728V54.112H186.021V63.872C186.021 65.032 186.325 66.104 188.109 66.104Z" fill="#00203E"/>
<rect x="113" y="42" width="88" height="36" rx="3" stroke="#00284D" stroke-width="2"/>
</g>
<g filter="url(#filter2_d)">
<rect x="210" y="41" width="90" height="38" rx="4" fill="white"/>
<path opacity="0.5" d="M233 62C232.281 62 231.625 62.25 231.125 62.6562L227.906 60.6562C227.969 60.4688 227.969 60.25 227.969 60C227.969 59.7812 227.969 59.5625 227.906 59.375L231.125 57.375C231.625 57.7812 232.281 58 233 58C234.656 58 236 56.6875 236 55C236 53.3438 234.656 52 233 52C231.312 52 230 53.3438 230 55C230 55.25 230 55.4688 230.062 55.6562L226.844 57.6562C226.344 57.25 225.688 57 225 57C223.312 57 222 58.3438 222 60C222 61.6875 223.312 63 225 63C225.688 63 226.344 62.7812 226.844 62.375L230.062 64.375C230 64.5625 230 64.7812 230 65.0312V65C230 66.6875 231.312 68 233 68C234.656 68 236 66.6875 236 65C236 63.3438 234.656 62 233 62Z" fill="#00284D"/>
<path d="M249.456 66.16C252.2 66.16 253.808 64.76 253.808 63.016C253.808 61.76 253.32 60.232 251.016 59.728L248.816 59.2C247.304 58.832 246.832 58.352 246.832 57.512C246.832 56.216 248.104 55.544 249.408 55.544C250.776 55.544 251.96 56.072 252.112 57.64H253.64C253.624 55.888 252.176 54.288 249.4 54.288C246.992 54.288 245.264 55.656 245.272 57.656C245.288 59.24 246.312 60.184 248.016 60.56L250.288 61.088C251.568 61.384 252.296 61.984 252.296 63.032C252.296 64.208 251.072 64.928 249.448 64.928C247.992 64.928 246.768 64.24 246.48 62.928H244.928C245.224 65.056 247.272 66.16 249.456 66.16ZM256.005 66H257.477V60.48C257.477 59.368 258.485 58.832 259.605 58.832C260.693 58.832 261.437 59.4 261.437 60.384V66H262.917V60.088C262.917 58.576 261.645 57.624 260.029 57.624C258.701 57.624 257.861 58.264 257.445 58.944V54.112H256.005V66ZM267.513 66.16C268.697 66.16 269.713 65.736 270.353 64.448L270.465 66H271.729V60.224C271.729 58.496 270.657 57.568 268.505 57.568C266.497 57.568 265.265 58.456 265.177 60.064H266.481C266.681 59.08 267.481 58.664 268.433 58.656C269.705 58.656 270.297 59.296 270.297 60.304V60.952L268.825 60.992C265.993 61.056 264.785 61.928 264.785 63.76C264.785 65.272 265.905 66.16 267.513 66.16ZM267.953 65.096C266.937 65.096 266.217 64.552 266.217 63.616C266.217 62.392 267.169 61.92 269.073 61.888L270.297 61.864V63.28C270.297 64.2 269.065 65.096 267.953 65.096ZM274.037 66H275.509V60.856C275.509 59.48 276.581 58.92 277.901 59.008C278.069 59.008 278.365 59.032 278.525 59.104V57.672C278.389 57.6 278.133 57.568 277.893 57.568C276.845 57.568 275.861 58.128 275.445 59.32V57.728H274.037V66ZM281.25 62.208H287.178V61.664C287.178 59.152 285.882 57.568 283.554 57.568C281.146 57.568 279.754 59.336 279.754 61.944C279.754 64.584 281.346 66.16 283.658 66.16C285.266 66.16 286.818 65.272 287.122 63.584H285.73C285.522 64.52 284.69 65.016 283.634 65.016C282.026 65.016 281.25 63.776 281.25 62.208ZM281.258 61.208C281.25 59.976 281.986 58.688 283.546 58.688C285.042 58.688 285.754 59.784 285.754 61.208H281.258Z" fill="#00203E"/>
<rect x="211" y="42" width="88" height="36" rx="3" stroke="#00284D" stroke-width="2"/>
</g>
<g style="mix-blend-mode:color">
<rect width="320" height="120" fill="#808080"/>
</g>
<g style="mix-blend-mode:color">
<rect width="320" height="120" fill="#00284D"/>
</g>
<defs>
<filter id="filter0_d" x="18" y="41" width="88" height="44" filterUnits="userSpaceOnUse" color-interpolation-filters="sRGB">
<feFlood flood-opacity="0" result="BackgroundImageFix"/>
<feColorMatrix in="SourceAlpha" type="matrix" values="0 0 0 0 0 0 0 0 0 0 0 0 0 0 0 0 0 0 127 0"/>
<feOffset dy="4"/>
<feGaussianBlur stdDeviation="1"/>
<feColorMatrix type="matrix" values="0 0 0 0 0 0 0 0 0 0 0 0 0 0 0 0 0 0 0.1 0"/>
<feBlend mode="normal" in2="BackgroundImageFix" result="effect1_dropShadow"/>
<feBlend mode="normal" in="SourceGraphic" in2="effect1_dropShadow" result="shape"/>
</filter>
<filter id="filter1_d" x="110" y="41" width="94" height="44" filterUnits="userSpaceOnUse" color-interpolation-filters="sRGB">
<feFlood flood-opacity="0" result="BackgroundImageFix"/>
<feColorMatrix in="SourceAlpha" type="matrix" values="0 0 0 0 0 0 0 0 0 0 0 0 0 0 0 0 0 0 127 0"/>
<feOffset dy="4"/>
<feGaussianBlur stdDeviation="1"/>
<feColorMatrix type="matrix" values="0 0 0 0 0 0 0 0 0 0 0 0 0 0 0 0 0 0 0.1 0"/>
<feBlend mode="normal" in2="BackgroundImageFix" result="effect1_dropShadow"/>
<feBlend mode="normal" in="SourceGraphic" in2="effect1_dropShadow" result="shape"/>
</filter>
<filter id="filter2_d" x="208" y="41" width="94" height="44" filterUnits="userSpaceOnUse" color-interpolation-filters="sRGB">
<feFlood flood-opacity="0" result="BackgroundImageFix"/>
<feColorMatrix in="SourceAlpha" type="matrix" values="0 0 0 0 0 0 0 0 0 0 0 0 0 0 0 0 0 0 127 0"/>
<feOffset dy="4"/>
<feGaussianBlur stdDeviation="1"/>
<feColorMatrix type="matrix" values="0 0 0 0 0 0 0 0 0 0 0 0 0 0 0 0 0 0 0.1 0"/>
<feBlend mode="normal" in2="BackgroundImageFix" result="effect1_dropShadow"/>
<feBlend mode="normal" in="SourceGraphic" in2="effect1_dropShadow" result="shape"/>
</filter>
</defs>
</svg>
