<svg width="320" height="120" viewBox="0 0 320 120" fill="none" xmlns="http://www.w3.org/2000/svg">
<rect width="320" height="120" fill="#C0CEDB"/>
<g filter="url(#filter0_d_454_414)">
<path d="M113 17.3407C113 16.6002 113.6 16 114.341 16H205.507C206.247 16 206.847 16.6002 206.847 17.3407V101.803C206.847 102.544 206.247 103.144 205.507 103.144H114.341C113.6 103.144 113 102.544 113 101.803V17.3407Z" fill="white"/>
<rect width="93.1771" height="12.4013" transform="translate(113.335 16.3352)" fill="black" fill-opacity="0.03"/>
<rect x="113.335" y="28.4013" width="93.1771" height="0.335169" fill="#DEE2E6"/>
<path d="M117.567 20.8719C117.785 20.8719 117.978 20.9176 118.147 21.0092C118.317 21.0993 118.453 21.2201 118.556 21.3717C118.659 21.5233 118.72 21.6899 118.739 21.8715H118.316C118.28 21.6899 118.199 21.5354 118.072 21.4081C117.946 21.2809 117.774 21.2172 117.557 21.2172C117.274 21.2172 117.058 21.3173 116.909 21.5175C116.762 21.7163 116.688 22.0302 116.688 22.4592C116.688 22.8911 116.762 23.2086 116.909 23.4117C117.058 23.6133 117.274 23.7141 117.557 23.7141C117.703 23.7141 117.828 23.6834 117.932 23.6219C118.037 23.559 118.121 23.4767 118.185 23.3752C118.25 23.2722 118.293 23.1607 118.316 23.0406H118.739C118.717 23.2165 118.661 23.3823 118.569 23.5382C118.479 23.6927 118.351 23.8185 118.185 23.9158C118.019 24.0116 117.813 24.0595 117.567 24.0595C117.148 24.0595 116.824 23.9186 116.594 23.6369C116.363 23.3552 116.248 22.9612 116.248 22.4549C116.248 21.9501 116.363 21.5604 116.591 21.2859C116.822 21.0099 117.147 20.8719 117.567 20.8719ZM119.883 24.0595C119.667 24.0595 119.491 24.003 119.355 23.89C119.219 23.777 119.151 23.619 119.151 23.4159C119.151 23.17 119.237 22.9869 119.409 22.8668C119.58 22.7467 119.855 22.6823 120.234 22.6737L120.631 22.663V22.4893C120.631 22.3534 120.59 22.2462 120.507 22.1675C120.425 22.0874 120.3 22.0474 120.129 22.0474C120.002 22.0488 119.89 22.0796 119.793 22.1396C119.695 22.1983 119.633 22.2934 119.606 22.4249H119.256C119.268 22.209 119.352 22.0438 119.509 21.9294C119.667 21.8136 119.88 21.7557 120.149 21.7557C120.438 21.7557 120.653 21.8164 120.796 21.938C120.941 22.0595 121.013 22.2362 121.013 22.4678V24.0166H120.674L120.646 23.6004C120.559 23.7735 120.45 23.8936 120.318 23.9608C120.187 24.0266 120.041 24.0595 119.883 24.0595ZM120.003 23.7742C120.101 23.7742 120.199 23.7506 120.295 23.7034C120.392 23.6562 120.472 23.5961 120.535 23.5232C120.598 23.4488 120.63 23.3702 120.631 23.2872V22.9076L120.301 22.914C120.046 22.9183 119.855 22.9562 119.728 23.0277C119.601 23.0978 119.537 23.2143 119.537 23.3773C119.537 23.5032 119.58 23.6011 119.666 23.6712C119.753 23.7399 119.865 23.7742 120.003 23.7742ZM121.691 24.0166V21.7986H122.068V22.2254C122.124 22.0667 122.212 21.9487 122.332 21.8715C122.454 21.7943 122.585 21.7557 122.725 21.7557C122.758 21.7557 122.789 21.7578 122.819 21.7621C122.851 21.7664 122.876 21.7735 122.894 21.7835V22.1675C122.873 22.1575 122.845 22.1511 122.81 22.1482C122.778 22.1439 122.75 22.1418 122.727 22.1418C122.551 22.1303 122.4 22.1639 122.274 22.2426C122.148 22.3212 122.085 22.4528 122.085 22.6373V24.0166H121.691ZM124.104 24.0595C123.815 24.0595 123.586 23.9608 123.417 23.7635C123.25 23.5661 123.166 23.2779 123.166 22.899C123.166 22.5529 123.242 22.2762 123.394 22.0688C123.547 21.86 123.774 21.7557 124.074 21.7557C124.214 21.7557 124.333 21.7785 124.432 21.8243C124.532 21.8701 124.612 21.9237 124.672 21.9852C124.734 22.0467 124.777 22.1017 124.801 22.1503V20.829H125.2V24.0166H124.898L124.855 23.5618C124.836 23.619 124.801 23.6869 124.75 23.7656C124.698 23.8442 124.621 23.9129 124.518 23.9715C124.415 24.0302 124.277 24.0595 124.104 24.0595ZM124.175 23.7549C124.399 23.7549 124.559 23.6869 124.655 23.5511C124.752 23.4138 124.801 23.19 124.801 22.8797C124.798 22.6208 124.75 22.4206 124.655 22.2791C124.561 22.136 124.403 22.0645 124.183 22.0645C124.002 22.0645 123.853 22.1296 123.737 22.2597C123.623 22.3885 123.565 22.5951 123.565 22.8797C123.565 23.1571 123.617 23.3723 123.72 23.5253C123.824 23.6784 123.976 23.7549 124.175 23.7549ZM128.996 22.5858H127.322V24.0166H126.925V20.9148H127.322V22.2362H128.996V20.9148H129.392V24.0166H128.996V22.5858ZM130.382 22.9998C130.382 23.1399 130.405 23.2672 130.451 23.3816C130.498 23.4946 130.569 23.5847 130.663 23.6519C130.759 23.7191 130.879 23.7527 131.022 23.7527C131.163 23.7527 131.285 23.7198 131.386 23.6541C131.489 23.5883 131.555 23.4932 131.584 23.3688H131.959C131.932 23.5189 131.872 23.6455 131.779 23.7484C131.686 23.8514 131.574 23.9293 131.442 23.9822C131.311 24.0337 131.173 24.0595 131.03 24.0595C130.823 24.0595 130.641 24.0144 130.483 23.9243C130.326 23.8342 130.203 23.7048 130.114 23.5361C130.026 23.3673 129.981 23.165 129.981 22.929C129.981 22.6959 130.021 22.4914 130.101 22.3155C130.182 22.1396 130.297 22.0023 130.449 21.9037C130.602 21.805 130.786 21.7557 131 21.7557C131.313 21.7557 131.554 21.855 131.721 22.0538C131.888 22.2512 131.972 22.5179 131.972 22.8539V22.9998H130.382ZM130.385 22.7317H131.59C131.59 22.5415 131.542 22.3813 131.444 22.2512C131.347 22.121 131.198 22.056 130.998 22.056C130.859 22.056 130.744 22.0896 130.653 22.1568C130.561 22.2226 130.493 22.3077 130.449 22.412C130.405 22.515 130.383 22.6216 130.385 22.7317ZM133.101 24.0595C132.885 24.0595 132.709 24.003 132.573 23.89C132.437 23.777 132.369 23.619 132.369 23.4159C132.369 23.17 132.455 22.9869 132.627 22.8668C132.798 22.7467 133.074 22.6823 133.453 22.6737L133.85 22.663V22.4893C133.85 22.3534 133.808 22.2462 133.725 22.1675C133.644 22.0874 133.518 22.0474 133.348 22.0474C133.22 22.0488 133.108 22.0796 133.011 22.1396C132.914 22.1983 132.851 22.2934 132.824 22.4249H132.475C132.486 22.209 132.57 22.0438 132.728 21.9294C132.885 21.8136 133.098 21.7557 133.367 21.7557C133.656 21.7557 133.872 21.8164 134.015 21.938C134.159 22.0595 134.231 22.2362 134.231 22.4678V24.0166H133.892L133.865 23.6004C133.777 23.7735 133.668 23.8936 133.536 23.9608C133.405 24.0266 133.26 24.0595 133.101 24.0595ZM133.221 23.7742C133.32 23.7742 133.417 23.7506 133.513 23.7034C133.61 23.6562 133.69 23.5961 133.753 23.5232C133.816 23.4488 133.848 23.3702 133.85 23.2872V22.9076L133.519 22.914C133.265 22.9183 133.074 22.9562 132.946 23.0277C132.819 23.0978 132.756 23.2143 132.756 23.3773C132.756 23.5032 132.798 23.6011 132.884 23.6712C132.971 23.7399 133.084 23.7742 133.221 23.7742ZM135.709 24.0595C135.42 24.0595 135.191 23.9608 135.023 23.7635C134.855 23.5661 134.772 23.2779 134.772 22.899C134.772 22.5529 134.848 22.2762 134.999 22.0688C135.152 21.86 135.379 21.7557 135.679 21.7557C135.819 21.7557 135.939 21.7785 136.037 21.8243C136.137 21.8701 136.218 21.9237 136.278 21.9852C136.339 22.0467 136.382 22.1017 136.406 22.1503V20.829H136.805V24.0166H136.503L136.46 23.5618C136.441 23.619 136.406 23.6869 136.355 23.7656C136.303 23.8442 136.226 23.9129 136.123 23.9715C136.02 24.0302 135.882 24.0595 135.709 24.0595ZM135.78 23.7549C136.004 23.7549 136.165 23.6869 136.26 23.5511C136.358 23.4138 136.406 23.19 136.406 22.8797C136.403 22.6208 136.355 22.4206 136.26 22.2791C136.166 22.136 136.009 22.0645 135.788 22.0645C135.607 22.0645 135.458 22.1296 135.342 22.2597C135.228 22.3885 135.171 22.5951 135.171 22.8797C135.171 23.1571 135.222 23.3723 135.325 23.5253C135.43 23.6784 135.581 23.7549 135.78 23.7549ZM137.744 22.9998C137.744 23.1399 137.767 23.2672 137.812 23.3816C137.859 23.4946 137.93 23.5847 138.025 23.6519C138.12 23.7191 138.24 23.7527 138.383 23.7527C138.524 23.7527 138.646 23.7198 138.748 23.6541C138.85 23.5883 138.916 23.4932 138.945 23.3688H139.32C139.293 23.5189 139.233 23.6455 139.14 23.7484C139.047 23.8514 138.935 23.9293 138.803 23.9822C138.672 24.0337 138.534 24.0595 138.391 24.0595C138.184 24.0595 138.002 24.0144 137.844 23.9243C137.687 23.8342 137.564 23.7048 137.475 23.5361C137.387 23.3673 137.342 23.165 137.342 22.929C137.342 22.6959 137.383 22.4914 137.463 22.3155C137.543 22.1396 137.659 22.0023 137.81 21.9037C137.963 21.805 138.147 21.7557 138.361 21.7557C138.675 21.7557 138.915 21.855 139.082 22.0538C139.249 22.2512 139.333 22.5179 139.333 22.8539V22.9998H137.744ZM137.746 22.7317H138.951C138.951 22.5415 138.903 22.3813 138.805 22.2512C138.708 22.121 138.559 22.056 138.359 22.056C138.221 22.056 138.105 22.0896 138.014 22.1568C137.922 22.2226 137.854 22.3077 137.81 22.412C137.766 22.515 137.744 22.6216 137.746 22.7317ZM139.878 24.0166V21.7986H140.255V22.2254C140.311 22.0667 140.399 21.9487 140.519 21.8715C140.641 21.7943 140.772 21.7557 140.912 21.7557C140.945 21.7557 140.976 21.7578 141.006 21.7621C141.038 21.7664 141.063 21.7735 141.081 21.7835V22.1675C141.06 22.1575 141.032 22.1511 140.998 22.1482C140.965 22.1439 140.937 22.1418 140.914 22.1418C140.738 22.1303 140.587 22.1639 140.461 22.2426C140.336 22.3212 140.273 22.4528 140.273 22.6373V24.0166H139.878Z" fill="#6C757D"/>
<rect width="93.1771" height="35.1928" transform="translate(113.335 28.7365)" fill="#DEE2E6"/>
<line y1="-0.167585" x2="98.3076" y2="-0.167585" transform="matrix(0.937584 0.347758 -0.937584 0.347758 113.67 29.4068)" stroke="#C6C6C6" stroke-width="0.335169"/>
<line y1="-0.167585" x2="98.3076" y2="-0.167585" transform="matrix(0.937584 -0.347758 0.937584 0.347758 114.006 63.5941)" stroke="#C6C6C6" stroke-width="0.335169"/>
<rect x="156.907" y="44.1542" width="6.03305" height="4.69237" fill="#DEE2E6"/>
<path d="M162.795 49.4784C163.136 49.4784 163.424 49.2034 163.424 48.85V45.0793C163.424 44.7389 163.136 44.4509 162.795 44.4509H157.349C156.995 44.4509 156.72 44.7389 156.72 45.0793V48.85C156.72 49.2034 156.995 49.4784 157.349 49.4784H162.795ZM158.187 45.184C158.579 45.184 158.92 45.5244 158.92 45.9172C158.92 46.3231 158.579 46.6504 158.187 46.6504C157.781 46.6504 157.454 46.3231 157.454 45.9172C157.454 45.5244 157.781 45.184 158.187 45.184ZM157.558 48.6405V48.012L158.488 47.0825C158.553 47.017 158.645 47.017 158.71 47.0825L159.444 47.8025L161.211 46.0351C161.277 45.9696 161.368 45.9696 161.434 46.0351L162.586 47.1741V48.6405H157.558Z" fill="#6C757D"/>
<path d="M141.267 78.9843H140.847L140.28 77.6479H139.446V78.9843H139.049V75.8825H140.25C140.586 75.8825 140.838 75.9576 141.005 76.1078C141.174 76.2579 141.259 76.4653 141.259 76.7298C141.259 76.8986 141.228 77.0387 141.168 77.1503C141.11 77.2618 141.035 77.3519 140.943 77.4205C140.852 77.4878 140.757 77.54 140.658 77.5771L141.267 78.9843ZM140.122 77.3197C140.355 77.3197 140.535 77.2725 140.662 77.1782C140.789 77.0823 140.853 76.9408 140.853 76.7534C140.853 76.5718 140.796 76.4352 140.681 76.3437C140.569 76.2522 140.413 76.2064 140.216 76.2064H139.446V77.3197H140.122ZM142.083 77.9675C142.083 78.1077 142.106 78.235 142.152 78.3494C142.199 78.4623 142.27 78.5524 142.364 78.6196C142.46 78.6869 142.579 78.7205 142.722 78.7205C142.864 78.7205 142.985 78.6876 143.087 78.6218C143.19 78.556 143.256 78.4609 143.284 78.3365H143.66C143.632 78.4867 143.572 78.6132 143.479 78.7162C143.386 78.8191 143.274 78.8971 143.143 78.95C143.011 79.0015 142.874 79.0272 142.731 79.0272C142.523 79.0272 142.341 78.9822 142.184 78.8921C142.026 78.802 141.903 78.6726 141.815 78.5038C141.726 78.3351 141.682 78.1327 141.682 77.8968C141.682 77.6637 141.722 77.4592 141.802 77.2833C141.882 77.1074 141.998 76.9701 142.149 76.8714C142.302 76.7727 142.486 76.7234 142.701 76.7234C143.014 76.7234 143.254 76.8228 143.421 77.0216C143.589 77.2189 143.672 77.4856 143.672 77.8217V77.9675H142.083ZM142.085 77.6994H143.291C143.291 77.5092 143.242 77.349 143.145 77.2189C143.047 77.0888 142.899 77.0237 142.699 77.0237C142.56 77.0237 142.445 77.0573 142.353 77.1245C142.262 77.1903 142.194 77.2754 142.149 77.3798C142.105 77.4828 142.084 77.5893 142.085 77.6994ZM144.217 79.675V76.7663H144.612L144.616 77.1524C144.65 77.0923 144.698 77.0294 144.76 76.9636C144.823 76.8964 144.902 76.8399 144.998 76.7942C145.094 76.747 145.21 76.7234 145.345 76.7234C145.61 76.7234 145.826 76.8149 145.993 76.998C146.161 77.181 146.244 77.4634 146.244 77.8453C146.244 78.2257 146.162 78.5181 145.998 78.7226C145.833 78.9257 145.605 79.0272 145.313 79.0272C145.182 79.0272 145.069 79.0036 144.977 78.9564C144.885 78.9078 144.81 78.8492 144.751 78.7805C144.693 78.7119 144.648 78.6461 144.616 78.5832V79.675H144.217ZM145.238 78.7183C145.421 78.7183 145.571 78.649 145.687 78.5103C145.802 78.3701 145.86 78.1527 145.86 77.8581C145.86 77.6065 145.807 77.4062 145.702 77.2575C145.596 77.1074 145.441 77.0323 145.238 77.0323C145.032 77.0323 144.876 77.1088 144.771 77.2618C144.665 77.4148 144.612 77.6136 144.612 77.8581C144.612 78.0169 144.635 78.1613 144.683 78.2915C144.73 78.4216 144.8 78.5253 144.893 78.6025C144.986 78.6797 145.101 78.7183 145.238 78.7183ZM147.324 79.0122C147.164 79.0122 147.044 78.9843 146.964 78.9285C146.884 78.8713 146.83 78.7977 146.803 78.7076C146.777 78.6161 146.764 78.5181 146.764 78.4137V75.7967H147.155V78.3751C147.155 78.4881 147.176 78.5725 147.219 78.6282C147.264 78.6826 147.325 78.7126 147.404 78.7183L147.524 78.7205V78.9779C147.452 79.0008 147.386 79.0122 147.324 79.0122ZM148.635 79.0272C148.419 79.0272 148.243 78.9707 148.107 78.8578C147.971 78.7448 147.903 78.5868 147.903 78.3837C147.903 78.1377 147.989 77.9547 148.161 77.8345C148.332 77.7144 148.608 77.6501 148.987 77.6415L149.383 77.6308V77.457C149.383 77.3212 149.342 77.2139 149.259 77.1353C149.178 77.0552 149.052 77.0151 148.882 77.0151C148.754 77.0166 148.642 77.0473 148.545 77.1074C148.447 77.166 148.385 77.2611 148.358 77.3927H148.008C148.02 77.1767 148.104 77.0116 148.262 76.8971C148.419 76.7813 148.632 76.7234 148.901 76.7234C149.19 76.7234 149.406 76.7842 149.549 76.9057C149.693 77.0273 149.765 77.2039 149.765 77.4356V78.9843H149.426L149.398 78.5682C149.311 78.7412 149.202 78.8613 149.07 78.9285C148.939 78.9943 148.794 79.0272 148.635 79.0272ZM148.755 78.7419C148.854 78.7419 148.951 78.7183 149.047 78.6711C149.144 78.6239 149.224 78.5639 149.287 78.4909C149.35 78.4166 149.382 78.3379 149.383 78.255V77.8753L149.053 77.8817C148.799 77.886 148.608 77.9239 148.48 77.9954C148.353 78.0655 148.289 78.1821 148.289 78.3451C148.289 78.4709 148.332 78.5689 148.418 78.639C148.505 78.7076 148.618 78.7419 148.755 78.7419ZM151.327 76.7234C151.566 76.7234 151.766 76.7913 151.929 76.9272C152.092 77.0616 152.189 77.2418 152.219 77.4677H151.867C151.847 77.3519 151.791 77.2525 151.698 77.1696C151.605 77.0852 151.482 77.043 151.329 77.043C151.14 77.043 150.986 77.1117 150.866 77.2489C150.747 77.3862 150.687 77.5964 150.687 77.8796C150.687 78.1356 150.742 78.3408 150.85 78.4952C150.961 78.6483 151.122 78.7248 151.335 78.7248C151.487 78.7248 151.609 78.6819 151.702 78.5961C151.795 78.5103 151.851 78.4116 151.869 78.3H152.215C152.186 78.5231 152.09 78.7004 151.925 78.832C151.762 78.9621 151.563 79.0272 151.327 79.0272C151.126 79.0272 150.95 78.9836 150.797 78.8964C150.644 78.8091 150.524 78.6804 150.436 78.5103C150.349 78.3401 150.306 78.1313 150.306 77.8839C150.306 77.6536 150.345 77.4513 150.424 77.2768C150.504 77.1024 150.62 76.9665 150.771 76.8693C150.924 76.772 151.109 76.7234 151.327 76.7234ZM153.039 77.9675C153.039 78.1077 153.062 78.235 153.107 78.3494C153.155 78.4623 153.225 78.5524 153.32 78.6196C153.416 78.6869 153.535 78.7205 153.678 78.7205C153.82 78.7205 153.941 78.6876 154.043 78.6218C154.146 78.556 154.211 78.4609 154.24 78.3365H154.615C154.588 78.4867 154.528 78.6132 154.435 78.7162C154.342 78.8191 154.23 78.8971 154.098 78.95C153.967 79.0015 153.83 79.0272 153.687 79.0272C153.479 79.0272 153.297 78.9822 153.14 78.8921C152.982 78.802 152.859 78.6726 152.771 78.5038C152.682 78.3351 152.638 78.1327 152.638 77.8968C152.638 77.6637 152.678 77.4592 152.758 77.2833C152.838 77.1074 152.954 76.9701 153.105 76.8714C153.258 76.7727 153.442 76.7234 153.657 76.7234C153.97 76.7234 154.21 76.8228 154.377 77.0216C154.545 77.2189 154.628 77.4856 154.628 77.8217V77.9675H153.039ZM153.041 77.6994H154.246C154.246 77.5092 154.198 77.349 154.101 77.2189C154.003 77.0888 153.855 77.0237 153.654 77.0237C153.516 77.0237 153.401 77.0573 153.309 77.1245C153.218 77.1903 153.15 77.2754 153.105 77.3798C153.061 77.4828 153.039 77.5893 153.041 77.6994ZM159.02 76.7663L158.349 78.9843H157.959L157.452 77.3476L156.972 78.9843H156.584L155.899 76.7663H156.266L156.775 78.4716H156.809L157.309 76.7663H157.609L158.128 78.4673H158.162L158.649 76.7663H159.02ZM159.909 75.8847V76.2965H159.504V75.8847H159.909ZM159.901 76.7663V78.9843H159.517V76.7663H159.901ZM161.755 77.0559H161.255V78.4352C161.255 78.5539 161.274 78.6268 161.311 78.654C161.349 78.6797 161.421 78.6926 161.525 78.6926H161.768V78.9586C161.739 78.9686 161.698 78.9772 161.643 78.9843C161.589 78.9915 161.521 78.995 161.439 78.995C161.209 78.995 161.054 78.9486 160.974 78.8556C160.895 78.7627 160.856 78.6268 160.856 78.448V77.0559H160.496V76.7663H160.867L160.963 76.1206H161.255V76.7642H161.755V77.0559ZM162.325 78.9843V75.7967H162.711V77.0923C162.767 77.0008 162.852 76.9193 162.966 76.8478C163.08 76.7749 163.226 76.7384 163.404 76.7384C163.548 76.7384 163.679 76.7656 163.796 76.8199C163.913 76.8728 164.006 76.9486 164.075 77.0473C164.144 77.146 164.178 77.2632 164.178 77.3991V78.9843H163.781V77.4785C163.781 77.3455 163.735 77.2432 163.644 77.1717C163.554 77.0988 163.436 77.0623 163.29 77.0623C163.19 77.0623 163.096 77.0788 163.009 77.1117C162.923 77.1431 162.853 77.1917 162.799 77.2575C162.746 77.3219 162.719 77.4041 162.719 77.5042V78.9843H162.325ZM167.008 75.8396C167.225 75.8396 167.418 75.8854 167.587 75.9769C167.757 76.067 167.894 76.1878 167.997 76.3394C168.1 76.491 168.161 76.6576 168.179 76.8392H167.757C167.721 76.6576 167.639 76.5032 167.512 76.3759C167.386 76.2486 167.215 76.185 166.997 76.185C166.714 76.185 166.498 76.2851 166.349 76.4853C166.202 76.6841 166.129 76.998 166.129 77.427C166.129 77.8589 166.202 78.1763 166.349 78.3794C166.498 78.581 166.714 78.6819 166.997 78.6819C167.143 78.6819 167.268 78.6511 167.373 78.5896C167.477 78.5267 167.561 78.4445 167.626 78.3429C167.69 78.24 167.734 78.1284 167.757 78.0083H168.179C168.158 78.1842 168.101 78.3501 168.01 78.506C167.92 78.6604 167.792 78.7863 167.626 78.8835C167.46 78.9793 167.254 79.0272 167.008 79.0272C166.589 79.0272 166.264 78.8864 166.034 78.6046C165.804 78.3229 165.689 77.9289 165.689 77.4227C165.689 76.9179 165.803 76.5282 166.032 76.2536C166.262 75.9776 166.588 75.8396 167.008 75.8396ZM169.612 79.0272C169.305 79.0272 169.058 78.9293 168.872 78.7333C168.686 78.5374 168.593 78.2543 168.593 77.8839C168.593 77.6522 168.633 77.4491 168.711 77.2747C168.79 77.1002 168.905 76.9651 169.057 76.8693C169.208 76.772 169.393 76.7234 169.612 76.7234C169.918 76.7234 170.163 76.8235 170.346 77.0237C170.529 77.2239 170.62 77.5106 170.62 77.8839C170.62 78.1098 170.582 78.3086 170.505 78.4802C170.429 78.6518 170.316 78.7863 170.166 78.8835C170.017 78.9793 169.832 79.0272 169.612 79.0272ZM169.612 78.714C169.811 78.714 169.963 78.6397 170.069 78.4909C170.175 78.3408 170.228 78.1356 170.228 77.8753C170.228 77.7166 170.206 77.5743 170.164 77.4484C170.122 77.3212 170.056 77.2203 169.966 77.146C169.876 77.0716 169.758 77.0344 169.612 77.0344C169.411 77.0344 169.256 77.1088 169.149 77.2575C169.042 77.4048 168.988 77.6107 168.988 77.8753C168.988 78.0312 169.009 78.1728 169.052 78.3C169.095 78.4273 169.162 78.5281 169.254 78.6025C169.346 78.6769 169.465 78.714 169.612 78.714ZM171.14 78.9843V76.7663H171.524V77.0881C171.578 76.9951 171.663 76.9129 171.779 76.8414C171.895 76.7699 172.041 76.7341 172.219 76.7341C172.359 76.7341 172.487 76.762 172.605 76.8178C172.723 76.8736 172.818 76.9608 172.888 77.0795C172.959 77.1967 172.995 77.3483 172.995 77.5342V78.9843H172.598V77.5728C172.598 77.3998 172.553 77.2718 172.461 77.1889C172.371 77.1045 172.254 77.0623 172.109 77.0623C172.009 77.0623 171.915 77.0788 171.828 77.1117C171.741 77.1431 171.67 77.1917 171.616 77.2575C171.562 77.3219 171.534 77.4034 171.534 77.5021V78.9843H171.14ZM174.638 77.0559H174.138V78.4352C174.138 78.5539 174.157 78.6268 174.194 78.654C174.232 78.6797 174.304 78.6926 174.408 78.6926H174.651V78.9586C174.622 78.9686 174.581 78.9772 174.526 78.9843C174.472 78.9915 174.404 78.995 174.323 78.995C174.092 78.995 173.937 78.9486 173.857 78.8556C173.778 78.7627 173.739 78.6268 173.739 78.448V77.0559H173.379V76.7663H173.75L173.846 76.1206H174.138V76.7642H174.638V77.0559ZM175.432 77.9675C175.432 78.1077 175.455 78.235 175.501 78.3494C175.548 78.4623 175.619 78.5524 175.713 78.6196C175.809 78.6869 175.928 78.7205 176.071 78.7205C176.213 78.7205 176.335 78.6876 176.436 78.6218C176.539 78.556 176.605 78.4609 176.634 78.3365H177.009C176.982 78.4867 176.922 78.6132 176.829 78.7162C176.736 78.8191 176.623 78.8971 176.492 78.95C176.36 79.0015 176.223 79.0272 176.08 79.0272C175.873 79.0272 175.69 78.9822 175.533 78.8921C175.376 78.802 175.253 78.6726 175.164 78.5038C175.075 78.3351 175.031 78.1327 175.031 77.8968C175.031 77.6637 175.071 77.4592 175.151 77.2833C175.231 77.1074 175.347 76.9701 175.499 76.8714C175.652 76.7727 175.836 76.7234 176.05 76.7234C176.363 76.7234 176.603 76.8228 176.771 77.0216C176.938 77.2189 177.022 77.4856 177.022 77.8217V77.9675H175.432ZM175.434 77.6994H176.64C176.64 77.5092 176.591 77.349 176.494 77.2189C176.397 77.0888 176.248 77.0237 176.048 77.0237C175.909 77.0237 175.794 77.0573 175.703 77.1245C175.611 77.1903 175.543 77.2754 175.499 77.3798C175.454 77.4828 175.433 77.5893 175.434 77.6994ZM177.567 78.9843V76.7663H177.95V77.0881C178.005 76.9951 178.09 76.9129 178.206 76.8414C178.322 76.7699 178.468 76.7341 178.645 76.7341C178.786 76.7341 178.914 76.762 179.032 76.8178C179.15 76.8736 179.245 76.9608 179.315 77.0795C179.386 77.1967 179.422 77.3483 179.422 77.5342V78.9843H179.025V77.5728C179.025 77.3998 178.979 77.2718 178.888 77.1889C178.798 77.1045 178.681 77.0623 178.536 77.0623C178.436 77.0623 178.342 77.0788 178.255 77.1117C178.168 77.1431 178.097 77.1917 178.043 77.2575C177.988 77.3219 177.961 77.4034 177.961 77.5021V78.9843H177.567ZM181.065 77.0559H180.565V78.4352C180.565 78.5539 180.583 78.6268 180.621 78.654C180.659 78.6797 180.731 78.6926 180.835 78.6926H181.078V78.9586C181.049 78.9686 181.008 78.9772 180.953 78.9843C180.899 78.9915 180.831 78.995 180.749 78.995C180.519 78.995 180.364 78.9486 180.284 78.8556C180.205 78.7627 180.166 78.6268 180.166 78.448V77.0559H179.806V76.7663H180.177L180.273 76.1206H180.565V76.7642H181.065V77.0559Z" fill="#6C757D"/>
<rect width="93.1771" height="12.0661" transform="translate(113.335 90.7428)" fill="black" fill-opacity="0.03"/>
<path d="M117.567 95.2795C117.785 95.2795 117.978 95.3253 118.147 95.4168C118.317 95.5069 118.453 95.6277 118.556 95.7793C118.659 95.9309 118.72 96.0975 118.739 96.2791H118.316C118.28 96.0975 118.199 95.943 118.072 95.8158C117.946 95.6885 117.774 95.6249 117.557 95.6249C117.274 95.6249 117.058 95.725 116.909 95.9252C116.762 96.1239 116.688 96.4378 116.688 96.8669C116.688 97.2987 116.762 97.6162 116.909 97.8193C117.058 98.0209 117.274 98.1217 117.557 98.1217C117.703 98.1217 117.828 98.091 117.932 98.0295C118.037 97.9666 118.121 97.8843 118.185 97.7828C118.25 97.6798 118.293 97.5683 118.316 97.4482H118.739C118.717 97.6241 118.661 97.79 118.569 97.9458C118.479 98.1003 118.351 98.2261 118.185 98.3234C118.019 98.4192 117.813 98.4671 117.567 98.4671C117.148 98.4671 116.824 98.3262 116.594 98.0445C116.363 97.7628 116.248 97.3688 116.248 96.8626C116.248 96.3578 116.363 95.9681 116.591 95.6935C116.822 95.4175 117.147 95.2795 117.567 95.2795ZM119.883 98.4671C119.667 98.4671 119.491 98.4106 119.355 98.2976C119.219 98.1847 119.151 98.0266 119.151 97.8236C119.151 97.5776 119.237 97.3946 119.409 97.2744C119.58 97.1543 119.855 97.09 120.234 97.0814L120.631 97.0706V96.8969C120.631 96.761 120.59 96.6538 120.507 96.5751C120.425 96.495 120.3 96.455 120.129 96.455C120.002 96.4564 119.89 96.4872 119.793 96.5472C119.695 96.6059 119.633 96.701 119.606 96.8325H119.256C119.268 96.6166 119.352 96.4514 119.509 96.337C119.667 96.2212 119.88 96.1633 120.149 96.1633C120.438 96.1633 120.653 96.2241 120.796 96.3456C120.941 96.4672 121.013 96.6438 121.013 96.8754V98.4242H120.674L120.646 98.008C120.559 98.1811 120.45 98.3012 120.318 98.3684C120.187 98.4342 120.041 98.4671 119.883 98.4671ZM120.003 98.1818C120.101 98.1818 120.199 98.1582 120.295 98.111C120.392 98.0638 120.472 98.0038 120.535 97.9308C120.598 97.8565 120.63 97.7778 120.631 97.6949V97.3152L120.301 97.3216C120.046 97.3259 119.855 97.3638 119.728 97.4353C119.601 97.5054 119.537 97.6219 119.537 97.785C119.537 97.9108 119.58 98.0088 119.666 98.0788C119.753 98.1475 119.865 98.1818 120.003 98.1818ZM121.691 98.4242V96.2062H122.068V96.633C122.124 96.4743 122.212 96.3563 122.332 96.2791C122.454 96.2019 122.585 96.1633 122.725 96.1633C122.758 96.1633 122.789 96.1654 122.819 96.1697C122.851 96.174 122.876 96.1812 122.894 96.1912V96.5751C122.873 96.5651 122.845 96.5587 122.81 96.5558C122.778 96.5515 122.75 96.5494 122.727 96.5494C122.551 96.5379 122.4 96.5716 122.274 96.6502C122.148 96.7289 122.085 96.8604 122.085 97.0449V98.4242H121.691ZM124.104 98.4671C123.815 98.4671 123.586 98.3684 123.417 98.1711C123.25 97.9737 123.166 97.6856 123.166 97.3066C123.166 96.9605 123.242 96.6838 123.394 96.4765C123.547 96.2677 123.774 96.1633 124.074 96.1633C124.214 96.1633 124.333 96.1862 124.432 96.2319C124.532 96.2777 124.612 96.3313 124.672 96.3928C124.734 96.4543 124.777 96.5093 124.801 96.558V95.2366H125.2V98.4242H124.898L124.855 97.9694C124.836 98.0266 124.801 98.0946 124.75 98.1732C124.698 98.2519 124.621 98.3205 124.518 98.3791C124.415 98.4378 124.277 98.4671 124.104 98.4671ZM124.175 98.1625C124.399 98.1625 124.559 98.0946 124.655 97.9587C124.752 97.8214 124.801 97.5976 124.801 97.2873C124.798 97.0285 124.75 96.8283 124.655 96.6867C124.561 96.5437 124.403 96.4722 124.183 96.4722C124.002 96.4722 123.853 96.5372 123.737 96.6674C123.623 96.7961 123.565 97.0027 123.565 97.2873C123.565 97.5647 123.617 97.78 123.72 97.933C123.824 98.086 123.976 98.1625 124.175 98.1625ZM126.925 95.3224H128.858L128.856 95.6699H127.333V96.6953H128.702V97.0385H127.333V98.4242H126.925V95.3224ZM130.21 98.4671C129.903 98.4671 129.656 98.3691 129.47 98.1732C129.284 97.9773 129.191 97.6942 129.191 97.3238C129.191 97.0921 129.23 96.889 129.309 96.7146C129.388 96.5401 129.503 96.405 129.654 96.3091C129.806 96.2119 129.991 96.1633 130.21 96.1633C130.516 96.1633 130.761 96.2634 130.944 96.4636C131.127 96.6638 131.218 96.9505 131.218 97.3238C131.218 97.5497 131.18 97.7485 131.102 97.9201C131.027 98.0917 130.914 98.2261 130.763 98.3234C130.615 98.4192 130.43 98.4671 130.21 98.4671ZM130.21 98.1539C130.409 98.1539 130.561 98.0796 130.667 97.9308C130.773 97.7807 130.826 97.5755 130.826 97.3152C130.826 97.1564 130.804 97.0142 130.761 96.8883C130.72 96.761 130.654 96.6602 130.564 96.5859C130.474 96.5115 130.356 96.4743 130.21 96.4743C130.008 96.4743 129.854 96.5487 129.747 96.6974C129.639 96.8447 129.586 97.0506 129.586 97.3152C129.586 97.4711 129.607 97.6126 129.65 97.7399C129.693 97.8672 129.76 97.968 129.852 98.0424C129.943 98.1167 130.063 98.1539 130.21 98.1539ZM132.619 98.4671C132.312 98.4671 132.065 98.3691 131.879 98.1732C131.693 97.9773 131.6 97.6942 131.6 97.3238C131.6 97.0921 131.64 96.889 131.718 96.7146C131.797 96.5401 131.912 96.405 132.064 96.3091C132.215 96.2119 132.4 96.1633 132.619 96.1633C132.925 96.1633 133.17 96.2634 133.353 96.4636C133.536 96.6638 133.627 96.9505 133.627 97.3238C133.627 97.5497 133.589 97.7485 133.511 97.9201C133.436 98.0917 133.323 98.2261 133.173 98.3234C133.024 98.4192 132.839 98.4671 132.619 98.4671ZM132.619 98.1539C132.818 98.1539 132.97 98.0796 133.076 97.9308C133.182 97.7807 133.235 97.5755 133.235 97.3152C133.235 97.1564 133.213 97.0142 133.17 96.8883C133.129 96.761 133.063 96.6602 132.973 96.5859C132.883 96.5115 132.765 96.4743 132.619 96.4743C132.417 96.4743 132.263 96.5487 132.156 96.6974C132.048 96.8447 131.995 97.0506 131.995 97.3152C131.995 97.4711 132.016 97.6126 132.059 97.7399C132.102 97.8672 132.169 97.968 132.261 98.0424C132.352 98.1167 132.472 98.1539 132.619 98.1539ZM135.202 96.4958H134.702V97.8751C134.702 97.9937 134.721 98.0667 134.758 98.0939C134.797 98.1196 134.868 98.1325 134.973 98.1325H135.215V98.3985C135.186 98.4085 135.145 98.417 135.091 98.4242C135.036 98.4313 134.968 98.4349 134.887 98.4349C134.657 98.4349 134.501 98.3884 134.421 98.2955C134.343 98.2025 134.303 98.0667 134.303 97.8879V96.4958H133.943V96.2062H134.314L134.411 95.5605H134.702V96.204H135.202V96.4958ZM135.997 97.4074C135.997 97.5476 136.019 97.6748 136.065 97.7892C136.112 97.9022 136.183 97.9923 136.278 98.0595C136.373 98.1267 136.493 98.1603 136.636 98.1603C136.777 98.1603 136.899 98.1275 137 98.0617C137.103 97.9959 137.169 97.9008 137.198 97.7764H137.573C137.546 97.9265 137.486 98.0531 137.393 98.1561C137.3 98.259 137.188 98.337 137.056 98.3899C136.925 98.4414 136.787 98.4671 136.644 98.4671C136.437 98.4671 136.255 98.422 136.097 98.332C135.94 98.2419 135.817 98.1124 135.728 97.9437C135.64 97.7749 135.595 97.5726 135.595 97.3366C135.595 97.1035 135.635 96.899 135.716 96.7231C135.796 96.5472 135.911 96.41 136.063 96.3113C136.216 96.2126 136.4 96.1633 136.614 96.1633C136.928 96.1633 137.168 96.2627 137.335 96.4614C137.502 96.6588 137.586 96.9255 137.586 97.2616V97.4074H135.997ZM135.999 97.1393H137.204C137.204 96.9491 137.156 96.7889 137.058 96.6588C136.961 96.5287 136.812 96.4636 136.612 96.4636C136.473 96.4636 136.358 96.4972 136.267 96.5644C136.175 96.6302 136.107 96.7153 136.063 96.8197C136.019 96.9226 135.997 97.0292 135.999 97.1393ZM138.131 98.4242V96.2062H138.508V96.633C138.564 96.4743 138.652 96.3563 138.772 96.2791C138.894 96.2019 139.025 96.1633 139.165 96.1633C139.198 96.1633 139.229 96.1654 139.259 96.1697C139.291 96.174 139.316 96.1812 139.334 96.1912V96.5751C139.313 96.5651 139.285 96.5587 139.251 96.5558C139.218 96.5515 139.19 96.5494 139.167 96.5494C138.991 96.5379 138.84 96.5716 138.714 96.6502C138.588 96.7289 138.526 96.8604 138.526 97.0449V98.4242H138.131Z" fill="#6C757D"/>
<path d="M188.888 97.0416L188.437 96.7902C188.49 96.5389 188.49 96.298 188.437 96.0466L188.888 95.7952C188.94 95.7638 188.961 95.7009 188.94 95.6486C188.825 95.2715 188.626 94.9363 188.374 94.6535C188.333 94.6116 188.27 94.6012 188.217 94.6326L187.767 94.884C187.578 94.7269 187.369 94.6012 187.139 94.5174V94.0041C187.139 93.9518 187.097 93.8994 187.034 93.8889C186.646 93.7947 186.259 93.8051 185.892 93.8889C185.829 93.8994 185.798 93.9518 185.798 94.0041V94.5174C185.557 94.6012 185.347 94.7269 185.159 94.8944L184.709 94.6326C184.656 94.6012 184.593 94.6116 184.551 94.6535C184.3 94.9363 184.101 95.2715 183.986 95.6486C183.965 95.7009 183.986 95.7638 184.038 95.7952L184.489 96.0466C184.447 96.298 184.447 96.5389 184.489 96.7902L184.038 97.0416C183.986 97.073 183.965 97.1359 183.986 97.1883C184.101 97.5653 184.3 97.9005 184.551 98.1833C184.593 98.2252 184.656 98.2357 184.709 98.2042L185.159 97.9529C185.347 98.11 185.557 98.2357 185.798 98.3195V98.8327C185.798 98.8851 185.84 98.9374 185.892 98.9584C186.28 99.0422 186.667 99.0317 187.034 98.9584C187.097 98.9374 187.139 98.8851 187.139 98.8327V98.3195C187.369 98.2357 187.578 98.11 187.767 97.9529L188.217 98.2042C188.27 98.2357 188.333 98.2252 188.374 98.1833C188.636 97.9005 188.825 97.5653 188.951 97.1883C188.961 97.1359 188.94 97.073 188.888 97.0416ZM186.468 97.2511C185.997 97.2511 185.63 96.8845 185.63 96.4132C185.63 95.9523 185.997 95.5753 186.468 95.5753C186.929 95.5753 187.306 95.9523 187.306 96.4132C187.306 96.8845 186.929 97.2511 186.468 97.2511Z" fill="#6C757D"/>
<path d="M200.251 97.0416L199.8 96.7902C199.853 96.5389 199.853 96.298 199.8 96.0466L200.251 95.7952C200.303 95.7638 200.324 95.7009 200.303 95.6486C200.188 95.2715 199.989 94.9363 199.737 94.6535C199.695 94.6116 199.633 94.6012 199.58 94.6326L199.13 94.884C198.941 94.7269 198.732 94.6012 198.501 94.5174V94.0041C198.501 93.9518 198.459 93.8994 198.397 93.8889C198.009 93.7947 197.622 93.8051 197.255 93.8889C197.192 93.8994 197.161 93.9518 197.161 94.0041V94.5174C196.92 94.6012 196.71 94.7269 196.522 94.8944L196.071 94.6326C196.019 94.6012 195.956 94.6116 195.914 94.6535C195.663 94.9363 195.464 95.2715 195.349 95.6486C195.328 95.7009 195.349 95.7638 195.401 95.7952L195.851 96.0466C195.81 96.298 195.81 96.5389 195.851 96.7902L195.401 97.0416C195.349 97.073 195.328 97.1359 195.349 97.1883C195.464 97.5653 195.663 97.9005 195.914 98.1833C195.956 98.2252 196.019 98.2357 196.071 98.2042L196.522 97.9529C196.71 98.11 196.92 98.2357 197.161 98.3195V98.8327C197.161 98.8851 197.203 98.9374 197.255 98.9584C197.642 99.0422 198.03 99.0317 198.397 98.9584C198.459 98.9374 198.501 98.8851 198.501 98.8327V98.3195C198.732 98.2357 198.941 98.11 199.13 97.9529L199.58 98.2042C199.633 98.2357 199.695 98.2252 199.737 98.1833C199.999 97.9005 200.188 97.5653 200.313 97.1883C200.324 97.1359 200.303 97.073 200.251 97.0416ZM197.831 97.2511C197.36 97.2511 196.993 96.8845 196.993 96.4132C196.993 95.9523 197.36 95.5753 197.831 95.5753C198.292 95.5753 198.669 95.9523 198.669 96.4132C198.669 96.8845 198.292 97.2511 197.831 97.2511Z" fill="#6C757D"/>
<rect x="113.335" y="90.7428" width="93.1771" height="0.335169" fill="#DEE2E6"/>
<path d="M114.341 16.3352H205.507V15.6648H114.341V16.3352ZM206.512 17.3407V101.803H207.183V17.3407H206.512ZM205.507 102.809H114.341V103.479H205.507V102.809ZM113.335 101.803V17.3407H112.665V101.803H113.335ZM114.341 102.809C113.785 102.809 113.335 102.359 113.335 101.803H112.665C112.665 102.729 113.415 103.479 114.341 103.479V102.809ZM206.512 101.803C206.512 102.359 206.062 102.809 205.507 102.809V103.479C206.432 103.479 207.183 102.729 207.183 101.803H206.512ZM205.507 16.3352C206.062 16.3352 206.512 16.7854 206.512 17.3407H207.183C207.183 16.4151 206.432 15.6648 205.507 15.6648V16.3352ZM114.341 15.6648C113.415 15.6648 112.665 16.4151 112.665 17.3407H113.335C113.335 16.7854 113.785 16.3352 114.341 16.3352V15.6648Z" fill="#DEE2E6"/>
</g>
<g style="mix-blend-mode:color">
<rect width="320" height="120" fill="#808080"/>
</g>
<g style="mix-blend-mode:color">
<rect width="320" height="120" fill="#00284D"/>
</g>
<defs>
<filter id="filter0_d_454_414" x="112.33" y="16" width="95.1881" height="88.4848" filterUnits="userSpaceOnUse" color-interpolation-filters="sRGB">
<feFlood flood-opacity="0" result="BackgroundImageFix"/>
<feColorMatrix in="SourceAlpha" type="matrix" values="0 0 0 0 0 0 0 0 0 0 0 0 0 0 0 0 0 0 127 0" result="hardAlpha"/>
<feOffset dy="0.670339"/>
<feGaussianBlur stdDeviation="0.335169"/>
<feColorMatrix type="matrix" values="0 0 0 0 0 0 0 0 0 0 0 0 0 0 0 0 0 0 0.15 0"/>
<feBlend mode="normal" in2="BackgroundImageFix" result="effect1_dropShadow_454_414"/>
<feBlend mode="normal" in="SourceGraphic" in2="effect1_dropShadow_454_414" result="shape"/>
</filter>
</defs>
</svg>
