<svg width="320" height="120" viewBox="0 0 320 120" fill="none" xmlns="http://www.w3.org/2000/svg">
<rect width="320" height="120" fill="#C0CEDB"/>
<g filter="url(#filter0_ii)">
<rect x="90" y="40" width="140" height="40" rx="4" fill="white"/>
<path d="M129.048 66.16C130.024 66.168 131.192 65.808 131.488 64.36L131.76 66H133.52V57.728H131.208V63.112C131.208 63.968 130.624 64.464 129.712 64.464C128.744 64.464 128.232 63.92 128.232 63.152V57.728H125.896V63.448C125.896 65.208 127.528 66.152 129.048 66.16ZM138.844 66.16C140.908 66.16 142.332 65.224 142.332 63.568C142.332 62.816 141.94 61.608 140.1 61.152L138.756 60.848C137.852 60.672 137.444 60.44 137.444 60.008C137.444 59.424 138.028 59.136 138.828 59.136C139.612 59.136 140.164 59.496 140.284 60.136H142.236C142.212 58.512 140.892 57.568 138.86 57.568C136.596 57.568 135.38 58.696 135.388 60.184C135.396 61.552 136.364 62.248 137.828 62.552L139.284 62.856C140.036 63 140.332 63.248 140.332 63.696C140.332 64.288 139.724 64.56 138.836 64.56C138.188 64.56 137.364 64.272 137.148 63.392H135.132C135.428 65.352 137.116 66.16 138.844 66.16ZM145.929 62.4H151.489V61.768C151.489 59.288 150.161 57.568 147.633 57.568C145.097 57.568 143.617 59.472 143.617 61.96C143.617 64.528 145.297 66.16 147.753 66.16C149.473 66.16 151.201 65.144 151.481 63.376H149.377C149.137 64.152 148.497 64.472 147.697 64.472C146.577 64.472 145.921 63.664 145.929 62.4ZM145.929 61.008C145.921 60.096 146.553 59.2 147.625 59.2C148.753 59.2 149.305 60.008 149.305 61.008H145.929ZM153.172 66H155.508V61.472C155.508 60.36 156.212 59.624 158.052 59.784C158.164 59.792 158.308 59.8 158.404 59.84V57.616C158.34 57.584 158.196 57.568 158.044 57.568C156.74 57.568 155.812 58.424 155.42 59.688V57.728H153.172V66ZM169.318 66.552L168.606 65.6C167.822 66.128 167.15 66.552 165.71 66.552C162.646 66.552 160.798 64.784 160.798 61.904C160.798 59.24 162.35 56.976 165.758 56.976C167.886 56.976 169.974 57.936 169.974 60.808C169.974 62.544 169.222 63.416 168.47 63.416C168.078 63.416 167.862 63.184 167.99 62.432L168.566 58.992H167.222L167.134 59.336C167.118 59.432 167.062 59.448 167.014 59.392C166.646 58.944 166.182 58.592 165.318 58.592C163.406 58.592 162.166 60.288 162.166 62.2C162.15 63.872 163.198 64.96 164.526 64.96C165.43 64.96 166.142 64.552 166.606 63.992C166.702 63.88 166.726 63.872 166.806 63.992C166.982 64.36 167.398 64.736 168.31 64.736C170.118 64.736 171.382 63.088 171.382 60.712C171.382 57.192 168.574 55.696 165.758 55.696C161.838 55.696 159.358 58.56 159.358 61.928C159.358 65.136 161.622 67.76 165.454 67.76C167.134 67.76 168.51 67.208 169.318 66.552ZM163.822 62.04C163.822 60.896 164.534 59.992 165.438 59.992C166.174 59.992 166.694 60.68 166.614 61.672C166.542 62.632 165.838 63.544 164.934 63.544C164.19 63.544 163.822 62.88 163.822 62.04Z" fill="#343A40"/>
<path d="M110 59.75C111.914 59.75 113.5 58.1914 113.5 56.25C113.5 54.3359 111.914 52.75 110 52.75C108.059 52.75 106.5 54.3359 106.5 56.25C106.5 58.1914 108.059 59.75 110 59.75ZM112.434 60.625H111.969C111.367 60.9258 110.711 61.0625 110 61.0625C109.289 61.0625 108.605 60.9258 108.004 60.625H107.539C105.516 60.625 103.875 62.293 103.875 64.3164V65.4375C103.875 66.1758 104.449 66.75 105.188 66.75H114.812C115.523 66.75 116.125 66.1758 116.125 65.4375V64.3164C116.125 62.293 114.457 60.625 112.434 60.625Z" fill="black"/>
</g>
<g style="mix-blend-mode:color">
<rect width="320" height="120" fill="#808080"/>
</g>
<g style="mix-blend-mode:color">
<rect width="320" height="120" fill="#00284D"/>
</g>
<defs>
<filter id="filter0_ii" x="90" y="40" width="140" height="41" filterUnits="userSpaceOnUse" color-interpolation-filters="sRGB">
<feFlood flood-opacity="0" result="BackgroundImageFix"/>
<feBlend mode="normal" in="SourceGraphic" in2="BackgroundImageFix" result="shape"/>
<feColorMatrix in="SourceAlpha" type="matrix" values="0 0 0 0 0 0 0 0 0 0 0 0 0 0 0 0 0 0 127 0" result="hardAlpha"/>
<feOffset dy="-2"/>
<feComposite in2="hardAlpha" operator="arithmetic" k2="-1" k3="1"/>
<feColorMatrix type="matrix" values="0 0 0 0 0.423529 0 0 0 0 0.458824 0 0 0 0 0.490196 0 0 0 1 0"/>
<feBlend mode="normal" in2="shape" result="effect1_innerShadow"/>
<feColorMatrix in="SourceAlpha" type="matrix" values="0 0 0 0 0 0 0 0 0 0 0 0 0 0 0 0 0 0 127 0" result="hardAlpha"/>
<feOffset dy="1"/>
<feGaussianBlur stdDeviation="0.5"/>
<feComposite in2="hardAlpha" operator="arithmetic" k2="-1" k3="1"/>
<feColorMatrix type="matrix" values="0 0 0 0 0.741176 0 0 0 0 0.756863 0 0 0 0 0.772549 0 0 0 1 0"/>
<feBlend mode="normal" in2="effect1_innerShadow" result="effect2_innerShadow"/>
</filter>
</defs>
</svg>
