<svg width="320" height="120" viewBox="0 0 320 120" fill="none" xmlns="http://www.w3.org/2000/svg">
<rect width="320" height="120" fill="#C0CEDB"/>
<g filter="url(#filter0_d_454_14)">
<rect x="65.5" y="41" width="98" height="38" rx="4" fill="#FE9903"/>
<path d="M85.5 52.25C81.2188 52.25 77.75 55.7188 77.75 60C77.75 64.2812 81.2188 67.75 85.5 67.75C89.7812 67.75 93.25 64.2812 93.25 60C93.25 55.7188 89.7812 52.25 85.5 52.25ZM88 57.5C88.5312 57.5 89 57.9688 89 58.5C89 59.0625 88.5312 59.5 88 59.5C87.4375 59.5 87 59.0625 87 58.5C87 57.9688 87.4375 57.5 88 57.5ZM83 57.5C83.5312 57.5 84 57.9688 84 58.5C84 59.0625 83.5312 59.5 83 59.5C82.4375 59.5 82 59.0625 82 58.5C82 57.9688 82.4375 57.5 83 57.5ZM89.0625 62.8438C88.1875 63.9062 86.875 64.5 85.5 64.5C84.0938 64.5 82.7812 63.9062 81.9062 62.8438C81.4688 62.3125 82.25 61.6875 82.6562 62.1875C83.375 63.0312 84.4062 63.5 85.5 63.5C86.5938 63.5 87.5938 63.0312 88.3125 62.1875C88.7188 61.6875 89.5 62.3125 89.0625 62.8438Z" fill="black"/>
<path d="M103.169 66H107.009C109.961 66 111.457 64.984 111.457 62.888C111.457 61.584 110.849 60.496 109.025 60.104C110.609 59.544 111.169 58.672 111.169 57.448C111.169 55.496 109.697 54.432 106.889 54.432H103.169V66ZM104.649 59.52V55.656H106.961C108.601 55.656 109.737 56.288 109.737 57.632C109.737 59.096 108.369 59.52 107.169 59.52H104.649ZM104.649 64.768V60.776H107.169C108.721 60.776 109.953 61.376 109.953 62.824C109.953 64.144 108.921 64.768 106.993 64.768H104.649ZM116.639 66.16C117.807 66.168 118.815 65.656 119.119 64.416L119.271 66H120.447V57.728H118.975V63.112C118.975 64.368 118.167 65.008 116.951 65.008C115.599 65.008 114.943 64.272 114.943 63.192V57.728H113.463V63.344C113.463 65.208 114.919 66.144 116.639 66.16ZM127.088 58.808V57.72H125.224V55.32H124.136L123.776 57.728H122.392V58.808H123.736V64C123.736 65.328 124.192 66.04 125.912 66.04C126.512 66.04 126.928 65.984 127.136 65.904V64.912H126.232C125.456 64.912 125.224 64.832 125.224 63.952V58.808H127.088ZM132.51 58.808V57.72H130.646V55.32H129.558L129.198 57.728H127.814V58.808H129.158V64C129.158 65.328 129.614 66.04 131.334 66.04C131.934 66.04 132.35 65.984 132.558 65.904V64.912H131.654C130.878 64.912 130.646 64.832 130.646 63.952V58.808H132.51ZM137.614 66.16C140.078 66.16 141.382 64.424 141.382 61.896C141.382 59.112 139.902 57.568 137.622 57.568C135.174 57.568 133.822 59.304 133.822 61.896C133.822 64.656 135.318 66.16 137.614 66.16ZM137.622 64.992C135.966 64.992 135.294 63.608 135.294 61.864C135.294 59.896 136.118 58.728 137.622 58.728C139.246 58.728 139.918 60.096 139.918 61.864C139.918 63.808 139.102 64.992 137.622 64.992ZM143.349 66H144.821V60.472C144.821 59.36 145.845 58.832 146.965 58.832C148.045 58.832 148.789 59.448 148.789 60.736V66H150.269V60.592C150.269 58.512 148.941 57.608 147.373 57.608C146.045 57.608 145.189 58.24 144.781 58.928V57.728H143.349V66Z" fill="black"/>
</g>
<g filter="url(#filter1_d_454_14)">
<path d="M171 41C171 38.2386 173.239 36 176 36H290C292.761 36 295 38.2386 295 41V79C295 81.7614 292.761 84 290 84H176C173.239 84 171 81.7614 171 79V41Z" fill="#004BA1"/>
<path d="M197 50.8125C191.648 50.8125 187.312 55.1484 187.312 60.5C187.312 65.8516 191.648 70.1875 197 70.1875C202.352 70.1875 206.688 65.8516 206.688 60.5C206.688 55.1484 202.352 50.8125 197 50.8125ZM200.125 57.375C200.789 57.375 201.375 57.9609 201.375 58.625C201.375 59.3281 200.789 59.875 200.125 59.875C199.422 59.875 198.875 59.3281 198.875 58.625C198.875 57.9609 199.422 57.375 200.125 57.375ZM193.875 57.375C194.539 57.375 195.125 57.9609 195.125 58.625C195.125 59.3281 194.539 59.875 193.875 59.875C193.172 59.875 192.625 59.3281 192.625 58.625C192.625 57.9609 193.172 57.375 193.875 57.375ZM201.453 64.0547C200.359 65.3828 198.719 66.125 197 66.125C195.242 66.125 193.602 65.3828 192.508 64.0547C191.961 63.3906 192.938 62.6094 193.445 63.2344C194.344 64.2891 195.633 64.875 197 64.875C198.367 64.875 199.617 64.2891 200.516 63.2344C201.023 62.6094 202 63.3906 201.453 64.0547Z" fill="white"/>
<path d="M217.308 67V52.54H221.958C223.718 52.54 225.048 52.8633 225.948 53.51C226.855 54.1567 227.308 55.09 227.308 56.31C227.308 57.0767 227.108 57.7333 226.708 58.28C226.308 58.8267 225.615 59.2767 224.628 59.63C225.768 59.8767 226.558 60.3167 226.998 60.95C227.445 61.5767 227.668 62.2967 227.668 63.11C227.668 65.7033 225.815 67 222.108 67H217.308ZM219.158 58.9H222.308C222.808 58.9 223.305 58.83 223.798 58.69C224.292 58.55 224.702 58.31 225.028 57.97C225.355 57.63 225.518 57.1533 225.518 56.54C225.518 55.7 225.195 55.08 224.548 54.68C223.908 54.2733 223.075 54.07 222.048 54.07H219.158V58.9ZM219.158 65.46H222.088C223.295 65.46 224.212 65.2633 224.838 64.87C225.472 64.47 225.788 63.8567 225.788 63.03C225.788 62.4233 225.632 61.9333 225.318 61.56C225.012 61.18 224.595 60.9033 224.068 60.73C223.542 60.5567 222.955 60.47 222.308 60.47H219.158V65.46ZM234.146 67.2C233.426 67.1933 232.766 67.06 232.166 66.8C231.566 66.5333 231.083 66.14 230.716 65.62C230.356 65.1 230.176 64.4533 230.176 63.68V56.66H232.026V63.49C232.026 64.1633 232.233 64.71 232.646 65.13C233.066 65.55 233.696 65.76 234.536 65.76C235.296 65.76 235.906 65.5633 236.366 65.17C236.833 64.77 237.066 64.1767 237.066 63.39V56.66H238.906V67H237.436L237.246 65.02C237.06 65.8 236.68 66.36 236.106 66.7C235.533 67.04 234.88 67.2067 234.146 67.2ZM247.182 58.01H244.852V64.44C244.852 64.9933 244.938 65.3333 245.112 65.46C245.292 65.58 245.625 65.64 246.112 65.64H247.242V66.88C247.108 66.9267 246.915 66.9667 246.662 67C246.408 67.0333 246.092 67.05 245.712 67.05C244.638 67.05 243.915 66.8333 243.542 66.4C243.175 65.9667 242.992 65.3333 242.992 64.5V58.01H241.312V56.66H243.042L243.492 53.65H244.852V56.65H247.182V58.01ZM254.975 58.01H252.645V64.44C252.645 64.9933 252.731 65.3333 252.905 65.46C253.085 65.58 253.418 65.64 253.905 65.64H255.035V66.88C254.901 66.9267 254.708 66.9667 254.455 67C254.201 67.0333 253.885 67.05 253.505 67.05C252.431 67.05 251.708 66.8333 251.335 66.4C250.968 65.9667 250.785 65.3333 250.785 64.5V58.01H249.105V56.66H250.835L251.285 53.65H252.645V56.65H254.975V58.01ZM261.468 67.2C260.035 67.2 258.885 66.7433 258.018 65.83C257.151 64.9167 256.718 63.5967 256.718 61.87C256.718 60.79 256.901 59.8433 257.268 59.03C257.635 58.2167 258.171 57.5867 258.878 57.14C259.585 56.6867 260.448 56.46 261.468 56.46C262.895 56.46 264.035 56.9267 264.888 57.86C265.741 58.7933 266.168 60.13 266.168 61.87C266.168 62.9233 265.988 63.85 265.628 64.65C265.275 65.45 264.748 66.0767 264.048 66.53C263.355 66.9767 262.495 67.2 261.468 67.2ZM261.468 65.74C262.395 65.74 263.105 65.3933 263.598 64.7C264.091 64 264.338 63.0433 264.338 61.83C264.338 61.09 264.238 60.4267 264.038 59.84C263.845 59.2467 263.538 58.7767 263.118 58.43C262.698 58.0833 262.148 57.91 261.468 57.91C260.528 57.91 259.808 58.2567 259.308 58.95C258.808 59.6367 258.558 60.5967 258.558 61.83C258.558 62.5567 258.658 63.2167 258.858 63.81C259.058 64.4033 259.371 64.8733 259.798 65.22C260.225 65.5667 260.781 65.74 261.468 65.74ZM268.589 67V56.66H270.379V58.16C270.632 57.7267 271.029 57.3433 271.569 57.01C272.109 56.6767 272.792 56.51 273.619 56.51C274.272 56.51 274.872 56.64 275.419 56.9C275.972 57.16 276.412 57.5667 276.739 58.12C277.072 58.6667 277.239 59.3733 277.239 60.24V67H275.389V60.42C275.389 59.6133 275.175 59.0167 274.749 58.63C274.329 58.2367 273.782 58.04 273.109 58.04C272.642 58.04 272.205 58.1167 271.799 58.27C271.392 58.4167 271.062 58.6433 270.809 58.95C270.555 59.25 270.429 59.63 270.429 60.09V67H268.589Z" fill="white"/>
</g>
<g filter="url(#filter2_d_454_14)">
<path d="M25 53C25 48.5817 28.5817 45 33 45H49C53.4183 45 57 48.5817 57 53V68C57 72.4183 53.4183 76 49 76H33C28.5817 76 25 72.4183 25 68V53Z" fill="#0D6211"/>
<path d="M41 52.75C36.7188 52.75 33.25 56.2188 33.25 60.5C33.25 64.7812 36.7188 68.25 41 68.25C45.2812 68.25 48.75 64.7812 48.75 60.5C48.75 56.2188 45.2812 52.75 41 52.75ZM43.5 58C44.0312 58 44.5 58.4688 44.5 59C44.5 59.5625 44.0312 60 43.5 60C42.9375 60 42.5 59.5625 42.5 59C42.5 58.4688 42.9375 58 43.5 58ZM38.5 58C39.0312 58 39.5 58.4688 39.5 59C39.5 59.5625 39.0312 60 38.5 60C37.9375 60 37.5 59.5625 37.5 59C37.5 58.4688 37.9375 58 38.5 58ZM44.5625 63.3438C43.6875 64.4062 42.375 65 41 65C39.5938 65 38.2812 64.4062 37.4062 63.3438C36.9688 62.8125 37.75 62.1875 38.1562 62.6875C38.875 63.5312 39.9062 64 41 64C42.0938 64 43.0938 63.5312 43.8125 62.6875C44.2188 62.1875 45 62.8125 44.5625 63.3438Z" fill="white"/>
</g>
<g style="mix-blend-mode:color">
<rect width="320" height="120" fill="#808080"/>
</g>
<g style="mix-blend-mode:color">
<rect width="320" height="120" fill="#00284D"/>
</g>
<defs>
<filter id="filter0_d_454_14" x="65.5" y="41" width="98" height="40" filterUnits="userSpaceOnUse" color-interpolation-filters="sRGB">
<feFlood flood-opacity="0" result="BackgroundImageFix"/>
<feColorMatrix in="SourceAlpha" type="matrix" values="0 0 0 0 0 0 0 0 0 0 0 0 0 0 0 0 0 0 127 0" result="hardAlpha"/>
<feOffset dy="2"/>
<feColorMatrix type="matrix" values="0 0 0 0 0.423529 0 0 0 0 0.458824 0 0 0 0 0.490196 0 0 0 0.62 0"/>
<feBlend mode="normal" in2="BackgroundImageFix" result="effect1_dropShadow_454_14"/>
<feBlend mode="normal" in="SourceGraphic" in2="effect1_dropShadow_454_14" result="shape"/>
</filter>
<filter id="filter1_d_454_14" x="171" y="36" width="124" height="50" filterUnits="userSpaceOnUse" color-interpolation-filters="sRGB">
<feFlood flood-opacity="0" result="BackgroundImageFix"/>
<feColorMatrix in="SourceAlpha" type="matrix" values="0 0 0 0 0 0 0 0 0 0 0 0 0 0 0 0 0 0 127 0" result="hardAlpha"/>
<feOffset dy="2"/>
<feColorMatrix type="matrix" values="0 0 0 0 0.423529 0 0 0 0 0.458824 0 0 0 0 0.490196 0 0 0 0.62 0"/>
<feBlend mode="normal" in2="BackgroundImageFix" result="effect1_dropShadow_454_14"/>
<feBlend mode="normal" in="SourceGraphic" in2="effect1_dropShadow_454_14" result="shape"/>
</filter>
<filter id="filter2_d_454_14" x="25" y="45" width="32" height="33" filterUnits="userSpaceOnUse" color-interpolation-filters="sRGB">
<feFlood flood-opacity="0" result="BackgroundImageFix"/>
<feColorMatrix in="SourceAlpha" type="matrix" values="0 0 0 0 0 0 0 0 0 0 0 0 0 0 0 0 0 0 127 0" result="hardAlpha"/>
<feOffset dy="2"/>
<feColorMatrix type="matrix" values="0 0 0 0 0.423529 0 0 0 0 0.458824 0 0 0 0 0.490196 0 0 0 0.62 0"/>
<feBlend mode="normal" in2="BackgroundImageFix" result="effect1_dropShadow_454_14"/>
<feBlend mode="normal" in="SourceGraphic" in2="effect1_dropShadow_454_14" result="shape"/>
</filter>
</defs>
</svg>
