<svg width="320" height="120" viewBox="0 0 320 120" fill="none" xmlns="http://www.w3.org/2000/svg">
<rect width="320" height="120" fill="#C0CEDB"/>
<g style="mix-blend-mode:color">
<rect width="320" height="120" fill="#808080"/>
</g>
<g style="mix-blend-mode:color">
<rect width="320" height="120" fill="#00284D"/>
</g>
<g filter="url(#filter0_d_489_68)">
<path d="M122 49C122 44.5817 125.582 41 130 41H190C194.418 41 198 44.5817 198 49V71C198 75.4183 194.418 79 190 79H130C125.582 79 122 75.4183 122 71V49Z" fill="#00284D"/>
<path d="M139.667 66.16C138.942 66.16 138.251 66.04 137.595 65.8C136.944 65.5547 136.395 65.192 135.947 64.712C135.504 64.232 135.235 63.6373 135.139 62.928H136.691C136.835 63.584 137.184 64.0827 137.739 64.424C138.294 64.76 138.934 64.928 139.659 64.928C140.475 64.928 141.152 64.76 141.691 64.424C142.235 64.0827 142.507 63.6187 142.507 63.032C142.507 62.5093 142.331 62.0933 141.979 61.784C141.632 61.4693 141.139 61.2373 140.499 61.088L138.227 60.56C137.374 60.3733 136.704 60.04 136.219 59.56C135.739 59.08 135.494 58.4453 135.483 57.656C135.483 56.9893 135.659 56.4027 136.011 55.896C136.363 55.3893 136.851 54.9947 137.475 54.712C138.099 54.4293 138.811 54.288 139.611 54.288C140.534 54.288 141.31 54.4453 141.939 54.76C142.568 55.0747 143.043 55.488 143.363 56C143.683 56.512 143.846 57.0587 143.851 57.64H142.323C142.275 57.1173 142.12 56.704 141.859 56.4C141.603 56.0907 141.278 55.872 140.883 55.744C140.494 55.6107 140.072 55.544 139.619 55.544C139.182 55.544 138.766 55.6187 138.371 55.768C137.982 55.9173 137.662 56.1387 137.411 56.432C137.166 56.72 137.043 57.08 137.043 57.512C137.043 57.9333 137.184 58.2747 137.467 58.536C137.75 58.792 138.27 59.0133 139.027 59.2L141.227 59.728C141.995 59.8933 142.579 60.1573 142.979 60.52C143.379 60.8773 143.651 61.2773 143.795 61.72C143.944 62.1627 144.019 62.5947 144.019 63.016C144.019 63.5973 143.846 64.1253 143.499 64.6C143.158 65.0747 142.662 65.4533 142.011 65.736C141.36 66.0187 140.579 66.16 139.667 66.16ZM147.848 54.44V55.976H146.336V54.44H147.848ZM147.816 57.728V66H146.384V57.728H147.816ZM153.876 68.736C152.58 68.736 151.569 68.5467 150.844 68.168C150.119 67.7947 149.756 67.2587 149.756 66.56C149.756 66.2613 149.825 66.008 149.964 65.8C150.103 65.5867 150.268 65.4107 150.46 65.272C150.652 65.1333 150.831 65.024 150.996 64.944C151.161 64.8587 151.268 64.7973 151.316 64.76C151.225 64.7067 151.111 64.64 150.972 64.56C150.839 64.48 150.721 64.3733 150.62 64.24C150.519 64.1067 150.468 63.9333 150.468 63.72C150.468 63.4587 150.588 63.2213 150.828 63.008C151.073 62.7893 151.439 62.624 151.924 62.512C151.439 62.272 151.06 61.9493 150.788 61.544C150.516 61.1333 150.38 60.6907 150.38 60.216C150.38 59.4107 150.7 58.7733 151.34 58.304C151.98 57.8347 152.86 57.6 153.98 57.6C154.519 57.6 154.972 57.664 155.34 57.792C155.708 57.9147 156.049 58.0907 156.364 58.32C156.481 58.272 156.679 58.1893 156.956 58.072C157.233 57.9547 157.516 57.8373 157.804 57.72C158.097 57.5973 158.321 57.5067 158.476 57.448L158.468 58.816L157.02 59.088C157.201 59.4613 157.292 59.8373 157.292 60.216C157.292 60.9467 157.004 61.5653 156.428 62.072C155.857 62.5787 154.996 62.832 153.844 62.832C153.78 62.832 153.697 62.832 153.596 62.832C153.5 62.8267 153.417 62.8213 153.348 62.816C152.777 62.832 152.385 62.896 152.172 63.008C151.964 63.12 151.86 63.24 151.86 63.368C151.86 63.5227 151.98 63.6293 152.22 63.688C152.46 63.7467 152.868 63.7973 153.444 63.84C153.652 63.8507 153.908 63.8667 154.212 63.888C154.516 63.904 154.857 63.9227 155.236 63.944C156.105 63.9973 156.775 64.2187 157.244 64.608C157.713 64.9973 157.948 65.5227 157.948 66.184C157.948 66.936 157.612 67.5493 156.94 68.024C156.268 68.4987 155.247 68.736 153.876 68.736ZM153.884 61.88C154.481 61.88 154.961 61.7413 155.324 61.464C155.692 61.1867 155.876 60.776 155.876 60.232C155.876 59.6773 155.692 59.2533 155.324 58.96C154.961 58.6613 154.481 58.512 153.884 58.512C153.281 58.512 152.793 58.6613 152.42 58.96C152.052 59.2533 151.868 59.6773 151.868 60.232C151.868 60.7547 152.044 61.16 152.396 61.448C152.748 61.736 153.244 61.88 153.884 61.88ZM154.14 67.784C154.903 67.784 155.487 67.6693 155.892 67.44C156.297 67.2107 156.5 66.864 156.5 66.4C156.5 66.0747 156.375 65.8053 156.124 65.592C155.879 65.3787 155.503 65.256 154.996 65.224L152.676 65.072C152.468 65.0613 152.252 65.1147 152.028 65.232C151.804 65.344 151.612 65.5013 151.452 65.704C151.297 65.9067 151.22 66.136 151.22 66.392C151.22 66.8347 151.457 67.176 151.932 67.416C152.407 67.6613 153.143 67.784 154.14 67.784ZM160.326 66V57.728H161.758V58.928C161.96 58.5813 162.278 58.2747 162.71 58.008C163.142 57.7413 163.688 57.608 164.35 57.608C164.872 57.608 165.352 57.712 165.79 57.92C166.232 58.128 166.584 58.4533 166.846 58.896C167.112 59.3333 167.246 59.8987 167.246 60.592V66H165.766V60.736C165.766 60.0907 165.595 59.6133 165.254 59.304C164.918 58.9893 164.48 58.832 163.942 58.832C163.568 58.832 163.219 58.8933 162.894 59.016C162.568 59.1333 162.304 59.3147 162.102 59.56C161.899 59.8 161.798 60.104 161.798 60.472V66H160.326ZM173.551 54.432H175.031V66H173.551V54.432ZM177.779 66V57.728H179.211V58.928C179.413 58.5813 179.731 58.2747 180.163 58.008C180.595 57.7413 181.141 57.608 181.803 57.608C182.325 57.608 182.805 57.712 183.243 57.92C183.685 58.128 184.037 58.4533 184.299 58.896C184.565 59.3333 184.699 59.8987 184.699 60.592V66H183.219V60.736C183.219 60.0907 183.048 59.6133 182.707 59.304C182.371 58.9893 181.933 58.832 181.395 58.832C181.021 58.832 180.672 58.8933 180.347 59.016C180.021 59.1333 179.757 59.3147 179.555 59.56C179.352 59.8 179.251 60.104 179.251 60.472V66H177.779Z" fill="white"/>
</g>
<defs>
<filter id="filter0_d_489_68" x="122" y="41" width="76" height="40" filterUnits="userSpaceOnUse" color-interpolation-filters="sRGB">
<feFlood flood-opacity="0" result="BackgroundImageFix"/>
<feColorMatrix in="SourceAlpha" type="matrix" values="0 0 0 0 0 0 0 0 0 0 0 0 0 0 0 0 0 0 127 0" result="hardAlpha"/>
<feOffset dy="2"/>
<feColorMatrix type="matrix" values="0 0 0 0 0.423529 0 0 0 0 0.458824 0 0 0 0 0.490196 0 0 0 0.62 0"/>
<feBlend mode="normal" in2="BackgroundImageFix" result="effect1_dropShadow_489_68"/>
<feBlend mode="normal" in="SourceGraphic" in2="effect1_dropShadow_489_68" result="shape"/>
</filter>
</defs>
</svg>
