<svg width="320" height="120" viewBox="0 0 320 120" fill="none" xmlns="http://www.w3.org/2000/svg">
<rect width="320" height="120" fill="#C0CEDB"/>
<path d="M140 49C140 44.5817 143.582 41 148 41H170C174.418 41 178 44.5817 178 49V71C178 75.4183 174.418 79 170 79H148C143.582 79 140 75.4183 140 71V49Z" fill="#00284D"/>
<path d="M165 58.5H160.5V54C160.5 53.4688 160.031 53 159.5 53H158.5C157.938 53 157.5 53.4688 157.5 54V58.5H153C152.438 58.5 152 58.9688 152 59.5V60.5C152 61.0625 152.438 61.5 153 61.5H157.5V66C157.5 66.5625 157.938 67 158.5 67H159.5C160.031 67 160.5 66.5625 160.5 66V61.5H165C165.531 61.5 166 61.0625 166 60.5V59.5C166 58.9688 165.531 58.5 165 58.5Z" fill="white"/>
<rect x="22.5" y="26.5" width="275" height="67" rx="7.5" stroke="#00284D" stroke-dasharray="8 8"/>
<g style="mix-blend-mode:color">
<rect width="320" height="120" fill="#808080"/>
</g>
<g style="mix-blend-mode:color">
<rect width="320" height="120" fill="#00284D"/>
</g>
</svg>
