<svg width="320" height="120" viewBox="0 0 320 120" fill="none" xmlns="http://www.w3.org/2000/svg">
<rect width="320" height="120" fill="#C0CEDB"/>
<g filter="url(#filter0_i)">
<rect x="20" y="33" width="90.9418" height="23.385" rx="1.29917" fill="white"/>
<rect x="20.5" y="33.5" width="89.9418" height="22.385" rx="0.799168" stroke="#6C757D"/>
</g>
<g filter="url(#filter1_i)">
<rect x="20" y="81" width="90.9418" height="23.385" rx="1.29917" fill="white"/>
<rect x="20.5" y="81.5" width="89.9418" height="22.385" rx="0.799168" stroke="#6C757D"/>
</g>
<g filter="url(#filter2_i)">
<rect x="116.84" y="33" width="90.9418" height="23.385" rx="1.29917" fill="white"/>
<rect x="117.34" y="33.5" width="89.9418" height="22.385" rx="0.799168" stroke="#6C757D"/>
</g>
<path d="M27.41 25.1C26.9567 25.1 26.525 25.025 26.115 24.875C25.7083 24.7217 25.365 24.495 25.085 24.195C24.8083 23.895 24.64 23.5233 24.58 23.08H25.55C25.64 23.49 25.8583 23.8017 26.205 24.015C26.5517 24.225 26.9517 24.33 27.405 24.33C27.915 24.33 28.3383 24.225 28.675 24.015C29.015 23.8017 29.185 23.5117 29.185 23.145C29.185 22.8183 29.075 22.5583 28.855 22.365C28.6383 22.1683 28.33 22.0233 27.93 21.93L26.51 21.6C25.9767 21.4833 25.5583 21.275 25.255 20.975C24.955 20.675 24.8017 20.2783 24.795 19.785C24.795 19.3683 24.905 19.0017 25.125 18.685C25.345 18.3683 25.65 18.1217 26.04 17.945C26.43 17.7683 26.875 17.68 27.375 17.68C27.9517 17.68 28.4367 17.7783 28.83 17.975C29.2233 18.1717 29.52 18.43 29.72 18.75C29.92 19.07 30.0217 19.4117 30.025 19.775H29.07C29.04 19.4483 28.9433 19.19 28.78 19C28.62 18.8067 28.4167 18.67 28.17 18.59C27.9267 18.5067 27.6633 18.465 27.38 18.465C27.1067 18.465 26.8467 18.5117 26.6 18.605C26.3567 18.6983 26.1567 18.8367 26 19.02C25.8467 19.2 25.77 19.425 25.77 19.695C25.77 19.9583 25.8583 20.1717 26.035 20.335C26.2117 20.495 26.5367 20.6333 27.01 20.75L28.385 21.08C28.865 21.1833 29.23 21.3483 29.48 21.575C29.73 21.7983 29.9 22.0483 29.99 22.325C30.0833 22.6017 30.13 22.8717 30.13 23.135C30.13 23.4983 30.0217 23.8283 29.805 24.125C29.5917 24.4217 29.2817 24.6583 28.875 24.835C28.4683 25.0117 27.98 25.1 27.41 25.1ZM32.1633 22.63C32.1633 22.9567 32.2166 23.2533 32.3233 23.52C32.4333 23.7833 32.5983 23.9933 32.8183 24.15C33.0416 24.3067 33.3199 24.385 33.6533 24.385C33.9833 24.385 34.2666 24.3083 34.5033 24.155C34.7433 24.0017 34.8966 23.78 34.9633 23.49H35.8383C35.7749 23.84 35.6349 24.135 35.4183 24.375C35.2016 24.615 34.9399 24.7967 34.6333 24.92C34.3266 25.04 34.0066 25.1 33.6733 25.1C33.1899 25.1 32.7649 24.995 32.3983 24.785C32.0316 24.575 31.7449 24.2733 31.5383 23.88C31.3316 23.4867 31.2283 23.015 31.2283 22.465C31.2283 21.9217 31.3216 21.445 31.5083 21.035C31.6949 20.625 31.9649 20.305 32.3183 20.075C32.6749 19.845 33.1033 19.73 33.6033 19.73C34.3333 19.73 34.8933 19.9617 35.2833 20.425C35.6733 20.885 35.8683 21.5067 35.8683 22.29V22.63H32.1633ZM32.1683 22.005H34.9783C34.9783 21.5617 34.8649 21.1883 34.6383 20.885C34.4116 20.5817 34.0649 20.43 33.5983 20.43C33.2749 20.43 33.0066 20.5083 32.7933 20.665C32.5799 20.8183 32.4216 21.0167 32.3183 21.26C32.2149 21.5 32.1649 21.7483 32.1683 22.005ZM39.198 19.73C39.7547 19.73 40.223 19.8883 40.603 20.205C40.983 20.5183 41.208 20.9383 41.278 21.465H40.458C40.4114 21.195 40.2797 20.9633 40.063 20.77C39.8464 20.5733 39.5597 20.475 39.203 20.475C38.763 20.475 38.403 20.635 38.123 20.955C37.8464 21.275 37.708 21.765 37.708 22.425C37.708 23.0217 37.8347 23.5 38.088 23.86C38.3447 24.2167 38.7214 24.395 39.218 24.395C39.5714 24.395 39.8564 24.295 40.073 24.095C40.2897 23.895 40.4197 23.665 40.463 23.405H41.268C41.2014 23.925 40.9764 24.3383 40.593 24.645C40.213 24.9483 39.748 25.1 39.198 25.1C38.7314 25.1 38.3197 24.9983 37.963 24.795C37.6064 24.5917 37.3264 24.2917 37.123 23.895C36.9197 23.4983 36.818 23.0117 36.818 22.435C36.818 21.8983 36.9097 21.4267 37.093 21.02C37.2797 20.6133 37.5497 20.2967 37.903 20.07C38.2597 19.8433 38.6914 19.73 39.198 19.73ZM44.9893 20.505H43.8243V23.72C43.8243 23.9967 43.8676 24.1667 43.9543 24.23C44.0443 24.29 44.211 24.32 44.4543 24.32H45.0193V24.94C44.9526 24.9633 44.856 24.9833 44.7293 25C44.6026 25.0167 44.4443 25.025 44.2543 25.025C43.7176 25.025 43.356 24.9167 43.1693 24.7C42.986 24.4833 42.8943 24.1667 42.8943 23.75V20.505H42.0543V19.83H42.9193L43.1443 18.325H43.8243V19.825H44.9893V20.505ZM47.3377 17.775V18.735H46.3927V17.775H47.3377ZM47.3177 19.83V25H46.4227V19.83H47.3177ZM50.9997 25.1C50.283 25.1 49.708 24.8717 49.2747 24.415C48.8414 23.9583 48.6247 23.2983 48.6247 22.435C48.6247 21.895 48.7164 21.4217 48.8997 21.015C49.083 20.6083 49.3514 20.2933 49.7047 20.07C50.058 19.8433 50.4897 19.73 50.9997 19.73C51.713 19.73 52.283 19.9633 52.7097 20.43C53.1364 20.8967 53.3497 21.565 53.3497 22.435C53.3497 22.9617 53.2597 23.425 53.0797 23.825C52.903 24.225 52.6397 24.5383 52.2897 24.765C51.943 24.9883 51.513 25.1 50.9997 25.1ZM50.9997 24.37C51.463 24.37 51.818 24.1967 52.0647 23.85C52.3114 23.5 52.4347 23.0217 52.4347 22.415C52.4347 22.045 52.3847 21.7133 52.2847 21.42C52.188 21.1233 52.0347 20.8883 51.8247 20.715C51.6147 20.5417 51.3397 20.455 50.9997 20.455C50.5297 20.455 50.1697 20.6283 49.9197 20.975C49.6697 21.3183 49.5447 21.7983 49.5447 22.415C49.5447 22.7783 49.5947 23.1083 49.6947 23.405C49.7947 23.7017 49.9514 23.9367 50.1647 24.11C50.378 24.2833 50.6564 24.37 50.9997 24.37ZM54.5599 25V19.83H55.4549V20.58C55.5816 20.3633 55.7799 20.1717 56.0499 20.005C56.3199 19.8383 56.6616 19.755 57.0749 19.755C57.4016 19.755 57.7016 19.82 57.9749 19.95C58.2516 20.08 58.4716 20.2833 58.6349 20.56C58.8016 20.8333 58.8849 21.1867 58.8849 21.62V25H57.9599V21.71C57.9599 21.3067 57.8533 21.0083 57.6399 20.815C57.4299 20.6183 57.1566 20.52 56.8199 20.52C56.5866 20.52 56.3683 20.5583 56.1649 20.635C55.9616 20.7083 55.7966 20.8217 55.6699 20.975C55.5433 21.125 55.4799 21.315 55.4799 21.545V25H54.5599Z" fill="#00284D"/>
<path d="M27.41 73.1C26.9567 73.1 26.525 73.025 26.115 72.875C25.7083 72.7217 25.365 72.495 25.085 72.195C24.8083 71.895 24.64 71.5233 24.58 71.08H25.55C25.64 71.49 25.8583 71.8017 26.205 72.015C26.5517 72.225 26.9517 72.33 27.405 72.33C27.915 72.33 28.3383 72.225 28.675 72.015C29.015 71.8017 29.185 71.5117 29.185 71.145C29.185 70.8183 29.075 70.5583 28.855 70.365C28.6383 70.1683 28.33 70.0233 27.93 69.93L26.51 69.6C25.9767 69.4833 25.5583 69.275 25.255 68.975C24.955 68.675 24.8017 68.2783 24.795 67.785C24.795 67.3683 24.905 67.0017 25.125 66.685C25.345 66.3683 25.65 66.1217 26.04 65.945C26.43 65.7683 26.875 65.68 27.375 65.68C27.9517 65.68 28.4367 65.7783 28.83 65.975C29.2233 66.1717 29.52 66.43 29.72 66.75C29.92 67.07 30.0217 67.4117 30.025 67.775H29.07C29.04 67.4483 28.9433 67.19 28.78 67C28.62 66.8067 28.4167 66.67 28.17 66.59C27.9267 66.5067 27.6633 66.465 27.38 66.465C27.1067 66.465 26.8467 66.5117 26.6 66.605C26.3567 66.6983 26.1567 66.8367 26 67.02C25.8467 67.2 25.77 67.425 25.77 67.695C25.77 67.9583 25.8583 68.1717 26.035 68.335C26.2117 68.495 26.5367 68.6333 27.01 68.75L28.385 69.08C28.865 69.1833 29.23 69.3483 29.48 69.575C29.73 69.7983 29.9 70.0483 29.99 70.325C30.0833 70.6017 30.13 70.8717 30.13 71.135C30.13 71.4983 30.0217 71.8283 29.805 72.125C29.5917 72.4217 29.2817 72.6583 28.875 72.835C28.4683 73.0117 27.98 73.1 27.41 73.1ZM32.1633 70.63C32.1633 70.9567 32.2166 71.2533 32.3233 71.52C32.4333 71.7833 32.5983 71.9933 32.8183 72.15C33.0416 72.3067 33.3199 72.385 33.6533 72.385C33.9833 72.385 34.2666 72.3083 34.5033 72.155C34.7433 72.0017 34.8966 71.78 34.9633 71.49H35.8383C35.7749 71.84 35.6349 72.135 35.4183 72.375C35.2016 72.615 34.9399 72.7967 34.6333 72.92C34.3266 73.04 34.0066 73.1 33.6733 73.1C33.1899 73.1 32.7649 72.995 32.3983 72.785C32.0316 72.575 31.7449 72.2733 31.5383 71.88C31.3316 71.4867 31.2283 71.015 31.2283 70.465C31.2283 69.9217 31.3216 69.445 31.5083 69.035C31.6949 68.625 31.9649 68.305 32.3183 68.075C32.6749 67.845 33.1033 67.73 33.6033 67.73C34.3333 67.73 34.8933 67.9617 35.2833 68.425C35.6733 68.885 35.8683 69.5067 35.8683 70.29V70.63H32.1633ZM32.1683 70.005H34.9783C34.9783 69.5617 34.8649 69.1883 34.6383 68.885C34.4116 68.5817 34.0649 68.43 33.5983 68.43C33.2749 68.43 33.0066 68.5083 32.7933 68.665C32.5799 68.8183 32.4216 69.0167 32.3183 69.26C32.2149 69.5 32.1649 69.7483 32.1683 70.005ZM39.198 67.73C39.7547 67.73 40.223 67.8883 40.603 68.205C40.983 68.5183 41.208 68.9383 41.278 69.465H40.458C40.4114 69.195 40.2797 68.9633 40.063 68.77C39.8464 68.5733 39.5597 68.475 39.203 68.475C38.763 68.475 38.403 68.635 38.123 68.955C37.8464 69.275 37.708 69.765 37.708 70.425C37.708 71.0217 37.8347 71.5 38.088 71.86C38.3447 72.2167 38.7214 72.395 39.218 72.395C39.5714 72.395 39.8564 72.295 40.073 72.095C40.2897 71.895 40.4197 71.665 40.463 71.405H41.268C41.2014 71.925 40.9764 72.3383 40.593 72.645C40.213 72.9483 39.748 73.1 39.198 73.1C38.7314 73.1 38.3197 72.9983 37.963 72.795C37.6064 72.5917 37.3264 72.2917 37.123 71.895C36.9197 71.4983 36.818 71.0117 36.818 70.435C36.818 69.8983 36.9097 69.4267 37.093 69.02C37.2797 68.6133 37.5497 68.2967 37.903 68.07C38.2597 67.8433 38.6914 67.73 39.198 67.73ZM44.9893 68.505H43.8243V71.72C43.8243 71.9967 43.8676 72.1667 43.9543 72.23C44.0443 72.29 44.211 72.32 44.4543 72.32H45.0193V72.94C44.9526 72.9633 44.856 72.9833 44.7293 73C44.6026 73.0167 44.4443 73.025 44.2543 73.025C43.7176 73.025 43.356 72.9167 43.1693 72.7C42.986 72.4833 42.8943 72.1667 42.8943 71.75V68.505H42.0543V67.83H42.9193L43.1443 66.325H43.8243V67.825H44.9893V68.505ZM47.3377 65.775V66.735H46.3927V65.775H47.3377ZM47.3177 67.83V73H46.4227V67.83H47.3177ZM50.9997 73.1C50.283 73.1 49.708 72.8717 49.2747 72.415C48.8414 71.9583 48.6247 71.2983 48.6247 70.435C48.6247 69.895 48.7164 69.4217 48.8997 69.015C49.083 68.6083 49.3514 68.2933 49.7047 68.07C50.058 67.8433 50.4897 67.73 50.9997 67.73C51.713 67.73 52.283 67.9633 52.7097 68.43C53.1364 68.8967 53.3497 69.565 53.3497 70.435C53.3497 70.9617 53.2597 71.425 53.0797 71.825C52.903 72.225 52.6397 72.5383 52.2897 72.765C51.943 72.9883 51.513 73.1 50.9997 73.1ZM50.9997 72.37C51.463 72.37 51.818 72.1967 52.0647 71.85C52.3114 71.5 52.4347 71.0217 52.4347 70.415C52.4347 70.045 52.3847 69.7133 52.2847 69.42C52.188 69.1233 52.0347 68.8883 51.8247 68.715C51.6147 68.5417 51.3397 68.455 50.9997 68.455C50.5297 68.455 50.1697 68.6283 49.9197 68.975C49.6697 69.3183 49.5447 69.7983 49.5447 70.415C49.5447 70.7783 49.5947 71.1083 49.6947 71.405C49.7947 71.7017 49.9514 71.9367 50.1647 72.11C50.378 72.2833 50.6564 72.37 50.9997 72.37ZM54.5599 73V67.83H55.4549V68.58C55.5816 68.3633 55.7799 68.1717 56.0499 68.005C56.3199 67.8383 56.6616 67.755 57.0749 67.755C57.4016 67.755 57.7016 67.82 57.9749 67.95C58.2516 68.08 58.4716 68.2833 58.6349 68.56C58.8016 68.8333 58.8849 69.1867 58.8849 69.62V73H57.9599V69.71C57.9599 69.3067 57.8533 69.0083 57.6399 68.815C57.4299 68.6183 57.1566 68.52 56.8199 68.52C56.5866 68.52 56.3683 68.5583 56.1649 68.635C55.9616 68.7083 55.7966 68.8217 55.6699 68.975C55.5433 69.125 55.4799 69.315 55.4799 69.545V73H54.5599Z" fill="#00284D"/>
<g style="mix-blend-mode:color">
<rect width="320" height="120" fill="#808080"/>
</g>
<g style="mix-blend-mode:color">
<rect width="320" height="120" fill="#00284D"/>
</g>
<defs>
<filter id="filter0_i" x="20" y="33" width="90.9418" height="24.3594" filterUnits="userSpaceOnUse" color-interpolation-filters="sRGB">
<feFlood flood-opacity="0" result="BackgroundImageFix"/>
<feBlend mode="normal" in="SourceGraphic" in2="BackgroundImageFix" result="shape"/>
<feColorMatrix in="SourceAlpha" type="matrix" values="0 0 0 0 0 0 0 0 0 0 0 0 0 0 0 0 0 0 127 0" result="hardAlpha"/>
<feOffset dy="0.974376"/>
<feGaussianBlur stdDeviation="0.649584"/>
<feComposite in2="hardAlpha" operator="arithmetic" k2="-1" k3="1"/>
<feColorMatrix type="matrix" values="0 0 0 0 0 0 0 0 0 0 0 0 0 0 0 0 0 0 0.1 0"/>
<feBlend mode="normal" in2="shape" result="effect1_innerShadow"/>
</filter>
<filter id="filter1_i" x="20" y="81" width="90.9418" height="24.3594" filterUnits="userSpaceOnUse" color-interpolation-filters="sRGB">
<feFlood flood-opacity="0" result="BackgroundImageFix"/>
<feBlend mode="normal" in="SourceGraphic" in2="BackgroundImageFix" result="shape"/>
<feColorMatrix in="SourceAlpha" type="matrix" values="0 0 0 0 0 0 0 0 0 0 0 0 0 0 0 0 0 0 127 0" result="hardAlpha"/>
<feOffset dy="0.974376"/>
<feGaussianBlur stdDeviation="0.649584"/>
<feComposite in2="hardAlpha" operator="arithmetic" k2="-1" k3="1"/>
<feColorMatrix type="matrix" values="0 0 0 0 0 0 0 0 0 0 0 0 0 0 0 0 0 0 0.1 0"/>
<feBlend mode="normal" in2="shape" result="effect1_innerShadow"/>
</filter>
<filter id="filter2_i" x="116.84" y="33" width="90.9418" height="24.3594" filterUnits="userSpaceOnUse" color-interpolation-filters="sRGB">
<feFlood flood-opacity="0" result="BackgroundImageFix"/>
<feBlend mode="normal" in="SourceGraphic" in2="BackgroundImageFix" result="shape"/>
<feColorMatrix in="SourceAlpha" type="matrix" values="0 0 0 0 0 0 0 0 0 0 0 0 0 0 0 0 0 0 127 0" result="hardAlpha"/>
<feOffset dy="0.974376"/>
<feGaussianBlur stdDeviation="0.649584"/>
<feComposite in2="hardAlpha" operator="arithmetic" k2="-1" k3="1"/>
<feColorMatrix type="matrix" values="0 0 0 0 0 0 0 0 0 0 0 0 0 0 0 0 0 0 0.1 0"/>
<feBlend mode="normal" in2="shape" result="effect1_innerShadow"/>
</filter>
</defs>
</svg>
