<svg width="320" height="120" viewBox="0 0 320 120" fill="none" xmlns="http://www.w3.org/2000/svg">
<rect width="320" height="120" fill="#C0CEDB"/>
<path d="M24 59.5C24 50.3873 31.3873 43 40.5 43H92.5C101.613 43 109 50.3873 109 59.5C109 68.6127 101.613 76 92.5 76H40.5C31.3873 76 24 68.6127 24 59.5Z" fill="#FFC107"/>
<path d="M42.5 49.8125C37.1484 49.8125 32.8125 54.1484 32.8125 59.5C32.8125 64.8516 37.1484 69.1875 42.5 69.1875C47.8516 69.1875 52.1875 64.8516 52.1875 59.5C52.1875 54.1484 47.8516 49.8125 42.5 49.8125ZM47.2266 62.0781C47.4219 62.2344 47.4219 62.5469 47.2266 62.7422L45.7031 64.2656C45.5078 64.4609 45.1953 64.4609 45.0391 64.2656L42.5 61.6875L39.9219 64.2656C39.7656 64.4609 39.4531 64.4609 39.2578 64.2656L37.7344 62.7031C37.5391 62.5469 37.5391 62.2344 37.7344 62.0391L40.3125 59.5L37.7344 56.9609C37.5391 56.8047 37.5391 56.4922 37.7344 56.2969L39.2969 54.7734C39.4531 54.5781 39.7656 54.5781 39.9609 54.7734L42.5 57.3125L45.0391 54.7734C45.1953 54.5781 45.5078 54.5781 45.7031 54.7734L47.2266 56.2969C47.4219 56.4922 47.4219 56.8047 47.2266 56.9609L44.6875 59.5L47.2266 62.0781Z" fill="black"/>
<path d="M60.528 53.432V65H62.008V53.432H60.528ZM68.8851 57.808V56.72H67.0211V54.32H65.9331L65.5731 56.728H64.1891V57.808H65.5331V63C65.5331 64.328 65.9891 65.04 67.7091 65.04C68.3091 65.04 68.7251 64.984 68.9331 64.904V63.912H68.0291C67.2531 63.912 67.0211 63.832 67.0211 62.952V57.808H68.8851ZM71.7651 61.208H77.6931V60.664C77.6931 58.152 76.3971 56.568 74.0691 56.568C71.6611 56.568 70.2691 58.336 70.2691 60.944C70.2691 63.584 71.8611 65.16 74.1731 65.16C75.7811 65.16 77.3331 64.272 77.6371 62.584H76.2451C76.0371 63.52 75.2051 64.016 74.1491 64.016C72.5411 64.016 71.7651 62.776 71.7651 61.208ZM71.7731 60.208C71.7651 58.976 72.5011 57.688 74.0611 57.688C75.5571 57.688 76.2691 58.784 76.2691 60.208H71.7731ZM79.7396 65H81.2116V59.472C81.2116 58.312 82.2276 57.824 83.0756 57.824C83.8436 57.824 84.7556 58.32 84.7556 59.304V65H86.2276V59.472C86.2276 58.216 87.3076 57.824 88.0836 57.824C88.9556 57.824 89.7796 58.24 89.7796 59.736V65H91.2676V59.592C91.2676 57.144 89.7396 56.568 88.5716 56.568C87.4756 56.568 86.5636 57.112 86.0516 57.92C85.6196 57.04 84.5716 56.568 83.6676 56.568C82.3796 56.568 81.6196 57.2 81.1636 57.928V56.728H79.7396V65Z" fill="black"/>
<path d="M117 59.5C117 50.3873 124.387 43 133.5 43H185.5C194.613 43 202 50.3873 202 59.5C202 68.6127 194.613 76 185.5 76H133.5C124.387 76 117 68.6127 117 59.5Z" fill="#00284D"/>
<path d="M135.5 49.8125C130.148 49.8125 125.812 54.1484 125.812 59.5C125.812 64.8516 130.148 69.1875 135.5 69.1875C140.852 69.1875 145.188 64.8516 145.188 59.5C145.188 54.1484 140.852 49.8125 135.5 49.8125ZM140.227 62.0781C140.422 62.2344 140.422 62.5469 140.227 62.7422L138.703 64.2656C138.508 64.4609 138.195 64.4609 138.039 64.2656L135.5 61.6875L132.922 64.2656C132.766 64.4609 132.453 64.4609 132.258 64.2656L130.734 62.7031C130.539 62.5469 130.539 62.2344 130.734 62.0391L133.312 59.5L130.734 56.9609C130.539 56.8047 130.539 56.4922 130.734 56.2969L132.297 54.7734C132.453 54.5781 132.766 54.5781 132.961 54.7734L135.5 57.3125L138.039 54.7734C138.195 54.5781 138.508 54.5781 138.703 54.7734L140.227 56.2969C140.422 56.4922 140.422 56.8047 140.227 56.9609L137.688 59.5L140.227 62.0781Z" fill="white"/>
<path d="M153.528 53.432V65H155.008V53.432H153.528ZM161.885 57.808V56.72H160.021V54.32H158.933L158.573 56.728H157.189V57.808H158.533V63C158.533 64.328 158.989 65.04 160.709 65.04C161.309 65.04 161.725 64.984 161.933 64.904V63.912H161.029C160.253 63.912 160.021 63.832 160.021 62.952V57.808H161.885ZM164.765 61.208H170.693V60.664C170.693 58.152 169.397 56.568 167.069 56.568C164.661 56.568 163.269 58.336 163.269 60.944C163.269 63.584 164.861 65.16 167.173 65.16C168.781 65.16 170.333 64.272 170.637 62.584H169.245C169.037 63.52 168.205 64.016 167.149 64.016C165.541 64.016 164.765 62.776 164.765 61.208ZM164.773 60.208C164.765 58.976 165.501 57.688 167.061 57.688C168.557 57.688 169.269 58.784 169.269 60.208H164.773ZM172.74 65H174.212V59.472C174.212 58.312 175.228 57.824 176.076 57.824C176.844 57.824 177.756 58.32 177.756 59.304V65H179.228V59.472C179.228 58.216 180.308 57.824 181.084 57.824C181.956 57.824 182.78 58.24 182.78 59.736V65H184.268V59.592C184.268 57.144 182.74 56.568 181.572 56.568C180.476 56.568 179.564 57.112 179.052 57.92C178.62 57.04 177.572 56.568 176.668 56.568C175.38 56.568 174.62 57.2 174.164 57.928V56.728H172.74V65Z" fill="white"/>
<path d="M210 59.5C210 50.3873 217.387 43 226.5 43H278.5C287.613 43 295 50.3873 295 59.5V59.5C295 68.6127 287.613 76 278.5 76H226.5C217.387 76 210 68.6127 210 59.5V59.5Z" fill="#D80004"/>
<path d="M228.5 49.8125C223.148 49.8125 218.812 54.1484 218.812 59.5C218.812 64.8516 223.148 69.1875 228.5 69.1875C233.852 69.1875 238.188 64.8516 238.188 59.5C238.188 54.1484 233.852 49.8125 228.5 49.8125ZM233.227 62.0781C233.422 62.2344 233.422 62.5469 233.227 62.7422L231.703 64.2656C231.508 64.4609 231.195 64.4609 231.039 64.2656L228.5 61.6875L225.922 64.2656C225.766 64.4609 225.453 64.4609 225.258 64.2656L223.734 62.7031C223.539 62.5469 223.539 62.2344 223.734 62.0391L226.312 59.5L223.734 56.9609C223.539 56.8047 223.539 56.4922 223.734 56.2969L225.297 54.7734C225.453 54.5781 225.766 54.5781 225.961 54.7734L228.5 57.3125L231.039 54.7734C231.195 54.5781 231.508 54.5781 231.703 54.7734L233.227 56.2969C233.422 56.4922 233.422 56.8047 233.227 56.9609L230.688 59.5L233.227 62.0781Z" fill="white"/>
<path d="M246.528 53.432V65H248.008V53.432H246.528ZM254.885 57.808V56.72H253.021V54.32H251.933L251.573 56.728H250.189V57.808H251.533V63C251.533 64.328 251.989 65.04 253.709 65.04C254.309 65.04 254.725 64.984 254.933 64.904V63.912H254.029C253.253 63.912 253.021 63.832 253.021 62.952V57.808H254.885ZM257.765 61.208H263.693V60.664C263.693 58.152 262.397 56.568 260.069 56.568C257.661 56.568 256.269 58.336 256.269 60.944C256.269 63.584 257.861 65.16 260.173 65.16C261.781 65.16 263.333 64.272 263.637 62.584H262.245C262.037 63.52 261.205 64.016 260.149 64.016C258.541 64.016 257.765 62.776 257.765 61.208ZM257.773 60.208C257.765 58.976 258.501 57.688 260.061 57.688C261.557 57.688 262.269 58.784 262.269 60.208H257.773ZM265.74 65H267.212V59.472C267.212 58.312 268.228 57.824 269.076 57.824C269.844 57.824 270.756 58.32 270.756 59.304V65H272.228V59.472C272.228 58.216 273.308 57.824 274.084 57.824C274.956 57.824 275.78 58.24 275.78 59.736V65H277.268V59.592C277.268 57.144 275.74 56.568 274.572 56.568C273.476 56.568 272.564 57.112 272.052 57.92C271.62 57.04 270.572 56.568 269.668 56.568C268.38 56.568 267.62 57.2 267.164 57.928V56.728H265.74V65Z" fill="white"/>
<g style="mix-blend-mode:color">
<rect width="320" height="120" fill="#808080"/>
</g>
<g style="mix-blend-mode:color">
<rect width="320" height="120" fill="#00284D"/>
</g>
</svg>
