<svg width="320" height="120" viewBox="0 0 320 120" fill="none" xmlns="http://www.w3.org/2000/svg">
<rect width="320" height="120" fill="#C0CEDB"/>
<circle cx="160" cy="60" r="44" fill="#495057"/>
<path fill-rule="evenodd" clip-rule="evenodd" d="M153.947 34.2307C153.947 37.5486 156.636 40.239 159.953 40.239C163.271 40.239 165.962 37.5486 165.962 34.2306C165.962 30.9117 163.271 28.2222 159.953 28.2222C156.636 28.2222 153.947 30.9117 153.947 34.2307ZM150.649 45.4737L143.952 60.8311C143.55 61.7533 143.64 62.8159 144.192 63.6569C144.742 64.4986 145.68 65.0052 146.686 65.0052C147.873 65.0052 148.945 64.3027 149.42 63.2153L151.945 57.4256V87.7101C151.945 89.5063 153.401 90.9629 155.197 90.9629C156.994 90.9629 158.451 89.5063 158.451 87.7091V67.283H161.456V87.7091C161.456 89.5063 162.912 90.9629 164.71 90.9629C166.508 90.9629 167.964 89.5063 167.964 87.7091V57.4277L170.488 63.2141C170.962 64.3015 172.035 65.004 173.222 65.004C174.228 65.004 175.165 64.4974 175.716 63.6556C176.267 62.814 176.357 61.7522 175.956 60.83L169.26 45.4747C168.586 43.9282 167.169 42.9006 165.542 42.6232C165.287 42.555 154.62 42.556 154.373 42.621C152.744 42.8976 151.323 43.9252 150.649 45.4737Z" fill="white"/>
<g style="mix-blend-mode:color">
<rect width="320" height="120" fill="#808080"/>
</g>
<g style="mix-blend-mode:color">
<rect width="320" height="120" fill="#00284D"/>
</g>
</svg>
