<svg width="320" height="120" viewBox="0 0 320 120" fill="none" xmlns="http://www.w3.org/2000/svg">
<rect width="320" height="120" fill="#C0CEDB"/>
<g filter="url(#filter0_d)">
<path d="M16 28.4743C16 26.5555 17.5555 25 19.4743 25H300.526C302.445 25 304 26.5555 304 28.4743V90.6457C304 92.5645 302.445 94.12 300.526 94.12H19.4743C17.5555 94.12 16 92.5645 16 90.6457V28.4743Z" fill="white"/>
<path d="M32.8155 76.135H29.1362V79.4286H28.2607V72.1534H29.1362V75.3637H32.8155V72.1534H33.691V79.4286H32.8155V76.135ZM37.5686 79.5537C37.2004 79.5537 36.8668 79.4877 36.5681 79.3556C36.2762 79.2236 36.0226 79.036 35.8072 78.7928C35.5987 78.5426 35.4354 78.2473 35.3173 77.9069C35.2061 77.5594 35.1505 77.1703 35.1505 76.7395C35.1505 76.3156 35.2061 75.93 35.3173 75.5826C35.4354 75.2351 35.5987 74.9398 35.8072 74.6966C36.0226 74.4465 36.2762 74.2554 36.5681 74.1234C36.8668 73.9913 37.2004 73.9253 37.5686 73.9253C37.93 73.9253 38.2531 73.9913 38.538 74.1234C38.8229 74.2554 39.0661 74.4395 39.2676 74.6758C39.4691 74.9051 39.6219 75.1795 39.7262 75.4992C39.8374 75.8188 39.8929 76.1697 39.8929 76.5519V76.9479H36.0261V77.1981C36.0261 77.4274 36.0608 77.6428 36.1303 77.8443C36.2067 78.0389 36.311 78.2091 36.443 78.355C36.5819 78.501 36.7487 78.6156 36.9433 78.699C37.1448 78.7824 37.3706 78.8241 37.6208 78.8241C37.9612 78.8241 38.2566 78.7442 38.5067 78.5843C38.7638 78.4245 38.9618 78.1952 39.1008 77.8964L39.6949 78.3238C39.5212 78.692 39.2502 78.9908 38.8819 79.2201C38.5137 79.4425 38.0759 79.5537 37.5686 79.5537ZM37.5686 74.6237C37.3393 74.6237 37.1309 74.6653 36.9433 74.7487C36.7557 74.8252 36.5924 74.9363 36.4534 75.0823C36.3214 75.2282 36.2171 75.4019 36.1407 75.6034C36.0643 75.798 36.0261 76.0134 36.0261 76.2496V76.3226H38.9966V76.2079C38.9966 75.7285 38.8646 75.3463 38.6005 75.0614C38.3434 74.7696 37.9995 74.6237 37.5686 74.6237ZM42.1529 79.4286C41.8611 79.4286 41.6387 79.3487 41.4858 79.1889C41.3399 79.0221 41.267 78.8136 41.267 78.5635V71.7157H42.1008V78.699H42.8929V79.4286H42.1529ZM44.9418 79.4286C44.65 79.4286 44.4276 79.3487 44.2748 79.1889C44.1289 79.0221 44.0559 78.8136 44.0559 78.5635V71.7157H44.8897V78.699H45.6819V79.4286H44.9418ZM48.9282 79.5537C48.5668 79.5537 48.2368 79.4877 47.938 79.3556C47.6392 79.2236 47.3821 79.036 47.1667 78.7928C46.9583 78.5426 46.795 78.2473 46.6768 77.9069C46.5587 77.5594 46.4996 77.1703 46.4996 76.7395C46.4996 76.3156 46.5587 75.93 46.6768 75.5826C46.795 75.2351 46.9583 74.9398 47.1667 74.6966C47.3821 74.4465 47.6392 74.2554 47.938 74.1234C48.2368 73.9913 48.5668 73.9253 48.9282 73.9253C49.2895 73.9253 49.6161 73.9913 49.9079 74.1234C50.2067 74.2554 50.4638 74.4465 50.6792 74.6966C50.8946 74.9398 51.0614 75.2351 51.1795 75.5826C51.2976 75.93 51.3567 76.3156 51.3567 76.7395C51.3567 77.1703 51.2976 77.5594 51.1795 77.9069C51.0614 78.2473 50.8946 78.5426 50.6792 78.7928C50.4638 79.036 50.2067 79.2236 49.9079 79.3556C49.6161 79.4877 49.2895 79.5537 48.9282 79.5537ZM48.9282 78.8136C49.3798 78.8136 49.7481 78.6747 50.033 78.3967C50.3179 78.1188 50.4603 77.6949 50.4603 77.1251V76.3538C50.4603 75.7841 50.3179 75.3602 50.033 75.0823C49.7481 74.8043 49.3798 74.6653 48.9282 74.6653C48.4765 74.6653 48.1082 74.8043 47.8234 75.0823C47.5385 75.3602 47.396 75.7841 47.396 76.3538V77.1251C47.396 77.6949 47.5385 78.1188 47.8234 78.3967C48.1082 78.6747 48.4765 78.8136 48.9282 78.8136ZM53.056 78.2091C53.2784 78.2091 53.4382 78.2682 53.5355 78.3863C53.6397 78.4975 53.6918 78.6434 53.6918 78.8241V78.97C53.6918 79.2549 53.6084 79.5676 53.4417 79.908C53.2749 80.2555 53.0421 80.5577 52.7433 80.8148H52.045C52.2535 80.5925 52.4202 80.3805 52.5453 80.179C52.6773 79.9845 52.7711 79.7656 52.8267 79.5224C52.6878 79.4877 52.5835 79.4216 52.514 79.3244C52.4515 79.2271 52.4202 79.109 52.4202 78.97V78.8241C52.4202 78.6434 52.4689 78.4975 52.5662 78.3863C52.6704 78.2682 52.8337 78.2091 53.056 78.2091ZM57.2647 74.0504H58.0777L58.6509 76.3747L59.2242 78.7303H59.245L59.9017 76.3747L60.5791 74.0504H61.3192L62.0175 76.3747L62.6846 78.7303H62.7054L63.2578 76.3747L63.8415 74.0504H64.6232L63.1953 79.4286H62.1634L61.413 76.8437L60.9439 75.2073H60.9231L60.4645 76.8437L59.714 79.4286H58.703L57.2647 74.0504ZM67.8094 79.5537C67.4481 79.5537 67.118 79.4877 66.8193 79.3556C66.5205 79.2236 66.2634 79.036 66.048 78.7928C65.8395 78.5426 65.6762 78.2473 65.5581 77.9069C65.44 77.5594 65.3809 77.1703 65.3809 76.7395C65.3809 76.3156 65.44 75.93 65.5581 75.5826C65.6762 75.2351 65.8395 74.9398 66.048 74.6966C66.2634 74.4465 66.5205 74.2554 66.8193 74.1234C67.118 73.9913 67.4481 73.9253 67.8094 73.9253C68.1708 73.9253 68.4973 73.9913 68.7892 74.1234C69.088 74.2554 69.3451 74.4465 69.5605 74.6966C69.7759 74.9398 69.9426 75.2351 70.0608 75.5826C70.1789 75.93 70.238 76.3156 70.238 76.7395C70.238 77.1703 70.1789 77.5594 70.0608 77.9069C69.9426 78.2473 69.7759 78.5426 69.5605 78.7928C69.3451 79.036 69.088 79.2236 68.7892 79.3556C68.4973 79.4877 68.1708 79.5537 67.8094 79.5537ZM67.8094 78.8136C68.2611 78.8136 68.6294 78.6747 68.9142 78.3967C69.1991 78.1188 69.3416 77.6949 69.3416 77.1251V76.3538C69.3416 75.7841 69.1991 75.3602 68.9142 75.0823C68.6294 74.8043 68.2611 74.6653 67.8094 74.6653C67.3578 74.6653 66.9895 74.8043 66.7046 75.0823C66.4197 75.3602 66.2773 75.7841 66.2773 76.3538V77.1251C66.2773 77.6949 66.4197 78.1188 66.7046 78.3967C66.9895 78.6747 67.3578 78.8136 67.8094 78.8136ZM71.6093 79.4286V74.0504H72.4431V75.0406H72.4952C72.5925 74.7835 72.7662 74.5542 73.0164 74.3527C73.2665 74.1511 73.6105 74.0504 74.0482 74.0504H74.3713V74.8842H73.8815C73.4298 74.8842 73.0754 74.9711 72.8183 75.1448C72.5682 75.3116 72.4431 75.5235 72.4431 75.7806V79.4286H71.6093ZM76.3224 79.4286C76.0305 79.4286 75.8082 79.3487 75.6553 79.1889C75.5094 79.0221 75.4364 78.8136 75.4364 78.5635V71.7157H76.2703V78.699H77.0624V79.4286H76.3224ZM81.7158 78.5531H81.6741C81.3475 79.2201 80.8229 79.5537 80.1003 79.5537C79.7667 79.5537 79.4645 79.4877 79.1935 79.3556C78.9225 79.2236 78.6897 79.036 78.4951 78.7928C78.3075 78.5496 78.1616 78.2543 78.0574 77.9069C77.9601 77.5594 77.9115 77.1703 77.9115 76.7395C77.9115 76.3087 77.9601 75.9196 78.0574 75.5721C78.1616 75.2247 78.3075 74.9294 78.4951 74.6862C78.6897 74.443 78.9225 74.2554 79.1935 74.1234C79.4645 73.9913 79.7667 73.9253 80.1003 73.9253C80.4755 73.9253 80.7951 74.0087 81.0592 74.1755C81.3302 74.3353 81.5351 74.5854 81.6741 74.9259H81.7158V71.7157H82.5496V79.4286H81.7158V78.5531ZM80.3296 78.8032C80.5172 78.8032 80.6944 78.7789 80.8611 78.7303C81.0348 78.6816 81.1842 78.6121 81.3093 78.5218C81.4344 78.4245 81.5317 78.3099 81.6011 78.1778C81.6776 78.0389 81.7158 77.8825 81.7158 77.7088V75.7076C81.7158 75.5617 81.6776 75.4262 81.6011 75.3011C81.5317 75.1691 81.4344 75.0579 81.3093 74.9676C81.1842 74.8773 81.0348 74.8078 80.8611 74.7591C80.6944 74.7036 80.5172 74.6758 80.3296 74.6758C79.8571 74.6758 79.4853 74.8252 79.2143 75.1239C78.9433 75.4158 78.8078 75.8014 78.8078 76.2809V77.1981C78.8078 77.6775 78.9433 78.0667 79.2143 78.3655C79.4853 78.6573 79.8571 78.8032 80.3296 78.8032ZM84.708 77.5004L84.4578 74.2693V72.1534H85.375V74.2693L85.1249 77.5004H84.708ZM84.9164 79.5537C84.6941 79.5537 84.5308 79.4981 84.4266 79.3869C84.3293 79.2757 84.2806 79.1298 84.2806 78.9491V78.8136C84.2806 78.633 84.3293 78.4871 84.4266 78.3759C84.5308 78.2647 84.6941 78.2091 84.9164 78.2091C85.1388 78.2091 85.2986 78.2647 85.3959 78.3759C85.5001 78.4871 85.5522 78.633 85.5522 78.8136V78.9491C85.5522 79.1298 85.5001 79.2757 85.3959 79.3869C85.2986 79.4981 85.1388 79.5537 84.9164 79.5537ZM92.2803 72.9247V79.4286H91.4047V72.9247H89.0909V72.1534H94.5941V72.9247H92.2803ZM95.7121 71.7157H96.546V74.9259H96.5877C96.7197 74.6202 96.9038 74.377 97.1401 74.1963C97.3833 74.0157 97.7064 73.9253 98.1094 73.9253C98.6653 73.9253 99.103 74.106 99.4227 74.4673C99.7493 74.8217 99.9126 75.3255 99.9126 75.9786V79.4286H99.0787V76.1245C99.0787 75.1587 98.6722 74.6758 97.8593 74.6758C97.6925 74.6758 97.5292 74.6966 97.3694 74.7383C97.2165 74.78 97.0775 74.8425 96.9525 74.9259C96.8274 75.0093 96.7266 75.117 96.6502 75.249C96.5807 75.3741 96.546 75.5235 96.546 75.6972V79.4286H95.7121V71.7157ZM102.053 72.7892C101.872 72.7892 101.74 72.7475 101.657 72.6642C101.58 72.5738 101.542 72.4592 101.542 72.3202V72.1847C101.542 72.0457 101.58 71.9346 101.657 71.8512C101.74 71.7608 101.872 71.7157 102.053 71.7157C102.234 71.7157 102.362 71.7608 102.439 71.8512C102.522 71.9346 102.564 72.0457 102.564 72.1847V72.3202C102.564 72.4592 102.522 72.5738 102.439 72.6642C102.362 72.7475 102.234 72.7892 102.053 72.7892ZM101.636 74.0504H102.47V79.4286H101.636V74.0504ZM105.857 79.5537C105.357 79.5537 104.937 79.4599 104.596 79.2722C104.263 79.0777 103.974 78.8206 103.731 78.501L104.325 78.0215C104.534 78.2855 104.766 78.4905 105.024 78.6365C105.281 78.7754 105.579 78.8449 105.92 78.8449C106.274 78.8449 106.549 78.7685 106.743 78.6156C106.945 78.4627 107.046 78.2473 107.046 77.9694C107.046 77.7609 106.976 77.5837 106.837 77.4378C106.705 77.285 106.462 77.1807 106.107 77.1251L105.68 77.0626C105.43 77.0279 105.201 76.9757 104.992 76.9063C104.784 76.8298 104.6 76.7325 104.44 76.6144C104.287 76.4893 104.165 76.3365 104.075 76.1558C103.992 75.9751 103.95 75.7597 103.95 75.5096C103.95 75.2455 103.999 75.0162 104.096 74.8217C104.193 74.6202 104.325 74.4534 104.492 74.3214C104.666 74.1894 104.871 74.0921 105.107 74.0295C105.343 73.9601 105.597 73.9253 105.868 73.9253C106.306 73.9253 106.67 74.0018 106.962 74.1546C107.261 74.3075 107.522 74.5194 107.744 74.7904L107.191 75.2907C107.073 75.1239 106.9 74.9746 106.67 74.8425C106.441 74.7036 106.153 74.6341 105.805 74.6341C105.458 74.6341 105.194 74.7105 105.013 74.8634C104.839 75.0093 104.753 75.2108 104.753 75.4679C104.753 75.7319 104.839 75.923 105.013 76.0412C105.194 76.1593 105.451 76.2461 105.784 76.3017L106.201 76.3643C106.799 76.4546 107.223 76.6283 107.473 76.8854C107.723 77.1356 107.848 77.4656 107.848 77.8756C107.848 78.3967 107.671 78.8067 107.317 79.1055C106.962 79.4043 106.476 79.5537 105.857 79.5537ZM112.201 72.7892C112.02 72.7892 111.888 72.7475 111.805 72.6642C111.729 72.5738 111.69 72.4592 111.69 72.3202V72.1847C111.69 72.0457 111.729 71.9346 111.805 71.8512C111.888 71.7608 112.02 71.7157 112.201 71.7157C112.382 71.7157 112.51 71.7608 112.587 71.8512C112.67 71.9346 112.712 72.0457 112.712 72.1847V72.3202C112.712 72.4592 112.67 72.5738 112.587 72.6642C112.51 72.7475 112.382 72.7892 112.201 72.7892ZM111.784 74.0504H112.618V79.4286H111.784V74.0504ZM116.005 79.5537C115.505 79.5537 115.085 79.4599 114.744 79.2722C114.411 79.0777 114.122 78.8206 113.879 78.501L114.473 78.0215C114.682 78.2855 114.914 78.4905 115.172 78.6365C115.429 78.7754 115.727 78.8449 116.068 78.8449C116.422 78.8449 116.697 78.7685 116.891 78.6156C117.093 78.4627 117.194 78.2473 117.194 77.9694C117.194 77.7609 117.124 77.5837 116.985 77.4378C116.853 77.285 116.61 77.1807 116.256 77.1251L115.828 77.0626C115.578 77.0279 115.349 76.9757 115.14 76.9063C114.932 76.8298 114.748 76.7325 114.588 76.6144C114.435 76.4893 114.313 76.3365 114.223 76.1558C114.14 75.9751 114.098 75.7597 114.098 75.5096C114.098 75.2455 114.147 75.0162 114.244 74.8217C114.341 74.6202 114.473 74.4534 114.64 74.3214C114.814 74.1894 115.019 74.0921 115.255 74.0295C115.491 73.9601 115.745 73.9253 116.016 73.9253C116.454 73.9253 116.818 74.0018 117.11 74.1546C117.409 74.3075 117.67 74.5194 117.892 74.7904L117.339 75.2907C117.221 75.1239 117.048 74.9746 116.818 74.8425C116.589 74.7036 116.301 74.6341 115.953 74.6341C115.606 74.6341 115.342 74.7105 115.161 74.8634C114.987 75.0093 114.901 75.2108 114.901 75.4679C114.901 75.7319 114.987 75.923 115.161 76.0412C115.342 76.1593 115.599 76.2461 115.932 76.3017L116.349 76.3643C116.947 76.4546 117.371 76.6283 117.621 76.8854C117.871 77.1356 117.996 77.4656 117.996 77.8756C117.996 78.3967 117.819 78.8067 117.465 79.1055C117.11 79.4043 116.624 79.5537 116.005 79.5537ZM125.841 79.4286C125.528 79.4286 125.302 79.3452 125.163 79.1784C125.031 79.0117 124.948 78.8032 124.913 78.5531H124.861C124.743 78.8866 124.548 79.1367 124.277 79.3035C124.006 79.4703 123.683 79.5537 123.308 79.5537C122.738 79.5537 122.293 79.4077 121.974 79.1159C121.661 78.8241 121.505 78.428 121.505 77.9277C121.505 77.4205 121.689 77.0313 122.057 76.7603C122.432 76.4893 123.013 76.3538 123.798 76.3538H124.861V75.8223C124.861 75.4401 124.757 75.1483 124.548 74.9468C124.34 74.7453 124.02 74.6445 123.589 74.6445C123.263 74.6445 122.988 74.7175 122.766 74.8634C122.551 75.0093 122.37 75.2039 122.224 75.4471L121.724 74.978C121.87 74.6862 122.102 74.4395 122.422 74.238C122.742 74.0295 123.145 73.9253 123.631 73.9253C124.284 73.9253 124.791 74.0851 125.153 74.4048C125.514 74.7244 125.695 75.1691 125.695 75.7389V78.699H126.31V79.4286H125.841ZM123.443 78.8449C123.652 78.8449 123.843 78.8206 124.017 78.7719C124.19 78.7233 124.34 78.6538 124.465 78.5635C124.59 78.4732 124.687 78.3689 124.757 78.2508C124.826 78.1327 124.861 78.0041 124.861 77.8652V76.9792H123.756C123.277 76.9792 122.926 77.0487 122.703 77.1877C122.488 77.3266 122.38 77.5282 122.38 77.7922V78.0111C122.38 78.2751 122.474 78.4801 122.662 78.626C122.856 78.7719 123.117 78.8449 123.443 78.8449ZM131.151 79.4286C130.859 79.4286 130.637 79.3487 130.484 79.1889C130.338 79.0221 130.265 78.8067 130.265 78.5426V74.78H129.379V74.0504H129.88C130.06 74.0504 130.182 74.0157 130.244 73.9462C130.314 73.8697 130.349 73.7412 130.349 73.5605V72.5599H131.099V74.0504H132.277V74.78H131.099V78.699H132.194V79.4286H131.151ZM135.609 79.5537C135.248 79.5537 134.918 79.4877 134.619 79.3556C134.32 79.2236 134.063 79.036 133.847 78.7928C133.639 78.5426 133.476 78.2473 133.358 77.9069C133.239 77.5594 133.18 77.1703 133.18 76.7395C133.18 76.3156 133.239 75.93 133.358 75.5826C133.476 75.2351 133.639 74.9398 133.847 74.6966C134.063 74.4465 134.32 74.2554 134.619 74.1234C134.918 73.9913 135.248 73.9253 135.609 73.9253C135.97 73.9253 136.297 73.9913 136.589 74.1234C136.887 74.2554 137.145 74.4465 137.36 74.6966C137.575 74.9398 137.742 75.2351 137.86 75.5826C137.978 75.93 138.037 76.3156 138.037 76.7395C138.037 77.1703 137.978 77.5594 137.86 77.9069C137.742 78.2473 137.575 78.5426 137.36 78.7928C137.145 79.036 136.887 79.2236 136.589 79.3556C136.297 79.4877 135.97 79.5537 135.609 79.5537ZM135.609 78.8136C136.061 78.8136 136.429 78.6747 136.714 78.3967C136.999 78.1188 137.141 77.6949 137.141 77.1251V76.3538C137.141 75.7841 136.999 75.3602 136.714 75.0823C136.429 74.8043 136.061 74.6653 135.609 74.6653C135.157 74.6653 134.789 74.8043 134.504 75.0823C134.219 75.3602 134.077 75.7841 134.077 76.3538V77.1251C134.077 77.6949 134.219 78.1188 134.504 78.3967C134.789 78.6747 135.157 78.8136 135.609 78.8136ZM143.317 79.4286C143.005 79.4286 142.779 79.3452 142.64 79.1784C142.508 79.0117 142.424 78.8032 142.39 78.5531H142.338C142.219 78.8866 142.025 79.1367 141.754 79.3035C141.483 79.4703 141.16 79.5537 140.785 79.5537C140.215 79.5537 139.77 79.4077 139.45 79.1159C139.138 78.8241 138.981 78.428 138.981 77.9277C138.981 77.4205 139.166 77.0313 139.534 76.7603C139.909 76.4893 140.489 76.3538 141.274 76.3538H142.338V75.8223C142.338 75.4401 142.233 75.1483 142.025 74.9468C141.816 74.7453 141.497 74.6445 141.066 74.6445C140.739 74.6445 140.465 74.7175 140.243 74.8634C140.027 75.0093 139.847 75.2039 139.701 75.4471L139.2 74.978C139.346 74.6862 139.579 74.4395 139.899 74.238C140.218 74.0295 140.621 73.9253 141.108 73.9253C141.761 73.9253 142.268 74.0851 142.629 74.4048C142.991 74.7244 143.171 75.1691 143.171 75.7389V78.699H143.786V79.4286H143.317ZM140.92 78.8449C141.129 78.8449 141.32 78.8206 141.493 78.7719C141.667 78.7233 141.816 78.6538 141.942 78.5635C142.067 78.4732 142.164 78.3689 142.233 78.2508C142.303 78.1327 142.338 78.0041 142.338 77.8652V76.9792H141.233C140.753 76.9792 140.402 77.0487 140.18 77.1877C139.965 77.3266 139.857 77.5282 139.857 77.7922V78.0111C139.857 78.2751 139.951 78.4801 140.138 78.626C140.333 78.7719 140.593 78.8449 140.92 78.8449ZM146.592 79.5537C146.092 79.5537 145.671 79.4599 145.331 79.2722C144.997 79.0777 144.709 78.8206 144.466 78.501L145.06 78.0215C145.268 78.2855 145.501 78.4905 145.758 78.6365C146.015 78.7754 146.314 78.8449 146.655 78.8449C147.009 78.8449 147.283 78.7685 147.478 78.6156C147.679 78.4627 147.78 78.2473 147.78 77.9694C147.78 77.7609 147.711 77.5837 147.572 77.4378C147.44 77.285 147.197 77.1807 146.842 77.1251L146.415 77.0626C146.165 77.0279 145.935 76.9757 145.727 76.9063C145.518 76.8298 145.334 76.7325 145.174 76.6144C145.022 76.4893 144.9 76.3365 144.81 76.1558C144.726 75.9751 144.685 75.7597 144.685 75.5096C144.685 75.2455 144.733 75.0162 144.831 74.8217C144.928 74.6202 145.06 74.4534 145.227 74.3214C145.4 74.1894 145.605 74.0921 145.842 74.0295C146.078 73.9601 146.331 73.9253 146.602 73.9253C147.04 73.9253 147.405 74.0018 147.697 74.1546C147.996 74.3075 148.256 74.5194 148.479 74.7904L147.926 75.2907C147.808 75.1239 147.634 74.9746 147.405 74.8425C147.176 74.7036 146.887 74.6341 146.54 74.6341C146.192 74.6341 145.928 74.7105 145.748 74.8634C145.574 75.0093 145.487 75.2108 145.487 75.4679C145.487 75.7319 145.574 75.923 145.748 76.0412C145.928 76.1593 146.185 76.2461 146.519 76.3017L146.936 76.3643C147.534 76.4546 147.957 76.6283 148.208 76.8854C148.458 77.1356 148.583 77.4656 148.583 77.8756C148.583 78.3967 148.406 78.8067 148.051 79.1055C147.697 79.4043 147.21 79.5537 146.592 79.5537ZM151.172 79.4286C150.881 79.4286 150.658 79.3487 150.505 79.1889C150.36 79.0221 150.287 78.8067 150.287 78.5426V74.78H149.401V74.0504H149.901C150.082 74.0504 150.203 74.0157 150.266 73.9462C150.335 73.8697 150.37 73.7412 150.37 73.5605V72.5599H151.12V74.0504H152.298V74.78H151.12V78.699H152.215V79.4286H151.172ZM156.102 79.4286V74.0504H156.935V74.9259H156.977C157.04 74.7869 157.109 74.6584 157.186 74.5403C157.269 74.4152 157.366 74.3075 157.477 74.2172C157.596 74.1268 157.731 74.0573 157.884 74.0087C158.037 73.9531 158.217 73.9253 158.426 73.9253C158.78 73.9253 159.107 74.0122 159.406 74.1859C159.704 74.3527 159.927 74.6306 160.073 75.0197H160.094C160.191 74.7279 160.372 74.4743 160.636 74.2589C160.907 74.0365 161.271 73.9253 161.73 73.9253C162.279 73.9253 162.706 74.106 163.012 74.4673C163.325 74.8217 163.481 75.3255 163.481 75.9786V79.4286H162.647V76.1245C162.647 75.6451 162.553 75.2838 162.366 75.0406C162.178 74.7974 161.879 74.6758 161.469 74.6758C161.303 74.6758 161.143 74.6966 160.99 74.7383C160.844 74.78 160.712 74.8425 160.594 74.9259C160.476 75.0093 160.382 75.117 160.312 75.249C160.243 75.3741 160.208 75.5235 160.208 75.6972V79.4286H159.374V76.1245C159.374 75.6451 159.281 75.2838 159.093 75.0406C158.905 74.7974 158.614 74.6758 158.217 74.6758C158.051 74.6758 157.891 74.6966 157.738 74.7383C157.585 74.78 157.45 74.8425 157.332 74.9259C157.213 75.0093 157.116 75.117 157.04 75.249C156.97 75.3741 156.935 75.5235 156.935 75.6972V79.4286H156.102ZM167.223 79.5537C166.855 79.5537 166.521 79.4877 166.223 79.3556C165.931 79.2236 165.677 79.036 165.462 78.7928C165.253 78.5426 165.09 78.2473 164.972 77.9069C164.861 77.5594 164.805 77.1703 164.805 76.7395C164.805 76.3156 164.861 75.93 164.972 75.5826C165.09 75.2351 165.253 74.9398 165.462 74.6966C165.677 74.4465 165.931 74.2554 166.223 74.1234C166.521 73.9913 166.855 73.9253 167.223 73.9253C167.585 73.9253 167.908 73.9913 168.193 74.1234C168.478 74.2554 168.721 74.4395 168.922 74.6758C169.124 74.9051 169.277 75.1795 169.381 75.4992C169.492 75.8188 169.548 76.1697 169.548 76.5519V76.9479H165.681V77.1981C165.681 77.4274 165.715 77.6428 165.785 77.8443C165.861 78.0389 165.966 78.2091 166.098 78.355C166.237 78.501 166.403 78.6156 166.598 78.699C166.799 78.7824 167.025 78.8241 167.275 78.8241C167.616 78.8241 167.911 78.7442 168.161 78.5843C168.418 78.4245 168.616 78.1952 168.755 77.8964L169.35 78.3238C169.176 78.692 168.905 78.9908 168.537 79.2201C168.168 79.4425 167.731 79.5537 167.223 79.5537ZM167.223 74.6237C166.994 74.6237 166.786 74.6653 166.598 74.7487C166.41 74.8252 166.247 74.9363 166.108 75.0823C165.976 75.2282 165.872 75.4019 165.795 75.6034C165.719 75.798 165.681 76.0134 165.681 76.2496V76.3226H168.651V76.2079C168.651 75.7285 168.519 75.3463 168.255 75.0614C167.998 74.7696 167.654 74.6237 167.223 74.6237ZM172.537 79.5537C172.037 79.5537 171.616 79.4599 171.276 79.2722C170.942 79.0777 170.654 78.8206 170.411 78.501L171.005 78.0215C171.213 78.2855 171.446 78.4905 171.703 78.6365C171.96 78.7754 172.259 78.8449 172.6 78.8449C172.954 78.8449 173.229 78.7685 173.423 78.6156C173.625 78.4627 173.725 78.2473 173.725 77.9694C173.725 77.7609 173.656 77.5837 173.517 77.4378C173.385 77.285 173.142 77.1807 172.787 77.1251L172.36 77.0626C172.11 77.0279 171.881 76.9757 171.672 76.9063C171.464 76.8298 171.279 76.7325 171.12 76.6144C170.967 76.4893 170.845 76.3365 170.755 76.1558C170.671 75.9751 170.63 75.7597 170.63 75.5096C170.63 75.2455 170.678 75.0162 170.776 74.8217C170.873 74.6202 171.005 74.4534 171.172 74.3214C171.345 74.1894 171.55 74.0921 171.787 74.0295C172.023 73.9601 172.277 73.9253 172.548 73.9253C172.985 73.9253 173.35 74.0018 173.642 74.1546C173.941 74.3075 174.201 74.5194 174.424 74.7904L173.871 75.2907C173.753 75.1239 173.579 74.9746 173.35 74.8425C173.121 74.7036 172.832 74.6341 172.485 74.6341C172.138 74.6341 171.874 74.7105 171.693 74.8634C171.519 75.0093 171.432 75.2108 171.432 75.4679C171.432 75.7319 171.519 75.923 171.693 76.0412C171.874 76.1593 172.131 76.2461 172.464 76.3017L172.881 76.3643C173.479 76.4546 173.903 76.6283 174.153 76.8854C174.403 77.1356 174.528 77.4656 174.528 77.8756C174.528 78.3967 174.351 78.8067 173.996 79.1055C173.642 79.4043 173.156 79.5537 172.537 79.5537ZM177.555 79.5537C177.055 79.5537 176.635 79.4599 176.294 79.2722C175.96 79.0777 175.672 78.8206 175.429 78.501L176.023 78.0215C176.231 78.2855 176.464 78.4905 176.721 78.6365C176.978 78.7754 177.277 78.8449 177.618 78.8449C177.972 78.8449 178.247 78.7685 178.441 78.6156C178.643 78.4627 178.743 78.2473 178.743 77.9694C178.743 77.7609 178.674 77.5837 178.535 77.4378C178.403 77.285 178.16 77.1807 177.805 77.1251L177.378 77.0626C177.128 77.0279 176.899 76.9757 176.69 76.9063C176.482 76.8298 176.298 76.7325 176.138 76.6144C175.985 76.4893 175.863 76.3365 175.773 76.1558C175.69 75.9751 175.648 75.7597 175.648 75.5096C175.648 75.2455 175.696 75.0162 175.794 74.8217C175.891 74.6202 176.023 74.4534 176.19 74.3214C176.364 74.1894 176.568 74.0921 176.805 74.0295C177.041 73.9601 177.295 73.9253 177.566 73.9253C178.003 73.9253 178.368 74.0018 178.66 74.1546C178.959 74.3075 179.219 74.5194 179.442 74.7904L178.889 75.2907C178.771 75.1239 178.597 74.9746 178.368 74.8425C178.139 74.7036 177.851 74.6341 177.503 74.6341C177.156 74.6341 176.892 74.7105 176.711 74.8634C176.537 75.0093 176.45 75.2108 176.45 75.4679C176.45 75.7319 176.537 75.923 176.711 76.0412C176.892 76.1593 177.149 76.2461 177.482 76.3017L177.899 76.3643C178.497 76.4546 178.921 76.6283 179.171 76.8854C179.421 77.1356 179.546 77.4656 179.546 77.8756C179.546 78.3967 179.369 78.8067 179.014 79.1055C178.66 79.4043 178.174 79.5537 177.555 79.5537ZM184.927 79.4286C184.615 79.4286 184.389 79.3452 184.25 79.1784C184.118 79.0117 184.034 78.8032 184 78.5531H183.948C183.829 78.8866 183.635 79.1367 183.364 79.3035C183.093 79.4703 182.77 79.5537 182.395 79.5537C181.825 79.5537 181.38 79.4077 181.06 79.1159C180.748 78.8241 180.591 78.428 180.591 77.9277C180.591 77.4205 180.776 77.0313 181.144 76.7603C181.519 76.4893 182.099 76.3538 182.884 76.3538H183.948V75.8223C183.948 75.4401 183.843 75.1483 183.635 74.9468C183.426 74.7453 183.107 74.6445 182.676 74.6445C182.349 74.6445 182.075 74.7175 181.853 74.8634C181.637 75.0093 181.457 75.2039 181.311 75.4471L180.81 74.978C180.956 74.6862 181.189 74.4395 181.509 74.238C181.828 74.0295 182.231 73.9253 182.718 73.9253C183.371 73.9253 183.878 74.0851 184.239 74.4048C184.601 74.7244 184.781 75.1691 184.781 75.7389V78.699H185.396V79.4286H184.927ZM182.53 78.8449C182.739 78.8449 182.93 78.8206 183.103 78.7719C183.277 78.7233 183.426 78.6538 183.552 78.5635C183.677 78.4732 183.774 78.3689 183.843 78.2508C183.913 78.1327 183.948 78.0041 183.948 77.8652V76.9792H182.843C182.363 76.9792 182.012 77.0487 181.79 77.1877C181.575 77.3266 181.467 77.5282 181.467 77.7922V78.0111C181.467 78.2751 181.561 78.4801 181.748 78.626C181.943 78.7719 182.203 78.8449 182.53 78.8449ZM191.12 80.0227C191.12 80.5786 190.901 80.9851 190.464 81.2422C190.033 81.5062 189.383 81.6382 188.515 81.6382C187.674 81.6382 187.069 81.5236 186.701 81.2943C186.333 81.065 186.149 80.7384 186.149 80.3145C186.149 80.0227 186.225 79.7934 186.378 79.6266C186.531 79.4668 186.739 79.3487 187.003 79.2722V79.1576C186.684 79.0047 186.524 78.7546 186.524 78.4071C186.524 78.1362 186.611 77.9312 186.784 77.7922C186.958 77.6463 187.181 77.5386 187.452 77.4691V77.4274C187.132 77.2745 186.882 77.0557 186.701 76.7708C186.527 76.4859 186.441 76.1558 186.441 75.7806C186.441 75.5096 186.489 75.2594 186.586 75.0301C186.684 74.8008 186.819 74.6063 186.993 74.4465C187.174 74.2797 187.386 74.1511 187.629 74.0608C187.879 73.9705 188.157 73.9253 188.463 73.9253C188.845 73.9253 189.185 73.9948 189.484 74.1338V74.04C189.484 73.8315 189.533 73.6613 189.63 73.5293C189.727 73.3903 189.887 73.3208 190.109 73.3208H190.912V74.0504H189.89V74.3943C190.085 74.5611 190.234 74.7626 190.339 74.9989C190.45 75.2282 190.505 75.4887 190.505 75.7806C190.505 76.0516 190.457 76.3017 190.36 76.531C190.262 76.7603 190.123 76.9584 189.943 77.1251C189.769 77.285 189.557 77.41 189.307 77.5004C189.057 77.5907 188.779 77.6359 188.473 77.6359C188.299 77.6359 188.126 77.6185 187.952 77.5837C187.771 77.6324 187.608 77.7053 187.462 77.8026C187.316 77.893 187.243 78.0215 187.243 78.1883C187.243 78.3481 187.32 78.4558 187.472 78.5114C187.625 78.567 187.823 78.5948 188.066 78.5948H189.213C189.88 78.5948 190.363 78.7233 190.662 78.9804C190.968 79.2306 191.12 79.578 191.12 80.0227ZM190.339 80.0852C190.339 79.8698 190.255 79.6961 190.089 79.5641C189.929 79.439 189.64 79.3765 189.223 79.3765H187.431C187.097 79.5293 186.93 79.7725 186.93 80.1061C186.93 80.3423 187.017 80.5438 187.191 80.7106C187.372 80.8774 187.674 80.9607 188.098 80.9607H188.869C189.335 80.9607 189.696 80.8878 189.953 80.7419C190.21 80.5959 190.339 80.3771 190.339 80.0852ZM188.473 76.9688C188.827 76.9688 189.109 76.8854 189.317 76.7186C189.526 76.5449 189.63 76.2809 189.63 75.9265V75.6347C189.63 75.2803 189.526 75.0197 189.317 74.853C189.109 74.6792 188.827 74.5924 188.473 74.5924C188.119 74.5924 187.837 74.6792 187.629 74.853C187.42 75.0197 187.316 75.2803 187.316 75.6347V75.9265C187.316 76.2809 187.42 76.5449 187.629 76.7186C187.837 76.8854 188.119 76.9688 188.473 76.9688ZM194.054 79.5537C193.686 79.5537 193.352 79.4877 193.053 79.3556C192.762 79.2236 192.508 79.036 192.293 78.7928C192.084 78.5426 191.921 78.2473 191.803 77.9069C191.691 77.5594 191.636 77.1703 191.636 76.7395C191.636 76.3156 191.691 75.93 191.803 75.5826C191.921 75.2351 192.084 74.9398 192.293 74.6966C192.508 74.4465 192.762 74.2554 193.053 74.1234C193.352 73.9913 193.686 73.9253 194.054 73.9253C194.415 73.9253 194.738 73.9913 195.023 74.1234C195.308 74.2554 195.551 74.4395 195.753 74.6758C195.954 74.9051 196.107 75.1795 196.212 75.4992C196.323 75.8188 196.378 76.1697 196.378 76.5519V76.9479H192.511V77.1981C192.511 77.4274 192.546 77.6428 192.616 77.8443C192.692 78.0389 192.796 78.2091 192.928 78.355C193.067 78.501 193.234 78.6156 193.429 78.699C193.63 78.7824 193.856 78.8241 194.106 78.8241C194.447 78.8241 194.742 78.7442 194.992 78.5843C195.249 78.4245 195.447 78.1952 195.586 77.8964L196.18 78.3238C196.007 78.692 195.736 78.9908 195.367 79.2201C194.999 79.4425 194.561 79.5537 194.054 79.5537ZM194.054 74.6237C193.825 74.6237 193.616 74.6653 193.429 74.7487C193.241 74.8252 193.078 74.9363 192.939 75.0823C192.807 75.2282 192.703 75.4019 192.626 75.6034C192.55 75.798 192.511 76.0134 192.511 76.2496V76.3226H195.482V76.2079C195.482 75.7285 195.35 75.3463 195.086 75.0614C194.829 74.7696 194.485 74.6237 194.054 74.6237ZM198.08 79.5537C197.858 79.5537 197.695 79.4981 197.59 79.3869C197.493 79.2757 197.445 79.1298 197.445 78.9491V78.8136C197.445 78.633 197.493 78.4871 197.59 78.3759C197.695 78.2647 197.858 78.2091 198.08 78.2091C198.303 78.2091 198.462 78.2647 198.56 78.3759C198.664 78.4871 198.716 78.633 198.716 78.8136V78.9491C198.716 79.1298 198.664 79.2757 198.56 79.3869C198.462 79.4981 198.303 79.5537 198.08 79.5537Z" fill="#495057"/>
<g clip-path="url(#clip0)">
<rect x="16.8685" y="57.1371" width="286.629" height="0.868571" fill="#DEE2E6"/>
<path d="M296.379 41.52L298.754 39.145C299.063 38.86 299.063 38.385 298.754 38.1L298.231 37.5775C297.946 37.2687 297.471 37.2687 297.186 37.5775L294.811 39.9525L292.413 37.5775C292.128 37.2687 291.653 37.2687 291.368 37.5775L290.845 38.1C290.536 38.385 290.536 38.86 290.845 39.145L293.22 41.52L290.845 43.9187C290.536 44.2037 290.536 44.6787 290.845 44.9637L291.368 45.4862C291.653 45.795 292.128 45.795 292.413 45.4862L294.811 43.1112L297.186 45.4862C297.471 45.795 297.946 45.795 298.231 45.4862L298.754 44.9637C299.063 44.6787 299.063 44.2037 298.754 43.9187L296.379 41.52Z" fill="#6C757D"/>
<path d="M228.326 45.08V44.3087H230.359V38.451H230.286L228.451 40.1604L227.941 39.608L229.869 37.8048H231.234V44.3087H233.11V45.08H228.326ZM234.576 45.08V44.3087H236.608V38.451H236.535L234.701 40.1604L234.19 39.608L236.118 37.8048H237.484V44.3087H239.36V45.08H234.576ZM243.257 45.08V39.7018H244.091V40.5773H244.133C244.195 40.4383 244.265 40.3098 244.341 40.1916C244.425 40.0666 244.522 39.9589 244.633 39.8685C244.751 39.7782 244.887 39.7087 245.04 39.6601C245.193 39.6045 245.373 39.5767 245.582 39.5767C245.936 39.5767 246.263 39.6635 246.561 39.8373C246.86 40.004 247.083 40.282 247.229 40.6711H247.249C247.347 40.3792 247.527 40.1256 247.791 39.9102C248.062 39.6879 248.427 39.5767 248.886 39.5767C249.435 39.5767 249.862 39.7574 250.168 40.1187C250.48 40.4731 250.637 40.9768 250.637 41.63V45.08H249.803V41.7759C249.803 41.2965 249.709 40.9351 249.522 40.6919C249.334 40.4487 249.035 40.3271 248.625 40.3271C248.458 40.3271 248.299 40.348 248.146 40.3897C248 40.4314 247.868 40.4939 247.75 40.5773C247.632 40.6607 247.538 40.7684 247.468 40.9004C247.399 41.0255 247.364 41.1749 247.364 41.3486V45.08H246.53V41.7759C246.53 41.2965 246.436 40.9351 246.249 40.6919C246.061 40.4487 245.769 40.3271 245.373 40.3271C245.206 40.3271 245.047 40.348 244.894 40.3897C244.741 40.4314 244.605 40.4939 244.487 40.5773C244.369 40.6607 244.272 40.7684 244.195 40.9004C244.126 41.0255 244.091 41.1749 244.091 41.3486V45.08H243.257ZM252.774 38.4406C252.593 38.4406 252.461 38.3989 252.378 38.3155C252.301 38.2252 252.263 38.1105 252.263 37.9716V37.8361C252.263 37.6971 252.301 37.5859 252.378 37.5025C252.461 37.4122 252.593 37.367 252.774 37.367C252.955 37.367 253.083 37.4122 253.16 37.5025C253.243 37.5859 253.285 37.6971 253.285 37.8361V37.9716C253.285 38.1105 253.243 38.2252 253.16 38.3155C253.083 38.3989 252.955 38.4406 252.774 38.4406ZM252.357 39.7018H253.191V45.08H252.357V39.7018ZM254.963 45.08V39.7018H255.797V40.5773H255.838C255.97 40.2715 256.154 40.0283 256.391 39.8477C256.634 39.667 256.957 39.5767 257.36 39.5767C257.916 39.5767 258.354 39.7574 258.673 40.1187C259 40.4731 259.163 40.9768 259.163 41.63V45.08H258.329V41.7759C258.329 40.8101 257.923 40.3271 257.11 40.3271C256.943 40.3271 256.78 40.348 256.62 40.3897C256.467 40.4314 256.328 40.4939 256.203 40.5773C256.078 40.6607 255.977 40.7684 255.901 40.9004C255.831 41.0255 255.797 41.1749 255.797 41.3486V45.08H254.963ZM262.502 45.205C262.002 45.205 261.582 45.1112 261.241 44.9236C260.908 44.7291 260.619 44.472 260.376 44.1523L260.97 43.6729C261.179 43.9369 261.411 44.1419 261.668 44.2878C261.926 44.4268 262.224 44.4963 262.565 44.4963C262.919 44.4963 263.194 44.4198 263.388 44.267C263.59 44.1141 263.69 43.8987 263.69 43.6208C263.69 43.4123 263.621 43.2351 263.482 43.0892C263.35 42.9363 263.107 42.8321 262.752 42.7765L262.325 42.714C262.075 42.6792 261.846 42.6271 261.637 42.5576C261.429 42.4812 261.245 42.3839 261.085 42.2658C260.932 42.1407 260.81 41.9878 260.72 41.8072C260.637 41.6265 260.595 41.4111 260.595 41.161C260.595 40.8969 260.643 40.6676 260.741 40.4731C260.838 40.2715 260.97 40.1048 261.137 39.9728C261.311 39.8407 261.516 39.7435 261.752 39.6809C261.988 39.6114 262.242 39.5767 262.513 39.5767C262.95 39.5767 263.315 39.6531 263.607 39.806C263.906 39.9589 264.166 40.1708 264.389 40.4418L263.836 40.9421C263.718 40.7753 263.545 40.6259 263.315 40.4939C263.086 40.3549 262.798 40.2854 262.45 40.2854C262.103 40.2854 261.839 40.3619 261.658 40.5147C261.484 40.6607 261.397 40.8622 261.397 41.1193C261.397 41.3833 261.484 41.5744 261.658 41.6925C261.839 41.8107 262.096 41.8975 262.429 41.9531L262.846 42.0156C263.444 42.106 263.868 42.2797 264.118 42.5368C264.368 42.7869 264.493 43.117 264.493 43.527C264.493 44.0481 264.316 44.4581 263.961 44.7568C263.607 45.0556 263.121 45.205 262.502 45.205ZM272.338 45.08C272.025 45.08 271.799 44.9966 271.66 44.8298C271.528 44.663 271.445 44.4546 271.41 44.2044H271.358C271.24 44.538 271.045 44.7881 270.774 44.9549C270.503 45.1216 270.18 45.205 269.805 45.205C269.235 45.205 268.79 45.0591 268.471 44.7673C268.158 44.4754 268.002 44.0794 268.002 43.5791C268.002 43.0718 268.186 42.6827 268.554 42.4117C268.929 42.1407 269.51 42.0052 270.295 42.0052H271.358V41.4736C271.358 41.0915 271.254 40.7996 271.045 40.5981C270.837 40.3966 270.517 40.2959 270.086 40.2959C269.76 40.2959 269.485 40.3688 269.263 40.5147C269.047 40.6607 268.867 40.8552 268.721 41.0984L268.221 40.6294C268.366 40.3376 268.599 40.0909 268.919 39.8894C269.239 39.6809 269.642 39.5767 270.128 39.5767C270.781 39.5767 271.288 39.7365 271.65 40.0561C272.011 40.3758 272.192 40.8205 272.192 41.3903V44.3504H272.807V45.08H272.338ZM269.94 44.4963C270.149 44.4963 270.34 44.472 270.514 44.4233C270.687 44.3747 270.837 44.3052 270.962 44.2149C271.087 44.1245 271.184 44.0203 271.254 43.9022C271.323 43.784 271.358 43.6555 271.358 43.5165V42.6306H270.253C269.774 42.6306 269.423 42.7001 269.2 42.839C268.985 42.978 268.877 43.1795 268.877 43.4436V43.6624C268.877 43.9265 268.971 44.1315 269.159 44.2774C269.353 44.4233 269.614 44.4963 269.94 44.4963ZM278.531 45.6741C278.531 46.2299 278.312 46.6364 277.874 46.8935C277.443 47.1576 276.793 47.2896 275.925 47.2896C275.084 47.2896 274.48 47.175 274.111 46.9456C273.743 46.7163 273.559 46.3898 273.559 45.9659C273.559 45.6741 273.635 45.4448 273.788 45.278C273.941 45.1182 274.15 45 274.414 44.9236V44.809C274.094 44.6561 273.934 44.4059 273.934 44.0585C273.934 43.7875 274.021 43.5825 274.195 43.4436C274.368 43.2976 274.591 43.1899 274.862 43.1205V43.0788C274.542 42.9259 274.292 42.707 274.111 42.4221C273.938 42.1372 273.851 41.8072 273.851 41.432C273.851 41.161 273.899 40.9108 273.997 40.6815C274.094 40.4522 274.229 40.2576 274.403 40.0978C274.584 39.9311 274.796 39.8025 275.039 39.7122C275.289 39.6219 275.567 39.5767 275.873 39.5767C276.255 39.5767 276.595 39.6462 276.894 39.7851V39.6913C276.894 39.4829 276.943 39.3126 277.04 39.1806C277.137 39.0416 277.297 38.9722 277.52 38.9722H278.322V39.7018H277.301V40.0457C277.495 40.2125 277.645 40.414 277.749 40.6502C277.86 40.8795 277.916 41.1401 277.916 41.432C277.916 41.703 277.867 41.9531 277.77 42.1824C277.672 42.4117 277.534 42.6097 277.353 42.7765C277.179 42.9363 276.967 43.0614 276.717 43.1517C276.467 43.2421 276.189 43.2872 275.883 43.2872C275.71 43.2872 275.536 43.2699 275.362 43.2351C275.181 43.2838 275.018 43.3567 274.872 43.454C274.726 43.5443 274.653 43.6729 274.653 43.8396C274.653 43.9995 274.73 44.1072 274.883 44.1627C275.036 44.2183 275.234 44.2461 275.477 44.2461H276.623C277.29 44.2461 277.773 44.3747 278.072 44.6318C278.378 44.8819 278.531 45.2294 278.531 45.6741ZM277.749 45.7366C277.749 45.5212 277.666 45.3475 277.499 45.2155C277.339 45.0904 277.051 45.0278 276.634 45.0278H274.841C274.507 45.1807 274.341 45.4239 274.341 45.7574C274.341 45.9937 274.428 46.1952 274.601 46.362C274.782 46.5287 275.084 46.6121 275.508 46.6121H276.279C276.745 46.6121 277.106 46.5392 277.363 46.3932C277.62 46.2473 277.749 46.0284 277.749 45.7366ZM275.883 42.6202C276.238 42.6202 276.519 42.5368 276.727 42.37C276.936 42.1963 277.04 41.9323 277.04 41.5779V41.286C277.04 40.9317 276.936 40.6711 276.727 40.5043C276.519 40.3306 276.238 40.2438 275.883 40.2438C275.529 40.2438 275.247 40.3306 275.039 40.5043C274.831 40.6711 274.726 40.9317 274.726 41.286V41.5779C274.726 41.9323 274.831 42.1963 275.039 42.37C275.247 42.5368 275.529 42.6202 275.883 42.6202ZM281.475 45.205C281.113 45.205 280.783 45.139 280.485 45.007C280.186 44.875 279.929 44.6874 279.713 44.4442C279.505 44.194 279.341 43.8987 279.223 43.5582C279.105 43.2108 279.046 42.8217 279.046 42.3909C279.046 41.967 279.105 41.5814 279.223 41.2339C279.341 40.8865 279.505 40.5912 279.713 40.348C279.929 40.0978 280.186 39.9067 280.485 39.7747C280.783 39.6427 281.113 39.5767 281.475 39.5767C281.836 39.5767 282.163 39.6427 282.454 39.7747C282.753 39.9067 283.01 40.0978 283.226 40.348C283.441 40.5912 283.608 40.8865 283.726 41.2339C283.844 41.5814 283.903 41.967 283.903 42.3909C283.903 42.8217 283.844 43.2108 283.726 43.5582C283.608 43.8987 283.441 44.194 283.226 44.4442C283.01 44.6874 282.753 44.875 282.454 45.007C282.163 45.139 281.836 45.205 281.475 45.205ZM281.475 44.465C281.926 44.465 282.295 44.326 282.58 44.0481C282.864 43.7702 283.007 43.3463 283.007 42.7765V42.0052C283.007 41.4354 282.864 41.0116 282.58 40.7336C282.295 40.4557 281.926 40.3167 281.475 40.3167C281.023 40.3167 280.655 40.4557 280.37 40.7336C280.085 41.0116 279.943 41.4354 279.943 42.0052V42.7765C279.943 43.3463 280.085 43.7702 280.37 44.0481C280.655 44.326 281.023 44.465 281.475 44.465Z" fill="#6C757D"/>
<path d="M46.6311 38.6063H49.288V45.8171H51.0695V38.6063H53.6656V37.0255H46.6311V38.6063ZM56.469 45.9387C58.3842 45.9387 59.509 44.6011 59.509 42.7103C59.509 40.6978 58.3295 39.4088 56.4751 39.4088C54.6085 39.4088 53.429 40.7282 53.429 42.7103C53.429 44.6923 54.6207 45.9387 56.469 45.9387ZM56.4751 44.6194C55.4779 44.6194 55.1618 43.6344 55.1618 42.6495C55.1618 41.5794 55.5327 40.716 56.4751 40.716C57.46 40.716 57.7701 41.6523 57.7701 42.6495C57.7701 43.7074 57.4053 44.6194 56.4751 44.6194ZM62.5522 45.9387C63.4338 45.9387 64.0722 45.6469 64.5039 44.7349L64.6498 45.8171H66.1333V41.397C66.1333 40.1627 65.3977 39.4088 63.4764 39.4088C61.9016 39.4088 60.7647 40.0411 60.6978 41.4031H62.1752C62.3516 40.8255 62.8744 40.6127 63.3913 40.6066C64.1026 40.6005 64.4309 40.9227 64.4309 41.5003V41.8773L63.6405 41.8895C61.4213 41.9138 60.4303 42.6434 60.4303 44.0175C60.4303 45.2456 61.3544 45.9387 62.5522 45.9387ZM63.1541 44.7714C62.5705 44.7714 62.1144 44.4248 62.1144 43.8411C62.1144 43.0751 62.9048 42.8136 63.7925 42.8015L64.4309 42.7893V43.7195C64.4248 44.2607 63.7925 44.7714 63.1541 44.7714ZM70.0431 45.9387C71.6117 45.9387 72.6939 45.2274 72.6939 43.9688C72.6939 43.3973 72.396 42.4792 70.9976 42.1327L69.9762 41.9016C69.2891 41.7679 68.9791 41.5915 68.9791 41.2632C68.9791 40.8194 69.4229 40.6005 70.0309 40.6005C70.6267 40.6005 71.0463 40.8741 71.1375 41.3605H72.621C72.6027 40.1263 71.5995 39.4088 70.0552 39.4088C68.3346 39.4088 67.4104 40.2661 67.4165 41.397C67.4226 42.4367 68.1583 42.9656 69.2709 43.1967L70.3775 43.4277C70.949 43.5371 71.1739 43.7256 71.1739 44.0661C71.1739 44.516 70.7119 44.7227 70.037 44.7227C69.5445 44.7227 68.9183 44.5039 68.7541 43.8351H67.2219C67.4469 45.3247 68.7298 45.9387 70.0431 45.9387ZM77.6846 40.7647V39.5243H76.2862V37.6335H75.0215L74.5716 39.5304H73.4955V40.7647H74.5169V44.1877C74.5169 45.197 74.9425 45.884 76.6023 45.884C77.2164 45.884 77.5326 45.805 77.7028 45.732V44.6376H76.8577C76.4686 44.6376 76.2983 44.5768 76.2983 44.1147L76.2862 40.7647H77.6846ZM78.4204 38.6063H81.0774V45.8171H82.8588V38.6063H85.455V37.0255H78.4204V38.6063ZM88.1692 37.0315H86.4425V38.6306H88.1692V37.0315ZM88.1571 39.5304H86.4608V45.8171H88.1571V39.5304ZM93.4783 40.7647V39.5243H92.0799V37.6335H90.8153L90.3654 39.5304H89.2892V40.7647H90.3106V44.1877C90.3106 45.197 90.7362 45.884 92.3961 45.884C93.0102 45.884 93.3263 45.805 93.4966 45.732V44.6376H92.6514C92.2623 44.6376 92.0921 44.5768 92.0921 44.1147L92.0799 40.7647H93.4783ZM96.7496 45.9266C96.9867 45.9266 97.2481 45.8597 97.4913 45.7746V44.6802L97.1934 44.6619C96.6462 44.6011 96.482 44.2971 96.482 43.8351V36.7823H94.7432V44.0539C94.7432 44.9599 94.8891 45.9266 96.7496 45.9266ZM99.8787 43.0811H104.104V42.6008C104.104 40.716 103.095 39.4088 101.174 39.4088C99.2463 39.4088 98.1215 40.8559 98.1215 42.7467C98.1215 44.6984 99.3983 45.9387 101.265 45.9387C102.572 45.9387 103.885 45.1666 104.098 43.8229H102.499C102.317 44.4127 101.83 44.6559 101.222 44.6559C100.371 44.6559 99.8726 44.0418 99.8787 43.0811ZM99.8787 42.0232C99.8726 41.3301 100.353 40.6491 101.168 40.6491C102.025 40.6491 102.444 41.2632 102.444 42.0232H99.8787Z" fill="#6C757D"/>
<path d="M35.9771 47.8629C36.8083 47.8629 37.4733 47.1979 37.4733 46.3429H34.4571C34.4571 47.1979 35.1221 47.8629 35.9771 47.8629ZM41.0833 44.3241C40.6321 43.8254 39.7533 43.0891 39.7533 40.6429C39.7533 38.8141 38.4708 37.3416 36.7133 36.9616V36.4629C36.7133 36.0591 36.3808 35.7029 35.9771 35.7029C35.5496 35.7029 35.2171 36.0591 35.2171 36.4629V36.9616C33.4596 37.3416 32.1771 38.8141 32.1771 40.6429C32.1771 43.0891 31.2983 43.8254 30.8471 44.3241C30.7046 44.4666 30.6333 44.6566 30.6571 44.8229C30.6571 45.2266 30.9421 45.5829 31.4171 45.5829H40.5133C40.9883 45.5829 41.2733 45.2266 41.2971 44.8229C41.2971 44.6566 41.2258 44.4666 41.0833 44.3241Z" fill="#6C757D"/>
</g>
<path d="M19.4743 25.8686H300.526V24.1314H19.4743V25.8686ZM303.131 28.4743V90.6457H304.869V28.4743H303.131ZM300.526 93.2514H19.4743V94.9886H300.526V93.2514ZM16.8686 90.6457V28.4743H15.1314V90.6457H16.8686ZM19.4743 93.2514C18.0352 93.2514 16.8686 92.0848 16.8686 90.6457H15.1314C15.1314 93.0442 17.0758 94.9886 19.4743 94.9886V93.2514ZM303.131 90.6457C303.131 92.0848 301.965 93.2514 300.526 93.2514V94.9886C302.924 94.9886 304.869 93.0442 304.869 90.6457H303.131ZM300.526 25.8686C301.965 25.8686 303.131 27.0352 303.131 28.4743H304.869C304.869 26.0758 302.924 24.1314 300.526 24.1314V25.8686ZM19.4743 24.1314C17.0758 24.1314 15.1314 26.0758 15.1314 28.4743H16.8686C16.8686 27.0352 18.0352 25.8686 19.4743 25.8686V24.1314Z" fill="#DEE2E6"/>
</g>
<g style="mix-blend-mode:color">
<rect width="320" height="120" fill="#808080"/>
</g>
<g style="mix-blend-mode:color">
<rect width="320" height="120" fill="#00284D"/>
</g>
<defs>
<filter id="filter0_d" x="9.05143" y="19.7886" width="301.897" height="83.0171" filterUnits="userSpaceOnUse" color-interpolation-filters="sRGB">
<feFlood flood-opacity="0" result="BackgroundImageFix"/>
<feColorMatrix in="SourceAlpha" type="matrix" values="0 0 0 0 0 0 0 0 0 0 0 0 0 0 0 0 0 0 127 0"/>
<feOffset dy="1.73714"/>
<feGaussianBlur stdDeviation="3.47429"/>
<feColorMatrix type="matrix" values="0 0 0 0 0 0 0 0 0 0 0 0 0 0 0 0 0 0 0.25 0"/>
<feBlend mode="normal" in2="BackgroundImageFix" result="effect1_dropShadow"/>
<feBlend mode="normal" in="SourceGraphic" in2="effect1_dropShadow" result="shape"/>
</filter>
<clipPath id="clip0">
<rect width="286.263" height="32.1371" fill="white" transform="translate(16.8685 25.8685)"/>
</clipPath>
</defs>
</svg>
