<svg width="320" height="120" viewBox="0 0 320 120" fill="none" xmlns="http://www.w3.org/2000/svg">
<rect width="320" height="120" fill="#C0CEDB"/>
<path d="M77.4153 94.9413C78.4573 94.3397 78.9584 93.2022 78.7716 92.0764L85.8763 90.2105C86.711 91.6562 87.7794 93.5067 88.9313 95.5018C91.4353 99.8389 112.106 92.9934 113.938 90.818C115.114 89.4452 115.478 85.2638 115.579 82.43L139.99 76.0466L140.658 77.2031C141.693 78.9958 143.991 79.6349 145.815 78.582C147.61 77.5459 148.251 75.2479 147.2 73.4263L119.972 26.2673C118.937 24.4746 116.639 23.8356 114.815 24.8884C113.02 25.9246 112.379 28.2226 113.431 30.0442L114.749 32.3284L70.8322 77.9239L70.298 76.9986C69.5134 75.6396 67.7958 75.2049 66.4643 75.9736C65.1328 76.7424 64.6505 78.4472 65.4351 79.8062L73.5816 93.9163C74.3662 95.2753 76.0838 95.71 77.4153 94.9413ZM109.62 87.952C108.084 90.3042 96.5628 91.674 94.2184 92.0252C93.1207 92.1963 91.8464 90.6575 90.7868 88.9561L110.967 83.6664C110.872 84.8391 110.51 86.5517 109.62 87.952Z" fill="#00284D"/>
<path opacity="0.5" d="M161.628 50.131C162.166 49.8205 162.425 49.2334 162.328 48.6524L165.995 47.6893C166.426 48.4355 166.977 49.3906 167.572 50.4203C168.864 52.6588 179.533 49.1257 180.479 48.0029C181.085 47.2943 181.274 45.1362 181.326 43.6736L193.925 40.3789L194.27 40.9758C194.804 41.9011 195.99 42.2309 196.931 41.6875C197.858 41.1527 198.189 39.9667 197.646 39.0265L183.593 14.6864C183.059 13.7611 181.873 13.4313 180.931 13.9747C180.005 14.5095 179.674 15.6956 180.217 16.6357L180.897 17.8147L158.231 41.3478L157.955 40.8703C157.55 40.1689 156.663 39.9445 155.976 40.3412C155.289 40.738 155.04 41.618 155.445 42.3194L159.65 49.602C160.055 50.3034 160.941 50.5278 161.628 50.131ZM178.25 46.5237C177.457 47.7377 171.511 48.4447 170.301 48.6259C169.734 48.7143 169.077 47.92 168.53 47.0419L178.945 44.3117C178.896 44.917 178.709 45.8009 178.25 46.5237Z" fill="#00284D"/>
<path opacity="0.5" d="M220.085 50.131C220.623 49.8205 220.882 49.2334 220.785 48.6524L224.452 47.6893C224.883 48.4355 225.435 49.3906 226.029 50.4203C227.321 52.6588 237.99 49.1257 238.936 48.0029C239.542 47.2943 239.731 45.1362 239.783 43.6736L252.382 40.3789L252.727 40.9758C253.261 41.9011 254.447 42.2309 255.388 41.6875C256.315 41.1527 256.646 39.9667 256.103 39.0265L242.05 14.6864C241.516 13.7611 240.33 13.4313 239.388 13.9747C238.462 14.5095 238.131 15.6956 238.674 16.6357L239.354 17.8147L216.688 41.3478L216.412 40.8703C216.007 40.1689 215.12 39.9445 214.433 40.3412C213.746 40.738 213.497 41.618 213.902 42.3194L218.107 49.602C218.512 50.3034 219.398 50.5278 220.085 50.131ZM236.707 46.5237C235.914 47.7377 229.968 48.4447 228.758 48.6259C228.191 48.7143 227.534 47.92 226.987 47.0419L237.402 44.3117C237.353 44.917 237.166 45.8009 236.707 46.5237Z" fill="#00284D"/>
<path opacity="0.5" d="M170.628 97.131C171.166 96.8205 171.425 96.2334 171.328 95.6524L174.995 94.6893C175.426 95.4355 175.977 96.3906 176.572 97.4203C177.864 99.6588 188.533 96.1257 189.479 95.0029C190.085 94.2943 190.274 92.1362 190.326 90.6736L202.925 87.3789L203.27 87.9758C203.804 88.9011 204.99 89.2309 205.931 88.6875C206.858 88.1527 207.189 86.9667 206.646 86.0265L192.593 61.6864C192.059 60.7611 190.873 60.4313 189.931 60.9747C189.005 61.5095 188.674 62.6956 189.217 63.6357L189.897 64.8147L167.231 88.3478L166.955 87.8703C166.55 87.1689 165.663 86.9445 164.976 87.3412C164.289 87.738 164.04 88.618 164.445 89.3194L168.65 96.602C169.055 97.3034 169.941 97.5278 170.628 97.131ZM187.25 93.5237C186.457 94.7377 180.511 95.4447 179.301 95.6259C178.734 95.7143 178.077 94.92 177.53 94.0419L187.945 91.3117C187.896 91.917 187.709 92.8009 187.25 93.5237Z" fill="#00284D"/>
<path opacity="0.5" d="M229.085 97.131C229.623 96.8205 229.882 96.2334 229.785 95.6524L233.452 94.6893C233.883 95.4355 234.435 96.3906 235.029 97.4203C236.321 99.6588 246.99 96.1257 247.936 95.0029C248.542 94.2943 248.731 92.1362 248.783 90.6736L261.382 87.3789L261.727 87.9758C262.261 88.9011 263.447 89.2309 264.388 88.6875C265.315 88.1527 265.646 86.9667 265.103 86.0265L251.05 61.6864C250.516 60.7611 249.33 60.4313 248.388 60.9747C247.462 61.5095 247.131 62.6956 247.674 63.6357L248.354 64.8147L225.688 88.3478L225.412 87.8703C225.007 87.1689 224.12 86.9445 223.433 87.3412C222.746 87.738 222.497 88.618 222.902 89.3194L227.107 96.602C227.512 97.3034 228.398 97.5278 229.085 97.131ZM245.707 93.5237C244.914 94.7377 238.968 95.4447 237.758 95.6259C237.191 95.7143 236.534 94.92 235.987 94.0419L246.402 91.3117C246.353 91.917 246.166 92.8009 245.707 93.5237Z" fill="#00284D"/>
<g style="mix-blend-mode:color">
<rect width="320" height="120" fill="#808080"/>
</g>
<g style="mix-blend-mode:color">
<rect width="320" height="120" fill="#00284D"/>
</g>
</svg>
