<svg width="320" height="120" viewBox="0 0 320 120" fill="none" xmlns="http://www.w3.org/2000/svg">
<rect width="320" height="120" fill="#C0CEDB"/>
<rect opacity="0.5" width="320" height="120" fill="#00284D"/>
<path d="M88 11.071C88 9.92722 88.9272 9 90.071 9H230.899C232.042 9 232.97 9.92722 232.97 11.071V109.443C232.97 110.587 232.042 111.514 230.899 111.514H90.071C88.9272 111.514 88 110.587 88 109.443V11.071Z" fill="#F8F9FA"/>
<g filter="url(#filter0_d_442_3104)">
<path d="M168.432 89.219C168.432 86.9315 170.287 85.077 172.574 85.077H224.716C227.004 85.077 228.858 86.9315 228.858 89.219V100.609C228.858 102.897 227.004 104.751 224.716 104.751H172.574C170.287 104.751 168.432 102.897 168.432 100.609V89.219Z" fill="#00284D"/>
<path d="M175.765 97.4142V91.4249H176.826L178.632 96.3705L180.462 91.4249H181.519V97.4142H180.727V92.5723L178.992 97.4142H178.275L176.552 92.6178V97.4142H175.765ZM184.098 97.4971C183.822 97.4971 183.577 97.4488 183.365 97.3521C183.152 97.2527 182.985 97.1105 182.863 96.9255C182.745 96.7405 182.685 96.5168 182.685 96.2545C182.685 95.7795 182.851 95.4261 183.182 95.1941C183.514 94.9622 184.045 94.8379 184.777 94.8214L185.543 94.8006V94.4651C185.543 94.2028 185.464 93.9957 185.307 93.8438C185.15 93.6892 184.905 93.6119 184.574 93.6119C184.328 93.6147 184.111 93.6726 183.924 93.7859C183.739 93.8991 183.619 94.0841 183.563 94.3409H182.888C182.905 94.062 182.983 93.8273 183.124 93.6367C183.265 93.4435 183.461 93.2971 183.712 93.1977C183.966 93.0983 184.266 93.0486 184.611 93.0486C184.984 93.0486 185.293 93.1011 185.539 93.206C185.788 93.3109 185.973 93.4655 186.094 93.6699C186.218 93.8742 186.28 94.1255 186.28 94.4237V97.4142H185.626L185.572 96.6107C185.407 96.9448 185.195 97.1768 184.938 97.3066C184.684 97.4336 184.404 97.4971 184.098 97.4971ZM184.33 96.9462C184.473 96.9462 184.615 96.92 184.756 96.8675C184.9 96.815 185.031 96.7446 185.15 96.6563C185.268 96.5651 185.362 96.4643 185.431 96.3539C185.503 96.2407 185.54 96.1247 185.543 96.006V95.2728L184.905 95.2853C184.579 95.2908 184.306 95.3239 184.085 95.3847C183.867 95.4454 183.703 95.5407 183.592 95.6705C183.485 95.8002 183.431 95.9701 183.431 96.1799C183.431 96.4202 183.514 96.6079 183.679 96.7432C183.848 96.8785 184.064 96.9462 184.33 96.9462ZM188.417 93.1314V97.4142H187.676V93.1314H188.417ZM188.434 91.4291V92.2243H187.651V91.4291H188.434ZM189.822 97.4142V93.1314H190.563V93.7527C190.632 93.634 190.727 93.5222 190.849 93.4172C190.973 93.3123 191.122 93.2281 191.296 93.1646C191.473 93.1011 191.676 93.0693 191.905 93.0693C192.176 93.0693 192.424 93.1231 192.651 93.2308C192.88 93.3385 193.062 93.507 193.197 93.7362C193.336 93.9626 193.405 94.2553 193.405 94.6143V97.4142H192.638V94.6888C192.638 94.3547 192.55 94.1076 192.373 93.9474C192.199 93.7845 191.973 93.703 191.694 93.703C191.501 93.703 191.32 93.7348 191.151 93.7983C190.983 93.859 190.846 93.9529 190.741 94.0799C190.636 94.2042 190.584 94.3616 190.584 94.5521V97.4142H189.822ZM198.873 91.3421C199.295 91.3421 199.67 91.4304 199.995 91.6072C200.321 91.7811 200.584 92.0145 200.782 92.3072C200.981 92.5999 201.099 92.9216 201.134 93.2723H200.319C200.274 93.0375 200.19 92.8249 200.066 92.6344C199.942 92.4439 199.779 92.292 199.577 92.1788C199.376 92.0656 199.134 92.0089 198.852 92.0089C198.491 92.0089 198.184 92.0945 197.933 92.2658C197.684 92.4342 197.495 92.6951 197.365 93.0486C197.238 93.402 197.175 93.8549 197.175 94.4072C197.175 95.2411 197.317 95.8541 197.601 96.2462C197.889 96.6356 198.306 96.8302 198.852 96.8302C199.134 96.8302 199.376 96.7709 199.577 96.6521C199.779 96.5334 199.942 96.3746 200.066 96.1758C200.19 95.977 200.274 95.7616 200.319 95.5296H201.134C201.104 95.7837 201.035 96.0294 200.927 96.2669C200.822 96.5016 200.677 96.7115 200.492 96.8965C200.307 97.0815 200.08 97.2279 199.809 97.3355C199.541 97.4432 199.229 97.4971 198.873 97.4971C198.335 97.4971 197.875 97.3742 197.494 97.1284C197.115 96.8827 196.825 96.5292 196.624 96.0681C196.425 95.607 196.326 95.0505 196.326 94.3989C196.326 93.75 196.425 93.1977 196.624 92.7421C196.823 92.2865 197.111 91.9399 197.49 91.7024C197.871 91.4622 198.332 91.3421 198.873 91.3421ZM202.215 97.4142V91.2592H202.961V93.761C203.033 93.6423 203.129 93.5318 203.251 93.4296C203.372 93.3247 203.52 93.2405 203.694 93.177C203.868 93.1107 204.07 93.0776 204.299 93.0776C204.578 93.0776 204.83 93.13 205.057 93.235C205.283 93.3371 205.463 93.4835 205.595 93.674C205.728 93.8646 205.794 94.091 205.794 94.3533V97.4142H205.028V94.5066C205.028 94.2498 204.939 94.0523 204.763 93.9143C204.589 93.7734 204.361 93.703 204.079 93.703C203.889 93.703 203.709 93.7348 203.541 93.7983C203.372 93.859 203.236 93.9529 203.131 94.0799C203.029 94.2042 202.977 94.363 202.977 94.5563V97.4142H202.215ZM208.691 97.4971C208.296 97.4971 207.951 97.4129 207.655 97.2444C207.36 97.0732 207.131 96.8233 206.968 96.4947C206.805 96.1661 206.723 95.7644 206.723 95.2894C206.723 94.8421 206.799 94.45 206.951 94.1131C207.103 93.7762 207.325 93.5153 207.618 93.3302C207.913 93.1425 208.271 93.0486 208.691 93.0486C209.086 93.0486 209.428 93.1356 209.718 93.3095C210.011 93.4807 210.237 93.7334 210.397 94.0675C210.557 94.4016 210.637 94.8089 210.637 95.2894C210.637 95.7257 210.563 96.1095 210.414 96.4409C210.267 96.7722 210.049 97.0318 209.759 97.2196C209.472 97.4046 209.116 97.4971 208.691 97.4971ZM208.691 96.8924C208.948 96.8924 209.164 96.8275 209.341 96.6977C209.518 96.5679 209.652 96.3815 209.743 96.1385C209.834 95.8955 209.879 95.607 209.879 95.2728C209.879 94.9663 209.839 94.6916 209.759 94.4486C209.679 94.2028 209.551 94.0081 209.374 93.8646C209.2 93.721 208.972 93.6492 208.691 93.6492C208.431 93.6492 208.212 93.7141 208.032 93.8438C207.853 93.9709 207.716 94.1559 207.622 94.3989C207.531 94.6419 207.485 94.9332 207.485 95.2728C207.485 95.5738 207.527 95.8472 207.61 96.093C207.692 96.3387 207.822 96.5334 207.999 96.677C208.176 96.8206 208.406 96.8924 208.691 96.8924ZM212.468 93.1314V97.4142H211.727V93.1314H212.468ZM212.485 91.4291V92.2243H211.702V91.4291H212.485ZM215.523 93.0486C215.829 93.0486 216.105 93.108 216.351 93.2267C216.597 93.3427 216.797 93.5083 216.952 93.7237C217.109 93.9391 217.207 94.1932 217.246 94.4859H216.566C216.542 94.3367 216.484 94.2001 216.392 94.0758C216.304 93.9515 216.187 93.8521 216.04 93.7776C215.894 93.703 215.723 93.6657 215.527 93.6657C215.16 93.6657 214.861 93.7983 214.632 94.0634C214.403 94.3285 214.288 94.7344 214.288 95.2811C214.288 95.7754 214.393 96.1716 214.603 96.4699C214.816 96.7653 215.128 96.9131 215.539 96.9131C215.735 96.9131 215.905 96.8758 216.049 96.8012C216.195 96.7239 216.312 96.6231 216.401 96.4989C216.489 96.3718 216.546 96.2365 216.571 96.093H217.237C217.202 96.3801 217.105 96.6286 216.948 96.8385C216.79 97.0484 216.589 97.2113 216.343 97.3273C216.1 97.4405 215.826 97.4971 215.523 97.4971C215.139 97.4971 214.798 97.4129 214.5 97.2444C214.204 97.076 213.972 96.8275 213.804 96.4989C213.635 96.1703 213.551 95.7671 213.551 95.2894C213.551 94.8421 213.627 94.4513 213.779 94.1172C213.934 93.7803 214.157 93.518 214.45 93.3302C214.745 93.1425 215.103 93.0486 215.523 93.0486ZM218.828 95.4509C218.828 95.7216 218.873 95.9673 218.961 96.1882C219.052 96.4064 219.189 96.5803 219.371 96.7101C219.556 96.8399 219.787 96.9048 220.063 96.9048C220.336 96.9048 220.571 96.8413 220.767 96.7142C220.966 96.5872 221.093 96.4036 221.148 96.1634H221.873C221.82 96.4533 221.704 96.6977 221.525 96.8965C221.345 97.0953 221.129 97.2458 220.875 97.348C220.621 97.4474 220.356 97.4971 220.079 97.4971C219.679 97.4971 219.327 97.4101 219.023 97.2361C218.719 97.0622 218.482 96.8123 218.311 96.4864C218.14 96.1606 218.054 95.7699 218.054 95.3143C218.054 94.8642 218.131 94.4693 218.286 94.1296C218.441 93.79 218.664 93.5249 218.957 93.3344C219.252 93.1439 219.607 93.0486 220.021 93.0486C220.425 93.0486 220.766 93.1356 221.044 93.3095C221.323 93.4835 221.535 93.7293 221.678 94.0468C221.825 94.3616 221.898 94.7358 221.898 95.1693V95.4509H218.828ZM218.833 94.9332H221.16C221.16 94.6874 221.119 94.4665 221.036 94.2705C220.953 94.0717 220.826 93.9156 220.655 93.8024C220.487 93.6865 220.274 93.6285 220.017 93.6285C219.749 93.6285 219.527 93.6934 219.35 93.8231C219.176 93.9502 219.045 94.1145 218.957 94.316C218.871 94.5149 218.83 94.7206 218.833 94.9332Z" fill="white"/>
</g>
<rect x="89.0354" y="75.2398" width="142.929" height="0.517753" fill="#DEE2E6"/>
<path d="M97.0751 51.6891V45.6998H98.1354L99.9413 50.6454L101.772 45.6998H102.828V51.6891H102.037V46.8472L100.302 51.6891H99.5851L97.862 46.8927V51.6891H97.0751ZM105.901 51.772C105.506 51.772 105.161 51.6878 104.865 51.5193C104.57 51.3481 104.341 51.0982 104.178 50.7696C104.015 50.441 103.933 50.0393 103.933 49.5643C103.933 49.117 104.009 48.7249 104.161 48.388C104.313 48.0511 104.535 47.7902 104.828 47.6051C105.124 47.4174 105.481 47.3235 105.901 47.3235C106.296 47.3235 106.638 47.4105 106.928 47.5844C107.221 47.7556 107.447 48.0083 107.607 48.3424C107.768 48.6765 107.848 49.0838 107.848 49.5643C107.848 50.0006 107.773 50.3844 107.624 50.7158C107.478 51.0471 107.259 51.3067 106.969 51.4945C106.682 51.6795 106.326 51.772 105.901 51.772ZM105.901 51.1673C106.158 51.1673 106.374 51.1024 106.551 50.9726C106.728 50.8428 106.862 50.6564 106.953 50.4134C107.044 50.1704 107.09 49.8819 107.09 49.5477C107.09 49.2412 107.05 48.9665 106.969 48.7235C106.889 48.4777 106.761 48.2831 106.584 48.1395C106.41 47.9959 106.183 47.9241 105.901 47.9241C105.641 47.9241 105.422 47.989 105.242 48.1188C105.063 48.2458 104.926 48.4308 104.832 48.6738C104.741 48.9168 104.696 49.2081 104.696 49.5477C104.696 49.8487 104.737 50.1221 104.82 50.3679C104.903 50.6136 105.032 50.8083 105.209 50.9519C105.386 51.0955 105.616 51.1673 105.901 51.1673ZM110.395 51.772C109.84 51.772 109.4 51.5815 109.074 51.2004C108.748 50.8193 108.585 50.2629 108.585 49.5312C108.585 49.0866 108.65 48.6986 108.78 48.3673C108.912 48.0359 109.108 47.7791 109.368 47.5969C109.627 47.4146 109.951 47.3235 110.337 47.3235C110.541 47.3235 110.722 47.3497 110.88 47.4022C111.04 47.4547 111.178 47.5209 111.294 47.601C111.41 47.6811 111.504 47.7639 111.576 47.8495C111.65 47.9351 111.705 48.0138 111.741 48.0856V45.5341H112.512V51.6891H111.928L111.845 50.811C111.817 50.8939 111.773 50.9905 111.712 51.101C111.652 51.2087 111.566 51.315 111.455 51.4199C111.345 51.5221 111.203 51.6063 111.029 51.6726C110.858 51.7389 110.646 51.772 110.395 51.772ZM110.532 51.1838C110.965 51.1838 111.275 51.0527 111.46 50.7903C111.647 50.5252 111.741 50.0931 111.741 49.4939C111.739 49.1598 111.696 48.8754 111.613 48.6406C111.533 48.4059 111.406 48.2278 111.232 48.1063C111.061 47.9821 110.833 47.9199 110.548 47.9199C110.195 47.9199 109.908 48.0456 109.687 48.2969C109.466 48.5481 109.355 48.9471 109.355 49.4939C109.355 50.0296 109.455 50.4452 109.654 50.7406C109.855 51.0361 110.148 51.1838 110.532 51.1838ZM114.961 51.772C114.685 51.772 114.441 51.7237 114.228 51.627C114.016 51.5276 113.849 51.3854 113.727 51.2004C113.608 51.0154 113.549 50.7917 113.549 50.5294C113.549 50.0544 113.715 49.701 114.046 49.469C114.377 49.2371 114.909 49.1128 115.641 49.0963L116.407 49.0756V48.7401C116.407 48.4777 116.328 48.2706 116.171 48.1188C116.014 47.9641 115.769 47.8868 115.438 47.8868C115.192 47.8896 114.975 47.9475 114.788 48.0608C114.602 48.174 114.482 48.359 114.427 48.6158H113.752C113.769 48.3369 113.847 48.1022 113.988 47.9117C114.129 47.7184 114.325 47.572 114.576 47.4726C114.83 47.3732 115.13 47.3235 115.475 47.3235C115.848 47.3235 116.157 47.376 116.403 47.4809C116.651 47.5858 116.836 47.7404 116.958 47.9448C117.082 48.1491 117.144 48.4004 117.144 48.6986V51.6891H116.49L116.436 50.8856C116.27 51.2197 116.059 51.4517 115.802 51.5815C115.548 51.7085 115.268 51.772 114.961 51.772ZM115.193 51.2211C115.337 51.2211 115.479 51.1949 115.62 51.1424C115.764 51.0899 115.895 51.0195 116.014 50.9312C116.132 50.84 116.226 50.7393 116.295 50.6288C116.367 50.5156 116.404 50.3996 116.407 50.2809V49.5477L115.769 49.5602C115.443 49.5657 115.17 49.5988 114.949 49.6596C114.731 49.7203 114.567 49.8156 114.456 49.9454C114.348 50.0752 114.295 50.245 114.295 50.4548C114.295 50.6951 114.377 50.8828 114.543 51.0181C114.712 51.1535 114.928 51.2211 115.193 51.2211ZM119.534 51.743C119.302 51.743 119.114 51.7112 118.971 51.6477C118.83 51.5842 118.721 51.4986 118.643 51.3909C118.569 51.2832 118.518 51.1604 118.49 51.0223C118.465 50.8815 118.453 50.7365 118.453 50.5874V45.5341H119.207V50.5128C119.207 50.7282 119.248 50.8897 119.331 50.9974C119.416 51.1051 119.535 51.1645 119.687 51.1755L119.919 51.1797V51.6767C119.856 51.6961 119.789 51.7112 119.72 51.7223C119.651 51.7361 119.589 51.743 119.534 51.743ZM124.946 51.772C124.695 51.772 124.482 51.7389 124.308 51.6726C124.137 51.6063 123.996 51.5221 123.886 51.4199C123.775 51.315 123.69 51.2087 123.629 51.101C123.568 50.9905 123.524 50.8939 123.496 50.811L123.413 51.6891H122.829V45.5341H123.6V48.0856C123.636 48.0138 123.69 47.9351 123.761 47.8495C123.836 47.7639 123.931 47.6811 124.047 47.601C124.163 47.5209 124.3 47.4547 124.457 47.4022C124.617 47.3497 124.8 47.3235 125.004 47.3235C125.54 47.3235 125.965 47.5099 126.28 47.8827C126.597 48.2554 126.756 48.8049 126.756 49.5312C126.756 49.9813 126.688 50.3748 126.553 50.7116C126.418 51.0458 126.216 51.3067 125.948 51.4945C125.68 51.6795 125.346 51.772 124.946 51.772ZM124.809 51.1838C125.157 51.1838 125.44 51.0499 125.658 50.7821C125.876 50.5114 125.986 50.0821 125.986 49.4939C125.986 48.9941 125.883 48.6075 125.679 48.3341C125.477 48.058 125.182 47.9199 124.793 47.9199C124.508 47.9199 124.279 47.9821 124.105 48.1063C123.934 48.2278 123.807 48.4059 123.724 48.6406C123.644 48.8754 123.603 49.1598 123.6 49.4939C123.6 50.0931 123.692 50.5252 123.877 50.7903C124.065 51.0527 124.376 51.1838 124.809 51.1838ZM129.458 51.772C129.064 51.772 128.718 51.6878 128.423 51.5193C128.127 51.3481 127.898 51.0982 127.735 50.7696C127.572 50.441 127.491 50.0393 127.491 49.5643C127.491 49.117 127.567 48.7249 127.719 48.388C127.871 48.0511 128.093 47.7902 128.386 47.6051C128.681 47.4174 129.039 47.3235 129.458 47.3235C129.853 47.3235 130.196 47.4105 130.486 47.5844C130.778 47.7556 131.005 48.0083 131.165 48.3424C131.325 48.6765 131.405 49.0838 131.405 49.5643C131.405 50.0006 131.331 50.3844 131.182 50.7158C131.035 51.0471 130.817 51.3067 130.527 51.4945C130.24 51.6795 129.884 51.772 129.458 51.772ZM129.458 51.1673C129.715 51.1673 129.932 51.1024 130.109 50.9726C130.285 50.8428 130.419 50.6564 130.511 50.4134C130.602 50.1704 130.647 49.8819 130.647 49.5477C130.647 49.2412 130.607 48.9665 130.527 48.7235C130.447 48.4777 130.319 48.2831 130.142 48.1395C129.968 47.9959 129.74 47.9241 129.458 47.9241C129.199 47.9241 128.979 47.989 128.8 48.1188C128.62 48.2458 128.484 48.4308 128.39 48.6738C128.299 48.9168 128.253 49.2081 128.253 49.5477C128.253 49.8487 128.295 50.1221 128.377 50.3679C128.46 50.6136 128.59 50.8083 128.767 50.9519C128.943 51.0955 129.174 51.1673 129.458 51.1673ZM133.953 51.772C133.398 51.772 132.957 51.5815 132.631 51.2004C132.306 50.8193 132.143 50.2629 132.143 49.5312C132.143 49.0866 132.208 48.6986 132.337 48.3673C132.47 48.0359 132.666 47.7791 132.925 47.5969C133.185 47.4146 133.508 47.3235 133.895 47.3235C134.099 47.3235 134.28 47.3497 134.437 47.4022C134.597 47.4547 134.736 47.5209 134.852 47.601C134.967 47.6811 135.061 47.7639 135.133 47.8495C135.208 47.9351 135.263 48.0138 135.299 48.0856V45.5341H136.069V51.6891H135.485L135.402 50.811C135.375 50.8939 135.331 50.9905 135.27 51.101C135.209 51.2087 135.123 51.315 135.013 51.4199C134.903 51.5221 134.76 51.6063 134.586 51.6726C134.415 51.7389 134.204 51.772 133.953 51.772ZM134.089 51.1838C134.523 51.1838 134.832 51.0527 135.017 50.7903C135.205 50.5252 135.299 50.0931 135.299 49.4939C135.296 49.1598 135.253 48.8754 135.17 48.6406C135.09 48.4059 134.963 48.2278 134.789 48.1063C134.618 47.9821 134.39 47.9199 134.106 47.9199C133.752 47.9199 133.465 48.0456 133.244 48.2969C133.024 48.5481 132.913 48.9471 132.913 49.4939C132.913 50.0296 133.012 50.4452 133.211 50.7406C133.413 51.0361 133.706 51.1838 134.089 51.1838ZM137.757 53.056C137.506 53.056 137.333 53.0381 137.239 53.0022C137.145 52.9663 137.098 52.9483 137.098 52.9483V52.4513L137.533 52.4596C137.693 52.4651 137.826 52.454 137.931 52.4264C138.036 52.3988 138.12 52.3615 138.184 52.3146C138.247 52.2676 138.295 52.2152 138.329 52.1572C138.364 52.0992 138.393 52.044 138.415 51.9915L138.565 51.5856L136.891 47.4063H137.666L138.929 50.7116L140.184 47.4063H140.934L139.128 52.0122C139.017 52.2828 138.893 52.4941 138.755 52.6459C138.62 52.7978 138.468 52.9041 138.3 52.9649C138.134 53.0256 137.953 53.056 137.757 53.056ZM145.804 47.9655H144.839V50.6288C144.839 50.7807 144.854 50.8925 144.885 50.9643C144.918 51.0333 144.972 51.0775 145.046 51.0968C145.124 51.1162 145.228 51.1258 145.361 51.1258H145.829V51.6394C145.777 51.6588 145.697 51.6753 145.589 51.6891C145.484 51.703 145.353 51.7099 145.195 51.7099C144.9 51.7099 144.671 51.6698 144.508 51.5897C144.345 51.5097 144.23 51.3909 144.164 51.2335C144.1 51.0761 144.069 50.8828 144.069 50.6537V47.9655H143.373V47.4063H144.089L144.276 46.1596H144.839V47.4022H145.804V47.9655ZM147.338 49.7258C147.338 49.9965 147.382 50.2422 147.471 50.4631C147.562 50.6813 147.699 50.8552 147.881 50.985C148.066 51.1148 148.296 51.1797 148.572 51.1797C148.846 51.1797 149.081 51.1162 149.277 50.9892C149.475 50.8621 149.602 50.6785 149.658 50.4383H150.383C150.33 50.7282 150.214 50.9726 150.035 51.1714C149.855 51.3702 149.638 51.5207 149.384 51.6229C149.13 51.7223 148.865 51.772 148.589 51.772C148.189 51.772 147.837 51.685 147.533 51.511C147.229 51.3371 146.992 51.0872 146.82 50.7613C146.649 50.4355 146.564 50.0448 146.564 49.5892C146.564 49.1391 146.641 48.7442 146.796 48.4045C146.95 48.0649 147.174 47.7998 147.467 47.6093C147.762 47.4188 148.117 47.3235 148.531 47.3235C148.934 47.3235 149.275 47.4105 149.554 47.5844C149.833 47.7584 150.044 48.0042 150.188 48.3217C150.334 48.6365 150.407 49.0107 150.407 49.4442V49.7258H147.338ZM147.342 49.2081H149.67C149.67 48.9623 149.629 48.7414 149.546 48.5454C149.463 48.3466 149.336 48.1905 149.165 48.0773C148.996 47.9614 148.784 47.9034 148.527 47.9034C148.259 47.9034 148.037 47.9683 147.86 48.098C147.686 48.2251 147.555 48.3894 147.467 48.5909C147.381 48.7898 147.34 48.9955 147.342 49.2081ZM154.946 51.6891H154.113L152.866 50.0116L151.628 51.6891H150.787L152.44 49.4649L150.92 47.4063H151.756L152.866 48.9099L153.98 47.4063H154.817L153.293 49.4649L154.946 51.6891ZM157.947 47.9655H156.982V50.6288C156.982 50.7807 156.997 50.8925 157.028 50.9643C157.061 51.0333 157.115 51.0775 157.189 51.0968C157.266 51.1162 157.371 51.1258 157.504 51.1258H157.972V51.6394C157.919 51.6588 157.839 51.6753 157.732 51.6891C157.627 51.703 157.496 51.7099 157.338 51.7099C157.043 51.7099 156.814 51.6698 156.651 51.5897C156.488 51.5097 156.373 51.3909 156.307 51.2335C156.243 51.0761 156.212 50.8828 156.212 50.6537V47.9655H155.516V47.4063H156.232L156.419 46.1596H156.982V47.4022H157.947V47.9655ZM162.763 53.1057C162.089 53.1057 161.564 53.0077 161.189 52.8116C160.816 52.6183 160.63 52.3408 160.63 51.9791C160.63 51.8245 160.665 51.6933 160.737 51.5856C160.809 51.4751 160.895 51.384 160.994 51.3122C161.093 51.2404 161.186 51.1838 161.272 51.1424C161.357 51.0982 161.412 51.0665 161.437 51.0471C161.39 51.0195 161.331 50.985 161.259 50.9436C161.19 50.9022 161.129 50.8469 161.077 50.7779C161.024 50.7089 160.998 50.6191 160.998 50.5087C160.998 50.3734 161.062 50.2491 161.189 50.1359C161.316 50.0227 161.503 49.9385 161.752 49.8832C161.501 49.7562 161.305 49.5878 161.164 49.3779C161.023 49.1681 160.953 48.9402 160.953 48.6945C160.953 48.4184 161.027 48.1781 161.176 47.9738C161.328 47.7694 161.544 47.6134 161.822 47.5057C162.101 47.3953 162.433 47.3401 162.816 47.3401C163.095 47.3401 163.33 47.3732 163.521 47.4395C163.711 47.503 163.888 47.5941 164.051 47.7128C164.095 47.6935 164.164 47.6645 164.258 47.6259C164.355 47.5844 164.461 47.5403 164.577 47.4933C164.693 47.4464 164.8 47.4022 164.9 47.3608C165.002 47.3166 165.084 47.2834 165.144 47.2614L165.14 47.9696L164.39 48.1105C164.432 48.1988 164.465 48.2955 164.49 48.4004C164.517 48.5053 164.531 48.6034 164.531 48.6945C164.531 48.9458 164.465 49.1736 164.332 49.3779C164.203 49.5823 164.005 49.7452 163.74 49.8667C163.475 49.9882 163.144 50.0489 162.746 50.0489C162.713 50.0489 162.67 50.0489 162.618 50.0489C162.568 50.0462 162.525 50.0434 162.489 50.0406C162.197 50.0489 161.995 50.0821 161.885 50.14C161.774 50.1953 161.719 50.2574 161.719 50.3264C161.719 50.4065 161.781 50.4617 161.905 50.4921C162.03 50.5225 162.241 50.5487 162.539 50.5708C162.647 50.5763 162.779 50.5832 162.937 50.5915C163.097 50.5998 163.273 50.6108 163.467 50.6247C163.917 50.6523 164.263 50.7669 164.506 50.9684C164.749 51.17 164.871 51.442 164.871 51.7844C164.871 52.1738 164.697 52.4913 164.349 52.7371C164.001 52.9828 163.472 53.1057 162.763 53.1057ZM162.899 52.6128C163.294 52.6128 163.597 52.5534 163.806 52.4347C164.016 52.316 164.121 52.1365 164.121 51.8962C164.121 51.725 164.056 51.5856 163.927 51.4779C163.8 51.3675 163.605 51.3039 163.343 51.2874L162.141 51.2087C162.034 51.2032 161.922 51.2308 161.806 51.2915C161.69 51.3495 161.59 51.431 161.508 51.5359C161.428 51.6408 161.387 51.7596 161.387 51.8921C161.387 52.1185 161.51 52.2953 161.756 52.4223C162.005 52.5493 162.386 52.6128 162.899 52.6128ZM162.767 49.556C163.076 49.556 163.325 49.4842 163.512 49.3406C163.703 49.197 163.798 48.9844 163.798 48.7028C163.798 48.4128 163.703 48.1919 163.512 48.0401C163.325 47.8882 163.076 47.8122 162.767 47.8122C162.455 47.8122 162.202 47.8896 162.009 48.0442C161.818 48.1961 161.723 48.4156 161.723 48.7028C161.723 48.9734 161.814 49.1832 161.996 49.3324C162.179 49.4815 162.435 49.556 162.767 49.556ZM167.667 51.772C167.272 51.772 166.927 51.6878 166.631 51.5193C166.336 51.3481 166.107 51.0982 165.944 50.7696C165.781 50.441 165.699 50.0393 165.699 49.5643C165.699 49.117 165.775 48.7249 165.927 48.388C166.079 48.0511 166.301 47.7902 166.594 47.6051C166.889 47.4174 167.247 47.3235 167.667 47.3235C168.062 47.3235 168.404 47.4105 168.694 47.5844C168.987 47.7556 169.213 48.0083 169.373 48.3424C169.533 48.6765 169.613 49.0838 169.613 49.5643C169.613 50.0006 169.539 50.3844 169.39 50.7158C169.243 51.0471 169.025 51.3067 168.735 51.4945C168.448 51.6795 168.092 51.772 167.667 51.772ZM167.667 51.1673C167.923 51.1673 168.14 51.1024 168.317 50.9726C168.494 50.8428 168.628 50.6564 168.719 50.4134C168.81 50.1704 168.855 49.8819 168.855 49.5477C168.855 49.2412 168.815 48.9665 168.735 48.7235C168.655 48.4777 168.527 48.2831 168.35 48.1395C168.176 47.9959 167.948 47.9241 167.667 47.9241C167.407 47.9241 167.188 47.989 167.008 48.1188C166.829 48.2458 166.692 48.4308 166.598 48.6738C166.507 48.9168 166.461 49.2081 166.461 49.5477C166.461 49.8487 166.503 50.1221 166.586 50.3679C166.668 50.6136 166.798 50.8083 166.975 50.9519C167.152 51.0955 167.382 51.1673 167.667 51.1673ZM171.163 49.7258C171.163 49.9965 171.207 50.2422 171.295 50.4631C171.386 50.6813 171.523 50.8552 171.705 50.985C171.89 51.1148 172.121 51.1797 172.397 51.1797C172.67 51.1797 172.905 51.1162 173.101 50.9892C173.3 50.8621 173.427 50.6785 173.482 50.4383H174.207C174.155 50.7282 174.039 50.9726 173.859 51.1714C173.68 51.3702 173.463 51.5207 173.209 51.6229C172.955 51.7223 172.69 51.772 172.414 51.772C172.013 51.772 171.661 51.685 171.357 51.511C171.054 51.3371 170.816 51.0872 170.645 50.7613C170.474 50.4355 170.388 50.0448 170.388 49.5892C170.388 49.1391 170.465 48.7442 170.62 48.4045C170.775 48.0649 170.998 47.7998 171.291 47.6093C171.587 47.4188 171.941 47.3235 172.356 47.3235C172.759 47.3235 173.1 47.4105 173.379 47.5844C173.658 47.7584 173.869 48.0042 174.012 48.3217C174.159 48.6365 174.232 49.0107 174.232 49.4442V49.7258H171.163ZM171.167 49.2081H173.495C173.495 48.9623 173.453 48.7414 173.37 48.5454C173.288 48.3466 173.161 48.1905 172.989 48.0773C172.821 47.9614 172.608 47.9034 172.351 47.9034C172.084 47.9034 171.861 47.9683 171.685 48.098C171.511 48.2251 171.379 48.3894 171.291 48.5909C171.206 48.7898 171.164 48.9955 171.167 49.2081ZM176.772 51.772C176.473 51.772 176.196 51.7264 175.939 51.6353C175.685 51.5414 175.474 51.3964 175.305 51.2004C175.137 51.0016 175.031 50.7489 174.986 50.4424H175.682C175.721 50.6108 175.79 50.7517 175.889 50.8649C175.991 50.9753 176.119 51.0596 176.27 51.1176C176.422 51.1728 176.588 51.2004 176.767 51.2004C177.055 51.2004 177.287 51.1465 177.463 51.0389C177.64 50.9312 177.728 50.7655 177.728 50.5418C177.728 50.3844 177.681 50.2588 177.588 50.1649C177.496 50.0682 177.354 49.9978 177.161 49.9537L176.275 49.7341C175.929 49.6513 175.653 49.5215 175.446 49.3448C175.239 49.1681 175.135 48.9209 175.135 48.6034C175.133 48.3521 175.192 48.1312 175.314 47.9406C175.435 47.7501 175.617 47.5996 175.86 47.4892C176.103 47.3787 176.406 47.3235 176.767 47.3235C177.231 47.3235 177.605 47.4284 177.89 47.6383C178.177 47.8454 178.326 48.1505 178.337 48.5537H177.662C177.634 48.3493 177.542 48.1878 177.385 48.069C177.23 47.9475 177.021 47.8868 176.759 47.8868C176.486 47.8868 176.263 47.942 176.092 48.0525C175.921 48.1602 175.835 48.3286 175.835 48.5578C175.835 48.7097 175.896 48.8298 176.018 48.9182C176.139 49.0038 176.319 49.0756 176.556 49.1335L177.414 49.3489C177.612 49.4014 177.775 49.4704 177.902 49.556C178.032 49.6416 178.134 49.7369 178.209 49.8418C178.286 49.9468 178.34 50.0572 178.37 50.1732C178.404 50.2864 178.42 50.3955 178.42 50.5004C178.42 50.7627 178.354 50.9892 178.221 51.1797C178.091 51.3675 177.904 51.5138 177.658 51.6187C177.415 51.7209 177.119 51.772 176.772 51.772ZM181.367 51.6891V45.5341H182.113V48.0359C182.185 47.9172 182.281 47.8067 182.403 47.7046C182.524 47.5996 182.672 47.5154 182.846 47.4519C183.02 47.3856 183.222 47.3525 183.451 47.3525C183.73 47.3525 183.982 47.4049 184.209 47.5099C184.435 47.612 184.615 47.7584 184.747 47.9489C184.88 48.1395 184.946 48.3659 184.946 48.6282V51.6891H184.18V48.7815C184.18 48.5247 184.091 48.3272 183.915 48.1892C183.741 48.0483 183.513 47.9779 183.231 47.9779C183.041 47.9779 182.861 48.0097 182.693 48.0732C182.524 48.1339 182.388 48.2278 182.283 48.3548C182.181 48.4791 182.129 48.6379 182.129 48.8312V51.6891H181.367ZM186.687 49.7258C186.687 49.9965 186.731 50.2422 186.82 50.4631C186.911 50.6813 187.047 50.8552 187.23 50.985C187.415 51.1148 187.645 51.1797 187.921 51.1797C188.195 51.1797 188.429 51.1162 188.626 50.9892C188.824 50.8621 188.951 50.6785 189.007 50.4383H189.731C189.679 50.7282 189.563 50.9726 189.384 51.1714C189.204 51.3702 188.987 51.5207 188.733 51.6229C188.479 51.7223 188.214 51.772 187.938 51.772C187.538 51.772 187.186 51.685 186.882 51.511C186.578 51.3371 186.341 51.0872 186.169 50.7613C185.998 50.4355 185.913 50.0448 185.913 49.5892C185.913 49.1391 185.99 48.7442 186.144 48.4045C186.299 48.0649 186.523 47.7998 186.815 47.6093C187.111 47.4188 187.466 47.3235 187.88 47.3235C188.283 47.3235 188.624 47.4105 188.903 47.5844C189.182 47.7584 189.393 48.0042 189.537 48.3217C189.683 48.6365 189.756 49.0107 189.756 49.4442V49.7258H186.687ZM186.691 49.2081H189.019C189.019 48.9623 188.978 48.7414 188.895 48.5454C188.812 48.3466 188.685 48.1905 188.514 48.0773C188.345 47.9614 188.133 47.9034 187.876 47.9034C187.608 47.9034 187.386 47.9683 187.209 48.098C187.035 48.2251 186.904 48.3894 186.815 48.5909C186.73 48.7898 186.688 48.9955 186.691 49.2081ZM190.808 51.6891V47.4063H191.537V48.2306C191.609 48.0262 191.71 47.8578 191.84 47.7253C191.969 47.59 192.117 47.4892 192.283 47.4229C192.451 47.3566 192.625 47.3235 192.805 47.3235C192.868 47.3235 192.93 47.3276 192.991 47.3359C193.052 47.3442 193.099 47.358 193.132 47.3773V48.1188C193.09 48.0994 193.037 48.087 192.97 48.0815C192.907 48.0732 192.853 48.069 192.809 48.069C192.638 48.058 192.477 48.069 192.328 48.1022C192.179 48.1326 192.048 48.1864 191.935 48.2637C191.822 48.341 191.732 48.4432 191.666 48.5702C191.602 48.6945 191.57 48.8464 191.57 49.0258V51.6891H190.808ZM194.47 49.7258C194.47 49.9965 194.514 50.2422 194.602 50.4631C194.693 50.6813 194.83 50.8552 195.012 50.985C195.197 51.1148 195.428 51.1797 195.704 51.1797C195.977 51.1797 196.212 51.1162 196.408 50.9892C196.607 50.8621 196.734 50.6785 196.789 50.4383H197.514C197.461 50.7282 197.345 50.9726 197.166 51.1714C196.986 51.3702 196.77 51.5207 196.516 51.6229C196.262 51.7223 195.997 51.772 195.72 51.772C195.32 51.772 194.968 51.685 194.664 51.511C194.36 51.3371 194.123 51.0872 193.952 50.7613C193.781 50.4355 193.695 50.0448 193.695 49.5892C193.695 49.1391 193.772 48.7442 193.927 48.4045C194.082 48.0649 194.305 47.7998 194.598 47.6093C194.893 47.4188 195.248 47.3235 195.662 47.3235C196.066 47.3235 196.407 47.4105 196.685 47.5844C196.964 47.7584 197.176 48.0042 197.319 48.3217C197.466 48.6365 197.539 49.0107 197.539 49.4442V49.7258H194.47ZM194.474 49.2081H196.801C196.801 48.9623 196.76 48.7414 196.677 48.5454C196.594 48.3466 196.467 48.1905 196.296 48.0773C196.128 47.9614 195.915 47.9034 195.658 47.9034C195.39 47.9034 195.168 47.9683 194.991 48.098C194.817 48.2251 194.686 48.3894 194.598 48.5909C194.512 48.7898 194.471 48.9955 194.474 49.2081ZM198.412 51.6891V50.7116H199.324V51.6891H198.412Z" fill="black"/>
<rect x="89.0354" y="34.8875" width="142.929" height="0.517749" fill="#DEE2E6"/>
<path d="M221.053 21.6242L222.671 20.0063C222.882 19.8121 222.882 19.4885 222.671 19.2943L222.315 18.9384C222.121 18.7281 221.797 18.7281 221.603 18.9384L219.985 20.5564L218.351 18.9384C218.157 18.7281 217.833 18.7281 217.639 18.9384L217.283 19.2943C217.073 19.4885 217.073 19.8121 217.283 20.0063L218.901 21.6242L217.283 23.2584C217.073 23.4525 217.073 23.7761 217.283 23.9703L217.639 24.3262C217.833 24.5366 218.157 24.5366 218.351 24.3262L219.985 22.7083L221.603 24.3262C221.797 24.5366 222.121 24.5366 222.315 24.3262L222.671 23.9703C222.882 23.7761 222.882 23.4525 222.671 23.2584L221.053 21.6242Z" fill="#6C757D"/>
<path d="M109.549 25.7307V18.2441H111.744L113.458 23.5821L115.187 18.2441H117.377V25.7307H115.85V20.0044L114.048 25.7307H112.862L111.071 20.0303V25.7307H109.549ZM121.02 25.8343C120.495 25.8343 120.038 25.7221 119.648 25.4977C119.261 25.2734 118.961 24.9558 118.747 24.5451C118.536 24.1343 118.431 23.6476 118.431 23.085C118.431 22.5224 118.536 22.0305 118.747 21.6094C118.961 21.1883 119.261 20.8604 119.648 20.6257C120.038 20.391 120.497 20.2736 121.025 20.2736C121.553 20.2736 122.011 20.3893 122.397 20.6205C122.784 20.8483 123.082 21.1728 123.293 21.5939C123.503 22.015 123.609 22.512 123.609 23.085C123.609 23.6235 123.505 24.0998 123.298 24.514C123.094 24.9248 122.799 25.2475 122.413 25.4822C122.03 25.7169 121.565 25.8343 121.02 25.8343ZM121.025 24.7107C121.291 24.7107 121.505 24.6331 121.667 24.4778C121.829 24.3224 121.947 24.1188 122.019 23.8668C122.095 23.6114 122.133 23.3335 122.133 23.0332C122.133 22.7502 122.099 22.4827 122.03 22.2307C121.964 21.9788 121.85 21.7751 121.688 21.6198C121.526 21.4645 121.305 21.3868 121.025 21.3868C120.759 21.3868 120.544 21.461 120.378 21.6094C120.216 21.7544 120.097 21.9529 120.021 22.2048C119.945 22.4534 119.907 22.7295 119.907 23.0332C119.907 23.3128 119.941 23.5821 120.01 23.8409C120.079 24.0964 120.195 24.3052 120.357 24.4674C120.519 24.6296 120.742 24.7107 121.025 24.7107ZM126.605 25.8343C125.887 25.8343 125.328 25.5875 124.927 25.0939C124.527 24.5968 124.327 23.9065 124.327 23.0229C124.327 22.4637 124.408 21.9788 124.57 21.568C124.732 21.1573 124.972 20.8397 125.29 20.6154C125.607 20.3875 125.996 20.2736 126.455 20.2736C126.648 20.2736 126.827 20.2961 126.993 20.3409C127.162 20.3824 127.316 20.441 127.454 20.517C127.592 20.5929 127.713 20.6809 127.816 20.781C127.92 20.8811 128.004 20.9881 128.07 21.102V18.037H129.587V25.7307H128.489L128.318 24.6331C128.27 24.7815 128.203 24.9265 128.117 25.068C128.03 25.2095 127.92 25.3389 127.785 25.4563C127.651 25.5702 127.485 25.6617 127.288 25.7307C127.095 25.7997 126.867 25.8343 126.605 25.8343ZM126.936 24.747C127.316 24.747 127.599 24.6141 127.785 24.3483C127.975 24.0825 128.07 23.6338 128.07 23.0022C128.067 22.6363 128.023 22.3326 127.941 22.0909C127.858 21.8493 127.733 21.6698 127.568 21.5525C127.406 21.4317 127.198 21.3713 126.946 21.3713C126.619 21.3713 126.346 21.4973 126.128 21.7492C125.911 21.9977 125.802 22.4154 125.802 23.0022C125.802 23.5993 125.904 24.0394 126.108 24.3224C126.311 24.6055 126.587 24.747 126.936 24.747ZM132.439 25.8343C132.098 25.8343 131.791 25.7704 131.518 25.6427C131.245 25.515 131.029 25.3303 130.871 25.0887C130.712 24.8436 130.632 24.5468 130.632 24.1982C130.632 23.6114 130.852 23.1661 131.29 22.8624C131.728 22.5552 132.42 22.3964 133.366 22.3861L134.034 22.3757V22.0547C134.034 21.8096 133.962 21.6215 133.817 21.4903C133.675 21.3557 133.454 21.2902 133.154 21.2936C132.933 21.2971 132.722 21.3488 132.522 21.4489C132.326 21.549 132.191 21.7233 132.118 21.9719H130.86C130.881 21.5853 130.993 21.2677 131.197 21.0192C131.4 20.7672 131.677 20.5808 132.025 20.46C132.377 20.3358 132.776 20.2736 133.221 20.2736C133.77 20.2736 134.21 20.3427 134.542 20.4807C134.873 20.6154 135.113 20.8104 135.261 21.0658C135.41 21.3178 135.484 21.6181 135.484 21.9667V25.7307H134.22L134.096 24.8091C133.913 25.1957 133.684 25.4632 133.408 25.6116C133.135 25.7601 132.812 25.8343 132.439 25.8343ZM132.947 24.8402C133.085 24.8402 133.218 24.816 133.346 24.7677C133.477 24.7159 133.592 24.6486 133.692 24.5658C133.796 24.4795 133.879 24.3828 133.941 24.2758C134.003 24.1688 134.034 24.0584 134.034 23.9445V23.1523L133.49 23.1627C133.239 23.1661 133.004 23.1972 132.786 23.2559C132.569 23.3111 132.393 23.4026 132.258 23.5303C132.127 23.658 132.061 23.8306 132.061 24.048C132.061 24.2965 132.148 24.4916 132.32 24.6331C132.493 24.7712 132.702 24.8402 132.947 24.8402ZM138.531 25.8239C138.137 25.8239 137.825 25.7773 137.594 25.6841C137.362 25.5909 137.191 25.4684 137.081 25.3165C136.971 25.1612 136.9 24.9903 136.869 24.8039C136.838 24.6141 136.822 24.4225 136.822 24.2292V18.037H138.303V24.0429C138.303 24.2396 138.344 24.4001 138.427 24.5244C138.513 24.6452 138.674 24.7194 138.909 24.747L139.162 24.7625V25.6945C139.059 25.729 138.954 25.7583 138.847 25.7825C138.74 25.8101 138.634 25.8239 138.531 25.8239ZM145.615 21.4282H144.425L144.435 24.281C144.435 24.4122 144.45 24.5106 144.481 24.5761C144.516 24.6383 144.568 24.6797 144.637 24.7004C144.709 24.7177 144.801 24.7263 144.911 24.7263H145.631V25.6582C145.562 25.6893 145.453 25.7186 145.305 25.7462C145.16 25.7739 144.956 25.7877 144.694 25.7877C144.224 25.7877 143.86 25.7273 143.601 25.6065C143.346 25.4856 143.168 25.3165 143.068 25.0991C142.968 24.8816 142.918 24.6296 142.918 24.3431V21.4282H142.048V20.3772H142.97L143.348 18.7618H144.425V20.372H145.615V21.4282ZM148.254 20.3772V25.7307H146.81V20.3772H148.254ZM148.27 18.2492V19.6109H146.799V18.2492H148.27ZM152.886 21.4282H151.695L151.706 24.281C151.706 24.4122 151.721 24.5106 151.752 24.5761C151.787 24.6383 151.838 24.6797 151.908 24.7004C151.98 24.7177 152.071 24.7263 152.182 24.7263H152.902V25.6582C152.833 25.6893 152.724 25.7186 152.575 25.7462C152.43 25.7739 152.227 25.7877 151.964 25.7877C151.495 25.7877 151.131 25.7273 150.872 25.6065C150.617 25.4856 150.439 25.3165 150.339 25.0991C150.239 24.8816 150.189 24.6296 150.189 24.3431V21.4282H149.319V20.3772H150.24L150.618 18.7618H151.695V20.372H152.886V21.4282ZM155.711 25.8239C155.318 25.8239 155.006 25.7773 154.774 25.6841C154.543 25.5909 154.372 25.4684 154.262 25.3165C154.151 25.1612 154.081 24.9903 154.049 24.8039C154.018 24.6141 154.003 24.4225 154.003 24.2292V18.037H155.484V24.0429C155.484 24.2396 155.525 24.4001 155.608 24.5244C155.694 24.6452 155.855 24.7194 156.089 24.747L156.343 24.7625V25.6945C156.24 25.729 156.134 25.7583 156.027 25.7825C155.92 25.8101 155.815 25.8239 155.711 25.8239ZM158.542 23.4008C158.539 23.6735 158.582 23.9117 158.672 24.1153C158.761 24.3155 158.891 24.4709 159.06 24.5813C159.232 24.6883 159.44 24.7418 159.681 24.7418C159.94 24.7418 160.166 24.6866 160.359 24.5761C160.556 24.4657 160.692 24.2845 160.768 24.0325H162.13C162.071 24.4122 161.92 24.7366 161.674 25.0059C161.433 25.2751 161.139 25.4805 160.794 25.622C160.449 25.7635 160.09 25.8343 159.717 25.8343C159.189 25.8343 158.723 25.7238 158.319 25.5029C157.919 25.2785 157.607 24.9627 157.382 24.5554C157.158 24.1481 157.046 23.6683 157.046 23.1161C157.046 22.5811 157.148 22.0996 157.351 21.6716C157.555 21.2401 157.85 20.9001 158.237 20.6516C158.627 20.3996 159.094 20.2736 159.64 20.2736C160.185 20.2736 160.642 20.3893 161.012 20.6205C161.385 20.8483 161.664 21.1676 161.85 21.5784C162.04 21.9857 162.135 22.4568 162.135 22.9918V23.4008H158.542ZM158.537 22.5H160.722C160.722 22.286 160.682 22.0892 160.603 21.9097C160.523 21.7302 160.403 21.5887 160.24 21.4852C160.082 21.3816 159.881 21.3298 159.64 21.3298C159.405 21.3298 159.205 21.3868 159.039 21.5007C158.877 21.6112 158.753 21.7561 158.666 21.9356C158.58 22.1151 158.537 22.3032 158.537 22.5Z" fill="#00284D"/>
<path d="M101.284 27.1545C102.063 27.1545 102.685 26.5316 102.685 25.7307H99.8601C99.8601 26.5316 100.483 27.1545 101.284 27.1545ZM106.067 23.8397C105.644 23.3725 104.821 22.6829 104.821 20.3914C104.821 18.6784 103.62 17.2991 101.974 16.9431V16.476C101.974 16.0978 101.662 15.764 101.284 15.764C100.883 15.764 100.572 16.0978 100.572 16.476V16.9431C98.9258 17.2991 97.7244 18.6784 97.7244 20.3914C97.7244 22.6829 96.9013 23.3725 96.4786 23.8397C96.3451 23.9732 96.2784 24.1512 96.3006 24.3069C96.3006 24.6851 96.5676 25.0188 97.0125 25.0188H105.533C105.978 25.0188 106.245 24.6851 106.267 24.3069C106.267 24.1512 106.201 23.9732 106.067 23.8397Z" fill="#C0CEDB"/>
<path d="M90.071 10.0355H230.899V7.9645H90.071V10.0355ZM231.934 11.071V109.443H234.005V11.071H231.934ZM230.899 110.479H90.071V112.55H230.899V110.479ZM89.0355 109.443V11.071H86.9645V109.443H89.0355ZM90.071 110.479C89.4991 110.479 89.0355 110.015 89.0355 109.443H86.9645C86.9645 111.159 88.3553 112.55 90.071 112.55V110.479ZM231.934 109.443C231.934 110.015 231.471 110.479 230.899 110.479V112.55C232.614 112.55 234.005 111.159 234.005 109.443H231.934ZM230.899 10.0355C231.471 10.0355 231.934 10.4991 231.934 11.071H234.005C234.005 9.35532 232.614 7.9645 230.899 7.9645V10.0355ZM90.071 7.9645C88.3553 7.9645 86.9645 9.35534 86.9645 11.071H89.0355C89.0355 10.4991 89.4991 10.0355 90.071 10.0355V7.9645Z" fill="#00284D"/>
<g style="mix-blend-mode:color">
<rect width="320" height="120" fill="#808080"/>
</g>
<g style="mix-blend-mode:color">
<rect width="320" height="120" fill="#00284D"/>
</g>
<defs>
<filter id="filter0_d_442_3104" x="168.432" y="85.077" width="60.426" height="20.7099" filterUnits="userSpaceOnUse" color-interpolation-filters="sRGB">
<feFlood flood-opacity="0" result="BackgroundImageFix"/>
<feColorMatrix in="SourceAlpha" type="matrix" values="0 0 0 0 0 0 0 0 0 0 0 0 0 0 0 0 0 0 127 0" result="hardAlpha"/>
<feOffset dy="1.0355"/>
<feColorMatrix type="matrix" values="0 0 0 0 0.423529 0 0 0 0 0.458824 0 0 0 0 0.490196 0 0 0 0.62 0"/>
<feBlend mode="normal" in2="BackgroundImageFix" result="effect1_dropShadow_442_3104"/>
<feBlend mode="normal" in="SourceGraphic" in2="effect1_dropShadow_442_3104" result="shape"/>
</filter>
</defs>
</svg>
