<svg width="320" height="120" viewBox="0 0 320 120" fill="none" xmlns="http://www.w3.org/2000/svg">
<rect width="320" height="120" fill="#C0CEDB"/>
<g filter="url(#filter0_ii)">
<rect x="164" y="40" width="140" height="40" rx="4" fill="white"/>
<path d="M188.812 58.875H188.156V56.9062C188.156 54.6367 186.27 52.75 184 52.75C181.703 52.75 179.844 54.6367 179.844 56.9062V58.875H179.188C178.449 58.875 177.875 59.4766 177.875 60.1875V65.4375C177.875 66.1758 178.449 66.75 179.188 66.75H188.812C189.523 66.75 190.125 66.1758 190.125 65.4375V60.1875C190.125 59.4766 189.523 58.875 188.812 58.875ZM185.969 58.875H182.031V56.9062C182.031 55.8398 182.906 54.9375 184 54.9375C185.066 54.9375 185.969 55.8398 185.969 56.9062V58.875Z" fill="black"/>
<path d="M208 55.4062C205.324 55.4062 203.156 57.5742 203.156 60.25C203.156 62.9258 205.324 65.0938 208 65.0938C210.676 65.0938 212.844 62.9258 212.844 60.25C212.844 57.5742 210.676 55.4062 208 55.4062Z" fill="black"/>
<path d="M224 55.4062C221.324 55.4062 219.156 57.5742 219.156 60.25C219.156 62.9258 221.324 65.0938 224 65.0938C226.676 65.0938 228.844 62.9258 228.844 60.25C228.844 57.5742 226.676 55.4062 224 55.4062Z" fill="black"/>
<path d="M240 55.4062C237.324 55.4062 235.156 57.5742 235.156 60.25C235.156 62.9258 237.324 65.0938 240 65.0938C242.676 65.0938 244.844 62.9258 244.844 60.25C244.844 57.5742 242.676 55.4062 240 55.4062Z" fill="black"/>
<path d="M256 55.4062C253.324 55.4062 251.156 57.5742 251.156 60.25C251.156 62.9258 253.324 65.0938 256 65.0938C258.676 65.0938 260.844 62.9258 260.844 60.25C260.844 57.5742 258.676 55.4062 256 55.4062Z" fill="black"/>
</g>
<g filter="url(#filter1_ii)">
<rect x="16" y="40" width="140" height="40" rx="4" fill="white"/>
<path d="M55.048 66.16C56.024 66.168 57.192 65.808 57.488 64.36L57.76 66H59.52V57.728H57.208V63.112C57.208 63.968 56.624 64.464 55.712 64.464C54.744 64.464 54.232 63.92 54.232 63.152V57.728H51.896V63.448C51.896 65.208 53.528 66.152 55.048 66.16ZM64.8436 66.16C66.9076 66.16 68.3316 65.224 68.3316 63.568C68.3316 62.816 67.9396 61.608 66.0996 61.152L64.7556 60.848C63.8516 60.672 63.4436 60.44 63.4436 60.008C63.4436 59.424 64.0276 59.136 64.8276 59.136C65.6116 59.136 66.1636 59.496 66.2836 60.136H68.2356C68.2116 58.512 66.8916 57.568 64.8596 57.568C62.5956 57.568 61.3796 58.696 61.3876 60.184C61.3956 61.552 62.3636 62.248 63.8276 62.552L65.2836 62.856C66.0356 63 66.3316 63.248 66.3316 63.696C66.3316 64.288 65.7236 64.56 64.8356 64.56C64.1876 64.56 63.3636 64.272 63.1476 63.392H61.1316C61.4276 65.352 63.1156 66.16 64.8436 66.16ZM71.9291 62.4H77.4891V61.768C77.4891 59.288 76.1611 57.568 73.6331 57.568C71.0971 57.568 69.6171 59.472 69.6171 61.96C69.6171 64.528 71.2971 66.16 73.7531 66.16C75.4731 66.16 77.2011 65.144 77.4811 63.376H75.3771C75.1371 64.152 74.4971 64.472 73.6971 64.472C72.5771 64.472 71.9211 63.664 71.9291 62.4ZM71.9291 61.008C71.9211 60.096 72.5531 59.2 73.6251 59.2C74.7531 59.2 75.3051 60.008 75.3051 61.008H71.9291ZM79.1719 66H81.5079V61.472C81.5079 60.36 82.2119 59.624 84.0519 59.784C84.1639 59.792 84.3079 59.8 84.4039 59.84V57.616C84.3399 57.584 84.1959 57.568 84.0439 57.568C82.7399 57.568 81.8119 58.424 81.4199 59.688V57.728H79.1719V66ZM95.318 66.552L94.606 65.6C93.822 66.128 93.15 66.552 91.71 66.552C88.646 66.552 86.798 64.784 86.798 61.904C86.798 59.24 88.35 56.976 91.758 56.976C93.886 56.976 95.974 57.936 95.974 60.808C95.974 62.544 95.222 63.416 94.47 63.416C94.078 63.416 93.862 63.184 93.99 62.432L94.566 58.992H93.222L93.134 59.336C93.118 59.432 93.062 59.448 93.014 59.392C92.646 58.944 92.182 58.592 91.318 58.592C89.406 58.592 88.166 60.288 88.166 62.2C88.15 63.872 89.198 64.96 90.526 64.96C91.43 64.96 92.142 64.552 92.606 63.992C92.702 63.88 92.726 63.872 92.806 63.992C92.982 64.36 93.398 64.736 94.31 64.736C96.118 64.736 97.382 63.088 97.382 60.712C97.382 57.192 94.574 55.696 91.758 55.696C87.838 55.696 85.358 58.56 85.358 61.928C85.358 65.136 87.622 67.76 91.454 67.76C93.134 67.76 94.51 67.208 95.318 66.552ZM89.822 62.04C89.822 60.896 90.534 59.992 91.438 59.992C92.174 59.992 92.694 60.68 92.614 61.672C92.542 62.632 91.838 63.544 90.934 63.544C90.19 63.544 89.822 62.88 89.822 62.04Z" fill="#343A40"/>
<path d="M36 59.75C37.9141 59.75 39.5 58.1914 39.5 56.25C39.5 54.3359 37.9141 52.75 36 52.75C34.0586 52.75 32.5 54.3359 32.5 56.25C32.5 58.1914 34.0586 59.75 36 59.75ZM38.4336 60.625H37.9688C37.3672 60.9258 36.7109 61.0625 36 61.0625C35.2891 61.0625 34.6055 60.9258 34.0039 60.625H33.5391C31.5156 60.625 29.875 62.293 29.875 64.3164V65.4375C29.875 66.1758 30.4492 66.75 31.1875 66.75H40.8125C41.5234 66.75 42.125 66.1758 42.125 65.4375V64.3164C42.125 62.293 40.457 60.625 38.4336 60.625Z" fill="black"/>
</g>
<g style="mix-blend-mode:color">
<rect width="320" height="120" fill="#808080"/>
</g>
<g style="mix-blend-mode:color">
<rect width="320" height="120" fill="#00284D"/>
</g>
<defs>
<filter id="filter0_ii" x="164" y="40" width="140" height="41" filterUnits="userSpaceOnUse" color-interpolation-filters="sRGB">
<feFlood flood-opacity="0" result="BackgroundImageFix"/>
<feBlend mode="normal" in="SourceGraphic" in2="BackgroundImageFix" result="shape"/>
<feColorMatrix in="SourceAlpha" type="matrix" values="0 0 0 0 0 0 0 0 0 0 0 0 0 0 0 0 0 0 127 0" result="hardAlpha"/>
<feOffset dy="-2"/>
<feComposite in2="hardAlpha" operator="arithmetic" k2="-1" k3="1"/>
<feColorMatrix type="matrix" values="0 0 0 0 0.423529 0 0 0 0 0.458824 0 0 0 0 0.490196 0 0 0 1 0"/>
<feBlend mode="normal" in2="shape" result="effect1_innerShadow"/>
<feColorMatrix in="SourceAlpha" type="matrix" values="0 0 0 0 0 0 0 0 0 0 0 0 0 0 0 0 0 0 127 0" result="hardAlpha"/>
<feOffset dy="1"/>
<feGaussianBlur stdDeviation="0.5"/>
<feComposite in2="hardAlpha" operator="arithmetic" k2="-1" k3="1"/>
<feColorMatrix type="matrix" values="0 0 0 0 0.741176 0 0 0 0 0.756863 0 0 0 0 0.772549 0 0 0 1 0"/>
<feBlend mode="normal" in2="effect1_innerShadow" result="effect2_innerShadow"/>
</filter>
<filter id="filter1_ii" x="16" y="40" width="140" height="41" filterUnits="userSpaceOnUse" color-interpolation-filters="sRGB">
<feFlood flood-opacity="0" result="BackgroundImageFix"/>
<feBlend mode="normal" in="SourceGraphic" in2="BackgroundImageFix" result="shape"/>
<feColorMatrix in="SourceAlpha" type="matrix" values="0 0 0 0 0 0 0 0 0 0 0 0 0 0 0 0 0 0 127 0" result="hardAlpha"/>
<feOffset dy="-2"/>
<feComposite in2="hardAlpha" operator="arithmetic" k2="-1" k3="1"/>
<feColorMatrix type="matrix" values="0 0 0 0 0.423529 0 0 0 0 0.458824 0 0 0 0 0.490196 0 0 0 1 0"/>
<feBlend mode="normal" in2="shape" result="effect1_innerShadow"/>
<feColorMatrix in="SourceAlpha" type="matrix" values="0 0 0 0 0 0 0 0 0 0 0 0 0 0 0 0 0 0 127 0" result="hardAlpha"/>
<feOffset dy="1"/>
<feGaussianBlur stdDeviation="0.5"/>
<feComposite in2="hardAlpha" operator="arithmetic" k2="-1" k3="1"/>
<feColorMatrix type="matrix" values="0 0 0 0 0.741176 0 0 0 0 0.756863 0 0 0 0 0.772549 0 0 0 1 0"/>
<feBlend mode="normal" in2="effect1_innerShadow" result="effect2_innerShadow"/>
</filter>
</defs>
</svg>
