<svg width="320" height="120" viewBox="0 0 320 120" fill="none" xmlns="http://www.w3.org/2000/svg">
<rect width="320" height="120" fill="#C0CEDB"/>
<g clip-path="url(#clip0_454_428)">
<rect width="200" height="99.1948" transform="translate(60 10)" fill="#00284D"/>
<path d="M66.8586 74.1102C66.8774 74.1102 66.9298 74.1102 67.0157 74.1102C67.1033 74.1102 67.2055 74.1102 67.3223 74.1102C67.4408 74.1102 67.5585 74.111 67.6753 74.1127C67.7938 74.1127 67.8926 74.1136 67.9716 74.1153C68.4233 74.1256 68.7909 74.2063 69.0743 74.3575C69.3595 74.5086 69.569 74.7199 69.703 74.9913C69.837 75.2627 69.904 75.5839 69.904 75.9549C69.904 76.3414 69.8335 76.6755 69.6927 76.9572C69.5518 77.2372 69.3363 77.4536 69.046 77.6064C68.7574 77.7593 68.3907 77.8358 67.9458 77.8358H66.8586V74.1102ZM67.616 74.7182V77.2277H67.9613C68.1743 77.2277 68.3675 77.1865 68.541 77.104C68.7162 77.0216 68.8562 76.8867 68.961 76.6995C69.0657 76.5123 69.1181 76.2624 69.1181 75.9498C69.1181 75.5152 69.0151 75.2017 68.809 75.0093C68.6046 74.8153 68.3254 74.7182 67.9716 74.7182H67.616ZM71.0903 76.6763C71.0886 76.8807 71.1376 77.0431 71.2372 77.1633C71.3368 77.2835 71.4768 77.3436 71.6571 77.3436C71.786 77.3436 71.8985 77.3162 71.9947 77.2612C72.0926 77.2062 72.1604 77.1161 72.1982 76.9907H72.8758C72.8466 77.1796 72.771 77.3411 72.6491 77.475C72.5289 77.609 72.3829 77.7112 72.2111 77.7816C72.0393 77.8521 71.8607 77.8873 71.6752 77.8873C71.4107 77.8873 71.1788 77.8323 70.9795 77.7224C70.7803 77.6107 70.6248 77.4536 70.5132 77.2509C70.4015 77.0482 70.3457 76.8095 70.3457 76.5346C70.3457 76.2684 70.3964 76.0288 70.4977 75.8158C70.5991 75.6011 70.7459 75.4319 70.9383 75.3082C71.1324 75.1828 71.3651 75.1201 71.6365 75.1201C71.9079 75.1201 72.1355 75.1777 72.3193 75.2928C72.5048 75.4061 72.6439 75.565 72.7367 75.7694C72.8312 75.9721 72.8784 76.2066 72.8784 76.4728V76.6763H71.0903ZM71.0877 76.228H72.175C72.175 76.0666 72.1304 75.9292 72.041 75.8158C71.9517 75.7024 71.8169 75.6457 71.6365 75.6457C71.5197 75.6457 71.4201 75.6741 71.3377 75.7308C71.2569 75.7874 71.1951 75.8604 71.1522 75.9498C71.1092 76.0374 71.0877 76.1301 71.0877 76.228ZM74.4444 77.8873C74.2572 77.8873 74.0786 77.8572 73.9085 77.7971C73.7385 77.7353 73.5933 77.6391 73.4731 77.5085C73.3528 77.378 73.2773 77.2071 73.2464 76.9958H73.8982C73.9308 77.1384 74.003 77.2372 74.1146 77.2921C74.228 77.3454 74.3362 77.372 74.4393 77.372C74.5836 77.372 74.6995 77.3497 74.7871 77.305C74.8764 77.2586 74.9211 77.1882 74.9211 77.0937C74.9211 77.0216 74.8944 76.964 74.8412 76.9211C74.7897 76.8782 74.7038 76.8455 74.5836 76.8232L74.1146 76.7253C73.8793 76.6755 73.6895 76.5913 73.5452 76.4728C73.4027 76.3526 73.3305 76.1825 73.3288 75.9626C73.3271 75.7222 73.4216 75.5221 73.6122 75.3623C73.8046 75.2009 74.0829 75.1201 74.447 75.1201C74.7751 75.1201 75.037 75.1931 75.2328 75.3391C75.4304 75.4834 75.5308 75.6861 75.5343 75.9472H74.9056C74.8867 75.8441 74.8352 75.7651 74.751 75.7102C74.6686 75.6535 74.5647 75.6251 74.4393 75.6251C74.3087 75.6251 74.2014 75.6483 74.1172 75.6947C74.033 75.7411 73.991 75.8115 73.991 75.906C73.991 75.9764 74.0253 76.0322 74.094 76.0734C74.1627 76.1129 74.2692 76.1473 74.4135 76.1765L74.8464 76.2744C75.0439 76.3225 75.1942 76.3929 75.2972 76.4857C75.402 76.5784 75.4724 76.6763 75.5085 76.7794C75.5463 76.8807 75.5652 76.9718 75.5652 77.0525C75.5652 77.3187 75.4613 77.5249 75.2534 77.6709C75.0456 77.8151 74.7759 77.8873 74.4444 77.8873ZM76.8581 74.1127V74.7903H76.1264V74.1127H76.8581ZM76.8504 75.1717V77.8358H76.1316V75.1717H76.8504ZM78.7462 78.7169C78.2721 78.7169 77.9114 78.6568 77.664 78.5366C77.4184 78.4163 77.2956 78.2583 77.2956 78.0625C77.2956 77.9714 77.3196 77.8959 77.3677 77.8358C77.4158 77.7739 77.4716 77.7241 77.5352 77.6863C77.6005 77.6485 77.6597 77.6202 77.713 77.6013C77.7679 77.5807 77.8014 77.5669 77.8135 77.5601C77.786 77.5446 77.7456 77.5223 77.6924 77.4931C77.6408 77.4622 77.5936 77.4209 77.5507 77.3694C77.5077 77.3162 77.4862 77.2475 77.4862 77.1633C77.4862 77.0688 77.5309 76.9821 77.6202 76.9031C77.7113 76.8223 77.8487 76.7657 78.0325 76.733C77.8555 76.6523 77.7216 76.5415 77.6305 76.4006C77.5412 76.2581 77.4966 76.1129 77.4966 75.9652C77.4966 75.79 77.5507 75.6406 77.6589 75.5169C77.7688 75.3915 77.9191 75.2962 78.1098 75.2309C78.3004 75.1639 78.516 75.1304 78.7565 75.1304C78.9402 75.1304 79.0905 75.1502 79.2073 75.1897C79.3241 75.2275 79.4324 75.2773 79.532 75.3391C79.5852 75.3185 79.6591 75.2893 79.7536 75.2515C79.8497 75.2137 79.9485 75.1742 80.0499 75.133C80.1529 75.0918 80.2414 75.0557 80.3152 75.0248L80.3127 75.6071L79.8515 75.6818C79.8704 75.7299 79.885 75.7806 79.8953 75.8338C79.9056 75.8854 79.9107 75.9283 79.9107 75.9626C79.9107 76.1172 79.8652 76.2615 79.7742 76.3955C79.6831 76.5295 79.5483 76.6377 79.3697 76.7201C79.191 76.8026 78.9694 76.8438 78.7049 76.8438C78.6723 76.8438 78.6285 76.8429 78.5735 76.8412C78.5186 76.8395 78.4748 76.8369 78.4421 76.8335C78.3408 76.8387 78.2712 76.8515 78.2334 76.8721C78.1956 76.8928 78.1767 76.9168 78.1767 76.9443C78.1767 76.9855 78.2145 77.013 78.2901 77.0267C78.3674 77.0405 78.4851 77.0516 78.6431 77.0602C78.6981 77.0637 78.7745 77.0688 78.8724 77.0757C78.9703 77.0808 79.0785 77.0869 79.197 77.0937C79.5217 77.1161 79.7647 77.1968 79.9262 77.3359C80.0876 77.4733 80.1684 77.6468 80.1684 77.8564C80.1684 78.1071 80.0499 78.3133 79.8128 78.4747C79.5775 78.6362 79.2219 78.7169 78.7462 78.7169ZM78.7255 76.4238C78.8681 76.4238 78.9823 76.3852 79.0682 76.3079C79.1558 76.2306 79.1996 76.1241 79.1996 75.9884C79.1996 75.8493 79.1558 75.7376 79.0682 75.6535C78.9823 75.5693 78.8681 75.5272 78.7255 75.5272C78.583 75.5272 78.4679 75.5702 78.3803 75.656C78.2927 75.7402 78.2489 75.851 78.2489 75.9884C78.2489 76.1207 78.291 76.2263 78.3751 76.3053C78.461 76.3843 78.5778 76.4238 78.7255 76.4238ZM78.8672 78.2969C79.0768 78.2969 79.2262 78.2712 79.3156 78.2197C79.4049 78.1681 79.4495 78.0943 79.4495 77.9981C79.4495 77.9173 79.4152 77.8521 79.3465 77.8023C79.2778 77.7507 79.1773 77.7207 79.045 77.7121L78.4344 77.6709C78.3142 77.664 78.2171 77.6923 78.1433 77.7559C78.0694 77.8194 78.0325 77.8924 78.0325 77.9749C78.0325 78.0865 78.1003 78.1681 78.236 78.2197C78.3717 78.2712 78.5821 78.2969 78.8672 78.2969ZM80.7477 77.8358V75.1717H81.4872V75.5478C81.549 75.4516 81.6409 75.3615 81.7629 75.2773C81.8848 75.1914 82.0506 75.1485 82.2601 75.1485C82.4233 75.1485 82.5753 75.1803 82.7162 75.2438C82.8587 75.3074 82.9738 75.4078 83.0614 75.5453C83.149 75.681 83.1928 75.8587 83.1928 76.0786V77.8358H82.4405V76.1713C82.4405 76.0271 82.3967 75.9188 82.3091 75.8467C82.2232 75.7746 82.1193 75.7385 81.9973 75.7385C81.8736 75.7385 81.7594 75.7711 81.6546 75.8364C81.5516 75.9017 81.5001 75.9996 81.5001 76.1301V77.8358H80.7477ZM86.3886 77.8873C86.2048 77.8873 86.0245 77.8641 85.8476 77.8177C85.6706 77.7713 85.5083 77.7018 85.3606 77.609C85.2146 77.5163 85.0944 77.4003 84.9999 77.2612C84.9054 77.1221 84.8487 76.9589 84.8298 76.7717H85.6002C85.638 76.94 85.7273 77.0697 85.8682 77.1607C86.0107 77.2518 86.1834 77.2973 86.386 77.2973C86.5904 77.2973 86.7665 77.2586 86.9142 77.1813C87.0637 77.104 87.1384 76.9864 87.1384 76.8283C87.1384 76.6875 87.0783 76.5827 86.958 76.514C86.8378 76.4453 86.6875 76.3929 86.5071 76.3568L85.863 76.2254C85.5813 76.1722 85.358 76.0606 85.1931 75.8905C85.0282 75.7205 84.9432 75.492 84.9381 75.2052C84.9363 74.9716 84.9982 74.7697 85.1236 74.5997C85.2507 74.4279 85.4224 74.2957 85.6389 74.2029C85.857 74.1102 86.1009 74.0638 86.3706 74.0638C86.6918 74.0638 86.9615 74.1144 87.1796 74.2158C87.3995 74.3154 87.5661 74.4511 87.6794 74.6229C87.7945 74.7929 87.8538 74.9827 87.8572 75.1923H87.1023C87.0817 74.9965 87.0053 74.8591 86.873 74.78C86.7407 74.701 86.5776 74.6615 86.3835 74.6615C86.1825 74.6615 86.0228 74.7045 85.9042 74.7903C85.7857 74.8745 85.7265 74.9836 85.7265 75.1176C85.7265 75.2258 85.7617 75.3134 85.8321 75.3804C85.9042 75.4473 86.0399 75.5023 86.2392 75.5453L86.8782 75.6767C87.1049 75.7213 87.2861 75.7874 87.4218 75.875C87.5575 75.9626 87.6588 76.0614 87.7258 76.1713C87.7945 76.2813 87.8392 76.3938 87.8598 76.5089C87.8821 76.6222 87.8933 76.727 87.8933 76.8232C87.8933 77.0242 87.8306 77.2054 87.7052 77.3668C87.5798 77.5266 87.4038 77.6537 87.177 77.7482C86.952 77.8409 86.6892 77.8873 86.3886 77.8873ZM88.897 78.686C88.715 78.686 88.5861 78.6705 88.5106 78.6396C88.4367 78.6104 88.3998 78.5958 88.3998 78.5958V78.1166L88.6626 78.1269C88.8172 78.1355 88.9314 78.1235 89.0053 78.0908C89.0808 78.0599 89.1315 78.0221 89.1573 77.9775C89.1847 77.9328 89.2036 77.8976 89.2139 77.8718L89.2629 77.725L88.2272 75.1717H88.9718L89.6107 76.9082L90.2574 75.1717H90.9917L89.9122 77.8512C89.8194 78.0779 89.7207 78.2514 89.6159 78.3717C89.5128 78.4919 89.402 78.5743 89.2835 78.619C89.165 78.6637 89.0362 78.686 88.897 78.686ZM92.354 77.8873C92.1668 77.8873 91.9882 77.8572 91.8181 77.7971C91.6481 77.7353 91.5029 77.6391 91.3827 77.5085C91.2625 77.378 91.1869 77.2071 91.156 76.9958H91.8078C91.8405 77.1384 91.9126 77.2372 92.0243 77.2921C92.1376 77.3454 92.2458 77.372 92.3489 77.372C92.4932 77.372 92.6091 77.3497 92.6967 77.305C92.786 77.2586 92.8307 77.1882 92.8307 77.0937C92.8307 77.0216 92.8041 76.964 92.7508 76.9211C92.6993 76.8782 92.6134 76.8455 92.4932 76.8232L92.0243 76.7253C91.7889 76.6755 91.5991 76.5913 91.4548 76.4728C91.3123 76.3526 91.2401 76.1825 91.2384 75.9626C91.2367 75.7222 91.3312 75.5221 91.5218 75.3623C91.7142 75.2009 91.9925 75.1201 92.3566 75.1201C92.6847 75.1201 92.9466 75.1931 93.1424 75.3391C93.34 75.4834 93.4405 75.6861 93.4439 75.9472H92.8152C92.7963 75.8441 92.7448 75.7651 92.6606 75.7102C92.5782 75.6535 92.4743 75.6251 92.3489 75.6251C92.2183 75.6251 92.111 75.6483 92.0268 75.6947C91.9427 75.7411 91.9006 75.8115 91.9006 75.906C91.9006 75.9764 91.9349 76.0322 92.0036 76.0734C92.0723 76.1129 92.1788 76.1473 92.3231 76.1765L92.756 76.2744C92.9535 76.3225 93.1038 76.3929 93.2069 76.4857C93.3116 76.5784 93.3821 76.6763 93.4181 76.7794C93.4559 76.8807 93.4748 76.9718 93.4748 77.0525C93.4748 77.3187 93.3709 77.5249 93.1631 77.6709C92.9552 77.8151 92.6856 77.8873 92.354 77.8873ZM95.5955 75.6947H95.003L95.0081 77.1143C95.0081 77.2122 95.027 77.2741 95.0648 77.2998C95.1026 77.3239 95.1627 77.3359 95.2451 77.3359H95.6033V77.7997C95.5672 77.8151 95.5131 77.8297 95.441 77.8435C95.3688 77.8572 95.2675 77.8641 95.1369 77.8641C94.9033 77.8641 94.7221 77.834 94.5933 77.7739C94.4662 77.7138 94.3777 77.6296 94.3279 77.5214C94.2781 77.4132 94.2532 77.2878 94.2532 77.1453V75.6947H93.8203V75.1717H94.279L94.467 74.3678H95.003V75.1691H95.5955V75.6947ZM96.6841 76.6763C96.6824 76.8807 96.7313 77.0431 96.831 77.1633C96.9306 77.2835 97.0706 77.3436 97.2509 77.3436C97.3798 77.3436 97.4923 77.3162 97.5885 77.2612C97.6864 77.2062 97.7542 77.1161 97.792 76.9907H98.4696C98.4404 77.1796 98.3648 77.3411 98.2429 77.475C98.1227 77.609 97.9767 77.7112 97.8049 77.7816C97.6331 77.8521 97.4545 77.8873 97.269 77.8873C97.0045 77.8873 96.7726 77.8323 96.5733 77.7224C96.3741 77.6107 96.2186 77.4536 96.107 77.2509C95.9953 77.0482 95.9395 76.8095 95.9395 76.5346C95.9395 76.2684 95.9902 76.0288 96.0915 75.8158C96.1929 75.6011 96.3397 75.4319 96.5321 75.3082C96.7262 75.1828 96.9589 75.1201 97.2303 75.1201C97.5017 75.1201 97.7293 75.1777 97.9131 75.2928C98.0986 75.4061 98.2377 75.565 98.3305 75.7694C98.425 75.9721 98.4722 76.2066 98.4722 76.4728V76.6763H96.6841ZM96.6815 76.228H97.7688C97.7688 76.0666 97.7242 75.9292 97.6348 75.8158C97.5455 75.7024 97.4107 75.6457 97.2303 75.6457C97.1135 75.6457 97.0139 75.6741 96.9315 75.7308C96.8507 75.7874 96.7889 75.8604 96.7459 75.9498C96.703 76.0374 96.6815 76.1301 96.6815 76.228ZM98.9945 77.8358V75.1717H99.7314V75.5478C99.8121 75.431 99.9203 75.3305 100.056 75.2464C100.193 75.1622 100.366 75.1201 100.574 75.1201C100.71 75.1201 100.848 75.1562 100.989 75.2283C101.131 75.3005 101.242 75.407 101.321 75.5478C101.407 75.4259 101.519 75.3245 101.659 75.2438C101.799 75.1614 101.956 75.1201 102.128 75.1201C102.26 75.1201 102.393 75.1502 102.527 75.2103C102.661 75.2704 102.772 75.3701 102.862 75.5092C102.953 75.6483 102.998 75.8381 102.998 76.0786V77.8358H102.246V76.1713C102.246 76.0099 102.201 75.8965 102.112 75.8312C102.023 75.766 101.925 75.7333 101.818 75.7333C101.751 75.7333 101.683 75.7471 101.615 75.7746C101.546 75.8003 101.488 75.8424 101.44 75.9008C101.391 75.9592 101.367 76.0356 101.367 76.1301V77.8358H100.618V76.1044C100.618 75.9841 100.572 75.8922 100.481 75.8287C100.39 75.7651 100.295 75.7333 100.195 75.7333C100.092 75.7333 99.9916 75.766 99.8937 75.8312C99.7958 75.8965 99.7468 75.9961 99.7468 76.1301V77.8358H98.9945Z" fill="#FE9903"/>
<path d="M113.137 77.8873C112.784 77.8873 112.48 77.8108 112.222 77.658C111.966 77.5051 111.768 77.2861 111.627 77.001C111.488 76.7158 111.418 76.3757 111.418 75.9807C111.418 75.5839 111.488 75.2421 111.629 74.9552C111.772 74.6667 111.972 74.4451 112.23 74.2905C112.487 74.1359 112.79 74.0586 113.137 74.0586C113.482 74.0586 113.782 74.1359 114.038 74.2905C114.294 74.4451 114.492 74.6667 114.631 74.9552C114.772 75.2421 114.842 75.5839 114.842 75.9807C114.842 76.374 114.773 76.7133 114.633 76.9984C114.496 77.2835 114.299 77.5034 114.043 77.658C113.788 77.8108 113.485 77.8873 113.137 77.8873ZM113.137 77.2689C113.408 77.2689 113.623 77.1702 113.783 76.9726C113.945 76.7734 114.025 76.4462 114.025 75.991C114.025 75.5255 113.945 75.1906 113.783 74.9862C113.622 74.78 113.406 74.677 113.137 74.677C112.865 74.677 112.648 74.78 112.485 74.9862C112.323 75.1923 112.242 75.5272 112.242 75.991C112.242 76.4462 112.323 76.7734 112.485 76.9726C112.648 77.1702 112.865 77.2689 113.137 77.2689ZM115.214 74.78V74.1102H118.195V74.78H117.095V77.8358H116.34V74.78H115.214ZM120.098 77.8873C119.914 77.8873 119.733 77.8641 119.557 77.8177C119.38 77.7713 119.217 77.7018 119.07 77.609C118.924 77.5163 118.803 77.4003 118.709 77.2612C118.614 77.1221 118.558 76.9589 118.539 76.7717H119.309C119.347 76.94 119.436 77.0697 119.577 77.1607C119.72 77.2518 119.892 77.2973 120.095 77.2973C120.299 77.2973 120.475 77.2586 120.623 77.1813C120.773 77.104 120.847 76.9864 120.847 76.8283C120.847 76.6875 120.787 76.5827 120.667 76.514C120.547 76.4453 120.396 76.3929 120.216 76.3568L119.572 76.2254C119.29 76.1722 119.067 76.0606 118.902 75.8905C118.737 75.7205 118.652 75.492 118.647 75.2052C118.645 74.9716 118.707 74.7697 118.833 74.5997C118.96 74.4279 119.131 74.2957 119.348 74.2029C119.566 74.1102 119.81 74.0638 120.08 74.0638C120.401 74.0638 120.67 74.1144 120.889 74.2158C121.108 74.3154 121.275 74.4511 121.388 74.6229C121.503 74.7929 121.563 74.9827 121.566 75.1923H120.811C120.791 74.9965 120.714 74.8591 120.582 74.78C120.45 74.701 120.287 74.6615 120.092 74.6615C119.891 74.6615 119.732 74.7045 119.613 74.7903C119.495 74.8745 119.435 74.9836 119.435 75.1176C119.435 75.2258 119.471 75.3134 119.541 75.3804C119.613 75.4473 119.749 75.5023 119.948 75.5453L120.587 75.6767C120.814 75.7213 120.995 75.7874 121.131 75.875C121.266 75.9626 121.368 76.0614 121.435 76.1713C121.503 76.2813 121.548 76.3938 121.569 76.5089C121.591 76.6222 121.602 76.727 121.602 76.8232C121.602 77.0242 121.54 77.2054 121.414 77.3668C121.289 77.5266 121.113 77.6537 120.886 77.7482C120.661 77.8409 120.398 77.8873 120.098 77.8873Z" fill="#FE9903"/>
<path d="M130.318 74.1102H131.075V77.1994H132.693V77.8358H130.318V74.1102ZM134.31 77.8873C134.049 77.8873 133.821 77.8315 133.627 77.7198C133.435 77.6082 133.285 77.4501 133.179 77.2457C133.074 77.0413 133.022 76.7991 133.022 76.5192C133.022 76.2392 133.074 75.9944 133.179 75.7849C133.285 75.5753 133.435 75.4121 133.627 75.2953C133.821 75.1785 134.05 75.1201 134.313 75.1201C134.575 75.1201 134.803 75.1777 134.995 75.2928C135.188 75.4078 135.336 75.5702 135.441 75.7797C135.546 75.9876 135.598 76.234 135.598 76.5192C135.598 76.7871 135.547 77.0242 135.444 77.2303C135.342 77.4347 135.195 77.5953 135.003 77.7121C134.812 77.8289 134.581 77.8873 134.31 77.8873ZM134.313 77.3282C134.445 77.3282 134.551 77.2895 134.632 77.2122C134.713 77.1349 134.771 77.0336 134.807 76.9082C134.845 76.7811 134.864 76.6428 134.864 76.4934C134.864 76.3526 134.847 76.2203 134.812 76.0966C134.778 75.9712 134.721 75.8699 134.64 75.7926C134.561 75.7136 134.452 75.6741 134.313 75.6741C134.18 75.6741 134.073 75.711 133.991 75.7849C133.91 75.8587 133.851 75.9575 133.813 76.0812C133.775 76.2048 133.756 76.3422 133.756 76.4934C133.756 76.6325 133.773 76.7665 133.808 76.8953C133.842 77.0224 133.899 77.1264 133.98 77.2071C134.061 77.2878 134.172 77.3282 134.313 77.3282ZM137.046 77.8873C136.883 77.8873 136.723 77.8538 136.567 77.7868C136.412 77.7198 136.284 77.6219 136.183 77.4931C136.082 77.3625 136.031 77.2028 136.031 77.0139V75.1717H136.783V76.9185C136.783 77.0422 136.824 77.1435 136.905 77.2225C136.985 77.3016 137.104 77.3411 137.26 77.3411C137.406 77.3411 137.523 77.3033 137.61 77.2277C137.698 77.1504 137.742 77.0431 137.742 76.9056V75.1717H138.486V77.8358H137.92L137.832 77.3076C137.801 77.4639 137.743 77.5841 137.657 77.6683C137.573 77.7507 137.476 77.8074 137.366 77.8383C137.258 77.871 137.151 77.8873 137.046 77.8873ZM139.879 74.1127V74.7903H139.148V74.1127H139.879ZM139.872 75.1717V77.8358H139.153V75.1717H139.872ZM141.607 77.8873C141.42 77.8873 141.241 77.8572 141.071 77.7971C140.901 77.7353 140.756 77.6391 140.636 77.5085C140.516 77.378 140.44 77.2071 140.409 76.9958H141.061C141.094 77.1384 141.166 77.2372 141.277 77.2921C141.391 77.3454 141.499 77.372 141.602 77.372C141.746 77.372 141.862 77.3497 141.95 77.305C142.039 77.2586 142.084 77.1882 142.084 77.0937C142.084 77.0216 142.057 76.964 142.004 76.9211C141.952 76.8782 141.866 76.8455 141.746 76.8232L141.277 76.7253C141.042 76.6755 140.852 76.5913 140.708 76.4728C140.565 76.3526 140.493 76.1825 140.491 75.9626C140.49 75.7222 140.584 75.5221 140.775 75.3623C140.967 75.2009 141.246 75.1201 141.61 75.1201C141.938 75.1201 142.2 75.1931 142.396 75.3391C142.593 75.4834 142.694 75.6861 142.697 75.9472H142.068C142.049 75.8441 141.998 75.7651 141.914 75.7102C141.831 75.6535 141.727 75.6251 141.602 75.6251C141.471 75.6251 141.364 75.6483 141.28 75.6947C141.196 75.7411 141.154 75.8115 141.154 75.906C141.154 75.9764 141.188 76.0322 141.257 76.0734C141.325 76.1129 141.432 76.1473 141.576 76.1765L142.009 76.2744C142.207 76.3225 142.357 76.3929 142.46 76.4857C142.565 76.5784 142.635 76.6763 142.671 76.7794C142.709 76.8807 142.728 76.9718 142.728 77.0525C142.728 77.3187 142.624 77.5249 142.416 77.6709C142.208 77.8151 141.939 77.8873 141.607 77.8873ZM144.021 74.1127V74.7903H143.289V74.1127H144.021ZM144.013 75.1717V77.8358H143.294V75.1717H144.013ZM145.468 77.8873C145.212 77.8873 144.998 77.8169 144.826 77.676C144.654 77.5352 144.569 77.3342 144.569 77.0731C144.569 76.7811 144.677 76.5595 144.893 76.4084C145.111 76.2555 145.457 76.1765 145.929 76.1713L146.261 76.1662V76.0064C146.261 75.8845 146.225 75.7909 146.153 75.7256C146.083 75.6586 145.973 75.626 145.823 75.6277C145.713 75.6294 145.609 75.6552 145.509 75.705C145.411 75.7548 145.344 75.8416 145.308 75.9652H144.682C144.696 75.6767 144.812 75.4637 145.03 75.3263C145.248 75.1888 145.524 75.1201 145.857 75.1201C146.266 75.1201 146.555 75.1957 146.725 75.3469C146.897 75.4963 146.983 75.7016 146.983 75.9626V77.8358H146.354L146.292 77.3771C146.201 77.5695 146.087 77.7026 145.95 77.7765C145.814 77.8504 145.653 77.8873 145.468 77.8873ZM145.72 77.3926C145.811 77.3926 145.898 77.372 145.98 77.3308C146.063 77.2878 146.13 77.2329 146.181 77.1659C146.235 77.0972 146.261 77.0242 146.261 76.9469V76.5527L145.991 76.5578C145.865 76.5595 145.749 76.5741 145.64 76.6016C145.532 76.6291 145.445 76.6755 145.378 76.7407C145.312 76.8043 145.28 76.8902 145.28 76.9984C145.28 77.1221 145.322 77.2191 145.406 77.2895C145.492 77.3582 145.597 77.3926 145.72 77.3926ZM147.649 77.8358V75.1717H148.388V75.5478C148.45 75.4516 148.542 75.3615 148.664 75.2773C148.786 75.1914 148.952 75.1485 149.161 75.1485C149.324 75.1485 149.476 75.1803 149.617 75.2438C149.76 75.3074 149.875 75.4078 149.962 75.5453C150.05 75.681 150.094 75.8587 150.094 76.0786V77.8358H149.341V76.1713C149.341 76.0271 149.298 75.9188 149.21 75.8467C149.124 75.7746 149.02 75.7385 148.898 75.7385C148.775 75.7385 148.66 75.7711 148.556 75.8364C148.453 75.9017 148.401 75.9996 148.401 76.1301V77.8358H147.649ZM151.456 77.8873C151.2 77.8873 150.986 77.8169 150.815 77.676C150.643 77.5352 150.557 77.3342 150.557 77.0731C150.557 76.7811 150.665 76.5595 150.882 76.4084C151.1 76.2555 151.445 76.1765 151.917 76.1713L152.25 76.1662V76.0064C152.25 75.8845 152.214 75.7909 152.141 75.7256C152.071 75.6586 151.961 75.626 151.812 75.6277C151.702 75.6294 151.597 75.6552 151.497 75.705C151.399 75.7548 151.332 75.8416 151.296 75.9652H150.67C150.684 75.6767 150.8 75.4637 151.018 75.3263C151.236 75.1888 151.512 75.1201 151.845 75.1201C152.254 75.1201 152.543 75.1957 152.713 75.3469C152.885 75.4963 152.971 75.7016 152.971 75.9626V77.8358H152.342L152.281 77.3771C152.19 77.5695 152.075 77.7026 151.938 77.7765C151.802 77.8504 151.642 77.8873 151.456 77.8873ZM151.709 77.3926C151.8 77.3926 151.886 77.372 151.969 77.3308C152.051 77.2878 152.118 77.2329 152.17 77.1659C152.223 77.0972 152.25 77.0242 152.25 76.9469V76.5527L151.979 76.5578C151.854 76.5595 151.737 76.5741 151.629 76.6016C151.521 76.6291 151.433 76.6755 151.366 76.7407C151.301 76.8043 151.268 76.8902 151.268 76.9984C151.268 77.1221 151.31 77.2191 151.394 77.2895C151.48 77.3582 151.585 77.3926 151.709 77.3926ZM153.57 77.8358V77.0164H154.395V77.8358H153.57ZM156.361 78.7169C155.887 78.7169 155.526 78.6568 155.279 78.5366C155.033 78.4163 154.91 78.2583 154.91 78.0625C154.91 77.9714 154.934 77.8959 154.982 77.8358C155.03 77.7739 155.086 77.7241 155.15 77.6863C155.215 77.6485 155.274 77.6202 155.328 77.6013C155.383 77.5807 155.416 77.5669 155.428 77.5601C155.401 77.5446 155.36 77.5223 155.307 77.4931C155.255 77.4622 155.208 77.4209 155.165 77.3694C155.122 77.3162 155.101 77.2475 155.101 77.1633C155.101 77.0688 155.145 76.9821 155.235 76.9031C155.326 76.8223 155.463 76.7657 155.647 76.733C155.47 76.6523 155.336 76.5415 155.245 76.4006C155.156 76.2581 155.111 76.1129 155.111 75.9652C155.111 75.79 155.165 75.6406 155.273 75.5169C155.383 75.3915 155.534 75.2962 155.724 75.2309C155.915 75.1639 156.131 75.1304 156.371 75.1304C156.555 75.1304 156.705 75.1502 156.822 75.1897C156.939 75.2275 157.047 75.2773 157.147 75.3391C157.2 75.3185 157.274 75.2893 157.368 75.2515C157.464 75.2137 157.563 75.1742 157.664 75.133C157.767 75.0918 157.856 75.0557 157.93 75.0248L157.927 75.6071L157.466 75.6818C157.485 75.7299 157.5 75.7806 157.51 75.8338C157.52 75.8854 157.525 75.9283 157.525 75.9626C157.525 76.1172 157.48 76.2615 157.389 76.3955C157.298 76.5295 157.163 76.6377 156.984 76.7201C156.806 76.8026 156.584 76.8438 156.32 76.8438C156.287 76.8438 156.243 76.8429 156.188 76.8412C156.133 76.8395 156.089 76.8369 156.057 76.8335C155.955 76.8387 155.886 76.8515 155.848 76.8721C155.81 76.8928 155.791 76.9168 155.791 76.9443C155.791 76.9855 155.829 77.013 155.905 77.0267C155.982 77.0405 156.1 77.0516 156.258 77.0602C156.313 77.0637 156.389 77.0688 156.487 77.0757C156.585 77.0808 156.693 77.0869 156.812 77.0937C157.136 77.1161 157.379 77.1968 157.541 77.3359C157.702 77.4733 157.783 77.6468 157.783 77.8564C157.783 78.1071 157.664 78.3133 157.427 78.4747C157.192 78.6362 156.837 78.7169 156.361 78.7169ZM156.34 76.4238C156.483 76.4238 156.597 76.3852 156.683 76.3079C156.77 76.2306 156.814 76.1241 156.814 75.9884C156.814 75.8493 156.77 75.7376 156.683 75.6535C156.597 75.5693 156.483 75.5272 156.34 75.5272C156.198 75.5272 156.082 75.5702 155.995 75.656C155.907 75.7402 155.863 75.851 155.863 75.9884C155.863 76.1207 155.906 76.2263 155.99 76.3053C156.076 76.3843 156.192 76.4238 156.34 76.4238ZM156.482 78.2969C156.691 78.2969 156.841 78.2712 156.93 78.2197C157.019 78.1681 157.064 78.0943 157.064 77.9981C157.064 77.9173 157.03 77.8521 156.961 77.8023C156.892 77.7507 156.792 77.7207 156.66 77.7121L156.049 77.6709C155.929 77.664 155.832 77.6923 155.758 77.7559C155.684 77.8194 155.647 77.8924 155.647 77.9749C155.647 78.0865 155.715 78.1681 155.851 78.2197C155.986 78.2712 156.197 78.2969 156.482 78.2969ZM159.441 77.8873C159.18 77.8873 158.952 77.8315 158.758 77.7198C158.566 77.6082 158.416 77.4501 158.31 77.2457C158.205 77.0413 158.153 76.7991 158.153 76.5192C158.153 76.2392 158.205 75.9944 158.31 75.7849C158.416 75.5753 158.566 75.4121 158.758 75.2953C158.952 75.1785 159.181 75.1201 159.443 75.1201C159.706 75.1201 159.934 75.1777 160.126 75.2928C160.319 75.4078 160.467 75.5702 160.572 75.7797C160.677 75.9876 160.729 76.234 160.729 76.5192C160.729 76.7871 160.678 77.0242 160.574 77.2303C160.473 77.4347 160.326 77.5953 160.134 77.7121C159.943 77.8289 159.712 77.8873 159.441 77.8873ZM159.443 77.3282C159.576 77.3282 159.682 77.2895 159.763 77.2122C159.844 77.1349 159.902 77.0336 159.938 76.9082C159.976 76.7811 159.995 76.6428 159.995 76.4934C159.995 76.3526 159.978 76.2203 159.943 76.0966C159.909 75.9712 159.851 75.8699 159.771 75.7926C159.692 75.7136 159.583 75.6741 159.443 75.6741C159.311 75.6741 159.204 75.711 159.121 75.7849C159.041 75.8587 158.981 75.9575 158.944 76.0812C158.906 76.2048 158.887 76.3422 158.887 76.4934C158.887 76.6325 158.904 76.7665 158.938 76.8953C158.973 77.0224 159.03 77.1264 159.111 77.2071C159.192 77.2878 159.303 77.3282 159.443 77.3282ZM163.415 75.1717L162.416 77.8358H161.872L160.87 75.1717H161.55L162.132 76.8696H162.153L162.728 75.1717H163.415Z" fill="#FE9903"/>
<rect opacity="0.5" x="66.4412" y="62.8181" width="316.908" height="1.28824" fill="#00203E"/>
<path d="M251.151 43.6039H241.464C241.037 43.6039 240.684 43.9813 240.684 44.4342V54.0709C240.684 54.5238 241.037 54.876 241.464 54.876H251.151C251.579 54.876 251.957 54.5238 251.957 54.0709V44.4342C251.957 43.9813 251.579 43.6039 251.151 43.6039ZM244.081 53.2657H242.42V47.9064H244.081V53.2657ZM243.251 47.1516C242.697 47.1516 242.27 46.7238 242.27 46.1955C242.27 45.6671 242.697 45.2142 243.251 45.2142C243.779 45.2142 244.207 45.6671 244.207 46.1955C244.207 46.7238 243.779 47.1516 243.251 47.1516ZM250.346 53.2657H248.66V50.649C248.66 50.0451 248.66 49.2399 247.805 49.2399C246.924 49.2399 246.798 49.9193 246.798 50.6238V53.2657H245.138V47.9064H246.723V48.6361H246.748C246.975 48.2083 247.528 47.7554 248.333 47.7554C250.019 47.7554 250.346 48.8877 250.346 50.3219V53.2657Z" fill="#FE9903"/>
<path d="M227.56 43.6039H218.704C218.024 43.6039 217.496 44.1574 217.496 44.8116V53.6683C217.496 54.3476 218.024 54.876 218.704 54.876H227.56C228.215 54.876 228.768 54.3476 228.768 53.6683V44.8116C228.768 44.1574 228.215 43.6039 227.56 43.6039ZM226.328 47.6045C226.328 47.68 226.328 47.7554 226.328 47.8309C226.328 49.9948 224.667 52.5109 221.622 52.5109C220.691 52.5109 219.836 52.2593 219.106 51.7812C219.232 51.8064 219.358 51.8064 219.484 51.8064C220.264 51.8064 220.968 51.5296 221.547 51.1019C220.817 51.0767 220.213 50.5986 219.987 49.9445C220.264 49.9948 220.49 49.9948 220.742 49.9193C219.987 49.7683 219.433 49.1141 219.433 48.309V48.2838C219.635 48.4096 219.886 48.4851 220.163 48.4851C219.71 48.1832 219.433 47.68 219.433 47.1264C219.433 46.7993 219.509 46.5226 219.66 46.2709C220.465 47.2774 221.698 47.9316 223.057 48.0071C222.83 46.9 223.66 45.969 224.667 45.969C225.145 45.969 225.573 46.1703 225.875 46.4974C226.252 46.4219 226.604 46.2961 226.931 46.0948C226.806 46.4974 226.529 46.7993 226.202 47.0006C226.529 46.9755 226.856 46.8748 227.158 46.749C226.931 47.0761 226.629 47.378 226.328 47.6045Z" fill="#FE9903"/>
<path d="M204.694 43.6039H195.837C195.158 43.6039 194.63 44.1574 194.63 44.8116V53.6683C194.63 54.3476 195.158 54.876 195.837 54.876H199.284V51.0515H197.699V49.2399H199.284V47.8812C199.284 46.3213 200.215 45.4406 201.624 45.4406C202.329 45.4406 203.033 45.5664 203.033 45.5664V47.1013H202.253C201.473 47.1013 201.222 47.5793 201.222 48.0825V49.2399H202.958L202.681 51.0515H201.222V54.876H204.694C205.348 54.876 205.902 54.3476 205.902 53.6683V44.8116C205.902 44.1574 205.348 43.6039 204.694 43.6039Z" fill="#FE9903"/>
<rect opacity="0.5" x="66.4412" y="35.7649" width="316.908" height="1.28824" fill="#00203E"/>
<path d="M67.3977 17.79V28.0354H74.2492V25.7681H70.1539V17.79H67.3977Z" fill="white"/>
<path d="M78.7006 28.1772C80.9821 28.1772 82.4275 26.6042 82.4275 24.4219C82.4275 22.1971 81.0033 20.5675 78.7148 20.5675C76.5325 20.5675 74.9879 22.1121 74.9879 24.4219C74.9879 26.6184 76.4333 28.1772 78.7006 28.1772ZM78.7148 26.1791C77.822 26.1791 77.6661 25.1021 77.6661 24.3227C77.6661 23.5292 77.822 22.5372 78.7148 22.5372C79.5934 22.5372 79.7492 23.5292 79.7492 24.3227C79.7492 25.1021 79.5934 26.1791 78.7148 26.1791Z" fill="white"/>
<path d="M87.0249 30.4586C89.8023 30.4586 91.2052 29.41 91.2052 27.9929C91.2052 26.8593 90.3125 25.9382 88.2861 25.7965C87.6626 25.754 87.0816 25.7256 86.8265 25.7115C86.1038 25.6689 85.6503 25.6689 85.6503 25.4706C85.6503 25.3997 85.707 25.3714 85.8487 25.343C86.0896 25.3714 86.5998 25.3855 86.8265 25.3855C89.1505 25.3855 90.3833 24.1102 90.3833 22.8631C90.3833 22.7781 90.355 22.5089 90.2983 22.2963L91.5453 22.1263L91.5595 20.1707C90.7518 20.5108 89.7031 20.9076 89.1505 21.1202C88.612 20.8367 88.0452 20.5958 86.9965 20.5958C84.9985 20.5958 83.2697 21.4036 83.2697 22.8773C83.2697 23.6567 83.7798 24.592 84.8426 25.0596C83.6948 25.2155 83.1563 25.7681 83.1563 26.3491C83.1563 27.1569 83.9782 27.4686 84.1907 27.582C84.0774 27.6103 82.7312 27.8229 82.7312 28.7723C82.7312 29.7076 84.1341 30.4586 87.0249 30.4586ZM86.9115 23.9401C86.3872 23.9401 86.0329 23.5292 86.0329 22.9765C86.0329 22.4239 86.3872 21.9421 86.9115 21.9421C87.4358 21.9421 87.7901 22.4239 87.7901 22.9765C87.7901 23.5292 87.4358 23.9401 86.9115 23.9401ZM87.45 29.0132C86.0471 29.0132 85.4094 28.914 85.4094 28.4464C85.4094 28.2055 85.5936 27.8796 86.3589 27.9221L87.6909 28.0071C88.2577 28.0496 88.5978 28.248 88.5978 28.5598C88.5978 28.829 88.4136 29.0132 87.45 29.0132Z" fill="white"/>
<path d="M95.556 28.1772C97.8375 28.1772 99.2829 26.6042 99.2829 24.4219C99.2829 22.1971 97.8587 20.5675 95.5701 20.5675C93.3879 20.5675 91.8433 22.1121 91.8433 24.4219C91.8433 26.6184 93.2887 28.1772 95.556 28.1772ZM95.5701 26.1791C94.6774 26.1791 94.5215 25.1021 94.5215 24.3227C94.5215 23.5292 94.6774 22.5372 95.5701 22.5372C96.4487 22.5372 96.6046 23.5292 96.6046 24.3227C96.6046 25.1021 96.4487 26.1791 95.5701 26.1791Z" fill="white"/>
<g filter="url(#filter0_d_454_428)">
<path d="M67.4073 46.3929C67.4073 44.9699 68.5609 43.8164 69.9838 43.8164H102.137C103.56 43.8164 104.713 44.9699 104.713 46.3929V53.4782C104.713 54.9012 103.56 56.0547 102.137 56.0547H69.9838C68.5609 56.0547 67.4073 54.9012 67.4073 53.4782V46.3929Z" fill="#FE9903"/>
<path d="M76.7479 49.349C76.5165 49.5302 76.2246 49.7516 75.198 50.4963C74.9967 50.6473 74.6243 50.9794 74.2721 50.9794C73.9098 50.9794 73.5475 50.6473 73.3361 50.4963C72.3095 49.7516 72.0177 49.5302 71.7862 49.349C71.7459 49.3188 71.6956 49.349 71.6956 49.3993V51.4525C71.6956 51.7242 71.907 51.9355 72.1787 51.9355H76.3655C76.6272 51.9355 76.8486 51.7242 76.8486 51.4525V49.3993C76.8486 49.349 76.7882 49.3188 76.7479 49.349ZM74.2721 50.6473C74.5036 50.6574 74.8357 50.3554 75.0068 50.2347C76.3454 49.2685 76.446 49.1779 76.7479 48.9364C76.8083 48.8961 76.8486 48.8256 76.8486 48.7451V48.5539C76.8486 48.2922 76.6272 48.0708 76.3655 48.0708H72.1787C71.907 48.0708 71.6956 48.2922 71.6956 48.5539V48.7451C71.6956 48.8256 71.7258 48.8961 71.7862 48.9364C72.0881 49.1779 72.1888 49.2685 73.5273 50.2347C73.6984 50.3554 74.0305 50.6574 74.2721 50.6473Z" fill="black"/>
<path d="M80.419 51.9355V48.2099H82.7688L82.7662 48.6299H80.8983V49.846H82.5807V50.2634H80.8957V51.5053L82.8178 51.5104V51.9355H80.419ZM83.4512 51.9355V49.2715H83.9098V49.6579C83.9836 49.5394 84.0841 49.4372 84.2112 49.3513C84.3401 49.2637 84.5084 49.2199 84.7162 49.2199C84.8622 49.2199 85.0091 49.2569 85.1568 49.3307C85.3045 49.4046 85.4136 49.5128 85.484 49.6554C85.5665 49.5248 85.6781 49.42 85.819 49.341C85.9598 49.2603 86.1187 49.2199 86.2956 49.2199C86.3884 49.2199 86.4854 49.2345 86.5868 49.2637C86.6881 49.2912 86.7826 49.341 86.8702 49.4132C86.9578 49.4836 87.0282 49.5824 87.0814 49.7095C87.1364 49.8348 87.1639 49.9963 87.1639 50.1938V51.9355H86.6847V50.2402C86.6847 50.0788 86.6589 49.9534 86.6074 49.864C86.5558 49.7747 86.488 49.7129 86.4038 49.6785C86.3214 49.6425 86.2329 49.6244 86.1384 49.6244C86.056 49.6244 85.9684 49.6408 85.8756 49.6734C85.7829 49.706 85.7039 49.761 85.6386 49.8383C85.5733 49.9156 85.5407 50.0212 85.5407 50.1552V51.9355H85.0666V50.1011C85.0666 49.9963 85.0383 49.9087 84.9816 49.8383C84.9266 49.7661 84.8571 49.7129 84.7729 49.6785C84.6905 49.6425 84.608 49.6244 84.5256 49.6244C84.4345 49.6244 84.3426 49.6433 84.2499 49.6811C84.1588 49.7172 84.0816 49.7739 84.018 49.8512C83.9562 49.9285 83.9252 50.0298 83.9252 50.1552V51.9355H83.4512ZM88.6365 51.9871C88.3771 51.9871 88.1659 51.9192 88.0027 51.7835C87.8395 51.6478 87.7579 51.458 87.7579 51.2141C87.7579 50.9187 87.861 50.6988 88.0671 50.5545C88.2732 50.4103 88.6039 50.333 89.0591 50.3227L89.5357 50.3098V50.1011C89.5357 49.9379 89.4859 49.8091 89.3863 49.7146C89.2884 49.6184 89.1372 49.5703 88.9328 49.5703C88.7799 49.572 88.6451 49.609 88.5283 49.6811C88.4115 49.7515 88.3368 49.8658 88.3041 50.0238H87.8842C87.8979 49.7644 87.9993 49.566 88.1882 49.4286C88.3771 49.2895 88.6331 49.2199 88.956 49.2199C89.303 49.2199 89.5623 49.2929 89.7341 49.4389C89.9076 49.5849 89.9943 49.7971 89.9943 50.0753V51.9355H89.5872L89.5537 51.4357C89.449 51.6435 89.3176 51.7878 89.1595 51.8686C89.0015 51.9476 88.8272 51.9871 88.6365 51.9871ZM88.7808 51.6444C88.8993 51.6444 89.0161 51.6161 89.1312 51.5594C89.248 51.5027 89.3442 51.4306 89.4198 51.343C89.4953 51.2536 89.534 51.1592 89.5357 51.0595V50.6035L89.1389 50.6112C88.8332 50.6164 88.6039 50.6619 88.451 50.7478C88.2981 50.832 88.2217 50.9719 88.2217 51.1678C88.2217 51.3189 88.2732 51.4366 88.3763 51.5207C88.4811 51.6032 88.6159 51.6444 88.7808 51.6444ZM91.3339 48.2125V48.7072H90.8469V48.2125H91.3339ZM91.3236 49.2715V51.9355H90.8624V49.2715H91.3236ZM92.8696 51.969C92.6772 51.969 92.5329 51.9355 92.4368 51.8686C92.3406 51.7999 92.2762 51.7114 92.2435 51.6032C92.2126 51.4932 92.1971 51.3756 92.1971 51.2502V48.1069H92.6661V51.2038C92.6661 51.3395 92.6918 51.4409 92.7434 51.5078C92.7966 51.5731 92.8705 51.6092 92.9649 51.6161L93.1092 51.6186V51.9278C93.0233 51.9553 92.9435 51.969 92.8696 51.969ZM97.7408 50.6473C97.7408 51.0767 97.6335 51.4074 97.4188 51.6393C97.2041 51.8711 96.8571 51.9871 96.3779 51.9871C95.8935 51.9871 95.5457 51.8686 95.3344 51.6315C95.1231 51.3928 95.0175 51.0484 95.0175 50.5983V48.2099H95.5122V50.6705C95.5122 50.9711 95.5869 51.1961 95.7363 51.3455C95.8858 51.495 96.0996 51.5697 96.3779 51.5697C96.6578 51.5697 96.8751 51.4958 97.0297 51.3481C97.1843 51.2004 97.2616 50.9745 97.2616 50.6705V48.2099H97.7408V50.6473ZM99.4732 51.9871C99.286 51.9871 99.1134 51.9579 98.9554 51.8995C98.7973 51.8411 98.6651 51.7518 98.5586 51.6315C98.4538 51.5096 98.3885 51.3524 98.3628 51.16H98.7956C98.83 51.3163 98.9081 51.434 99.0301 51.513C99.1537 51.592 99.3006 51.6315 99.4707 51.6315C99.6493 51.6315 99.7936 51.598 99.9035 51.531C100.013 51.464 100.068 51.361 100.068 51.2219C100.068 51.0346 99.9507 50.9127 99.7154 50.856L99.1641 50.7194C98.9476 50.6679 98.775 50.5872 98.6462 50.4773C98.5191 50.3673 98.4555 50.2136 98.4555 50.0161C98.4538 49.7825 98.538 49.5918 98.708 49.4441C98.8781 49.2946 99.1323 49.2199 99.4707 49.2199C99.7592 49.2199 99.992 49.2852 100.169 49.4157C100.348 49.5463 100.44 49.7361 100.447 49.9851H100.027C100.008 49.858 99.9507 49.7576 99.8546 49.6837C99.7584 49.6081 99.6287 49.5703 99.4655 49.5703C99.2955 49.5703 99.1572 49.6047 99.0507 49.6734C98.9442 49.7404 98.8909 49.8452 98.8909 49.9877C98.8909 50.0822 98.9287 50.1569 99.0043 50.2119C99.0799 50.2651 99.1915 50.3098 99.3393 50.3459L99.8726 50.4798C100.036 50.5228 100.163 50.5837 100.254 50.6628C100.345 50.7418 100.408 50.8285 100.445 50.923C100.481 51.0175 100.499 51.1085 100.499 51.1961C100.499 51.4417 100.408 51.635 100.228 51.7758C100.048 51.9167 99.7961 51.9871 99.4732 51.9871Z" fill="black"/>
</g>
<g filter="url(#filter1_d_454_428)">
<path d="M106.377 46.3929C106.377 44.9699 107.53 43.8164 108.953 43.8164H137.106C138.529 43.8164 139.683 44.9699 139.683 46.3929V53.4782C139.683 54.9012 138.529 56.0547 137.106 56.0547H108.953C107.53 56.0547 106.377 54.9012 106.377 53.4782V46.3929Z" fill="#FE9903"/>
<path d="M115.627 47.6783L114.58 47.4368C114.469 47.4066 114.349 47.4669 114.298 47.5777L113.815 48.7049C113.775 48.8055 113.805 48.9162 113.886 48.9867L114.5 49.4899C114.137 50.2548 113.503 50.8989 112.718 51.2713L112.215 50.6574C112.145 50.5769 112.034 50.5467 111.933 50.5869L110.806 51.07C110.695 51.1203 110.645 51.2411 110.665 51.3518L110.907 52.3985C110.937 52.5092 111.027 52.5797 111.148 52.5797C113.725 52.5797 115.818 50.4963 115.818 47.9098C115.818 47.7991 115.738 47.7085 115.627 47.6783Z" fill="black"/>
<path d="M120.757 48.1584C121.018 48.1584 121.25 48.2134 121.453 48.3233C121.657 48.4315 121.821 48.5767 121.945 48.7587C122.068 48.9408 122.141 49.1409 122.164 49.3591H121.656C121.613 49.1409 121.515 48.9554 121.362 48.8025C121.211 48.6497 121.005 48.5732 120.744 48.5732C120.404 48.5732 120.145 48.6935 119.966 48.9339C119.789 49.1727 119.701 49.5497 119.701 50.065C119.701 50.5837 119.789 50.9651 119.966 51.209C120.145 51.4512 120.404 51.5723 120.744 51.5723C120.919 51.5723 121.07 51.5353 121.195 51.4615C121.32 51.3859 121.422 51.2871 121.499 51.1652C121.576 51.0415 121.629 50.9075 121.656 50.7632H122.164C122.138 50.9745 122.07 51.1738 121.96 51.361C121.852 51.5465 121.698 51.6977 121.499 51.8145C121.3 51.9295 121.052 51.9871 120.757 51.9871C120.254 51.9871 119.864 51.8179 119.587 51.4795C119.311 51.1411 119.172 50.6679 119.172 50.0599C119.172 49.4535 119.31 48.9855 119.585 48.6557C119.861 48.3242 120.252 48.1584 120.757 48.1584ZM123.538 51.9871C123.278 51.9871 123.067 51.9192 122.904 51.7835C122.741 51.6478 122.659 51.458 122.659 51.2141C122.659 50.9187 122.762 50.6988 122.968 50.5545C123.174 50.4103 123.505 50.333 123.96 50.3227L124.437 50.3098V50.1011C124.437 49.9379 124.387 49.8091 124.288 49.7146C124.19 49.6184 124.038 49.5703 123.834 49.5703C123.681 49.572 123.546 49.609 123.43 49.6811C123.313 49.7515 123.238 49.8658 123.205 50.0238H122.785C122.799 49.7644 122.901 49.566 123.089 49.4286C123.278 49.2895 123.534 49.2199 123.857 49.2199C124.204 49.2199 124.464 49.2929 124.635 49.4389C124.809 49.5849 124.896 49.7971 124.896 50.0753V51.9355H124.488L124.455 51.4357C124.35 51.6435 124.219 51.7878 124.061 51.8686C123.903 51.9476 123.728 51.9871 123.538 51.9871ZM123.682 51.6444C123.801 51.6444 123.917 51.6161 124.032 51.5594C124.149 51.5027 124.245 51.4306 124.321 51.343C124.397 51.2536 124.435 51.1592 124.437 51.0595V50.6035L124.04 50.6112C123.734 50.6164 123.505 50.6619 123.352 50.7478C123.199 50.832 123.123 50.9719 123.123 51.1678C123.123 51.3189 123.174 51.4366 123.278 51.5207C123.382 51.6032 123.517 51.6444 123.682 51.6444ZM126.382 51.969C126.19 51.969 126.045 51.9355 125.949 51.8686C125.853 51.7999 125.789 51.7114 125.756 51.6032C125.725 51.4932 125.71 51.3756 125.71 51.2502V48.1069H126.178V51.2038C126.178 51.3395 126.204 51.4409 126.256 51.5078C126.309 51.5731 126.383 51.6092 126.477 51.6161L126.622 51.6186V51.9278C126.536 51.9553 126.456 51.969 126.382 51.969ZM127.841 51.969C127.649 51.969 127.505 51.9355 127.408 51.8686C127.312 51.7999 127.248 51.7114 127.215 51.6032C127.184 51.4932 127.169 51.3756 127.169 51.2502V48.1069H127.638V51.2038C127.638 51.3395 127.664 51.4409 127.715 51.5078C127.768 51.5731 127.842 51.6092 127.937 51.6161L128.081 51.6186V51.9278C127.995 51.9553 127.915 51.969 127.841 51.969ZM132.713 50.6473C132.713 51.0767 132.605 51.4074 132.39 51.6393C132.176 51.8711 131.829 51.9871 131.35 51.9871C130.865 51.9871 130.517 51.8686 130.306 51.6315C130.095 51.3928 129.989 51.0484 129.989 50.5983V48.2099H130.484V50.6705C130.484 50.9711 130.559 51.1961 130.708 51.3455C130.857 51.495 131.071 51.5697 131.35 51.5697C131.63 51.5697 131.847 51.4958 132.001 51.3481C132.156 51.2004 132.233 50.9745 132.233 50.6705V48.2099H132.713V50.6473ZM134.445 51.9871C134.258 51.9871 134.085 51.9579 133.927 51.8995C133.769 51.8411 133.637 51.7518 133.53 51.6315C133.425 51.5096 133.36 51.3524 133.334 51.16H133.767C133.802 51.3163 133.88 51.434 134.002 51.513C134.125 51.592 134.272 51.6315 134.442 51.6315C134.621 51.6315 134.765 51.598 134.875 51.531C134.985 51.464 135.04 51.361 135.04 51.2219C135.04 51.0346 134.922 50.9127 134.687 50.856L134.136 50.7194C133.919 50.6679 133.747 50.5872 133.618 50.4773C133.491 50.3673 133.427 50.2136 133.427 50.0161C133.425 49.7825 133.51 49.5918 133.68 49.4441C133.85 49.2946 134.104 49.2199 134.442 49.2199C134.731 49.2199 134.964 49.2852 135.141 49.4157C135.319 49.5463 135.412 49.7361 135.419 49.9851H134.999C134.98 49.858 134.922 49.7576 134.826 49.6837C134.73 49.6081 134.6 49.5703 134.437 49.5703C134.267 49.5703 134.129 49.6047 134.022 49.6734C133.916 49.7404 133.863 49.8452 133.863 49.9877C133.863 50.0822 133.9 50.1569 133.976 50.2119C134.052 50.2651 134.163 50.3098 134.311 50.3459L134.844 50.4798C135.007 50.5228 135.135 50.5837 135.226 50.6628C135.317 50.7418 135.38 50.8285 135.416 50.923C135.452 51.0175 135.47 51.1085 135.47 51.1961C135.47 51.4417 135.38 51.635 135.2 51.7758C135.019 51.9167 134.768 51.9871 134.445 51.9871Z" fill="black"/>
</g>
</g>
<g style="mix-blend-mode:color">
<rect width="320" height="120" fill="#808080"/>
</g>
<g style="mix-blend-mode:color">
<rect width="320" height="120" fill="#00284D"/>
</g>
<defs>
<filter id="filter0_d_454_428" x="67.4073" y="43.8164" width="37.3059" height="14.2383" filterUnits="userSpaceOnUse" color-interpolation-filters="sRGB">
<feFlood flood-opacity="0" result="BackgroundImageFix"/>
<feColorMatrix in="SourceAlpha" type="matrix" values="0 0 0 0 0 0 0 0 0 0 0 0 0 0 0 0 0 0 127 0" result="hardAlpha"/>
<feOffset dy="2"/>
<feColorMatrix type="matrix" values="0 0 0 0 0.423529 0 0 0 0 0.458824 0 0 0 0 0.490196 0 0 0 0.62 0"/>
<feBlend mode="normal" in2="BackgroundImageFix" result="effect1_dropShadow_454_428"/>
<feBlend mode="normal" in="SourceGraphic" in2="effect1_dropShadow_454_428" result="shape"/>
</filter>
<filter id="filter1_d_454_428" x="106.377" y="43.8164" width="33.3059" height="14.2383" filterUnits="userSpaceOnUse" color-interpolation-filters="sRGB">
<feFlood flood-opacity="0" result="BackgroundImageFix"/>
<feColorMatrix in="SourceAlpha" type="matrix" values="0 0 0 0 0 0 0 0 0 0 0 0 0 0 0 0 0 0 127 0" result="hardAlpha"/>
<feOffset dy="2"/>
<feColorMatrix type="matrix" values="0 0 0 0 0.423529 0 0 0 0 0.458824 0 0 0 0 0.490196 0 0 0 0.62 0"/>
<feBlend mode="normal" in2="BackgroundImageFix" result="effect1_dropShadow_454_428"/>
<feBlend mode="normal" in="SourceGraphic" in2="effect1_dropShadow_454_428" result="shape"/>
</filter>
<clipPath id="clip0_454_428">
<rect width="200" height="99.1948" fill="white" transform="translate(60 10)"/>
</clipPath>
</defs>
</svg>
