<svg width="320" height="120" viewBox="0 0 320 120" fill="none" xmlns="http://www.w3.org/2000/svg">
<rect width="320" height="120" fill="#C0CEDB"/>
<circle cx="160" cy="60" r="44" fill="#495057"/>
<path fill-rule="evenodd" clip-rule="evenodd" d="M153.947 34.2308C153.947 37.5486 156.636 40.2391 159.953 40.2391C163.271 40.2391 165.962 37.5486 165.962 34.2307C165.962 30.9118 163.271 28.2222 159.953 28.2222C156.636 28.2222 153.947 30.9118 153.947 34.2308ZM150.649 45.4737L143.952 60.8311C143.55 61.7533 143.64 62.816 144.192 63.6569C144.742 64.4987 145.68 65.0052 146.686 65.0052C147.873 65.0052 148.945 64.3028 149.42 63.2154L151.945 57.4256V87.7102C151.945 89.5064 153.401 90.9629 155.197 90.9629C156.994 90.9629 158.451 89.5064 158.451 87.7092V67.2831H161.456V87.7092C161.456 89.5064 162.912 90.9629 164.71 90.9629C166.508 90.9629 167.964 89.5064 167.964 87.7092V57.4277L170.488 63.2142C170.962 64.3016 172.035 65.0041 173.222 65.0041C174.228 65.0041 175.165 64.4975 175.716 63.6556C176.267 62.814 176.357 61.7523 175.956 60.8301L169.26 45.4748C168.586 43.9282 167.169 42.9007 165.542 42.6233C165.287 42.555 154.62 42.5561 154.373 42.6211C152.744 42.8977 151.323 43.9252 150.649 45.4737Z" fill="white"/>
<g style="mix-blend-mode:color">
<rect width="320" height="120" fill="#808080"/>
</g>
<g style="mix-blend-mode:color">
<rect width="320" height="120" fill="#00284D"/>
</g>
</svg>
