<svg width="320" height="120" viewBox="0 0 320 120" fill="none" xmlns="http://www.w3.org/2000/svg">
<rect width="320" height="120" fill="#C0CEDB"/>
<rect x="59" y="45" width="88" height="30" rx="15" fill="white"/>
<path d="M101.384 53.432H99.92L96.376 63.32L92.832 53.432H91.368L95.488 65H97.272L101.384 53.432ZM104.607 65.16C105.791 65.16 106.807 64.736 107.447 63.448L107.559 65H108.823V59.224C108.823 57.496 107.751 56.568 105.599 56.568C103.591 56.568 102.359 57.456 102.271 59.064H103.575C103.775 58.08 104.575 57.664 105.527 57.656C106.799 57.656 107.391 58.296 107.391 59.304V59.952L105.919 59.992C103.087 60.056 101.879 60.928 101.879 62.76C101.879 64.272 102.999 65.16 104.607 65.16ZM105.047 64.096C104.031 64.096 103.311 63.552 103.311 62.616C103.311 61.392 104.263 60.92 106.167 60.888L107.391 60.864V62.28C107.391 63.2 106.159 64.096 105.047 64.096ZM113.218 65.104C113.426 65.104 113.714 65.056 113.962 64.976V64.016L113.514 64.008C112.93 63.968 112.586 63.568 112.586 62.728V53.112H111.13V62.872C111.13 64.032 111.434 65.104 113.218 65.104ZM118.748 65.16C119.916 65.168 120.924 64.656 121.228 63.416L121.38 65H122.556V56.728H121.084V62.112C121.084 63.368 120.276 64.008 119.06 64.008C117.708 64.008 117.052 63.272 117.052 62.192V56.728H115.572V62.344C115.572 64.208 117.028 65.144 118.748 65.16ZM126.078 61.208H132.006V60.664C132.006 58.152 130.71 56.568 128.382 56.568C125.974 56.568 124.582 58.336 124.582 60.944C124.582 63.584 126.174 65.16 128.486 65.16C130.094 65.16 131.646 64.272 131.95 62.584H130.558C130.35 63.52 129.518 64.016 128.462 64.016C126.854 64.016 126.078 62.776 126.078 61.208ZM126.086 60.208C126.078 58.976 126.814 57.688 128.374 57.688C129.87 57.688 130.582 58.784 130.582 60.208H126.086Z" fill="#343A40"/>
<path d="M84.875 51.791H71.125C70.0703 51.791 69.25 52.6504 69.25 53.666V67.416C69.25 68.4707 70.0703 69.291 71.125 69.291H84.875C85.8906 69.291 86.75 68.4707 86.75 67.416V53.666C86.75 52.6504 85.8906 51.791 84.875 51.791Z" fill="#6C757D"/>
<rect x="59" y="45" width="88" height="30" rx="15" stroke="#6C757D" stroke-width="2"/>
<rect x="173" y="45" width="88" height="30" rx="15" fill="white"/>
<path d="M215.384 53.432H213.92L210.376 63.32L206.832 53.432H205.368L209.488 65H211.272L215.384 53.432ZM218.607 65.16C219.791 65.16 220.807 64.736 221.447 63.448L221.559 65H222.823V59.224C222.823 57.496 221.751 56.568 219.599 56.568C217.591 56.568 216.359 57.456 216.271 59.064H217.575C217.775 58.08 218.575 57.664 219.527 57.656C220.799 57.656 221.391 58.296 221.391 59.304V59.952L219.919 59.992C217.087 60.056 215.879 60.928 215.879 62.76C215.879 64.272 216.999 65.16 218.607 65.16ZM219.047 64.096C218.031 64.096 217.311 63.552 217.311 62.616C217.311 61.392 218.263 60.92 220.167 60.888L221.391 60.864V62.28C221.391 63.2 220.159 64.096 219.047 64.096ZM227.218 65.104C227.426 65.104 227.714 65.056 227.962 64.976V64.016L227.514 64.008C226.93 63.968 226.586 63.568 226.586 62.728V53.112H225.13V62.872C225.13 64.032 225.434 65.104 227.218 65.104ZM232.748 65.16C233.916 65.168 234.924 64.656 235.228 63.416L235.38 65H236.556V56.728H235.084V62.112C235.084 63.368 234.276 64.008 233.06 64.008C231.708 64.008 231.052 63.272 231.052 62.192V56.728H229.572V62.344C229.572 64.208 231.028 65.144 232.748 65.16ZM240.078 61.208H246.006V60.664C246.006 58.152 244.71 56.568 242.382 56.568C239.974 56.568 238.582 58.336 238.582 60.944C238.582 63.584 240.174 65.16 242.486 65.16C244.094 65.16 245.646 64.272 245.95 62.584H244.558C244.35 63.52 243.518 64.016 242.462 64.016C240.854 64.016 240.078 62.776 240.078 61.208ZM240.086 60.208C240.078 58.976 240.814 57.688 242.374 57.688C243.87 57.688 244.582 58.784 244.582 60.208H240.086Z" fill="#343A40"/>
<path d="M189 50.8125C183.648 50.8125 179.312 55.1484 179.312 60.5C179.312 65.8516 183.648 70.1875 189 70.1875C194.352 70.1875 198.688 65.8516 198.688 60.5C198.688 55.1484 194.352 50.8125 189 50.8125Z" fill="#6C757D"/>
<rect x="173" y="45" width="88" height="30" rx="15" stroke="#6C757D" stroke-width="2"/>
<g style="mix-blend-mode:color">
<rect width="320" height="120" fill="#808080"/>
</g>
<g style="mix-blend-mode:color">
<rect width="320" height="120" fill="#00284D"/>
</g>
</svg>
