<svg width="320" height="120" viewBox="0 0 320 120" fill="none" xmlns="http://www.w3.org/2000/svg">
<g clip-path="url(#clip0)">
<rect width="320" height="120" fill="#C0CEDB"/>
<circle cx="160" cy="60" r="39" fill="white"/>
<g style="mix-blend-mode:color">
<rect width="320" height="120" fill="#808080"/>
</g>
<g style="mix-blend-mode:color">
<rect width="320" height="120" fill="#00284D"/>
</g>
<g opacity="0.2">
<path d="M16 0C9.38644 0 4 5.38499 4 12.0032C4 18.6215 9.38644 24 16 24C22.6136 24 28 18.615 28 12.0032C28 5.39144 22.62 0 16 0ZM16 20.7264C11.1884 20.7264 7.26803 16.8136 7.26803 11.9968C7.26803 7.17998 11.1884 3.27361 16 3.27361C20.8116 3.27361 24.732 7.1929 24.732 12.0032C24.732 16.8136 20.8181 20.7264 16 20.7264ZM19.2487 13.9919L21.0183 15.6384L20.127 16.4197C19.0097 17.3947 17.5823 17.937 16.1098 17.937C12.7966 17.937 10.1033 15.3027 10.1033 12.0549C10.1033 8.82002 12.7966 6.19209 16.1098 6.19209C17.5823 6.19209 19.0097 6.72801 20.1141 7.69653L20.9731 8.44552L19.2745 10.1437L18.5188 9.47861C17.873 8.90395 17.014 8.59403 16.1033 8.59403C14.1141 8.59403 12.4995 10.1501 12.4995 12.0613C12.4995 13.979 14.1206 15.5416 16.1033 15.5416C17.0011 15.5416 17.8601 15.2187 18.5188 14.6376L19.2487 13.9919Z" fill="white"/>
</g>
<g opacity="0.2">
<path d="M16 64C9.38644 64 4 69.385 4 76.0032C4 82.6215 9.38644 88 16 88C22.6136 88 28 82.615 28 76.0032C28 69.3914 22.62 64 16 64ZM16 84.7264C11.1884 84.7264 7.26803 80.8136 7.26803 75.9968C7.26803 71.18 11.1884 67.2736 16 67.2736C20.8116 67.2736 24.732 71.1929 24.732 76.0032C24.732 80.8136 20.8181 84.7264 16 84.7264ZM19.2487 77.9919L21.0183 79.6384L20.127 80.4197C19.0097 81.3947 17.5823 81.937 16.1098 81.937C12.7966 81.937 10.1033 79.3027 10.1033 76.0549C10.1033 72.82 12.7966 70.1921 16.1098 70.1921C17.5823 70.1921 19.0097 70.728 20.1141 71.6965L20.9731 72.4455L19.2745 74.1437L18.5188 73.4786C17.873 72.904 17.014 72.594 16.1033 72.594C14.1141 72.594 12.4995 74.1501 12.4995 76.0613C12.4995 77.979 14.1206 79.5416 16.1033 79.5416C17.0011 79.5416 17.8601 79.2187 18.5188 78.6376L19.2487 77.9919Z" fill="white"/>
</g>
<g opacity="0.2">
<path d="M64 32C57.3864 32 52 37.385 52 44.0032C52 50.6215 57.3864 56 64 56C70.6136 56 76 50.615 76 44.0032C76 37.3914 70.62 32 64 32ZM64 52.7264C59.1884 52.7264 55.268 48.8136 55.268 43.9968C55.268 39.18 59.1884 35.2736 64 35.2736C68.8116 35.2736 72.732 39.1929 72.732 44.0032C72.732 48.8136 68.8181 52.7264 64 52.7264ZM67.2487 45.9919L69.0183 47.6384L68.127 48.4197C67.0097 49.3947 65.5823 49.937 64.1098 49.937C60.7966 49.937 58.1033 47.3027 58.1033 44.0549C58.1033 40.82 60.7966 38.1921 64.1098 38.1921C65.5823 38.1921 67.0097 38.728 68.1141 39.6965L68.9731 40.4455L67.2745 42.1437L66.5188 41.4786C65.873 40.904 65.014 40.594 64.1033 40.594C62.1141 40.594 60.4995 42.1501 60.4995 44.0613C60.4995 45.979 62.1206 47.5416 64.1033 47.5416C65.0011 47.5416 65.8601 47.2187 66.5188 46.6376L67.2487 45.9919Z" fill="white"/>
</g>
<g opacity="0.2">
<path d="M64 96C57.3864 96 52 101.385 52 108.003C52 114.621 57.3864 120 64 120C70.6136 120 76 114.615 76 108.003C76 101.391 70.62 96 64 96ZM64 116.726C59.1884 116.726 55.268 112.814 55.268 107.997C55.268 103.18 59.1884 99.2736 64 99.2736C68.8116 99.2736 72.732 103.193 72.732 108.003C72.732 112.814 68.8181 116.726 64 116.726ZM67.2487 109.992L69.0183 111.638L68.127 112.42C67.0097 113.395 65.5823 113.937 64.1098 113.937C60.7966 113.937 58.1033 111.303 58.1033 108.055C58.1033 104.82 60.7966 102.192 64.1098 102.192C65.5823 102.192 67.0097 102.728 68.1141 103.697L68.9731 104.446L67.2745 106.144L66.5188 105.479C65.873 104.904 65.014 104.594 64.1033 104.594C62.1141 104.594 60.4995 106.15 60.4995 108.061C60.4995 109.979 62.1206 111.542 64.1033 111.542C65.0011 111.542 65.8601 111.219 66.5188 110.638L67.2487 109.992Z" fill="white"/>
</g>
<g opacity="0.2">
<path d="M32 32C25.3864 32 20 37.385 20 44.0032C20 50.6215 25.3864 56 32 56C38.6136 56 44 50.615 44 44.0032C44 37.3914 38.62 32 32 32ZM32 52.7264C27.1884 52.7264 23.268 48.8136 23.268 43.9968C23.268 39.18 27.1884 35.2736 32 35.2736C36.8116 35.2736 40.732 39.1929 40.732 44.0032C40.732 48.8136 36.8181 52.7264 32 52.7264ZM35.2487 45.9919L37.0183 47.6384L36.127 48.4197C35.0097 49.3947 33.5823 49.937 32.1098 49.937C28.7966 49.937 26.1033 47.3027 26.1033 44.0549C26.1033 40.82 28.7966 38.1921 32.1098 38.1921C33.5823 38.1921 35.0097 38.728 36.1141 39.6965L36.9731 40.4455L35.2745 42.1437L34.5188 41.4786C33.873 40.904 33.014 40.594 32.1033 40.594C30.1141 40.594 28.4995 42.1501 28.4995 44.0613C28.4995 45.979 30.1206 47.5416 32.1033 47.5416C33.0011 47.5416 33.8601 47.2187 34.5188 46.6376L35.2487 45.9919Z" fill="white"/>
</g>
<g opacity="0.2">
<path d="M32 96C25.3864 96 20 101.385 20 108.003C20 114.621 25.3864 120 32 120C38.6136 120 44 114.615 44 108.003C44 101.391 38.62 96 32 96ZM32 116.726C27.1884 116.726 23.268 112.814 23.268 107.997C23.268 103.18 27.1884 99.2736 32 99.2736C36.8116 99.2736 40.732 103.193 40.732 108.003C40.732 112.814 36.8181 116.726 32 116.726ZM35.2487 109.992L37.0183 111.638L36.127 112.42C35.0097 113.395 33.5823 113.937 32.1098 113.937C28.7966 113.937 26.1033 111.303 26.1033 108.055C26.1033 104.82 28.7966 102.192 32.1098 102.192C33.5823 102.192 35.0097 102.728 36.1141 103.697L36.9731 104.446L35.2745 106.144L34.5188 105.479C33.873 104.904 33.014 104.594 32.1033 104.594C30.1141 104.594 28.4995 106.15 28.4995 108.061C28.4995 109.979 30.1206 111.542 32.1033 111.542C33.0011 111.542 33.8601 111.219 34.5188 110.638L35.2487 109.992Z" fill="white"/>
</g>
<g opacity="0.2">
<path d="M-1.59038e-07 32C-6.61356 32 -12 37.385 -12 44.0032C-12 50.6215 -6.61356 56 -1.59038e-07 56C6.61356 56 12 50.615 12 44.0032C12 37.3914 6.62002 32 -1.59038e-07 32ZM-1.59038e-07 52.7264C-4.81163 52.7264 -8.73197 48.8136 -8.73197 43.9968C-8.73197 39.18 -4.81163 35.2736 -1.59038e-07 35.2736C4.81163 35.2736 8.73197 39.1929 8.73197 44.0032C8.73197 48.8136 4.81808 52.7264 -1.59038e-07 52.7264ZM3.24865 45.9919L5.0183 47.6384L4.12702 48.4197C3.00969 49.3947 1.58235 49.937 0.109795 49.937C-3.20344 49.937 -5.89666 47.3027 -5.89666 44.0549C-5.89666 40.82 -3.20344 38.1921 0.109795 38.1921C1.58235 38.1921 3.00969 38.728 4.1141 39.6965L4.97309 40.4455L3.27449 42.1437L2.51884 41.4786C1.87298 40.904 1.01399 40.594 0.103336 40.594C-1.8859 40.594 -3.50054 42.1501 -3.50054 44.0613C-3.50054 45.979 -1.87944 47.5416 0.103336 47.5416C1.00108 47.5416 1.86006 47.2187 2.51884 46.6376L3.24865 45.9919Z" fill="white"/>
</g>
<g opacity="0.2">
<path d="M-1.59038e-07 96C-6.61356 96 -12 101.385 -12 108.003C-12 114.621 -6.61356 120 -1.59038e-07 120C6.61356 120 12 114.615 12 108.003C12 101.391 6.62002 96 -1.59038e-07 96ZM-1.59038e-07 116.726C-4.81163 116.726 -8.73197 112.814 -8.73197 107.997C-8.73197 103.18 -4.81163 99.2736 -1.59038e-07 99.2736C4.81163 99.2736 8.73197 103.193 8.73197 108.003C8.73197 112.814 4.81808 116.726 -1.59038e-07 116.726ZM3.24865 109.992L5.0183 111.638L4.12702 112.42C3.00969 113.395 1.58235 113.937 0.109795 113.937C-3.20344 113.937 -5.89666 111.303 -5.89666 108.055C-5.89666 104.82 -3.20344 102.192 0.109795 102.192C1.58235 102.192 3.00969 102.728 4.1141 103.697L4.97309 104.446L3.27449 106.144L2.51884 105.479C1.87298 104.904 1.01399 104.594 0.103336 104.594C-1.8859 104.594 -3.50054 106.15 -3.50054 108.061C-3.50054 109.979 -1.87944 111.542 0.103336 111.542C1.00108 111.542 1.86006 111.219 2.51884 110.638L3.24865 109.992Z" fill="white"/>
</g>
<g opacity="0.2">
<path d="M48 0C41.3864 0 36 5.38499 36 12.0032C36 18.6215 41.3864 24 48 24C54.6136 24 60 18.615 60 12.0032C60 5.39144 54.62 0 48 0ZM48 20.7264C43.1884 20.7264 39.268 16.8136 39.268 11.9968C39.268 7.17998 43.1884 3.27361 48 3.27361C52.8116 3.27361 56.732 7.1929 56.732 12.0032C56.732 16.8136 52.8181 20.7264 48 20.7264ZM51.2487 13.9919L53.0183 15.6384L52.127 16.4197C51.0097 17.3947 49.5823 17.937 48.1098 17.937C44.7966 17.937 42.1033 15.3027 42.1033 12.0549C42.1033 8.82002 44.7966 6.19209 48.1098 6.19209C49.5823 6.19209 51.0097 6.72801 52.1141 7.69653L52.9731 8.44552L51.2745 10.1437L50.5188 9.47861C49.873 8.90395 49.014 8.59403 48.1033 8.59403C46.1141 8.59403 44.4995 10.1501 44.4995 12.0613C44.4995 13.979 46.1206 15.5416 48.1033 15.5416C49.0011 15.5416 49.8601 15.2187 50.5188 14.6376L51.2487 13.9919Z" fill="white"/>
</g>
<g opacity="0.2">
<path d="M48 64C41.3864 64 36 69.385 36 76.0032C36 82.6215 41.3864 88 48 88C54.6136 88 60 82.615 60 76.0032C60 69.3914 54.62 64 48 64ZM48 84.7264C43.1884 84.7264 39.268 80.8136 39.268 75.9968C39.268 71.18 43.1884 67.2736 48 67.2736C52.8116 67.2736 56.732 71.1929 56.732 76.0032C56.732 80.8136 52.8181 84.7264 48 84.7264ZM51.2487 77.9919L53.0183 79.6384L52.127 80.4197C51.0097 81.3947 49.5823 81.937 48.1098 81.937C44.7966 81.937 42.1033 79.3027 42.1033 76.0549C42.1033 72.82 44.7966 70.1921 48.1098 70.1921C49.5823 70.1921 51.0097 70.728 52.1141 71.6965L52.9731 72.4455L51.2745 74.1437L50.5188 73.4786C49.873 72.904 49.014 72.594 48.1033 72.594C46.1141 72.594 44.4995 74.1501 44.4995 76.0613C44.4995 77.979 46.1206 79.5416 48.1033 79.5416C49.0011 79.5416 49.8601 79.2187 50.5188 78.6376L51.2487 77.9919Z" fill="white"/>
</g>
<g opacity="0.2">
<path d="M96 32C89.3864 32 84 37.385 84 44.0032C84 50.6215 89.3864 56 96 56C102.614 56 108 50.615 108 44.0032C108 37.3914 102.62 32 96 32ZM96 52.7264C91.1884 52.7264 87.268 48.8136 87.268 43.9968C87.268 39.18 91.1884 35.2736 96 35.2736C100.812 35.2736 104.732 39.1929 104.732 44.0032C104.732 48.8136 100.818 52.7264 96 52.7264ZM99.2487 45.9919L101.018 47.6384L100.127 48.4197C99.0097 49.3947 97.5823 49.937 96.1098 49.937C92.7966 49.937 90.1033 47.3027 90.1033 44.0549C90.1033 40.82 92.7966 38.1921 96.1098 38.1921C97.5823 38.1921 99.0097 38.728 100.114 39.6965L100.973 40.4455L99.2745 42.1437L98.5188 41.4786C97.873 40.904 97.014 40.594 96.1033 40.594C94.1141 40.594 92.4995 42.1501 92.4995 44.0613C92.4995 45.979 94.1206 47.5416 96.1033 47.5416C97.0011 47.5416 97.8601 47.2187 98.5188 46.6376L99.2487 45.9919Z" fill="white"/>
</g>
<g opacity="0.2">
<path d="M96 96C89.3864 96 84 101.385 84 108.003C84 114.621 89.3864 120 96 120C102.614 120 108 114.615 108 108.003C108 101.391 102.62 96 96 96ZM96 116.726C91.1884 116.726 87.268 112.814 87.268 107.997C87.268 103.18 91.1884 99.2736 96 99.2736C100.812 99.2736 104.732 103.193 104.732 108.003C104.732 112.814 100.818 116.726 96 116.726ZM99.2487 109.992L101.018 111.638L100.127 112.42C99.0097 113.395 97.5823 113.937 96.1098 113.937C92.7966 113.937 90.1033 111.303 90.1033 108.055C90.1033 104.82 92.7966 102.192 96.1098 102.192C97.5823 102.192 99.0097 102.728 100.114 103.697L100.973 104.446L99.2745 106.144L98.5188 105.479C97.873 104.904 97.014 104.594 96.1033 104.594C94.1141 104.594 92.4995 106.15 92.4995 108.061C92.4995 109.979 94.1206 111.542 96.1033 111.542C97.0011 111.542 97.8601 111.219 98.5188 110.638L99.2487 109.992Z" fill="white"/>
</g>
<g opacity="0.2">
<path d="M80 0C73.3864 0 68 5.38499 68 12.0032C68 18.6215 73.3864 24 80 24C86.6136 24 92 18.615 92 12.0032C92 5.39144 86.62 0 80 0ZM80 20.7264C75.1884 20.7264 71.268 16.8136 71.268 11.9968C71.268 7.17998 75.1884 3.27361 80 3.27361C84.8116 3.27361 88.732 7.1929 88.732 12.0032C88.732 16.8136 84.8181 20.7264 80 20.7264ZM83.2487 13.9919L85.0183 15.6384L84.127 16.4197C83.0097 17.3947 81.5823 17.937 80.1098 17.937C76.7966 17.937 74.1033 15.3027 74.1033 12.0549C74.1033 8.82002 76.7966 6.19209 80.1098 6.19209C81.5823 6.19209 83.0097 6.72801 84.1141 7.69653L84.9731 8.44552L83.2745 10.1437L82.5188 9.47861C81.873 8.90395 81.014 8.59403 80.1033 8.59403C78.1141 8.59403 76.4995 10.1501 76.4995 12.0613C76.4995 13.979 78.1206 15.5416 80.1033 15.5416C81.0011 15.5416 81.8601 15.2187 82.5188 14.6376L83.2487 13.9919Z" fill="white"/>
</g>
<g opacity="0.2">
<path d="M80 64C73.3864 64 68 69.385 68 76.0032C68 82.6215 73.3864 88 80 88C86.6136 88 92 82.615 92 76.0032C92 69.3914 86.62 64 80 64ZM80 84.7264C75.1884 84.7264 71.268 80.8136 71.268 75.9968C71.268 71.18 75.1884 67.2736 80 67.2736C84.8116 67.2736 88.732 71.1929 88.732 76.0032C88.732 80.8136 84.8181 84.7264 80 84.7264ZM83.2487 77.9919L85.0183 79.6384L84.127 80.4197C83.0097 81.3947 81.5823 81.937 80.1098 81.937C76.7966 81.937 74.1033 79.3027 74.1033 76.0549C74.1033 72.82 76.7966 70.1921 80.1098 70.1921C81.5823 70.1921 83.0097 70.728 84.1141 71.6965L84.9731 72.4455L83.2745 74.1437L82.5188 73.4786C81.873 72.904 81.014 72.594 80.1033 72.594C78.1141 72.594 76.4995 74.1501 76.4995 76.0613C76.4995 77.979 78.1206 79.5416 80.1033 79.5416C81.0011 79.5416 81.8601 79.2187 82.5188 78.6376L83.2487 77.9919Z" fill="white"/>
</g>
<g opacity="0.2">
<path d="M128 32C121.386 32 116 37.385 116 44.0032C116 50.6215 121.386 56 128 56C134.614 56 140 50.615 140 44.0032C140 37.3914 134.62 32 128 32ZM128 52.7264C123.188 52.7264 119.268 48.8136 119.268 43.9968C119.268 39.18 123.188 35.2736 128 35.2736C132.812 35.2736 136.732 39.1929 136.732 44.0032C136.732 48.8136 132.818 52.7264 128 52.7264ZM131.249 45.9919L133.018 47.6384L132.127 48.4197C131.01 49.3947 129.582 49.937 128.11 49.937C124.797 49.937 122.103 47.3027 122.103 44.0549C122.103 40.82 124.797 38.1921 128.11 38.1921C129.582 38.1921 131.01 38.728 132.114 39.6965L132.973 40.4455L131.274 42.1437L130.519 41.4786C129.873 40.904 129.014 40.594 128.103 40.594C126.114 40.594 124.499 42.1501 124.499 44.0613C124.499 45.979 126.121 47.5416 128.103 47.5416C129.001 47.5416 129.86 47.2187 130.519 46.6376L131.249 45.9919Z" fill="white"/>
</g>
<g opacity="0.2">
<path d="M128 96C121.386 96 116 101.385 116 108.003C116 114.621 121.386 120 128 120C134.614 120 140 114.615 140 108.003C140 101.391 134.62 96 128 96ZM128 116.726C123.188 116.726 119.268 112.814 119.268 107.997C119.268 103.18 123.188 99.2736 128 99.2736C132.812 99.2736 136.732 103.193 136.732 108.003C136.732 112.814 132.818 116.726 128 116.726ZM131.249 109.992L133.018 111.638L132.127 112.42C131.01 113.395 129.582 113.937 128.11 113.937C124.797 113.937 122.103 111.303 122.103 108.055C122.103 104.82 124.797 102.192 128.11 102.192C129.582 102.192 131.01 102.728 132.114 103.697L132.973 104.446L131.274 106.144L130.519 105.479C129.873 104.904 129.014 104.594 128.103 104.594C126.114 104.594 124.499 106.15 124.499 108.061C124.499 109.979 126.121 111.542 128.103 111.542C129.001 111.542 129.86 111.219 130.519 110.638L131.249 109.992Z" fill="white"/>
</g>
<g opacity="0.2">
<path d="M112 0C105.386 0 100 5.38499 100 12.0032C100 18.6215 105.386 24 112 24C118.614 24 124 18.615 124 12.0032C124 5.39144 118.62 0 112 0ZM112 20.7264C107.188 20.7264 103.268 16.8136 103.268 11.9968C103.268 7.17998 107.188 3.27361 112 3.27361C116.812 3.27361 120.732 7.1929 120.732 12.0032C120.732 16.8136 116.818 20.7264 112 20.7264ZM115.249 13.9919L117.018 15.6384L116.127 16.4197C115.01 17.3947 113.582 17.937 112.11 17.937C108.797 17.937 106.103 15.3027 106.103 12.0549C106.103 8.82002 108.797 6.19209 112.11 6.19209C113.582 6.19209 115.01 6.72801 116.114 7.69653L116.973 8.44552L115.274 10.1437L114.519 9.47861C113.873 8.90395 113.014 8.59403 112.103 8.59403C110.114 8.59403 108.499 10.1501 108.499 12.0613C108.499 13.979 110.121 15.5416 112.103 15.5416C113.001 15.5416 113.86 15.2187 114.519 14.6376L115.249 13.9919Z" fill="white"/>
</g>
<g opacity="0.2">
<path d="M112 64C105.386 64 100 69.385 100 76.0032C100 82.6215 105.386 88 112 88C118.614 88 124 82.615 124 76.0032C124 69.3914 118.62 64 112 64ZM112 84.7264C107.188 84.7264 103.268 80.8136 103.268 75.9968C103.268 71.18 107.188 67.2736 112 67.2736C116.812 67.2736 120.732 71.1929 120.732 76.0032C120.732 80.8136 116.818 84.7264 112 84.7264ZM115.249 77.9919L117.018 79.6384L116.127 80.4197C115.01 81.3947 113.582 81.937 112.11 81.937C108.797 81.937 106.103 79.3027 106.103 76.0549C106.103 72.82 108.797 70.1921 112.11 70.1921C113.582 70.1921 115.01 70.728 116.114 71.6965L116.973 72.4455L115.274 74.1437L114.519 73.4786C113.873 72.904 113.014 72.594 112.103 72.594C110.114 72.594 108.499 74.1501 108.499 76.0613C108.499 77.979 110.121 79.5416 112.103 79.5416C113.001 79.5416 113.86 79.2187 114.519 78.6376L115.249 77.9919Z" fill="white"/>
</g>
<g opacity="0.2">
<path d="M160 32C153.386 32 148 37.385 148 44.0032C148 50.6215 153.386 56 160 56C166.614 56 172 50.615 172 44.0032C172 37.3914 166.62 32 160 32ZM160 52.7264C155.188 52.7264 151.268 48.8136 151.268 43.9968C151.268 39.18 155.188 35.2736 160 35.2736C164.812 35.2736 168.732 39.1929 168.732 44.0032C168.732 48.8136 164.818 52.7264 160 52.7264ZM163.249 45.9919L165.018 47.6384L164.127 48.4197C163.01 49.3947 161.582 49.937 160.11 49.937C156.797 49.937 154.103 47.3027 154.103 44.0549C154.103 40.82 156.797 38.1921 160.11 38.1921C161.582 38.1921 163.01 38.728 164.114 39.6965L164.973 40.4455L163.274 42.1437L162.519 41.4786C161.873 40.904 161.014 40.594 160.103 40.594C158.114 40.594 156.499 42.1501 156.499 44.0613C156.499 45.979 158.121 47.5416 160.103 47.5416C161.001 47.5416 161.86 47.2187 162.519 46.6376L163.249 45.9919Z" fill="white"/>
</g>
<g opacity="0.2">
<path d="M160 96C153.386 96 148 101.385 148 108.003C148 114.621 153.386 120 160 120C166.614 120 172 114.615 172 108.003C172 101.391 166.62 96 160 96ZM160 116.726C155.188 116.726 151.268 112.814 151.268 107.997C151.268 103.18 155.188 99.2736 160 99.2736C164.812 99.2736 168.732 103.193 168.732 108.003C168.732 112.814 164.818 116.726 160 116.726ZM163.249 109.992L165.018 111.638L164.127 112.42C163.01 113.395 161.582 113.937 160.11 113.937C156.797 113.937 154.103 111.303 154.103 108.055C154.103 104.82 156.797 102.192 160.11 102.192C161.582 102.192 163.01 102.728 164.114 103.697L164.973 104.446L163.274 106.144L162.519 105.479C161.873 104.904 161.014 104.594 160.103 104.594C158.114 104.594 156.499 106.15 156.499 108.061C156.499 109.979 158.121 111.542 160.103 111.542C161.001 111.542 161.86 111.219 162.519 110.638L163.249 109.992Z" fill="white"/>
</g>
<g opacity="0.2">
<path d="M144 0C137.386 0 132 5.38499 132 12.0032C132 18.6215 137.386 24 144 24C150.614 24 156 18.615 156 12.0032C156 5.39144 150.62 0 144 0ZM144 20.7264C139.188 20.7264 135.268 16.8136 135.268 11.9968C135.268 7.17998 139.188 3.27361 144 3.27361C148.812 3.27361 152.732 7.1929 152.732 12.0032C152.732 16.8136 148.818 20.7264 144 20.7264ZM147.249 13.9919L149.018 15.6384L148.127 16.4197C147.01 17.3947 145.582 17.937 144.11 17.937C140.797 17.937 138.103 15.3027 138.103 12.0549C138.103 8.82002 140.797 6.19209 144.11 6.19209C145.582 6.19209 147.01 6.72801 148.114 7.69653L148.973 8.44552L147.274 10.1437L146.519 9.47861C145.873 8.90395 145.014 8.59403 144.103 8.59403C142.114 8.59403 140.499 10.1501 140.499 12.0613C140.499 13.979 142.121 15.5416 144.103 15.5416C145.001 15.5416 145.86 15.2187 146.519 14.6376L147.249 13.9919Z" fill="white"/>
</g>
<g opacity="0.2">
<path d="M144 64C137.386 64 132 69.385 132 76.0032C132 82.6215 137.386 88 144 88C150.614 88 156 82.615 156 76.0032C156 69.3914 150.62 64 144 64ZM144 84.7264C139.188 84.7264 135.268 80.8136 135.268 75.9968C135.268 71.18 139.188 67.2736 144 67.2736C148.812 67.2736 152.732 71.1929 152.732 76.0032C152.732 80.8136 148.818 84.7264 144 84.7264ZM147.249 77.9919L149.018 79.6384L148.127 80.4197C147.01 81.3947 145.582 81.937 144.11 81.937C140.797 81.937 138.103 79.3027 138.103 76.0549C138.103 72.82 140.797 70.1921 144.11 70.1921C145.582 70.1921 147.01 70.728 148.114 71.6965L148.973 72.4455L147.274 74.1437L146.519 73.4786C145.873 72.904 145.014 72.594 144.103 72.594C142.114 72.594 140.499 74.1501 140.499 76.0613C140.499 77.979 142.121 79.5416 144.103 79.5416C145.001 79.5416 145.86 79.2187 146.519 78.6376L147.249 77.9919Z" fill="white"/>
</g>
<g opacity="0.2">
<path d="M192 32C185.386 32 180 37.385 180 44.0032C180 50.6215 185.386 56 192 56C198.614 56 204 50.615 204 44.0032C204 37.3914 198.62 32 192 32ZM192 52.7264C187.188 52.7264 183.268 48.8136 183.268 43.9968C183.268 39.18 187.188 35.2736 192 35.2736C196.812 35.2736 200.732 39.1929 200.732 44.0032C200.732 48.8136 196.818 52.7264 192 52.7264ZM195.249 45.9919L197.018 47.6384L196.127 48.4197C195.01 49.3947 193.582 49.937 192.11 49.937C188.797 49.937 186.103 47.3027 186.103 44.0549C186.103 40.82 188.797 38.1921 192.11 38.1921C193.582 38.1921 195.01 38.728 196.114 39.6965L196.973 40.4455L195.274 42.1437L194.519 41.4786C193.873 40.904 193.014 40.594 192.103 40.594C190.114 40.594 188.499 42.1501 188.499 44.0613C188.499 45.979 190.121 47.5416 192.103 47.5416C193.001 47.5416 193.86 47.2187 194.519 46.6376L195.249 45.9919Z" fill="white"/>
</g>
<g opacity="0.2">
<path d="M192 96C185.386 96 180 101.385 180 108.003C180 114.621 185.386 120 192 120C198.614 120 204 114.615 204 108.003C204 101.391 198.62 96 192 96ZM192 116.726C187.188 116.726 183.268 112.814 183.268 107.997C183.268 103.18 187.188 99.2736 192 99.2736C196.812 99.2736 200.732 103.193 200.732 108.003C200.732 112.814 196.818 116.726 192 116.726ZM195.249 109.992L197.018 111.638L196.127 112.42C195.01 113.395 193.582 113.937 192.11 113.937C188.797 113.937 186.103 111.303 186.103 108.055C186.103 104.82 188.797 102.192 192.11 102.192C193.582 102.192 195.01 102.728 196.114 103.697L196.973 104.446L195.274 106.144L194.519 105.479C193.873 104.904 193.014 104.594 192.103 104.594C190.114 104.594 188.499 106.15 188.499 108.061C188.499 109.979 190.121 111.542 192.103 111.542C193.001 111.542 193.86 111.219 194.519 110.638L195.249 109.992Z" fill="white"/>
</g>
<g opacity="0.2">
<path d="M176 0C169.386 0 164 5.38499 164 12.0032C164 18.6215 169.386 24 176 24C182.614 24 188 18.615 188 12.0032C188 5.39144 182.62 0 176 0ZM176 20.7264C171.188 20.7264 167.268 16.8136 167.268 11.9968C167.268 7.17998 171.188 3.27361 176 3.27361C180.812 3.27361 184.732 7.1929 184.732 12.0032C184.732 16.8136 180.818 20.7264 176 20.7264ZM179.249 13.9919L181.018 15.6384L180.127 16.4197C179.01 17.3947 177.582 17.937 176.11 17.937C172.797 17.937 170.103 15.3027 170.103 12.0549C170.103 8.82002 172.797 6.19209 176.11 6.19209C177.582 6.19209 179.01 6.72801 180.114 7.69653L180.973 8.44552L179.274 10.1437L178.519 9.47861C177.873 8.90395 177.014 8.59403 176.103 8.59403C174.114 8.59403 172.499 10.1501 172.499 12.0613C172.499 13.979 174.121 15.5416 176.103 15.5416C177.001 15.5416 177.86 15.2187 178.519 14.6376L179.249 13.9919Z" fill="white"/>
</g>
<g opacity="0.2">
<path d="M176 64C169.386 64 164 69.385 164 76.0032C164 82.6215 169.386 88 176 88C182.614 88 188 82.615 188 76.0032C188 69.3914 182.62 64 176 64ZM176 84.7264C171.188 84.7264 167.268 80.8136 167.268 75.9968C167.268 71.18 171.188 67.2736 176 67.2736C180.812 67.2736 184.732 71.1929 184.732 76.0032C184.732 80.8136 180.818 84.7264 176 84.7264ZM179.249 77.9919L181.018 79.6384L180.127 80.4197C179.01 81.3947 177.582 81.937 176.11 81.937C172.797 81.937 170.103 79.3027 170.103 76.0549C170.103 72.82 172.797 70.1921 176.11 70.1921C177.582 70.1921 179.01 70.728 180.114 71.6965L180.973 72.4455L179.274 74.1437L178.519 73.4786C177.873 72.904 177.014 72.594 176.103 72.594C174.114 72.594 172.499 74.1501 172.499 76.0613C172.499 77.979 174.121 79.5416 176.103 79.5416C177.001 79.5416 177.86 79.2187 178.519 78.6376L179.249 77.9919Z" fill="white"/>
</g>
<g opacity="0.2">
<path d="M224 32C217.386 32 212 37.385 212 44.0032C212 50.6215 217.386 56 224 56C230.614 56 236 50.615 236 44.0032C236 37.3914 230.62 32 224 32ZM224 52.7264C219.188 52.7264 215.268 48.8136 215.268 43.9968C215.268 39.18 219.188 35.2736 224 35.2736C228.812 35.2736 232.732 39.1929 232.732 44.0032C232.732 48.8136 228.818 52.7264 224 52.7264ZM227.249 45.9919L229.018 47.6384L228.127 48.4197C227.01 49.3947 225.582 49.937 224.11 49.937C220.797 49.937 218.103 47.3027 218.103 44.0549C218.103 40.82 220.797 38.1921 224.11 38.1921C225.582 38.1921 227.01 38.728 228.114 39.6965L228.973 40.4455L227.274 42.1437L226.519 41.4786C225.873 40.904 225.014 40.594 224.103 40.594C222.114 40.594 220.499 42.1501 220.499 44.0613C220.499 45.979 222.121 47.5416 224.103 47.5416C225.001 47.5416 225.86 47.2187 226.519 46.6376L227.249 45.9919Z" fill="white"/>
</g>
<g opacity="0.2">
<path d="M224 96C217.386 96 212 101.385 212 108.003C212 114.621 217.386 120 224 120C230.614 120 236 114.615 236 108.003C236 101.391 230.62 96 224 96ZM224 116.726C219.188 116.726 215.268 112.814 215.268 107.997C215.268 103.18 219.188 99.2736 224 99.2736C228.812 99.2736 232.732 103.193 232.732 108.003C232.732 112.814 228.818 116.726 224 116.726ZM227.249 109.992L229.018 111.638L228.127 112.42C227.01 113.395 225.582 113.937 224.11 113.937C220.797 113.937 218.103 111.303 218.103 108.055C218.103 104.82 220.797 102.192 224.11 102.192C225.582 102.192 227.01 102.728 228.114 103.697L228.973 104.446L227.274 106.144L226.519 105.479C225.873 104.904 225.014 104.594 224.103 104.594C222.114 104.594 220.499 106.15 220.499 108.061C220.499 109.979 222.121 111.542 224.103 111.542C225.001 111.542 225.86 111.219 226.519 110.638L227.249 109.992Z" fill="white"/>
</g>
<g opacity="0.2">
<path d="M208 0C201.386 0 196 5.38499 196 12.0032C196 18.6215 201.386 24 208 24C214.614 24 220 18.615 220 12.0032C220 5.39144 214.62 0 208 0ZM208 20.7264C203.188 20.7264 199.268 16.8136 199.268 11.9968C199.268 7.17998 203.188 3.27361 208 3.27361C212.812 3.27361 216.732 7.1929 216.732 12.0032C216.732 16.8136 212.818 20.7264 208 20.7264ZM211.249 13.9919L213.018 15.6384L212.127 16.4197C211.01 17.3947 209.582 17.937 208.11 17.937C204.797 17.937 202.103 15.3027 202.103 12.0549C202.103 8.82002 204.797 6.19209 208.11 6.19209C209.582 6.19209 211.01 6.72801 212.114 7.69653L212.973 8.44552L211.274 10.1437L210.519 9.47861C209.873 8.90395 209.014 8.59403 208.103 8.59403C206.114 8.59403 204.499 10.1501 204.499 12.0613C204.499 13.979 206.121 15.5416 208.103 15.5416C209.001 15.5416 209.86 15.2187 210.519 14.6376L211.249 13.9919Z" fill="white"/>
</g>
<g opacity="0.2">
<path d="M208 64C201.386 64 196 69.385 196 76.0032C196 82.6215 201.386 88 208 88C214.614 88 220 82.615 220 76.0032C220 69.3914 214.62 64 208 64ZM208 84.7264C203.188 84.7264 199.268 80.8136 199.268 75.9968C199.268 71.18 203.188 67.2736 208 67.2736C212.812 67.2736 216.732 71.1929 216.732 76.0032C216.732 80.8136 212.818 84.7264 208 84.7264ZM211.249 77.9919L213.018 79.6384L212.127 80.4197C211.01 81.3947 209.582 81.937 208.11 81.937C204.797 81.937 202.103 79.3027 202.103 76.0549C202.103 72.82 204.797 70.1921 208.11 70.1921C209.582 70.1921 211.01 70.728 212.114 71.6965L212.973 72.4455L211.274 74.1437L210.519 73.4786C209.873 72.904 209.014 72.594 208.103 72.594C206.114 72.594 204.499 74.1501 204.499 76.0613C204.499 77.979 206.121 79.5416 208.103 79.5416C209.001 79.5416 209.86 79.2187 210.519 78.6376L211.249 77.9919Z" fill="white"/>
</g>
<g opacity="0.2">
<path d="M256 32C249.386 32 244 37.385 244 44.0032C244 50.6215 249.386 56 256 56C262.614 56 268 50.615 268 44.0032C268 37.3914 262.62 32 256 32ZM256 52.7264C251.188 52.7264 247.268 48.8136 247.268 43.9968C247.268 39.18 251.188 35.2736 256 35.2736C260.812 35.2736 264.732 39.1929 264.732 44.0032C264.732 48.8136 260.818 52.7264 256 52.7264ZM259.249 45.9919L261.018 47.6384L260.127 48.4197C259.01 49.3947 257.582 49.937 256.11 49.937C252.797 49.937 250.103 47.3027 250.103 44.0549C250.103 40.82 252.797 38.1921 256.11 38.1921C257.582 38.1921 259.01 38.728 260.114 39.6965L260.973 40.4455L259.274 42.1437L258.519 41.4786C257.873 40.904 257.014 40.594 256.103 40.594C254.114 40.594 252.499 42.1501 252.499 44.0613C252.499 45.979 254.121 47.5416 256.103 47.5416C257.001 47.5416 257.86 47.2187 258.519 46.6376L259.249 45.9919Z" fill="white"/>
</g>
<g opacity="0.2">
<path d="M256 96C249.386 96 244 101.385 244 108.003C244 114.621 249.386 120 256 120C262.614 120 268 114.615 268 108.003C268 101.391 262.62 96 256 96ZM256 116.726C251.188 116.726 247.268 112.814 247.268 107.997C247.268 103.18 251.188 99.2736 256 99.2736C260.812 99.2736 264.732 103.193 264.732 108.003C264.732 112.814 260.818 116.726 256 116.726ZM259.249 109.992L261.018 111.638L260.127 112.42C259.01 113.395 257.582 113.937 256.11 113.937C252.797 113.937 250.103 111.303 250.103 108.055C250.103 104.82 252.797 102.192 256.11 102.192C257.582 102.192 259.01 102.728 260.114 103.697L260.973 104.446L259.274 106.144L258.519 105.479C257.873 104.904 257.014 104.594 256.103 104.594C254.114 104.594 252.499 106.15 252.499 108.061C252.499 109.979 254.121 111.542 256.103 111.542C257.001 111.542 257.86 111.219 258.519 110.638L259.249 109.992Z" fill="white"/>
</g>
<g opacity="0.2">
<path d="M240 0C233.386 0 228 5.38499 228 12.0032C228 18.6215 233.386 24 240 24C246.614 24 252 18.615 252 12.0032C252 5.39144 246.62 0 240 0ZM240 20.7264C235.188 20.7264 231.268 16.8136 231.268 11.9968C231.268 7.17998 235.188 3.27361 240 3.27361C244.812 3.27361 248.732 7.1929 248.732 12.0032C248.732 16.8136 244.818 20.7264 240 20.7264ZM243.249 13.9919L245.018 15.6384L244.127 16.4197C243.01 17.3947 241.582 17.937 240.11 17.937C236.797 17.937 234.103 15.3027 234.103 12.0549C234.103 8.82002 236.797 6.19209 240.11 6.19209C241.582 6.19209 243.01 6.72801 244.114 7.69653L244.973 8.44552L243.274 10.1437L242.519 9.47861C241.873 8.90395 241.014 8.59403 240.103 8.59403C238.114 8.59403 236.499 10.1501 236.499 12.0613C236.499 13.979 238.121 15.5416 240.103 15.5416C241.001 15.5416 241.86 15.2187 242.519 14.6376L243.249 13.9919Z" fill="white"/>
</g>
<g opacity="0.2">
<path d="M240 64C233.386 64 228 69.385 228 76.0032C228 82.6215 233.386 88 240 88C246.614 88 252 82.615 252 76.0032C252 69.3914 246.62 64 240 64ZM240 84.7264C235.188 84.7264 231.268 80.8136 231.268 75.9968C231.268 71.18 235.188 67.2736 240 67.2736C244.812 67.2736 248.732 71.1929 248.732 76.0032C248.732 80.8136 244.818 84.7264 240 84.7264ZM243.249 77.9919L245.018 79.6384L244.127 80.4197C243.01 81.3947 241.582 81.937 240.11 81.937C236.797 81.937 234.103 79.3027 234.103 76.0549C234.103 72.82 236.797 70.1921 240.11 70.1921C241.582 70.1921 243.01 70.728 244.114 71.6965L244.973 72.4455L243.274 74.1437L242.519 73.4786C241.873 72.904 241.014 72.594 240.103 72.594C238.114 72.594 236.499 74.1501 236.499 76.0613C236.499 77.979 238.121 79.5416 240.103 79.5416C241.001 79.5416 241.86 79.2187 242.519 78.6376L243.249 77.9919Z" fill="white"/>
</g>
<g opacity="0.2">
<path d="M288 32C281.386 32 276 37.385 276 44.0032C276 50.6215 281.386 56 288 56C294.614 56 300 50.615 300 44.0032C300 37.3914 294.62 32 288 32ZM288 52.7264C283.188 52.7264 279.268 48.8136 279.268 43.9968C279.268 39.18 283.188 35.2736 288 35.2736C292.812 35.2736 296.732 39.1929 296.732 44.0032C296.732 48.8136 292.818 52.7264 288 52.7264ZM291.249 45.9919L293.018 47.6384L292.127 48.4197C291.01 49.3947 289.582 49.937 288.11 49.937C284.797 49.937 282.103 47.3027 282.103 44.0549C282.103 40.82 284.797 38.1921 288.11 38.1921C289.582 38.1921 291.01 38.728 292.114 39.6965L292.973 40.4455L291.274 42.1437L290.519 41.4786C289.873 40.904 289.014 40.594 288.103 40.594C286.114 40.594 284.499 42.1501 284.499 44.0613C284.499 45.979 286.121 47.5416 288.103 47.5416C289.001 47.5416 289.86 47.2187 290.519 46.6376L291.249 45.9919Z" fill="white"/>
</g>
<g opacity="0.2">
<path d="M288 96C281.386 96 276 101.385 276 108.003C276 114.621 281.386 120 288 120C294.614 120 300 114.615 300 108.003C300 101.391 294.62 96 288 96ZM288 116.726C283.188 116.726 279.268 112.814 279.268 107.997C279.268 103.18 283.188 99.2736 288 99.2736C292.812 99.2736 296.732 103.193 296.732 108.003C296.732 112.814 292.818 116.726 288 116.726ZM291.249 109.992L293.018 111.638L292.127 112.42C291.01 113.395 289.582 113.937 288.11 113.937C284.797 113.937 282.103 111.303 282.103 108.055C282.103 104.82 284.797 102.192 288.11 102.192C289.582 102.192 291.01 102.728 292.114 103.697L292.973 104.446L291.274 106.144L290.519 105.479C289.873 104.904 289.014 104.594 288.103 104.594C286.114 104.594 284.499 106.15 284.499 108.061C284.499 109.979 286.121 111.542 288.103 111.542C289.001 111.542 289.86 111.219 290.519 110.638L291.249 109.992Z" fill="white"/>
</g>
<g opacity="0.2">
<path d="M272 0C265.386 0 260 5.38499 260 12.0032C260 18.6215 265.386 24 272 24C278.614 24 284 18.615 284 12.0032C284 5.39144 278.62 0 272 0ZM272 20.7264C267.188 20.7264 263.268 16.8136 263.268 11.9968C263.268 7.17998 267.188 3.27361 272 3.27361C276.812 3.27361 280.732 7.1929 280.732 12.0032C280.732 16.8136 276.818 20.7264 272 20.7264ZM275.249 13.9919L277.018 15.6384L276.127 16.4197C275.01 17.3947 273.582 17.937 272.11 17.937C268.797 17.937 266.103 15.3027 266.103 12.0549C266.103 8.82002 268.797 6.19209 272.11 6.19209C273.582 6.19209 275.01 6.72801 276.114 7.69653L276.973 8.44552L275.274 10.1437L274.519 9.47861C273.873 8.90395 273.014 8.59403 272.103 8.59403C270.114 8.59403 268.499 10.1501 268.499 12.0613C268.499 13.979 270.121 15.5416 272.103 15.5416C273.001 15.5416 273.86 15.2187 274.519 14.6376L275.249 13.9919Z" fill="white"/>
</g>
<g opacity="0.2">
<path d="M272 64C265.386 64 260 69.385 260 76.0032C260 82.6215 265.386 88 272 88C278.614 88 284 82.615 284 76.0032C284 69.3914 278.62 64 272 64ZM272 84.7264C267.188 84.7264 263.268 80.8136 263.268 75.9968C263.268 71.18 267.188 67.2736 272 67.2736C276.812 67.2736 280.732 71.1929 280.732 76.0032C280.732 80.8136 276.818 84.7264 272 84.7264ZM275.249 77.9919L277.018 79.6384L276.127 80.4197C275.01 81.3947 273.582 81.937 272.11 81.937C268.797 81.937 266.103 79.3027 266.103 76.0549C266.103 72.82 268.797 70.1921 272.11 70.1921C273.582 70.1921 275.01 70.728 276.114 71.6965L276.973 72.4455L275.274 74.1437L274.519 73.4786C273.873 72.904 273.014 72.594 272.103 72.594C270.114 72.594 268.499 74.1501 268.499 76.0613C268.499 77.979 270.121 79.5416 272.103 79.5416C273.001 79.5416 273.86 79.2187 274.519 78.6376L275.249 77.9919Z" fill="white"/>
</g>
<g opacity="0.2">
<path d="M320 32C313.386 32 308 37.385 308 44.0032C308 50.6215 313.386 56 320 56C326.614 56 332 50.615 332 44.0032C332 37.3914 326.62 32 320 32ZM320 52.7264C315.188 52.7264 311.268 48.8136 311.268 43.9968C311.268 39.18 315.188 35.2736 320 35.2736C324.812 35.2736 328.732 39.1929 328.732 44.0032C328.732 48.8136 324.818 52.7264 320 52.7264ZM323.249 45.9919L325.018 47.6384L324.127 48.4197C323.01 49.3947 321.582 49.937 320.11 49.937C316.797 49.937 314.103 47.3027 314.103 44.0549C314.103 40.82 316.797 38.1921 320.11 38.1921C321.582 38.1921 323.01 38.728 324.114 39.6965L324.973 40.4455L323.274 42.1437L322.519 41.4786C321.873 40.904 321.014 40.594 320.103 40.594C318.114 40.594 316.499 42.1501 316.499 44.0613C316.499 45.979 318.121 47.5416 320.103 47.5416C321.001 47.5416 321.86 47.2187 322.519 46.6376L323.249 45.9919Z" fill="white"/>
</g>
<g opacity="0.2">
<path d="M320 96C313.386 96 308 101.385 308 108.003C308 114.621 313.386 120 320 120C326.614 120 332 114.615 332 108.003C332 101.391 326.62 96 320 96ZM320 116.726C315.188 116.726 311.268 112.814 311.268 107.997C311.268 103.18 315.188 99.2736 320 99.2736C324.812 99.2736 328.732 103.193 328.732 108.003C328.732 112.814 324.818 116.726 320 116.726ZM323.249 109.992L325.018 111.638L324.127 112.42C323.01 113.395 321.582 113.937 320.11 113.937C316.797 113.937 314.103 111.303 314.103 108.055C314.103 104.82 316.797 102.192 320.11 102.192C321.582 102.192 323.01 102.728 324.114 103.697L324.973 104.446L323.274 106.144L322.519 105.479C321.873 104.904 321.014 104.594 320.103 104.594C318.114 104.594 316.499 106.15 316.499 108.061C316.499 109.979 318.121 111.542 320.103 111.542C321.001 111.542 321.86 111.219 322.519 110.638L323.249 109.992Z" fill="white"/>
</g>
<g opacity="0.2">
<path d="M304 0C297.386 0 292 5.38499 292 12.0032C292 18.6215 297.386 24 304 24C310.614 24 316 18.615 316 12.0032C316 5.39144 310.62 0 304 0ZM304 20.7264C299.188 20.7264 295.268 16.8136 295.268 11.9968C295.268 7.17998 299.188 3.27361 304 3.27361C308.812 3.27361 312.732 7.1929 312.732 12.0032C312.732 16.8136 308.818 20.7264 304 20.7264ZM307.249 13.9919L309.018 15.6384L308.127 16.4197C307.01 17.3947 305.582 17.937 304.11 17.937C300.797 17.937 298.103 15.3027 298.103 12.0549C298.103 8.82002 300.797 6.19209 304.11 6.19209C305.582 6.19209 307.01 6.72801 308.114 7.69653L308.973 8.44552L307.274 10.1437L306.519 9.47861C305.873 8.90395 305.014 8.59403 304.103 8.59403C302.114 8.59403 300.499 10.1501 300.499 12.0613C300.499 13.979 302.121 15.5416 304.103 15.5416C305.001 15.5416 305.86 15.2187 306.519 14.6376L307.249 13.9919Z" fill="white"/>
</g>
<g opacity="0.2">
<path d="M304 64C297.386 64 292 69.385 292 76.0032C292 82.6215 297.386 88 304 88C310.614 88 316 82.615 316 76.0032C316 69.3914 310.62 64 304 64ZM304 84.7264C299.188 84.7264 295.268 80.8136 295.268 75.9968C295.268 71.18 299.188 67.2736 304 67.2736C308.812 67.2736 312.732 71.1929 312.732 76.0032C312.732 80.8136 308.818 84.7264 304 84.7264ZM307.249 77.9919L309.018 79.6384L308.127 80.4197C307.01 81.3947 305.582 81.937 304.11 81.937C300.797 81.937 298.103 79.3027 298.103 76.0549C298.103 72.82 300.797 70.1921 304.11 70.1921C305.582 70.1921 307.01 70.728 308.114 71.6965L308.973 72.4455L307.274 74.1437L306.519 73.4786C305.873 72.904 305.014 72.594 304.103 72.594C302.114 72.594 300.499 74.1501 300.499 76.0613C300.499 77.979 302.121 79.5416 304.103 79.5416C305.001 79.5416 305.86 79.2187 306.519 78.6376L307.249 77.9919Z" fill="white"/>
</g>
<path d="M160 21C138.506 21 121 38.5012 121 60.0105C121 81.5198 138.506 99 160 99C181.494 99 199 81.4988 199 60.0105C199 38.5222 181.515 21 160 21ZM160 88.3608C144.362 88.3608 131.621 75.6441 131.621 59.9895C131.621 44.3349 144.362 31.6392 160 31.6392C175.638 31.6392 188.379 44.3769 188.379 60.0105C188.379 75.6441 175.659 88.3608 160 88.3608ZM170.558 66.4738L176.309 71.8249L173.413 74.364C169.781 77.5327 165.143 79.2954 160.357 79.2954C149.589 79.2954 140.836 70.7337 140.836 60.1784C140.836 49.6651 149.589 41.1243 160.357 41.1243C165.143 41.1243 169.781 42.866 173.371 46.0137L176.163 48.4479L170.642 53.9669L168.186 51.8055C166.087 49.9379 163.295 48.9306 160.336 48.9306C153.871 48.9306 148.623 53.9879 148.623 60.1994C148.623 66.4318 153.892 71.5101 160.336 71.5101C163.253 71.5101 166.045 70.4609 168.186 68.5722L170.558 66.4738Z" fill="#00284D"/>
</g>
<defs>
<clipPath id="clip0">
<rect width="320" height="120" fill="white"/>
</clipPath>
</defs>
</svg>
