<svg width="320" height="120" viewBox="0 0 320 120" fill="none" xmlns="http://www.w3.org/2000/svg">
<rect width="320" height="120" fill="#C0CEDB"/>
<rect width="198" height="93.5859" transform="translate(61 13)" fill="white"/>
<g filter="url(#filter0_d)">
<path d="M198.55 56.4365C198.55 55.5822 199.242 54.8896 200.097 54.8896H222.964C223.818 54.8896 224.511 55.5822 224.511 56.4365V63.3701C224.511 64.2244 223.818 64.917 222.964 64.917H200.097C199.242 64.917 198.55 64.2244 198.55 63.3701V56.4365Z" fill="#00284D"/>
<path d="M202.236 60.4033H202.979C203.55 60.4033 203.839 60.2069 203.839 59.8016C203.839 59.5494 203.721 59.3391 203.369 59.2633C203.675 59.155 203.783 58.9864 203.783 58.7497C203.783 58.3723 203.499 58.1665 202.956 58.1665H202.236V60.4033ZM202.523 59.1504V58.4032H202.97C203.287 58.4032 203.506 58.5254 203.506 58.7853C203.506 59.0684 203.242 59.1504 203.01 59.1504H202.523ZM202.523 60.1651V59.3932H203.01C203.31 59.3932 203.548 59.5092 203.548 59.7892C203.548 60.0444 203.349 60.1651 202.976 60.1651H202.523ZM204.841 60.4343C205.067 60.4358 205.262 60.3368 205.321 60.097L205.35 60.4033H205.577V58.8039H205.293V59.8449C205.293 60.0878 205.136 60.2115 204.901 60.2115C204.64 60.2115 204.513 60.0692 204.513 59.8604V58.8039H204.227V59.8898C204.227 60.2502 204.508 60.4312 204.841 60.4343ZM206.861 59.0127V58.8023H206.501V58.3382H206.291L206.221 58.8039H205.953V59.0127H206.213V60.0166C206.213 60.2734 206.301 60.4111 206.634 60.4111C206.75 60.4111 206.831 60.4002 206.871 60.3848V60.1929H206.696C206.546 60.1929 206.501 60.1775 206.501 60.0073V59.0127H206.861ZM207.91 59.0127V58.8023H207.549V58.3382H207.339L207.269 58.8039H207.002V59.0127H207.262V60.0166C207.262 60.2734 207.35 60.4111 207.682 60.4111C207.798 60.4111 207.879 60.4002 207.919 60.3848V60.1929H207.744C207.594 60.1929 207.549 60.1775 207.549 60.0073V59.0127H207.91ZM208.897 60.4343C209.373 60.4343 209.625 60.0986 209.625 59.6098C209.625 59.0715 209.339 58.7729 208.898 58.7729C208.425 58.7729 208.163 59.1086 208.163 59.6098C208.163 60.1434 208.453 60.4343 208.897 60.4343ZM208.898 60.2084C208.578 60.2084 208.448 59.9408 208.448 59.6036C208.448 59.2231 208.607 58.9972 208.898 58.9972C209.212 58.9972 209.342 59.2617 209.342 59.6036C209.342 59.9795 209.184 60.2084 208.898 60.2084ZM210.006 60.4033H210.29V59.3344C210.29 59.1194 210.488 59.0173 210.705 59.0173C210.914 59.0173 211.057 59.1364 211.057 59.3855V60.4033H211.344V59.3576C211.344 58.9554 211.087 58.7806 210.784 58.7806C210.527 58.7806 210.361 58.9029 210.282 59.0359V58.8039H210.006V60.4033ZM211.275 58.4295H211.998V60.4033H212.285V58.4295H212.967V58.1665H211.275V58.4295ZM213.273 59.6701H214.42V59.5649C214.42 59.0792 214.169 58.7729 213.719 58.7729C213.253 58.7729 212.984 59.1148 212.984 59.6191C212.984 60.1295 213.292 60.4343 213.739 60.4343C214.05 60.4343 214.35 60.2626 214.409 59.9362H214.14C214.1 60.1171 213.939 60.2131 213.734 60.2131C213.424 60.2131 213.273 59.9733 213.273 59.6701ZM213.275 59.4767C213.273 59.2385 213.416 58.9895 213.717 58.9895C214.007 58.9895 214.144 59.2014 214.144 59.4767H213.275ZM216.119 60.4033L215.503 59.5726L216.073 58.8039H215.76L215.344 59.3654L214.928 58.8039H214.617L215.183 59.5726L214.567 60.4033H214.88L215.342 59.7768L215.808 60.4033H216.119ZM217.194 59.0127V58.8023H216.834V58.3382H216.623L216.554 58.8039H216.286V59.0127H216.546V60.0166C216.546 60.2734 216.634 60.4111 216.967 60.4111C217.083 60.4111 217.163 60.4002 217.203 60.3848V60.1929H217.029C216.879 60.1929 216.834 60.1775 216.834 60.0073V59.0127H217.194Z" fill="white"/>
<path d="M219.712 58.1011C219.651 58.1616 219.657 58.2522 219.712 58.3126L220.443 59.0015H218.708C218.624 59.0015 218.563 59.0679 218.563 59.1465V59.3398C218.563 59.4244 218.624 59.4849 218.708 59.4849H220.443L219.712 60.1797C219.657 60.2402 219.657 60.3308 219.712 60.3912L219.844 60.5242C219.905 60.5786 219.996 60.5786 220.05 60.5242L221.228 59.3459C221.283 59.2915 221.283 59.2009 221.228 59.1404L220.05 57.9682C219.996 57.9138 219.905 57.9138 219.844 57.9682L219.712 58.1011Z" fill="white"/>
</g>
<path d="M82.175 61.7461H83.8704C85.0924 61.7461 85.6307 61.3594 85.6307 60.5333C85.6307 60.1188 85.4946 59.6516 84.749 59.4536C85.3306 59.2092 85.5255 58.8906 85.5255 58.4451C85.5255 57.6902 84.9687 57.2725 83.7961 57.2725H82.175V61.7461ZM83.0753 59.1226V57.9717H83.8766C84.3283 57.9717 84.6531 58.1759 84.6531 58.5626C84.6531 58.9555 84.3066 59.1226 83.9385 59.1226H83.0753ZM83.0753 61.0469V59.8403H83.9385C84.3809 59.8403 84.715 60.0476 84.715 60.4436C84.715 60.8118 84.4304 61.0469 83.889 61.0469H83.0753ZM87.175 57.2756H86.2963V58.0893H87.175V57.2756ZM87.1688 58.5472H86.3056V61.7461H87.1688V58.5472ZM89.4068 62.8042C90.5453 62.8042 91.1114 62.371 91.1114 61.7708C91.1114 61.2666 90.7278 60.9077 89.9451 60.8551C89.6635 60.8365 89.416 60.8242 89.2799 60.8149C88.9025 60.7932 88.7199 60.7777 88.7199 60.6757C88.7199 60.6107 88.7973 60.555 89.0386 60.5426C89.119 60.5519 89.2799 60.555 89.3542 60.555C90.3101 60.555 90.802 60.0538 90.802 59.4969C90.802 59.4134 90.7773 59.2742 90.734 59.1597L91.2847 59.07L91.2908 58.3708C91.0217 58.4822 90.5422 58.674 90.3503 58.7482C90.1121 58.5997 89.8584 58.4977 89.4191 58.4977C88.5498 58.4977 87.9032 58.8689 87.9032 59.5C87.9032 59.8558 88.1259 60.2271 88.5498 60.422C88.1074 60.4993 87.8939 60.7128 87.8939 60.9386C87.8939 61.2418 88.1878 61.3563 88.2868 61.4151C88.2249 61.4491 87.665 61.5821 87.665 62.0183C87.665 62.4886 88.2683 62.8042 89.4068 62.8042ZM89.382 60.0507C89.0262 60.0507 88.8097 59.8465 88.8097 59.5279C88.8097 59.1968 89.0386 58.9741 89.382 58.9741C89.7223 58.9741 89.9482 59.1937 89.9482 59.5279C89.9482 59.8527 89.7223 60.0507 89.382 60.0507ZM89.5522 62.2999C88.8653 62.2999 88.5498 62.1823 88.5498 61.9132C88.5498 61.7152 88.7416 61.5326 89.0324 61.5481L89.7656 61.5976C90.0812 61.6192 90.2513 61.7492 90.2513 61.941C90.2513 62.173 90.0533 62.2999 89.5522 62.2999ZM92.9398 58.0769H94.2917V61.7461H95.1982V58.0769H96.5192V57.2725H92.9398V58.0769ZM97.3146 60.3539H99.4647V60.1095C99.4647 59.1504 98.9512 58.4853 97.9735 58.4853C96.9928 58.4853 96.4205 59.2216 96.4205 60.1838C96.4205 61.1768 97.0702 61.808 98.0199 61.808C98.6851 61.808 99.3534 61.4151 99.4616 60.7313H98.648C98.5552 61.0314 98.3077 61.1552 97.9983 61.1552C97.5652 61.1552 97.3115 60.8427 97.3146 60.3539ZM97.3146 59.8156C97.3115 59.4629 97.5559 59.1164 97.9704 59.1164C98.4067 59.1164 98.6201 59.4289 98.6201 59.8156H97.3146ZM103.011 61.7461L101.78 60.0786L102.912 58.5472H101.968L101.306 59.4443L100.641 58.5472H99.6945L100.818 60.0786L99.5893 61.7461H100.536L101.3 60.7035L102.064 61.7461H103.011ZM105.369 59.1752V58.5441H104.658V57.5819H104.014L103.785 58.5472H103.238V59.1752H103.757V60.917C103.757 61.4305 103.974 61.7801 104.819 61.7801C105.131 61.7801 105.292 61.7399 105.379 61.7028V61.1459H104.949C104.751 61.1459 104.664 61.115 104.664 60.8798L104.658 59.1752H105.369ZM105.933 61.7461H106.923V60.7623H105.933V61.7461Z" fill="#00284D"/>
<g style="mix-blend-mode:color">
<rect width="320" height="120" fill="#808080"/>
</g>
<g style="mix-blend-mode:color">
<rect width="320" height="120" fill="#00284D"/>
</g>
<defs>
<filter id="filter0_d" x="198.55" y="54.8896" width="25.9609" height="12.0273" filterUnits="userSpaceOnUse" color-interpolation-filters="sRGB">
<feFlood flood-opacity="0" result="BackgroundImageFix"/>
<feColorMatrix in="SourceAlpha" type="matrix" values="0 0 0 0 0 0 0 0 0 0 0 0 0 0 0 0 0 0 127 0"/>
<feOffset dy="2"/>
<feColorMatrix type="matrix" values="0 0 0 0 0.423529 0 0 0 0 0.458824 0 0 0 0 0.490196 0 0 0 0.35 0"/>
<feBlend mode="normal" in2="BackgroundImageFix" result="effect1_dropShadow"/>
<feBlend mode="normal" in="SourceGraphic" in2="effect1_dropShadow" result="shape"/>
</filter>
</defs>
</svg>
