<svg width="320" height="120" viewBox="0 0 320 120" fill="none" xmlns="http://www.w3.org/2000/svg">
<rect width="320" height="120" fill="#C0CEDB"/>
<g style="mix-blend-mode:color">
<rect width="320" height="120" fill="#808080"/>
</g>
<g style="mix-blend-mode:color">
<rect width="320" height="120" fill="#00284D"/>
</g>
<g filter="url(#filter0_d)">
<path d="M122 45C122 42.7909 123.791 41 126 41H194C196.209 41 198 42.7909 198 45V75C198 77.2091 196.209 79 194 79H126C123.791 79 122 77.2091 122 75V45Z" fill="#00284D"/>
<path d="M139.683 66.16C142.427 66.16 144.035 64.76 144.035 63.016C144.035 61.76 143.547 60.232 141.243 59.728L139.043 59.2C137.531 58.832 137.059 58.352 137.059 57.512C137.059 56.216 138.331 55.544 139.635 55.544C141.003 55.544 142.187 56.072 142.339 57.64H143.867C143.851 55.888 142.403 54.288 139.627 54.288C137.219 54.288 135.491 55.656 135.499 57.656C135.515 59.24 136.539 60.184 138.243 60.56L140.515 61.088C141.795 61.384 142.523 61.984 142.523 63.032C142.523 64.208 141.299 64.928 139.675 64.928C138.219 64.928 136.995 64.24 136.707 62.928H135.155C135.451 65.056 137.499 66.16 139.683 66.16ZM147.744 54.44H146.232V55.976H147.744V54.44ZM147.704 57.728H146.272V66H147.704V57.728ZM153.65 68.736C156.394 68.736 157.722 67.688 157.722 66.184C157.722 64.864 156.746 64.048 155.018 63.944C154.258 63.896 153.634 63.864 153.218 63.84C152.066 63.76 151.642 63.672 151.642 63.368C151.642 63.104 151.986 62.848 153.122 62.816C153.258 62.824 153.49 62.832 153.618 62.832C155.93 62.832 157.066 61.68 157.066 60.216C157.066 59.864 156.962 59.432 156.794 59.088L158.242 58.816L158.25 57.448C157.802 57.632 156.49 58.176 156.138 58.32C155.506 57.864 154.834 57.6 153.762 57.6C151.514 57.6 150.162 58.608 150.162 60.216C150.162 61.168 150.73 62.024 151.706 62.512C150.73 62.728 150.242 63.2 150.242 63.72C150.242 64.36 150.81 64.592 151.098 64.76C150.89 64.912 149.53 65.368 149.53 66.56C149.53 67.96 151.058 68.736 153.65 68.736ZM153.666 61.88C152.378 61.88 151.642 61.28 151.642 60.232C151.642 59.12 152.45 58.512 153.666 58.512C154.85 58.512 155.65 59.12 155.65 60.232C155.65 61.32 154.85 61.88 153.666 61.88ZM153.914 67.784C151.922 67.784 151.002 67.272 151.002 66.392C151.002 65.624 151.826 65.04 152.45 65.072L154.77 65.224C155.778 65.288 156.282 65.744 156.282 66.4C156.282 67.328 155.442 67.784 153.914 67.784ZM160.107 66H161.579V60.472C161.579 59.36 162.603 58.832 163.723 58.832C164.803 58.832 165.547 59.448 165.547 60.736V66H167.027V60.592C167.027 58.512 165.699 57.608 164.131 57.608C162.803 57.608 161.947 58.24 161.539 58.928V57.728H160.107V66ZM173.536 54.432V66H175.016V54.432H173.536ZM177.763 66H179.235V60.472C179.235 59.36 180.259 58.832 181.379 58.832C182.459 58.832 183.203 59.448 183.203 60.736V66H184.683V60.592C184.683 58.512 183.355 57.608 181.787 57.608C180.459 57.608 179.603 58.24 179.195 58.928V57.728H177.763V66Z" fill="white"/>
</g>
<defs>
<filter id="filter0_d" x="120" y="41" width="80" height="44" filterUnits="userSpaceOnUse" color-interpolation-filters="sRGB">
<feFlood flood-opacity="0" result="BackgroundImageFix"/>
<feColorMatrix in="SourceAlpha" type="matrix" values="0 0 0 0 0 0 0 0 0 0 0 0 0 0 0 0 0 0 127 0"/>
<feOffset dy="4"/>
<feGaussianBlur stdDeviation="1"/>
<feColorMatrix type="matrix" values="0 0 0 0 0 0 0 0 0 0 0 0 0 0 0 0 0 0 0.1 0"/>
<feBlend mode="normal" in2="BackgroundImageFix" result="effect1_dropShadow"/>
<feBlend mode="normal" in="SourceGraphic" in2="effect1_dropShadow" result="shape"/>
</filter>
</defs>
</svg>
