<svg width="320" height="120" viewBox="0 0 320 120" fill="none" xmlns="http://www.w3.org/2000/svg">
<rect width="320" height="120" fill="#C0CEDB"/>
<rect width="292" height="63.875" transform="translate(14 28)" fill="#FFF1D6"/>
<rect x="221.832" y="63.0742" width="54.75" height="21.957" rx="4.5625" fill="white"/>
<rect x="162.852" y="63.0742" width="54.75" height="21.957" rx="4.5625" fill="white"/>
<rect x="221.832" y="37.125" width="54.75" height="21.957" rx="4.5625" fill="white"/>
<rect x="162.852" y="37.125" width="54.75" height="21.957" rx="4.5625" fill="white"/>
<path d="M235.551 77.6328H234.67L232.804 74.8177L230.961 77.6328H230.163L232.412 74.2611L230.249 71.0354H231.125L232.854 73.6543L234.57 71.0354H235.364L233.242 74.1972L235.551 77.6328ZM237.482 72.9152V77.6328H236.789V72.9152H237.482ZM237.505 71.04V71.8247H236.757V71.04H237.505ZM239.108 77.6328V72.9152H239.792V73.6041C239.871 73.4672 239.979 73.341 240.116 73.2254C240.256 73.1099 240.425 73.0171 240.623 72.9471C240.823 72.8772 241.048 72.8422 241.298 72.8422C241.602 72.8422 241.879 72.903 242.128 73.0247C242.381 73.1433 242.581 73.3289 242.73 73.5813C242.88 73.8338 242.954 74.1577 242.954 74.5531V77.6328H242.242V74.617C242.242 74.2155 242.14 73.9189 241.937 73.7273C241.733 73.5357 241.464 73.4399 241.129 73.4399C240.901 73.4399 240.686 73.4764 240.486 73.5494C240.285 73.6224 240.124 73.7334 240.002 73.8824C239.88 74.0315 239.82 74.2185 239.82 74.4436V77.6328H239.108ZM248.187 72.8239C248.512 72.8239 248.807 72.8848 249.072 73.0064C249.337 73.1281 249.556 73.303 249.729 73.5311C249.902 73.7562 250.013 74.0284 250.062 74.3478H249.41C249.379 74.1714 249.311 74.0132 249.204 73.8733C249.098 73.7304 248.958 73.6178 248.785 73.5357C248.614 73.4536 248.417 73.4125 248.192 73.4125C247.763 73.4125 247.413 73.5661 247.142 73.8733C246.874 74.1775 246.741 74.6474 246.741 75.2831C246.741 75.8519 246.862 76.3082 247.106 76.6519C247.352 76.9925 247.717 77.1629 248.201 77.1629C248.426 77.1629 248.623 77.1218 248.794 77.0397C248.967 76.9545 249.107 76.842 249.214 76.7021C249.32 76.5591 249.387 76.4025 249.414 76.2321H250.058C250.012 76.5424 249.901 76.81 249.725 77.0351C249.548 77.2572 249.328 77.4275 249.063 77.5461C248.801 77.6648 248.509 77.7241 248.187 77.7241C247.767 77.7241 247.396 77.6328 247.074 77.4503C246.751 77.2678 246.499 76.9956 246.316 76.6336C246.137 76.2717 246.047 75.823 246.047 75.2877C246.047 74.798 246.129 74.3691 246.294 74.0011C246.458 73.63 246.698 73.341 247.014 73.1342C247.334 72.9274 247.725 72.8239 248.187 72.8239ZM251.263 77.6328V70.8529H251.952V73.6087C252.034 73.4749 252.143 73.3501 252.28 73.2346C252.42 73.119 252.587 73.0262 252.782 72.9562C252.98 72.8832 253.205 72.8467 253.457 72.8467C253.767 72.8467 254.046 72.903 254.292 73.0156C254.542 73.1281 254.739 73.2878 254.885 73.4946C255.031 73.7015 255.104 73.9448 255.104 74.2246V77.6328H254.393V74.3843C254.393 74.0862 254.291 73.8551 254.087 73.6908C253.883 73.5235 253.614 73.4399 253.279 73.4399C253.051 73.4399 252.837 73.4779 252.636 73.5539C252.438 73.6269 252.279 73.738 252.157 73.887C252.035 74.033 251.974 74.2201 251.974 74.4482V77.6328H251.263ZM257.767 77.7241C257.46 77.7241 257.19 77.6708 256.959 77.5644C256.728 77.4549 256.547 77.2997 256.416 77.099C256.289 76.8982 256.225 76.6564 256.225 76.3736C256.225 75.8504 256.403 75.4626 256.759 75.2101C257.117 74.9577 257.697 74.8208 258.497 74.7995L259.409 74.7721V74.3797C259.409 74.0725 259.315 73.8277 259.126 73.6452C258.941 73.4596 258.653 73.3684 258.264 73.3714C257.972 73.3714 257.718 73.4399 257.502 73.5767C257.289 73.7106 257.154 73.9265 257.096 74.2246H256.448C256.467 73.9296 256.55 73.6786 256.699 73.4718C256.848 73.2619 257.058 73.1022 257.329 72.9927C257.6 72.8802 257.923 72.8239 258.301 72.8239C258.69 72.8239 259.017 72.8817 259.282 72.9973C259.549 73.1099 259.752 73.2802 259.888 73.5083C260.025 73.7334 260.094 74.0132 260.094 74.3478V77.6328H259.482L259.432 76.7249C259.244 77.099 259.003 77.3591 258.711 77.5051C258.422 77.6511 258.108 77.7241 257.767 77.7241ZM257.968 77.1902C258.138 77.1902 258.307 77.1598 258.474 77.099C258.644 77.0382 258.8 76.9545 258.939 76.8481C259.079 76.7416 259.192 76.623 259.277 76.4922C259.362 76.3614 259.406 76.2276 259.409 76.0907V75.2512L258.647 75.2649C258.249 75.271 257.922 75.3105 257.666 75.3835C257.414 75.4565 257.225 75.569 257.101 75.7211C256.979 75.8702 256.918 76.0664 256.918 76.3097C256.918 76.5865 257.016 76.8024 257.21 76.9576C257.405 77.1127 257.657 77.1902 257.968 77.1902ZM257.644 71.0354H256.795L258.018 72.3631H258.584L257.644 71.0354ZM263.434 77.7241C263.008 77.7241 262.634 77.6328 262.311 77.4503C261.992 77.2648 261.744 76.991 261.568 76.6291C261.391 76.2671 261.303 75.8215 261.303 75.2922C261.303 74.7995 261.384 74.3676 261.545 73.9965C261.709 73.6254 261.949 73.338 262.266 73.1342C262.582 72.9274 262.973 72.8239 263.438 72.8239C263.864 72.8239 264.234 72.9182 264.547 73.1068C264.863 73.2924 265.108 73.5691 265.282 73.9372C265.458 74.3022 265.546 74.7539 265.546 75.2922C265.546 75.7728 265.467 76.1956 265.309 76.5606C265.151 76.9256 264.915 77.2115 264.602 77.4184C264.291 77.6222 263.902 77.7241 263.434 77.7241ZM263.438 77.1492C263.733 77.1492 263.984 77.0762 264.191 76.9302C264.401 76.7842 264.561 76.5713 264.67 76.2914C264.783 76.0116 264.839 75.6725 264.839 75.274C264.839 74.9151 264.79 74.5942 264.693 74.3113C264.596 74.0284 264.444 73.8064 264.237 73.6452C264.03 73.4809 263.764 73.3988 263.438 73.3988C263.137 73.3988 262.88 73.4718 262.667 73.6178C262.457 73.7608 262.296 73.9722 262.184 74.252C262.071 74.5318 262.015 74.8725 262.015 75.274C262.015 75.6329 262.063 75.9538 262.161 76.2367C262.261 76.5165 262.416 76.7386 262.626 76.9028C262.836 77.0671 263.107 77.1492 263.438 77.1492ZM267.504 76.6656V77.6328H266.628V76.6656H267.504ZM267.5 71.0354L267.317 76.0542H266.824L266.637 71.0354H267.5Z" fill="#00284D"/>
<path d="M184.6 74.5349H180.859V77.6328H180.147V71.0354H180.859V73.8916H184.6V71.0354H185.312V77.6328H184.6V74.5349ZM188.736 77.7241C188.31 77.7241 187.936 77.6328 187.614 77.4503C187.294 77.2648 187.046 76.991 186.87 76.6291C186.694 76.2671 186.605 75.8215 186.605 75.2922C186.605 74.7995 186.686 74.3676 186.847 73.9965C187.011 73.6254 187.252 73.338 187.568 73.1342C187.884 72.9274 188.275 72.8239 188.741 72.8239C189.167 72.8239 189.536 72.9182 189.849 73.1068C190.166 73.2924 190.411 73.5691 190.584 73.9372C190.76 74.3022 190.849 74.7539 190.849 75.2922C190.849 75.7728 190.769 76.1956 190.611 76.5606C190.453 76.9256 190.217 77.2115 189.904 77.4184C189.594 77.6222 189.205 77.7241 188.736 77.7241ZM188.741 77.1492C189.036 77.1492 189.287 77.0762 189.493 76.9302C189.703 76.7842 189.863 76.5713 189.973 76.2914C190.085 76.0116 190.141 75.6725 190.141 75.274C190.141 74.9151 190.093 74.5942 189.995 74.3113C189.898 74.0284 189.746 73.8064 189.539 73.6452C189.332 73.4809 189.066 73.3988 188.741 73.3988C188.44 73.3988 188.183 73.4718 187.97 73.6178C187.76 73.7608 187.599 73.9722 187.486 74.252C187.373 74.5318 187.317 74.8725 187.317 75.274C187.317 75.6329 187.366 75.9538 187.463 76.2367C187.564 76.5165 187.719 76.7386 187.929 76.9028C188.138 77.0671 188.409 77.1492 188.741 77.1492ZM193.112 77.683C192.887 77.683 192.702 77.6511 192.556 77.5872C192.413 77.5203 192.3 77.429 192.218 77.3134C192.139 77.1979 192.084 77.0655 192.054 76.9165C192.023 76.7675 192.008 76.6108 192.008 76.4466V70.8529H192.711V76.3872C192.711 76.6458 192.759 76.8359 192.857 76.9576C192.954 77.0762 193.082 77.1401 193.24 77.1492L193.505 77.1537V77.6191C193.438 77.6404 193.369 77.6556 193.299 77.6648C193.229 77.6769 193.167 77.683 193.112 77.683ZM195.901 77.7241C195.594 77.7241 195.325 77.6708 195.094 77.5644C194.863 77.4549 194.682 77.2997 194.551 77.099C194.423 76.8982 194.359 76.6564 194.359 76.3736C194.359 75.8504 194.537 75.4626 194.893 75.2101C195.252 74.9577 195.831 74.8208 196.631 74.7995L197.544 74.7721V74.3797C197.544 74.0725 197.45 73.8277 197.261 73.6452C197.075 73.4596 196.788 73.3684 196.399 73.3714C196.107 73.3714 195.853 73.4399 195.637 73.5767C195.424 73.7106 195.288 73.9265 195.231 74.2246H194.583C194.601 73.9296 194.685 73.6786 194.834 73.4718C194.983 73.2619 195.193 73.1022 195.463 72.9927C195.734 72.8802 196.058 72.8239 196.435 72.8239C196.824 72.8239 197.151 72.8817 197.416 72.9973C197.684 73.1099 197.886 73.2802 198.023 73.5083C198.16 73.7334 198.228 74.0132 198.228 74.3478V77.6328H197.617L197.567 76.7249C197.378 77.099 197.138 77.3591 196.846 77.5051C196.557 77.6511 196.242 77.7241 195.901 77.7241ZM196.102 77.1902C196.272 77.1902 196.441 77.1598 196.609 77.099C196.779 77.0382 196.934 76.9545 197.074 76.8481C197.214 76.7416 197.326 76.623 197.412 76.4922C197.497 76.3614 197.541 76.2276 197.544 76.0907V75.2512L196.782 75.2649C196.383 75.271 196.056 75.3105 195.801 75.3835C195.548 75.4565 195.36 75.569 195.235 75.7211C195.114 75.8702 195.053 76.0664 195.053 76.3097C195.053 76.5865 195.15 76.8024 195.345 76.9576C195.539 77.1127 195.792 77.1902 196.102 77.1902ZM200.532 76.6656V77.6328H199.656V76.6656H200.532ZM200.528 71.0354L200.345 76.0542H199.853L199.666 71.0354H200.528Z" fill="#00284D"/>
<path d="M232.5 51.6836V45.0862H234.549C235.333 45.0862 235.931 45.2337 236.342 45.5288C236.755 45.8208 236.962 46.2451 236.962 46.8017C236.962 47.1576 236.868 47.4618 236.679 47.7142C236.494 47.9667 236.173 48.1689 235.717 48.321C235.972 48.3727 236.19 48.4488 236.369 48.5492C236.548 48.6495 236.693 48.7682 236.802 48.905C236.915 49.0419 236.996 49.1955 237.044 49.3658C237.096 49.5362 237.122 49.7187 237.122 49.9133C237.122 50.5065 236.909 50.9506 236.483 51.2456C236.057 51.5376 235.431 51.6836 234.603 51.6836H232.5ZM233.212 51.0677H234.585C235.178 51.0677 235.63 50.9749 235.94 50.7893C236.25 50.6008 236.405 50.3042 236.405 49.8997C236.405 49.6016 236.328 49.3613 236.173 49.1788C236.021 48.9963 235.815 48.864 235.557 48.7818C235.298 48.6997 235.011 48.6587 234.695 48.6587H233.212V51.0677ZM233.212 48.0336H234.695C234.877 48.0336 235.06 48.0169 235.242 47.9834C235.428 47.9469 235.598 47.8861 235.753 47.8009C235.908 47.7157 236.033 47.6002 236.127 47.4542C236.221 47.3051 236.269 47.1181 236.269 46.893C236.269 46.4793 236.11 46.1767 235.794 45.985C235.481 45.7904 235.072 45.693 234.567 45.693H233.212V48.0336ZM240.26 51.7748C239.834 51.7748 239.46 51.6836 239.138 51.5011C238.819 51.3156 238.571 51.0418 238.394 50.6798C238.218 50.3179 238.13 49.8723 238.13 49.343C238.13 48.8503 238.21 48.4184 238.371 48.0473C238.536 47.6762 238.776 47.3888 239.092 47.185C239.409 46.9781 239.799 46.8747 240.265 46.8747C240.691 46.8747 241.06 46.969 241.374 47.1576C241.69 47.3431 241.935 47.6199 242.108 47.988C242.285 48.353 242.373 48.8047 242.373 49.343C242.373 49.8236 242.294 50.2464 242.135 50.6114C241.977 50.9764 241.742 51.2623 241.428 51.4692C241.118 51.6729 240.729 51.7748 240.26 51.7748ZM240.265 51.2C240.56 51.2 240.811 51.127 241.018 50.981C241.228 50.835 241.387 50.6221 241.497 50.3422C241.609 50.0624 241.666 49.7232 241.666 49.3248C241.666 48.9659 241.617 48.645 241.52 48.3621C241.422 48.0792 241.27 47.8572 241.063 47.696C240.856 47.5317 240.59 47.4496 240.265 47.4496C239.964 47.4496 239.707 47.5226 239.494 47.6686C239.284 47.8116 239.123 48.0229 239.01 48.3028C238.898 48.5826 238.841 48.9233 238.841 49.3248C238.841 49.6837 238.89 50.0046 238.987 50.2875C239.088 50.5673 239.243 50.7893 239.453 50.9536C239.663 51.1178 239.933 51.2 240.265 51.2ZM243.532 51.6836V46.966H244.217V47.6549C244.296 47.518 244.404 47.3918 244.541 47.2762C244.68 47.1606 244.849 47.0679 245.047 46.9979C245.248 46.9279 245.473 46.893 245.722 46.893C246.026 46.893 246.303 46.9538 246.553 47.0755C246.805 47.1941 247.006 47.3796 247.155 47.6321C247.304 47.8846 247.378 48.2085 247.378 48.6039V51.6836H246.667V48.6678C246.667 48.2663 246.565 47.9697 246.361 47.7781C246.157 47.5865 245.888 47.4907 245.553 47.4907C245.325 47.4907 245.111 47.5272 244.91 47.6002C244.709 47.6732 244.548 47.7842 244.426 47.9332C244.305 48.0823 244.244 48.2693 244.244 48.4944V51.6836H243.532ZM249.598 51.9619C249.598 52.3817 249.51 52.6919 249.334 52.8927C249.16 53.0964 248.844 53.1983 248.385 53.1983C248.123 53.1983 247.96 53.1816 247.896 53.1482C247.833 53.1147 247.801 53.098 247.801 53.098L247.796 52.6235L248.289 52.6052C248.508 52.59 248.661 52.5322 248.75 52.4318C248.841 52.3315 248.886 52.1627 248.886 51.9254V46.966H249.598V51.9619ZM249.626 45.0908V45.8755H248.855V45.0908H249.626ZM252.923 51.7748C252.497 51.7748 252.123 51.6836 251.801 51.5011C251.481 51.3156 251.233 51.0418 251.057 50.6798C250.881 50.3179 250.792 49.8723 250.792 49.343C250.792 48.8503 250.873 48.4184 251.034 48.0473C251.198 47.6762 251.439 47.3888 251.755 47.185C252.071 46.9781 252.462 46.8747 252.928 46.8747C253.353 46.8747 253.723 46.969 254.036 47.1576C254.353 47.3431 254.597 47.6199 254.771 47.988C254.947 48.353 255.035 48.8047 255.035 49.343C255.035 49.8236 254.956 50.2464 254.798 50.6114C254.64 50.9764 254.404 51.2623 254.091 51.4692C253.781 51.6729 253.391 51.7748 252.923 51.7748ZM252.928 51.2C253.223 51.2 253.474 51.127 253.68 50.981C253.89 50.835 254.05 50.6221 254.159 50.3422C254.272 50.0624 254.328 49.7232 254.328 49.3248C254.328 48.9659 254.28 48.645 254.182 48.3621C254.085 48.0792 253.933 47.8572 253.726 47.696C253.519 47.5317 253.253 47.4496 252.928 47.4496C252.626 47.4496 252.369 47.5226 252.157 47.6686C251.947 47.8116 251.785 48.0229 251.673 48.3028C251.56 48.5826 251.504 48.9233 251.504 49.3248C251.504 49.6837 251.553 50.0046 251.65 50.2875C251.75 50.5673 251.906 50.7893 252.115 50.9536C252.325 51.1178 252.596 51.2 252.928 51.2ZM257.849 51.7748C257.596 51.7718 257.36 51.7368 257.141 51.6699C256.922 51.5999 256.729 51.4981 256.562 51.3642C256.398 51.2273 256.268 51.0585 256.174 50.8578C256.083 50.654 256.037 50.4183 256.037 50.1506V46.966H256.749V50.0867C256.749 50.4183 256.849 50.6874 257.05 50.8943C257.251 51.0981 257.56 51.2 257.976 51.2C258.347 51.2 258.645 51.1042 258.871 50.9125C259.096 50.7179 259.208 50.4243 259.208 50.032V46.966H259.915V51.6836H259.34L259.267 50.7893C259.213 51.0144 259.117 51.2 258.98 51.346C258.846 51.492 258.682 51.6015 258.487 51.6745C258.296 51.7444 258.083 51.7779 257.849 51.7748ZM261.372 51.6836V46.966H262.048V47.8192C262.127 47.5971 262.238 47.4177 262.381 47.2808C262.527 47.1409 262.689 47.039 262.869 46.9751C263.051 46.9082 263.235 46.8747 263.421 46.8747C263.497 46.8747 263.571 46.8808 263.644 46.893C263.717 46.9021 263.775 46.9188 263.818 46.9432V47.6367C263.769 47.6123 263.704 47.5956 263.622 47.5865C263.543 47.5773 263.476 47.5728 263.421 47.5728C263.254 47.5637 263.091 47.5758 262.933 47.6093C262.775 47.6427 262.63 47.7021 262.499 47.7872C262.372 47.8724 262.27 47.9864 262.194 48.1294C262.121 48.2724 262.084 48.4473 262.084 48.6541V51.6836H261.372ZM265.664 50.7163V51.6836H264.788V50.7163H265.664ZM265.659 45.0862L265.477 50.105H264.984L264.797 45.0862H265.659Z" fill="#00284D"/>
<path d="M183.361 48.5857H179.62V51.6836H178.908V45.0862H179.62V47.9423H183.361V45.0862H184.073V51.6836H183.361V48.5857ZM186.138 49.489C186.138 49.8054 186.19 50.0928 186.293 50.3513C186.396 50.6099 186.556 50.8167 186.772 50.9718C186.988 51.127 187.262 51.2045 187.593 51.2045C187.913 51.2045 188.188 51.13 188.419 50.981C188.65 50.8289 188.795 50.6144 188.853 50.3377H189.537C189.479 50.654 189.353 50.9186 189.158 51.1315C188.967 51.3444 188.734 51.5057 188.46 51.6152C188.189 51.7216 187.904 51.7748 187.602 51.7748C187.17 51.7748 186.789 51.6806 186.457 51.492C186.129 51.3003 185.872 51.0251 185.686 50.6662C185.504 50.3072 185.412 49.8753 185.412 49.3704C185.412 48.8685 185.496 48.4305 185.663 48.0564C185.831 47.6792 186.072 47.3888 186.389 47.185C186.708 46.9781 187.093 46.8747 187.543 46.8747C187.978 46.8747 188.346 46.969 188.647 47.1576C188.948 47.3431 189.178 47.6093 189.336 47.956C189.494 48.3028 189.573 48.7164 189.573 49.197V49.489H186.138ZM186.142 48.9826H188.88C188.88 48.6906 188.831 48.4275 188.734 48.1933C188.637 47.9591 188.489 47.7735 188.291 47.6367C188.094 47.4998 187.843 47.4313 187.539 47.4313C187.216 47.4313 186.951 47.5089 186.745 47.664C186.541 47.8161 186.389 48.0108 186.288 48.248C186.188 48.4853 186.139 48.7301 186.142 48.9826ZM191.891 51.7338C191.666 51.7338 191.481 51.7018 191.335 51.638C191.192 51.5711 191.079 51.4798 190.997 51.3642C190.918 51.2486 190.863 51.1163 190.833 50.9673C190.802 50.8182 190.787 50.6616 190.787 50.4973V44.9037H191.49V50.438C191.49 50.6966 191.539 50.8867 191.636 51.0083C191.733 51.127 191.861 51.1908 192.019 51.2L192.284 51.2045V51.6699C192.217 51.6912 192.148 51.7064 192.078 51.7155C192.008 51.7277 191.946 51.7338 191.891 51.7338ZM194.404 51.7338C194.179 51.7338 193.994 51.7018 193.848 51.638C193.705 51.5711 193.592 51.4798 193.51 51.3642C193.431 51.2486 193.376 51.1163 193.346 50.9673C193.315 50.8182 193.3 50.6616 193.3 50.4973V44.9037H194.003V50.438C194.003 50.6966 194.051 50.8867 194.149 51.0083C194.246 51.127 194.374 51.1908 194.532 51.2L194.797 51.2045V51.6699C194.73 51.6912 194.661 51.7064 194.591 51.7155C194.521 51.7277 194.459 51.7338 194.404 51.7338ZM197.701 51.7748C197.275 51.7748 196.901 51.6836 196.578 51.5011C196.259 51.3156 196.011 51.0418 195.835 50.6798C195.658 50.3179 195.57 49.8723 195.57 49.343C195.57 48.8503 195.651 48.4184 195.812 48.0473C195.976 47.6762 196.216 47.3888 196.533 47.185C196.849 46.9781 197.24 46.8747 197.705 46.8747C198.131 46.8747 198.501 46.969 198.814 47.1576C199.13 47.3431 199.375 47.6199 199.549 47.988C199.725 48.353 199.813 48.8047 199.813 49.343C199.813 49.8236 199.734 50.2464 199.576 50.6114C199.418 50.9764 199.182 51.2623 198.869 51.4692C198.558 51.6729 198.169 51.7748 197.701 51.7748ZM197.705 51.2C198 51.2 198.251 51.127 198.458 50.981C198.668 50.835 198.828 50.6221 198.937 50.3422C199.05 50.0624 199.106 49.7232 199.106 49.3248C199.106 48.9659 199.057 48.645 198.96 48.3621C198.863 48.0792 198.711 47.8572 198.504 47.696C198.297 47.5317 198.031 47.4496 197.705 47.4496C197.404 47.4496 197.147 47.5226 196.934 47.6686C196.724 47.8116 196.563 48.0229 196.451 48.3028C196.338 48.5826 196.282 48.9233 196.282 49.3248C196.282 49.6837 196.33 50.0046 196.428 50.2875C196.528 50.5673 196.683 50.7893 196.893 50.9536C197.103 51.1178 197.374 51.2 197.705 51.2ZM201.771 50.7163V51.6836H200.895V50.7163H201.771ZM201.767 45.0862L201.584 50.105H201.091L200.904 45.0862H201.767Z" fill="#00284D"/>
<path d="M48.472 57.3615L47.5093 60.6602H47.1192L46.396 58.1029L45.6615 60.6602H45.2828L44.3315 57.3615H44.7581L45.4881 59.9872L46.2318 57.3615H46.5626L47.304 59.9872L48.0477 57.3615H48.472ZM49.0249 59.5788C49.0249 59.7279 49.0492 59.8632 49.0979 59.9849C49.148 60.1051 49.2233 60.2009 49.3237 60.2723C49.4256 60.3438 49.5526 60.3796 49.7047 60.3796C49.8552 60.3796 49.9845 60.3446 50.0925 60.2746C50.202 60.2047 50.2719 60.1035 50.3024 59.9712H50.7016C50.6727 60.1309 50.6088 60.2655 50.5099 60.375C50.4111 60.4845 50.2917 60.5674 50.1518 60.6237C50.0119 60.6784 49.8659 60.7058 49.7138 60.7058C49.4933 60.7058 49.2994 60.6579 49.1321 60.5621C48.9648 60.4662 48.834 60.3286 48.7397 60.1492C48.6454 59.9697 48.5983 59.7545 48.5983 59.5036C48.5983 59.2557 48.6408 59.0382 48.726 58.8511C48.8112 58.6641 48.9344 58.5181 49.0956 58.4131C49.2583 58.3082 49.4537 58.2557 49.6819 58.2557C49.9039 58.2557 50.0917 58.3036 50.2453 58.3994C50.3989 58.4952 50.5153 58.6306 50.5944 58.8055C50.675 58.9789 50.7153 59.1849 50.7153 59.4237V59.5788H49.0249ZM49.0271 59.2937H50.3092C50.3092 59.1583 50.2864 59.0367 50.2408 58.9287C50.1951 58.8192 50.1252 58.7333 50.0309 58.6709C49.9381 58.607 49.821 58.5751 49.6796 58.5751C49.532 58.5751 49.4096 58.6108 49.3123 58.6823C49.2165 58.7523 49.1442 58.8428 49.0956 58.9538C49.0484 59.0633 49.0256 59.1766 49.0271 59.2937ZM53.1521 60.7058C52.9879 60.7058 52.835 60.6807 52.6936 60.6305C52.5537 60.5788 52.4373 60.4989 52.3446 60.391C52.2518 60.2815 52.1932 60.1423 52.1689 59.9735H52.5522C52.5735 60.0663 52.6115 60.1438 52.6662 60.2062C52.7225 60.267 52.7925 60.3134 52.8761 60.3453C52.9597 60.3758 53.051 60.391 53.1499 60.391C53.308 60.391 53.4358 60.3613 53.5331 60.302C53.6304 60.2427 53.6791 60.1514 53.6791 60.0282C53.6791 59.9416 53.6532 59.8724 53.6015 59.8207C53.5514 59.7674 53.473 59.7286 53.3666 59.7043L52.8784 59.5834C52.6883 59.5378 52.5362 59.4663 52.4221 59.369C52.3081 59.2716 52.251 59.1355 52.251 58.9606C52.2495 58.8222 52.2822 58.7006 52.3491 58.5956C52.416 58.4907 52.5164 58.4078 52.6503 58.347C52.7841 58.2861 52.9506 58.2557 53.1499 58.2557C53.4054 58.2557 53.6114 58.3135 53.7681 58.4291C53.9262 58.5432 54.0084 58.7112 54.0144 58.9332H53.6426C53.6274 58.8207 53.5764 58.7317 53.4898 58.6663C53.4046 58.5994 53.2898 58.566 53.1453 58.566C52.9947 58.566 52.8723 58.5964 52.778 58.6572C52.6837 58.7165 52.6366 58.8093 52.6366 58.9355C52.6366 59.0192 52.67 59.0853 52.7369 59.134C52.8039 59.1811 52.9027 59.2207 53.0335 59.2526L53.5057 59.3713C53.6152 59.4001 53.705 59.4382 53.7749 59.4853C53.8464 59.5325 53.9027 59.5849 53.9437 59.6427C53.9863 59.7005 54.016 59.7613 54.0327 59.8252C54.0509 59.8876 54.0601 59.9476 54.0601 60.0054C54.0601 60.1499 54.0236 60.2746 53.9506 60.3796C53.8791 60.483 53.7757 60.5636 53.6403 60.6214C53.5065 60.6776 53.3438 60.7058 53.1521 60.7058ZM54.6496 61.3947V58.3013H55.0694L55.0739 58.712C55.1013 58.6633 55.1363 58.6124 55.1789 58.5591C55.223 58.5059 55.2762 58.4565 55.3386 58.4108C55.4024 58.3652 55.4762 58.328 55.5598 58.2991C55.645 58.2702 55.7416 58.2557 55.8496 58.2557C56.0382 58.2557 56.2039 58.2991 56.3469 58.3857C56.4914 58.4709 56.6039 58.6017 56.6845 58.7781C56.7651 58.9545 56.8054 59.1781 56.8054 59.4488C56.8054 59.7195 56.7659 59.9484 56.6868 60.1355C56.6092 60.321 56.4967 60.4624 56.3492 60.5598C56.2016 60.6571 56.0237 60.7058 55.8153 60.7058C55.7104 60.7058 55.6169 60.6906 55.5348 60.6602C55.4542 60.6313 55.3834 60.5932 55.3226 60.5461C55.2633 60.4974 55.2131 60.4457 55.172 60.391C55.1325 60.3362 55.0998 60.2837 55.0739 60.2336V61.3947H54.6496ZM55.7355 60.3773C55.9302 60.3773 56.0891 60.3035 56.2123 60.156C56.3355 60.007 56.3971 59.7758 56.3971 59.4625C56.3971 59.1933 56.3408 58.9796 56.2283 58.8215C56.1157 58.6633 55.9515 58.5842 55.7355 58.5842C55.5165 58.5842 55.3507 58.6656 55.2382 58.8283C55.1257 58.9895 55.0694 59.2009 55.0694 59.4625C55.0694 59.6313 55.0945 59.7849 55.1447 59.9233C55.1948 60.0617 55.2694 60.172 55.3682 60.2541C55.4671 60.3362 55.5895 60.3773 55.7355 60.3773ZM57.6597 59.5788C57.6597 59.7279 57.6841 59.8632 57.7327 59.9849C57.7829 60.1051 57.8582 60.2009 57.9586 60.2723C58.0605 60.3438 58.1875 60.3796 58.3396 60.3796C58.4901 60.3796 58.6194 60.3446 58.7274 60.2746C58.8369 60.2047 58.9068 60.1035 58.9372 59.9712H59.3365C59.3076 60.1309 59.2437 60.2655 59.1448 60.375C59.046 60.4845 58.9266 60.5674 58.7867 60.6237C58.6468 60.6784 58.5008 60.7058 58.3487 60.7058C58.1282 60.7058 57.9342 60.6579 57.767 60.5621C57.5997 60.4662 57.4689 60.3286 57.3746 60.1492C57.2803 59.9697 57.2331 59.7545 57.2331 59.5036C57.2331 59.2557 57.2757 59.0382 57.3609 58.8511C57.4461 58.6641 57.5692 58.5181 57.7305 58.4131C57.8932 58.3082 58.0886 58.2557 58.3167 58.2557C58.5388 58.2557 58.7266 58.3036 58.8802 58.3994C59.0338 58.4952 59.1502 58.6306 59.2292 58.8055C59.3098 58.9789 59.3501 59.1849 59.3501 59.4237V59.5788H57.6597ZM57.662 59.2937H58.9441C58.9441 59.1583 58.9213 59.0367 58.8756 58.9287C58.83 58.8192 58.7601 58.7333 58.6658 58.6709C58.573 58.607 58.4559 58.5751 58.3145 58.5751C58.1669 58.5751 58.0445 58.6108 57.9472 58.6823C57.8514 58.7523 57.7791 58.8428 57.7305 58.9538C57.6833 59.0633 57.6605 59.1766 57.662 59.2937ZM60.5507 60.7058C60.3986 60.7058 60.264 60.6792 60.1469 60.6259C60.0298 60.5712 59.9378 60.4929 59.8709 60.391C59.8055 60.2891 59.7728 60.1659 59.7728 60.0214C59.7728 59.7598 59.8641 59.5652 60.0466 59.4374C60.2291 59.3097 60.5218 59.2412 60.9248 59.2321L61.3469 59.2207V59.0359C61.3469 58.8914 61.3035 58.7774 61.2168 58.6937C61.1302 58.6086 60.9956 58.566 60.8131 58.566C60.6777 58.5675 60.5583 58.5994 60.4549 58.6618C60.353 58.7241 60.2869 58.826 60.2564 58.9675H59.8846C59.8937 58.8139 59.9371 58.6846 60.0146 58.5797C60.0922 58.4732 60.2002 58.3926 60.3386 58.3378C60.4785 58.2831 60.6435 58.2557 60.8336 58.2557C61.0389 58.2557 61.2092 58.2846 61.3446 58.3424C61.4815 58.4002 61.5834 58.4854 61.6503 58.5979C61.7187 58.7104 61.7529 58.8488 61.7529 59.0131V60.6602H61.3925L61.3628 60.2176C61.2716 60.4016 61.1553 60.5294 61.0138 60.6008C60.8739 60.6708 60.7195 60.7058 60.5507 60.7058ZM60.6785 60.4024C60.7576 60.4024 60.8359 60.3879 60.9134 60.359C60.9925 60.3301 61.0648 60.2914 61.1302 60.2427C61.1956 60.1925 61.2473 60.137 61.2853 60.0762C61.3248 60.0138 61.3454 59.9499 61.3469 59.8845V59.4807L60.9956 59.4876C60.8161 59.4906 60.6655 59.5089 60.5439 59.5423C60.4237 59.5758 60.3332 59.6283 60.2724 59.6997C60.2131 59.7712 60.1834 59.8648 60.1834 59.9803C60.1834 60.1127 60.2291 60.2161 60.3203 60.2906C60.4131 60.3651 60.5325 60.4024 60.6785 60.4024ZM64.545 60.6602H64.0979L63.3587 59.4762L62.8934 59.9575V60.6602H62.4736V57.2702H62.8934V59.4807L64.002 58.3013H64.4857L63.6348 59.2002L64.545 60.6602ZM67.4327 58.3013V58.6093H66.8601V60.6602H66.4358V58.6093H65.9385V58.3013H66.4358V57.9363C66.4358 57.7493 66.4837 57.6071 66.5795 57.5097C66.6753 57.4109 66.8183 57.3615 67.0084 57.3615H67.4532L67.4555 57.6603H67.1019C67.0061 57.6603 66.9407 57.6862 66.9057 57.7379C66.8707 57.7896 66.8532 57.8679 66.8532 57.9728V58.3013H67.4327ZM68.8604 60.7058C68.6429 60.7058 68.4528 60.6594 68.29 60.5666C68.1273 60.4723 68.0011 60.3347 67.9114 60.1537C67.8216 59.9727 67.7768 59.7515 67.7768 59.4899C67.7768 59.2435 67.8186 59.0275 67.9022 58.842C67.9859 58.6565 68.1083 58.5127 68.2695 58.4108C68.4322 58.3074 68.6292 58.2557 68.8604 58.2557C69.0778 58.2557 69.2664 58.3036 69.4261 58.3994C69.5873 58.4937 69.712 58.6329 69.8002 58.8169C69.8884 59.0009 69.9325 59.2252 69.9325 59.4899C69.9325 59.7302 69.8915 59.9416 69.8094 60.1241C69.7288 60.3066 69.6086 60.4495 69.4489 60.5529C69.2908 60.6548 69.0946 60.7058 68.8604 60.7058ZM68.8604 60.3727C69.0018 60.3727 69.1212 60.337 69.2185 60.2655C69.3158 60.194 69.3896 60.0914 69.4398 59.9575C69.49 59.8237 69.5151 59.6648 69.5151 59.4807C69.5151 59.3119 69.493 59.1606 69.4489 59.0268C69.4048 58.8914 69.3341 58.7842 69.2368 58.7051C69.1409 58.626 69.0155 58.5865 68.8604 58.5865C68.7174 58.5865 68.5965 58.6222 68.4976 58.6937C68.3988 58.7637 68.3235 58.8656 68.2718 58.9994C68.2216 59.1332 68.1965 59.2937 68.1965 59.4807C68.1965 59.6465 68.2193 59.7971 68.2649 59.9324C68.3106 60.0678 68.3821 60.175 68.4794 60.2541C68.5767 60.3332 68.7037 60.3727 68.8604 60.3727ZM71.3115 60.7058C71.1883 60.7043 71.072 60.6868 70.9625 60.6533C70.8545 60.6183 70.7587 60.5674 70.675 60.5005C70.5914 60.4336 70.5252 60.3507 70.4765 60.2518C70.4294 60.1514 70.4058 60.0351 70.4058 59.9028V58.3013H70.8279V59.8594C70.8279 60.013 70.875 60.1377 70.9693 60.2336C71.0651 60.3294 71.2088 60.3773 71.4005 60.3773C71.5738 60.3773 71.713 60.3324 71.8179 60.2427C71.9244 60.1514 71.9776 60.0161 71.9776 59.8366V58.3013H72.3974V60.6602H72.062L72.0187 60.2085C71.9898 60.3271 71.9404 60.4229 71.8704 60.4959C71.802 60.5689 71.7191 60.6229 71.6217 60.6579C71.5259 60.6913 71.4225 60.7073 71.3115 60.7058ZM73.0868 60.6602V58.3013H73.4883V58.7553C73.5278 58.6428 73.5833 58.55 73.6548 58.477C73.7263 58.4025 73.8076 58.347 73.8989 58.3105C73.9917 58.274 74.0875 58.2557 74.1863 58.2557C74.2213 58.2557 74.2555 58.258 74.289 58.2626C74.3224 58.2671 74.3483 58.2747 74.3665 58.2854V58.6937C74.3437 58.6831 74.3141 58.6762 74.2776 58.6732C74.2426 58.6686 74.2129 58.6663 74.1886 58.6663C74.0943 58.6603 74.0061 58.6663 73.924 58.6846C73.8419 58.7013 73.7696 58.731 73.7073 58.7736C73.6449 58.8161 73.5955 58.8724 73.559 58.9424C73.524 59.0108 73.5065 59.0945 73.5065 59.1933V60.6602H73.0868ZM76.5025 60.6898C76.3748 60.6898 76.2714 60.6723 76.1923 60.6373C76.1147 60.6024 76.0547 60.5552 76.0121 60.4959C75.971 60.4366 75.9429 60.3689 75.9277 60.2929C75.914 60.2153 75.9071 60.1355 75.9071 60.0533V57.2702H76.3223V60.0123C76.3223 60.1309 76.3451 60.2199 76.3908 60.2792C76.4379 60.3385 76.5033 60.3712 76.5869 60.3773L76.7147 60.3796V60.6533C76.6797 60.664 76.6432 60.6723 76.6052 60.6784C76.5672 60.686 76.533 60.6898 76.5025 60.6898ZM77.8962 60.7058C77.7442 60.7058 77.6096 60.6792 77.4925 60.6259C77.3754 60.5712 77.2833 60.4929 77.2164 60.391C77.151 60.2891 77.1183 60.1659 77.1183 60.0214C77.1183 59.7598 77.2096 59.5652 77.3921 59.4374C77.5746 59.3097 77.8673 59.2412 78.2704 59.2321L78.6924 59.2207V59.0359C78.6924 58.8914 78.6491 58.7774 78.5624 58.6937C78.4757 58.6086 78.3411 58.566 78.1586 58.566C78.0232 58.5675 77.9038 58.5994 77.8004 58.6618C77.6985 58.7241 77.6324 58.826 77.602 58.9675H77.2301C77.2392 58.8139 77.2826 58.6846 77.3602 58.5797C77.4377 58.4732 77.5457 58.3926 77.6841 58.3378C77.824 58.2831 77.989 58.2557 78.1791 58.2557C78.3844 58.2557 78.5548 58.2846 78.6901 58.3424C78.827 58.4002 78.9289 58.4854 78.9958 58.5979C79.0642 58.7104 79.0985 58.8488 79.0985 59.0131V60.6602H78.738L78.7084 60.2176C78.6171 60.4016 78.5008 60.5294 78.3593 60.6008C78.2194 60.6708 78.0651 60.7058 77.8962 60.7058ZM78.024 60.4024C78.1031 60.4024 78.1814 60.3879 78.259 60.359C78.338 60.3301 78.4103 60.2914 78.4757 60.2427C78.5411 60.1925 78.5928 60.137 78.6308 60.0762C78.6703 60.0138 78.6909 59.9499 78.6924 59.8845V59.4807L78.3411 59.4876C78.1616 59.4906 78.0111 59.5089 77.8894 59.5423C77.7693 59.5758 77.6788 59.6283 77.6179 59.6997C77.5586 59.7712 77.529 59.8648 77.529 59.9803C77.529 60.1127 77.5746 60.2161 77.6658 60.2906C77.7586 60.3651 77.878 60.4024 78.024 60.4024ZM79.8191 60.6602V58.3013H80.2275V58.6435C80.2655 58.5781 80.318 58.5165 80.3849 58.4587C80.4533 58.401 80.5354 58.3546 80.6312 58.3196C80.7286 58.2846 80.8404 58.2671 80.9666 58.2671C81.1156 58.2671 81.2525 58.2968 81.3772 58.3561C81.5034 58.4154 81.6038 58.5082 81.6783 58.6344C81.7544 58.7591 81.7924 58.9203 81.7924 59.118V60.6602H81.3704V59.1591C81.3704 58.9751 81.3217 58.839 81.2244 58.7507C81.1286 58.661 81.0039 58.6162 80.8502 58.6162C80.7438 58.6162 80.6442 58.6336 80.5514 58.6686C80.4586 58.7021 80.3834 58.7538 80.3256 58.8237C80.2678 58.8922 80.2389 58.9789 80.2389 59.0838V60.6602H79.8191ZM83.447 61.4403C83.0759 61.4403 82.7869 61.3864 82.5801 61.2784C82.3748 61.1719 82.2721 61.0191 82.2721 60.8198C82.2721 60.7347 82.2919 60.6624 82.3315 60.6031C82.371 60.5423 82.4181 60.4921 82.4729 60.4526C82.5276 60.413 82.5786 60.3818 82.6257 60.359C82.6729 60.3347 82.7033 60.3172 82.717 60.3066C82.6911 60.2914 82.6584 60.2723 82.6189 60.2495C82.5809 60.2267 82.5474 60.1963 82.5185 60.1583C82.4896 60.1203 82.4752 60.0708 82.4752 60.01C82.4752 59.9355 82.5102 59.867 82.5801 59.8047C82.6501 59.7423 82.7535 59.6959 82.8904 59.6655C82.752 59.5956 82.644 59.5028 82.5664 59.3872C82.4889 59.2716 82.4501 59.1462 82.4501 59.0108C82.4501 58.8587 82.4911 58.7264 82.5733 58.6139C82.6569 58.5013 82.7755 58.4154 82.9291 58.3561C83.0827 58.2953 83.2652 58.2648 83.4766 58.2648C83.6302 58.2648 83.7595 58.2831 83.8645 58.3196C83.9694 58.3546 84.0667 58.4048 84.1565 58.4702C84.1808 58.4595 84.2188 58.4435 84.2705 58.4222C84.3237 58.3994 84.3823 58.3751 84.4462 58.3492C84.5101 58.3234 84.5694 58.2991 84.6241 58.2762C84.6804 58.2519 84.7252 58.2337 84.7587 58.2215L84.7564 58.6116L84.3435 58.6892C84.3663 58.7378 84.3846 58.7911 84.3983 58.8488C84.4135 58.9066 84.4211 58.9606 84.4211 59.0108C84.4211 59.1492 84.3846 59.2747 84.3116 59.3872C84.2401 59.4998 84.1314 59.5895 83.9854 59.6564C83.8394 59.7233 83.6569 59.7568 83.4379 59.7568C83.4196 59.7568 83.396 59.7568 83.3671 59.7568C83.3398 59.7553 83.3162 59.7537 83.2964 59.7522C83.1352 59.7568 83.0242 59.775 82.9634 59.807C82.9025 59.8374 82.8721 59.8716 82.8721 59.9096C82.8721 59.9537 82.9063 59.9841 82.9748 60.0009C83.0432 60.0176 83.1596 60.0321 83.3238 60.0442C83.3831 60.0473 83.4561 60.0511 83.5428 60.0556C83.631 60.0602 83.7283 60.0663 83.8348 60.0739C84.0827 60.0891 84.2736 60.1522 84.4074 60.2632C84.5412 60.3742 84.6081 60.524 84.6081 60.7126C84.6081 60.9271 84.5123 61.102 84.3207 61.2373C84.1291 61.3727 83.8378 61.4403 83.447 61.4403ZM83.5223 61.1689C83.7397 61.1689 83.9063 61.1362 84.0219 61.0708C84.1374 61.0054 84.1952 60.9065 84.1952 60.7742C84.1952 60.6799 84.1595 60.6031 84.088 60.5438C84.0181 60.483 83.9108 60.448 83.7664 60.4389L83.1048 60.3955C83.0455 60.3925 82.9839 60.4077 82.92 60.4412C82.8561 60.4731 82.8014 60.518 82.7558 60.5757C82.7117 60.6335 82.6896 60.6989 82.6896 60.7719C82.6896 60.8966 82.7573 60.994 82.8926 61.0639C83.0295 61.1339 83.2394 61.1689 83.5223 61.1689ZM83.4493 59.4853C83.6196 59.4853 83.7565 59.4458 83.8599 59.3667C83.9648 59.2876 84.0173 59.1705 84.0173 59.0154C84.0173 58.8557 83.9648 58.734 83.8599 58.6504C83.7565 58.5667 83.6196 58.5249 83.4493 58.5249C83.2774 58.5249 83.1383 58.5675 83.0318 58.6527C82.9269 58.7363 82.8744 58.8572 82.8744 59.0154C82.8744 59.1644 82.9246 59.28 83.025 59.3621C83.1253 59.4442 83.2668 59.4853 83.4493 59.4853ZM86.0861 60.7058C85.963 60.7043 85.8466 60.6868 85.7371 60.6533C85.6291 60.6183 85.5333 60.5674 85.4497 60.5005C85.366 60.4336 85.2999 60.3507 85.2512 60.2518C85.2041 60.1514 85.1805 60.0351 85.1805 59.9028V58.3013H85.6025V59.8594C85.6025 60.013 85.6497 60.1377 85.744 60.2336C85.8398 60.3294 85.9835 60.3773 86.1751 60.3773C86.3485 60.3773 86.4876 60.3324 86.5926 60.2427C86.699 60.1514 86.7523 60.0161 86.7523 59.8366V58.3013H87.172V60.6602H86.8367L86.7933 60.2085C86.7644 60.3271 86.715 60.4229 86.6451 60.4959C86.5766 60.5689 86.4937 60.6229 86.3964 60.6579C86.3006 60.6913 86.1972 60.7073 86.0861 60.7058ZM88.4827 60.7058C88.3306 60.7058 88.196 60.6792 88.0789 60.6259C87.9618 60.5712 87.8698 60.4929 87.8029 60.391C87.7375 60.2891 87.7048 60.1659 87.7048 60.0214C87.7048 59.7598 87.796 59.5652 87.9785 59.4374C88.161 59.3097 88.4538 59.2412 88.8568 59.2321L89.2788 59.2207V59.0359C89.2788 58.8914 89.2355 58.7774 89.1488 58.6937C89.0621 58.6086 88.9275 58.566 88.745 58.566C88.6097 58.5675 88.4903 58.5994 88.3869 58.6618C88.285 58.7241 88.2188 58.826 88.1884 58.9675H87.8165C87.8257 58.8139 87.869 58.6846 87.9466 58.5797C88.0241 58.4732 88.1321 58.3926 88.2705 58.3378C88.4104 58.2831 88.5754 58.2557 88.7655 58.2557C88.9709 58.2557 89.1412 58.2846 89.2765 58.3424C89.4134 58.4002 89.5153 58.4854 89.5822 58.5979C89.6507 58.7104 89.6849 58.8488 89.6849 59.0131V60.6602H89.3245L89.2948 60.2176C89.2035 60.4016 89.0872 60.5294 88.9458 60.6008C88.8058 60.6708 88.6515 60.7058 88.4827 60.7058ZM88.6104 60.4024C88.6895 60.4024 88.7678 60.3879 88.8454 60.359C88.9245 60.3301 88.9967 60.2914 89.0621 60.2427C89.1275 60.1925 89.1792 60.137 89.2172 60.0762C89.2568 60.0138 89.2773 59.9499 89.2788 59.8845V59.4807L88.9275 59.4876C88.7481 59.4906 88.5975 59.5089 88.4758 59.5423C88.3557 59.5758 88.2652 59.6283 88.2044 59.6997C88.145 59.7712 88.1154 59.8648 88.1154 59.9803C88.1154 60.1127 88.161 60.2161 88.2523 60.2906C88.345 60.3651 88.4644 60.4024 88.6104 60.4024ZM91.4002 61.4403C91.0291 61.4403 90.7401 61.3864 90.5333 61.2784C90.328 61.1719 90.2253 61.0191 90.2253 60.8198C90.2253 60.7347 90.2451 60.6624 90.2846 60.6031C90.3242 60.5423 90.3713 60.4921 90.4261 60.4526C90.4808 60.413 90.5318 60.3818 90.5789 60.359C90.6261 60.3347 90.6565 60.3172 90.6702 60.3066C90.6443 60.2914 90.6116 60.2723 90.5721 60.2495C90.5341 60.2267 90.5006 60.1963 90.4717 60.1583C90.4428 60.1203 90.4284 60.0708 90.4284 60.01C90.4284 59.9355 90.4633 59.867 90.5333 59.8047C90.6033 59.7423 90.7067 59.6959 90.8435 59.6655C90.7052 59.5956 90.5972 59.5028 90.5196 59.3872C90.442 59.2716 90.4033 59.1462 90.4033 59.0108C90.4033 58.8587 90.4443 58.7264 90.5265 58.6139C90.6101 58.5013 90.7287 58.4154 90.8823 58.3561C91.0359 58.2953 91.2184 58.2648 91.4298 58.2648C91.5834 58.2648 91.7127 58.2831 91.8176 58.3196C91.9226 58.3546 92.0199 58.4048 92.1096 58.4702C92.134 58.4595 92.172 58.4435 92.2237 58.4222C92.2769 58.3994 92.3355 58.3751 92.3994 58.3492C92.4632 58.3234 92.5225 58.2991 92.5773 58.2762C92.6336 58.2519 92.6784 58.2337 92.7119 58.2215L92.7096 58.6116L92.2967 58.6892C92.3195 58.7378 92.3378 58.7911 92.3515 58.8488C92.3667 58.9066 92.3743 58.9606 92.3743 59.0108C92.3743 59.1492 92.3378 59.2747 92.2648 59.3872C92.1933 59.4998 92.0845 59.5895 91.9385 59.6564C91.7925 59.7233 91.61 59.7568 91.391 59.7568C91.3728 59.7568 91.3492 59.7568 91.3203 59.7568C91.293 59.7553 91.2694 59.7537 91.2496 59.7522C91.0884 59.7568 90.9774 59.775 90.9165 59.807C90.8557 59.8374 90.8253 59.8716 90.8253 59.9096C90.8253 59.9537 90.8595 59.9841 90.928 60.0009C90.9964 60.0176 91.1127 60.0321 91.277 60.0442C91.3363 60.0473 91.4093 60.0511 91.496 60.0556C91.5842 60.0602 91.6815 60.0663 91.788 60.0739C92.0359 60.0891 92.2267 60.1522 92.3606 60.2632C92.4944 60.3742 92.5613 60.524 92.5613 60.7126C92.5613 60.9271 92.4655 61.102 92.2739 61.2373C92.0823 61.3727 91.791 61.4403 91.4002 61.4403ZM91.4755 61.1689C91.6929 61.1689 91.8595 61.1362 91.975 61.0708C92.0906 61.0054 92.1484 60.9065 92.1484 60.7742C92.1484 60.6799 92.1127 60.6031 92.0412 60.5438C91.9712 60.483 91.864 60.448 91.7195 60.4389L91.058 60.3955C90.9987 60.3925 90.9371 60.4077 90.8732 60.4412C90.8093 60.4731 90.7546 60.518 90.709 60.5757C90.6649 60.6335 90.6428 60.6989 90.6428 60.7719C90.6428 60.8966 90.7105 60.994 90.8458 61.0639C90.9827 61.1339 91.1926 61.1689 91.4755 61.1689ZM91.4025 59.4853C91.5728 59.4853 91.7097 59.4458 91.8131 59.3667C91.918 59.2876 91.9705 59.1705 91.9705 59.0154C91.9705 58.8557 91.918 58.734 91.8131 58.6504C91.7097 58.5667 91.5728 58.5249 91.4025 58.5249C91.2306 58.5249 91.0914 58.5675 90.985 58.6527C90.88 58.7363 90.8276 58.8572 90.8276 59.0154C90.8276 59.1644 90.8778 59.28 90.9781 59.3621C91.0785 59.4442 91.22 59.4853 91.4025 59.4853ZM93.4647 59.5788C93.4647 59.7279 93.489 59.8632 93.5377 59.9849C93.5879 60.1051 93.6631 60.2009 93.7635 60.2723C93.8654 60.3438 93.9924 60.3796 94.1445 60.3796C94.295 60.3796 94.4243 60.3446 94.5323 60.2746C94.6418 60.2047 94.7118 60.1035 94.7422 59.9712H95.1414C95.1125 60.1309 95.0486 60.2655 94.9498 60.375C94.8509 60.4845 94.7315 60.5674 94.5916 60.6237C94.4517 60.6784 94.3057 60.7058 94.1536 60.7058C93.9331 60.7058 93.7392 60.6579 93.5719 60.5621C93.4046 60.4662 93.2738 60.3286 93.1795 60.1492C93.0852 59.9697 93.0381 59.7545 93.0381 59.5036C93.0381 59.2557 93.0807 59.0382 93.1658 58.8511C93.251 58.6641 93.3742 58.5181 93.5354 58.4131C93.6981 58.3082 93.8935 58.2557 94.1217 58.2557C94.3437 58.2557 94.5315 58.3036 94.6851 58.3994C94.8387 58.4952 94.9551 58.6306 95.0342 58.8055C95.1148 58.9789 95.1551 59.1849 95.1551 59.4237V59.5788H93.4647ZM93.467 59.2937H94.749C94.749 59.1583 94.7262 59.0367 94.6806 58.9287C94.635 58.8192 94.565 58.7333 94.4707 58.6709C94.3779 58.607 94.2608 58.5751 94.1194 58.5751C93.9719 58.5751 93.8494 58.6108 93.7521 58.6823C93.6563 58.7523 93.5841 58.8428 93.5354 58.9538C93.4882 59.0633 93.4654 59.1766 93.467 59.2937ZM96.5538 60.7058C96.3896 60.7058 96.2367 60.6807 96.0953 60.6305C95.9554 60.5788 95.839 60.4989 95.7462 60.391C95.6535 60.2815 95.5949 60.1423 95.5706 59.9735H95.9538C95.9751 60.0663 96.0131 60.1438 96.0679 60.2062C96.1242 60.267 96.1941 60.3134 96.2778 60.3453C96.3614 60.3758 96.4527 60.391 96.5515 60.391C96.7097 60.391 96.8374 60.3613 96.9348 60.302C97.0321 60.2427 97.0808 60.1514 97.0808 60.0282C97.0808 59.9416 97.0549 59.8724 97.0032 59.8207C96.953 59.7674 96.8747 59.7286 96.7682 59.7043L96.2801 59.5834C96.0899 59.5378 95.9379 59.4663 95.8238 59.369C95.7097 59.2716 95.6527 59.1355 95.6527 58.9606C95.6512 58.8222 95.6839 58.7006 95.7508 58.5956C95.8177 58.4907 95.9181 58.4078 96.0519 58.347C96.1858 58.2861 96.3523 58.2557 96.5515 58.2557C96.807 58.2557 97.0131 58.3135 97.1697 58.4291C97.3279 58.5432 97.41 58.7112 97.4161 58.9332H97.0443C97.0291 58.8207 96.9781 58.7317 96.8914 58.6663C96.8063 58.5994 96.6914 58.566 96.547 58.566C96.3964 58.566 96.274 58.5964 96.1797 58.6572C96.0854 58.7165 96.0382 58.8093 96.0382 58.9355C96.0382 59.0192 96.0717 59.0853 96.1386 59.134C96.2055 59.1811 96.3044 59.2207 96.4352 59.2526L96.9074 59.3713C97.0169 59.4001 97.1066 59.4382 97.1766 59.4853C97.2481 59.5325 97.3043 59.5849 97.3454 59.6427C97.388 59.7005 97.4176 59.7613 97.4344 59.8252C97.4526 59.8876 97.4617 59.9476 97.4617 60.0054C97.4617 60.1499 97.4252 60.2746 97.3522 60.3796C97.2808 60.483 97.1773 60.5636 97.042 60.6214C96.9082 60.6776 96.7454 60.7058 96.5538 60.7058ZM97.9532 60.6602V60.1218H98.4551V60.6602H97.9532ZM103.89 57.3615L102.928 60.6602H102.538L101.814 58.1029L101.08 60.6602H100.701L99.7498 57.3615H100.176L100.906 59.9872L101.65 57.3615H101.981L102.722 59.9872L103.466 57.3615H103.89ZM104.443 59.5788C104.443 59.7279 104.468 59.8632 104.516 59.9849C104.566 60.1051 104.642 60.2009 104.742 60.2723C104.844 60.3438 104.971 60.3796 105.123 60.3796C105.274 60.3796 105.403 60.3446 105.511 60.2746C105.62 60.2047 105.69 60.1035 105.721 59.9712H106.12C106.091 60.1309 106.027 60.2655 105.928 60.375C105.829 60.4845 105.71 60.5674 105.57 60.6237C105.43 60.6784 105.284 60.7058 105.132 60.7058C104.912 60.7058 104.718 60.6579 104.55 60.5621C104.383 60.4662 104.252 60.3286 104.158 60.1492C104.064 59.9697 104.017 59.7545 104.017 59.5036C104.017 59.2557 104.059 59.0382 104.144 58.8511C104.23 58.6641 104.353 58.5181 104.514 58.4131C104.677 58.3082 104.872 58.2557 105.1 58.2557C105.322 58.2557 105.51 58.3036 105.664 58.3994C105.817 58.4952 105.934 58.6306 106.013 58.8055C106.093 58.9789 106.134 59.1849 106.134 59.4237V59.5788H104.443ZM104.445 59.2937H105.728C105.728 59.1583 105.705 59.0367 105.659 58.9287C105.613 58.8192 105.544 58.7333 105.449 58.6709C105.356 58.607 105.239 58.5751 105.098 58.5751C104.95 58.5751 104.828 58.6108 104.731 58.6823C104.635 58.7523 104.563 58.8428 104.514 58.9538C104.467 59.0633 104.444 59.1766 104.445 59.2937ZM108.57 60.7058C108.406 60.7058 108.253 60.6807 108.112 60.6305C107.972 60.5788 107.856 60.4989 107.763 60.391C107.67 60.2815 107.612 60.1423 107.587 59.9735H107.97C107.992 60.0663 108.03 60.1438 108.085 60.2062C108.141 60.267 108.211 60.3134 108.294 60.3453C108.378 60.3758 108.469 60.391 108.568 60.391C108.726 60.391 108.854 60.3613 108.951 60.302C109.049 60.2427 109.097 60.1514 109.097 60.0282C109.097 59.9416 109.072 59.8724 109.02 59.8207C108.97 59.7674 108.891 59.7286 108.785 59.7043L108.297 59.5834C108.107 59.5378 107.955 59.4663 107.84 59.369C107.726 59.2716 107.669 59.1355 107.669 58.9606C107.668 58.8222 107.701 58.7006 107.767 58.5956C107.834 58.4907 107.935 58.4078 108.069 58.347C108.202 58.2861 108.369 58.2557 108.568 58.2557C108.824 58.2557 109.03 58.3135 109.186 58.4291C109.345 58.5432 109.427 58.7112 109.433 58.9332H109.061C109.046 58.8207 108.995 58.7317 108.908 58.6663C108.823 58.5994 108.708 58.566 108.564 58.566C108.413 58.566 108.291 58.5964 108.196 58.6572C108.102 58.7165 108.055 58.8093 108.055 58.9355C108.055 59.0192 108.088 59.0853 108.155 59.134C108.222 59.1811 108.321 59.2207 108.452 59.2526L108.924 59.3713C109.034 59.4001 109.123 59.4382 109.193 59.4853C109.265 59.5325 109.321 59.5849 109.362 59.6427C109.405 59.7005 109.434 59.7613 109.451 59.8252C109.469 59.8876 109.478 59.9476 109.478 60.0054C109.478 60.1499 109.442 60.2746 109.369 60.3796C109.297 60.483 109.194 60.5636 109.059 60.6214C108.925 60.6776 108.762 60.7058 108.57 60.7058ZM110.068 61.3947V58.3013H110.488L110.492 58.712C110.52 58.6633 110.555 58.6124 110.597 58.5591C110.641 58.5059 110.695 58.4565 110.757 58.4108C110.821 58.3652 110.895 58.328 110.978 58.2991C111.063 58.2702 111.16 58.2557 111.268 58.2557C111.456 58.2557 111.622 58.2991 111.765 58.3857C111.91 58.4709 112.022 58.6017 112.103 58.7781C112.183 58.9545 112.224 59.1781 112.224 59.4488C112.224 59.7195 112.184 59.9484 112.105 60.1355C112.028 60.321 111.915 60.4624 111.767 60.5598C111.62 60.6571 111.442 60.7058 111.234 60.7058C111.129 60.7058 111.035 60.6906 110.953 60.6602C110.872 60.6313 110.802 60.5932 110.741 60.5461C110.682 60.4974 110.631 60.4457 110.59 60.391C110.551 60.3362 110.518 60.2837 110.492 60.2336V61.3947H110.068ZM111.154 60.3773C111.349 60.3773 111.507 60.3035 111.631 60.156C111.754 60.007 111.815 59.7758 111.815 59.4625C111.815 59.1933 111.759 58.9796 111.647 58.8215C111.534 58.6633 111.37 58.5842 111.154 58.5842C110.935 58.5842 110.769 58.6656 110.657 58.8283C110.544 58.9895 110.488 59.2009 110.488 59.4625C110.488 59.6313 110.513 59.7849 110.563 59.9233C110.613 60.0617 110.688 60.172 110.787 60.2541C110.885 60.3362 111.008 60.3773 111.154 60.3773ZM113.078 59.5788C113.078 59.7279 113.102 59.8632 113.151 59.9849C113.201 60.1051 113.277 60.2009 113.377 60.2723C113.479 60.3438 113.606 60.3796 113.758 60.3796C113.908 60.3796 114.038 60.3446 114.146 60.2746C114.255 60.2047 114.325 60.1035 114.356 59.9712H114.755C114.726 60.1309 114.662 60.2655 114.563 60.375C114.464 60.4845 114.345 60.5674 114.205 60.6237C114.065 60.6784 113.919 60.7058 113.767 60.7058C113.546 60.7058 113.353 60.6579 113.185 60.5621C113.018 60.4662 112.887 60.3286 112.793 60.1492C112.699 59.9697 112.651 59.7545 112.651 59.5036C112.651 59.2557 112.694 59.0382 112.779 58.8511C112.864 58.6641 112.988 58.5181 113.149 58.4131C113.312 58.3082 113.507 58.2557 113.735 58.2557C113.957 58.2557 114.145 58.3036 114.299 58.3994C114.452 58.4952 114.568 58.6306 114.648 58.8055C114.728 58.9789 114.768 59.1849 114.768 59.4237V59.5788H113.078ZM113.08 59.2937H114.362C114.362 59.1583 114.34 59.0367 114.294 58.9287C114.248 58.8192 114.178 58.7333 114.084 58.6709C113.991 58.607 113.874 58.5751 113.733 58.5751C113.585 58.5751 113.463 58.6108 113.366 58.6823C113.27 58.7523 113.197 58.8428 113.149 58.9538C113.102 59.0633 113.079 59.1766 113.08 59.2937ZM115.969 60.7058C115.817 60.7058 115.682 60.6792 115.565 60.6259C115.448 60.5712 115.356 60.4929 115.289 60.391C115.224 60.2891 115.191 60.1659 115.191 60.0214C115.191 59.7598 115.282 59.5652 115.465 59.4374C115.647 59.3097 115.94 59.2412 116.343 59.2321L116.765 59.2207V59.0359C116.765 58.8914 116.722 58.7774 116.635 58.6937C116.548 58.6086 116.414 58.566 116.231 58.566C116.096 58.5675 115.977 58.5994 115.873 58.6618C115.771 58.7241 115.705 58.826 115.675 58.9675H115.303C115.312 58.8139 115.355 58.6846 115.433 58.5797C115.511 58.4732 115.619 58.3926 115.757 58.3378C115.897 58.2831 116.062 58.2557 116.252 58.2557C116.457 58.2557 116.628 58.2846 116.763 58.3424C116.9 58.4002 117.002 58.4854 117.069 58.5979C117.137 58.7104 117.171 58.8488 117.171 59.0131V60.6602H116.811L116.781 60.2176C116.69 60.4016 116.574 60.5294 116.432 60.6008C116.292 60.6708 116.138 60.7058 115.969 60.7058ZM116.097 60.4024C116.176 60.4024 116.254 60.3879 116.332 60.359C116.411 60.3301 116.483 60.2914 116.548 60.2427C116.614 60.1925 116.666 60.137 116.704 60.0762C116.743 60.0138 116.764 59.9499 116.765 59.8845V59.4807L116.414 59.4876C116.234 59.4906 116.084 59.5089 115.962 59.5423C115.842 59.5758 115.752 59.6283 115.691 59.6997C115.631 59.7712 115.602 59.8648 115.602 59.9803C115.602 60.1127 115.647 60.2161 115.739 60.2906C115.831 60.3651 115.951 60.4024 116.097 60.4024ZM119.963 60.6602H119.516L118.777 59.4762L118.312 59.9575V60.6602H117.892V57.2702H118.312V59.4807L119.42 58.3013H119.904L119.053 59.2002L119.963 60.6602ZM44.6623 67.6602V64.3615H46.7428L46.7405 64.7333H45.0866V65.8101H46.5763V66.1796H45.0843V67.2792L46.7861 67.2837V67.6602H44.6623ZM47.347 67.6602V65.3013H47.7553V65.6435C47.7933 65.5781 47.8458 65.5165 47.9127 65.4587C47.9811 65.401 48.0633 65.3546 48.1591 65.3196C48.2564 65.2846 48.3682 65.2671 48.4944 65.2671C48.6435 65.2671 48.7803 65.2968 48.905 65.3561C49.0313 65.4154 49.1317 65.5082 49.2062 65.6344C49.2822 65.7591 49.3202 65.9203 49.3202 66.118V67.6602H48.8982V66.1591C48.8982 65.9751 48.8495 65.839 48.7522 65.7507C48.6564 65.661 48.5317 65.6162 48.3781 65.6162C48.2716 65.6162 48.172 65.6336 48.0792 65.6686C47.9865 65.7021 47.9112 65.7538 47.8534 65.8237C47.7956 65.8922 47.7667 65.9789 47.7667 66.0838V67.6602H47.347ZM50.9748 68.4403C50.6037 68.4403 50.3148 68.3864 50.1079 68.2784C49.9026 68.1719 49.8 68.0191 49.8 67.8198C49.8 67.7347 49.8197 67.6624 49.8593 67.6031C49.8988 67.5423 49.946 67.4921 50.0007 67.4526C50.0555 67.413 50.1064 67.3818 50.1536 67.359C50.2007 67.3347 50.2311 67.3172 50.2448 67.3066C50.219 67.2914 50.1863 67.2723 50.1467 67.2495C50.1087 67.2267 50.0752 67.1963 50.0464 67.1583C50.0175 67.1203 50.003 67.0708 50.003 67.01C50.003 66.9355 50.038 66.867 50.1079 66.8047C50.1779 66.7423 50.2813 66.6959 50.4182 66.6655C50.2798 66.5956 50.1718 66.5028 50.0943 66.3872C50.0167 66.2716 49.9779 66.1462 49.9779 66.0108C49.9779 65.8587 50.019 65.7264 50.1011 65.6139C50.1847 65.5013 50.3034 65.4154 50.457 65.3561C50.6106 65.2953 50.7931 65.2648 51.0045 65.2648C51.1581 65.2648 51.2874 65.2831 51.3923 65.3196C51.4972 65.3546 51.5946 65.4048 51.6843 65.4702C51.7086 65.4595 51.7466 65.4435 51.7984 65.4222C51.8516 65.3994 51.9101 65.3751 51.974 65.3492C52.0379 65.3234 52.0972 65.2991 52.1519 65.2762C52.2082 65.2519 52.2531 65.2337 52.2865 65.2215L52.2843 65.6116L51.8714 65.6892C51.8942 65.7378 51.9124 65.7911 51.9261 65.8488C51.9413 65.9066 51.9489 65.9606 51.9489 66.0108C51.9489 66.1492 51.9124 66.2747 51.8394 66.3872C51.7679 66.4998 51.6592 66.5895 51.5132 66.6564C51.3672 66.7233 51.1847 66.7568 50.9657 66.7568C50.9474 66.7568 50.9239 66.7568 50.895 66.7568C50.8676 66.7553 50.844 66.7537 50.8243 66.7522C50.6631 66.7568 50.552 66.775 50.4912 66.807C50.4304 66.8374 50.3999 66.8716 50.3999 66.9096C50.3999 66.9537 50.4342 66.9841 50.5026 67.0009C50.571 67.0176 50.6874 67.0321 50.8516 67.0442C50.9109 67.0473 50.9839 67.0511 51.0706 67.0556C51.1588 67.0602 51.2562 67.0663 51.3626 67.0739C51.6105 67.0891 51.8014 67.1522 51.9352 67.2632C52.0691 67.3742 52.136 67.524 52.136 67.7126C52.136 67.9271 52.0402 68.102 51.8485 68.2373C51.6569 68.3727 51.3657 68.4403 50.9748 68.4403ZM51.0501 68.1689C51.2676 68.1689 51.4341 68.1362 51.5497 68.0708C51.6653 68.0054 51.7231 67.9065 51.7231 67.7742C51.7231 67.6799 51.6873 67.6031 51.6159 67.5438C51.5459 67.483 51.4387 67.448 51.2942 67.4389L50.6326 67.3955C50.5733 67.3925 50.5117 67.4077 50.4479 67.4412C50.384 67.4731 50.3292 67.518 50.2836 67.5757C50.2395 67.6335 50.2174 67.6989 50.2174 67.7719C50.2174 67.8966 50.2851 67.994 50.4205 68.0639C50.5574 68.1339 50.7672 68.1689 51.0501 68.1689ZM50.9771 66.4853C51.1474 66.4853 51.2843 66.4458 51.3877 66.3667C51.4927 66.2876 51.5451 66.1705 51.5451 66.0154C51.5451 65.8557 51.4927 65.734 51.3877 65.6504C51.2843 65.5667 51.1474 65.5249 50.9771 65.5249C50.8052 65.5249 50.6661 65.5675 50.5596 65.6527C50.4547 65.7363 50.4022 65.8572 50.4022 66.0154C50.4022 66.1644 50.4524 66.28 50.5528 66.3621C50.6532 66.4442 50.7946 66.4853 50.9771 66.4853ZM53.4093 67.6898C53.2816 67.6898 53.1782 67.6723 53.0991 67.6373C53.0215 67.6024 52.9615 67.5552 52.9189 67.4959C52.8778 67.4366 52.8497 67.3689 52.8345 67.2929C52.8208 67.2153 52.8139 67.1355 52.8139 67.0533V64.2702H53.2291V67.0123C53.2291 67.1309 53.2519 67.2199 53.2976 67.2792C53.3447 67.3385 53.4101 67.3712 53.4937 67.3773L53.6215 67.3796V67.6533C53.5865 67.664 53.55 67.6723 53.512 67.6784C53.474 67.686 53.4398 67.6898 53.4093 67.6898ZM54.6202 65.3013V67.6602H54.2119V65.3013H54.6202ZM54.6293 64.3637V64.8017H54.1982V64.3637H54.6293ZM56.1997 67.7058C56.0355 67.7058 55.8826 67.6807 55.7412 67.6305C55.6013 67.5788 55.4849 67.4989 55.3922 67.391C55.2994 67.2815 55.2409 67.1423 55.2165 66.9735H55.5998C55.6211 67.0663 55.6591 67.1438 55.7138 67.2062C55.7701 67.267 55.8401 67.3134 55.9237 67.3453C56.0074 67.3758 56.0986 67.391 56.1975 67.391C56.3556 67.391 56.4834 67.3613 56.5807 67.302C56.678 67.2427 56.7267 67.1514 56.7267 67.0282C56.7267 66.9416 56.7009 66.8724 56.6491 66.8207C56.599 66.7674 56.5206 66.7286 56.4142 66.7043L55.926 66.5834C55.7359 66.5378 55.5838 66.4663 55.4697 66.369C55.3557 66.2716 55.2986 66.1355 55.2986 65.9606C55.2971 65.8222 55.3298 65.7006 55.3967 65.5956C55.4637 65.4907 55.564 65.4078 55.6979 65.347C55.8317 65.2861 55.9982 65.2557 56.1975 65.2557C56.453 65.2557 56.659 65.3135 56.8157 65.4291C56.9738 65.5432 57.056 65.7112 57.0621 65.9332H56.6902C56.675 65.8207 56.6241 65.7317 56.5374 65.6663C56.4522 65.5994 56.3374 65.566 56.1929 65.566C56.0423 65.566 55.9199 65.5964 55.8256 65.6572C55.7313 65.7165 55.6842 65.8093 55.6842 65.9355C55.6842 66.0192 55.7176 66.0853 55.7846 66.134C55.8515 66.1811 55.9503 66.2207 56.0811 66.2526L56.5533 66.3713C56.6628 66.4001 56.7526 66.4382 56.8225 66.4853C56.894 66.5325 56.9503 66.5849 56.9913 66.6427C57.0339 66.7005 57.0636 66.7613 57.0803 66.8252C57.0986 66.8876 57.1077 66.9476 57.1077 67.0054C57.1077 67.1499 57.0712 67.2746 56.9982 67.3796C56.9267 67.483 56.8233 67.5636 56.6879 67.6214C56.5541 67.6776 56.3914 67.7058 56.1997 67.7058ZM57.6972 67.6602V64.2702H58.1079V65.6481C58.1474 65.5827 58.2006 65.5219 58.2675 65.4656C58.3345 65.4078 58.4158 65.3614 58.5116 65.3264C58.6075 65.2899 58.7185 65.2717 58.8447 65.2717C58.9983 65.2717 59.1375 65.3006 59.2622 65.3584C59.3869 65.4146 59.4857 65.4952 59.5587 65.6002C59.6317 65.7051 59.6682 65.8298 59.6682 65.9743V67.6602H59.2462V66.0587C59.2462 65.9173 59.1975 65.8085 59.1002 65.7325C59.0044 65.6549 58.8789 65.6162 58.7238 65.6162C58.6189 65.6162 58.52 65.6336 58.4272 65.6686C58.3345 65.7021 58.2592 65.7538 58.2014 65.8237C58.1451 65.8922 58.117 65.9796 58.117 66.0861V67.6602H57.6972ZM60.1755 68.2328L60.431 67.6693L60.2325 67.6579V67.1537H60.7595V67.5917L60.3716 68.2328H60.1755ZM62.5336 64.3615H64.589L64.5867 64.731H62.967V65.8215H64.4224V66.1865H62.967V67.6602H62.5336V64.3615ZM65.1559 67.6602V65.3013H65.5574V65.7553C65.5969 65.6428 65.6524 65.55 65.7239 65.477C65.7954 65.4025 65.8767 65.347 65.968 65.3105C66.0608 65.274 66.1566 65.2557 66.2554 65.2557C66.2904 65.2557 66.3246 65.258 66.3581 65.2626C66.3915 65.2671 66.4174 65.2747 66.4356 65.2854V65.6937C66.4128 65.6831 66.3832 65.6762 66.3467 65.6732C66.3117 65.6686 66.282 65.6663 66.2577 65.6663C66.1634 65.6603 66.0752 65.6663 65.9931 65.6846C65.9109 65.7013 65.8387 65.731 65.7764 65.7736C65.714 65.8161 65.6646 65.8724 65.6281 65.9424C65.5931 66.0108 65.5756 66.0945 65.5756 66.1933V67.6602H65.1559ZM67.1724 66.5788C67.1724 66.7279 67.1967 66.8632 67.2454 66.9849C67.2956 67.1051 67.3708 67.2009 67.4712 67.2723C67.5731 67.3438 67.7001 67.3796 67.8522 67.3796C68.0027 67.3796 68.132 67.3446 68.24 67.2746C68.3495 67.2047 68.4195 67.1035 68.4499 66.9712H68.8491C68.8202 67.1309 68.7563 67.2655 68.6575 67.375C68.5586 67.4845 68.4392 67.5674 68.2993 67.6237C68.1594 67.6784 68.0134 67.7058 67.8613 67.7058C67.6408 67.7058 67.4469 67.6579 67.2796 67.5621C67.1123 67.4662 66.9815 67.3286 66.8872 67.1492C66.7929 66.9697 66.7458 66.7545 66.7458 66.5036C66.7458 66.2557 66.7884 66.0382 66.8735 65.8511C66.9587 65.6641 67.0819 65.5181 67.2431 65.4131C67.4058 65.3082 67.6012 65.2557 67.8294 65.2557C68.0514 65.2557 68.2392 65.3036 68.3928 65.3994C68.5464 65.4952 68.6628 65.6306 68.7419 65.8055C68.8225 65.9789 68.8628 66.1849 68.8628 66.4237V66.5788H67.1724ZM67.1747 66.2937H68.4567C68.4567 66.1583 68.4339 66.0367 68.3883 65.9287C68.3427 65.8192 68.2727 65.7333 68.1784 65.6709C68.0856 65.607 67.9685 65.5751 67.8271 65.5751C67.6796 65.5751 67.5571 65.6108 67.4598 65.6823C67.364 65.7523 67.2918 65.8428 67.2431 65.9538C67.1959 66.0633 67.1731 66.1766 67.1747 66.2937ZM69.4421 67.6602V65.3013H69.8505V65.6435C69.8885 65.5781 69.9409 65.5165 70.0079 65.4587C70.0763 65.401 70.1584 65.3546 70.2542 65.3196C70.3516 65.2846 70.4633 65.2671 70.5896 65.2671C70.7386 65.2671 70.8755 65.2968 71.0002 65.3561C71.1264 65.4154 71.2268 65.5082 71.3013 65.6344C71.3774 65.7591 71.4154 65.9203 71.4154 66.118V67.6602H70.9934V66.1591C70.9934 65.9751 70.9447 65.839 70.8474 65.7507C70.7515 65.661 70.6268 65.6162 70.4732 65.6162C70.3668 65.6162 70.2672 65.6336 70.1744 65.6686C70.0816 65.7021 70.0063 65.7538 69.9485 65.8237C69.8908 65.8922 69.8619 65.9789 69.8619 66.0838V67.6602H69.4421ZM73.0152 65.2557C73.184 65.2557 73.3361 65.2884 73.4715 65.3538C73.6068 65.4177 73.7171 65.5089 73.8023 65.6276C73.8889 65.7462 73.9429 65.8861 73.9642 66.0473H73.5901C73.5764 65.9652 73.5445 65.8899 73.4943 65.8215C73.4456 65.753 73.381 65.6983 73.3004 65.6572C73.2198 65.6162 73.1255 65.5956 73.0175 65.5956C72.8152 65.5956 72.651 65.6686 72.5248 65.8146C72.3985 65.9606 72.3354 66.1842 72.3354 66.4853C72.3354 66.7575 72.3932 66.9758 72.5088 67.14C72.6259 67.3028 72.7977 67.3841 73.0243 67.3841C73.1323 67.3841 73.2259 67.3636 73.3049 67.3225C73.3855 67.2799 73.4502 67.2244 73.4988 67.156C73.5475 67.086 73.5787 67.0115 73.5924 66.9324H73.9597C73.9399 67.0906 73.8867 67.2275 73.8 67.3431C73.7133 67.4586 73.6023 67.5484 73.4669 67.6122C73.3331 67.6746 73.1825 67.7058 73.0152 67.7058C72.8038 67.7058 72.616 67.6594 72.4518 67.5666C72.289 67.4739 72.1613 67.337 72.0685 67.156C71.9757 66.975 71.9293 66.753 71.9293 66.4899C71.9293 66.2435 71.9712 66.0283 72.0548 65.8443C72.14 65.6587 72.2632 65.5143 72.4244 65.4108C72.5871 65.3074 72.7841 65.2557 73.0152 65.2557ZM74.5348 67.6602V64.2702H74.9454V65.6481C74.985 65.5827 75.0382 65.5219 75.1051 65.4656C75.1721 65.4078 75.2534 65.3614 75.3492 65.3264C75.445 65.2899 75.5561 65.2717 75.6823 65.2717C75.8359 65.2717 75.9751 65.3006 76.0998 65.3584C76.2245 65.4146 76.3233 65.4952 76.3963 65.6002C76.4693 65.7051 76.5058 65.8298 76.5058 65.9743V67.6602H76.0838V66.0587C76.0838 65.9173 76.0351 65.8085 75.9378 65.7325C75.842 65.6549 75.7165 65.6162 75.5614 65.6162C75.4564 65.6162 75.3576 65.6336 75.2648 65.6686C75.1721 65.7021 75.0968 65.7538 75.039 65.8237C74.9827 65.8922 74.9546 65.9796 74.9546 66.0861V67.6602H74.5348ZM77.013 68.2328L77.2685 67.6693L77.0701 67.6579V67.1537H77.597V67.5917L77.2092 68.2328H77.013ZM80.4912 67.7058C80.3361 67.7058 80.1855 67.6868 80.0395 67.6487C79.8935 67.6092 79.7612 67.5507 79.6426 67.4731C79.524 67.3955 79.4251 67.2997 79.346 67.1857C79.2685 67.0701 79.2198 66.9362 79.2 66.7842H79.6426C79.67 66.9089 79.724 67.0138 79.8046 67.099C79.8867 67.1841 79.9863 67.248 80.1034 67.2906C80.222 67.3332 80.3506 67.3545 80.489 67.3545C80.6441 67.3545 80.7825 67.3332 80.9041 67.2906C81.0273 67.2465 81.1239 67.1841 81.1939 67.1035C81.2653 67.0229 81.3011 66.9264 81.3011 66.8138C81.3011 66.715 81.2783 66.629 81.2326 66.556C81.1885 66.483 81.1239 66.4222 81.0387 66.3735C80.9536 66.3249 80.8502 66.2868 80.7285 66.2595L80.0806 66.1089C79.8373 66.0557 79.6464 65.9606 79.508 65.8237C79.3711 65.6869 79.3012 65.5059 79.2981 65.2808C79.2981 65.0907 79.3483 64.9234 79.4487 64.7789C79.5506 64.6345 79.6898 64.5219 79.8662 64.4413C80.0441 64.3607 80.2471 64.3204 80.4753 64.3204C80.7384 64.3204 80.9597 64.3653 81.1391 64.455C81.3186 64.5447 81.4539 64.6626 81.5452 64.8086C81.6364 64.9546 81.6828 65.1105 81.6843 65.2762H81.2486C81.2349 65.1272 81.1908 65.0093 81.1163 64.9227C81.0433 64.8344 80.9513 64.7721 80.8403 64.7356C80.7292 64.6976 80.6083 64.6786 80.4775 64.6786C80.3833 64.6786 80.292 64.6907 80.2038 64.7151C80.1171 64.7379 80.0388 64.7729 79.9688 64.82C79.9004 64.8671 79.8456 64.9257 79.8046 64.9957C79.7635 65.0656 79.743 65.147 79.743 65.2397C79.743 65.3584 79.7833 65.4549 79.8639 65.5295C79.946 65.604 80.0943 65.6679 80.3087 65.7211L80.9361 65.8717C81.1003 65.9066 81.2342 65.9583 81.3376 66.0268C81.4425 66.0952 81.5231 66.1728 81.5794 66.2595C81.6372 66.3462 81.6767 66.4366 81.698 66.5309C81.7208 66.6252 81.7322 66.718 81.7322 66.8092C81.7322 66.975 81.6828 67.1263 81.584 67.2632C81.4851 67.3986 81.3429 67.5066 81.1574 67.5872C80.9733 67.6662 80.7513 67.7058 80.4912 67.7058ZM82.3588 68.3947V65.3013H82.7785L82.7831 65.712C82.8105 65.6633 82.8455 65.6124 82.888 65.5591C82.9322 65.5059 82.9854 65.4565 83.0477 65.4108C83.1116 65.3652 83.1854 65.328 83.269 65.2991C83.3542 65.2702 83.4508 65.2557 83.5587 65.2557C83.7473 65.2557 83.9131 65.2991 84.056 65.3857C84.2005 65.4709 84.3131 65.6017 84.3937 65.7781C84.4743 65.9545 84.5146 66.1781 84.5146 66.4488C84.5146 66.7195 84.475 66.9484 84.396 67.1355C84.3184 67.321 84.2058 67.4624 84.0583 67.5598C83.9108 67.6571 83.7329 67.7058 83.5245 67.7058C83.4196 67.7058 83.326 67.6906 83.2439 67.6602C83.1633 67.6313 83.0926 67.5932 83.0318 67.5461C82.9725 67.4974 82.9223 67.4457 82.8812 67.391C82.8417 67.3362 82.809 67.2837 82.7831 67.2336V68.3947H82.3588ZM83.4447 67.3773C83.6393 67.3773 83.7983 67.3035 83.9215 67.156C84.0446 67.007 84.1062 66.7758 84.1062 66.4625C84.1062 66.1933 84.05 65.9796 83.9374 65.8215C83.8249 65.6633 83.6606 65.5842 83.4447 65.5842C83.2257 65.5842 83.0599 65.6656 82.9474 65.8283C82.8348 65.9895 82.7785 66.2009 82.7785 66.4625C82.7785 66.6313 82.8036 66.7849 82.8538 66.9233C82.904 67.0617 82.9785 67.172 83.0774 67.2541C83.1762 67.3362 83.2987 67.3773 83.4447 67.3773ZM85.689 67.7058C85.5369 67.7058 85.4024 67.6792 85.2852 67.6259C85.1681 67.5712 85.0761 67.4929 85.0092 67.391C84.9438 67.2891 84.9111 67.1659 84.9111 67.0214C84.9111 66.7598 85.0024 66.5652 85.1849 66.4374C85.3674 66.3097 85.6601 66.2412 86.0632 66.2321L86.4852 66.2207V66.0359C86.4852 65.8914 86.4418 65.7774 86.3552 65.6937C86.2685 65.6086 86.1339 65.566 85.9514 65.566C85.816 65.5675 85.6966 65.5994 85.5932 65.6618C85.4913 65.7241 85.4252 65.826 85.3947 65.9675H85.0229C85.032 65.8139 85.0754 65.6846 85.1529 65.5797C85.2305 65.4732 85.3385 65.3926 85.4769 65.3378C85.6168 65.2831 85.7818 65.2557 85.9719 65.2557C86.1772 65.2557 86.3476 65.2846 86.4829 65.3424C86.6198 65.4002 86.7217 65.4854 86.7886 65.5979C86.857 65.7104 86.8912 65.8488 86.8912 66.0131V67.6602H86.5308L86.5012 67.2176C86.4099 67.4016 86.2936 67.5294 86.1521 67.6008C86.0122 67.6708 85.8578 67.7058 85.689 67.7058ZM85.8168 67.4024C85.8959 67.4024 85.9742 67.3879 86.0517 67.359C86.1308 67.3301 86.2031 67.2914 86.2685 67.2427C86.3339 67.1925 86.3856 67.137 86.4236 67.0762C86.4631 67.0138 86.4837 66.9499 86.4852 66.8845V66.4807L86.1339 66.4876C85.9544 66.4906 85.8039 66.5089 85.6822 66.5423C85.562 66.5758 85.4716 66.6283 85.4107 66.6997C85.3514 66.7712 85.3217 66.8648 85.3217 66.9803C85.3217 67.1127 85.3674 67.2161 85.4586 67.2906C85.5514 67.3651 85.6708 67.4024 85.8168 67.4024ZM87.6119 67.6602V65.3013H88.0203V65.6435C88.0583 65.5781 88.1107 65.5165 88.1777 65.4587C88.2461 65.401 88.3282 65.3546 88.424 65.3196C88.5214 65.2846 88.6331 65.2671 88.7594 65.2671C88.9084 65.2671 89.0453 65.2968 89.17 65.3561C89.2962 65.4154 89.3966 65.5082 89.4711 65.6344C89.5472 65.7591 89.5852 65.9203 89.5852 66.118V67.6602H89.1632V66.1591C89.1632 65.9751 89.1145 65.839 89.0172 65.7507C88.9213 65.661 88.7966 65.6162 88.643 65.6162C88.5366 65.6162 88.437 65.6336 88.3442 65.6686C88.2514 65.7021 88.1761 65.7538 88.1183 65.8237C88.0606 65.8922 88.0317 65.9789 88.0317 66.0838V67.6602H87.6119ZM90.7014 65.3013V67.6602H90.2931V65.3013H90.7014ZM90.7105 64.3637V64.8017H90.2794V64.3637H90.7105ZM92.2809 67.7058C92.1167 67.7058 91.9638 67.6807 91.8224 67.6305C91.6825 67.5788 91.5661 67.4989 91.4734 67.391C91.3806 67.2815 91.322 67.1423 91.2977 66.9735H91.6809C91.7022 67.0663 91.7403 67.1438 91.795 67.2062C91.8513 67.267 91.9212 67.3134 92.0049 67.3453C92.0885 67.3758 92.1798 67.391 92.2786 67.391C92.4368 67.391 92.5646 67.3613 92.6619 67.302C92.7592 67.2427 92.8079 67.1514 92.8079 67.0282C92.8079 66.9416 92.782 66.8724 92.7303 66.8207C92.6801 66.7674 92.6018 66.7286 92.4954 66.7043L92.0072 66.5834C91.8171 66.5378 91.665 66.4663 91.5509 66.369C91.4369 66.2716 91.3798 66.1355 91.3798 65.9606C91.3783 65.8222 91.411 65.7006 91.4779 65.5956C91.5448 65.4907 91.6452 65.4078 91.779 65.347C91.9129 65.2861 92.0794 65.2557 92.2786 65.2557C92.5341 65.2557 92.7402 65.3135 92.8969 65.4291C93.055 65.5432 93.1371 65.7112 93.1432 65.9332H92.7714C92.7562 65.8207 92.7052 65.7317 92.6185 65.6663C92.5334 65.5994 92.4186 65.566 92.2741 65.566C92.1235 65.566 92.0011 65.5964 91.9068 65.6572C91.8125 65.7165 91.7654 65.8093 91.7654 65.9355C91.7654 66.0192 91.7988 66.0853 91.8657 66.134C91.9326 66.1811 92.0315 66.2207 92.1623 66.2526L92.6345 66.3713C92.744 66.4001 92.8337 66.4382 92.9037 66.4853C92.9752 66.5325 93.0314 66.5849 93.0725 66.6427C93.1151 66.7005 93.1447 66.7613 93.1615 66.8252C93.1797 66.8876 93.1889 66.9476 93.1889 67.0054C93.1889 67.1499 93.1524 67.2746 93.0794 67.3796C93.0079 67.483 92.9045 67.5636 92.7691 67.6214C92.6353 67.6776 92.4725 67.7058 92.2809 67.7058ZM93.7784 67.6602V64.2702H94.189V65.6481C94.2286 65.5827 94.2818 65.5219 94.3487 65.4656C94.4156 65.4078 94.497 65.3614 94.5928 65.3264C94.6886 65.2899 94.7997 65.2717 94.9259 65.2717C95.0795 65.2717 95.2186 65.3006 95.3434 65.3584C95.4681 65.4146 95.5669 65.4952 95.6399 65.6002C95.7129 65.7051 95.7494 65.8298 95.7494 65.9743V67.6602H95.3274V66.0587C95.3274 65.9173 95.2787 65.8085 95.1814 65.7325C95.0856 65.6549 94.9601 65.6162 94.805 65.6162C94.7 65.6162 94.6012 65.6336 94.5084 65.6686C94.4156 65.7021 94.3404 65.7538 94.2826 65.8237C94.2263 65.8922 94.1982 65.9796 94.1982 66.0861V67.6602H93.7784ZM96.2566 68.2328L96.5121 67.6693L96.3137 67.6579V67.1537H96.8406V67.5917L96.4528 68.2328H96.2566ZM99.1805 67.7058C99.0284 67.7058 98.8938 67.6792 98.7767 67.6259C98.6596 67.5712 98.5676 67.4929 98.5007 67.391C98.4353 67.2891 98.4026 67.1659 98.4026 67.0214C98.4026 66.7598 98.4938 66.5652 98.6763 66.4374C98.8588 66.3097 99.1516 66.2412 99.5546 66.2321L99.9766 66.2207V66.0359C99.9766 65.8914 99.9333 65.7774 99.8466 65.6937C99.7599 65.6086 99.6253 65.566 99.4428 65.566C99.3075 65.5675 99.1881 65.5994 99.0847 65.6618C98.9828 65.7241 98.9166 65.826 98.8862 65.9675H98.5144C98.5235 65.8139 98.5668 65.6846 98.6444 65.5797C98.722 65.4732 98.8299 65.3926 98.9683 65.3378C99.1082 65.2831 99.2733 65.2557 99.4634 65.2557C99.6687 65.2557 99.839 65.2846 99.9744 65.3424C100.111 65.4002 100.213 65.4854 100.28 65.5979C100.348 65.7104 100.383 65.8488 100.383 66.0131V67.6602H100.022L99.9926 67.2176C99.9014 67.4016 99.785 67.5294 99.6436 67.6008C99.5037 67.6708 99.3493 67.7058 99.1805 67.7058ZM99.3082 67.4024C99.3873 67.4024 99.4656 67.3879 99.5432 67.359C99.6223 67.3301 99.6945 67.2914 99.7599 67.2427C99.8253 67.1925 99.877 67.137 99.915 67.0762C99.9546 67.0138 99.9751 66.9499 99.9766 66.8845V66.4807L99.6253 66.4876C99.4459 66.4906 99.2953 66.5089 99.1736 66.5423C99.0535 66.5758 98.963 66.6283 98.9022 66.6997C98.8429 66.7712 98.8132 66.8648 98.8132 66.9803C98.8132 67.1127 98.8588 67.2161 98.9501 67.2906C99.0428 67.3651 99.1622 67.4024 99.3082 67.4024ZM101.103 67.6602V65.3013H101.512V65.6435C101.55 65.5781 101.602 65.5165 101.669 65.4587C101.738 65.401 101.82 65.3546 101.915 65.3196C102.013 65.2846 102.125 65.2671 102.251 65.2671C102.4 65.2671 102.537 65.2968 102.661 65.3561C102.788 65.4154 102.888 65.5082 102.963 65.6344C103.039 65.7591 103.077 65.9203 103.077 66.118V67.6602H102.655V66.1591C102.655 65.9751 102.606 65.839 102.509 65.7507C102.413 65.661 102.288 65.6162 102.134 65.6162C102.028 65.6162 101.928 65.6336 101.836 65.6686C101.743 65.7021 101.668 65.7538 101.61 65.8237C101.552 65.8922 101.523 65.9789 101.523 66.0838V67.6602H101.103ZM104.588 67.7058C104.282 67.7058 104.039 67.6008 103.86 67.391C103.68 67.1811 103.591 66.8746 103.591 66.4716C103.591 66.2268 103.626 66.0131 103.698 65.8306C103.771 65.6481 103.879 65.5067 104.022 65.4063C104.165 65.3059 104.343 65.2557 104.556 65.2557C104.668 65.2557 104.768 65.2702 104.854 65.2991C104.943 65.328 105.019 65.3645 105.083 65.4086C105.146 65.4527 105.198 65.4983 105.238 65.5454C105.279 65.5926 105.309 65.6359 105.329 65.6755V64.2702H105.753V67.6602H105.432L105.386 67.1765C105.371 67.2222 105.346 67.2754 105.313 67.3362C105.279 67.3955 105.232 67.4541 105.172 67.5119C105.111 67.5681 105.032 67.6145 104.937 67.651C104.842 67.6875 104.726 67.7058 104.588 67.7058ZM104.663 67.3818C104.902 67.3818 105.072 67.3096 105.174 67.1651C105.277 67.0191 105.329 66.7811 105.329 66.4511C105.327 66.2671 105.304 66.1104 105.258 65.9812C105.214 65.8519 105.144 65.7538 105.048 65.6869C104.954 65.6184 104.829 65.5842 104.672 65.5842C104.477 65.5842 104.319 65.6534 104.197 65.7918C104.076 65.9302 104.015 66.15 104.015 66.4511C104.015 66.7461 104.07 66.975 104.179 67.1377C104.29 67.3005 104.451 67.3818 104.663 67.3818ZM47.1603 71.3615L45.99 74.6602H45.4813L44.3315 71.3615H44.749L45.7368 74.1788L46.7451 71.3615H47.1603ZM48.0705 72.3013V74.6602H47.6622V72.3013H48.0705ZM48.0797 71.3637V71.8017H47.6485V71.3637H48.0797ZM49.114 73.5788C49.114 73.7279 49.1383 73.8632 49.187 73.9849C49.2371 74.1051 49.3124 74.2009 49.4128 74.2723C49.5147 74.3438 49.6417 74.3796 49.7938 74.3796C49.9443 74.3796 50.0736 74.3446 50.1816 74.2746C50.2911 74.2047 50.361 74.1035 50.3915 73.9712H50.7907C50.7618 74.1309 50.6979 74.2655 50.5991 74.375C50.5002 74.4845 50.3808 74.5674 50.2409 74.6237C50.101 74.6784 49.955 74.7058 49.8029 74.7058C49.5824 74.7058 49.3885 74.6579 49.2212 74.5621C49.0539 74.4662 48.9231 74.3286 48.8288 74.1492C48.7345 73.9697 48.6874 73.7545 48.6874 73.5036C48.6874 73.2557 48.73 73.0382 48.8151 72.8511C48.9003 72.6641 49.0235 72.5181 49.1847 72.4131C49.3474 72.3082 49.5428 72.2557 49.771 72.2557C49.993 72.2557 50.1808 72.3036 50.3344 72.3994C50.488 72.4952 50.6044 72.6306 50.6835 72.8055C50.7641 72.9789 50.8044 73.1849 50.8044 73.4237V73.5788H49.114ZM49.1162 73.2937H50.3983C50.3983 73.1583 50.3755 73.0367 50.3299 72.9287C50.2842 72.8192 50.2143 72.7333 50.12 72.6709C50.0272 72.607 49.9101 72.5751 49.7687 72.5751C49.6212 72.5751 49.4987 72.6108 49.4014 72.6823C49.3056 72.7523 49.2333 72.8428 49.1847 72.9538C49.1375 73.0633 49.1147 73.1766 49.1162 73.2937ZM52.5064 72.6093H51.9748V74.0762C51.9748 74.1598 51.9832 74.2214 51.9999 74.2609C52.0182 74.299 52.0478 74.3233 52.0889 74.3339C52.1315 74.3446 52.1893 74.3499 52.2623 74.3499H52.52V74.6328C52.4912 74.6434 52.447 74.6526 52.3877 74.6602C52.3299 74.6678 52.2577 74.6716 52.171 74.6716C52.0083 74.6716 51.8821 74.6495 51.7923 74.6054C51.7026 74.5613 51.6395 74.4959 51.603 74.4092C51.568 74.3225 51.5505 74.2161 51.5505 74.0898V72.6093H51.1673V72.3013H51.5619L51.6646 71.6147H51.9748V72.2991H52.5064V72.6093ZM53.1125 74.6602V72.3013H53.5208V72.6435C53.5588 72.5781 53.6113 72.5165 53.6782 72.4587C53.7466 72.401 53.8288 72.3546 53.9246 72.3196C54.0219 72.2846 54.1337 72.2671 54.2599 72.2671C54.409 72.2671 54.5458 72.2968 54.6706 72.3561C54.7968 72.4154 54.8972 72.5082 54.9717 72.6344C55.0477 72.7591 55.0857 72.9203 55.0857 73.118V74.6602H54.6637V73.1591C54.6637 72.9751 54.615 72.839 54.5177 72.7507C54.4219 72.661 54.2972 72.6162 54.1436 72.6162C54.0371 72.6162 53.9375 72.6336 53.8447 72.6686C53.752 72.7021 53.6767 72.7538 53.6189 72.8237C53.5611 72.8922 53.5322 72.9789 53.5322 73.0838V74.6602H53.1125ZM56.3892 74.7058C56.2371 74.7058 56.1025 74.6792 55.9854 74.6259C55.8683 74.5712 55.7763 74.4929 55.7094 74.391C55.644 74.2891 55.6113 74.1659 55.6113 74.0214C55.6113 73.7598 55.7026 73.5652 55.8851 73.4374C56.0676 73.3097 56.3603 73.2412 56.7634 73.2321L57.1854 73.2207V73.0359C57.1854 72.8914 57.142 72.7774 57.0554 72.6937C56.9687 72.6086 56.8341 72.566 56.6516 72.566C56.5162 72.5675 56.3968 72.5994 56.2934 72.6618C56.1915 72.7241 56.1254 72.826 56.0949 72.9675H55.7231C55.7322 72.8139 55.7756 72.6846 55.8531 72.5797C55.9307 72.4732 56.0387 72.3926 56.1771 72.3378C56.317 72.2831 56.482 72.2557 56.6721 72.2557C56.8774 72.2557 57.0477 72.2846 57.1831 72.3424C57.32 72.4002 57.4219 72.4854 57.4888 72.5979C57.5572 72.7104 57.5914 72.8488 57.5914 73.0131V74.6602H57.231L57.2014 74.2176C57.1101 74.4016 56.9938 74.5294 56.8523 74.6008C56.7124 74.6708 56.558 74.7058 56.3892 74.7058ZM56.517 74.4024C56.5961 74.4024 56.6744 74.3879 56.7519 74.359C56.831 74.3301 56.9033 74.2914 56.9687 74.2427C57.0341 74.1925 57.0858 74.137 57.1238 74.0762C57.1633 74.0138 57.1839 73.9499 57.1854 73.8845V73.4807L56.8341 73.4876C56.6546 73.4906 56.504 73.5089 56.3824 73.5423C56.2622 73.5758 56.1717 73.6283 56.1109 73.6997C56.0516 73.7712 56.0219 73.8648 56.0219 73.9803C56.0219 74.1127 56.0676 74.2161 56.1588 74.2906C56.2516 74.3651 56.371 74.4024 56.517 74.4024ZM58.3121 74.6602V72.3013H58.7182V72.6435C58.7836 72.5401 58.8733 72.4496 58.9874 72.3721C59.1014 72.2945 59.2497 72.2557 59.4322 72.2557C59.5174 72.2557 59.6041 72.2702 59.6923 72.2991C59.782 72.328 59.8641 72.3713 59.9386 72.4291C60.0132 72.4869 60.0709 72.5576 60.112 72.6412C60.185 72.5257 60.2839 72.4329 60.4086 72.3629C60.5333 72.2915 60.674 72.2557 60.8306 72.2557C60.9127 72.2557 60.9987 72.2686 61.0884 72.2945C61.1781 72.3188 61.261 72.3629 61.337 72.4268C61.4146 72.4892 61.4777 72.5766 61.5264 72.6892C61.5751 72.8002 61.5994 72.9431 61.5994 73.118V74.6602H61.1751V73.1591C61.1751 73.0161 61.1523 72.9059 61.1066 72.8283C61.061 72.7492 61.0009 72.6937 60.9264 72.6618C60.8534 72.6298 60.7751 72.6139 60.6914 72.6139C60.6184 72.6139 60.5409 72.6283 60.4588 72.6572C60.3766 72.6861 60.3067 72.7348 60.2489 72.8032C60.1911 72.8717 60.1622 72.9652 60.1622 73.0838V74.6602H59.7424V73.0359C59.7424 72.9431 59.7174 72.8656 59.6672 72.8032C59.6185 72.7409 59.5569 72.6937 59.4824 72.6618C59.4094 72.6298 59.3364 72.6139 59.2634 72.6139C59.1828 72.6139 59.1014 72.6298 59.0193 72.6618C58.9387 72.6937 58.8703 72.7447 58.814 72.8146C58.7592 72.8831 58.7319 72.9728 58.7319 73.0838V74.6602H58.3121ZM62.5609 73.5788C62.5609 73.7279 62.5852 73.8632 62.6339 73.9849C62.684 74.1051 62.7593 74.2009 62.8597 74.2723C62.9616 74.3438 63.0886 74.3796 63.2407 74.3796C63.3912 74.3796 63.5205 74.3446 63.6285 74.2746C63.738 74.2047 63.8079 74.1035 63.8384 73.9712H64.2376C64.2087 74.1309 64.1448 74.2655 64.046 74.375C63.9471 74.4845 63.8277 74.5674 63.6878 74.6237C63.5479 74.6784 63.4019 74.7058 63.2498 74.7058C63.0293 74.7058 62.8354 74.6579 62.6681 74.5621C62.5008 74.4662 62.37 74.3286 62.2757 74.1492C62.1814 73.9697 62.1343 73.7545 62.1343 73.5036C62.1343 73.2557 62.1769 73.0382 62.262 72.8511C62.3472 72.6641 62.4704 72.5181 62.6316 72.4131C62.7943 72.3082 62.9897 72.2557 63.2179 72.2557C63.4399 72.2557 63.6277 72.3036 63.7813 72.3994C63.9349 72.4952 64.0513 72.6306 64.1304 72.8055C64.211 72.9789 64.2513 73.1849 64.2513 73.4237V73.5788H62.5609ZM62.5631 73.2937H63.8452C63.8452 73.1583 63.8224 73.0367 63.7768 72.9287C63.7311 72.8192 63.6612 72.7333 63.5669 72.6709C63.4741 72.607 63.357 72.5751 63.2156 72.5751C63.0681 72.5751 62.9456 72.6108 62.8483 72.6823C62.7525 72.7523 62.6802 72.8428 62.6316 72.9538C62.5844 73.0633 62.5616 73.1766 62.5631 73.2937ZM65.65 74.7058C65.4857 74.7058 65.3329 74.6807 65.1915 74.6305C65.0515 74.5788 64.9352 74.4989 64.8424 74.391C64.7497 74.2815 64.6911 74.1423 64.6668 73.9735H65.05C65.0713 74.0663 65.1093 74.1438 65.1641 74.2062C65.2204 74.267 65.2903 74.3134 65.374 74.3453C65.4576 74.3758 65.5489 74.391 65.6477 74.391C65.8059 74.391 65.9336 74.3613 66.031 74.302C66.1283 74.2427 66.177 74.1514 66.177 74.0282C66.177 73.9416 66.1511 73.8724 66.0994 73.8207C66.0492 73.7674 65.9709 73.7286 65.8644 73.7043L65.3762 73.5834C65.1861 73.5378 65.0341 73.4663 64.92 73.369C64.8059 73.2716 64.7489 73.1355 64.7489 72.9606C64.7474 72.8222 64.7801 72.7006 64.847 72.5956C64.9139 72.4907 65.0143 72.4078 65.1481 72.347C65.282 72.2861 65.4485 72.2557 65.6477 72.2557C65.9032 72.2557 66.1093 72.3135 66.2659 72.4291C66.4241 72.5432 66.5062 72.7112 66.5123 72.9332H66.1405C66.1253 72.8207 66.0743 72.7317 65.9876 72.6663C65.9025 72.5994 65.7876 72.566 65.6432 72.566C65.4926 72.566 65.3702 72.5964 65.2759 72.6572C65.1816 72.7165 65.1344 72.8093 65.1344 72.9355C65.1344 73.0192 65.1679 73.0853 65.2348 73.134C65.3017 73.1811 65.4006 73.2207 65.5314 73.2526L66.0036 73.3713C66.1131 73.4001 66.2028 73.4382 66.2728 73.4853C66.3443 73.5325 66.4005 73.5849 66.4416 73.6427C66.4842 73.7005 66.5138 73.7613 66.5306 73.8252C66.5488 73.8876 66.5579 73.9476 66.5579 74.0054C66.5579 74.1499 66.5214 74.2746 66.4484 74.3796C66.377 74.483 66.2735 74.5636 66.1382 74.6214C66.0043 74.6776 65.8416 74.7058 65.65 74.7058ZM67.4486 73.5788C67.4486 73.7279 67.473 73.8632 67.5216 73.9849C67.5718 74.1051 67.6471 74.2009 67.7475 74.2723C67.8494 74.3438 67.9763 74.3796 68.1284 74.3796C68.279 74.3796 68.4083 74.3446 68.5162 74.2746C68.6257 74.2047 68.6957 74.1035 68.7261 73.9712H69.1253C69.0964 74.1309 69.0326 74.2655 68.9337 74.375C68.8349 74.4845 68.7155 74.5674 68.5756 74.6237C68.4356 74.6784 68.2896 74.7058 68.1376 74.7058C67.917 74.7058 67.7231 74.6579 67.5558 74.5621C67.3885 74.4662 67.2578 74.3286 67.1635 74.1492C67.0692 73.9697 67.022 73.7545 67.022 73.5036C67.022 73.2557 67.0646 73.0382 67.1498 72.8511C67.2349 72.6641 67.3581 72.5181 67.5193 72.4131C67.6821 72.3082 67.8775 72.2557 68.1056 72.2557C68.3277 72.2557 68.5155 72.3036 68.6691 72.3994C68.8227 72.4952 68.939 72.6306 69.0181 72.8055C69.0987 72.9789 69.139 73.1849 69.139 73.4237V73.5788H67.4486ZM67.4509 73.2937H68.733C68.733 73.1583 68.7101 73.0367 68.6645 72.9287C68.6189 72.8192 68.5489 72.7333 68.4546 72.6709C68.3619 72.607 68.2448 72.5751 68.1033 72.5751C67.9558 72.5751 67.8334 72.6108 67.7361 72.6823C67.6402 72.7523 67.568 72.8428 67.5193 72.9538C67.4722 73.0633 67.4494 73.1766 67.4509 73.2937ZM69.6203 74.6602V74.1218H70.1221V74.6602H69.6203Z" fill="#00284D"/>
<path d="M44.3954 44.3753H45.7368V49.8457H48.602V50.9727H44.3954V44.3753ZM50.5346 48.9195C50.5315 49.1598 50.5696 49.3697 50.6486 49.5492C50.7277 49.7256 50.8418 49.8624 50.9908 49.9598C51.1429 50.0541 51.3254 50.1012 51.5383 50.1012C51.7665 50.1012 51.9657 50.0526 52.136 49.9552C52.3094 49.8579 52.4295 49.6982 52.4965 49.4762H53.6964C53.6447 49.8107 53.5108 50.0967 53.2949 50.3339C53.082 50.5712 52.8234 50.7521 52.5193 50.8768C52.2151 51.0016 51.8988 51.0639 51.5703 51.0639C51.1049 51.0639 50.6943 50.9666 50.3384 50.7719C49.9856 50.5742 49.7103 50.2959 49.5126 49.937C49.3149 49.5781 49.216 49.1553 49.216 48.6686C49.216 48.1971 49.3057 47.7728 49.4852 47.3957C49.6647 47.0154 49.9247 46.7158 50.2654 46.4968C50.6091 46.2748 51.0212 46.1638 51.5018 46.1638C51.9824 46.1638 52.3854 46.2657 52.7109 46.4695C53.0394 46.6702 53.2858 46.9516 53.45 47.3135C53.6173 47.6724 53.701 48.0876 53.701 48.5591V48.9195H50.5346ZM50.53 48.1257H52.4554C52.4554 47.9371 52.4204 47.7637 52.3505 47.6055C52.2805 47.4474 52.174 47.3227 52.0311 47.2314C51.8912 47.1402 51.7147 47.0945 51.5018 47.0945C51.295 47.0945 51.1186 47.1447 50.9726 47.2451C50.8296 47.3424 50.7201 47.4702 50.6441 47.6283C50.568 47.7865 50.53 47.9523 50.53 48.1257ZM57.3577 47.1812H56.3083L56.3174 49.6952C56.3174 49.8107 56.3311 49.8974 56.3585 49.9552C56.3889 50.01 56.4345 50.0465 56.4953 50.0647C56.5592 50.0799 56.6398 50.0875 56.7372 50.0875H57.3713V50.9088C57.3105 50.9362 57.2147 50.962 57.0839 50.9863C56.9562 51.0107 56.7767 51.0228 56.5455 51.0228C56.1319 51.0228 55.811 50.9696 55.5828 50.8632C55.3578 50.7567 55.2011 50.6077 55.1129 50.416C55.0247 50.2244 54.9806 50.0024 54.9806 49.7499V47.1812H54.2141V46.255H55.0262L55.3593 44.8315H56.3083V46.2505H57.3577V47.1812ZM58.2277 46.9394L58.757 45.6984L58.2916 45.6528V44.3753H59.6375V45.5022L58.7205 46.9394H58.2277ZM62.0079 51.0639C61.6794 51.0639 61.3631 51.0107 61.0589 50.9042C60.7547 50.7947 60.4977 50.6244 60.2878 50.3932C60.078 50.159 59.9441 49.8564 59.8863 49.4853H61.0407C61.0802 49.6526 61.1517 49.7849 61.2551 49.8822C61.3616 49.9796 61.4817 50.0495 61.6155 50.0921C61.7494 50.1316 61.8771 50.1514 61.9988 50.1514C62.2543 50.1514 62.4596 50.1119 62.6147 50.0328C62.7729 49.9507 62.852 49.8259 62.852 49.6587C62.852 49.5309 62.8048 49.429 62.7105 49.353C62.6193 49.2769 62.4672 49.2191 62.2543 49.1796L61.4239 49.0062C61.0072 48.918 60.6726 48.769 60.4202 48.5591C60.1677 48.3462 60.0384 48.0451 60.0323 47.6557C60.0323 47.3728 60.1069 47.1189 60.2559 46.8938C60.408 46.6687 60.6316 46.4908 60.9266 46.36C61.2216 46.2292 61.5836 46.1638 62.0125 46.1638C62.5934 46.1638 63.0573 46.2915 63.404 46.547C63.7538 46.8025 63.9318 47.163 63.9378 47.6283H62.8246C62.7911 47.4458 62.6999 47.3059 62.5508 47.2086C62.4048 47.1082 62.2208 47.058 61.9988 47.058C61.7676 47.058 61.5775 47.0991 61.4285 47.1812C61.2794 47.2633 61.2049 47.3881 61.2049 47.5553C61.2049 47.6801 61.2657 47.7789 61.3874 47.8519C61.5091 47.9219 61.6977 47.9827 61.9532 48.0344L62.7197 48.2078C62.9843 48.2717 63.1987 48.3599 63.363 48.4724C63.5303 48.5819 63.6595 48.7021 63.7508 48.8328C63.842 48.9636 63.9044 49.0959 63.9378 49.2298C63.9743 49.3606 63.9926 49.4792 63.9926 49.5857C63.9926 49.8989 63.909 50.1666 63.7417 50.3887C63.5744 50.6077 63.3417 50.7749 63.0436 50.8905C62.7455 51.0061 62.4003 51.0639 62.0079 51.0639ZM69.6461 47.1812H68.5967L68.6059 49.6952C68.6059 49.8107 68.6195 49.8974 68.6469 49.9552C68.6773 50.01 68.723 50.0465 68.7838 50.0647C68.8477 50.0799 68.9283 50.0875 69.0256 50.0875H69.6598V50.9088C69.599 50.9362 69.5031 50.962 69.3724 50.9863C69.2446 51.0107 69.0651 51.0228 68.834 51.0228C68.4203 51.0228 68.0994 50.9696 67.8713 50.8632C67.6462 50.7567 67.4896 50.6077 67.4014 50.416C67.3131 50.2244 67.269 50.0024 67.269 49.7499V47.1812H66.5025V46.255H67.3147L67.6477 44.8315H68.5967V46.2505H69.6461V47.1812ZM71.9812 51.0639C71.6801 51.0639 71.4093 51.0076 71.1691 50.8951C70.9288 50.7826 70.7387 50.6198 70.5987 50.4069C70.4588 50.1909 70.3889 49.9294 70.3889 49.6222C70.3889 49.1051 70.582 48.7127 70.9683 48.445C71.3546 48.1743 71.9644 48.0344 72.7979 48.0253L73.3864 48.0162V47.7333C73.3864 47.5173 73.3226 47.3516 73.1948 47.236C73.0701 47.1173 72.8754 47.0596 72.6108 47.0626C72.4161 47.0656 72.2306 47.1113 72.0542 47.1995C71.8808 47.2877 71.7622 47.4413 71.6983 47.6603H70.5896C70.6079 47.3196 70.7067 47.0398 70.8862 46.8208C71.0656 46.5987 71.309 46.4345 71.6162 46.328C71.9264 46.2185 72.2777 46.1638 72.6701 46.1638C73.1537 46.1638 73.5416 46.2246 73.8336 46.3463C74.1256 46.4649 74.3369 46.6368 74.4677 46.8618C74.5985 47.0839 74.6639 47.3485 74.6639 47.6557V50.9727H73.5507L73.4412 50.1605C73.28 50.5012 73.0777 50.7369 72.8344 50.8677C72.5941 50.9985 72.3097 51.0639 71.9812 51.0639ZM72.4283 50.1879C72.55 50.1879 72.6671 50.1666 72.7796 50.124C72.8952 50.0784 72.9971 50.0191 73.0853 49.9461C73.1766 49.8701 73.2496 49.7849 73.3043 49.6906C73.3591 49.5963 73.3864 49.499 73.3864 49.3986V48.7005L72.9074 48.7097C72.6853 48.7127 72.4785 48.7401 72.2869 48.7918C72.0952 48.8404 71.9401 48.9211 71.8215 49.0336C71.7059 49.1461 71.6481 49.2982 71.6481 49.4898C71.6481 49.7088 71.7242 49.8807 71.8762 50.0054C72.0283 50.1271 72.2123 50.1879 72.4283 50.1879ZM77.3489 51.0548C77.0021 51.0548 76.7269 51.0137 76.5231 50.9316C76.3193 50.8495 76.1687 50.7415 76.0714 50.6077C75.9741 50.4708 75.9117 50.3202 75.8843 50.156C75.8569 49.9887 75.8433 49.8199 75.8433 49.6495V44.1928H77.1481V49.4853C77.1481 49.6587 77.1846 49.8001 77.2576 49.9096C77.3337 50.0161 77.4751 50.0814 77.6819 50.1058L77.9055 50.1195V50.9407C77.8143 50.9711 77.7215 50.997 77.6272 51.0183C77.5329 51.0426 77.4401 51.0548 77.3489 51.0548ZM83.333 50.9727H82.0053L80.7323 48.9378L80.1073 49.6039V50.9727H78.775V44.1928H80.1073V48.2123L81.841 46.255H83.2736L81.5581 48.1348L83.333 50.9727ZM83.9585 50.9727V49.5218H85.4185V50.9727H83.9585Z" fill="#00284D"/>
<g style="mix-blend-mode:color">
<rect width="320" height="120" fill="#808080"/>
</g>
<g style="mix-blend-mode:color">
<rect width="320" height="120" fill="#00284D"/>
</g>
</svg>
