<svg width="320" height="120" viewBox="0 0 320 120" fill="none" xmlns="http://www.w3.org/2000/svg">
<rect width="320" height="120" fill="#C0CEDB"/>
<path d="M22 34C22 29.5817 25.5817 26 30 26H290C294.418 26 298 29.5817 298 34V86C298 90.4183 294.418 94 290 94H30C25.5817 94 22 90.4183 22 86V34Z" fill="white"/>
<path d="M140 45C140 42.7909 141.791 41 144 41H174C176.209 41 178 42.7909 178 45V75C178 77.2091 176.209 79 174 79H144C141.791 79 140 77.2091 140 75V45Z" fill="#00284D"/>
<path d="M165 58.5H160.5V54C160.5 53.4688 160.031 53 159.5 53H158.5C157.938 53 157.5 53.4688 157.5 54V58.5H153C152.438 58.5 152 58.9688 152 59.5V60.5C152 61.0625 152.438 61.5 153 61.5H157.5V66C157.5 66.5625 157.938 67 158.5 67H159.5C160.031 67 160.5 66.5625 160.5 66V61.5H165C165.531 61.5 166 61.0625 166 60.5V59.5C166 58.9688 165.531 58.5 165 58.5Z" fill="white"/>
<path d="M30 93.5C28.9821 93.5 28.0128 93.2975 27.1292 92.9311L26.7462 93.8548C27.7491 94.2707 28.8484 94.5 30 94.5V93.5ZM23.0689 88.8708C22.7025 87.9872 22.5 87.0179 22.5 86H21.5C21.5 87.1516 21.7293 88.2509 22.1452 89.2538L23.0689 88.8708ZM22.5 86V81.6667H21.5V86H22.5ZM22.5 73V64.3333H21.5V73H22.5ZM22.5 55.6667V47H21.5V55.6667H22.5ZM22.5 38.3333V34H21.5V38.3333H22.5ZM22.5 34C22.5 32.9821 22.7025 32.0128 23.0689 31.1292L22.1452 30.7462C21.7293 31.7491 21.5 32.8484 21.5 34H22.5ZM27.1292 27.0689C28.0128 26.7025 28.9821 26.5 30 26.5V25.5C28.8484 25.5 27.7491 25.7293 26.7462 26.1452L27.1292 27.0689ZM30 26.5H34.0625V25.5H30V26.5ZM42.1875 26.5H50.3125V25.5H42.1875V26.5ZM58.4375 26.5H66.5625V25.5H58.4375V26.5ZM74.6875 26.5H82.8125V25.5H74.6875V26.5ZM90.9375 26.5H99.0625V25.5H90.9375V26.5ZM107.188 26.5H115.313V25.5H107.188V26.5ZM123.438 26.5H131.563V25.5H123.438V26.5ZM139.688 26.5H147.813V25.5H139.688V26.5ZM155.938 26.5H164.063V25.5H155.938V26.5ZM172.188 26.5H180.313V25.5H172.188V26.5ZM188.438 26.5H196.563V25.5H188.438V26.5ZM204.688 26.5H212.813V25.5H204.688V26.5ZM220.938 26.5H229.063V25.5H220.938V26.5ZM237.188 26.5H245.313V25.5H237.188V26.5ZM253.438 26.5H261.563V25.5H253.438V26.5ZM269.688 26.5H277.813V25.5H269.688V26.5ZM285.938 26.5H290V25.5H285.938V26.5ZM290 26.5C291.018 26.5 291.987 26.7025 292.871 27.0689L293.254 26.1452C292.251 25.7293 291.152 25.5 290 25.5V26.5ZM296.931 31.1292C297.298 32.0128 297.5 32.9821 297.5 34H298.5C298.5 32.8484 298.271 31.7491 297.855 30.7462L296.931 31.1292ZM297.5 34V38.3333H298.5V34H297.5ZM297.5 47V55.6667H298.5V47H297.5ZM297.5 64.3333V73H298.5V64.3333H297.5ZM297.5 81.6667V86H298.5V81.6667H297.5ZM297.5 86C297.5 87.0179 297.298 87.9872 296.931 88.8708L297.855 89.2538C298.271 88.2509 298.5 87.1516 298.5 86H297.5ZM292.871 92.9311C291.987 93.2975 291.018 93.5 290 93.5V94.5C291.152 94.5 292.251 94.2707 293.254 93.8548L292.871 92.9311ZM290 93.5H285.937V94.5H290V93.5ZM277.812 93.5H269.687V94.5H277.812V93.5ZM261.562 93.5H253.437V94.5H261.562V93.5ZM245.312 93.5H237.187V94.5H245.312V93.5ZM229.062 93.5H220.937V94.5H229.062V93.5ZM212.812 93.5H204.687V94.5H212.812V93.5ZM196.562 93.5H188.437V94.5H196.562V93.5ZM180.312 93.5H172.187V94.5H180.312V93.5ZM164.062 93.5H155.937V94.5H164.062V93.5ZM147.812 93.5H139.687V94.5H147.812V93.5ZM131.562 93.5H123.437V94.5H131.562V93.5ZM115.312 93.5H107.187V94.5H115.312V93.5ZM99.0625 93.5H90.9375V94.5H99.0625V93.5ZM82.8125 93.5H74.6875V94.5H82.8125V93.5ZM66.5625 93.5H58.4375V94.5H66.5625V93.5ZM50.3125 93.5H42.1875V94.5H50.3125V93.5ZM34.0625 93.5H30V94.5H34.0625V93.5ZM30 93C29.049 93 28.1447 92.8109 27.3207 92.4692L26.5546 94.3167C27.6172 94.7573 28.7815 95 30 95V93ZM23.5308 88.6792C23.1891 87.8553 23 86.951 23 86H21C21 87.2185 21.2427 88.3828 21.6833 89.4454L23.5308 88.6792ZM23 86V81.6667H21V86H23ZM23 73V64.3333H21V73H23ZM23 55.6667V47H21V55.6667H23ZM23 38.3333V34H21V38.3333H23ZM23 34C23 33.049 23.1891 32.1447 23.5308 31.3208L21.6833 30.5546C21.2427 31.6172 21 32.7815 21 34H23ZM27.3208 27.5308C28.1447 27.1891 29.049 27 30 27V25C28.7815 25 27.6172 25.2427 26.5546 25.6833L27.3208 27.5308ZM30 27H34.0625V25H30V27ZM42.1875 27H50.3125V25H42.1875V27ZM58.4375 27H66.5625V25H58.4375V27ZM74.6875 27H82.8125V25H74.6875V27ZM90.9375 27H99.0625V25H90.9375V27ZM107.188 27H115.313V25H107.188V27ZM123.438 27H131.563V25H123.438V27ZM139.688 27H147.813V25H139.688V27ZM155.938 27H164.063V25H155.938V27ZM172.188 27H180.313V25H172.188V27ZM188.438 27H196.563V25H188.438V27ZM204.688 27H212.813V25H204.688V27ZM220.938 27H229.063V25H220.938V27ZM237.188 27H245.313V25H237.188V27ZM253.438 27H261.563V25H253.438V27ZM269.688 27H277.813V25H269.688V27ZM285.938 27H290V25H285.938V27ZM290 27C290.951 27 291.855 27.1891 292.679 27.5308L293.445 25.6833C292.383 25.2427 291.218 25 290 25V27ZM296.469 31.3208C296.811 32.1447 297 33.049 297 34H299C299 32.7815 298.757 31.6172 298.317 30.5546L296.469 31.3208ZM297 34V38.3333H299V34H297ZM297 47V55.6667H299V47H297ZM297 64.3333V73H299V64.3333H297ZM297 81.6667V86H299V81.6667H297ZM297 86C297 86.951 296.811 87.8553 296.469 88.6792L298.317 89.4454C298.757 88.3828 299 87.2185 299 86H297ZM292.679 92.4692C291.855 92.8109 290.951 93 290 93V95C291.218 95 292.383 94.7573 293.445 94.3167L292.679 92.4692ZM290 93H285.937V95H290V93ZM277.812 93H269.687V95H277.812V93ZM261.562 93H253.437V95H261.562V93ZM245.312 93H237.187V95H245.312V93ZM229.062 93H220.937V95H229.062V93ZM212.812 93H204.687V95H212.812V93ZM196.562 93H188.437V95H196.562V93ZM180.312 93H172.187V95H180.312V93ZM164.062 93H155.937V95H164.062V93ZM147.812 93H139.687V95H147.812V93ZM131.562 93H123.437V95H131.562V93ZM115.312 93H107.187V95H115.312V93ZM99.0625 93H90.9375V95H99.0625V93ZM82.8125 93H74.6875V95H82.8125V93ZM66.5625 93H58.4375V95H66.5625V93ZM50.3125 93H42.1875V95H50.3125V93ZM34.0625 93H30V95H34.0625V93Z" fill="#00284D"/>
<g style="mix-blend-mode:color">
<rect width="320" height="120" fill="#808080"/>
</g>
<g style="mix-blend-mode:color">
<rect width="320" height="120" fill="#00284D"/>
</g>
</svg>
