<svg width="320" height="120" viewBox="0 0 320 120" fill="none" xmlns="http://www.w3.org/2000/svg">
<rect width="320" height="120" fill="#C0CEDB"/>
<path d="M22 46.7216C22 45.7708 22.7708 45.0001 23.7215 45.0001H296.278C297.229 45.0001 298 45.7708 298 46.7216V74.2785C298 75.2293 297.229 76.0001 296.278 76.0001H23.7215C22.7708 76.0001 22 75.2293 22 74.2785V46.7216Z" fill="white"/>
<g filter="url(#filter0_d_454_194)">
<path d="M25.443 55.7659C25.443 53.8643 26.9845 52.3228 28.886 52.3228H64.7721C66.6736 52.3228 68.2151 53.8643 68.2151 55.7659V65.2342C68.2151 67.1358 66.6736 68.6773 64.7721 68.6773H28.886C26.9845 68.6773 25.443 67.1358 25.443 65.2342V55.7659Z" fill="#00284D"/>
<path d="M34.1075 57.0823C32.265 57.0823 30.7721 58.5752 30.7721 60.4178C30.7721 62.2603 32.265 63.7532 34.1075 63.7532C35.9501 63.7532 37.443 62.2603 37.443 60.4178C37.443 58.5752 35.9501 57.0823 34.1075 57.0823ZM35.1835 59.3418C35.4121 59.3418 35.6139 59.5436 35.6139 59.7722C35.6139 60.0143 35.4121 60.2026 35.1835 60.2026C34.9414 60.2026 34.7531 60.0143 34.7531 59.7722C34.7531 59.5436 34.9414 59.3418 35.1835 59.3418ZM33.0316 59.3418C33.2602 59.3418 33.462 59.5436 33.462 59.7722C33.462 60.0143 33.2602 60.2026 33.0316 60.2026C32.7895 60.2026 32.6012 60.0143 32.6012 59.7722C32.6012 59.5436 32.7895 59.3418 33.0316 59.3418ZM35.6408 61.6417C35.2642 62.099 34.6993 62.3545 34.1075 62.3545C33.5023 62.3545 32.9374 62.099 32.5609 61.6417C32.3726 61.413 32.7088 61.144 32.8837 61.3592C33.193 61.7224 33.6368 61.9241 34.1075 61.9241C34.5783 61.9241 35.0087 61.7224 35.318 61.3592C35.4928 61.144 35.8291 61.413 35.6408 61.6417Z" fill="white"/>
<path d="M41.8276 63.0001V58.0214H43.4286C44.0346 58.0214 44.4925 58.1328 44.8024 58.3554C45.1146 58.5781 45.2707 58.8994 45.2707 59.3195C45.2707 59.5834 45.2018 59.8095 45.0641 59.9977C44.9264 60.186 44.6876 60.3409 44.3479 60.4625C44.7404 60.5475 45.0124 60.699 45.1639 60.917C45.3177 61.1328 45.3946 61.3807 45.3946 61.6607C45.3946 62.5536 44.7565 63.0001 43.4803 63.0001H41.8276ZM42.4646 60.2112H43.5491C43.7213 60.2112 43.8923 60.1871 44.0622 60.1389C44.232 60.0907 44.3732 60.0081 44.4856 59.891C44.5981 59.7739 44.6544 59.6098 44.6544 59.3986C44.6544 59.1094 44.543 58.896 44.3204 58.7582C44.1 58.6182 43.8131 58.5482 43.4596 58.5482H42.4646V60.2112ZM42.4646 62.4698H43.4734C43.8889 62.4698 44.2045 62.4021 44.4202 62.2667C44.6383 62.129 44.7473 61.9178 44.7473 61.6332C44.7473 61.4243 44.6934 61.2556 44.5855 61.127C44.4799 60.9962 44.3364 60.901 44.1551 60.8413C43.9738 60.7816 43.7718 60.7518 43.5491 60.7518H42.4646V62.4698ZM47.625 63.0689C47.3771 63.0666 47.1499 63.0207 46.9433 62.9312C46.7367 62.8394 46.5703 62.704 46.444 62.5249C46.3201 62.3459 46.2581 62.1232 46.2581 61.857V59.44H46.8951V61.7916C46.8951 62.0234 46.9662 62.2116 47.1085 62.3562C47.2531 62.5008 47.4701 62.5731 47.7593 62.5731C48.0209 62.5731 48.231 62.5054 48.3894 62.37C48.55 62.2323 48.6304 62.028 48.6304 61.7571V59.44H49.2639V63.0001H48.7578L48.6923 62.3183C48.6281 62.5869 48.4972 62.7797 48.2998 62.8968C48.1024 63.0138 47.8775 63.0712 47.625 63.0689ZM52.1131 59.9048H51.3109V62.1186C51.3109 62.3092 51.3407 62.4262 51.4004 62.4698C51.4624 62.5111 51.5771 62.5318 51.7447 62.5318H52.1338V62.9587C52.0879 62.9748 52.0213 62.9886 51.9341 63.0001C51.8468 63.0115 51.7378 63.0173 51.607 63.0173C51.2374 63.0173 50.9884 62.9427 50.8598 62.7935C50.7336 62.6443 50.6705 62.4262 50.6705 62.1393V59.9048H50.092V59.44H50.6877L50.8426 58.4036H51.3109V59.4365H52.1131V59.9048ZM54.7963 59.9048H53.994V62.1186C53.994 62.3092 54.0239 62.4262 54.0835 62.4698C54.1455 62.5111 54.2603 62.5318 54.4278 62.5318H54.8169V62.9587C54.771 62.9748 54.7044 62.9886 54.6172 63.0001C54.53 63.0115 54.421 63.0173 54.2901 63.0173C53.9206 63.0173 53.6715 62.9427 53.543 62.7935C53.4167 62.6443 53.3536 62.4262 53.3536 62.1393V59.9048H52.7752V59.44H53.3708L53.5258 58.4036H53.994V59.4365H54.7963V59.9048ZM57.032 63.0689C56.5385 63.0689 56.1425 62.9117 55.8441 62.5972C55.5457 62.2828 55.3965 61.8283 55.3965 61.2338C55.3965 60.8619 55.4596 60.536 55.5859 60.256C55.7121 59.9759 55.8969 59.759 56.1402 59.6052C56.3835 59.4491 56.6808 59.3711 57.032 59.3711C57.5232 59.3711 57.9157 59.5318 58.2095 59.8531C58.5033 60.1745 58.6502 60.6347 58.6502 61.2338C58.6502 61.5964 58.5882 61.9155 58.4643 62.1909C58.3426 62.4664 58.1613 62.6822 57.9203 62.8382C57.6816 62.992 57.3855 63.0689 57.032 63.0689ZM57.032 62.5662C57.351 62.5662 57.5955 62.4469 57.7653 62.2082C57.9352 61.9671 58.0201 61.6378 58.0201 61.22C58.0201 60.9652 57.9857 60.7368 57.9168 60.5348C57.8503 60.3306 57.7447 60.1687 57.6001 60.0494C57.4555 59.93 57.2661 59.8703 57.032 59.8703C56.7083 59.8703 56.4604 59.9897 56.2883 60.2284C56.1161 60.4648 56.03 60.7954 56.03 61.22C56.03 61.4702 56.0645 61.6974 56.1333 61.9017C56.2022 62.106 56.3101 62.2678 56.457 62.3872C56.6039 62.5066 56.7955 62.5662 57.032 62.5662ZM59.4836 63.0001V59.44H60.0999V59.9564C60.1871 59.8072 60.3237 59.6752 60.5096 59.5605C60.6955 59.4457 60.9308 59.3883 61.2154 59.3883C61.4404 59.3883 61.6469 59.4331 61.8352 59.5226C62.0257 59.6121 62.1772 59.7521 62.2896 59.9426C62.4044 60.1309 62.4618 60.3742 62.4618 60.6726V63.0001H61.8248V60.7345C61.8248 60.4568 61.7514 60.2514 61.6045 60.1182C61.4599 59.9828 61.2717 59.9151 61.0398 59.9151C60.8791 59.9151 60.7288 59.9415 60.5888 59.9943C60.4488 60.0448 60.3351 60.1228 60.2479 60.2284C60.1607 60.3317 60.1171 60.4625 60.1171 60.6209V63.0001H59.4836Z" fill="white"/>
</g>
<g filter="url(#filter1_d_454_194)">
<path d="M71.6582 55.7659C71.6582 53.8643 73.1997 52.3228 75.1012 52.3228H110.987C112.889 52.3228 114.43 53.8643 114.43 55.7659V65.2342C114.43 67.1358 112.889 68.6773 110.987 68.6773H75.1012C73.1997 68.6773 71.6582 67.1358 71.6582 65.2342V55.7659Z" fill="#6C757D"/>
<path d="M80.3228 57.0823C78.4802 57.0823 76.9873 58.5752 76.9873 60.4178C76.9873 62.2603 78.4802 63.7532 80.3228 63.7532C82.1653 63.7532 83.6582 62.2603 83.6582 60.4178C83.6582 58.5752 82.1653 57.0823 80.3228 57.0823ZM81.3987 59.3418C81.6273 59.3418 81.8291 59.5436 81.8291 59.7722C81.8291 60.0143 81.6273 60.2026 81.3987 60.2026C81.1566 60.2026 80.9683 60.0143 80.9683 59.7722C80.9683 59.5436 81.1566 59.3418 81.3987 59.3418ZM79.2468 59.3418C79.4754 59.3418 79.6772 59.5436 79.6772 59.7722C79.6772 60.0143 79.4754 60.2026 79.2468 60.2026C79.0047 60.2026 78.8164 60.0143 78.8164 59.7722C78.8164 59.5436 79.0047 59.3418 79.2468 59.3418ZM81.856 61.6417C81.4794 62.099 80.9145 62.3545 80.3228 62.3545C79.7175 62.3545 79.1527 62.099 78.7761 61.6417C78.5878 61.413 78.924 61.144 79.0989 61.3592C79.4082 61.7224 79.852 61.9241 80.3228 61.9241C80.7935 61.9241 81.2239 61.7224 81.5332 61.3592C81.708 61.144 82.0443 61.413 81.856 61.6417Z" fill="white"/>
<path d="M88.043 63.0001V58.0214H89.644C90.2499 58.0214 90.7079 58.1328 91.0177 58.3554C91.3299 58.5781 91.486 58.8994 91.486 59.3195C91.486 59.5834 91.4171 59.8095 91.2794 59.9977C91.1417 60.186 90.903 60.3409 90.5633 60.4625C90.9558 60.5475 91.2278 60.699 91.3793 60.917C91.533 61.1328 91.6099 61.3807 91.6099 61.6607C91.6099 62.5536 90.9718 63.0001 89.6956 63.0001H88.043ZM88.6799 60.2112H89.7645C89.9366 60.2112 90.1076 60.1871 90.2775 60.1389C90.4473 60.0907 90.5885 60.0081 90.701 59.891C90.8135 59.7739 90.8697 59.6098 90.8697 59.3986C90.8697 59.1094 90.7584 58.896 90.5357 58.7582C90.3154 58.6182 90.0284 58.5482 89.675 58.5482H88.6799V60.2112ZM88.6799 62.4698H89.6887C90.1042 62.4698 90.4198 62.4021 90.6356 62.2667C90.8536 62.129 90.9626 61.9178 90.9626 61.6332C90.9626 61.4243 90.9087 61.2556 90.8008 61.127C90.6952 60.9962 90.5518 60.901 90.3704 60.8413C90.1891 60.7816 89.9871 60.7518 89.7645 60.7518H88.6799V62.4698ZM93.8403 63.0689C93.5924 63.0666 93.3652 63.0207 93.1586 62.9312C92.952 62.8394 92.7856 62.704 92.6594 62.5249C92.5354 62.3459 92.4734 62.1232 92.4734 61.857V59.44H93.1104V61.7916C93.1104 62.0234 93.1816 62.2116 93.3239 62.3562C93.4685 62.5008 93.6854 62.5731 93.9746 62.5731C94.2363 62.5731 94.4463 62.5054 94.6047 62.37C94.7654 62.2323 94.8457 62.028 94.8457 61.7571V59.44H95.4792V63.0001H94.9731L94.9077 62.3183C94.8434 62.5869 94.7126 62.7797 94.5152 62.8968C94.3178 63.0138 94.0928 63.0712 93.8403 63.0689ZM98.3284 59.9048H97.5262V62.1186C97.5262 62.3092 97.556 62.4262 97.6157 62.4698C97.6777 62.5111 97.7925 62.5318 97.96 62.5318H98.3491V62.9587C98.3032 62.9748 98.2366 62.9886 98.1494 63.0001C98.0622 63.0115 97.9531 63.0173 97.8223 63.0173C97.4528 63.0173 97.2037 62.9427 97.0752 62.7935C96.9489 62.6443 96.8858 62.4262 96.8858 62.1393V59.9048H96.3074V59.44H96.903L97.058 58.4036H97.5262V59.4365H98.3284V59.9048ZM101.012 59.9048H100.209V62.1186C100.209 62.3092 100.239 62.4262 100.299 62.4698C100.361 62.5111 100.476 62.5318 100.643 62.5318H101.032V62.9587C100.986 62.9748 100.92 62.9886 100.833 63.0001C100.745 63.0115 100.636 63.0173 100.505 63.0173C100.136 63.0173 99.8869 62.9427 99.7583 62.7935C99.6321 62.6443 99.569 62.4262 99.569 62.1393V59.9048H98.9905V59.44H99.5862L99.7411 58.4036H100.209V59.4365H101.012V59.9048ZM103.247 63.0689C102.754 63.0689 102.358 62.9117 102.059 62.5972C101.761 62.2828 101.612 61.8283 101.612 61.2338C101.612 60.8619 101.675 60.536 101.801 60.256C101.927 59.9759 102.112 59.759 102.356 59.6052C102.599 59.4491 102.896 59.3711 103.247 59.3711C103.739 59.3711 104.131 59.5318 104.425 59.8531C104.719 60.1745 104.866 60.6347 104.866 61.2338C104.866 61.5964 104.804 61.9155 104.68 62.1909C104.558 62.4664 104.377 62.6822 104.136 62.8382C103.897 62.992 103.601 63.0689 103.247 63.0689ZM103.247 62.5662C103.566 62.5662 103.811 62.4469 103.981 62.2082C104.151 61.9671 104.235 61.6378 104.235 61.22C104.235 60.9652 104.201 60.7368 104.132 60.5348C104.066 60.3306 103.96 60.1687 103.815 60.0494C103.671 59.93 103.481 59.8703 103.247 59.8703C102.924 59.8703 102.676 59.9897 102.504 60.2284C102.331 60.4648 102.245 60.7954 102.245 61.22C102.245 61.4702 102.28 61.6974 102.349 61.9017C102.418 62.106 102.525 62.2678 102.672 62.3872C102.819 62.5066 103.011 62.5662 103.247 62.5662ZM105.699 63.0001V59.44H106.315V59.9564C106.402 59.8072 106.539 59.6752 106.725 59.5605C106.911 59.4457 107.146 59.3883 107.431 59.3883C107.656 59.3883 107.862 59.4331 108.05 59.5226C108.241 59.6121 108.393 59.7521 108.505 59.9426C108.62 60.1309 108.677 60.3742 108.677 60.6726V63.0001H108.04V60.7345C108.04 60.4568 107.967 60.2514 107.82 60.1182C107.675 59.9828 107.487 59.9151 107.255 59.9151C107.094 59.9151 106.944 59.9415 106.804 59.9943C106.664 60.0448 106.55 60.1228 106.463 60.2284C106.376 60.3317 106.332 60.4625 106.332 60.6209V63.0001H105.699Z" fill="white"/>
</g>
<g filter="url(#filter2_d_454_194)">
<path d="M117.873 55.7659C117.873 53.8643 119.415 52.3228 121.316 52.3228H157.202C159.104 52.3228 160.645 53.8643 160.645 55.7659V65.2342C160.645 67.1358 159.104 68.6773 157.202 68.6773H121.316C119.415 68.6773 117.873 67.1358 117.873 65.2342V55.7659Z" fill="#6C757D"/>
<path d="M126.538 57.0823C124.695 57.0823 123.202 58.5752 123.202 60.4178C123.202 62.2603 124.695 63.7532 126.538 63.7532C128.38 63.7532 129.873 62.2603 129.873 60.4178C129.873 58.5752 128.38 57.0823 126.538 57.0823ZM127.614 59.3418C127.842 59.3418 128.044 59.5436 128.044 59.7722C128.044 60.0143 127.842 60.2026 127.614 60.2026C127.372 60.2026 127.183 60.0143 127.183 59.7722C127.183 59.5436 127.372 59.3418 127.614 59.3418ZM125.462 59.3418C125.691 59.3418 125.892 59.5436 125.892 59.7722C125.892 60.0143 125.691 60.2026 125.462 60.2026C125.22 60.2026 125.032 60.0143 125.032 59.7722C125.032 59.5436 125.22 59.3418 125.462 59.3418ZM128.071 61.6417C127.694 62.099 127.13 62.3545 126.538 62.3545C125.933 62.3545 125.368 62.099 124.991 61.6417C124.803 61.413 125.139 61.144 125.314 61.3592C125.623 61.7224 126.067 61.9241 126.538 61.9241C127.009 61.9241 127.439 61.7224 127.748 61.3592C127.923 61.144 128.259 61.413 128.071 61.6417Z" fill="white"/>
<path d="M134.258 63.0001V58.0214H135.859C136.465 58.0214 136.923 58.1328 137.233 58.3554C137.545 58.5781 137.701 58.8994 137.701 59.3195C137.701 59.5834 137.632 59.8095 137.494 59.9977C137.357 60.186 137.118 60.3409 136.778 60.4625C137.171 60.5475 137.443 60.699 137.594 60.917C137.748 61.1328 137.825 61.3807 137.825 61.6607C137.825 62.5536 137.187 63.0001 135.911 63.0001H134.258ZM134.895 60.2112H135.98C136.152 60.2112 136.323 60.1871 136.493 60.1389C136.662 60.0907 136.804 60.0081 136.916 59.891C137.029 59.7739 137.085 59.6098 137.085 59.3986C137.085 59.1094 136.973 58.896 136.751 58.7582C136.53 58.6182 136.244 58.5482 135.89 58.5482H134.895V60.2112ZM134.895 62.4698H135.904C136.319 62.4698 136.635 62.4021 136.851 62.2667C137.069 62.129 137.178 61.9178 137.178 61.6332C137.178 61.4243 137.124 61.2556 137.016 61.127C136.91 60.9962 136.767 60.901 136.586 60.8413C136.404 60.7816 136.202 60.7518 135.98 60.7518H134.895V62.4698ZM140.055 63.0689C139.808 63.0666 139.58 63.0207 139.374 62.9312C139.167 62.8394 139.001 62.704 138.874 62.5249C138.751 62.3459 138.689 62.1232 138.689 61.857V59.44H139.325V61.7916C139.325 62.0234 139.397 62.2116 139.539 62.3562C139.684 62.5008 139.9 62.5731 140.19 62.5731C140.451 62.5731 140.661 62.5054 140.82 62.37C140.98 62.2323 141.061 62.028 141.061 61.7571V59.44H141.694V63.0001H141.188L141.123 62.3183C141.058 62.5869 140.928 62.7797 140.73 62.8968C140.533 63.0138 140.308 63.0712 140.055 63.0689ZM144.544 59.9048H143.741V62.1186C143.741 62.3092 143.771 62.4262 143.831 62.4698C143.893 62.5111 144.008 62.5318 144.175 62.5318H144.564V62.9587C144.518 62.9748 144.452 62.9886 144.364 63.0001C144.277 63.0115 144.168 63.0173 144.037 63.0173C143.668 63.0173 143.419 62.9427 143.29 62.7935C143.164 62.6443 143.101 62.4262 143.101 62.1393V59.9048H142.522V59.44H143.118L143.273 58.4036H143.741V59.4365H144.544V59.9048ZM147.227 59.9048H146.424V62.1186C146.424 62.3092 146.454 62.4262 146.514 62.4698C146.576 62.5111 146.691 62.5318 146.858 62.5318H147.247V62.9587C147.201 62.9748 147.135 62.9886 147.048 63.0001C146.96 63.0115 146.851 63.0173 146.721 63.0173C146.351 63.0173 146.102 62.9427 145.973 62.7935C145.847 62.6443 145.784 62.4262 145.784 62.1393V59.9048H145.206V59.44H145.801L145.956 58.4036H146.424V59.4365H147.227V59.9048ZM149.462 63.0689C148.969 63.0689 148.573 62.9117 148.275 62.5972C147.976 62.2828 147.827 61.8283 147.827 61.2338C147.827 60.8619 147.89 60.536 148.016 60.256C148.143 59.9759 148.327 59.759 148.571 59.6052C148.814 59.4491 149.111 59.3711 149.462 59.3711C149.954 59.3711 150.346 59.5318 150.64 59.8531C150.934 60.1745 151.081 60.6347 151.081 61.2338C151.081 61.5964 151.019 61.9155 150.895 62.1909C150.773 62.4664 150.592 62.6822 150.351 62.8382C150.112 62.992 149.816 63.0689 149.462 63.0689ZM149.462 62.5662C149.781 62.5662 150.026 62.4469 150.196 62.2082C150.366 61.9671 150.451 61.6378 150.451 61.22C150.451 60.9652 150.416 60.7368 150.347 60.5348C150.281 60.3306 150.175 60.1687 150.03 60.0494C149.886 59.93 149.697 59.8703 149.462 59.8703C149.139 59.8703 148.891 59.9897 148.719 60.2284C148.547 60.4648 148.46 60.7954 148.46 61.22C148.46 61.4702 148.495 61.6974 148.564 61.9017C148.633 62.106 148.74 62.2678 148.887 62.3872C149.034 62.5066 149.226 62.5662 149.462 62.5662ZM151.914 63.0001V59.44H152.53V59.9564C152.618 59.8072 152.754 59.6752 152.94 59.5605C153.126 59.4457 153.361 59.3883 153.646 59.3883C153.871 59.3883 154.077 59.4331 154.266 59.5226C154.456 59.6121 154.608 59.7521 154.72 59.9426C154.835 60.1309 154.892 60.3742 154.892 60.6726V63.0001H154.255V60.7345C154.255 60.4568 154.182 60.2514 154.035 60.1182C153.89 59.9828 153.702 59.9151 153.47 59.9151C153.31 59.9151 153.159 59.9415 153.019 59.9943C152.879 60.0448 152.766 60.1228 152.678 60.2284C152.591 60.3317 152.548 60.4625 152.548 60.6209V63.0001H151.914Z" fill="white"/>
</g>
<path d="M23.7215 45.8608H296.278V44.1393H23.7215V45.8608ZM297.139 46.7216V74.2785H298.861V46.7216H297.139ZM296.278 75.1393H23.7215V76.8608H296.278V75.1393ZM22.8608 74.2785V46.7216H21.1392V74.2785H22.8608ZM23.7215 75.1393C23.2461 75.1393 22.8608 74.7539 22.8608 74.2785H21.1392C21.1392 75.7047 22.2954 76.8608 23.7215 76.8608V75.1393ZM297.139 74.2785C297.139 74.7539 296.754 75.1393 296.278 75.1393V76.8608C297.705 76.8608 298.861 75.7047 298.861 74.2785H297.139ZM296.278 45.8608C296.754 45.8608 297.139 46.2462 297.139 46.7216H298.861C298.861 45.2954 297.705 44.1393 296.278 44.1393V45.8608ZM23.7215 44.1393C22.2954 44.1393 21.1392 45.2954 21.1392 46.7216H22.8608C22.8608 46.2462 23.2461 45.8608 23.7215 45.8608V44.1393Z" fill="#DEE2E6"/>
<g style="mix-blend-mode:color">
<rect width="320" height="120" fill="#808080"/>
</g>
<g style="mix-blend-mode:color">
<rect width="320" height="120" fill="#00284D"/>
</g>
<defs>
<filter id="filter0_d_454_194" x="25.443" y="52.3228" width="42.7721" height="18.3544" filterUnits="userSpaceOnUse" color-interpolation-filters="sRGB">
<feFlood flood-opacity="0" result="BackgroundImageFix"/>
<feColorMatrix in="SourceAlpha" type="matrix" values="0 0 0 0 0 0 0 0 0 0 0 0 0 0 0 0 0 0 127 0" result="hardAlpha"/>
<feOffset dy="2"/>
<feColorMatrix type="matrix" values="0 0 0 0 0.423529 0 0 0 0 0.458824 0 0 0 0 0.490196 0 0 0 0.62 0"/>
<feBlend mode="normal" in2="BackgroundImageFix" result="effect1_dropShadow_454_194"/>
<feBlend mode="normal" in="SourceGraphic" in2="effect1_dropShadow_454_194" result="shape"/>
</filter>
<filter id="filter1_d_454_194" x="71.6582" y="52.3228" width="42.7722" height="18.3544" filterUnits="userSpaceOnUse" color-interpolation-filters="sRGB">
<feFlood flood-opacity="0" result="BackgroundImageFix"/>
<feColorMatrix in="SourceAlpha" type="matrix" values="0 0 0 0 0 0 0 0 0 0 0 0 0 0 0 0 0 0 127 0" result="hardAlpha"/>
<feOffset dy="2"/>
<feColorMatrix type="matrix" values="0 0 0 0 0.423529 0 0 0 0 0.458824 0 0 0 0 0.490196 0 0 0 0.62 0"/>
<feBlend mode="normal" in2="BackgroundImageFix" result="effect1_dropShadow_454_194"/>
<feBlend mode="normal" in="SourceGraphic" in2="effect1_dropShadow_454_194" result="shape"/>
</filter>
<filter id="filter2_d_454_194" x="117.873" y="52.3228" width="42.7722" height="18.3544" filterUnits="userSpaceOnUse" color-interpolation-filters="sRGB">
<feFlood flood-opacity="0" result="BackgroundImageFix"/>
<feColorMatrix in="SourceAlpha" type="matrix" values="0 0 0 0 0 0 0 0 0 0 0 0 0 0 0 0 0 0 127 0" result="hardAlpha"/>
<feOffset dy="2"/>
<feColorMatrix type="matrix" values="0 0 0 0 0.423529 0 0 0 0 0.458824 0 0 0 0 0.490196 0 0 0 0.62 0"/>
<feBlend mode="normal" in2="BackgroundImageFix" result="effect1_dropShadow_454_194"/>
<feBlend mode="normal" in="SourceGraphic" in2="effect1_dropShadow_454_194" result="shape"/>
</filter>
</defs>
</svg>
