<svg width="320" height="120" viewBox="0 0 320 120" fill="none" xmlns="http://www.w3.org/2000/svg">
<rect width="320" height="120" fill="#C0CEDB"/>
<path d="M130.872 94.5945C131.914 93.9929 132.415 92.8554 132.229 91.7296L139.333 89.8637C140.168 91.3094 141.236 93.1599 142.388 95.155C144.892 99.4921 165.563 92.6466 167.395 90.4712C168.571 89.0984 168.935 84.917 169.036 82.0832L193.447 75.6998L194.115 76.8563C195.15 78.649 197.448 79.2881 199.272 78.2352C201.067 77.1991 201.708 74.9011 200.657 73.0795L173.429 25.9205C172.394 24.1278 170.096 23.4888 168.272 24.5416C166.477 25.5778 165.836 27.8758 166.888 29.6974L168.206 31.9816L124.289 77.5771L123.755 76.6518C122.97 75.2928 121.253 74.8581 119.921 75.6268C118.59 76.3956 118.108 78.1004 118.892 79.4594L127.039 93.5695C127.823 94.9285 129.541 95.3632 130.872 94.5945ZM163.077 87.6052C161.541 89.9574 150.02 91.3272 147.675 91.6784C146.578 91.8495 145.303 90.3107 144.244 88.6093L164.424 83.3196C164.329 84.4923 163.967 86.2049 163.077 87.6052Z" fill="#00284D"/>
<path d="M70.0853 77.6874C70.6231 77.3769 70.8818 76.7898 70.7853 76.2088L74.4523 75.2457C74.8831 75.9919 75.4345 76.947 76.029 77.9767C77.3214 80.2152 87.9903 76.6821 88.9356 75.5593C89.5425 74.8507 89.7307 72.6926 89.7826 71.23L102.382 67.9353L102.727 68.5322C103.261 69.4575 104.447 69.7873 105.388 69.2439C106.315 68.7091 106.646 67.5231 106.103 66.5829L92.0502 42.2428C91.516 41.3175 90.3296 40.9877 89.3884 41.5311C88.4621 42.0659 88.131 43.2519 88.6738 44.1921L89.3545 45.3711L66.6876 68.9042L66.4119 68.4267C66.0069 67.7253 65.1204 67.5009 64.4332 67.8976C63.746 68.2944 63.497 69.1743 63.902 69.8757L68.1066 77.1584C68.5116 77.8598 69.3981 78.0842 70.0853 77.6874ZM86.7072 74.0801C85.9141 75.2941 79.9679 76.0011 78.7579 76.1823C78.1913 76.2706 77.5336 75.4764 76.9868 74.5983L87.4021 71.8681C87.3532 72.4734 87.1663 73.3573 86.7072 74.0801Z" fill="#00284D"/>
<path d="M225.085 77.6874C225.623 77.3769 225.882 76.7898 225.785 76.2088L229.452 75.2457C229.883 75.9919 230.435 76.947 231.029 77.9767C232.321 80.2152 242.99 76.6821 243.936 75.5593C244.542 74.8507 244.731 72.6926 244.783 71.23L257.382 67.9353L257.727 68.5322C258.261 69.4575 259.447 69.7873 260.388 69.2439C261.315 68.7091 261.646 67.5231 261.103 66.5829L247.05 42.2428C246.516 41.3175 245.33 40.9877 244.388 41.5311C243.462 42.0659 243.131 43.2519 243.674 44.1921L244.354 45.3711L221.688 68.9042L221.412 68.4267C221.007 67.7253 220.12 67.5009 219.433 67.8976C218.746 68.2944 218.497 69.1743 218.902 69.8757L223.107 77.1584C223.512 77.8598 224.398 78.0842 225.085 77.6874ZM241.707 74.0801C240.914 75.2941 234.968 76.0011 233.758 76.1823C233.191 76.2706 232.534 75.4764 231.987 74.5983L242.402 71.8681C242.353 72.4734 242.166 73.3573 241.707 74.0801Z" fill="#00284D"/>
<g style="mix-blend-mode:color">
<rect width="320" height="120" fill="#808080"/>
</g>
<g style="mix-blend-mode:color">
<rect width="320" height="120" fill="#00284D"/>
</g>
</svg>
