<svg width="320" height="120" viewBox="0 0 320 120" fill="none" xmlns="http://www.w3.org/2000/svg">
<rect width="320" height="120" fill="#C0CEDB"/>
<path d="M131.909 48.3273V68.9273C131.909 82.3729 142.809 93.2727 156.255 93.2727V106.382H150.636C147.534 106.382 145.018 108.897 145.018 112H174.982C174.982 108.897 172.467 106.382 169.364 106.382H163.746V93.2727C177.191 93.2727 188.091 82.3729 188.091 68.9273V48.3273H184.346V68.9273C184.346 80.3043 175.123 89.5273 163.746 89.5273H156.255C144.878 89.5273 135.655 80.3043 135.655 68.9273V48.3273H131.909Z" fill="#00284D"/>
<path d="M160 9C149.657 9 141.273 17.3845 141.273 27.7273H152.509V31.4727H141.273V35.2182H152.509V38.9636H141.273V42.7091H152.509V46.4545H141.273V65.1818C141.273 75.5246 149.657 83.9091 160 83.9091C170.343 83.9091 178.727 75.5246 178.727 65.1818V46.4545H167.491V42.7091H178.727V38.9636H167.491V35.2182H178.727V31.4727H167.491V27.7273H178.727C178.727 17.3845 170.343 9 160 9Z" fill="#00284D"/>
<path d="M141.273 48.3273H178.727V65.1818C178.727 75.5246 170.343 83.9091 160 83.9091V83.9091C149.657 83.9091 141.273 75.5246 141.273 65.1818V48.3273Z" fill="white"/>
<g style="mix-blend-mode:color">
<rect width="320" height="120" fill="#808080"/>
</g>
<g style="mix-blend-mode:color">
<rect width="320" height="120" fill="#00284D"/>
</g>
<g style="mix-blend-mode:multiply" opacity="0.1" clip-path="url(#clip0)">
<path fill-rule="evenodd" clip-rule="evenodd" d="M285.553 106H287.988V61.8185H285.553V106ZM283.409 102.85H280.973V61.8186H283.409V102.85ZM230.703 101.95H233.139V61.845H230.703V101.95ZM203.278 95.7817H205.714V61.8185H203.278V95.7817ZM201.161 90.4611H198.726V61.8186H201.161V90.4611ZM196.581 79.184H194.146V61.8185H196.581V79.184ZM210.294 79.9253H207.858V61.8186H210.294V79.9253ZM212.438 72.5925H214.873V61.8185H212.438V72.5925ZM219.426 65.7893H216.991V61.8185H219.426V65.7893ZM221.571 84.7695H224.006V61.8185H221.571V84.7695ZM228.586 94.5377H226.15V61.8451H228.586V94.5377ZM237.718 88.4227H235.283V61.8186H237.718V88.4227ZM239.836 81.3282H242.272V61.845H239.836V81.3282ZM246.851 90.064H244.416V61.8451H246.851V90.064ZM248.995 95.7817H251.431V61.8185H248.995V95.7817ZM255.984 91.2816H253.548V61.845H255.984V91.2816ZM258.128 84.7695H260.564V61.8185H258.128V84.7695ZM265.117 68.4365H262.681V61.8451H265.117V68.4365ZM267.261 77.781H269.696V61.845H267.261V77.781ZM274.276 86.9138H271.841V61.8451H274.276V86.9138ZM276.393 95.226H278.829V61.8186H276.393V95.226ZM292.541 100.811H290.106V61.8185H292.541V100.811ZM294.686 81.3282H297.121V61.845H294.686V81.3282ZM301.674 87.6284H299.239V61.8449H301.674V87.6284ZM303.818 79.9253H306.254V61.8186H303.818V79.9253ZM310.833 72.5925H308.398V61.8185H310.833V72.5925ZM312.951 67.2188H315.387V61.845H312.951V67.2188Z" fill="#808080"/>
<path fill-rule="evenodd" clip-rule="evenodd" d="M196.581 61.8186H194.146V44.4531H196.581V61.8186ZM201.161 61.8186H198.726V33.1762H201.161V61.8186ZM203.279 61.8186H205.714V27.8553H203.279V61.8186ZM210.294 61.8186H207.858V43.7119H210.294V61.8186ZM212.438 61.8186H214.873V51.0446H212.438V61.8186ZM219.426 61.8186H216.991V57.8478H219.426V61.8186ZM221.571 61.8186H224.006V38.8676H221.571V61.8186ZM228.586 61.8186H226.15V29.126H228.586V61.8186ZM230.703 61.8186H233.139V21.7139H230.703V61.8186ZM237.719 61.8186H235.283V35.2145H237.719V61.8186ZM239.836 61.8186H242.272V42.3354H239.836V61.8186ZM246.851 61.8186H244.416V33.5997H246.851V61.8186ZM248.995 61.8186H251.431V27.8553H248.995V61.8186ZM255.984 61.8186H253.548V32.382H255.984V61.8186ZM258.128 61.8186H260.564V38.8676H258.128V61.8186ZM265.117 61.8186H262.681V55.2271H265.117V61.8186ZM267.261 61.8186H269.696V45.8826H267.261V61.8186ZM274.276 61.8186H271.841V36.7498H274.276V61.8186ZM276.394 61.8186H278.829V28.4112H276.394V61.8186ZM283.409 61.8186H280.973V20.7874H283.409V61.8186ZM285.553 61.8186H287.988V17.6372H285.553V61.8186ZM292.541 61.8186H290.106V22.8257H292.541V61.8186ZM294.686 61.8186H297.121V42.3354H294.686V61.8186ZM301.674 61.8186H299.239V36.0351H301.674V61.8186ZM303.818 61.8186H306.254V43.7119H303.818V61.8186ZM310.834 61.8186H308.398V51.0446H310.834V61.8186ZM312.951 61.8186H315.387V56.4448H312.951V61.8186Z" fill="black"/>
</g>
<g style="mix-blend-mode:multiply" opacity="0.1" clip-path="url(#clip1)">
<path fill-rule="evenodd" clip-rule="evenodd" d="M96.5527 18.0001H98.9881V62.1815H96.5527V18.0001ZM94.4085 21.1501H91.9731V62.1814H94.4085V21.1501ZM41.7031 22.0503H44.1385V62.155H41.7031V22.0503ZM14.2783 28.2183H16.7137V62.1815H14.2783V28.2183ZM12.161 33.5389H9.72559V62.1814H12.161V33.5389ZM7.58116 44.816H5.14575V62.1815H7.58116V44.816ZM21.2936 44.0747H18.8582V62.1814H21.2936V44.0747ZM23.4377 51.4075H25.8731V62.1815H23.4377V51.4075ZM30.4261 58.2107H27.9907V62.1815H30.4261V58.2107ZM32.5706 39.2305H35.0059V62.1815H32.5706V39.2305ZM39.5856 29.4623H37.1501V62.1549H39.5856V29.4623ZM48.7184 35.5773H46.283V62.1814H48.7184V35.5773ZM50.8362 42.6718H53.2716V62.155H50.8362V42.6718ZM57.8512 33.936H55.4158V62.1549H57.8512V33.936ZM59.9951 28.2183H62.4305V62.1815H59.9951V28.2183ZM66.9837 32.7184H64.5483V62.155H66.9837V32.7184ZM69.1282 39.2305H71.5636V62.1815H69.1282V39.2305ZM76.1166 55.5635H73.6812V62.1549H76.1166V55.5635ZM78.2607 46.219H80.6961V62.155H78.2607V46.219ZM85.276 37.0862H82.8406V62.1549H85.276V37.0862ZM87.3933 28.774H89.8287V62.1814H87.3933V28.774ZM103.541 23.1886H101.106V62.1815H103.541V23.1886ZM105.686 42.6718H108.121V62.155H105.686V42.6718ZM112.674 36.3716H110.239V62.1551H112.674V36.3716ZM114.818 44.0747H117.254V62.1814H114.818V44.0747ZM121.833 51.4075H119.398V62.1815H121.833V51.4075ZM123.951 56.7812H126.387V62.155H123.951V56.7812Z" fill="#808080"/>
<path fill-rule="evenodd" clip-rule="evenodd" d="M7.58116 62.1814H5.14575V79.5469H7.58116V62.1814ZM12.161 62.1814H9.72559V90.8238H12.161V62.1814ZM14.2786 62.1814H16.714V96.1447H14.2786V62.1814ZM21.2938 62.1814H18.8584V80.2881H21.2938V62.1814ZM23.4377 62.1814H25.8731V72.9554H23.4377V62.1814ZM30.4264 62.1814H27.991V66.1522H30.4264V62.1814ZM32.5708 62.1814H35.0062V85.1324H32.5708V62.1814ZM39.5856 62.1814H37.1501V94.874H39.5856V62.1814ZM41.7034 62.1814H44.1388V102.286H41.7034V62.1814ZM48.7186 62.1814H46.2832V88.7855H48.7186V62.1814ZM50.8362 62.1814H53.2716V81.6646H50.8362V62.1814ZM57.8512 62.1814H55.4158V90.4003H57.8512V62.1814ZM59.9954 62.1814H62.4308V96.1447H59.9954V62.1814ZM66.9837 62.1814H64.5483V91.618H66.9837V62.1814ZM69.1282 62.1814H71.5636V85.1324H69.1282V62.1814ZM76.1168 62.1814H73.6814V68.7729H76.1168V62.1814ZM78.2607 62.1814H80.6961V78.1174H78.2607V62.1814ZM85.276 62.1814H82.8406V87.2502H85.276V62.1814ZM87.3936 62.1814H89.829V95.5888H87.3936V62.1814ZM94.4088 62.1814H91.9734V103.213H94.4088V62.1814ZM96.5527 62.1814H98.9881V106.363H96.5527V62.1814ZM103.541 62.1814H101.106V101.174H103.541V62.1814ZM105.686 62.1814H108.121V81.6646H105.686V62.1814ZM112.674 62.1814H110.239V87.9649H112.674V62.1814ZM114.818 62.1814H117.254V80.2881H114.818V62.1814ZM121.834 62.1814H119.398V72.9554H121.834V62.1814ZM123.951 62.1814H126.387V67.5552H123.951V62.1814Z" fill="black"/>
</g>
<defs>
<clipPath id="clip0">
<rect width="121" height="88" fill="white" transform="matrix(1 0 0 -1 194 106)"/>
</clipPath>
<clipPath id="clip1">
<rect width="121" height="88" fill="white" transform="translate(5 18)"/>
</clipPath>
</defs>
</svg>
