<svg width="320" height="120" viewBox="0 0 320 120" fill="none" xmlns="http://www.w3.org/2000/svg">
<rect width="320" height="120" fill="#C0CEDB"/>
<path d="M191.134 54.432V63.424L185.022 54.432H183.606V66H185.086V56.88L191.294 66H192.614V54.432H191.134ZM196.343 62.208H202.271V61.664C202.271 59.152 200.975 57.568 198.647 57.568C196.239 57.568 194.847 59.336 194.847 61.944C194.847 64.584 196.439 66.16 198.751 66.16C200.359 66.16 201.911 65.272 202.215 63.584H200.823C200.615 64.52 199.783 65.016 198.727 65.016C197.119 65.016 196.343 63.776 196.343 62.208ZM196.351 61.208C196.343 59.976 197.079 58.688 198.639 58.688C200.135 58.688 200.847 59.784 200.847 61.208H196.351ZM211.059 66L207.875 61.704L210.819 57.728H209.203L207.051 60.632L204.899 57.728H203.291L206.219 61.704L203.035 66H204.651L207.043 62.76L209.451 66H211.059ZM216.62 58.808V57.72H214.756V55.32H213.668L213.308 57.728H211.924V58.808H213.268V64C213.268 65.328 213.724 66.04 215.444 66.04C216.044 66.04 216.46 65.984 216.668 65.904V64.912H215.764C214.988 64.912 214.756 64.832 214.756 63.952V58.808H216.62ZM226.753 66.16C229.497 66.16 231.105 64.76 231.105 63.016C231.105 61.76 230.617 60.232 228.313 59.728L226.113 59.2C224.601 58.832 224.129 58.352 224.129 57.512C224.129 56.216 225.401 55.544 226.705 55.544C228.073 55.544 229.257 56.072 229.409 57.64H230.937C230.921 55.888 229.473 54.288 226.697 54.288C224.289 54.288 222.561 55.656 222.569 57.656C222.585 59.24 223.609 60.184 225.313 60.56L227.585 61.088C228.865 61.384 229.593 61.984 229.593 63.032C229.593 64.208 228.369 64.928 226.745 64.928C225.289 64.928 224.065 64.24 223.777 62.928H222.225C222.521 65.056 224.569 66.16 226.753 66.16ZM234.39 62.208H240.318V61.664C240.318 59.152 239.022 57.568 236.694 57.568C234.286 57.568 232.894 59.336 232.894 61.944C232.894 64.584 234.486 66.16 236.798 66.16C238.406 66.16 239.958 65.272 240.262 63.584H238.87C238.662 64.52 237.83 65.016 236.774 65.016C235.166 65.016 234.39 63.776 234.39 62.208ZM234.398 61.208C234.39 59.976 235.126 58.688 236.686 58.688C238.182 58.688 238.894 59.784 238.894 61.208H234.398ZM245.693 57.568C243.253 57.568 241.885 59.32 241.885 61.896C241.885 64.672 243.453 66.16 245.693 66.16C247.445 66.16 248.789 65.112 249.005 63.448H247.717C247.573 64.28 246.853 65.032 245.717 65.032C244.133 65.032 243.301 63.792 243.301 61.88C243.301 59.768 244.285 58.76 245.701 58.76C246.837 58.76 247.557 59.472 247.701 60.344H249.013C248.789 58.656 247.469 57.568 245.693 57.568ZM254.901 58.808V57.72H253.037V55.32H251.949L251.589 57.728H250.205V58.808H251.549V64C251.549 65.328 252.005 66.04 253.725 66.04C254.325 66.04 254.741 65.984 254.949 65.904V64.912H254.045C253.269 64.912 253.037 64.832 253.037 63.952V58.808H254.901ZM258.424 54.44H256.912V55.976H258.424V54.44ZM258.384 57.728H256.952V66H258.384V57.728ZM264.177 66.16C266.641 66.16 267.945 64.424 267.945 61.896C267.945 59.112 266.465 57.568 264.185 57.568C261.737 57.568 260.385 59.304 260.385 61.896C260.385 64.656 261.881 66.16 264.177 66.16ZM264.185 64.992C262.529 64.992 261.857 63.608 261.857 61.864C261.857 59.896 262.681 58.728 264.185 58.728C265.809 58.728 266.481 60.096 266.481 61.864C266.481 63.808 265.665 64.992 264.185 64.992ZM269.912 66H271.384V60.472C271.384 59.36 272.408 58.832 273.528 58.832C274.608 58.832 275.352 59.448 275.352 60.736V66H276.832V60.592C276.832 58.512 275.504 57.608 273.936 57.608C272.608 57.608 271.752 58.24 271.344 58.928V57.728H269.912V66Z" fill="#00203E"/>
<path opacity="0.5" d="M294.906 58.9688C294.594 58.6562 294.125 58.6875 293.812 58.9688L290.25 62.75V53.75C290.25 53.3438 289.906 53 289.5 53H288.5C288.062 53 287.75 53.3438 287.75 53.75V62.75L284.156 58.9688C283.844 58.6875 283.375 58.6562 283.062 58.9688L282.375 59.6562C282.094 59.9375 282.094 60.4375 282.375 60.7188L288.469 66.7812C288.75 67.0938 289.219 67.0938 289.531 66.7812L295.594 60.7188C295.875 60.4375 295.875 59.9688 295.594 59.6562L294.906 58.9688Z" fill="#00284D"/>
<path opacity="0.5" d="M24.0625 61.0625C24.375 61.375 24.8438 61.3438 25.1562 61.0625L28.75 57.2812V66.25C28.75 66.6875 29.0625 67 29.5 67H30.5C30.9062 67 31.25 66.6875 31.25 66.25V57.2812L34.8125 61.0312C35.125 61.3438 35.5938 61.3438 35.9062 61.0625L36.5938 60.375C36.875 60.0625 36.875 59.5938 36.5938 59.3125L30.5 53.2188C30.2188 52.9375 29.75 52.9375 29.4688 53.2188L23.375 59.3125C23.0938 59.5938 23.0938 60.0625 23.375 60.375L24.0625 61.0625Z" fill="#00284D"/>
<path d="M42.9733 66H44.4933V61.72H47.0853C49.5173 61.72 51.1733 60.4 51.1733 58.088C51.1733 55.704 49.3653 54.432 46.8853 54.432H42.9733V66ZM44.4853 60.472V55.664H46.9813C48.6053 55.664 49.7333 56.464 49.7333 58C49.7333 59.52 48.6373 60.472 47.0533 60.472H44.4853ZM52.8568 66H54.3288V60.856C54.3288 59.48 55.4008 58.92 56.7208 59.008C56.8888 59.008 57.1848 59.032 57.3448 59.104V57.672C57.2088 57.6 56.9528 57.568 56.7128 57.568C55.6648 57.568 54.6808 58.128 54.2648 59.32V57.728H52.8568V66ZM60.0698 62.208H65.9978V61.664C65.9978 59.152 64.7018 57.568 62.3738 57.568C59.9658 57.568 58.5738 59.336 58.5738 61.944C58.5738 64.584 60.1658 66.16 62.4778 66.16C64.0858 66.16 65.6378 65.272 65.9418 63.584H64.5498C64.3418 64.52 63.5098 65.016 62.4538 65.016C60.8458 65.016 60.0698 63.776 60.0698 62.208ZM60.0778 61.208C60.0698 59.976 60.8058 58.688 62.3658 58.688C63.8618 58.688 64.5738 59.784 64.5738 61.208H60.0778ZM74.3601 57.728H72.9761L70.7681 64.144H70.6321L68.4321 57.728H67.0401L70.0321 66H71.3841L74.3601 57.728ZM77.4782 54.44H75.9662V55.976H77.4782V54.44ZM77.4382 57.728H76.0062V66H77.4382V57.728ZM83.2313 66.16C85.6953 66.16 86.9993 64.424 86.9993 61.896C86.9993 59.112 85.5193 57.568 83.2393 57.568C80.7913 57.568 79.4393 59.304 79.4393 61.896C79.4393 64.656 80.9353 66.16 83.2313 66.16ZM83.2393 64.992C81.5833 64.992 80.9113 63.608 80.9113 61.864C80.9113 59.896 81.7353 58.728 83.2393 58.728C84.8633 58.728 85.5353 60.096 85.5353 61.864C85.5353 63.808 84.7193 64.992 83.2393 64.992ZM91.9749 66.16C93.1429 66.168 94.1509 65.656 94.4549 64.416L94.6069 66H95.7829V57.728H94.3109V63.112C94.3109 64.368 93.5029 65.008 92.2869 65.008C90.9349 65.008 90.2789 64.272 90.2789 63.192V57.728H88.7989V63.344C88.7989 65.208 90.2549 66.144 91.9749 66.16ZM101.192 66.16C103.208 66.16 104.376 65.224 104.376 63.704C104.376 62.888 103.96 61.88 102.44 61.48L100.776 61.064C99.8642 60.84 99.3842 60.544 99.3842 59.952C99.3842 59.072 100.112 58.656 101.168 58.656C102.192 58.656 102.8 59.152 102.912 59.944H104.224C104.168 58.392 102.976 57.568 101.184 57.568C99.0882 57.568 98.0242 58.592 98.0322 60.04C98.0402 61.272 98.8962 61.904 100.232 62.224L101.944 62.648C102.696 62.824 103.048 63.176 103.048 63.784C103.048 64.648 102.304 65.056 101.184 65.056C100.136 65.056 99.3042 64.56 99.0962 63.592H97.7522C97.9922 65.376 99.4642 66.16 101.192 66.16ZM114.386 66.16C117.13 66.16 118.738 64.76 118.738 63.016C118.738 61.76 118.25 60.232 115.946 59.728L113.746 59.2C112.234 58.832 111.762 58.352 111.762 57.512C111.762 56.216 113.034 55.544 114.338 55.544C115.706 55.544 116.89 56.072 117.042 57.64H118.57C118.554 55.888 117.106 54.288 114.33 54.288C111.922 54.288 110.194 55.656 110.202 57.656C110.218 59.24 111.242 60.184 112.946 60.56L115.218 61.088C116.498 61.384 117.226 61.984 117.226 63.032C117.226 64.208 116.002 64.928 114.378 64.928C112.922 64.928 111.698 64.24 111.41 62.928H109.858C110.154 65.056 112.202 66.16 114.386 66.16ZM122.023 62.208H127.951V61.664C127.951 59.152 126.655 57.568 124.327 57.568C121.919 57.568 120.527 59.336 120.527 61.944C120.527 64.584 122.119 66.16 124.431 66.16C126.039 66.16 127.591 65.272 127.895 63.584H126.503C126.295 64.52 125.463 65.016 124.407 65.016C122.799 65.016 122.023 63.776 122.023 62.208ZM122.031 61.208C122.023 59.976 122.759 58.688 124.319 58.688C125.815 58.688 126.527 59.784 126.527 61.208H122.031ZM133.325 57.568C130.885 57.568 129.517 59.32 129.517 61.896C129.517 64.672 131.085 66.16 133.325 66.16C135.077 66.16 136.421 65.112 136.637 63.448H135.349C135.205 64.28 134.485 65.032 133.349 65.032C131.765 65.032 130.933 63.792 130.933 61.88C130.933 59.768 131.917 58.76 133.333 58.76C134.469 58.76 135.189 59.472 135.333 60.344H136.645C136.421 58.656 135.101 57.568 133.325 57.568ZM142.534 58.808V57.72H140.67V55.32H139.582L139.222 57.728H137.838V58.808H139.182V64C139.182 65.328 139.638 66.04 141.358 66.04C141.958 66.04 142.374 65.984 142.582 65.904V64.912H141.678C140.902 64.912 140.67 64.832 140.67 63.952V58.808H142.534ZM146.056 54.44H144.544V55.976H146.056V54.44ZM146.016 57.728H144.584V66H146.016V57.728ZM151.809 66.16C154.273 66.16 155.577 64.424 155.577 61.896C155.577 59.112 154.097 57.568 151.817 57.568C149.369 57.568 148.017 59.304 148.017 61.896C148.017 64.656 149.513 66.16 151.809 66.16ZM151.817 64.992C150.161 64.992 149.489 63.608 149.489 61.864C149.489 59.896 150.313 58.728 151.817 58.728C153.441 58.728 154.113 60.096 154.113 61.864C154.113 63.808 153.297 64.992 151.817 64.992ZM157.544 66H159.016V60.472C159.016 59.36 160.04 58.832 161.16 58.832C162.24 58.832 162.984 59.448 162.984 60.736V66H164.464V60.592C164.464 58.512 163.136 57.608 161.568 57.608C160.24 57.608 159.384 58.24 158.976 58.928V57.728H157.544V66Z" fill="#00203E"/>
<g style="mix-blend-mode:color">
<rect width="320" height="120" fill="#808080"/>
</g>
<g style="mix-blend-mode:color">
<rect width="320" height="120" fill="#00284D"/>
</g>
</svg>
