<svg width="320" height="120" viewBox="0 0 320 120" fill="none" xmlns="http://www.w3.org/2000/svg">
<rect width="320" height="120" fill="#C0CEDB"/>
<rect width="288" height="38.4" transform="translate(16 41)" fill="#00284D"/>
<g clip-path="url(#clip0)">
<path d="M139.018 58.8858H140.697V63.44H141.822V58.8858H143.461V57.8874H139.018V58.8858ZM144.448 61.712H147.117V61.4086C147.117 60.2182 146.48 59.3926 145.266 59.3926C144.049 59.3926 143.339 60.3066 143.339 61.5008C143.339 62.7334 144.145 63.5168 145.324 63.5168C146.15 63.5168 146.979 63.0291 147.113 62.1805H146.104C145.988 62.553 145.681 62.7066 145.297 62.7066C144.76 62.7066 144.445 62.3187 144.448 61.712ZM144.448 61.0438C144.445 60.6061 144.748 60.176 145.263 60.176C145.804 60.176 146.069 60.5638 146.069 61.0438H144.448ZM151.519 63.44L149.991 61.3702L151.396 59.4694H150.225L149.403 60.583L148.578 59.4694H147.402L148.796 61.3702L147.272 63.44H148.447L149.395 62.1459L150.344 63.44H151.519ZM154.446 60.249V59.4656H153.563V58.2714H152.764L152.48 59.4694H151.8V60.249H152.446V62.4109C152.446 63.0483 152.714 63.4822 153.763 63.4822C154.15 63.4822 154.35 63.4323 154.458 63.3862V62.695H153.924C153.678 62.695 153.571 62.6566 153.571 62.3648L153.563 60.249H154.446ZM157.12 57.8874V63.44H160.66V62.4915H158.249V57.8874H157.12ZM162.501 57.8912H161.41V58.9011H162.501V57.8912ZM162.493 59.4694H161.422V63.44H162.493V59.4694ZM163.48 63.44H164.601V60.8979C164.601 60.5101 164.974 60.3142 165.342 60.3142C165.707 60.3142 166.003 60.5293 166.003 60.9594V63.44H167.124V60.8211C167.124 59.8381 166.46 59.4349 165.734 59.4349C165.108 59.4349 164.763 59.7421 164.582 60.0301V59.4694H163.48V63.44ZM171.869 63.44L170.375 61.0515L171.819 59.4694H170.613L169.154 61.1168V57.7338H168.032V63.44H169.154V62.288L169.68 61.7274L170.751 63.44H171.869Z" fill="white"/>
<path d="M188.379 58.8858H190.057V63.44H191.182V58.8858H192.821V57.8874H188.379V58.8858ZM193.809 61.712H196.477V61.4086C196.477 60.2182 195.84 59.3926 194.627 59.3926C193.409 59.3926 192.699 60.3066 192.699 61.5008C192.699 62.7334 193.505 63.5168 194.684 63.5168C195.51 63.5168 196.339 63.0291 196.474 62.1805H195.464C195.348 62.553 195.041 62.7066 194.657 62.7066C194.12 62.7066 193.805 62.3187 193.809 61.712ZM193.809 61.0438C193.805 60.6061 194.108 60.176 194.623 60.176C195.164 60.176 195.429 60.5638 195.429 61.0438H193.809ZM200.879 63.44L199.351 61.3702L200.756 59.4694H199.585L198.763 60.583L197.938 59.4694H196.763L198.156 61.3702L196.632 63.44H197.807L198.756 62.1459L199.704 63.44H200.879ZM203.806 60.249V59.4656H202.923V58.2714H202.124L201.84 59.4694H201.161V60.249H201.806V62.4109C201.806 63.0483 202.074 63.4822 203.123 63.4822C203.511 63.4822 203.71 63.4323 203.818 63.3862V62.695H203.284C203.038 62.695 202.931 62.6566 202.931 62.3648L202.923 60.249H203.806ZM206.48 57.8874V63.44H210.02V62.4915H207.609V57.8874H206.48ZM211.861 57.8912H210.77V58.9011H211.861V57.8912ZM211.853 59.4694H210.782V63.44H211.853V59.4694ZM212.84 63.44H213.961V60.8979C213.961 60.5101 214.334 60.3142 214.703 60.3142C215.067 60.3142 215.363 60.5293 215.363 60.9594V63.44H216.484V60.8211C216.484 59.8381 215.82 59.4349 215.094 59.4349C214.468 59.4349 214.123 59.7421 213.942 60.0301V59.4694H212.84V63.44ZM221.229 63.44L219.735 61.0515L221.179 59.4694H219.973L218.514 61.1168V57.7338H217.393V63.44H218.514V62.288L219.04 61.7274L220.111 63.44H221.229Z" fill="white"/>
<g filter="url(#filter0_d)">
<path d="M236.72 54.44C236.72 52.3192 238.439 50.6 240.56 50.6H290.08C292.201 50.6 293.92 52.3192 293.92 54.44V66.44C293.92 68.5607 292.201 70.28 290.08 70.28H240.56C238.439 70.28 236.72 68.5607 236.72 66.44V54.44Z" fill="white"/>
<path d="M248.395 63.41C248.545 63.26 248.53 63.035 248.395 62.885L246.58 61.16H250.9C251.095 61.16 251.26 61.01 251.26 60.8V60.32C251.26 60.125 251.095 59.96 250.9 59.96H246.58L248.395 58.25C248.53 58.1 248.545 57.875 248.395 57.725L248.065 57.395C247.93 57.26 247.69 57.26 247.555 57.395L244.645 60.32C244.495 60.455 244.495 60.68 244.645 60.815L247.555 63.74C247.69 63.875 247.915 63.875 248.065 63.74L248.395 63.41Z" fill="white"/>
<path d="M254.121 63.44H255.964C257.381 63.44 258.099 62.9523 258.099 61.9462C258.099 61.3203 257.807 60.7981 256.932 60.6099C257.692 60.3411 257.961 59.9226 257.961 59.335C257.961 58.3981 257.254 57.8874 255.907 57.8874H254.121V63.44ZM254.831 60.3296V58.4749H255.941C256.728 58.4749 257.274 58.7782 257.274 59.4234C257.274 60.1261 256.617 60.3296 256.041 60.3296H254.831ZM254.831 62.8486V60.9325H256.041C256.786 60.9325 257.377 61.2205 257.377 61.9155C257.377 62.5491 256.882 62.8486 255.957 62.8486H254.831ZM260.587 63.5168C261.147 63.5206 261.631 63.2749 261.777 62.6797L261.85 63.44H262.415V59.4694H261.708V62.0538C261.708 62.6566 261.32 62.9638 260.737 62.9638C260.088 62.9638 259.773 62.6106 259.773 62.0922V59.4694H259.062V62.1651C259.062 63.0598 259.761 63.5091 260.587 63.5168ZM265.602 59.9878V59.4656H264.708V58.3136H264.185L264.013 59.4694H263.348V59.9878H263.993V62.48C263.993 63.1174 264.212 63.4592 265.038 63.4592C265.326 63.4592 265.526 63.4323 265.625 63.3939V62.9178H265.192C264.819 62.9178 264.708 62.8794 264.708 62.457V59.9878H265.602ZM268.205 59.9878V59.4656H267.31V58.3136H266.788L266.615 59.4694H265.951V59.9878H266.596V62.48C266.596 63.1174 266.815 63.4592 267.64 63.4592C267.928 63.4592 268.128 63.4323 268.228 63.3939V62.9178H267.794C267.422 62.9178 267.31 62.8794 267.31 62.457V59.9878H268.205ZM270.655 63.5168C271.838 63.5168 272.463 62.6835 272.463 61.4701C272.463 60.1338 271.753 59.3926 270.659 59.3926C269.484 59.3926 268.835 60.2259 268.835 61.4701C268.835 62.7949 269.553 63.5168 270.655 63.5168ZM270.659 62.9562C269.864 62.9562 269.541 62.2918 269.541 61.4547C269.541 60.5101 269.937 59.9494 270.659 59.9494C271.438 59.9494 271.761 60.6061 271.761 61.4547C271.761 62.3878 271.369 62.9562 270.659 62.9562ZM273.408 63.44H274.114V60.7866C274.114 60.2528 274.606 59.9994 275.143 59.9994C275.662 59.9994 276.019 60.295 276.019 60.9133V63.44H276.729V60.8442C276.729 59.8458 276.092 59.4118 275.339 59.4118C274.702 59.4118 274.291 59.7152 274.095 60.0454V59.4694H273.408V63.44Z" fill="#00284D"/>
<path d="M282.23 57.725C282.08 57.875 282.095 58.1 282.23 58.25L284.045 59.96H279.74C279.53 59.96 279.38 60.125 279.38 60.32V60.8C279.38 61.01 279.53 61.16 279.74 61.16H284.045L282.23 62.885C282.095 63.035 282.095 63.26 282.23 63.41L282.56 63.74C282.71 63.875 282.935 63.875 283.07 63.74L285.995 60.815C286.13 60.68 286.13 60.455 285.995 60.305L283.07 57.395C282.935 57.26 282.71 57.26 282.56 57.395L282.23 57.725Z" fill="white"/>
</g>
</g>
<path d="M27.0256 52.4102V67.68H37.2372V64.3008H31.1335V52.4102H27.0256Z" fill="white"/>
<path d="M43.8715 67.8912C47.2718 67.8912 49.426 65.5469 49.426 62.2944C49.426 58.9785 47.3035 56.5497 43.8926 56.5497C40.6401 56.5497 38.338 58.8518 38.338 62.2944C38.338 65.568 40.4923 67.8912 43.8715 67.8912ZM43.8926 64.9133C42.562 64.9133 42.3297 63.3081 42.3297 62.1465C42.3297 60.9638 42.562 59.4854 43.8926 59.4854C45.202 59.4854 45.4344 60.9638 45.4344 62.1465C45.4344 63.3081 45.202 64.9133 43.8926 64.9133Z" fill="white"/>
<path d="M56.278 71.2915C60.4175 71.2915 62.5084 69.7286 62.5084 67.6166C62.5084 65.927 61.1778 64.5542 58.1577 64.343C57.2284 64.2797 56.3625 64.2374 55.9823 64.2163C54.9052 64.1529 54.2294 64.1529 54.2294 63.8573C54.2294 63.7517 54.3138 63.7094 54.525 63.6672C54.8841 63.7094 55.6444 63.7305 55.9823 63.7305C59.446 63.7305 61.2834 61.8297 61.2834 59.9712C61.2834 59.8445 61.2412 59.4432 61.1567 59.1264L63.0153 58.8729L63.0364 55.9584C61.8326 56.4653 60.2697 57.0566 59.446 57.3734C58.6434 56.951 57.7986 56.592 56.2358 56.592C53.2578 56.592 50.6812 57.7958 50.6812 59.9923C50.6812 61.1539 51.4415 62.5478 53.0255 63.2448C51.3148 63.4771 50.5122 64.3008 50.5122 65.1667C50.5122 66.3705 51.7372 66.8352 52.054 67.0041C51.885 67.0464 49.8786 67.3632 49.8786 68.7782C49.8786 70.1721 51.9695 71.2915 56.278 71.2915ZM56.109 61.5763C55.3276 61.5763 54.7996 60.9638 54.7996 60.1401C54.7996 59.3165 55.3276 58.5984 56.109 58.5984C56.8905 58.5984 57.4185 59.3165 57.4185 60.1401C57.4185 60.9638 56.8905 61.5763 56.109 61.5763ZM56.9116 69.1373C54.8207 69.1373 53.8703 68.9894 53.8703 68.2925C53.8703 67.9334 54.1449 67.4477 55.2854 67.511L57.2706 67.6377C58.1154 67.7011 58.6223 67.9968 58.6223 68.4614C58.6223 68.8627 58.3477 69.1373 56.9116 69.1373Z" fill="white"/>
<path d="M68.9927 67.8912C72.393 67.8912 74.5473 65.5469 74.5473 62.2944C74.5473 58.9785 72.4247 56.5497 69.0138 56.5497C65.7614 56.5497 63.4593 58.8518 63.4593 62.2944C63.4593 65.568 65.6135 67.8912 68.9927 67.8912ZM69.0138 64.9133C67.6833 64.9133 67.451 63.3081 67.451 62.1465C67.451 60.9638 67.6833 59.4854 69.0138 59.4854C70.3233 59.4854 70.5556 60.9638 70.5556 62.1465C70.5556 63.3081 70.3233 64.9133 69.0138 64.9133Z" fill="white"/>
<g style="mix-blend-mode:color">
<rect width="320" height="120" fill="#808080"/>
</g>
<g style="mix-blend-mode:color">
<rect width="320" height="120" fill="#00284D"/>
</g>
<defs>
<filter id="filter0_d" x="236.72" y="50.6" width="57.2" height="21.68" filterUnits="userSpaceOnUse" color-interpolation-filters="sRGB">
<feFlood flood-opacity="0" result="BackgroundImageFix"/>
<feColorMatrix in="SourceAlpha" type="matrix" values="0 0 0 0 0 0 0 0 0 0 0 0 0 0 0 0 0 0 127 0"/>
<feOffset dy="2"/>
<feColorMatrix type="matrix" values="0 0 0 0 0.423529 0 0 0 0 0.458824 0 0 0 0 0.490196 0 0 0 0.35 0"/>
<feBlend mode="normal" in2="BackgroundImageFix" result="effect1_dropShadow"/>
<feBlend mode="normal" in="SourceGraphic" in2="effect1_dropShadow" result="shape"/>
</filter>
<clipPath id="clip0">
<rect width="155.92" height="19.68" fill="white" transform="translate(138 50.6)"/>
</clipPath>
</defs>
</svg>
