<svg width="320" height="120" viewBox="0 0 320 120" fill="none" xmlns="http://www.w3.org/2000/svg">
<rect width="320" height="120" fill="#C0CEDB"/>
<rect x="21" y="53" width="278" height="38" rx="3" fill="white"/>
<path d="M281.121 72.625C280.52 72.625 280.219 73.3359 280.656 73.7461L283.91 77C284.156 77.2734 284.566 77.2734 284.84 77L288.094 73.7461C288.504 73.3359 288.203 72.625 287.629 72.625H281.121ZM288.094 69.7539L284.84 66.5C284.566 66.2539 284.156 66.2539 283.91 66.5L280.656 69.7539C280.219 70.1914 280.52 70.875 281.121 70.875H287.629C288.203 70.875 288.504 70.1914 288.094 69.7539Z" fill="#6C757D"/>
<path d="M42.904 73.4L30.968 73.408V74.576L42.904 74.56V73.4ZM55.2216 78.16C57.9656 78.16 59.5736 76.76 59.5736 75.016C59.5736 73.76 59.0856 72.232 56.7816 71.728L54.5816 71.2C53.0696 70.832 52.5976 70.352 52.5976 69.512C52.5976 68.216 53.8696 67.544 55.1736 67.544C56.5416 67.544 57.7256 68.072 57.8776 69.64H59.4056C59.3896 67.888 57.9416 66.288 55.1656 66.288C52.7576 66.288 51.0296 67.656 51.0376 69.656C51.0536 71.24 52.0776 72.184 53.7816 72.56L56.0536 73.088C57.3336 73.384 58.0616 73.984 58.0616 75.032C58.0616 76.208 56.8376 76.928 55.2136 76.928C53.7576 76.928 52.5336 76.24 52.2456 74.928H50.6936C50.9896 77.056 53.0376 78.16 55.2216 78.16ZM62.8589 74.208H68.7869V73.664C68.7869 71.152 67.4909 69.568 65.1629 69.568C62.7549 69.568 61.3629 71.336 61.3629 73.944C61.3629 76.584 62.9549 78.16 65.2669 78.16C66.8749 78.16 68.4269 77.272 68.7309 75.584H67.3389C67.1309 76.52 66.2989 77.016 65.2429 77.016C63.6349 77.016 62.8589 75.776 62.8589 74.208ZM62.8669 73.208C62.8589 71.976 63.5949 70.688 65.1549 70.688C66.6509 70.688 67.3629 71.784 67.3629 73.208H62.8669ZM72.9214 78.104C73.1294 78.104 73.4174 78.056 73.6654 77.976V77.016L73.2174 77.008C72.6334 76.968 72.2894 76.568 72.2894 75.728V66.112H70.8334V75.872C70.8334 77.032 71.1374 78.104 72.9214 78.104ZM76.3589 74.208H82.2869V73.664C82.2869 71.152 80.9909 69.568 78.6629 69.568C76.2549 69.568 74.8629 71.336 74.8629 73.944C74.8629 76.584 76.4549 78.16 78.7669 78.16C80.3749 78.16 81.9269 77.272 82.2309 75.584H80.8389C80.6309 76.52 79.7989 77.016 78.7429 77.016C77.1349 77.016 76.3589 75.776 76.3589 74.208ZM76.3669 73.208C76.3589 71.976 77.0949 70.688 78.6549 70.688C80.1509 70.688 80.8629 71.784 80.8629 73.208H76.3669ZM87.6614 69.568C85.2214 69.568 83.8534 71.32 83.8534 73.896C83.8534 76.672 85.4214 78.16 87.6614 78.16C89.4134 78.16 90.7574 77.112 90.9734 75.448H89.6854C89.5414 76.28 88.8214 77.032 87.6854 77.032C86.1014 77.032 85.2694 75.792 85.2694 73.88C85.2694 71.768 86.2534 70.76 87.6694 70.76C88.8054 70.76 89.5254 71.472 89.6694 72.344H90.9814C90.7574 70.656 89.4374 69.568 87.6614 69.568ZM96.8695 70.808V69.72H95.0055V67.32H93.9175L93.5575 69.728H92.1735V70.808H93.5175V76C93.5175 77.328 93.9735 78.04 95.6935 78.04C96.2935 78.04 96.7095 77.984 96.9175 77.904V76.912H96.0135C95.2375 76.912 95.0055 76.832 95.0055 75.952V70.808H96.8695ZM116.451 73.4L104.515 73.408V74.576L116.451 74.56V73.4Z" fill="#495057"/>
<rect x="21" y="53" width="278" height="38" rx="3" stroke="#6C757D" stroke-width="2"/>
<path d="M32.776 37.344L33.872 36.576L32.32 34.696L34.504 34.04L34.128 32.872L31.968 33.816L32.152 31.432H30.824L30.992 33.808L28.864 32.912L28.44 34.08L30.68 34.704L29.096 36.632L30.176 37.384L31.488 35.232L32.776 37.344Z" fill="#D80004"/>
<path d="M40.1268 31.432L40.1188 43H47.3188V41.32H42.0948V31.432H40.1268ZM51.2616 43.16C52.4296 43.16 53.3496 42.752 53.9496 41.512L54.1096 43H55.7496V37.2C55.7496 35.536 54.7336 34.568 52.3736 34.568C50.3336 34.568 48.9576 35.424 48.8696 37.128H50.5256C50.7416 36.272 51.4776 35.936 52.2856 35.92C53.3656 35.912 53.8776 36.44 53.8776 37.312V37.872L52.6376 37.904C49.7576 37.952 48.5016 38.872 48.5016 40.696C48.5016 42.264 49.6696 43.16 51.2616 43.16ZM51.8936 41.84C51.0136 41.84 50.3576 41.344 50.3576 40.496C50.3576 39.392 51.3576 38.984 52.8616 38.968L53.8776 38.952V40.256C53.8696 41.064 52.8536 41.84 51.8936 41.84ZM62.1908 43.16C64.5108 43.16 65.7028 41.44 65.7028 38.824C65.7028 36.08 64.4228 34.568 62.3668 34.568C61.0068 34.568 60.1188 35.304 59.7748 35.936V31.112H57.8228V43H59.2548L59.4788 41.304C59.7348 42.096 60.4228 43.16 62.1908 43.16ZM61.7908 41.728C60.3908 41.728 59.7748 40.888 59.7748 38.776C59.7908 36.976 60.3908 36.016 61.7668 36.016C63.0468 36.016 63.7828 36.96 63.7828 38.776C63.7828 40.864 62.9508 41.728 61.7908 41.728ZM69.0394 39.312H74.7594V38.72C74.7594 36.224 73.4474 34.568 71.0074 34.568C68.5274 34.568 67.0954 36.416 67.0954 38.952C67.0954 41.552 68.7274 43.16 71.1194 43.16C72.7914 43.16 74.4394 42.2 74.7274 40.472H72.9514C72.7274 41.32 71.9994 41.72 71.0794 41.72C69.7434 41.72 69.0314 40.72 69.0394 39.312ZM69.0314 38.104C69.0314 37.04 69.7114 35.968 70.9994 35.968C72.2954 35.968 72.9194 36.904 72.9194 38.104H69.0314ZM79.0036 43.12C79.2676 43.12 79.5876 43.056 79.8756 42.96V41.736L79.4596 41.72C78.8036 41.664 78.5236 41.264 78.5236 40.544V31.112H76.6196V40.768C76.6196 41.944 76.8596 43.12 79.0036 43.12Z" fill="#00284D"/>
<g style="mix-blend-mode:color">
<rect width="320" height="120" fill="#808080"/>
</g>
<g style="mix-blend-mode:color">
<rect width="320" height="120" fill="#00284D"/>
</g>
</svg>
