<svg width="320" height="120" viewBox="0 0 320 120" fill="none" xmlns="http://www.w3.org/2000/svg">
<rect width="320" height="120" fill="#C0CEDB"/>
<rect opacity="0.5" x="4" y="4" width="312" height="112" fill="white"/>
<path d="M204 60C204 84.3005 184.301 104 160 104C135.699 104 116 84.3005 116 60C116 35.6995 135.699 16 160 16C184.301 16 204 35.6995 204 60ZM128.32 60C128.32 77.4964 142.504 91.68 160 91.68C177.496 91.68 191.68 77.4964 191.68 60C191.68 42.5036 177.496 28.32 160 28.32C142.504 28.32 128.32 42.5036 128.32 60Z" fill="#C0CEDB"/>
<path d="M183 60C183 72.7025 172.703 83 160 83C147.297 83 137 72.7025 137 60C137 47.2975 147.297 37 160 37C172.703 37 183 47.2975 183 60ZM148.5 60C148.5 66.3513 153.649 71.5 160 71.5C166.351 71.5 171.5 66.3513 171.5 60C171.5 53.6487 166.351 48.5 160 48.5C153.649 48.5 148.5 53.6487 148.5 60Z" fill="#00284D"/>
<g style="mix-blend-mode:color">
<rect width="320" height="120" fill="#808080"/>
</g>
<g style="mix-blend-mode:color">
<rect width="320" height="120" fill="#00284D"/>
</g>
</svg>
