<svg width="320" height="120" viewBox="0 0 320 120" fill="none" xmlns="http://www.w3.org/2000/svg">
<rect width="320" height="120" fill="#C0CEDB"/>
<rect width="287" height="38" transform="translate(16 43)" fill="white"/>
<rect x="16" y="80" width="287" height="1" fill="#00284D"/>
<path d="M44.75 63.6562L39 68.4062V73.5C39 73.7812 39.2188 74 39.5 74H43C43.25 74 43.4688 73.7812 43.4688 73.5V70.5C43.4688 70.25 43.7188 70 43.9688 70H45.9688C46.25 70 46.4688 70.25 46.4688 70.5V73.5C46.4688 73.7812 46.7188 74 46.9688 74H50.5C50.75 74 51 73.7812 51 73.5V68.375L45.2188 63.6562C45.1562 63.5938 45.0625 63.5625 45 63.5625C44.9062 63.5625 44.8125 63.5938 44.75 63.6562ZM53.8438 66.875L51.25 64.7188V60.4062C51.25 60.1875 51.0625 60.0312 50.875 60.0312H49.125C48.9062 60.0312 48.75 60.1875 48.75 60.4062V62.6562L45.9375 60.3438C45.6875 60.1562 45.3438 60.0312 45 60.0312C44.625 60.0312 44.2812 60.1562 44.0312 60.3438L36.125 66.875C36.0312 66.9375 35.9688 67.0625 35.9688 67.1562C35.9688 67.25 36.0312 67.3438 36.0625 67.4062L36.875 68.375C36.9375 68.4688 37.0312 68.5 37.1562 68.5C37.25 68.5 37.3438 68.4688 37.4062 68.4062L44.75 62.375C44.8125 62.3125 44.9062 62.2812 45 62.2812C45.0625 62.2812 45.1562 62.3125 45.2188 62.375L52.5625 68.4062C52.625 68.4688 52.7188 68.5 52.8125 68.5C52.9375 68.5 53.0312 68.4688 53.0938 68.375L53.9062 67.4062C53.9688 67.3438 54 67.25 54 67.1562C54 67.0625 53.9375 66.9375 53.8438 66.875Z" fill="#185AE3"/>
<path d="M66.5 60H68.5L63 74H61L66.5 60Z" fill="#6C757D"/>
<path d="M79.3648 71.128C78.7845 71.128 78.232 71.032 77.7072 70.84C77.1867 70.6437 76.7472 70.3536 76.3888 69.9696C76.0347 69.5856 75.8192 69.1099 75.7424 68.5424H76.984C77.0992 69.0672 77.3787 69.4661 77.8224 69.7392C78.2661 70.008 78.7781 70.1424 79.3584 70.1424C80.0112 70.1424 80.5531 70.008 80.984 69.7392C81.4192 69.4661 81.6368 69.0949 81.6368 68.6256C81.6368 68.2075 81.496 67.8747 81.2144 67.6272C80.9371 67.3755 80.5424 67.1899 80.0304 67.0704L78.2128 66.648C77.5301 66.4987 76.9947 66.232 76.6064 65.848C76.2224 65.464 76.0261 64.9563 76.0176 64.3248C76.0176 63.7915 76.1584 63.3221 76.44 62.9168C76.7216 62.5115 77.112 62.1957 77.6112 61.9696C78.1104 61.7435 78.68 61.6304 79.32 61.6304C80.0581 61.6304 80.6789 61.7563 81.1824 62.008C81.6859 62.2597 82.0656 62.5904 82.3216 63C82.5776 63.4096 82.7077 63.8469 82.712 64.312H81.4896C81.4512 63.8939 81.3275 63.5632 81.1184 63.32C80.9136 63.0725 80.6533 62.8976 80.3376 62.7952C80.0261 62.6885 79.6891 62.6352 79.3264 62.6352C78.9765 62.6352 78.6437 62.6949 78.328 62.8144C78.0165 62.9339 77.7605 63.1109 77.56 63.3456C77.3637 63.576 77.2656 63.864 77.2656 64.2096C77.2656 64.5467 77.3787 64.8197 77.6048 65.0288C77.8309 65.2336 78.2469 65.4107 78.8528 65.56L80.6128 65.9824C81.2272 66.1147 81.6944 66.3259 82.0144 66.616C82.3344 66.9019 82.552 67.2219 82.6672 67.576C82.7867 67.9301 82.8464 68.2757 82.8464 68.6128C82.8464 69.0779 82.7077 69.5003 82.4304 69.88C82.1573 70.2597 81.7605 70.5627 81.24 70.7888C80.7195 71.0149 80.0944 71.128 79.3648 71.128ZM85.449 67.9664C85.449 68.3845 85.5173 68.7643 85.6538 69.1056C85.7946 69.4427 86.0058 69.7115 86.2874 69.912C86.5733 70.1125 86.9295 70.2128 87.3562 70.2128C87.7786 70.2128 88.1413 70.1147 88.4442 69.9184C88.7514 69.7221 88.9477 69.4384 89.033 69.0672H90.153C90.0719 69.5152 89.8927 69.8928 89.6154 70.2C89.3381 70.5072 89.0031 70.7397 88.6106 70.8976C88.2181 71.0512 87.8085 71.128 87.3818 71.128C86.7631 71.128 86.2191 70.9936 85.7498 70.7248C85.2805 70.456 84.9135 70.0699 84.649 69.5664C84.3845 69.0629 84.2522 68.4592 84.2522 67.7552C84.2522 67.0597 84.3717 66.4496 84.6106 65.9248C84.8495 65.4 85.1951 64.9904 85.6474 64.696C86.1039 64.4016 86.6522 64.2544 87.2922 64.2544C88.2266 64.2544 88.9434 64.5509 89.4426 65.144C89.9418 65.7328 90.1914 66.5285 90.1914 67.5312V67.9664H85.449ZM85.4554 67.1664H89.0522C89.0522 66.5989 88.9071 66.1211 88.617 65.7328C88.3269 65.3445 87.8831 65.1504 87.2858 65.1504C86.8719 65.1504 86.5285 65.2507 86.2554 65.4512C85.9823 65.6475 85.7797 65.9013 85.6474 66.2128C85.5151 66.52 85.4511 66.8379 85.4554 67.1664ZM94.4535 64.2544C95.166 64.2544 95.7655 64.4571 96.2519 64.8624C96.7383 65.2635 97.0263 65.8011 97.1159 66.4752H96.0663C96.0066 66.1296 95.838 65.8331 95.5607 65.5856C95.2834 65.3339 94.9164 65.208 94.4599 65.208C93.8967 65.208 93.4359 65.4128 93.0775 65.8224C92.7234 66.232 92.5463 66.8592 92.5463 67.704C92.5463 68.4677 92.7084 69.08 93.0327 69.5408C93.3612 69.9973 93.8434 70.2256 94.4791 70.2256C94.9314 70.2256 95.2962 70.0976 95.5735 69.8416C95.8508 69.5856 96.0172 69.2912 96.0727 68.9584H97.1031C97.0178 69.624 96.7298 70.1531 96.2391 70.5456C95.7527 70.9339 95.1575 71.128 94.4535 71.128C93.8562 71.128 93.3292 70.9979 92.8727 70.7376C92.4162 70.4773 92.0578 70.0933 91.7975 69.5856C91.5372 69.0779 91.4071 68.4549 91.4071 67.7168C91.4071 67.0299 91.5244 66.4261 91.7591 65.9056C91.998 65.3851 92.3436 64.9797 92.7959 64.6896C93.2524 64.3995 93.805 64.2544 94.4535 64.2544ZM101.866 65.2464H100.375V69.3616C100.375 69.7157 100.431 69.9333 100.542 70.0144C100.657 70.0912 100.87 70.1296 101.182 70.1296H101.905V70.9232C101.819 70.9531 101.696 70.9787 101.534 71C101.371 71.0213 101.169 71.032 100.926 71.032C100.239 71.032 99.7756 70.8933 99.5367 70.616C99.302 70.3387 99.1847 69.9333 99.1847 69.4V65.2464H98.1095V64.3824H99.2167L99.5047 62.456H100.375V64.376H101.866V65.2464ZM104.872 61.752V62.9808H103.663V61.752H104.872ZM104.847 64.3824V71H103.701V64.3824H104.847ZM109.56 71.128C108.642 71.128 107.906 70.8357 107.352 70.2512C106.797 69.6667 106.52 68.8219 106.52 67.7168C106.52 67.0256 106.637 66.4197 106.872 65.8992C107.106 65.3787 107.45 64.9755 107.902 64.6896C108.354 64.3995 108.907 64.2544 109.56 64.2544C110.473 64.2544 111.202 64.5531 111.748 65.1504C112.295 65.7477 112.568 66.6032 112.568 67.7168C112.568 68.3909 112.452 68.984 112.222 69.496C111.996 70.008 111.659 70.4091 111.211 70.6992C110.767 70.9851 110.217 71.128 109.56 71.128ZM109.56 70.1936C110.153 70.1936 110.607 69.9717 110.923 69.528C111.239 69.08 111.396 68.4677 111.396 67.6912C111.396 67.2176 111.332 66.7931 111.204 66.4176C111.081 66.0379 110.884 65.7371 110.616 65.5152C110.347 65.2933 109.995 65.1824 109.56 65.1824C108.958 65.1824 108.497 65.4043 108.177 65.848C107.857 66.2875 107.697 66.9019 107.697 67.6912C107.697 68.1563 107.761 68.5787 107.889 68.9584C108.017 69.3381 108.218 69.6389 108.491 69.8608C108.764 70.0827 109.12 70.1936 109.56 70.1936ZM114.117 71V64.3824H115.262V65.3424C115.424 65.0651 115.678 64.8197 116.024 64.6064C116.37 64.3931 116.807 64.2864 117.336 64.2864C117.754 64.2864 118.138 64.3696 118.488 64.536C118.842 64.7024 119.124 64.9627 119.333 65.3168C119.546 65.6667 119.653 66.1189 119.653 66.6736V71H118.469V66.7888C118.469 66.2725 118.332 65.8907 118.059 65.6432C117.79 65.3915 117.44 65.2656 117.01 65.2656C116.711 65.2656 116.431 65.3147 116.171 65.4128C115.911 65.5067 115.7 65.6517 115.538 65.848C115.375 66.04 115.294 66.2832 115.294 66.5776V71H114.117Z" fill="#00284D"/>
<path d="M132.5 60H134.5L129 74H127L132.5 60Z" fill="#6C757D"/>
<path d="M152.398 66.7312H147.406V71H146.222V61.7456H147.406V65.688H152.398V61.7456H153.582V71H152.398V66.7312ZM156.537 67.9664C156.537 68.3845 156.605 68.7643 156.741 69.1056C156.882 69.4427 157.093 69.7115 157.375 69.912C157.661 70.1125 158.017 70.2128 158.444 70.2128C158.866 70.2128 159.229 70.1147 159.532 69.9184C159.839 69.7221 160.035 69.4384 160.121 69.0672H161.241C161.159 69.5152 160.98 69.8928 160.703 70.2C160.426 70.5072 160.091 70.7397 159.698 70.8976C159.306 71.0512 158.896 71.128 158.469 71.128C157.851 71.128 157.307 70.9936 156.837 70.7248C156.368 70.456 156.001 70.0699 155.737 69.5664C155.472 69.0629 155.34 68.4592 155.34 67.7552C155.34 67.0597 155.459 66.4496 155.698 65.9248C155.937 65.4 156.283 64.9904 156.735 64.696C157.191 64.4016 157.74 64.2544 158.38 64.2544C159.314 64.2544 160.031 64.5509 160.53 65.144C161.029 65.7328 161.279 66.5285 161.279 67.5312V67.9664H156.537ZM156.543 67.1664H160.14C160.14 66.5989 159.995 66.1211 159.705 65.7328C159.414 65.3445 158.971 65.1504 158.373 65.1504C157.959 65.1504 157.616 65.2507 157.343 65.4512C157.07 65.6475 156.867 65.9013 156.735 66.2128C156.603 66.52 156.539 66.8379 156.543 67.1664ZM162.904 71V64.3824H164.031V65.656C164.197 65.1824 164.459 64.8304 164.818 64.6C165.18 64.3696 165.571 64.2544 165.989 64.2544C166.087 64.2544 166.181 64.2608 166.271 64.2736C166.364 64.2864 166.439 64.3077 166.495 64.3376V65.4832C166.431 65.4533 166.347 65.4341 166.245 65.4256C166.147 65.4128 166.064 65.4064 165.995 65.4064C165.471 65.3723 165.02 65.4725 164.645 65.7072C164.27 65.9419 164.082 66.3344 164.082 66.8848V71H162.904ZM168.562 67.9664C168.562 68.3845 168.63 68.7643 168.766 69.1056C168.907 69.4427 169.118 69.7115 169.4 69.912C169.686 70.1125 170.042 70.2128 170.469 70.2128C170.891 70.2128 171.254 70.1147 171.557 69.9184C171.864 69.7221 172.06 69.4384 172.146 69.0672H173.266C173.184 69.5152 173.005 69.8928 172.728 70.2C172.451 70.5072 172.116 70.7397 171.723 70.8976C171.331 71.0512 170.921 71.128 170.494 71.128C169.876 71.128 169.332 70.9936 168.862 70.7248C168.393 70.456 168.026 70.0699 167.762 69.5664C167.497 69.0629 167.365 68.4592 167.365 67.7552C167.365 67.0597 167.484 66.4496 167.723 65.9248C167.962 65.4 168.308 64.9904 168.76 64.696C169.216 64.4016 169.765 64.2544 170.405 64.2544C171.339 64.2544 172.056 64.5509 172.555 65.144C173.054 65.7328 173.304 66.5285 173.304 67.5312V67.9664H168.562ZM168.568 67.1664H172.165C172.165 66.5989 172.02 66.1211 171.73 65.7328C171.439 65.3445 170.996 65.1504 170.398 65.1504C169.984 65.1504 169.641 65.2507 169.368 65.4512C169.095 65.6475 168.892 65.9013 168.76 66.2128C168.628 66.52 168.564 66.8379 168.568 67.1664Z" fill="#00284D"/>
<path d="M195.875 66.5625C194.188 63.25 190.812 61 187 61C183.156 61 179.781 63.25 178.094 66.5625C178.031 66.6875 178 66.8438 178 67C178 67.1875 178.031 67.3438 178.094 67.4688C179.781 70.7812 183.156 73 187 73C190.812 73 194.188 70.7812 195.875 67.4688C195.938 67.3438 195.969 67.1875 195.969 67.0312C195.969 66.8438 195.938 66.6875 195.875 66.5625ZM187 71.5C184.5 71.5 182.5 69.5 182.5 67C182.5 64.5312 184.5 62.5 187 62.5C189.469 62.5 191.5 64.5312 191.5 67V67.0312C191.5 69.5 189.469 71.5312 187 71.5312V71.5ZM187 64C186.719 64.0312 186.438 64.0625 186.188 64.125C186.375 64.375 186.469 64.6875 186.469 65.0312C186.469 65.8438 185.812 66.5 185 66.5C184.656 66.5 184.344 66.4062 184.094 66.2188C184.031 66.4688 184 66.75 184 67C184 68.6562 185.344 70 187 70C188.656 70 190 68.6562 190 67C190 65.3438 188.656 64.0312 187 64.0312V64Z" fill="#6C757D"/>
<g style="mix-blend-mode:color">
<rect width="320" height="120" fill="#808080"/>
</g>
<g style="mix-blend-mode:color">
<rect width="320" height="120" fill="#00284D"/>
</g>
</svg>
