<svg width="320" height="120" viewBox="0 0 320 120" fill="none" xmlns="http://www.w3.org/2000/svg">
<g clip-path="url(#clip0)">
<rect width="320" height="120" fill="#C0CEDB"/>
<g clip-path="url(#clip1)">
<rect width="504.436" height="204" transform="translate(12 10)" fill="white"/>
<rect opacity="0.05" x="12" y="43.719" width="504.436" height="33.719" fill="#6C757D"/>
<rect opacity="0.05" x="12" y="111.157" width="504.436" height="33.719" fill="#6C757D"/>
<rect opacity="0.25" x="12" y="42.876" width="504.099" height="0.842975" fill="#6C757D"/>
<rect opacity="0.25" x="12" y="11.6859" width="504.099" height="0.842975" fill="#6C757D"/>
<rect opacity="0.25" x="12" y="10.843" width="504.099" height="0.842975" fill="#6C757D"/>
<rect opacity="0.25" x="12" y="43.719" width="504.099" height="0.842975" fill="#6C757D"/>
<rect opacity="0.25" x="12" y="77.438" width="504.099" height="0.842975" fill="#6C757D"/>
<rect opacity="0.25" x="12" y="111.157" width="504.099" height="0.842975" fill="#6C757D"/>
</g>
<path d="M69.9023 28.3993V32.5872H71.8715V22.8356H69.9023V26.747H65.6334V22.8356H63.671V32.5872H65.6334V28.3993H69.9023ZM75.2819 29.5524H79.9689V29.0197C79.9689 26.9291 78.8494 25.4792 76.7183 25.4792C74.5806 25.4792 73.333 27.0842 73.333 29.1815C73.333 31.3463 74.7492 32.722 76.8195 32.722C78.2694 32.722 79.7261 31.8656 79.9621 30.3752H78.1885C77.9862 31.0293 77.4467 31.2991 76.7723 31.2991C75.8282 31.2991 75.2752 30.618 75.2819 29.5524ZM75.2819 28.379C75.2752 27.6102 75.8079 26.8549 76.7116 26.8549C77.6625 26.8549 78.1278 27.5361 78.1278 28.379H75.2819ZM83.4182 32.722C84.3961 32.722 85.1042 32.3983 85.583 31.3868L85.7448 32.5872H87.3903V27.6844C87.3903 26.3154 86.5743 25.4792 84.4433 25.4792C82.6966 25.4792 81.4355 26.1805 81.3613 27.6912H83.0001C83.1957 27.0505 83.7756 26.8145 84.3489 26.8077C85.1379 26.801 85.502 27.1584 85.502 27.7991V28.2172L84.6253 28.2307C82.1639 28.2576 81.0646 29.0669 81.0646 30.591C81.0646 31.9532 82.0897 32.722 83.4182 32.722ZM84.0858 31.4272C83.4384 31.4272 82.9327 31.0428 82.9327 30.3954C82.9327 29.5457 83.8093 29.2557 84.7939 29.2422L85.502 29.2287V30.2605C85.4953 30.8607 84.7939 31.4272 84.0858 31.4272ZM91.6242 32.722C92.9999 32.722 93.6068 31.9263 93.8564 31.1575L94.0789 32.5872H95.5086V22.5659H93.5326V26.5582C93.1955 25.9647 92.4267 25.4792 91.4286 25.4792C89.6347 25.4792 88.6569 26.8752 88.6569 29.0601C88.6569 31.3665 89.7494 32.722 91.6242 32.722ZM92.0558 31.3058C91.1521 31.3058 90.5789 30.5842 90.5789 29.0332C90.5789 27.5023 91.2128 26.9089 92.0692 26.9089C93.0471 26.9089 93.5192 27.6102 93.5326 29.0332C93.5326 30.6787 93.0471 31.3058 92.0558 31.3058ZM99.1479 22.8424H97.2327V24.616H99.1479V22.8424ZM99.1344 25.6141H97.2529V32.5872H99.1344V25.6141ZM100.868 32.5872H102.837V28.1228C102.837 27.4416 103.491 27.0977 104.139 27.0977C104.779 27.0977 105.299 27.4754 105.299 28.2307V32.5872H107.268V27.9879C107.268 26.2615 106.101 25.5534 104.827 25.5534C103.727 25.5534 103.12 26.0929 102.803 26.5987V25.6141H100.868V32.5872ZM112.1 34.8935C114.582 34.8935 115.816 33.9494 115.816 32.6411C115.816 31.5419 114.98 30.7596 113.274 30.6449C112.66 30.6045 112.12 30.5775 111.824 30.5573C111.001 30.5101 110.603 30.4763 110.603 30.2538C110.603 30.1122 110.772 29.9908 111.298 29.9638C111.473 29.9841 111.824 29.9908 111.985 29.9908C114.069 29.9908 115.142 28.8983 115.142 27.6844C115.142 27.5023 115.088 27.1989 114.993 26.9493L116.194 26.7538L116.207 25.2297C115.62 25.4724 114.575 25.8906 114.157 26.0524C113.638 25.7287 113.085 25.5062 112.127 25.5062C110.232 25.5062 108.823 26.3154 108.823 27.6912C108.823 28.4667 109.308 29.276 110.232 29.7008C109.268 29.8694 108.802 30.3347 108.802 30.827C108.802 31.4879 109.443 31.7374 109.659 31.8656C109.524 31.9398 108.303 32.2297 108.303 33.1806C108.303 34.2057 109.618 34.8935 112.1 34.8935ZM112.046 28.8916C111.271 28.8916 110.799 28.4465 110.799 27.7519C110.799 27.0303 111.298 26.5447 112.046 26.5447C112.788 26.5447 113.28 27.0235 113.28 27.7519C113.28 28.46 112.788 28.8916 112.046 28.8916ZM112.417 33.7943C110.92 33.7943 110.232 33.538 110.232 32.9513C110.232 32.5197 110.65 32.1218 111.284 32.1556L112.882 32.2635C113.57 32.3107 113.941 32.5939 113.941 33.012C113.941 33.5178 113.51 33.7943 112.417 33.7943Z" fill="#185AE3"/>
<path d="M51.4272 27.4135C50.8476 27.4135 50.5578 28.0985 50.9793 28.4936L54.1141 31.6284C54.3512 31.8918 54.7464 31.8918 55.0098 31.6284L58.1446 28.4936C58.5398 28.0985 58.25 27.4135 57.6968 27.4135H51.4272ZM58.1446 24.6475L55.0098 21.5127C54.7464 21.2756 54.3512 21.2756 54.1141 21.5127L50.9793 24.6475C50.5578 25.069 50.8476 25.7276 51.4272 25.7276H57.6968C58.25 25.7276 58.5398 25.069 58.1446 24.6475Z" fill="#185AE3"/>
<path d="M230.91 28.3993V32.5872H232.88V22.8356H230.91V26.747H226.642V22.8356H224.679V32.5872H226.642V28.3993H230.91ZM236.29 29.5524H240.977V29.0197C240.977 26.9291 239.858 25.4792 237.727 25.4792C235.589 25.4792 234.341 27.0842 234.341 29.1815C234.341 31.3463 235.757 32.722 237.828 32.722C239.278 32.722 240.734 31.8656 240.97 30.3752H239.197C238.994 31.0293 238.455 31.2991 237.78 31.2991C236.836 31.2991 236.283 30.618 236.29 29.5524ZM236.29 28.379C236.283 27.6102 236.816 26.8549 237.72 26.8549C238.671 26.8549 239.136 27.5361 239.136 28.379H236.29ZM244.426 32.722C245.404 32.722 246.112 32.3983 246.591 31.3868L246.753 32.5872H248.398V27.6844C248.398 26.3154 247.582 25.4792 245.451 25.4792C243.705 25.4792 242.444 26.1805 242.37 27.6912H244.008C244.204 27.0505 244.784 26.8145 245.357 26.8077C246.146 26.801 246.51 27.1584 246.51 27.7991V28.2172L245.634 28.2307C243.172 28.2576 242.073 29.0669 242.073 30.591C242.073 31.9532 243.098 32.722 244.426 32.722ZM245.094 31.4272C244.447 31.4272 243.941 31.0428 243.941 30.3954C243.941 29.5457 244.818 29.2557 245.802 29.2422L246.51 29.2287V30.2605C246.503 30.8607 245.802 31.4272 245.094 31.4272ZM252.632 32.722C254.008 32.722 254.615 31.9263 254.865 31.1575L255.087 32.5872H256.517V22.5659H254.541V26.5582C254.204 25.9647 253.435 25.4792 252.437 25.4792C250.643 25.4792 249.665 26.8752 249.665 29.0601C249.665 31.3665 250.758 32.722 252.632 32.722ZM253.064 31.3058C252.16 31.3058 251.587 30.5842 251.587 29.0332C251.587 27.5023 252.221 26.9089 253.077 26.9089C254.055 26.9089 254.527 27.6102 254.541 29.0332C254.541 30.6787 254.055 31.3058 253.064 31.3058ZM260.156 22.8424H258.241V24.616H260.156V22.8424ZM260.143 25.6141H258.261V32.5872H260.143V25.6141ZM261.876 32.5872H263.845V28.1228C263.845 27.4416 264.5 27.0977 265.147 27.0977C265.788 27.0977 266.307 27.4754 266.307 28.2307V32.5872H268.276V27.9879C268.276 26.2615 267.109 25.5534 265.835 25.5534C264.736 25.5534 264.129 26.0929 263.812 26.5987V25.6141H261.876V32.5872ZM273.108 34.8935C275.59 34.8935 276.824 33.9494 276.824 32.6411C276.824 31.5419 275.988 30.7596 274.282 30.6449C273.668 30.6045 273.129 30.5775 272.832 30.5573C272.009 30.5101 271.611 30.4763 271.611 30.2538C271.611 30.1122 271.78 29.9908 272.306 29.9638C272.481 29.9841 272.832 29.9908 272.994 29.9908C275.077 29.9908 276.15 28.8983 276.15 27.6844C276.15 27.5023 276.096 27.1989 276.001 26.9493L277.202 26.7538L277.215 25.2297C276.629 25.4724 275.583 25.8906 275.165 26.0524C274.646 25.7287 274.093 25.5062 273.135 25.5062C271.24 25.5062 269.831 26.3154 269.831 27.6912C269.831 28.4667 270.316 29.276 271.24 29.7008C270.276 29.8694 269.811 30.3347 269.811 30.827C269.811 31.4879 270.451 31.7374 270.667 31.8656C270.532 31.9398 269.312 32.2297 269.312 33.1806C269.312 34.2057 270.627 34.8935 273.108 34.8935ZM273.054 28.8916C272.279 28.8916 271.807 28.4465 271.807 27.7519C271.807 27.0303 272.306 26.5447 273.054 26.5447C273.796 26.5447 274.288 27.0235 274.288 27.7519C274.288 28.46 273.796 28.8916 273.054 28.8916ZM273.425 33.7943C271.928 33.7943 271.24 33.538 271.24 32.9513C271.24 32.5197 271.658 32.1218 272.292 32.1556L273.891 32.2635C274.578 32.3107 274.949 32.5939 274.949 33.012C274.949 33.5178 274.518 33.7943 273.425 33.7943Z" fill="#185AE3"/>
<path d="M212.435 27.4135C211.856 27.4135 211.566 28.0985 211.987 28.4936L215.122 31.6284C215.359 31.8918 215.754 31.8918 216.018 31.6284L219.153 28.4936C219.548 28.0985 219.258 27.4135 218.705 27.4135H212.435ZM219.153 24.6475L216.018 21.5127C215.754 21.2756 215.359 21.2756 215.122 21.5127L211.987 24.6475C211.566 25.069 211.856 25.7276 212.435 25.7276H218.705C219.258 25.7276 219.548 25.069 219.153 24.6475Z" fill="#185AE3"/>
<rect x="19.5871" y="21.8018" width="11.8017" height="11.8017" rx="2.52893" fill="white" stroke="#6C757D" stroke-width="1.68595"/>
<rect x="19.5871" y="55.5208" width="11.8017" height="11.8017" rx="2.52893" fill="white" stroke="#6C757D" stroke-width="1.68595"/>
<rect x="19.5871" y="89.2398" width="11.8017" height="11.8017" rx="2.52893" fill="white" stroke="#6C757D" stroke-width="1.68595"/>
<path d="M53.5551 57.926V67.6775H56.401C59.8943 67.6775 61.5263 65.7892 61.5263 62.7545C61.5263 59.8412 60.0157 58.0271 56.4685 57.9394C55.6322 57.9192 53.7575 57.926 53.5551 57.926ZM55.5378 59.5175H56.4685C58.3163 59.5175 59.4695 60.4616 59.4695 62.741C59.4695 65.1958 58.114 66.086 56.4415 66.086H55.5378V59.5175ZM65.0834 67.8124C66.0612 67.8124 66.7693 67.4887 67.2481 66.4771L67.41 67.6775H69.0555V62.7747C69.0555 61.4058 68.2395 60.5695 66.1084 60.5695C64.3618 60.5695 63.1007 61.2709 63.0265 62.7815H64.6652C64.8608 62.1408 65.4408 61.9048 66.014 61.8981C66.803 61.8913 67.1672 62.2487 67.1672 62.8894V63.3075L66.2905 63.321C63.829 63.348 62.7298 64.1572 62.7298 65.6813C62.7298 67.0436 63.7548 67.8124 65.0834 67.8124ZM65.751 66.5176C65.1036 66.5176 64.5978 66.1332 64.5978 65.4858C64.5978 64.636 65.4745 64.3461 66.4591 64.3326L67.1672 64.3191V65.3509C67.1604 65.9511 66.4591 66.5176 65.751 66.5176ZM74.6235 62.0734V60.6977H73.0724V58.6003H71.6697L71.1707 60.7044H69.977V62.0734H71.11V65.8702C71.11 66.9896 71.5821 67.7517 73.4231 67.7517C74.1042 67.7517 74.4549 67.664 74.6437 67.5831V66.3692H73.7064C73.2748 66.3692 73.0859 66.3018 73.0859 65.7892L73.0724 62.0734H74.6235ZM78.0704 67.8124C79.0483 67.8124 79.7564 67.4887 80.2352 66.4771L80.3971 67.6775H82.0425V62.7747C82.0425 61.4058 81.2265 60.5695 79.0955 60.5695C77.3489 60.5695 76.0878 61.2709 76.0136 62.7815H77.6523C77.8479 62.1408 78.4279 61.9048 79.0011 61.8981C79.7901 61.8913 80.1543 62.2487 80.1543 62.8894V63.3075L79.2776 63.321C76.8161 63.348 75.7169 64.1572 75.7169 65.6813C75.7169 67.0436 76.7419 67.8124 78.0704 67.8124ZM78.7381 66.5176C78.0907 66.5176 77.5849 66.1332 77.5849 65.4858C77.5849 64.636 78.4616 64.3461 79.4462 64.3326L80.1543 64.3191V65.3509C80.1475 65.9511 79.4462 66.5176 78.7381 66.5176ZM93.163 63.4896V67.6775H95.1322V57.926H93.163V61.8374H88.8941V57.926H86.9317V67.6775H88.8941V63.4896H93.163ZM98.5426 64.6428H103.23V64.11C103.23 62.0194 102.11 60.5695 99.9791 60.5695C97.8413 60.5695 96.5937 62.1745 96.5937 64.2719C96.5937 66.4366 98.0099 67.8124 100.08 67.8124C101.53 67.8124 102.987 66.9559 103.223 65.4655H101.449C101.247 66.1197 100.707 66.3894 100.033 66.3894C99.0889 66.3894 98.5359 65.7083 98.5426 64.6428ZM98.5426 63.4694C98.5359 62.7006 99.0686 61.9453 99.9723 61.9453C100.923 61.9453 101.389 62.6264 101.389 63.4694H98.5426ZM106.679 67.8124C107.657 67.8124 108.365 67.4887 108.844 66.4771L109.006 67.6775H110.651V62.7747C110.651 61.4058 109.835 60.5695 107.704 60.5695C105.957 60.5695 104.696 61.2709 104.622 62.7815H106.261C106.456 62.1408 107.036 61.9048 107.61 61.8981C108.399 61.8913 108.763 62.2487 108.763 62.8894V63.3075L107.886 63.321C105.425 63.348 104.325 64.1572 104.325 65.6813C104.325 67.0436 105.35 67.8124 106.679 67.8124ZM107.347 66.5176C106.699 66.5176 106.193 66.1332 106.193 65.4858C106.193 64.636 107.07 64.3461 108.055 64.3326L108.763 64.3191V65.3509C108.756 65.9511 108.055 66.5176 107.347 66.5176ZM114.885 67.8124C116.261 67.8124 116.868 67.0166 117.117 66.2478L117.34 67.6775H118.769V57.6562H116.793V61.6485C116.456 61.0551 115.687 60.5695 114.689 60.5695C112.895 60.5695 111.918 61.9655 111.918 64.1505C111.918 66.4569 113.01 67.8124 114.885 67.8124ZM115.316 66.3962C114.413 66.3962 113.84 65.6746 113.84 64.1235C113.84 62.5927 114.473 61.9992 115.33 61.9992C116.308 61.9992 116.78 62.7006 116.793 64.1235C116.793 65.769 116.308 66.3962 115.316 66.3962ZM122.12 64.6428H126.807V64.11C126.807 62.0194 125.687 60.5695 123.556 60.5695C121.418 60.5695 120.171 62.1745 120.171 64.2719C120.171 66.4366 121.587 67.8124 123.657 67.8124C125.107 67.8124 126.564 66.9559 126.8 65.4655H125.026C124.824 66.1197 124.284 66.3894 123.61 66.3894C122.666 66.3894 122.113 65.7083 122.12 64.6428ZM122.12 63.4694C122.113 62.7006 122.646 61.9453 123.549 61.9453C124.5 61.9453 124.965 62.6264 124.965 63.4694H122.12ZM128.225 67.6775H130.194V63.8605C130.194 62.9231 130.788 62.3027 132.339 62.4376C132.433 62.4443 132.555 62.451 132.635 62.4848V60.61C132.582 60.583 132.46 60.5695 132.332 60.5695C131.233 60.5695 130.451 61.2911 130.12 62.3566V60.7044H128.225V67.6775ZM53.5551 91.926V101.677H56.401C59.8943 101.677 61.5263 99.7892 61.5263 96.7545C61.5263 93.8412 60.0157 92.0271 56.4685 91.9394C55.6322 91.9192 53.7575 91.926 53.5551 91.926ZM55.5378 93.5175H56.4685C58.3163 93.5175 59.4695 94.4616 59.4695 96.741C59.4695 99.1958 58.114 100.086 56.4415 100.086H55.5378V93.5175ZM65.0834 101.812C66.0612 101.812 66.7693 101.489 67.2481 100.477L67.41 101.677H69.0555V96.7747C69.0555 95.4058 68.2395 94.5695 66.1084 94.5695C64.3618 94.5695 63.1007 95.2709 63.0265 96.7815H64.6652C64.8608 96.1408 65.4408 95.9048 66.014 95.8981C66.803 95.8913 67.1672 96.2487 67.1672 96.8894V97.3075L66.2905 97.321C63.829 97.348 62.7298 98.1572 62.7298 99.6813C62.7298 101.044 63.7548 101.812 65.0834 101.812ZM65.751 100.518C65.1036 100.518 64.5978 100.133 64.5978 99.4858C64.5978 98.636 65.4745 98.3461 66.4591 98.3326L67.1672 98.3191V99.3509C67.1604 99.9511 66.4591 100.518 65.751 100.518ZM74.6235 96.0734V94.6977H73.0724V92.6003H71.6697L71.1707 94.7044H69.977V96.0734H71.11V99.8702C71.11 100.99 71.5821 101.752 73.4231 101.752C74.1042 101.752 74.4549 101.664 74.6437 101.583V100.369H73.7064C73.2748 100.369 73.0859 100.302 73.0859 99.7892L73.0724 96.0734H74.6235ZM78.0704 101.812C79.0483 101.812 79.7564 101.489 80.2352 100.477L80.3971 101.677H82.0425V96.7747C82.0425 95.4058 81.2265 94.5695 79.0955 94.5695C77.3489 94.5695 76.0878 95.2709 76.0136 96.7815H77.6523C77.8479 96.1408 78.4279 95.9048 79.0011 95.8981C79.7901 95.8913 80.1543 96.2487 80.1543 96.8894V97.3075L79.2776 97.321C76.8161 97.348 75.7169 98.1572 75.7169 99.6813C75.7169 101.044 76.7419 101.812 78.0704 101.812ZM78.7381 100.518C78.0907 100.518 77.5849 100.133 77.5849 99.4858C77.5849 98.636 78.4616 98.3461 79.4462 98.3326L80.1543 98.3191V99.3509C80.1475 99.9511 79.4462 100.518 78.7381 100.518ZM93.163 97.4896V101.677H95.1322V91.926H93.163V95.8374H88.8941V91.926H86.9317V101.677H88.8941V97.4896H93.163ZM98.5426 98.6428H103.23V98.11C103.23 96.0194 102.11 94.5695 99.9791 94.5695C97.8413 94.5695 96.5937 96.1745 96.5937 98.2719C96.5937 100.437 98.0099 101.812 100.08 101.812C101.53 101.812 102.987 100.956 103.223 99.4655H101.449C101.247 100.12 100.707 100.389 100.033 100.389C99.0889 100.389 98.5359 99.7083 98.5426 98.6428ZM98.5426 97.4694C98.5359 96.7006 99.0686 95.9453 99.9723 95.9453C100.923 95.9453 101.389 96.6264 101.389 97.4694H98.5426ZM106.679 101.812C107.657 101.812 108.365 101.489 108.844 100.477L109.006 101.677H110.651V96.7747C110.651 95.4058 109.835 94.5695 107.704 94.5695C105.957 94.5695 104.696 95.2709 104.622 96.7815H106.261C106.456 96.1408 107.036 95.9048 107.61 95.8981C108.399 95.8913 108.763 96.2487 108.763 96.8894V97.3075L107.886 97.321C105.425 97.348 104.325 98.1572 104.325 99.6813C104.325 101.044 105.35 101.812 106.679 101.812ZM107.347 100.518C106.699 100.518 106.193 100.133 106.193 99.4858C106.193 98.636 107.07 98.3461 108.055 98.3326L108.763 98.3191V99.3509C108.756 99.9511 108.055 100.518 107.347 100.518ZM114.885 101.812C116.261 101.812 116.868 101.017 117.117 100.248L117.34 101.677H118.769V91.6562H116.793V95.6485C116.456 95.0551 115.687 94.5695 114.689 94.5695C112.895 94.5695 111.918 95.9655 111.918 98.1505C111.918 100.457 113.01 101.812 114.885 101.812ZM115.316 100.396C114.413 100.396 113.84 99.6746 113.84 98.1235C113.84 96.5927 114.473 95.9992 115.33 95.9992C116.308 95.9992 116.78 96.7006 116.793 98.1235C116.793 99.769 116.308 100.396 115.316 100.396ZM122.12 98.6428H126.807V98.11C126.807 96.0194 125.687 94.5695 123.556 94.5695C121.418 94.5695 120.171 96.1745 120.171 98.2719C120.171 100.437 121.587 101.812 123.657 101.812C125.107 101.812 126.564 100.956 126.8 99.4655H125.026C124.824 100.12 124.284 100.389 123.61 100.389C122.666 100.389 122.113 99.7083 122.12 98.6428ZM122.12 97.4694C122.113 96.7006 122.646 95.9453 123.549 95.9453C124.5 95.9453 124.965 96.6264 124.965 97.4694H122.12ZM128.225 101.677H130.194V97.8605C130.194 96.9231 130.788 96.3027 132.339 96.4376C132.433 96.4443 132.555 96.451 132.635 96.4848V94.61C132.582 94.583 132.46 94.5695 132.332 94.5695C131.233 94.5695 130.451 95.2911 130.12 96.3566V94.7044H128.225V101.677ZM53.5551 124.926V134.677H56.401C59.8943 134.677 61.5263 132.789 61.5263 129.755C61.5263 126.841 60.0157 125.027 56.4685 124.939C55.6322 124.919 53.7575 124.926 53.5551 124.926ZM55.5378 126.517H56.4685C58.3163 126.517 59.4695 127.462 59.4695 129.741C59.4695 132.196 58.114 133.086 56.4415 133.086H55.5378V126.517ZM65.0834 134.812C66.0612 134.812 66.7693 134.489 67.2481 133.477L67.41 134.677H69.0555V129.775C69.0555 128.406 68.2395 127.57 66.1084 127.57C64.3618 127.57 63.1007 128.271 63.0265 129.781H64.6652C64.8608 129.141 65.4408 128.905 66.014 128.898C66.803 128.891 67.1672 129.249 67.1672 129.889V130.308L66.2905 130.321C63.829 130.348 62.7298 131.157 62.7298 132.681C62.7298 134.044 63.7548 134.812 65.0834 134.812ZM65.751 133.518C65.1036 133.518 64.5978 133.133 64.5978 132.486C64.5978 131.636 65.4745 131.346 66.4591 131.333L67.1672 131.319V132.351C67.1604 132.951 66.4591 133.518 65.751 133.518ZM74.6235 129.073V127.698H73.0724V125.6H71.6697L71.1707 127.704H69.977V129.073H71.11V132.87C71.11 133.99 71.5821 134.752 73.4231 134.752C74.1042 134.752 74.4549 134.664 74.6437 134.583V133.369H73.7064C73.2748 133.369 73.0859 133.302 73.0859 132.789L73.0724 129.073H74.6235ZM78.0704 134.812C79.0483 134.812 79.7564 134.489 80.2352 133.477L80.3971 134.677H82.0425V129.775C82.0425 128.406 81.2265 127.57 79.0955 127.57C77.3489 127.57 76.0878 128.271 76.0136 129.781H77.6523C77.8479 129.141 78.4279 128.905 79.0011 128.898C79.7901 128.891 80.1543 129.249 80.1543 129.889V130.308L79.2776 130.321C76.8161 130.348 75.7169 131.157 75.7169 132.681C75.7169 134.044 76.7419 134.812 78.0704 134.812ZM78.7381 133.518C78.0907 133.518 77.5849 133.133 77.5849 132.486C77.5849 131.636 78.4616 131.346 79.4462 131.333L80.1543 131.319V132.351C80.1475 132.951 79.4462 133.518 78.7381 133.518ZM93.163 130.49V134.677H95.1322V124.926H93.163V128.837H88.8941V124.926H86.9317V134.677H88.8941V130.49H93.163ZM98.5426 131.643H103.23V131.11C103.23 129.019 102.11 127.57 99.9791 127.57C97.8413 127.57 96.5937 129.175 96.5937 131.272C96.5937 133.437 98.0099 134.812 100.08 134.812C101.53 134.812 102.987 133.956 103.223 132.466H101.449C101.247 133.12 100.707 133.389 100.033 133.389C99.0889 133.389 98.5359 132.708 98.5426 131.643ZM98.5426 130.469C98.5359 129.701 99.0686 128.945 99.9723 128.945C100.923 128.945 101.389 129.626 101.389 130.469H98.5426ZM106.679 134.812C107.657 134.812 108.365 134.489 108.844 133.477L109.006 134.677H110.651V129.775C110.651 128.406 109.835 127.57 107.704 127.57C105.957 127.57 104.696 128.271 104.622 129.781H106.261C106.456 129.141 107.036 128.905 107.61 128.898C108.399 128.891 108.763 129.249 108.763 129.889V130.308L107.886 130.321C105.425 130.348 104.325 131.157 104.325 132.681C104.325 134.044 105.35 134.812 106.679 134.812ZM107.347 133.518C106.699 133.518 106.193 133.133 106.193 132.486C106.193 131.636 107.07 131.346 108.055 131.333L108.763 131.319V132.351C108.756 132.951 108.055 133.518 107.347 133.518ZM114.885 134.812C116.261 134.812 116.868 134.017 117.117 133.248L117.34 134.677H118.769V124.656H116.793V128.649C116.456 128.055 115.687 127.57 114.689 127.57C112.895 127.57 111.918 128.965 111.918 131.15C111.918 133.457 113.01 134.812 114.885 134.812ZM115.316 133.396C114.413 133.396 113.84 132.675 113.84 131.124C113.84 129.593 114.473 128.999 115.33 128.999C116.308 128.999 116.78 129.701 116.793 131.124C116.793 132.769 116.308 133.396 115.316 133.396ZM122.12 131.643H126.807V131.11C126.807 129.019 125.687 127.57 123.556 127.57C121.418 127.57 120.171 129.175 120.171 131.272C120.171 133.437 121.587 134.812 123.657 134.812C125.107 134.812 126.564 133.956 126.8 132.466H125.026C124.824 133.12 124.284 133.389 123.61 133.389C122.666 133.389 122.113 132.708 122.12 131.643ZM122.12 130.469C122.113 129.701 122.646 128.945 123.549 128.945C124.5 128.945 124.965 129.626 124.965 130.469H122.12ZM128.225 134.677H130.194V130.86C130.194 129.923 130.788 129.303 132.339 129.438C132.433 129.444 132.555 129.451 132.635 129.485V127.61C132.582 127.583 132.46 127.57 132.332 127.57C131.233 127.57 130.451 128.291 130.12 129.357V127.704H128.225V134.677ZM53.5551 158.926V168.677H56.401C59.8943 168.677 61.5263 166.789 61.5263 163.755C61.5263 160.841 60.0157 159.027 56.4685 158.939C55.6322 158.919 53.7575 158.926 53.5551 158.926ZM55.5378 160.517H56.4685C58.3163 160.517 59.4695 161.462 59.4695 163.741C59.4695 166.196 58.114 167.086 56.4415 167.086H55.5378V160.517ZM65.0834 168.812C66.0612 168.812 66.7693 168.489 67.2481 167.477L67.41 168.677H69.0555V163.775C69.0555 162.406 68.2395 161.57 66.1084 161.57C64.3618 161.57 63.1007 162.271 63.0265 163.781H64.6652C64.8608 163.141 65.4408 162.905 66.014 162.898C66.803 162.891 67.1672 163.249 67.1672 163.889V164.308L66.2905 164.321C63.829 164.348 62.7298 165.157 62.7298 166.681C62.7298 168.044 63.7548 168.812 65.0834 168.812ZM65.751 167.518C65.1036 167.518 64.5978 167.133 64.5978 166.486C64.5978 165.636 65.4745 165.346 66.4591 165.333L67.1672 165.319V166.351C67.1604 166.951 66.4591 167.518 65.751 167.518ZM74.6235 163.073V161.698H73.0724V159.6H71.6697L71.1707 161.704H69.977V163.073H71.11V166.87C71.11 167.99 71.5821 168.752 73.4231 168.752C74.1042 168.752 74.4549 168.664 74.6437 168.583V167.369H73.7064C73.2748 167.369 73.0859 167.302 73.0859 166.789L73.0724 163.073H74.6235ZM78.0704 168.812C79.0483 168.812 79.7564 168.489 80.2352 167.477L80.3971 168.677H82.0425V163.775C82.0425 162.406 81.2265 161.57 79.0955 161.57C77.3489 161.57 76.0878 162.271 76.0136 163.781H77.6523C77.8479 163.141 78.4279 162.905 79.0011 162.898C79.7901 162.891 80.1543 163.249 80.1543 163.889V164.308L79.2776 164.321C76.8161 164.348 75.7169 165.157 75.7169 166.681C75.7169 168.044 76.7419 168.812 78.0704 168.812ZM78.7381 167.518C78.0907 167.518 77.5849 167.133 77.5849 166.486C77.5849 165.636 78.4616 165.346 79.4462 165.333L80.1543 165.319V166.351C80.1475 166.951 79.4462 167.518 78.7381 167.518ZM93.163 164.49V168.677H95.1322V158.926H93.163V162.837H88.8941V158.926H86.9317V168.677H88.8941V164.49H93.163ZM98.5426 165.643H103.23V165.11C103.23 163.019 102.11 161.57 99.9791 161.57C97.8413 161.57 96.5937 163.175 96.5937 165.272C96.5937 167.437 98.0099 168.812 100.08 168.812C101.53 168.812 102.987 167.956 103.223 166.466H101.449C101.247 167.12 100.707 167.389 100.033 167.389C99.0889 167.389 98.5359 166.708 98.5426 165.643ZM98.5426 164.469C98.5359 163.701 99.0686 162.945 99.9723 162.945C100.923 162.945 101.389 163.626 101.389 164.469H98.5426ZM106.679 168.812C107.657 168.812 108.365 168.489 108.844 167.477L109.006 168.677H110.651V163.775C110.651 162.406 109.835 161.57 107.704 161.57C105.957 161.57 104.696 162.271 104.622 163.781H106.261C106.456 163.141 107.036 162.905 107.61 162.898C108.399 162.891 108.763 163.249 108.763 163.889V164.308L107.886 164.321C105.425 164.348 104.325 165.157 104.325 166.681C104.325 168.044 105.35 168.812 106.679 168.812ZM107.347 167.518C106.699 167.518 106.193 167.133 106.193 166.486C106.193 165.636 107.07 165.346 108.055 165.333L108.763 165.319V166.351C108.756 166.951 108.055 167.518 107.347 167.518ZM114.885 168.812C116.261 168.812 116.868 168.017 117.117 167.248L117.34 168.677H118.769V158.656H116.793V162.649C116.456 162.055 115.687 161.57 114.689 161.57C112.895 161.57 111.918 162.965 111.918 165.15C111.918 167.457 113.01 168.812 114.885 168.812ZM115.316 167.396C114.413 167.396 113.84 166.675 113.84 165.124C113.84 163.593 114.473 162.999 115.33 162.999C116.308 162.999 116.78 163.701 116.793 165.124C116.793 166.769 116.308 167.396 115.316 167.396ZM122.12 165.643H126.807V165.11C126.807 163.019 125.687 161.57 123.556 161.57C121.418 161.57 120.171 163.175 120.171 165.272C120.171 167.437 121.587 168.812 123.657 168.812C125.107 168.812 126.564 167.956 126.8 166.466H125.026C124.824 167.12 124.284 167.389 123.61 167.389C122.666 167.389 122.113 166.708 122.12 165.643ZM122.12 164.469C122.113 163.701 122.646 162.945 123.549 162.945C124.5 162.945 124.965 163.626 124.965 164.469H122.12ZM128.225 168.677H130.194V164.86C130.194 163.923 130.788 163.303 132.339 163.438C132.433 163.444 132.555 163.451 132.635 163.485V161.61C132.582 161.583 132.46 161.57 132.332 161.57C131.233 161.57 130.451 162.291 130.12 163.357V161.704H128.225V168.677ZM53.5551 192.926V202.677H56.401C59.8943 202.677 61.5263 200.789 61.5263 197.755C61.5263 194.841 60.0157 193.027 56.4685 192.939C55.6322 192.919 53.7575 192.926 53.5551 192.926ZM55.5378 194.517H56.4685C58.3163 194.517 59.4695 195.462 59.4695 197.741C59.4695 200.196 58.114 201.086 56.4415 201.086H55.5378V194.517ZM65.0834 202.812C66.0612 202.812 66.7693 202.489 67.2481 201.477L67.41 202.677H69.0555V197.775C69.0555 196.406 68.2395 195.57 66.1084 195.57C64.3618 195.57 63.1007 196.271 63.0265 197.781H64.6652C64.8608 197.141 65.4408 196.905 66.014 196.898C66.803 196.891 67.1672 197.249 67.1672 197.889V198.308L66.2905 198.321C63.829 198.348 62.7298 199.157 62.7298 200.681C62.7298 202.044 63.7548 202.812 65.0834 202.812ZM65.751 201.518C65.1036 201.518 64.5978 201.133 64.5978 200.486C64.5978 199.636 65.4745 199.346 66.4591 199.333L67.1672 199.319V200.351C67.1604 200.951 66.4591 201.518 65.751 201.518ZM74.6235 197.073V195.698H73.0724V193.6H71.6697L71.1707 195.704H69.977V197.073H71.11V200.87C71.11 201.99 71.5821 202.752 73.4231 202.752C74.1042 202.752 74.4549 202.664 74.6437 202.583V201.369H73.7064C73.2748 201.369 73.0859 201.302 73.0859 200.789L73.0724 197.073H74.6235ZM78.0704 202.812C79.0483 202.812 79.7564 202.489 80.2352 201.477L80.3971 202.677H82.0425V197.775C82.0425 196.406 81.2265 195.57 79.0955 195.57C77.3489 195.57 76.0878 196.271 76.0136 197.781H77.6523C77.8479 197.141 78.4279 196.905 79.0011 196.898C79.7901 196.891 80.1543 197.249 80.1543 197.889V198.308L79.2776 198.321C76.8161 198.348 75.7169 199.157 75.7169 200.681C75.7169 202.044 76.7419 202.812 78.0704 202.812ZM78.7381 201.518C78.0907 201.518 77.5849 201.133 77.5849 200.486C77.5849 199.636 78.4616 199.346 79.4462 199.333L80.1543 199.319V200.351C80.1475 200.951 79.4462 201.518 78.7381 201.518ZM93.163 198.49V202.677H95.1322V192.926H93.163V196.837H88.8941V192.926H86.9317V202.677H88.8941V198.49H93.163ZM98.5426 199.643H103.23V199.11C103.23 197.019 102.11 195.57 99.9791 195.57C97.8413 195.57 96.5937 197.175 96.5937 199.272C96.5937 201.437 98.0099 202.812 100.08 202.812C101.53 202.812 102.987 201.956 103.223 200.466H101.449C101.247 201.12 100.707 201.389 100.033 201.389C99.0889 201.389 98.5359 200.708 98.5426 199.643ZM98.5426 198.469C98.5359 197.701 99.0686 196.945 99.9723 196.945C100.923 196.945 101.389 197.626 101.389 198.469H98.5426ZM106.679 202.812C107.657 202.812 108.365 202.489 108.844 201.477L109.006 202.677H110.651V197.775C110.651 196.406 109.835 195.57 107.704 195.57C105.957 195.57 104.696 196.271 104.622 197.781H106.261C106.456 197.141 107.036 196.905 107.61 196.898C108.399 196.891 108.763 197.249 108.763 197.889V198.308L107.886 198.321C105.425 198.348 104.325 199.157 104.325 200.681C104.325 202.044 105.35 202.812 106.679 202.812ZM107.347 201.518C106.699 201.518 106.193 201.133 106.193 200.486C106.193 199.636 107.07 199.346 108.055 199.333L108.763 199.319V200.351C108.756 200.951 108.055 201.518 107.347 201.518ZM114.885 202.812C116.261 202.812 116.868 202.017 117.117 201.248L117.34 202.677H118.769V192.656H116.793V196.649C116.456 196.055 115.687 195.57 114.689 195.57C112.895 195.57 111.918 196.965 111.918 199.15C111.918 201.457 113.01 202.812 114.885 202.812ZM115.316 201.396C114.413 201.396 113.84 200.675 113.84 199.124C113.84 197.593 114.473 196.999 115.33 196.999C116.308 196.999 116.78 197.701 116.793 199.124C116.793 200.769 116.308 201.396 115.316 201.396ZM122.12 199.643H126.807V199.11C126.807 197.019 125.687 195.57 123.556 195.57C121.418 195.57 120.171 197.175 120.171 199.272C120.171 201.437 121.587 202.812 123.657 202.812C125.107 202.812 126.564 201.956 126.8 200.466H125.026C124.824 201.12 124.284 201.389 123.61 201.389C122.666 201.389 122.113 200.708 122.12 199.643ZM122.12 198.469C122.113 197.701 122.646 196.945 123.549 196.945C124.5 196.945 124.965 197.626 124.965 198.469H122.12ZM128.225 202.677H130.194V198.86C130.194 197.923 130.788 197.303 132.339 197.438C132.433 197.444 132.555 197.451 132.635 197.485V195.61C132.582 195.583 132.46 195.57 132.332 195.57C131.233 195.57 130.451 196.291 130.12 197.357V195.704H128.225V202.677Z" fill="#00284D"/>
<path d="M211.387 57.926V67.6775H213.525C217.065 67.6775 218.724 65.9781 218.724 62.741C218.724 59.6591 217.234 57.9866 213.653 57.9394C212.83 57.9327 211.502 57.926 211.387 57.926ZM212.669 58.9982H213.579C215.993 58.9982 217.409 59.9423 217.409 62.7613C217.409 65.5802 215.939 66.6052 213.525 66.6052H212.669V58.9982ZM222.438 67.8124C223.436 67.8124 224.293 67.4549 224.832 66.3692L224.927 67.6775H225.992V62.8085C225.992 61.3518 225.089 60.5695 223.275 60.5695C221.582 60.5695 220.543 61.3181 220.469 62.6736H221.568C221.737 61.8441 222.411 61.4934 223.214 61.4867C224.286 61.4867 224.785 62.0262 224.785 62.8759V63.4222L223.544 63.4559C221.157 63.5098 220.139 64.2449 220.139 65.7892C220.139 67.0638 221.083 67.8124 222.438 67.8124ZM222.809 66.9154C221.953 66.9154 221.346 66.4569 221.346 65.6678C221.346 64.636 222.148 64.2382 223.753 64.2112L224.785 64.1909V65.3846C224.785 66.1601 223.747 66.9154 222.809 66.9154ZM231.195 61.6148V60.6977H229.624V58.6745H228.707L228.403 60.7044H227.237V61.6148H228.37V65.9915C228.37 67.111 228.754 67.7112 230.204 67.7112C230.71 67.7112 231.06 67.664 231.236 67.5966V66.7603H230.474C229.819 66.7603 229.624 66.6929 229.624 65.9511V61.6148H231.195ZM234.793 67.8124C235.791 67.8124 236.648 67.4549 237.187 66.3692L237.282 67.6775H238.347V62.8085C238.347 61.3518 237.444 60.5695 235.629 60.5695C233.937 60.5695 232.898 61.3181 232.824 62.6736H233.923C234.092 61.8441 234.766 61.4934 235.569 61.4867C236.641 61.4867 237.14 62.0262 237.14 62.8759V63.4222L235.899 63.4559C233.512 63.5098 232.494 64.2449 232.494 65.7892C232.494 67.0638 233.438 67.8124 234.793 67.8124ZM235.164 66.9154C234.308 66.9154 233.701 66.4569 233.701 65.6678C233.701 64.636 234.503 64.2382 236.108 64.2112L237.14 64.1909V65.3846C237.14 66.1601 236.102 66.9154 235.164 66.9154ZM250.978 57.926H249.744L246.756 66.2613L243.769 57.926H242.535L246.008 67.6775H247.512L250.978 57.926ZM253.694 67.8124C254.692 67.8124 255.549 67.4549 256.088 66.3692L256.183 67.6775H257.248V62.8085C257.248 61.3518 256.345 60.5695 254.531 60.5695C252.838 60.5695 251.799 61.3181 251.725 62.6736H252.824C252.993 61.8441 253.667 61.4934 254.47 61.4867C255.542 61.4867 256.041 62.0262 256.041 62.8759V63.4222L254.8 63.4559C252.413 63.5098 251.395 64.2449 251.395 65.7892C251.395 67.0638 252.339 67.8124 253.694 67.8124ZM254.065 66.9154C253.209 66.9154 252.602 66.4569 252.602 65.6678C252.602 64.636 253.404 64.2382 255.009 64.2112L256.041 64.1909V65.3846C256.041 66.1601 255.003 66.9154 254.065 66.9154ZM260.954 67.7652C261.129 67.7652 261.372 67.7247 261.581 67.6573V66.848L261.203 66.8413C260.711 66.8075 260.421 66.4703 260.421 65.7623V57.6562H259.194V65.8836C259.194 66.8615 259.45 67.7652 260.954 67.7652ZM265.616 67.8124C266.6 67.8191 267.45 67.3875 267.706 66.3422L267.834 67.6775H268.826V60.7044H267.585V65.243C267.585 66.3018 266.904 66.8413 265.879 66.8413C264.739 66.8413 264.186 66.2208 264.186 65.3104V60.7044H262.938V65.4385C262.938 67.0099 264.166 67.7989 265.616 67.8124ZM271.794 64.4809H276.791V64.0223C276.791 61.9048 275.699 60.5695 273.736 60.5695C271.706 60.5695 270.533 62.0599 270.533 64.2584C270.533 66.4838 271.875 67.8124 273.824 67.8124C275.179 67.8124 276.488 67.0638 276.744 65.6409H275.57C275.395 66.4299 274.694 66.848 273.804 66.848C272.448 66.848 271.794 65.8027 271.794 64.4809ZM271.801 63.638C271.794 62.5994 272.414 61.5137 273.729 61.5137C274.991 61.5137 275.591 62.4376 275.591 63.638H271.801ZM211.387 91.926V101.677H213.525C217.065 101.677 218.724 99.9781 218.724 96.741C218.724 93.6591 217.234 91.9866 213.653 91.9394C212.83 91.9327 211.502 91.926 211.387 91.926ZM212.669 92.9982H213.579C215.993 92.9982 217.409 93.9423 217.409 96.7613C217.409 99.5802 215.939 100.605 213.525 100.605H212.669V92.9982ZM222.438 101.812C223.436 101.812 224.293 101.455 224.832 100.369L224.927 101.677H225.992V96.8085C225.992 95.3518 225.089 94.5695 223.275 94.5695C221.582 94.5695 220.543 95.3181 220.469 96.6736H221.568C221.737 95.8441 222.411 95.4934 223.214 95.4867C224.286 95.4867 224.785 96.0262 224.785 96.8759V97.4222L223.544 97.4559C221.157 97.5098 220.139 98.2449 220.139 99.7892C220.139 101.064 221.083 101.812 222.438 101.812ZM222.809 100.915C221.953 100.915 221.346 100.457 221.346 99.6678C221.346 98.636 222.148 98.2382 223.753 98.2112L224.785 98.1909V99.3846C224.785 100.16 223.747 100.915 222.809 100.915ZM231.195 95.6148V94.6977H229.624V92.6745H228.707L228.403 94.7044H227.237V95.6148H228.37V99.9915C228.37 101.111 228.754 101.711 230.204 101.711C230.71 101.711 231.06 101.664 231.236 101.597V100.76H230.474C229.819 100.76 229.624 100.693 229.624 99.9511V95.6148H231.195ZM234.793 101.812C235.791 101.812 236.648 101.455 237.187 100.369L237.282 101.677H238.347V96.8085C238.347 95.3518 237.444 94.5695 235.629 94.5695C233.937 94.5695 232.898 95.3181 232.824 96.6736H233.923C234.092 95.8441 234.766 95.4934 235.569 95.4867C236.641 95.4867 237.14 96.0262 237.14 96.8759V97.4222L235.899 97.4559C233.512 97.5098 232.494 98.2449 232.494 99.7892C232.494 101.064 233.438 101.812 234.793 101.812ZM235.164 100.915C234.308 100.915 233.701 100.457 233.701 99.6678C233.701 98.636 234.503 98.2382 236.108 98.2112L237.14 98.1909V99.3846C237.14 100.16 236.102 100.915 235.164 100.915ZM250.978 91.926H249.744L246.756 100.261L243.769 91.926H242.535L246.008 101.677H247.512L250.978 91.926ZM253.694 101.812C254.692 101.812 255.549 101.455 256.088 100.369L256.183 101.677H257.248V96.8085C257.248 95.3518 256.345 94.5695 254.531 94.5695C252.838 94.5695 251.799 95.3181 251.725 96.6736H252.824C252.993 95.8441 253.667 95.4934 254.47 95.4867C255.542 95.4867 256.041 96.0262 256.041 96.8759V97.4222L254.8 97.4559C252.413 97.5098 251.395 98.2449 251.395 99.7892C251.395 101.064 252.339 101.812 253.694 101.812ZM254.065 100.915C253.209 100.915 252.602 100.457 252.602 99.6678C252.602 98.636 253.404 98.2382 255.009 98.2112L256.041 98.1909V99.3846C256.041 100.16 255.003 100.915 254.065 100.915ZM260.954 101.765C261.129 101.765 261.372 101.725 261.581 101.657V100.848L261.203 100.841C260.711 100.808 260.421 100.47 260.421 99.7623V91.6562H259.194V99.8836C259.194 100.861 259.45 101.765 260.954 101.765ZM265.616 101.812C266.6 101.819 267.45 101.388 267.706 100.342L267.834 101.677H268.826V94.7044H267.585V99.243C267.585 100.302 266.904 100.841 265.879 100.841C264.739 100.841 264.186 100.221 264.186 99.3104V94.7044H262.938V99.4385C262.938 101.01 264.166 101.799 265.616 101.812ZM271.794 98.4809H276.791V98.0223C276.791 95.9048 275.699 94.5695 273.736 94.5695C271.706 94.5695 270.533 96.0599 270.533 98.2584C270.533 100.484 271.875 101.812 273.824 101.812C275.179 101.812 276.488 101.064 276.744 99.6409H275.57C275.395 100.43 274.694 100.848 273.804 100.848C272.448 100.848 271.794 99.8027 271.794 98.4809ZM271.801 97.638C271.794 96.5994 272.414 95.5137 273.729 95.5137C274.991 95.5137 275.591 96.4376 275.591 97.638H271.801ZM211.387 124.926V134.677H213.525C217.065 134.677 218.724 132.978 218.724 129.741C218.724 126.659 217.234 124.987 213.653 124.939C212.83 124.933 211.502 124.926 211.387 124.926ZM212.669 125.998H213.579C215.993 125.998 217.409 126.942 217.409 129.761C217.409 132.58 215.939 133.605 213.525 133.605H212.669V125.998ZM222.438 134.812C223.436 134.812 224.293 134.455 224.832 133.369L224.927 134.677H225.992V129.808C225.992 128.352 225.089 127.57 223.275 127.57C221.582 127.57 220.543 128.318 220.469 129.674H221.568C221.737 128.844 222.411 128.493 223.214 128.487C224.286 128.487 224.785 129.026 224.785 129.876V130.422L223.544 130.456C221.157 130.51 220.139 131.245 220.139 132.789C220.139 134.064 221.083 134.812 222.438 134.812ZM222.809 133.915C221.953 133.915 221.346 133.457 221.346 132.668C221.346 131.636 222.148 131.238 223.753 131.211L224.785 131.191V132.385C224.785 133.16 223.747 133.915 222.809 133.915ZM231.195 128.615V127.698H229.624V125.675H228.707L228.403 127.704H227.237V128.615H228.37V132.992C228.37 134.111 228.754 134.711 230.204 134.711C230.71 134.711 231.06 134.664 231.236 134.597V133.76H230.474C229.819 133.76 229.624 133.693 229.624 132.951V128.615H231.195ZM234.793 134.812C235.791 134.812 236.648 134.455 237.187 133.369L237.282 134.677H238.347V129.808C238.347 128.352 237.444 127.57 235.629 127.57C233.937 127.57 232.898 128.318 232.824 129.674H233.923C234.092 128.844 234.766 128.493 235.569 128.487C236.641 128.487 237.14 129.026 237.14 129.876V130.422L235.899 130.456C233.512 130.51 232.494 131.245 232.494 132.789C232.494 134.064 233.438 134.812 234.793 134.812ZM235.164 133.915C234.308 133.915 233.701 133.457 233.701 132.668C233.701 131.636 234.503 131.238 236.108 131.211L237.14 131.191V132.385C237.14 133.16 236.102 133.915 235.164 133.915ZM250.978 124.926H249.744L246.756 133.261L243.769 124.926H242.535L246.008 134.677H247.512L250.978 124.926ZM253.694 134.812C254.692 134.812 255.549 134.455 256.088 133.369L256.183 134.677H257.248V129.808C257.248 128.352 256.345 127.57 254.531 127.57C252.838 127.57 251.799 128.318 251.725 129.674H252.824C252.993 128.844 253.667 128.493 254.47 128.487C255.542 128.487 256.041 129.026 256.041 129.876V130.422L254.8 130.456C252.413 130.51 251.395 131.245 251.395 132.789C251.395 134.064 252.339 134.812 253.694 134.812ZM254.065 133.915C253.209 133.915 252.602 133.457 252.602 132.668C252.602 131.636 253.404 131.238 255.009 131.211L256.041 131.191V132.385C256.041 133.16 255.003 133.915 254.065 133.915ZM260.954 134.765C261.129 134.765 261.372 134.725 261.581 134.657V133.848L261.203 133.841C260.711 133.808 260.421 133.47 260.421 132.762V124.656H259.194V132.884C259.194 133.861 259.45 134.765 260.954 134.765ZM265.616 134.812C266.6 134.819 267.45 134.388 267.706 133.342L267.834 134.677H268.826V127.704H267.585V132.243C267.585 133.302 266.904 133.841 265.879 133.841C264.739 133.841 264.186 133.221 264.186 132.31V127.704H262.938V132.439C262.938 134.01 264.166 134.799 265.616 134.812ZM271.794 131.481H276.791V131.022C276.791 128.905 275.699 127.57 273.736 127.57C271.706 127.57 270.533 129.06 270.533 131.258C270.533 133.484 271.875 134.812 273.824 134.812C275.179 134.812 276.488 134.064 276.744 132.641H275.57C275.395 133.43 274.694 133.848 273.804 133.848C272.448 133.848 271.794 132.803 271.794 131.481ZM271.801 130.638C271.794 129.599 272.414 128.514 273.729 128.514C274.991 128.514 275.591 129.438 275.591 130.638H271.801ZM211.387 158.926V168.677H213.525C217.065 168.677 218.724 166.978 218.724 163.741C218.724 160.659 217.234 158.987 213.653 158.939C212.83 158.933 211.502 158.926 211.387 158.926ZM212.669 159.998H213.579C215.993 159.998 217.409 160.942 217.409 163.761C217.409 166.58 215.939 167.605 213.525 167.605H212.669V159.998ZM222.438 168.812C223.436 168.812 224.293 168.455 224.832 167.369L224.927 168.677H225.992V163.808C225.992 162.352 225.089 161.57 223.275 161.57C221.582 161.57 220.543 162.318 220.469 163.674H221.568C221.737 162.844 222.411 162.493 223.214 162.487C224.286 162.487 224.785 163.026 224.785 163.876V164.422L223.544 164.456C221.157 164.51 220.139 165.245 220.139 166.789C220.139 168.064 221.083 168.812 222.438 168.812ZM222.809 167.915C221.953 167.915 221.346 167.457 221.346 166.668C221.346 165.636 222.148 165.238 223.753 165.211L224.785 165.191V166.385C224.785 167.16 223.747 167.915 222.809 167.915ZM231.195 162.615V161.698H229.624V159.675H228.707L228.403 161.704H227.237V162.615H228.37V166.992C228.37 168.111 228.754 168.711 230.204 168.711C230.71 168.711 231.06 168.664 231.236 168.597V167.76H230.474C229.819 167.76 229.624 167.693 229.624 166.951V162.615H231.195ZM234.793 168.812C235.791 168.812 236.648 168.455 237.187 167.369L237.282 168.677H238.347V163.808C238.347 162.352 237.444 161.57 235.629 161.57C233.937 161.57 232.898 162.318 232.824 163.674H233.923C234.092 162.844 234.766 162.493 235.569 162.487C236.641 162.487 237.14 163.026 237.14 163.876V164.422L235.899 164.456C233.512 164.51 232.494 165.245 232.494 166.789C232.494 168.064 233.438 168.812 234.793 168.812ZM235.164 167.915C234.308 167.915 233.701 167.457 233.701 166.668C233.701 165.636 234.503 165.238 236.108 165.211L237.14 165.191V166.385C237.14 167.16 236.102 167.915 235.164 167.915ZM250.978 158.926H249.744L246.756 167.261L243.769 158.926H242.535L246.008 168.677H247.512L250.978 158.926ZM253.694 168.812C254.692 168.812 255.549 168.455 256.088 167.369L256.183 168.677H257.248V163.808C257.248 162.352 256.345 161.57 254.531 161.57C252.838 161.57 251.799 162.318 251.725 163.674H252.824C252.993 162.844 253.667 162.493 254.47 162.487C255.542 162.487 256.041 163.026 256.041 163.876V164.422L254.8 164.456C252.413 164.51 251.395 165.245 251.395 166.789C251.395 168.064 252.339 168.812 253.694 168.812ZM254.065 167.915C253.209 167.915 252.602 167.457 252.602 166.668C252.602 165.636 253.404 165.238 255.009 165.211L256.041 165.191V166.385C256.041 167.16 255.003 167.915 254.065 167.915ZM260.954 168.765C261.129 168.765 261.372 168.725 261.581 168.657V167.848L261.203 167.841C260.711 167.808 260.421 167.47 260.421 166.762V158.656H259.194V166.884C259.194 167.861 259.45 168.765 260.954 168.765ZM265.616 168.812C266.6 168.819 267.45 168.388 267.706 167.342L267.834 168.677H268.826V161.704H267.585V166.243C267.585 167.302 266.904 167.841 265.879 167.841C264.739 167.841 264.186 167.221 264.186 166.31V161.704H262.938V166.439C262.938 168.01 264.166 168.799 265.616 168.812ZM271.794 165.481H276.791V165.022C276.791 162.905 275.699 161.57 273.736 161.57C271.706 161.57 270.533 163.06 270.533 165.258C270.533 167.484 271.875 168.812 273.824 168.812C275.179 168.812 276.488 168.064 276.744 166.641H275.57C275.395 167.43 274.694 167.848 273.804 167.848C272.448 167.848 271.794 166.803 271.794 165.481ZM271.801 164.638C271.794 163.599 272.414 162.514 273.729 162.514C274.991 162.514 275.591 163.438 275.591 164.638H271.801ZM211.387 192.926V202.677H213.525C217.065 202.677 218.724 200.978 218.724 197.741C218.724 194.659 217.234 192.987 213.653 192.939C212.83 192.933 211.502 192.926 211.387 192.926ZM212.669 193.998H213.579C215.993 193.998 217.409 194.942 217.409 197.761C217.409 200.58 215.939 201.605 213.525 201.605H212.669V193.998ZM222.438 202.812C223.436 202.812 224.293 202.455 224.832 201.369L224.927 202.677H225.992V197.808C225.992 196.352 225.089 195.57 223.275 195.57C221.582 195.57 220.543 196.318 220.469 197.674H221.568C221.737 196.844 222.411 196.493 223.214 196.487C224.286 196.487 224.785 197.026 224.785 197.876V198.422L223.544 198.456C221.157 198.51 220.139 199.245 220.139 200.789C220.139 202.064 221.083 202.812 222.438 202.812ZM222.809 201.915C221.953 201.915 221.346 201.457 221.346 200.668C221.346 199.636 222.148 199.238 223.753 199.211L224.785 199.191V200.385C224.785 201.16 223.747 201.915 222.809 201.915ZM231.195 196.615V195.698H229.624V193.675H228.707L228.403 195.704H227.237V196.615H228.37V200.992C228.37 202.111 228.754 202.711 230.204 202.711C230.71 202.711 231.06 202.664 231.236 202.597V201.76H230.474C229.819 201.76 229.624 201.693 229.624 200.951V196.615H231.195ZM234.793 202.812C235.791 202.812 236.648 202.455 237.187 201.369L237.282 202.677H238.347V197.808C238.347 196.352 237.444 195.57 235.629 195.57C233.937 195.57 232.898 196.318 232.824 197.674H233.923C234.092 196.844 234.766 196.493 235.569 196.487C236.641 196.487 237.14 197.026 237.14 197.876V198.422L235.899 198.456C233.512 198.51 232.494 199.245 232.494 200.789C232.494 202.064 233.438 202.812 234.793 202.812ZM235.164 201.915C234.308 201.915 233.701 201.457 233.701 200.668C233.701 199.636 234.503 199.238 236.108 199.211L237.14 199.191V200.385C237.14 201.16 236.102 201.915 235.164 201.915ZM250.978 192.926H249.744L246.756 201.261L243.769 192.926H242.535L246.008 202.677H247.512L250.978 192.926ZM253.694 202.812C254.692 202.812 255.549 202.455 256.088 201.369L256.183 202.677H257.248V197.808C257.248 196.352 256.345 195.57 254.531 195.57C252.838 195.57 251.799 196.318 251.725 197.674H252.824C252.993 196.844 253.667 196.493 254.47 196.487C255.542 196.487 256.041 197.026 256.041 197.876V198.422L254.8 198.456C252.413 198.51 251.395 199.245 251.395 200.789C251.395 202.064 252.339 202.812 253.694 202.812ZM254.065 201.915C253.209 201.915 252.602 201.457 252.602 200.668C252.602 199.636 253.404 199.238 255.009 199.211L256.041 199.191V200.385C256.041 201.16 255.003 201.915 254.065 201.915ZM260.954 202.765C261.129 202.765 261.372 202.725 261.581 202.657V201.848L261.203 201.841C260.711 201.808 260.421 201.47 260.421 200.762V192.656H259.194V200.884C259.194 201.861 259.45 202.765 260.954 202.765ZM265.616 202.812C266.6 202.819 267.45 202.388 267.706 201.342L267.834 202.677H268.826V195.704H267.585V200.243C267.585 201.302 266.904 201.841 265.879 201.841C264.739 201.841 264.186 201.221 264.186 200.31V195.704H262.938V200.439C262.938 202.01 264.166 202.799 265.616 202.812ZM271.794 199.481H276.791V199.022C276.791 196.905 275.699 195.57 273.736 195.57C271.706 195.57 270.533 197.06 270.533 199.258C270.533 201.484 271.875 202.812 273.824 202.812C275.179 202.812 276.488 202.064 276.744 200.641H275.57C275.395 201.43 274.694 201.848 273.804 201.848C272.448 201.848 271.794 200.803 271.794 199.481ZM271.801 198.638C271.794 197.599 272.414 196.514 273.729 196.514C274.991 196.514 275.591 197.438 275.591 198.638H271.801Z" fill="#00284D"/>
<g style="mix-blend-mode:color">
<rect width="320" height="120" fill="#808080"/>
</g>
<g style="mix-blend-mode:color">
<rect width="320" height="120" fill="#00284D"/>
</g>
</g>
<defs>
<clipPath id="clip0">
<rect width="320" height="120" fill="white"/>
</clipPath>
<clipPath id="clip1">
<rect width="504.436" height="204" fill="white" transform="translate(12 10)"/>
</clipPath>
</defs>
</svg>
