<svg width="320" height="120" viewBox="0 0 320 120" fill="none" xmlns="http://www.w3.org/2000/svg">
<rect width="320" height="120" fill="#C0CEDB"/>
<g filter="url(#filter0_d)">
<path d="M60 20C60 17.7909 61.7909 16 64 16H256C258.209 16 260 17.7909 260 20V104C260 106.209 258.209 108 256 108H64C61.7909 108 60 106.209 60 104V20Z" fill="white"/>
<path d="M77.408 35.432H79.376V45.32H84.6V47H77.4L77.408 35.432ZM88.9011 47.16C88.1065 47.16 87.4478 46.9467 86.9251 46.52C86.4025 46.088 86.1411 45.48 86.1411 44.696C86.1411 43.784 86.4691 43.096 87.1251 42.632C87.7865 42.168 88.8398 41.9253 90.2851 41.904L91.5171 41.872V41.312C91.5171 40.8747 91.3865 40.5333 91.1251 40.288C90.8638 40.0427 90.4638 39.92 89.9251 39.92C89.5198 39.9253 89.1518 40.0213 88.8211 40.208C88.4905 40.3947 88.2718 40.7013 88.1651 41.128H86.5091C86.5518 40.28 86.8905 39.6427 87.5251 39.216C88.1651 38.784 88.9945 38.568 90.0131 38.568C91.1918 38.568 92.0478 38.8 92.5811 39.264C93.1198 39.7227 93.3891 40.368 93.3891 41.2V47H91.7491L91.5971 45.512C91.2931 46.136 90.9145 46.568 90.4611 46.808C90.0078 47.0427 89.4878 47.16 88.9011 47.16ZM89.5331 45.84C89.8531 45.84 90.1651 45.7653 90.4691 45.616C90.7731 45.4613 91.0238 45.264 91.2211 45.024C91.4185 44.784 91.5171 44.528 91.5171 44.256V42.952L90.5011 42.968C89.7491 42.9787 89.1438 43.0987 88.6851 43.328C88.2265 43.5573 87.9971 43.9467 87.9971 44.496C87.9971 44.9173 88.1438 45.248 88.4371 45.488C88.7305 45.7227 89.0958 45.84 89.5331 45.84ZM100.035 47.16C99.4425 47.16 98.9625 47.0613 98.5945 46.864C98.2265 46.6613 97.9438 46.416 97.7465 46.128C97.5492 45.84 97.4078 45.5653 97.3225 45.304L97.0985 47H95.6665V35.112H97.6185V39.936C97.7892 39.6213 98.0932 39.3147 98.5305 39.016C98.9678 38.7173 99.5278 38.568 100.211 38.568C101.24 38.568 102.053 38.9333 102.651 39.664C103.248 40.3947 103.547 41.448 103.547 42.824C103.547 44.1307 103.251 45.1813 102.659 45.976C102.067 46.7653 101.192 47.16 100.035 47.16ZM99.6345 45.728C100.216 45.728 100.693 45.4987 101.067 45.04C101.44 44.576 101.627 43.8213 101.627 42.776C101.627 41.864 101.451 41.176 101.099 40.712C100.747 40.248 100.251 40.016 99.6105 40.016C98.9225 40.016 98.4212 40.2507 98.1065 40.72C97.7918 41.1893 97.6292 41.8747 97.6185 42.776C97.6185 43.832 97.7785 44.5893 98.0985 45.048C98.4238 45.5013 98.9358 45.728 99.6345 45.728ZM106.804 43.312C106.799 44.016 106.969 44.5947 107.316 45.048C107.668 45.496 108.177 45.72 108.844 45.72C109.303 45.72 109.7 45.6187 110.036 45.416C110.377 45.208 110.604 44.8933 110.716 44.472H112.5C112.399 45.048 112.167 45.536 111.804 45.936C111.447 46.336 111.009 46.64 110.492 46.848C109.98 47.056 109.447 47.16 108.892 47.16C108.092 47.16 107.388 46.992 106.78 46.656C106.177 46.3147 105.705 45.8293 105.364 45.2C105.028 44.5707 104.86 43.8213 104.86 42.952C104.86 42.104 105.015 41.352 105.324 40.696C105.633 40.0347 106.079 39.5147 106.66 39.136C107.241 38.7573 107.945 38.568 108.772 38.568C109.993 38.568 110.924 38.9493 111.564 39.712C112.204 40.4693 112.524 41.472 112.524 42.72V43.312H106.804ZM106.804 42.104H110.684C110.684 41.5067 110.527 41.0027 110.212 40.592C109.897 40.176 109.415 39.968 108.764 39.968C108.337 39.968 107.977 40.072 107.684 40.28C107.391 40.488 107.169 40.7573 107.02 41.088C106.871 41.4133 106.799 41.752 106.804 42.104ZM116.722 47.12C116.008 47.12 115.48 47.008 115.138 46.784C114.802 46.5547 114.584 46.2587 114.482 45.896C114.386 45.5333 114.338 45.1573 114.338 44.768V35.112H116.242V44.544C116.242 44.9013 116.314 45.1787 116.458 45.376C116.608 45.5733 116.848 45.688 117.178 45.72L117.594 45.736V46.96C117.45 47.008 117.301 47.0453 117.146 47.072C116.997 47.104 116.856 47.12 116.722 47.12Z" fill="black"/>
<rect x="76" y="59" width="168" height="1" fill="#C0CEDB"/>
<path d="M86.288 74.432L82.184 86H80.4L76.368 74.432H77.832L81.296 84.312L84.832 74.432H86.288ZM89.4651 86.16C88.6598 86.16 88.0038 85.9493 87.4971 85.528C86.9905 85.1067 86.7371 84.5173 86.7371 83.76C86.7371 82.8427 87.0571 82.16 87.6971 81.712C88.3371 81.264 89.3638 81.024 90.7771 80.992L92.2571 80.952V80.304C92.2571 79.7973 92.1025 79.3973 91.7931 79.104C91.4891 78.8053 91.0198 78.656 90.3851 78.656C89.9105 78.6613 89.4918 78.776 89.1291 79C88.7665 79.2187 88.5345 79.5733 88.4331 80.064H87.1291C87.1718 79.2587 87.4865 78.6427 88.0731 78.216C88.6598 77.784 89.4545 77.568 90.4571 77.568C91.5345 77.568 92.3398 77.7947 92.8731 78.248C93.4118 78.7013 93.6811 79.36 93.6811 80.224V86H92.4171L92.3131 84.448C91.9878 85.0933 91.5798 85.5413 91.0891 85.792C90.5985 86.0373 90.0571 86.16 89.4651 86.16ZM89.9131 85.096C90.2811 85.096 90.6438 85.008 91.0011 84.832C91.3638 84.656 91.6625 84.432 91.8971 84.16C92.1318 83.8827 92.2518 83.5893 92.2571 83.28V81.864L91.0251 81.888C90.0758 81.904 89.3638 82.0453 88.8891 82.312C88.4145 82.5733 88.1771 83.008 88.1771 83.616C88.1771 84.0853 88.3371 84.4507 88.6571 84.712C88.9825 84.968 89.4011 85.096 89.9131 85.096ZM98.2964 86.104C97.699 86.104 97.251 86 96.9524 85.792C96.6537 85.5787 96.4537 85.304 96.3524 84.968C96.2564 84.6267 96.2084 84.2613 96.2084 83.872V74.112H97.6644V83.728C97.6644 84.1493 97.7444 84.464 97.9044 84.672C98.0697 84.8747 98.299 84.9867 98.5924 85.008L99.0404 85.016V85.976C98.7737 86.0613 98.5257 86.104 98.2964 86.104ZM103.748 86.16C103.172 86.1547 102.644 86.048 102.164 85.84C101.684 85.6267 101.298 85.312 101.004 84.896C100.716 84.48 100.572 83.9627 100.572 83.344V77.728H102.052V83.192C102.052 83.7307 102.218 84.168 102.548 84.504C102.884 84.84 103.388 85.008 104.06 85.008C104.668 85.008 105.156 84.8507 105.524 84.536C105.898 84.216 106.084 83.7413 106.084 83.112V77.728H107.556V86H106.38L106.228 84.416C106.079 85.04 105.775 85.488 105.316 85.76C104.858 86.032 104.335 86.1653 103.748 86.16ZM110.921 82.208C110.921 82.7307 111.006 83.2053 111.177 83.632C111.353 84.0533 111.617 84.3893 111.969 84.64C112.326 84.8907 112.771 85.016 113.305 85.016C113.833 85.016 114.286 84.8933 114.665 84.648C115.049 84.4027 115.294 84.048 115.401 83.584H116.801C116.699 84.144 116.475 84.616 116.129 85C115.782 85.384 115.363 85.6747 114.873 85.872C114.382 86.064 113.87 86.16 113.337 86.16C112.563 86.16 111.883 85.992 111.297 85.656C110.71 85.32 110.251 84.8373 109.921 84.208C109.59 83.5787 109.425 82.824 109.425 81.944C109.425 81.0747 109.574 80.312 109.873 79.656C110.171 79 110.603 78.488 111.169 78.12C111.739 77.752 112.425 77.568 113.225 77.568C114.393 77.568 115.289 77.9387 115.913 78.68C116.537 79.416 116.849 80.4107 116.849 81.664V82.208H110.921ZM110.929 81.208H115.425C115.425 80.4987 115.243 79.9013 114.881 79.416C114.518 78.9307 113.963 78.688 113.217 78.688C112.699 78.688 112.27 78.8133 111.929 79.064C111.587 79.3093 111.334 79.6267 111.169 80.016C111.003 80.4 110.923 80.7973 110.929 81.208Z" fill="#495057"/>
<path d="M64 17H256V15H64V17ZM259 20V104H261V20H259ZM256 107H64V109H256V107ZM61 104V20H59V104H61ZM64 107C62.3431 107 61 105.657 61 104H59C59 106.761 61.2386 109 64 109V107ZM259 104C259 105.657 257.657 107 256 107V109C258.761 109 261 106.761 261 104H259ZM256 17C257.657 17 259 18.3431 259 20H261C261 17.2386 258.761 15 256 15V17ZM64 15C61.2386 15 59 17.2386 59 20H61C61 18.3431 62.3431 17 64 17V15Z" fill="#DEE2E6"/>
</g>
<g style="mix-blend-mode:color">
<rect width="320" height="120" fill="#808080"/>
</g>
<g style="mix-blend-mode:color">
<rect width="320" height="120" fill="#00284D"/>
</g>
<defs>
<filter id="filter0_d" x="58" y="16" width="204" height="96" filterUnits="userSpaceOnUse" color-interpolation-filters="sRGB">
<feFlood flood-opacity="0" result="BackgroundImageFix"/>
<feColorMatrix in="SourceAlpha" type="matrix" values="0 0 0 0 0 0 0 0 0 0 0 0 0 0 0 0 0 0 127 0"/>
<feOffset dy="2"/>
<feGaussianBlur stdDeviation="1"/>
<feColorMatrix type="matrix" values="0 0 0 0 0 0 0 0 0 0 0 0 0 0 0 0 0 0 0.15 0"/>
<feBlend mode="normal" in2="BackgroundImageFix" result="effect1_dropShadow"/>
<feBlend mode="normal" in="SourceGraphic" in2="effect1_dropShadow" result="shape"/>
</filter>
</defs>
</svg>
