<svg width="320" height="120" viewBox="0 0 320 120" fill="none" xmlns="http://www.w3.org/2000/svg">
<g clip-path="url(#clip0_702_7213)">
<rect width="320" height="120" fill="#C0CEDB"/>
<g filter="url(#filter0_i_702_7213)">
<rect x="20" y="62" width="90.9418" height="23.385" rx="1.29917" fill="white"/>
<rect x="20.5" y="62.5" width="89.9418" height="22.385" rx="0.799168" stroke="#6C757D"/>
</g>
<g filter="url(#filter1_i_702_7213)">
<rect x="20" y="110" width="90.9418" height="23.385" rx="1.29917" fill="white"/>
<rect x="20.5" y="110.5" width="89.9418" height="22.385" rx="0.799168" stroke="#6C757D"/>
</g>
<g filter="url(#filter2_i_702_7213)">
<rect x="116.84" y="62" width="90.9418" height="23.385" rx="1.29917" fill="white"/>
<rect x="117.34" y="62.5" width="89.9418" height="22.385" rx="0.799168" stroke="#6C757D"/>
</g>
<path d="M24.96 46.77H25.905V53.17H29.32V54H24.955L24.96 46.77ZM32.0544 54.1C31.721 54.1 31.426 54.0417 31.1694 53.925C30.9127 53.805 30.711 53.6333 30.5644 53.41C30.421 53.1867 30.3494 52.9167 30.3494 52.6C30.3494 52.0267 30.5494 51.6 30.9494 51.32C31.3494 51.04 31.991 50.89 32.8744 50.87L33.7994 50.845V50.44C33.7994 50.1233 33.7044 49.8733 33.5144 49.69C33.3244 49.5033 33.0294 49.41 32.6294 49.41C32.3327 49.4133 32.071 49.4833 31.8444 49.62C31.621 49.7567 31.476 49.98 31.4094 50.29H30.5944C30.6144 49.9533 30.7094 49.67 30.8794 49.44C31.0494 49.2067 31.286 49.03 31.5894 48.91C31.896 48.79 32.2577 48.73 32.6744 48.73C33.1244 48.73 33.4977 48.7933 33.7944 48.92C34.0944 49.0467 34.3177 49.2333 34.4644 49.48C34.6144 49.7267 34.6894 50.03 34.6894 50.39V54H33.8994L33.8344 53.03C33.6344 53.4333 33.3794 53.7133 33.0694 53.87C32.7627 54.0233 32.4244 54.1 32.0544 54.1ZM32.3344 53.435C32.5077 53.435 32.6794 53.4033 32.8494 53.34C33.0227 53.2767 33.181 53.1917 33.3244 53.085C33.4677 52.975 33.581 52.8533 33.6644 52.72C33.751 52.5833 33.796 52.4433 33.7994 52.3V51.415L33.0294 51.43C32.636 51.4367 32.306 51.4767 32.0394 51.55C31.776 51.6233 31.5777 51.7383 31.4444 51.895C31.3144 52.0517 31.2494 52.2567 31.2494 52.51C31.2494 52.8 31.3494 53.0267 31.5494 53.19C31.7527 53.3533 32.0144 53.435 32.3344 53.435ZM38.8239 54.1C38.5206 54.1 38.2639 54.06 38.0539 53.98C37.8472 53.9 37.6772 53.7983 37.5439 53.675C37.4106 53.5483 37.3072 53.42 37.2339 53.29C37.1606 53.1567 37.1072 53.04 37.0739 52.94L36.9739 54H36.2689V46.57H37.1989V49.65C37.2422 49.5633 37.3072 49.4683 37.3939 49.365C37.4839 49.2617 37.5989 49.1617 37.7389 49.065C37.8789 48.9683 38.0439 48.8883 38.2339 48.825C38.4272 48.7617 38.6472 48.73 38.8939 48.73C39.5406 48.73 40.0539 48.955 40.4339 49.405C40.8172 49.855 41.0089 50.5183 41.0089 51.395C41.0089 51.9383 40.9272 52.4133 40.7639 52.82C40.6006 53.2233 40.3572 53.5383 40.0339 53.765C39.7106 53.9883 39.3072 54.1 38.8239 54.1ZM38.6589 53.39C39.0789 53.39 39.4206 53.2283 39.6839 52.905C39.9472 52.5783 40.0789 52.06 40.0789 51.35C40.0789 50.7467 39.9556 50.28 39.7089 49.95C39.4656 49.6167 39.1089 49.45 38.6389 49.45C38.2956 49.45 38.0189 49.525 37.8089 49.675C37.6022 49.8217 37.4489 50.0367 37.3489 50.32C37.2522 50.6033 37.2022 50.9467 37.1989 51.35C37.1989 52.0733 37.3106 52.595 37.5339 52.915C37.7606 53.2317 38.1356 53.39 38.6589 53.39ZM42.8762 51.63C42.8762 51.9567 42.9295 52.2533 43.0362 52.52C43.1462 52.7833 43.3112 52.9933 43.5312 53.15C43.7545 53.3067 44.0328 53.385 44.3662 53.385C44.6962 53.385 44.9795 53.3083 45.2162 53.155C45.4562 53.0017 45.6095 52.78 45.6762 52.49H46.5512C46.4878 52.84 46.3478 53.135 46.1312 53.375C45.9145 53.615 45.6528 53.7967 45.3462 53.92C45.0395 54.04 44.7195 54.1 44.3862 54.1C43.9028 54.1 43.4778 53.995 43.1112 53.785C42.7445 53.575 42.4578 53.2733 42.2512 52.88C42.0445 52.4867 41.9412 52.015 41.9412 51.465C41.9412 50.9217 42.0345 50.445 42.2212 50.035C42.4078 49.625 42.6778 49.305 43.0312 49.075C43.3878 48.845 43.8162 48.73 44.3162 48.73C44.8028 48.73 45.2145 48.835 45.5512 49.045C45.8878 49.255 46.1428 49.5517 46.3162 49.935C46.4928 50.315 46.5812 50.7667 46.5812 51.29V51.63H42.8762ZM42.8812 51.005H45.6912C45.6912 50.7083 45.6412 50.4417 45.5412 50.205C45.4412 49.965 45.2878 49.7767 45.0812 49.64C44.8778 49.5 44.6212 49.43 44.3112 49.43C43.9878 49.43 43.7195 49.5083 43.5062 49.665C43.2962 49.8183 43.1378 50.0167 43.0312 50.26C42.9278 50.5 42.8778 50.7483 42.8812 51.005ZM49.1559 54.065C48.8759 54.065 48.6493 54.0267 48.4759 53.95C48.3059 53.8733 48.1743 53.77 48.0809 53.64C47.9909 53.51 47.9293 53.3617 47.8959 53.195C47.8659 53.025 47.8509 52.85 47.8509 52.67V46.57H48.7609V52.58C48.7609 52.84 48.8109 53.035 48.9109 53.165C49.0143 53.295 49.1576 53.3667 49.3409 53.38L49.6209 53.385V53.985C49.5443 54.0083 49.4643 54.0267 49.3809 54.04C49.2976 54.0567 49.2226 54.065 49.1559 54.065Z" fill="#00284D"/>
<path d="M25.464 20.432H32.856L32.848 21.904H27.208V25.48H32.224V26.936H27.208V32H25.464V20.432ZM37.8325 32.16C37.0592 32.16 36.3818 31.9947 35.8005 31.664C35.2245 31.328 34.7765 30.8427 34.4565 30.208C34.1418 29.5733 33.9845 28.8053 33.9845 27.904C33.9845 27.0347 34.1338 26.2747 34.4325 25.624C34.7365 24.9733 35.1765 24.4693 35.7525 24.112C36.3285 23.7493 37.0245 23.568 37.8405 23.568C38.6192 23.568 39.2938 23.7387 39.8645 24.08C40.4352 24.416 40.8778 24.9093 41.1925 25.56C41.5072 26.2053 41.6645 26.9867 41.6645 27.904C41.6645 28.7413 41.5152 29.48 41.2165 30.12C40.9232 30.76 40.4912 31.2613 39.9205 31.624C39.3552 31.9813 38.6592 32.16 37.8325 32.16ZM37.8405 30.84C38.3098 30.84 38.7018 30.7173 39.0165 30.472C39.3365 30.2213 39.5765 29.872 39.7365 29.424C39.8965 28.9707 39.9765 28.448 39.9765 27.856C39.9765 27.3067 39.9045 26.808 39.7605 26.36C39.6218 25.9067 39.3952 25.5467 39.0805 25.28C38.7658 25.0133 38.3525 24.88 37.8405 24.88C37.3605 24.88 36.9605 25.0027 36.6405 25.248C36.3205 25.488 36.0778 25.832 35.9125 26.28C35.7525 26.7227 35.6725 27.248 35.6725 27.856C35.6725 28.3947 35.7445 28.8907 35.8885 29.344C36.0325 29.7973 36.2645 30.16 36.5845 30.432C36.9045 30.704 37.3232 30.84 37.8405 30.84ZM43.5038 32V23.728H45.1438V25.424C45.2824 25.0187 45.4744 24.68 45.7198 24.408C45.9704 24.1307 46.2611 23.9227 46.5918 23.784C46.9224 23.64 47.2718 23.568 47.6398 23.568C47.7518 23.568 47.8584 23.576 47.9598 23.592C48.0611 23.6027 48.1411 23.624 48.1998 23.656V25.304C48.1304 25.272 48.0398 25.2507 47.9278 25.24C47.8211 25.2293 47.7278 25.2213 47.6478 25.216C47.2851 25.1893 46.9544 25.208 46.6558 25.272C46.3571 25.336 46.0984 25.4427 45.8798 25.592C45.6664 25.7413 45.5011 25.936 45.3838 26.176C45.2718 26.416 45.2158 26.6987 45.2158 27.024V32H43.5038ZM49.785 32V23.728H51.449V24.92C51.6837 24.5573 52.0037 24.2427 52.409 23.976C52.8143 23.704 53.337 23.568 53.977 23.568C54.2757 23.568 54.577 23.6187 54.881 23.72C55.1903 23.8213 55.473 23.9733 55.729 24.176C55.9903 24.3733 56.1957 24.6187 56.345 24.912C56.6063 24.5173 56.9557 24.1947 57.393 23.944C57.8303 23.6933 58.321 23.568 58.865 23.568C59.1583 23.568 59.4623 23.616 59.777 23.712C60.0917 23.8027 60.3823 23.96 60.649 24.184C60.921 24.4027 61.1397 24.7067 61.305 25.096C61.4757 25.4853 61.561 25.9787 61.561 26.576V32H59.841V26.76C59.841 26.3067 59.7637 25.952 59.609 25.696C59.4597 25.44 59.2623 25.2613 59.017 25.16C58.777 25.0533 58.521 25 58.249 25C58.0037 25 57.7477 25.048 57.481 25.144C57.2143 25.24 56.9877 25.4 56.801 25.624C56.6143 25.848 56.521 26.152 56.521 26.536V32H54.809V26.392C54.809 26.088 54.7263 25.832 54.561 25.624C54.401 25.416 54.1983 25.2613 53.953 25.16C53.713 25.0533 53.473 25 53.233 25C52.9663 25 52.6997 25.0533 52.433 25.16C52.1663 25.2667 51.9423 25.4347 51.761 25.664C51.585 25.888 51.497 26.1787 51.497 26.536V32H49.785ZM71.7071 32.16C71.1578 32.16 70.6218 32.0907 70.0991 31.952C69.5765 31.8133 69.1018 31.608 68.6751 31.336C68.2485 31.0587 67.8938 30.7147 67.6111 30.304C67.3338 29.8933 67.1605 29.4133 67.0911 28.864H68.8751C68.9658 29.28 69.1445 29.6293 69.4111 29.912C69.6831 30.1947 70.0165 30.408 70.4111 30.552C70.8058 30.696 71.2351 30.768 71.6991 30.768C72.2111 30.768 72.6698 30.6987 73.0751 30.56C73.4858 30.416 73.8111 30.2133 74.0511 29.952C74.2911 29.6853 74.4111 29.3653 74.4111 28.992C74.4111 28.656 74.3285 28.3707 74.1631 28.136C74.0031 27.9013 73.7738 27.7067 73.4751 27.552C73.1818 27.392 72.8271 27.2667 72.4111 27.176L70.2191 26.68C69.3605 26.4987 68.6831 26.1627 68.1871 25.672C67.6965 25.176 67.4485 24.52 67.4431 23.704C67.4378 23.0213 67.6165 22.424 67.9791 21.912C68.3471 21.4 68.8485 21.0027 69.4831 20.72C70.1178 20.432 70.8405 20.288 71.6511 20.288C72.5951 20.288 73.3871 20.4453 74.0271 20.76C74.6725 21.0747 75.1605 21.4907 75.4911 22.008C75.8218 22.52 75.9898 23.0773 75.9951 23.68H74.2431C74.2005 23.1893 74.0565 22.8 73.8111 22.512C73.5658 22.224 73.2565 22.0187 72.8831 21.896C72.5151 21.768 72.1098 21.704 71.6671 21.704C71.3471 21.704 71.0405 21.744 70.7471 21.824C70.4538 21.904 70.1951 22.0213 69.9711 22.176C69.7471 22.3307 69.5685 22.5227 69.4351 22.752C69.3071 22.976 69.2431 23.2347 69.2431 23.528C69.2431 23.9227 69.3765 24.2427 69.6431 24.488C69.9098 24.7333 70.4005 24.944 71.1151 25.12L73.2591 25.608C73.8725 25.736 74.3685 25.9253 74.7471 26.176C75.1258 26.4213 75.4165 26.7013 75.6191 27.016C75.8218 27.3307 75.9605 27.6587 76.0351 28C76.1098 28.336 76.1471 28.6587 76.1471 28.968C76.1471 29.5653 75.9685 30.1067 75.6111 30.592C75.2538 31.072 74.7445 31.4533 74.0831 31.736C73.4218 32.0187 72.6298 32.16 71.7071 32.16ZM79.4873 28.264C79.4873 28.76 79.5673 29.2053 79.7273 29.6C79.8926 29.9893 80.1406 30.2987 80.4713 30.528C80.8019 30.752 81.2126 30.864 81.7033 30.864C82.1939 30.864 82.6179 30.752 82.9753 30.528C83.3379 30.304 83.5753 29.9707 83.6873 29.528H85.2713C85.1753 30.0933 84.9486 30.5733 84.5913 30.968C84.2393 31.3627 83.8126 31.6613 83.3113 31.864C82.8099 32.0613 82.2846 32.16 81.7352 32.16C80.9513 32.16 80.2606 31.992 79.6633 31.656C79.0659 31.3147 78.5993 30.8293 78.2633 30.2C77.9326 29.5707 77.7673 28.8213 77.7673 27.952C77.7673 27.0933 77.9193 26.336 78.2233 25.68C78.5273 25.0187 78.9673 24.5013 79.5433 24.128C80.1193 23.7547 80.8126 23.568 81.6233 23.568C82.4233 23.568 83.0953 23.7387 83.6393 24.08C84.1886 24.4213 84.6046 24.9013 84.8873 25.52C85.1699 26.1333 85.3113 26.8587 85.3113 27.696V28.264H79.4873ZM79.4873 27.152H83.6793C83.6793 26.72 83.6046 26.328 83.4553 25.976C83.3059 25.6187 83.0766 25.3387 82.7673 25.136C82.4633 24.928 82.0793 24.824 81.6153 24.824C81.1406 24.824 80.7459 24.9387 80.4313 25.168C80.1166 25.3973 79.8793 25.6907 79.7193 26.048C79.5646 26.4053 79.4873 26.7733 79.4873 27.152ZM90.5905 23.568C91.2092 23.568 91.7585 23.6907 92.2385 23.936C92.7238 24.176 93.1158 24.512 93.4145 24.944C93.7132 25.376 93.8945 25.88 93.9585 26.456H92.4785C92.4305 26.184 92.3265 25.9307 92.1665 25.696C92.0118 25.4613 91.8012 25.2747 91.5345 25.136C91.2732 24.992 90.9612 24.92 90.5985 24.92C89.9372 24.92 89.3985 25.1627 88.9825 25.648C88.5665 26.1333 88.3585 26.8773 88.3585 27.88C88.3585 28.7973 88.5505 29.528 88.9345 30.072C89.3238 30.616 89.8892 30.888 90.6305 30.888C90.9878 30.888 91.2972 30.8133 91.5585 30.664C91.8252 30.5147 92.0358 30.3227 92.1905 30.088C92.3452 29.8533 92.4438 29.6107 92.4865 29.36H93.9425C93.8838 29.9147 93.7025 30.4027 93.3985 30.824C93.0998 31.2453 92.7078 31.5733 92.2225 31.808C91.7425 32.0427 91.1985 32.16 90.5905 32.16C89.8385 32.16 89.1718 31.9973 88.5905 31.672C88.0092 31.3413 87.5532 30.8587 87.2225 30.224C86.8972 29.584 86.7345 28.808 86.7345 27.896C86.7345 27.0373 86.8865 26.2827 87.1905 25.632C87.4945 24.9813 87.9345 24.4747 88.5105 24.112C89.0918 23.7493 89.7852 23.568 90.5905 23.568ZM100.016 24.96H98.1598L98.1678 29.896C98.1678 30.168 98.1944 30.368 98.2478 30.496C98.3064 30.6187 98.4024 30.6987 98.5358 30.736C98.6744 30.768 98.8611 30.784 99.0958 30.784H100.064V31.896C99.9571 31.9387 99.7971 31.976 99.5838 32.008C99.3758 32.04 99.1064 32.056 98.7758 32.056C98.1624 32.056 97.6851 31.9733 97.3438 31.808C97.0078 31.6427 96.7731 31.4053 96.6398 31.096C96.5118 30.7813 96.4478 30.4027 96.4478 29.96V24.96H95.1038V23.728H96.4958L96.9198 21.296H98.1598V23.72H100.016V24.96ZM103.843 23.728V32H102.195V23.728H103.843ZM103.875 20.44V22.128H102.155V20.44H103.875ZM109.661 32.16C108.887 32.16 108.21 31.9947 107.629 31.664C107.053 31.328 106.605 30.8427 106.285 30.208C105.97 29.5733 105.813 28.8053 105.813 27.904C105.813 27.0347 105.962 26.2747 106.261 25.624C106.565 24.9733 107.005 24.4693 107.581 24.112C108.157 23.7493 108.853 23.568 109.669 23.568C110.447 23.568 111.122 23.7387 111.693 24.08C112.263 24.416 112.706 24.9093 113.021 25.56C113.335 26.2053 113.493 26.9867 113.493 27.904C113.493 28.7413 113.343 29.48 113.045 30.12C112.751 30.76 112.319 31.2613 111.749 31.624C111.183 31.9813 110.487 32.16 109.661 32.16ZM109.669 30.84C110.138 30.84 110.53 30.7173 110.845 30.472C111.165 30.2213 111.405 29.872 111.565 29.424C111.725 28.9707 111.805 28.448 111.805 27.856C111.805 27.3067 111.733 26.808 111.589 26.36C111.45 25.9067 111.223 25.5467 110.909 25.28C110.594 25.0133 110.181 24.88 109.669 24.88C109.189 24.88 108.789 25.0027 108.469 25.248C108.149 25.488 107.906 25.832 107.741 26.28C107.581 26.7227 107.501 27.248 107.501 27.856C107.501 28.3947 107.573 28.8907 107.717 29.344C107.861 29.7973 108.093 30.16 108.413 30.432C108.733 30.704 109.151 30.84 109.669 30.84ZM115.332 32V23.728H117.004V24.92C117.137 24.696 117.316 24.4853 117.54 24.288C117.769 24.0907 118.049 23.9307 118.38 23.808C118.716 23.6853 119.103 23.624 119.54 23.624C120.057 23.624 120.535 23.728 120.972 23.936C121.415 24.1387 121.769 24.4587 122.036 24.896C122.303 25.328 122.436 25.888 122.436 26.576V32H120.724V26.76C120.724 26.168 120.564 25.728 120.244 25.44C119.929 25.152 119.521 25.008 119.02 25.008C118.684 25.008 118.364 25.064 118.06 25.176C117.756 25.288 117.511 25.4587 117.324 25.688C117.137 25.912 117.044 26.1947 117.044 26.536V32H115.332Z" fill="#00284D"/>
<path d="M121.96 46.77H122.905V53.17H126.32V54H121.955L121.96 46.77ZM129.054 54.1C128.721 54.1 128.426 54.0417 128.169 53.925C127.913 53.805 127.711 53.6333 127.564 53.41C127.421 53.1867 127.349 52.9167 127.349 52.6C127.349 52.0267 127.549 51.6 127.949 51.32C128.349 51.04 128.991 50.89 129.874 50.87L130.799 50.845V50.44C130.799 50.1233 130.704 49.8733 130.514 49.69C130.324 49.5033 130.029 49.41 129.629 49.41C129.333 49.4133 129.071 49.4833 128.844 49.62C128.621 49.7567 128.476 49.98 128.409 50.29H127.594C127.614 49.9533 127.709 49.67 127.879 49.44C128.049 49.2067 128.286 49.03 128.589 48.91C128.896 48.79 129.258 48.73 129.674 48.73C130.124 48.73 130.498 48.7933 130.794 48.92C131.094 49.0467 131.318 49.2333 131.464 49.48C131.614 49.7267 131.689 50.03 131.689 50.39V54H130.899L130.834 53.03C130.634 53.4333 130.379 53.7133 130.069 53.87C129.763 54.0233 129.424 54.1 129.054 54.1ZM129.334 53.435C129.508 53.435 129.679 53.4033 129.849 53.34C130.023 53.2767 130.181 53.1917 130.324 53.085C130.468 52.975 130.581 52.8533 130.664 52.72C130.751 52.5833 130.796 52.4433 130.799 52.3V51.415L130.029 51.43C129.636 51.4367 129.306 51.4767 129.039 51.55C128.776 51.6233 128.578 51.7383 128.444 51.895C128.314 52.0517 128.249 52.2567 128.249 52.51C128.249 52.8 128.349 53.0267 128.549 53.19C128.753 53.3533 129.014 53.435 129.334 53.435ZM135.824 54.1C135.521 54.1 135.264 54.06 135.054 53.98C134.847 53.9 134.677 53.7983 134.544 53.675C134.411 53.5483 134.307 53.42 134.234 53.29C134.161 53.1567 134.107 53.04 134.074 52.94L133.974 54H133.269V46.57H134.199V49.65C134.242 49.5633 134.307 49.4683 134.394 49.365C134.484 49.2617 134.599 49.1617 134.739 49.065C134.879 48.9683 135.044 48.8883 135.234 48.825C135.427 48.7617 135.647 48.73 135.894 48.73C136.541 48.73 137.054 48.955 137.434 49.405C137.817 49.855 138.009 50.5183 138.009 51.395C138.009 51.9383 137.927 52.4133 137.764 52.82C137.601 53.2233 137.357 53.5383 137.034 53.765C136.711 53.9883 136.307 54.1 135.824 54.1ZM135.659 53.39C136.079 53.39 136.421 53.2283 136.684 52.905C136.947 52.5783 137.079 52.06 137.079 51.35C137.079 50.7467 136.956 50.28 136.709 49.95C136.466 49.6167 136.109 49.45 135.639 49.45C135.296 49.45 135.019 49.525 134.809 49.675C134.602 49.8217 134.449 50.0367 134.349 50.32C134.252 50.6033 134.202 50.9467 134.199 51.35C134.199 52.0733 134.311 52.595 134.534 52.915C134.761 53.2317 135.136 53.39 135.659 53.39ZM139.876 51.63C139.876 51.9567 139.93 52.2533 140.036 52.52C140.146 52.7833 140.311 52.9933 140.531 53.15C140.755 53.3067 141.033 53.385 141.366 53.385C141.696 53.385 141.98 53.3083 142.216 53.155C142.456 53.0017 142.61 52.78 142.676 52.49H143.551C143.488 52.84 143.348 53.135 143.131 53.375C142.915 53.615 142.653 53.7967 142.346 53.92C142.04 54.04 141.72 54.1 141.386 54.1C140.903 54.1 140.478 53.995 140.111 53.785C139.745 53.575 139.458 53.2733 139.251 52.88C139.045 52.4867 138.941 52.015 138.941 51.465C138.941 50.9217 139.035 50.445 139.221 50.035C139.408 49.625 139.678 49.305 140.031 49.075C140.388 48.845 140.816 48.73 141.316 48.73C141.803 48.73 142.215 48.835 142.551 49.045C142.888 49.255 143.143 49.5517 143.316 49.935C143.493 50.315 143.581 50.7667 143.581 51.29V51.63H139.876ZM139.881 51.005H142.691C142.691 50.7083 142.641 50.4417 142.541 50.205C142.441 49.965 142.288 49.7767 142.081 49.64C141.878 49.5 141.621 49.43 141.311 49.43C140.988 49.43 140.72 49.5083 140.506 49.665C140.296 49.8183 140.138 50.0167 140.031 50.26C139.928 50.5 139.878 50.7483 139.881 51.005ZM146.156 54.065C145.876 54.065 145.649 54.0267 145.476 53.95C145.306 53.8733 145.174 53.77 145.081 53.64C144.991 53.51 144.929 53.3617 144.896 53.195C144.866 53.025 144.851 52.85 144.851 52.67V46.57H145.761V52.58C145.761 52.84 145.811 53.035 145.911 53.165C146.014 53.295 146.158 53.3667 146.341 53.38L146.621 53.385V53.985C146.544 54.0083 146.464 54.0267 146.381 54.04C146.298 54.0567 146.223 54.065 146.156 54.065Z" fill="#00284D"/>
<path d="M24.96 94.77H25.905V101.17H29.32V102H24.955L24.96 94.77ZM32.0544 102.1C31.721 102.1 31.426 102.042 31.1694 101.925C30.9127 101.805 30.711 101.633 30.5644 101.41C30.421 101.187 30.3494 100.917 30.3494 100.6C30.3494 100.027 30.5494 99.6 30.9494 99.32C31.3494 99.04 31.991 98.89 32.8744 98.87L33.7994 98.845V98.44C33.7994 98.1233 33.7044 97.8733 33.5144 97.69C33.3244 97.5033 33.0294 97.41 32.6294 97.41C32.3327 97.4133 32.071 97.4833 31.8444 97.62C31.621 97.7567 31.476 97.98 31.4094 98.29H30.5944C30.6144 97.9533 30.7094 97.67 30.8794 97.44C31.0494 97.2067 31.286 97.03 31.5894 96.91C31.896 96.79 32.2577 96.73 32.6744 96.73C33.1244 96.73 33.4977 96.7933 33.7944 96.92C34.0944 97.0467 34.3177 97.2333 34.4644 97.48C34.6144 97.7267 34.6894 98.03 34.6894 98.39V102H33.8994L33.8344 101.03C33.6344 101.433 33.3794 101.713 33.0694 101.87C32.7627 102.023 32.4244 102.1 32.0544 102.1ZM32.3344 101.435C32.5077 101.435 32.6794 101.403 32.8494 101.34C33.0227 101.277 33.181 101.192 33.3244 101.085C33.4677 100.975 33.581 100.853 33.6644 100.72C33.751 100.583 33.796 100.443 33.7994 100.3V99.415L33.0294 99.43C32.636 99.4367 32.306 99.4767 32.0394 99.55C31.776 99.6233 31.5777 99.7383 31.4444 99.895C31.3144 100.052 31.2494 100.257 31.2494 100.51C31.2494 100.8 31.3494 101.027 31.5494 101.19C31.7527 101.353 32.0144 101.435 32.3344 101.435ZM38.8239 102.1C38.5206 102.1 38.2639 102.06 38.0539 101.98C37.8472 101.9 37.6772 101.798 37.5439 101.675C37.4106 101.548 37.3072 101.42 37.2339 101.29C37.1606 101.157 37.1072 101.04 37.0739 100.94L36.9739 102H36.2689V94.57H37.1989V97.65C37.2422 97.5633 37.3072 97.4683 37.3939 97.365C37.4839 97.2617 37.5989 97.1617 37.7389 97.065C37.8789 96.9683 38.0439 96.8883 38.2339 96.825C38.4272 96.7617 38.6472 96.73 38.8939 96.73C39.5406 96.73 40.0539 96.955 40.4339 97.405C40.8172 97.855 41.0089 98.5183 41.0089 99.395C41.0089 99.9383 40.9272 100.413 40.7639 100.82C40.6006 101.223 40.3572 101.538 40.0339 101.765C39.7106 101.988 39.3072 102.1 38.8239 102.1ZM38.6589 101.39C39.0789 101.39 39.4206 101.228 39.6839 100.905C39.9472 100.578 40.0789 100.06 40.0789 99.35C40.0789 98.7467 39.9556 98.28 39.7089 97.95C39.4656 97.6167 39.1089 97.45 38.6389 97.45C38.2956 97.45 38.0189 97.525 37.8089 97.675C37.6022 97.8217 37.4489 98.0367 37.3489 98.32C37.2522 98.6033 37.2022 98.9467 37.1989 99.35C37.1989 100.073 37.3106 100.595 37.5339 100.915C37.7606 101.232 38.1356 101.39 38.6589 101.39ZM42.8762 99.63C42.8762 99.9567 42.9295 100.253 43.0362 100.52C43.1462 100.783 43.3112 100.993 43.5312 101.15C43.7545 101.307 44.0328 101.385 44.3662 101.385C44.6962 101.385 44.9795 101.308 45.2162 101.155C45.4562 101.002 45.6095 100.78 45.6762 100.49H46.5512C46.4878 100.84 46.3478 101.135 46.1312 101.375C45.9145 101.615 45.6528 101.797 45.3462 101.92C45.0395 102.04 44.7195 102.1 44.3862 102.1C43.9028 102.1 43.4778 101.995 43.1112 101.785C42.7445 101.575 42.4578 101.273 42.2512 100.88C42.0445 100.487 41.9412 100.015 41.9412 99.465C41.9412 98.9217 42.0345 98.445 42.2212 98.035C42.4078 97.625 42.6778 97.305 43.0312 97.075C43.3878 96.845 43.8162 96.73 44.3162 96.73C44.8028 96.73 45.2145 96.835 45.5512 97.045C45.8878 97.255 46.1428 97.5517 46.3162 97.935C46.4928 98.315 46.5812 98.7667 46.5812 99.29V99.63H42.8762ZM42.8812 99.005H45.6912C45.6912 98.7083 45.6412 98.4417 45.5412 98.205C45.4412 97.965 45.2878 97.7767 45.0812 97.64C44.8778 97.5 44.6212 97.43 44.3112 97.43C43.9878 97.43 43.7195 97.5083 43.5062 97.665C43.2962 97.8183 43.1378 98.0167 43.0312 98.26C42.9278 98.5 42.8778 98.7483 42.8812 99.005ZM49.1559 102.065C48.8759 102.065 48.6493 102.027 48.4759 101.95C48.3059 101.873 48.1743 101.77 48.0809 101.64C47.9909 101.51 47.9293 101.362 47.8959 101.195C47.8659 101.025 47.8509 100.85 47.8509 100.67V94.57H48.7609V100.58C48.7609 100.84 48.8109 101.035 48.9109 101.165C49.0143 101.295 49.1576 101.367 49.3409 101.38L49.6209 101.385V101.985C49.5443 102.008 49.4643 102.027 49.3809 102.04C49.2976 102.057 49.2226 102.065 49.1559 102.065Z" fill="#00284D"/>
<g style="mix-blend-mode:color">
<rect width="320" height="120" fill="#808080"/>
</g>
<g style="mix-blend-mode:color">
<rect width="320" height="120" fill="#00284D"/>
</g>
</g>
<defs>
<filter id="filter0_i_702_7213" x="20" y="62" width="90.9419" height="24.3594" filterUnits="userSpaceOnUse" color-interpolation-filters="sRGB">
<feFlood flood-opacity="0" result="BackgroundImageFix"/>
<feBlend mode="normal" in="SourceGraphic" in2="BackgroundImageFix" result="shape"/>
<feColorMatrix in="SourceAlpha" type="matrix" values="0 0 0 0 0 0 0 0 0 0 0 0 0 0 0 0 0 0 127 0" result="hardAlpha"/>
<feOffset dy="0.974376"/>
<feGaussianBlur stdDeviation="0.649584"/>
<feComposite in2="hardAlpha" operator="arithmetic" k2="-1" k3="1"/>
<feColorMatrix type="matrix" values="0 0 0 0 0 0 0 0 0 0 0 0 0 0 0 0 0 0 0.1 0"/>
<feBlend mode="normal" in2="shape" result="effect1_innerShadow_702_7213"/>
</filter>
<filter id="filter1_i_702_7213" x="20" y="110" width="90.9419" height="24.3594" filterUnits="userSpaceOnUse" color-interpolation-filters="sRGB">
<feFlood flood-opacity="0" result="BackgroundImageFix"/>
<feBlend mode="normal" in="SourceGraphic" in2="BackgroundImageFix" result="shape"/>
<feColorMatrix in="SourceAlpha" type="matrix" values="0 0 0 0 0 0 0 0 0 0 0 0 0 0 0 0 0 0 127 0" result="hardAlpha"/>
<feOffset dy="0.974376"/>
<feGaussianBlur stdDeviation="0.649584"/>
<feComposite in2="hardAlpha" operator="arithmetic" k2="-1" k3="1"/>
<feColorMatrix type="matrix" values="0 0 0 0 0 0 0 0 0 0 0 0 0 0 0 0 0 0 0.1 0"/>
<feBlend mode="normal" in2="shape" result="effect1_innerShadow_702_7213"/>
</filter>
<filter id="filter2_i_702_7213" x="116.84" y="62" width="90.9419" height="24.3594" filterUnits="userSpaceOnUse" color-interpolation-filters="sRGB">
<feFlood flood-opacity="0" result="BackgroundImageFix"/>
<feBlend mode="normal" in="SourceGraphic" in2="BackgroundImageFix" result="shape"/>
<feColorMatrix in="SourceAlpha" type="matrix" values="0 0 0 0 0 0 0 0 0 0 0 0 0 0 0 0 0 0 127 0" result="hardAlpha"/>
<feOffset dy="0.974376"/>
<feGaussianBlur stdDeviation="0.649584"/>
<feComposite in2="hardAlpha" operator="arithmetic" k2="-1" k3="1"/>
<feColorMatrix type="matrix" values="0 0 0 0 0 0 0 0 0 0 0 0 0 0 0 0 0 0 0.1 0"/>
<feBlend mode="normal" in2="shape" result="effect1_innerShadow_702_7213"/>
</filter>
<clipPath id="clip0_702_7213">
<rect width="320" height="120" fill="white"/>
</clipPath>
</defs>
</svg>
