<svg width="320" height="120" viewBox="0 0 320 120" fill="none" xmlns="http://www.w3.org/2000/svg">
<rect width="320" height="120" fill="#C0CEDB"/>
<g filter="url(#filter0_d_787_7218)">
<path d="M60 20C60 17.7909 61.7909 16 64 16H256C258.209 16 260 17.7909 260 20V104C260 106.209 258.209 108 256 108H64C61.7909 108 60 106.209 60 104V20Z" fill="white"/>
<path d="M77.408 35.432L77.4 47H84.6V45.32H79.376V35.432H77.408ZM88.5429 47.16C89.7109 47.16 90.6309 46.752 91.2309 45.512L91.3909 47H93.0309V41.2C93.0309 39.536 92.0149 38.568 89.6549 38.568C87.6149 38.568 86.2389 39.424 86.1509 41.128H87.8069C88.0229 40.272 88.7589 39.936 89.5669 39.92C90.6469 39.912 91.1589 40.44 91.1589 41.312V41.872L89.9189 41.904C87.0389 41.952 85.7829 42.872 85.7829 44.696C85.7829 46.264 86.9509 47.16 88.5429 47.16ZM89.1749 45.84C88.2949 45.84 87.6389 45.344 87.6389 44.496C87.6389 43.392 88.6389 42.984 90.1429 42.968L91.1589 42.952V44.256C91.1509 45.064 90.1349 45.84 89.1749 45.84ZM99.472 47.16C101.792 47.16 102.984 45.44 102.984 42.824C102.984 40.08 101.704 38.568 99.648 38.568C98.288 38.568 97.4 39.304 97.056 39.936V35.112H95.104V47H96.536L96.76 45.304C97.016 46.096 97.704 47.16 99.472 47.16ZM99.072 45.728C97.672 45.728 97.056 44.888 97.056 42.776C97.072 40.976 97.672 40.016 99.048 40.016C100.328 40.016 101.064 40.96 101.064 42.776C101.064 44.864 100.232 45.728 99.072 45.728ZM106.321 43.312H112.041V42.72C112.041 40.224 110.729 38.568 108.289 38.568C105.809 38.568 104.377 40.416 104.377 42.952C104.377 45.552 106.009 47.16 108.401 47.16C110.073 47.16 111.721 46.2 112.009 44.472H110.233C110.009 45.32 109.281 45.72 108.361 45.72C107.025 45.72 106.313 44.72 106.321 43.312ZM106.313 42.104C106.313 41.04 106.993 39.968 108.281 39.968C109.577 39.968 110.201 40.904 110.201 42.104H106.313ZM116.285 47.12C116.549 47.12 116.869 47.056 117.157 46.96V45.736L116.741 45.72C116.085 45.664 115.805 45.264 115.805 44.544V35.112H113.901V44.768C113.901 45.944 114.141 47.12 116.285 47.12Z" fill="black"/>
<rect x="76" y="59" width="168" height="1" fill="#C0CEDB"/>
<path d="M86.384 74.432H84.92L81.376 84.32L77.832 74.432H76.368L80.488 86H82.272L86.384 74.432ZM89.6065 86.16C90.7905 86.16 91.8065 85.736 92.4465 84.448L92.5585 86H93.8225V80.224C93.8225 78.496 92.7505 77.568 90.5985 77.568C88.5905 77.568 87.3585 78.456 87.2705 80.064H88.5745C88.7745 79.08 89.5745 78.664 90.5265 78.656C91.7985 78.656 92.3905 79.296 92.3905 80.304V80.952L90.9185 80.992C88.0865 81.056 86.8785 81.928 86.8785 83.76C86.8785 85.272 87.9985 86.16 89.6065 86.16ZM90.0465 85.096C89.0305 85.096 88.3105 84.552 88.3105 83.616C88.3105 82.392 89.2625 81.92 91.1665 81.888L92.3905 81.864V83.28C92.3905 84.2 91.1585 85.096 90.0465 85.096ZM98.2183 86.104C98.4263 86.104 98.7143 86.056 98.9623 85.976V85.016L98.5143 85.008C97.9303 84.968 97.5863 84.568 97.5863 83.728V74.112H96.1303V83.872C96.1303 85.032 96.4343 86.104 98.2183 86.104ZM103.748 86.16C104.916 86.168 105.924 85.656 106.228 84.416L106.38 86H107.556V77.728H106.084V83.112C106.084 84.368 105.276 85.008 104.06 85.008C102.708 85.008 102.052 84.272 102.052 83.192V77.728H100.572V83.344C100.572 85.208 102.028 86.144 103.748 86.16ZM111.078 82.208H117.006V81.664C117.006 79.152 115.71 77.568 113.382 77.568C110.974 77.568 109.582 79.336 109.582 81.944C109.582 84.584 111.174 86.16 113.486 86.16C115.094 86.16 116.646 85.272 116.95 83.584H115.558C115.35 84.52 114.518 85.016 113.462 85.016C111.854 85.016 111.078 83.776 111.078 82.208ZM111.086 81.208C111.078 79.976 111.814 78.688 113.374 78.688C114.87 78.688 115.582 79.784 115.582 81.208H111.086Z" fill="#495057"/>
<path d="M64 17H256V15H64V17ZM259 20V104H261V20H259ZM256 107H64V109H256V107ZM61 104V20H59V104H61ZM64 107C62.3431 107 61 105.657 61 104H59C59 106.761 61.2386 109 64 109V107ZM259 104C259 105.657 257.657 107 256 107V109C258.761 109 261 106.761 261 104H259ZM256 17C257.657 17 259 18.3431 259 20H261C261 17.2386 258.761 15 256 15V17ZM64 15C61.2386 15 59 17.2386 59 20H61C61 18.3431 62.3431 17 64 17V15Z" fill="#DEE2E6"/>
</g>
<g style="mix-blend-mode:color">
<rect width="320" height="120" fill="#808080"/>
</g>
<g style="mix-blend-mode:color">
<rect width="320" height="120" fill="#00284D"/>
</g>
<defs>
<filter id="filter0_d_787_7218" x="58" y="16" width="204" height="96" filterUnits="userSpaceOnUse" color-interpolation-filters="sRGB">
<feFlood flood-opacity="0" result="BackgroundImageFix"/>
<feColorMatrix in="SourceAlpha" type="matrix" values="0 0 0 0 0 0 0 0 0 0 0 0 0 0 0 0 0 0 127 0" result="hardAlpha"/>
<feOffset dy="2"/>
<feGaussianBlur stdDeviation="1"/>
<feColorMatrix type="matrix" values="0 0 0 0 0 0 0 0 0 0 0 0 0 0 0 0 0 0 0.15 0"/>
<feBlend mode="normal" in2="BackgroundImageFix" result="effect1_dropShadow_787_7218"/>
<feBlend mode="normal" in="SourceGraphic" in2="effect1_dropShadow_787_7218" result="shape"/>
</filter>
</defs>
</svg>
