<svg width="320" height="120" viewBox="0 0 320 120" fill="none" xmlns="http://www.w3.org/2000/svg">
<rect width="320" height="120" fill="#C0CEDB"/>
<g filter="url(#filter0_ii)">
<rect x="90" y="40" width="140" height="40" rx="4" fill="white"/>
<path d="M127.752 66H130.12V54.432H128.568C128.464 55.424 127.672 56.016 125.688 56.016V57.336H127.752V66ZM132.748 66H141.244V64.032H135.348V63.928C135.348 61.472 141.26 61.864 141.26 57.768C141.26 55.68 139.652 54.272 137.06 54.272C134.044 54.272 132.548 56.024 132.532 58.232H134.764C134.948 56.88 135.828 56.208 136.996 56.208C138.108 56.208 138.804 56.864 138.804 57.784C138.804 60.304 132.748 60.152 132.748 64.256V66ZM142.776 57.992H145.008C145.096 56.584 146.024 56.08 147.128 56.08C148.328 56.08 149.184 56.64 149.184 57.48C149.184 58.368 148.36 59 147.112 59.056L146.12 59.112V60.968L147.224 61.008C148.52 61.04 149.448 61.656 149.448 62.648C149.448 63.608 148.576 64.288 147.144 64.288C146.04 64.288 145.176 63.744 144.952 62.424H142.704C142.736 64.752 144.336 66.168 147.12 66.176C149.768 66.184 151.936 64.992 151.936 62.72C151.936 61.16 150.84 60.272 149.552 59.92C151.04 59.416 151.664 58.52 151.664 57.376C151.664 55.256 149.76 54.272 147.176 54.272C144.712 54.272 142.776 55.504 142.776 57.992ZM158.538 54.432L153.266 61.52V63.44H158.594L158.586 66H160.834V63.44H162.618V61.48H160.834V54.432H158.538ZM155.426 61.48L158.594 57.24V61.48H155.426Z" fill="#343A40"/>
<path d="M115.906 57.7539L116.098 56.6602C116.152 56.4414 115.988 56.25 115.77 56.25H113.746L114.129 54.0352C114.184 53.8164 114.02 53.625 113.801 53.625H112.707C112.543 53.625 112.406 53.7617 112.379 53.8984L111.969 56.25H109.262L109.672 54.0352C109.699 53.8164 109.535 53.625 109.344 53.625H108.223C108.059 53.625 107.922 53.7617 107.895 53.8984L107.484 56.25H105.324C105.16 56.25 105.023 56.3867 104.996 56.5234L104.805 57.6172C104.777 57.8359 104.914 58 105.133 58H107.184L106.555 61.5H104.395C104.23 61.5 104.094 61.6367 104.066 61.7734L103.875 62.8672C103.82 63.0859 103.984 63.25 104.203 63.25H106.227L105.844 65.4922C105.789 65.7109 105.953 65.875 106.172 65.875H107.266C107.43 65.875 107.566 65.7656 107.594 65.6289L108.004 63.25H110.711L110.301 65.4922C110.273 65.7109 110.438 65.875 110.629 65.875H111.75C111.914 65.875 112.051 65.7656 112.078 65.6289L112.488 63.25H114.648C114.812 63.25 114.949 63.1406 114.977 63.0039L115.168 61.9102C115.195 61.6914 115.059 61.5 114.84 61.5H112.789L113.418 58H115.578C115.742 58 115.879 57.8906 115.906 57.7539ZM111.012 61.5H108.332L108.961 58H111.641L111.012 61.5Z" fill="black"/>
</g>
<g style="mix-blend-mode:color">
<rect width="320" height="120" fill="#808080"/>
</g>
<g style="mix-blend-mode:color">
<rect width="320" height="120" fill="#00284D"/>
</g>
<defs>
<filter id="filter0_ii" x="90" y="40" width="140" height="41" filterUnits="userSpaceOnUse" color-interpolation-filters="sRGB">
<feFlood flood-opacity="0" result="BackgroundImageFix"/>
<feBlend mode="normal" in="SourceGraphic" in2="BackgroundImageFix" result="shape"/>
<feColorMatrix in="SourceAlpha" type="matrix" values="0 0 0 0 0 0 0 0 0 0 0 0 0 0 0 0 0 0 127 0" result="hardAlpha"/>
<feOffset dy="-2"/>
<feComposite in2="hardAlpha" operator="arithmetic" k2="-1" k3="1"/>
<feColorMatrix type="matrix" values="0 0 0 0 0.423529 0 0 0 0 0.458824 0 0 0 0 0.490196 0 0 0 1 0"/>
<feBlend mode="normal" in2="shape" result="effect1_innerShadow"/>
<feColorMatrix in="SourceAlpha" type="matrix" values="0 0 0 0 0 0 0 0 0 0 0 0 0 0 0 0 0 0 127 0" result="hardAlpha"/>
<feOffset dy="1"/>
<feGaussianBlur stdDeviation="0.5"/>
<feComposite in2="hardAlpha" operator="arithmetic" k2="-1" k3="1"/>
<feColorMatrix type="matrix" values="0 0 0 0 0.741176 0 0 0 0 0.756863 0 0 0 0 0.772549 0 0 0 1 0"/>
<feBlend mode="normal" in2="effect1_innerShadow" result="effect2_innerShadow"/>
</filter>
</defs>
</svg>
