<svg width="320" height="120" viewBox="0 0 320 120" fill="none" xmlns="http://www.w3.org/2000/svg">
<g clip-path="url(#clip0_454_540)">
<rect width="320" height="120" fill="#C0CEDB"/>
<g clip-path="url(#clip1_454_540)">
<rect width="504.436" height="204" transform="translate(36 32)" fill="white"/>
<rect opacity="0.05" x="36" y="65.719" width="504.436" height="33.719" fill="#6C757D"/>
<rect opacity="0.25" x="36" y="64.876" width="504.099" height="0.842975" fill="#6C757D"/>
<rect opacity="0.25" x="36" y="33.6859" width="504.099" height="0.842975" fill="#6C757D"/>
<rect opacity="0.25" x="36" y="32.843" width="504.099" height="0.842975" fill="#6C757D"/>
<rect opacity="0.25" x="36" y="65.719" width="504.099" height="0.842975" fill="#6C757D"/>
<rect opacity="0.25" x="36" y="99.438" width="504.099" height="0.842975" fill="#6C757D"/>
</g>
<path d="M93.9023 50.3993V54.5872H95.8715V44.8356H93.9023V48.747H89.6334V44.8356H87.671V54.5872H89.6334V50.3993H93.9023ZM99.2819 51.5524H103.969V51.0197C103.969 48.9291 102.849 47.4792 100.718 47.4792C98.5806 47.4792 97.333 49.0842 97.333 51.1815C97.333 53.3463 98.7492 54.722 100.82 54.722C102.269 54.722 103.726 53.8656 103.962 52.3752H102.188C101.986 53.0293 101.447 53.2991 100.772 53.2991C99.8282 53.2991 99.2752 52.618 99.2819 51.5524ZM99.2819 50.379C99.2752 49.6102 99.8079 48.8549 100.712 48.8549C101.662 48.8549 102.128 49.5361 102.128 50.379H99.2819ZM107.418 54.722C108.396 54.722 109.104 54.3983 109.583 53.3868L109.745 54.5872H111.39V49.6844C111.39 48.3154 110.574 47.4792 108.443 47.4792C106.697 47.4792 105.436 48.1805 105.361 49.6912H107C107.196 49.0505 107.776 48.8145 108.349 48.8077C109.138 48.801 109.502 49.1584 109.502 49.7991V50.2172L108.625 50.2307C106.164 50.2576 105.065 51.0669 105.065 52.591C105.065 53.9532 106.09 54.722 107.418 54.722ZM108.086 53.4272C107.438 53.4272 106.933 53.0428 106.933 52.3954C106.933 51.5457 107.809 51.2557 108.794 51.2422L109.502 51.2287V52.2605C109.495 52.8607 108.794 53.4272 108.086 53.4272ZM115.624 54.722C117 54.722 117.607 53.9263 117.856 53.1575L118.079 54.5872H119.509V44.5659H117.533V48.5582C117.195 47.9647 116.427 47.4792 115.429 47.4792C113.635 47.4792 112.657 48.8752 112.657 51.0601C112.657 53.3665 113.749 54.722 115.624 54.722ZM116.056 53.3058C115.152 53.3058 114.579 52.5842 114.579 51.0332C114.579 49.5023 115.213 48.9089 116.069 48.9089C117.047 48.9089 117.519 49.6102 117.533 51.0332C117.533 52.6787 117.047 53.3058 116.056 53.3058ZM123.148 44.8424H121.233V46.616H123.148V44.8424ZM123.134 47.6141H121.253V54.5872H123.134V47.6141ZM124.868 54.5872H126.837V50.1228C126.837 49.4416 127.491 49.0977 128.139 49.0977C128.779 49.0977 129.299 49.4754 129.299 50.2307V54.5872H131.268V49.9879C131.268 48.2615 130.101 47.5534 128.827 47.5534C127.727 47.5534 127.12 48.0929 126.803 48.5987V47.6141H124.868V54.5872ZM136.1 56.8935C138.582 56.8935 139.816 55.9494 139.816 54.6411C139.816 53.5419 138.98 52.7596 137.274 52.6449C136.66 52.6045 136.12 52.5775 135.824 52.5573C135.001 52.5101 134.603 52.4763 134.603 52.2538C134.603 52.1122 134.772 51.9908 135.298 51.9638C135.473 51.9841 135.824 51.9908 135.985 51.9908C138.069 51.9908 139.142 50.8983 139.142 49.6844C139.142 49.5023 139.088 49.1989 138.993 48.9493L140.194 48.7538L140.207 47.2297C139.62 47.4724 138.575 47.8906 138.157 48.0524C137.638 47.7287 137.085 47.5062 136.127 47.5062C134.232 47.5062 132.823 48.3154 132.823 49.6912C132.823 50.4667 133.308 51.276 134.232 51.7008C133.268 51.8694 132.802 52.3347 132.802 52.827C132.802 53.4879 133.443 53.7374 133.659 53.8656C133.524 53.9398 132.303 54.2297 132.303 55.1806C132.303 56.2057 133.618 56.8935 136.1 56.8935ZM136.046 50.8916C135.271 50.8916 134.799 50.4465 134.799 49.7519C134.799 49.0303 135.298 48.5447 136.046 48.5447C136.788 48.5447 137.28 49.0235 137.28 49.7519C137.28 50.46 136.788 50.8916 136.046 50.8916ZM136.417 55.7943C134.92 55.7943 134.232 55.538 134.232 54.9513C134.232 54.5197 134.65 54.1218 135.284 54.1556L136.882 54.2635C137.57 54.3107 137.941 54.5939 137.941 55.012C137.941 55.5178 137.51 55.7943 136.417 55.7943Z" fill="#185AE3"/>
<path d="M75.4272 49.4135C74.8476 49.4135 74.5578 50.0985 74.9793 50.4936L78.1141 53.6284C78.3512 53.8918 78.7464 53.8918 79.0098 53.6284L82.1446 50.4936C82.5398 50.0985 82.25 49.4135 81.6968 49.4135H75.4272ZM82.1446 46.6475L79.0098 43.5127C78.7464 43.2756 78.3512 43.2756 78.1141 43.5127L74.9793 46.6475C74.5578 47.069 74.8476 47.7276 75.4272 47.7276H81.6968C82.25 47.7276 82.5398 47.069 82.1446 46.6475Z" fill="#185AE3"/>
<path d="M254.911 50.3993V54.5872H256.88V44.8356H254.911V48.747H250.642V44.8356H248.679V54.5872H250.642V50.3993H254.911ZM260.29 51.5524H264.977V51.0197C264.977 48.9291 263.858 47.4792 261.727 47.4792C259.589 47.4792 258.341 49.0842 258.341 51.1815C258.341 53.3463 259.757 54.722 261.828 54.722C263.278 54.722 264.734 53.8656 264.97 52.3752H263.197C262.994 53.0293 262.455 53.2991 261.781 53.2991C260.836 53.2991 260.283 52.618 260.29 51.5524ZM260.29 50.379C260.283 49.6102 260.816 48.8549 261.72 48.8549C262.671 48.8549 263.136 49.5361 263.136 50.379H260.29ZM268.427 54.722C269.404 54.722 270.112 54.3983 270.591 53.3868L270.753 54.5872H272.399V49.6844C272.399 48.3154 271.583 47.4792 269.452 47.4792C267.705 47.4792 266.444 48.1805 266.37 49.6912H268.008C268.204 49.0505 268.784 48.8145 269.357 48.8077C270.146 48.801 270.51 49.1584 270.51 49.7991V50.2172L269.634 50.2307C267.172 50.2576 266.073 51.0669 266.073 52.591C266.073 53.9532 267.098 54.722 268.427 54.722ZM269.094 53.4272C268.447 53.4272 267.941 53.0428 267.941 52.3954C267.941 51.5457 268.818 51.2557 269.802 51.2422L270.51 51.2287V52.2605C270.504 52.8607 269.802 53.4272 269.094 53.4272ZM276.632 54.722C278.008 54.722 278.615 53.9263 278.865 53.1575L279.087 54.5872H280.517V44.5659H278.541V48.5582C278.204 47.9647 277.435 47.4792 276.437 47.4792C274.643 47.4792 273.665 48.8752 273.665 51.0601C273.665 53.3665 274.758 54.722 276.632 54.722ZM277.064 53.3058C276.16 53.3058 275.587 52.5842 275.587 51.0332C275.587 49.5023 276.221 48.9089 277.078 48.9089C278.055 48.9089 278.527 49.6102 278.541 51.0332C278.541 52.6787 278.055 53.3058 277.064 53.3058ZM284.156 44.8424H282.241V46.616H284.156V44.8424ZM284.143 47.6141H282.261V54.5872H284.143V47.6141ZM285.876 54.5872H287.845V50.1228C287.845 49.4416 288.5 49.0977 289.147 49.0977C289.788 49.0977 290.307 49.4754 290.307 50.2307V54.5872H292.276V49.9879C292.276 48.2615 291.109 47.5534 289.835 47.5534C288.736 47.5534 288.129 48.0929 287.812 48.5987V47.6141H285.876V54.5872ZM297.108 56.8935C299.59 56.8935 300.824 55.9494 300.824 54.6411C300.824 53.5419 299.988 52.7596 298.282 52.6449C297.668 52.6045 297.129 52.5775 296.832 52.5573C296.009 52.5101 295.611 52.4763 295.611 52.2538C295.611 52.1122 295.78 51.9908 296.306 51.9638C296.481 51.9841 296.832 51.9908 296.994 51.9908C299.078 51.9908 300.15 50.8983 300.15 49.6844C300.15 49.5023 300.096 49.1989 300.002 48.9493L301.202 48.7538L301.215 47.2297C300.629 47.4724 299.583 47.8906 299.165 48.0524C298.646 47.7287 298.093 47.5062 297.135 47.5062C295.24 47.5062 293.831 48.3154 293.831 49.6912C293.831 50.4667 294.316 51.276 295.24 51.7008C294.276 51.8694 293.811 52.3347 293.811 52.827C293.811 53.4879 294.451 53.7374 294.667 53.8656C294.532 53.9398 293.312 54.2297 293.312 55.1806C293.312 56.2057 294.627 56.8935 297.108 56.8935ZM297.054 50.8916C296.279 50.8916 295.807 50.4465 295.807 49.7519C295.807 49.0303 296.306 48.5447 297.054 48.5447C297.796 48.5447 298.289 49.0235 298.289 49.7519C298.289 50.46 297.796 50.8916 297.054 50.8916ZM297.425 55.7943C295.928 55.7943 295.24 55.538 295.24 54.9513C295.24 54.5197 295.659 54.1218 296.292 54.1556L297.891 54.2635C298.579 54.3107 298.949 54.5939 298.949 55.012C298.949 55.5178 298.518 55.7943 297.425 55.7943Z" fill="#185AE3"/>
<path d="M236.435 49.4135C235.856 49.4135 235.566 50.0985 235.988 50.4936L239.122 53.6284C239.36 53.8918 239.755 53.8918 240.018 53.6284L243.153 50.4936C243.548 50.0985 243.258 49.4135 242.705 49.4135H236.435ZM243.153 46.6475L240.018 43.5127C239.755 43.2756 239.36 43.2756 239.122 43.5127L235.988 46.6475C235.566 47.069 235.856 47.7276 236.435 47.7276H242.705C243.258 47.7276 243.548 47.069 243.153 46.6475Z" fill="#185AE3"/>
<rect x="43.5871" y="43.8018" width="11.8017" height="11.8017" rx="2.52893" fill="white" stroke="#6C757D" stroke-width="1.68595"/>
<rect x="43.5871" y="77.5208" width="11.8017" height="11.8017" rx="2.52893" fill="white" stroke="#6C757D" stroke-width="1.68595"/>
<rect x="43.5871" y="111.24" width="11.8017" height="11.8017" rx="2.52893" fill="white" stroke="#6C757D" stroke-width="1.68595"/>
<path d="M77.5551 79.926V89.6775H80.401C83.8943 89.6775 85.5263 87.7892 85.5263 84.7545C85.5263 81.8412 84.0157 80.0271 80.4685 79.9394C79.6322 79.9192 77.7575 79.926 77.5551 79.926ZM79.5378 81.5175H80.4685C82.3163 81.5175 83.4695 82.4616 83.4695 84.741C83.4695 87.1958 82.114 88.086 80.4415 88.086H79.5378V81.5175ZM89.0834 89.8124C90.0612 89.8124 90.7693 89.4887 91.2481 88.4771L91.41 89.6775H93.0555V84.7747C93.0555 83.4058 92.2395 82.5695 90.1084 82.5695C88.3618 82.5695 87.1007 83.2709 87.0265 84.7815H88.6652C88.8608 84.1408 89.4408 83.9048 90.014 83.8981C90.803 83.8913 91.1672 84.2487 91.1672 84.8894V85.3075L90.2905 85.321C87.829 85.348 86.7298 86.1572 86.7298 87.6813C86.7298 89.0436 87.7548 89.8124 89.0834 89.8124ZM89.751 88.5176C89.1036 88.5176 88.5978 88.1332 88.5978 87.4858C88.5978 86.636 89.4745 86.3461 90.4591 86.3326L91.1672 86.3191V87.3509C91.1604 87.9511 90.4591 88.5176 89.751 88.5176ZM98.6235 84.0734V82.6977H97.0724V80.6003H95.6697L95.1707 82.7044H93.977V84.0734H95.11V87.8702C95.11 88.9896 95.5821 89.7517 97.4231 89.7517C98.1042 89.7517 98.4549 89.664 98.6437 89.5831V88.3692H97.7064C97.2748 88.3692 97.0859 88.3018 97.0859 87.7892L97.0724 84.0734H98.6235ZM102.07 89.8124C103.048 89.8124 103.756 89.4887 104.235 88.4771L104.397 89.6775H106.043V84.7747C106.043 83.4058 105.227 82.5695 103.096 82.5695C101.349 82.5695 100.088 83.2709 100.014 84.7815H101.652C101.848 84.1408 102.428 83.9048 103.001 83.8981C103.79 83.8913 104.154 84.2487 104.154 84.8894V85.3075L103.278 85.321C100.816 85.348 99.7169 86.1572 99.7169 87.6813C99.7169 89.0436 100.742 89.8124 102.07 89.8124ZM102.738 88.5176C102.091 88.5176 101.585 88.1332 101.585 87.4858C101.585 86.636 102.462 86.3461 103.446 86.3326L104.154 86.3191V87.3509C104.148 87.9511 103.446 88.5176 102.738 88.5176ZM117.163 85.4896V89.6775H119.132V79.926H117.163V83.8374H112.894V79.926H110.932V89.6775H112.894V85.4896H117.163ZM122.543 86.6428H127.23V86.11C127.23 84.0194 126.11 82.5695 123.979 82.5695C121.841 82.5695 120.594 84.1745 120.594 86.2719C120.594 88.4366 122.01 89.8124 124.08 89.8124C125.53 89.8124 126.987 88.9559 127.223 87.4655H125.449C125.247 88.1197 124.707 88.3894 124.033 88.3894C123.089 88.3894 122.536 87.7083 122.543 86.6428ZM122.543 85.4694C122.536 84.7006 123.069 83.9453 123.972 83.9453C124.923 83.9453 125.389 84.6264 125.389 85.4694H122.543ZM130.679 89.8124C131.657 89.8124 132.365 89.4887 132.844 88.4771L133.006 89.6775H134.651V84.7747C134.651 83.4058 133.835 82.5695 131.704 82.5695C129.957 82.5695 128.696 83.2709 128.622 84.7815H130.261C130.456 84.1408 131.036 83.9048 131.61 83.8981C132.399 83.8913 132.763 84.2487 132.763 84.8894V85.3075L131.886 85.321C129.425 85.348 128.325 86.1572 128.325 87.6813C128.325 89.0436 129.35 89.8124 130.679 89.8124ZM131.347 88.5176C130.699 88.5176 130.193 88.1332 130.193 87.4858C130.193 86.636 131.07 86.3461 132.055 86.3326L132.763 86.3191V87.3509C132.756 87.9511 132.055 88.5176 131.347 88.5176ZM138.885 89.8124C140.261 89.8124 140.868 89.0166 141.117 88.2478L141.34 89.6775H142.769V79.6562H140.793V83.6485C140.456 83.0551 139.687 82.5695 138.689 82.5695C136.895 82.5695 135.918 83.9655 135.918 86.1505C135.918 88.4569 137.01 89.8124 138.885 89.8124ZM139.316 88.3962C138.413 88.3962 137.84 87.6746 137.84 86.1235C137.84 84.5927 138.473 83.9992 139.33 83.9992C140.308 83.9992 140.78 84.7006 140.793 86.1235C140.793 87.769 140.308 88.3962 139.316 88.3962ZM146.12 86.6428H150.807V86.11C150.807 84.0194 149.687 82.5695 147.556 82.5695C145.418 82.5695 144.171 84.1745 144.171 86.2719C144.171 88.4366 145.587 89.8124 147.657 89.8124C149.107 89.8124 150.564 88.9559 150.8 87.4655H149.026C148.824 88.1197 148.284 88.3894 147.61 88.3894C146.666 88.3894 146.113 87.7083 146.12 86.6428ZM146.12 85.4694C146.113 84.7006 146.646 83.9453 147.549 83.9453C148.5 83.9453 148.965 84.6264 148.965 85.4694H146.12ZM152.225 89.6775H154.194V85.8605C154.194 84.9231 154.788 84.3027 156.339 84.4376C156.433 84.4443 156.555 84.451 156.635 84.4848V82.61C156.582 82.583 156.46 82.5695 156.332 82.5695C155.233 82.5695 154.451 83.2911 154.12 84.3566V82.7044H152.225V89.6775ZM77.5551 113.926V123.677H80.401C83.8943 123.677 85.5263 121.789 85.5263 118.755C85.5263 115.841 84.0157 114.027 80.4685 113.939C79.6322 113.919 77.7575 113.926 77.5551 113.926ZM79.5378 115.517H80.4685C82.3163 115.517 83.4695 116.462 83.4695 118.741C83.4695 121.196 82.114 122.086 80.4415 122.086H79.5378V115.517ZM89.0834 123.812C90.0612 123.812 90.7693 123.489 91.2481 122.477L91.41 123.677H93.0555V118.775C93.0555 117.406 92.2395 116.57 90.1084 116.57C88.3618 116.57 87.1007 117.271 87.0265 118.781H88.6652C88.8608 118.141 89.4408 117.905 90.014 117.898C90.803 117.891 91.1672 118.249 91.1672 118.889V119.308L90.2905 119.321C87.829 119.348 86.7298 120.157 86.7298 121.681C86.7298 123.044 87.7548 123.812 89.0834 123.812ZM89.751 122.518C89.1036 122.518 88.5978 122.133 88.5978 121.486C88.5978 120.636 89.4745 120.346 90.4591 120.333L91.1672 120.319V121.351C91.1604 121.951 90.4591 122.518 89.751 122.518ZM98.6235 118.073V116.698H97.0724V114.6H95.6697L95.1707 116.704H93.977V118.073H95.11V121.87C95.11 122.99 95.5821 123.752 97.4231 123.752C98.1042 123.752 98.4549 123.664 98.6437 123.583V122.369H97.7064C97.2748 122.369 97.0859 122.302 97.0859 121.789L97.0724 118.073H98.6235ZM102.07 123.812C103.048 123.812 103.756 123.489 104.235 122.477L104.397 123.677H106.043V118.775C106.043 117.406 105.227 116.57 103.096 116.57C101.349 116.57 100.088 117.271 100.014 118.781H101.652C101.848 118.141 102.428 117.905 103.001 117.898C103.79 117.891 104.154 118.249 104.154 118.889V119.308L103.278 119.321C100.816 119.348 99.7169 120.157 99.7169 121.681C99.7169 123.044 100.742 123.812 102.07 123.812ZM102.738 122.518C102.091 122.518 101.585 122.133 101.585 121.486C101.585 120.636 102.462 120.346 103.446 120.333L104.154 120.319V121.351C104.148 121.951 103.446 122.518 102.738 122.518ZM117.163 119.49V123.677H119.132V113.926H117.163V117.837H112.894V113.926H110.932V123.677H112.894V119.49H117.163ZM122.543 120.643H127.23V120.11C127.23 118.019 126.11 116.57 123.979 116.57C121.841 116.57 120.594 118.175 120.594 120.272C120.594 122.437 122.01 123.812 124.08 123.812C125.53 123.812 126.987 122.956 127.223 121.466H125.449C125.247 122.12 124.707 122.389 124.033 122.389C123.089 122.389 122.536 121.708 122.543 120.643ZM122.543 119.469C122.536 118.701 123.069 117.945 123.972 117.945C124.923 117.945 125.389 118.626 125.389 119.469H122.543ZM130.679 123.812C131.657 123.812 132.365 123.489 132.844 122.477L133.006 123.677H134.651V118.775C134.651 117.406 133.835 116.57 131.704 116.57C129.957 116.57 128.696 117.271 128.622 118.781H130.261C130.456 118.141 131.036 117.905 131.61 117.898C132.399 117.891 132.763 118.249 132.763 118.889V119.308L131.886 119.321C129.425 119.348 128.325 120.157 128.325 121.681C128.325 123.044 129.35 123.812 130.679 123.812ZM131.347 122.518C130.699 122.518 130.193 122.133 130.193 121.486C130.193 120.636 131.07 120.346 132.055 120.333L132.763 120.319V121.351C132.756 121.951 132.055 122.518 131.347 122.518ZM138.885 123.812C140.261 123.812 140.868 123.017 141.117 122.248L141.34 123.677H142.769V113.656H140.793V117.649C140.456 117.055 139.687 116.57 138.689 116.57C136.895 116.57 135.918 117.965 135.918 120.15C135.918 122.457 137.01 123.812 138.885 123.812ZM139.316 122.396C138.413 122.396 137.84 121.675 137.84 120.124C137.84 118.593 138.473 117.999 139.33 117.999C140.308 117.999 140.78 118.701 140.793 120.124C140.793 121.769 140.308 122.396 139.316 122.396ZM146.12 120.643H150.807V120.11C150.807 118.019 149.687 116.57 147.556 116.57C145.418 116.57 144.171 118.175 144.171 120.272C144.171 122.437 145.587 123.812 147.657 123.812C149.107 123.812 150.564 122.956 150.8 121.466H149.026C148.824 122.12 148.284 122.389 147.61 122.389C146.666 122.389 146.113 121.708 146.12 120.643ZM146.12 119.469C146.113 118.701 146.646 117.945 147.549 117.945C148.5 117.945 148.965 118.626 148.965 119.469H146.12ZM152.225 123.677H154.194V119.86C154.194 118.923 154.788 118.303 156.339 118.438C156.433 118.444 156.555 118.451 156.635 118.485V116.61C156.582 116.583 156.46 116.57 156.332 116.57C155.233 116.57 154.451 117.291 154.12 118.357V116.704H152.225V123.677ZM77.5551 146.926V156.677H80.401C83.8943 156.677 85.5263 154.789 85.5263 151.755C85.5263 148.841 84.0157 147.027 80.4685 146.939C79.6322 146.919 77.7575 146.926 77.5551 146.926ZM79.5378 148.517H80.4685C82.3163 148.517 83.4695 149.462 83.4695 151.741C83.4695 154.196 82.114 155.086 80.4415 155.086H79.5378V148.517ZM89.0834 156.812C90.0612 156.812 90.7693 156.489 91.2481 155.477L91.41 156.677H93.0555V151.775C93.0555 150.406 92.2395 149.57 90.1084 149.57C88.3618 149.57 87.1007 150.271 87.0265 151.781H88.6652C88.8608 151.141 89.4408 150.905 90.014 150.898C90.803 150.891 91.1672 151.249 91.1672 151.889V152.308L90.2905 152.321C87.829 152.348 86.7298 153.157 86.7298 154.681C86.7298 156.044 87.7548 156.812 89.0834 156.812ZM89.751 155.518C89.1036 155.518 88.5978 155.133 88.5978 154.486C88.5978 153.636 89.4745 153.346 90.4591 153.333L91.1672 153.319V154.351C91.1604 154.951 90.4591 155.518 89.751 155.518ZM98.6235 151.073V149.698H97.0724V147.6H95.6697L95.1707 149.704H93.977V151.073H95.11V154.87C95.11 155.99 95.5821 156.752 97.4231 156.752C98.1042 156.752 98.4549 156.664 98.6437 156.583V155.369H97.7064C97.2748 155.369 97.0859 155.302 97.0859 154.789L97.0724 151.073H98.6235ZM102.07 156.812C103.048 156.812 103.756 156.489 104.235 155.477L104.397 156.677H106.043V151.775C106.043 150.406 105.227 149.57 103.096 149.57C101.349 149.57 100.088 150.271 100.014 151.781H101.652C101.848 151.141 102.428 150.905 103.001 150.898C103.79 150.891 104.154 151.249 104.154 151.889V152.308L103.278 152.321C100.816 152.348 99.7169 153.157 99.7169 154.681C99.7169 156.044 100.742 156.812 102.07 156.812ZM102.738 155.518C102.091 155.518 101.585 155.133 101.585 154.486C101.585 153.636 102.462 153.346 103.446 153.333L104.154 153.319V154.351C104.148 154.951 103.446 155.518 102.738 155.518ZM117.163 152.49V156.677H119.132V146.926H117.163V150.837H112.894V146.926H110.932V156.677H112.894V152.49H117.163ZM122.543 153.643H127.23V153.11C127.23 151.019 126.11 149.57 123.979 149.57C121.841 149.57 120.594 151.175 120.594 153.272C120.594 155.437 122.01 156.812 124.08 156.812C125.53 156.812 126.987 155.956 127.223 154.466H125.449C125.247 155.12 124.707 155.389 124.033 155.389C123.089 155.389 122.536 154.708 122.543 153.643ZM122.543 152.469C122.536 151.701 123.069 150.945 123.972 150.945C124.923 150.945 125.389 151.626 125.389 152.469H122.543ZM130.679 156.812C131.657 156.812 132.365 156.489 132.844 155.477L133.006 156.677H134.651V151.775C134.651 150.406 133.835 149.57 131.704 149.57C129.957 149.57 128.696 150.271 128.622 151.781H130.261C130.456 151.141 131.036 150.905 131.61 150.898C132.399 150.891 132.763 151.249 132.763 151.889V152.308L131.886 152.321C129.425 152.348 128.325 153.157 128.325 154.681C128.325 156.044 129.35 156.812 130.679 156.812ZM131.347 155.518C130.699 155.518 130.193 155.133 130.193 154.486C130.193 153.636 131.07 153.346 132.055 153.333L132.763 153.319V154.351C132.756 154.951 132.055 155.518 131.347 155.518ZM138.885 156.812C140.261 156.812 140.868 156.017 141.117 155.248L141.34 156.677H142.769V146.656H140.793V150.649C140.456 150.055 139.687 149.57 138.689 149.57C136.895 149.57 135.918 150.965 135.918 153.15C135.918 155.457 137.01 156.812 138.885 156.812ZM139.316 155.396C138.413 155.396 137.84 154.675 137.84 153.124C137.84 151.593 138.473 150.999 139.33 150.999C140.308 150.999 140.78 151.701 140.793 153.124C140.793 154.769 140.308 155.396 139.316 155.396ZM146.12 153.643H150.807V153.11C150.807 151.019 149.687 149.57 147.556 149.57C145.418 149.57 144.171 151.175 144.171 153.272C144.171 155.437 145.587 156.812 147.657 156.812C149.107 156.812 150.564 155.956 150.8 154.466H149.026C148.824 155.12 148.284 155.389 147.61 155.389C146.666 155.389 146.113 154.708 146.12 153.643ZM146.12 152.469C146.113 151.701 146.646 150.945 147.549 150.945C148.5 150.945 148.965 151.626 148.965 152.469H146.12ZM152.225 156.677H154.194V152.86C154.194 151.923 154.788 151.303 156.339 151.438C156.433 151.444 156.555 151.451 156.635 151.485V149.61C156.582 149.583 156.46 149.57 156.332 149.57C155.233 149.57 154.451 150.291 154.12 151.357V149.704H152.225V156.677ZM77.5551 180.926V190.677H80.401C83.8943 190.677 85.5263 188.789 85.5263 185.755C85.5263 182.841 84.0157 181.027 80.4685 180.939C79.6322 180.919 77.7575 180.926 77.5551 180.926ZM79.5378 182.517H80.4685C82.3163 182.517 83.4695 183.462 83.4695 185.741C83.4695 188.196 82.114 189.086 80.4415 189.086H79.5378V182.517ZM89.0834 190.812C90.0612 190.812 90.7693 190.489 91.2481 189.477L91.41 190.677H93.0555V185.775C93.0555 184.406 92.2395 183.57 90.1084 183.57C88.3618 183.57 87.1007 184.271 87.0265 185.781H88.6652C88.8608 185.141 89.4408 184.905 90.014 184.898C90.803 184.891 91.1672 185.249 91.1672 185.889V186.308L90.2905 186.321C87.829 186.348 86.7298 187.157 86.7298 188.681C86.7298 190.044 87.7548 190.812 89.0834 190.812ZM89.751 189.518C89.1036 189.518 88.5978 189.133 88.5978 188.486C88.5978 187.636 89.4745 187.346 90.4591 187.333L91.1672 187.319V188.351C91.1604 188.951 90.4591 189.518 89.751 189.518ZM98.6235 185.073V183.698H97.0724V181.6H95.6697L95.1707 183.704H93.977V185.073H95.11V188.87C95.11 189.99 95.5821 190.752 97.4231 190.752C98.1042 190.752 98.4549 190.664 98.6437 190.583V189.369H97.7064C97.2748 189.369 97.0859 189.302 97.0859 188.789L97.0724 185.073H98.6235ZM102.07 190.812C103.048 190.812 103.756 190.489 104.235 189.477L104.397 190.677H106.043V185.775C106.043 184.406 105.227 183.57 103.096 183.57C101.349 183.57 100.088 184.271 100.014 185.781H101.652C101.848 185.141 102.428 184.905 103.001 184.898C103.79 184.891 104.154 185.249 104.154 185.889V186.308L103.278 186.321C100.816 186.348 99.7169 187.157 99.7169 188.681C99.7169 190.044 100.742 190.812 102.07 190.812ZM102.738 189.518C102.091 189.518 101.585 189.133 101.585 188.486C101.585 187.636 102.462 187.346 103.446 187.333L104.154 187.319V188.351C104.148 188.951 103.446 189.518 102.738 189.518ZM117.163 186.49V190.677H119.132V180.926H117.163V184.837H112.894V180.926H110.932V190.677H112.894V186.49H117.163ZM122.543 187.643H127.23V187.11C127.23 185.019 126.11 183.57 123.979 183.57C121.841 183.57 120.594 185.175 120.594 187.272C120.594 189.437 122.01 190.812 124.08 190.812C125.53 190.812 126.987 189.956 127.223 188.466H125.449C125.247 189.12 124.707 189.389 124.033 189.389C123.089 189.389 122.536 188.708 122.543 187.643ZM122.543 186.469C122.536 185.701 123.069 184.945 123.972 184.945C124.923 184.945 125.389 185.626 125.389 186.469H122.543ZM130.679 190.812C131.657 190.812 132.365 190.489 132.844 189.477L133.006 190.677H134.651V185.775C134.651 184.406 133.835 183.57 131.704 183.57C129.957 183.57 128.696 184.271 128.622 185.781H130.261C130.456 185.141 131.036 184.905 131.61 184.898C132.399 184.891 132.763 185.249 132.763 185.889V186.308L131.886 186.321C129.425 186.348 128.325 187.157 128.325 188.681C128.325 190.044 129.35 190.812 130.679 190.812ZM131.347 189.518C130.699 189.518 130.193 189.133 130.193 188.486C130.193 187.636 131.07 187.346 132.055 187.333L132.763 187.319V188.351C132.756 188.951 132.055 189.518 131.347 189.518ZM138.885 190.812C140.261 190.812 140.868 190.017 141.117 189.248L141.34 190.677H142.769V180.656H140.793V184.649C140.456 184.055 139.687 183.57 138.689 183.57C136.895 183.57 135.918 184.965 135.918 187.15C135.918 189.457 137.01 190.812 138.885 190.812ZM139.316 189.396C138.413 189.396 137.84 188.675 137.84 187.124C137.84 185.593 138.473 184.999 139.33 184.999C140.308 184.999 140.78 185.701 140.793 187.124C140.793 188.769 140.308 189.396 139.316 189.396ZM146.12 187.643H150.807V187.11C150.807 185.019 149.687 183.57 147.556 183.57C145.418 183.57 144.171 185.175 144.171 187.272C144.171 189.437 145.587 190.812 147.657 190.812C149.107 190.812 150.564 189.956 150.8 188.466H149.026C148.824 189.12 148.284 189.389 147.61 189.389C146.666 189.389 146.113 188.708 146.12 187.643ZM146.12 186.469C146.113 185.701 146.646 184.945 147.549 184.945C148.5 184.945 148.965 185.626 148.965 186.469H146.12ZM152.225 190.677H154.194V186.86C154.194 185.923 154.788 185.303 156.339 185.438C156.433 185.444 156.555 185.451 156.635 185.485V183.61C156.582 183.583 156.46 183.57 156.332 183.57C155.233 183.57 154.451 184.291 154.12 185.357V183.704H152.225V190.677ZM77.5551 214.926V224.677H80.401C83.8943 224.677 85.5263 222.789 85.5263 219.755C85.5263 216.841 84.0157 215.027 80.4685 214.939C79.6322 214.919 77.7575 214.926 77.5551 214.926ZM79.5378 216.517H80.4685C82.3163 216.517 83.4695 217.462 83.4695 219.741C83.4695 222.196 82.114 223.086 80.4415 223.086H79.5378V216.517ZM89.0834 224.812C90.0612 224.812 90.7693 224.489 91.2481 223.477L91.41 224.677H93.0555V219.775C93.0555 218.406 92.2395 217.57 90.1084 217.57C88.3618 217.57 87.1007 218.271 87.0265 219.781H88.6652C88.8608 219.141 89.4408 218.905 90.014 218.898C90.803 218.891 91.1672 219.249 91.1672 219.889V220.308L90.2905 220.321C87.829 220.348 86.7298 221.157 86.7298 222.681C86.7298 224.044 87.7548 224.812 89.0834 224.812ZM89.751 223.518C89.1036 223.518 88.5978 223.133 88.5978 222.486C88.5978 221.636 89.4745 221.346 90.4591 221.333L91.1672 221.319V222.351C91.1604 222.951 90.4591 223.518 89.751 223.518ZM98.6235 219.073V217.698H97.0724V215.6H95.6697L95.1707 217.704H93.977V219.073H95.11V222.87C95.11 223.99 95.5821 224.752 97.4231 224.752C98.1042 224.752 98.4549 224.664 98.6437 224.583V223.369H97.7064C97.2748 223.369 97.0859 223.302 97.0859 222.789L97.0724 219.073H98.6235ZM102.07 224.812C103.048 224.812 103.756 224.489 104.235 223.477L104.397 224.677H106.043V219.775C106.043 218.406 105.227 217.57 103.096 217.57C101.349 217.57 100.088 218.271 100.014 219.781H101.652C101.848 219.141 102.428 218.905 103.001 218.898C103.79 218.891 104.154 219.249 104.154 219.889V220.308L103.278 220.321C100.816 220.348 99.7169 221.157 99.7169 222.681C99.7169 224.044 100.742 224.812 102.07 224.812ZM102.738 223.518C102.091 223.518 101.585 223.133 101.585 222.486C101.585 221.636 102.462 221.346 103.446 221.333L104.154 221.319V222.351C104.148 222.951 103.446 223.518 102.738 223.518ZM117.163 220.49V224.677H119.132V214.926H117.163V218.837H112.894V214.926H110.932V224.677H112.894V220.49H117.163ZM122.543 221.643H127.23V221.11C127.23 219.019 126.11 217.57 123.979 217.57C121.841 217.57 120.594 219.175 120.594 221.272C120.594 223.437 122.01 224.812 124.08 224.812C125.53 224.812 126.987 223.956 127.223 222.466H125.449C125.247 223.12 124.707 223.389 124.033 223.389C123.089 223.389 122.536 222.708 122.543 221.643ZM122.543 220.469C122.536 219.701 123.069 218.945 123.972 218.945C124.923 218.945 125.389 219.626 125.389 220.469H122.543ZM130.679 224.812C131.657 224.812 132.365 224.489 132.844 223.477L133.006 224.677H134.651V219.775C134.651 218.406 133.835 217.57 131.704 217.57C129.957 217.57 128.696 218.271 128.622 219.781H130.261C130.456 219.141 131.036 218.905 131.61 218.898C132.399 218.891 132.763 219.249 132.763 219.889V220.308L131.886 220.321C129.425 220.348 128.325 221.157 128.325 222.681C128.325 224.044 129.35 224.812 130.679 224.812ZM131.347 223.518C130.699 223.518 130.193 223.133 130.193 222.486C130.193 221.636 131.07 221.346 132.055 221.333L132.763 221.319V222.351C132.756 222.951 132.055 223.518 131.347 223.518ZM138.885 224.812C140.261 224.812 140.868 224.017 141.117 223.248L141.34 224.677H142.769V214.656H140.793V218.649C140.456 218.055 139.687 217.57 138.689 217.57C136.895 217.57 135.918 218.965 135.918 221.15C135.918 223.457 137.01 224.812 138.885 224.812ZM139.316 223.396C138.413 223.396 137.84 222.675 137.84 221.124C137.84 219.593 138.473 218.999 139.33 218.999C140.308 218.999 140.78 219.701 140.793 221.124C140.793 222.769 140.308 223.396 139.316 223.396ZM146.12 221.643H150.807V221.11C150.807 219.019 149.687 217.57 147.556 217.57C145.418 217.57 144.171 219.175 144.171 221.272C144.171 223.437 145.587 224.812 147.657 224.812C149.107 224.812 150.564 223.956 150.8 222.466H149.026C148.824 223.12 148.284 223.389 147.61 223.389C146.666 223.389 146.113 222.708 146.12 221.643ZM146.12 220.469C146.113 219.701 146.646 218.945 147.549 218.945C148.5 218.945 148.965 219.626 148.965 220.469H146.12ZM152.225 224.677H154.194V220.86C154.194 219.923 154.788 219.303 156.339 219.438C156.433 219.444 156.555 219.451 156.635 219.485V217.61C156.582 217.583 156.46 217.57 156.332 217.57C155.233 217.57 154.451 218.291 154.12 219.357V217.704H152.225V224.677Z" fill="#00284D"/>
<path d="M235.387 79.926V89.6775H237.525C241.065 89.6775 242.724 87.9781 242.724 84.741C242.724 81.6591 241.234 79.9866 237.653 79.9394C236.83 79.9327 235.502 79.926 235.387 79.926ZM236.669 80.9982H237.579C239.993 80.9982 241.409 81.9423 241.409 84.7613C241.409 87.5802 239.939 88.6052 237.525 88.6052H236.669V80.9982ZM246.438 89.8124C247.436 89.8124 248.293 89.4549 248.832 88.3692L248.927 89.6775H249.992V84.8085C249.992 83.3518 249.089 82.5695 247.275 82.5695C245.582 82.5695 244.543 83.3181 244.469 84.6736H245.568C245.737 83.8441 246.411 83.4934 247.214 83.4867C248.286 83.4867 248.785 84.0262 248.785 84.8759V85.4222L247.544 85.4559C245.157 85.5098 244.139 86.2449 244.139 87.7892C244.139 89.0638 245.083 89.8124 246.438 89.8124ZM246.809 88.9154C245.953 88.9154 245.346 88.4569 245.346 87.6678C245.346 86.636 246.148 86.2382 247.753 86.2112L248.785 86.1909V87.3846C248.785 88.1601 247.747 88.9154 246.809 88.9154ZM255.195 83.6148V82.6977H253.624V80.6745H252.707L252.403 82.7044H251.237V83.6148H252.37V87.9915C252.37 89.111 252.754 89.7112 254.204 89.7112C254.71 89.7112 255.06 89.664 255.236 89.5966V88.7603H254.474C253.819 88.7603 253.624 88.6929 253.624 87.9511V83.6148H255.195ZM258.793 89.8124C259.791 89.8124 260.648 89.4549 261.187 88.3692L261.282 89.6775H262.347V84.8085C262.347 83.3518 261.444 82.5695 259.629 82.5695C257.937 82.5695 256.898 83.3181 256.824 84.6736H257.923C258.092 83.8441 258.766 83.4934 259.569 83.4867C260.641 83.4867 261.14 84.0262 261.14 84.8759V85.4222L259.899 85.4559C257.512 85.5098 256.494 86.2449 256.494 87.7892C256.494 89.0638 257.438 89.8124 258.793 89.8124ZM259.164 88.9154C258.308 88.9154 257.701 88.4569 257.701 87.6678C257.701 86.636 258.503 86.2382 260.108 86.2112L261.14 86.1909V87.3846C261.14 88.1601 260.102 88.9154 259.164 88.9154ZM274.978 79.926H273.744L270.756 88.2613L267.769 79.926H266.535L270.008 89.6775H271.512L274.978 79.926ZM277.694 89.8124C278.692 89.8124 279.549 89.4549 280.088 88.3692L280.183 89.6775H281.248V84.8085C281.248 83.3518 280.345 82.5695 278.531 82.5695C276.838 82.5695 275.799 83.3181 275.725 84.6736H276.824C276.993 83.8441 277.667 83.4934 278.47 83.4867C279.542 83.4867 280.041 84.0262 280.041 84.8759V85.4222L278.8 85.4559C276.413 85.5098 275.395 86.2449 275.395 87.7892C275.395 89.0638 276.339 89.8124 277.694 89.8124ZM278.065 88.9154C277.209 88.9154 276.602 88.4569 276.602 87.6678C276.602 86.636 277.404 86.2382 279.009 86.2112L280.041 86.1909V87.3846C280.041 88.1601 279.003 88.9154 278.065 88.9154ZM284.954 89.7652C285.129 89.7652 285.372 89.7247 285.581 89.6573V88.848L285.203 88.8413C284.711 88.8075 284.421 88.4703 284.421 87.7623V79.6562H283.194V87.8836C283.194 88.8615 283.45 89.7652 284.954 89.7652ZM289.616 89.8124C290.6 89.8191 291.45 89.3875 291.706 88.3422L291.834 89.6775H292.826V82.7044H291.585V87.243C291.585 88.3018 290.904 88.8413 289.879 88.8413C288.739 88.8413 288.186 88.2208 288.186 87.3104V82.7044H286.938V87.4385C286.938 89.0099 288.166 89.7989 289.616 89.8124ZM295.794 86.4809H300.791V86.0223C300.791 83.9048 299.699 82.5695 297.736 82.5695C295.706 82.5695 294.533 84.0599 294.533 86.2584C294.533 88.4838 295.875 89.8124 297.824 89.8124C299.179 89.8124 300.488 89.0638 300.744 87.6409H299.57C299.395 88.4299 298.694 88.848 297.804 88.848C296.448 88.848 295.794 87.8027 295.794 86.4809ZM295.801 85.638C295.794 84.5994 296.414 83.5137 297.729 83.5137C298.991 83.5137 299.591 84.4376 299.591 85.638H295.801ZM235.387 113.926V123.677H237.525C241.065 123.677 242.724 121.978 242.724 118.741C242.724 115.659 241.234 113.987 237.653 113.939C236.83 113.933 235.502 113.926 235.387 113.926ZM236.669 114.998H237.579C239.993 114.998 241.409 115.942 241.409 118.761C241.409 121.58 239.939 122.605 237.525 122.605H236.669V114.998ZM246.438 123.812C247.436 123.812 248.293 123.455 248.832 122.369L248.927 123.677H249.992V118.808C249.992 117.352 249.089 116.57 247.275 116.57C245.582 116.57 244.543 117.318 244.469 118.674H245.568C245.737 117.844 246.411 117.493 247.214 117.487C248.286 117.487 248.785 118.026 248.785 118.876V119.422L247.544 119.456C245.157 119.51 244.139 120.245 244.139 121.789C244.139 123.064 245.083 123.812 246.438 123.812ZM246.809 122.915C245.953 122.915 245.346 122.457 245.346 121.668C245.346 120.636 246.148 120.238 247.753 120.211L248.785 120.191V121.385C248.785 122.16 247.747 122.915 246.809 122.915ZM255.195 117.615V116.698H253.624V114.675H252.707L252.403 116.704H251.237V117.615H252.37V121.992C252.37 123.111 252.754 123.711 254.204 123.711C254.71 123.711 255.06 123.664 255.236 123.597V122.76H254.474C253.819 122.76 253.624 122.693 253.624 121.951V117.615H255.195ZM258.793 123.812C259.791 123.812 260.648 123.455 261.187 122.369L261.282 123.677H262.347V118.808C262.347 117.352 261.444 116.57 259.629 116.57C257.937 116.57 256.898 117.318 256.824 118.674H257.923C258.092 117.844 258.766 117.493 259.569 117.487C260.641 117.487 261.14 118.026 261.14 118.876V119.422L259.899 119.456C257.512 119.51 256.494 120.245 256.494 121.789C256.494 123.064 257.438 123.812 258.793 123.812ZM259.164 122.915C258.308 122.915 257.701 122.457 257.701 121.668C257.701 120.636 258.503 120.238 260.108 120.211L261.14 120.191V121.385C261.14 122.16 260.102 122.915 259.164 122.915ZM274.978 113.926H273.744L270.756 122.261L267.769 113.926H266.535L270.008 123.677H271.512L274.978 113.926ZM277.694 123.812C278.692 123.812 279.549 123.455 280.088 122.369L280.183 123.677H281.248V118.808C281.248 117.352 280.345 116.57 278.531 116.57C276.838 116.57 275.799 117.318 275.725 118.674H276.824C276.993 117.844 277.667 117.493 278.47 117.487C279.542 117.487 280.041 118.026 280.041 118.876V119.422L278.8 119.456C276.413 119.51 275.395 120.245 275.395 121.789C275.395 123.064 276.339 123.812 277.694 123.812ZM278.065 122.915C277.209 122.915 276.602 122.457 276.602 121.668C276.602 120.636 277.404 120.238 279.009 120.211L280.041 120.191V121.385C280.041 122.16 279.003 122.915 278.065 122.915ZM284.954 123.765C285.129 123.765 285.372 123.725 285.581 123.657V122.848L285.203 122.841C284.711 122.808 284.421 122.47 284.421 121.762V113.656H283.194V121.884C283.194 122.861 283.45 123.765 284.954 123.765ZM289.616 123.812C290.6 123.819 291.45 123.388 291.706 122.342L291.834 123.677H292.826V116.704H291.585V121.243C291.585 122.302 290.904 122.841 289.879 122.841C288.739 122.841 288.186 122.221 288.186 121.31V116.704H286.938V121.439C286.938 123.01 288.166 123.799 289.616 123.812ZM295.794 120.481H300.791V120.022C300.791 117.905 299.699 116.57 297.736 116.57C295.706 116.57 294.533 118.06 294.533 120.258C294.533 122.484 295.875 123.812 297.824 123.812C299.179 123.812 300.488 123.064 300.744 121.641H299.57C299.395 122.43 298.694 122.848 297.804 122.848C296.448 122.848 295.794 121.803 295.794 120.481ZM295.801 119.638C295.794 118.599 296.414 117.514 297.729 117.514C298.991 117.514 299.591 118.438 299.591 119.638H295.801ZM235.387 146.926V156.677H237.525C241.065 156.677 242.724 154.978 242.724 151.741C242.724 148.659 241.234 146.987 237.653 146.939C236.83 146.933 235.502 146.926 235.387 146.926ZM236.669 147.998H237.579C239.993 147.998 241.409 148.942 241.409 151.761C241.409 154.58 239.939 155.605 237.525 155.605H236.669V147.998ZM246.438 156.812C247.436 156.812 248.293 156.455 248.832 155.369L248.927 156.677H249.992V151.808C249.992 150.352 249.089 149.57 247.275 149.57C245.582 149.57 244.543 150.318 244.469 151.674H245.568C245.737 150.844 246.411 150.493 247.214 150.487C248.286 150.487 248.785 151.026 248.785 151.876V152.422L247.544 152.456C245.157 152.51 244.139 153.245 244.139 154.789C244.139 156.064 245.083 156.812 246.438 156.812ZM246.809 155.915C245.953 155.915 245.346 155.457 245.346 154.668C245.346 153.636 246.148 153.238 247.753 153.211L248.785 153.191V154.385C248.785 155.16 247.747 155.915 246.809 155.915ZM255.195 150.615V149.698H253.624V147.675H252.707L252.403 149.704H251.237V150.615H252.37V154.992C252.37 156.111 252.754 156.711 254.204 156.711C254.71 156.711 255.06 156.664 255.236 156.597V155.76H254.474C253.819 155.76 253.624 155.693 253.624 154.951V150.615H255.195ZM258.793 156.812C259.791 156.812 260.648 156.455 261.187 155.369L261.282 156.677H262.347V151.808C262.347 150.352 261.444 149.57 259.629 149.57C257.937 149.57 256.898 150.318 256.824 151.674H257.923C258.092 150.844 258.766 150.493 259.569 150.487C260.641 150.487 261.14 151.026 261.14 151.876V152.422L259.899 152.456C257.512 152.51 256.494 153.245 256.494 154.789C256.494 156.064 257.438 156.812 258.793 156.812ZM259.164 155.915C258.308 155.915 257.701 155.457 257.701 154.668C257.701 153.636 258.503 153.238 260.108 153.211L261.14 153.191V154.385C261.14 155.16 260.102 155.915 259.164 155.915ZM274.978 146.926H273.744L270.756 155.261L267.769 146.926H266.535L270.008 156.677H271.512L274.978 146.926ZM277.694 156.812C278.692 156.812 279.549 156.455 280.088 155.369L280.183 156.677H281.248V151.808C281.248 150.352 280.345 149.57 278.531 149.57C276.838 149.57 275.799 150.318 275.725 151.674H276.824C276.993 150.844 277.667 150.493 278.47 150.487C279.542 150.487 280.041 151.026 280.041 151.876V152.422L278.8 152.456C276.413 152.51 275.395 153.245 275.395 154.789C275.395 156.064 276.339 156.812 277.694 156.812ZM278.065 155.915C277.209 155.915 276.602 155.457 276.602 154.668C276.602 153.636 277.404 153.238 279.009 153.211L280.041 153.191V154.385C280.041 155.16 279.003 155.915 278.065 155.915ZM284.954 156.765C285.129 156.765 285.372 156.725 285.581 156.657V155.848L285.203 155.841C284.711 155.808 284.421 155.47 284.421 154.762V146.656H283.194V154.884C283.194 155.861 283.45 156.765 284.954 156.765ZM289.616 156.812C290.6 156.819 291.45 156.388 291.706 155.342L291.834 156.677H292.826V149.704H291.585V154.243C291.585 155.302 290.904 155.841 289.879 155.841C288.739 155.841 288.186 155.221 288.186 154.31V149.704H286.938V154.439C286.938 156.01 288.166 156.799 289.616 156.812ZM295.794 153.481H300.791V153.022C300.791 150.905 299.699 149.57 297.736 149.57C295.706 149.57 294.533 151.06 294.533 153.258C294.533 155.484 295.875 156.812 297.824 156.812C299.179 156.812 300.488 156.064 300.744 154.641H299.57C299.395 155.43 298.694 155.848 297.804 155.848C296.448 155.848 295.794 154.803 295.794 153.481ZM295.801 152.638C295.794 151.599 296.414 150.514 297.729 150.514C298.991 150.514 299.591 151.438 299.591 152.638H295.801ZM235.387 180.926V190.677H237.525C241.065 190.677 242.724 188.978 242.724 185.741C242.724 182.659 241.234 180.987 237.653 180.939C236.83 180.933 235.502 180.926 235.387 180.926ZM236.669 181.998H237.579C239.993 181.998 241.409 182.942 241.409 185.761C241.409 188.58 239.939 189.605 237.525 189.605H236.669V181.998ZM246.438 190.812C247.436 190.812 248.293 190.455 248.832 189.369L248.927 190.677H249.992V185.808C249.992 184.352 249.089 183.57 247.275 183.57C245.582 183.57 244.543 184.318 244.469 185.674H245.568C245.737 184.844 246.411 184.493 247.214 184.487C248.286 184.487 248.785 185.026 248.785 185.876V186.422L247.544 186.456C245.157 186.51 244.139 187.245 244.139 188.789C244.139 190.064 245.083 190.812 246.438 190.812ZM246.809 189.915C245.953 189.915 245.346 189.457 245.346 188.668C245.346 187.636 246.148 187.238 247.753 187.211L248.785 187.191V188.385C248.785 189.16 247.747 189.915 246.809 189.915ZM255.195 184.615V183.698H253.624V181.675H252.707L252.403 183.704H251.237V184.615H252.37V188.992C252.37 190.111 252.754 190.711 254.204 190.711C254.71 190.711 255.06 190.664 255.236 190.597V189.76H254.474C253.819 189.76 253.624 189.693 253.624 188.951V184.615H255.195ZM258.793 190.812C259.791 190.812 260.648 190.455 261.187 189.369L261.282 190.677H262.347V185.808C262.347 184.352 261.444 183.57 259.629 183.57C257.937 183.57 256.898 184.318 256.824 185.674H257.923C258.092 184.844 258.766 184.493 259.569 184.487C260.641 184.487 261.14 185.026 261.14 185.876V186.422L259.899 186.456C257.512 186.51 256.494 187.245 256.494 188.789C256.494 190.064 257.438 190.812 258.793 190.812ZM259.164 189.915C258.308 189.915 257.701 189.457 257.701 188.668C257.701 187.636 258.503 187.238 260.108 187.211L261.14 187.191V188.385C261.14 189.16 260.102 189.915 259.164 189.915ZM274.978 180.926H273.744L270.756 189.261L267.769 180.926H266.535L270.008 190.677H271.512L274.978 180.926ZM277.694 190.812C278.692 190.812 279.549 190.455 280.088 189.369L280.183 190.677H281.248V185.808C281.248 184.352 280.345 183.57 278.531 183.57C276.838 183.57 275.799 184.318 275.725 185.674H276.824C276.993 184.844 277.667 184.493 278.47 184.487C279.542 184.487 280.041 185.026 280.041 185.876V186.422L278.8 186.456C276.413 186.51 275.395 187.245 275.395 188.789C275.395 190.064 276.339 190.812 277.694 190.812ZM278.065 189.915C277.209 189.915 276.602 189.457 276.602 188.668C276.602 187.636 277.404 187.238 279.009 187.211L280.041 187.191V188.385C280.041 189.16 279.003 189.915 278.065 189.915ZM284.954 190.765C285.129 190.765 285.372 190.725 285.581 190.657V189.848L285.203 189.841C284.711 189.808 284.421 189.47 284.421 188.762V180.656H283.194V188.884C283.194 189.861 283.45 190.765 284.954 190.765ZM289.616 190.812C290.6 190.819 291.45 190.388 291.706 189.342L291.834 190.677H292.826V183.704H291.585V188.243C291.585 189.302 290.904 189.841 289.879 189.841C288.739 189.841 288.186 189.221 288.186 188.31V183.704H286.938V188.439C286.938 190.01 288.166 190.799 289.616 190.812ZM295.794 187.481H300.791V187.022C300.791 184.905 299.699 183.57 297.736 183.57C295.706 183.57 294.533 185.06 294.533 187.258C294.533 189.484 295.875 190.812 297.824 190.812C299.179 190.812 300.488 190.064 300.744 188.641H299.57C299.395 189.43 298.694 189.848 297.804 189.848C296.448 189.848 295.794 188.803 295.794 187.481ZM295.801 186.638C295.794 185.599 296.414 184.514 297.729 184.514C298.991 184.514 299.591 185.438 299.591 186.638H295.801ZM235.387 214.926V224.677H237.525C241.065 224.677 242.724 222.978 242.724 219.741C242.724 216.659 241.234 214.987 237.653 214.939C236.83 214.933 235.502 214.926 235.387 214.926ZM236.669 215.998H237.579C239.993 215.998 241.409 216.942 241.409 219.761C241.409 222.58 239.939 223.605 237.525 223.605H236.669V215.998ZM246.438 224.812C247.436 224.812 248.293 224.455 248.832 223.369L248.927 224.677H249.992V219.808C249.992 218.352 249.089 217.57 247.275 217.57C245.582 217.57 244.543 218.318 244.469 219.674H245.568C245.737 218.844 246.411 218.493 247.214 218.487C248.286 218.487 248.785 219.026 248.785 219.876V220.422L247.544 220.456C245.157 220.51 244.139 221.245 244.139 222.789C244.139 224.064 245.083 224.812 246.438 224.812ZM246.809 223.915C245.953 223.915 245.346 223.457 245.346 222.668C245.346 221.636 246.148 221.238 247.753 221.211L248.785 221.191V222.385C248.785 223.16 247.747 223.915 246.809 223.915ZM255.195 218.615V217.698H253.624V215.675H252.707L252.403 217.704H251.237V218.615H252.37V222.992C252.37 224.111 252.754 224.711 254.204 224.711C254.71 224.711 255.06 224.664 255.236 224.597V223.76H254.474C253.819 223.76 253.624 223.693 253.624 222.951V218.615H255.195ZM258.793 224.812C259.791 224.812 260.648 224.455 261.187 223.369L261.282 224.677H262.347V219.808C262.347 218.352 261.444 217.57 259.629 217.57C257.937 217.57 256.898 218.318 256.824 219.674H257.923C258.092 218.844 258.766 218.493 259.569 218.487C260.641 218.487 261.14 219.026 261.14 219.876V220.422L259.899 220.456C257.512 220.51 256.494 221.245 256.494 222.789C256.494 224.064 257.438 224.812 258.793 224.812ZM259.164 223.915C258.308 223.915 257.701 223.457 257.701 222.668C257.701 221.636 258.503 221.238 260.108 221.211L261.14 221.191V222.385C261.14 223.16 260.102 223.915 259.164 223.915ZM274.978 214.926H273.744L270.756 223.261L267.769 214.926H266.535L270.008 224.677H271.512L274.978 214.926ZM277.694 224.812C278.692 224.812 279.549 224.455 280.088 223.369L280.183 224.677H281.248V219.808C281.248 218.352 280.345 217.57 278.531 217.57C276.838 217.57 275.799 218.318 275.725 219.674H276.824C276.993 218.844 277.667 218.493 278.47 218.487C279.542 218.487 280.041 219.026 280.041 219.876V220.422L278.8 220.456C276.413 220.51 275.395 221.245 275.395 222.789C275.395 224.064 276.339 224.812 277.694 224.812ZM278.065 223.915C277.209 223.915 276.602 223.457 276.602 222.668C276.602 221.636 277.404 221.238 279.009 221.211L280.041 221.191V222.385C280.041 223.16 279.003 223.915 278.065 223.915ZM284.954 224.765C285.129 224.765 285.372 224.725 285.581 224.657V223.848L285.203 223.841C284.711 223.808 284.421 223.47 284.421 222.762V214.656H283.194V222.884C283.194 223.861 283.45 224.765 284.954 224.765ZM289.616 224.812C290.6 224.819 291.45 224.388 291.706 223.342L291.834 224.677H292.826V217.704H291.585V222.243C291.585 223.302 290.904 223.841 289.879 223.841C288.739 223.841 288.186 223.221 288.186 222.31V217.704H286.938V222.439C286.938 224.01 288.166 224.799 289.616 224.812ZM295.794 221.481H300.791V221.022C300.791 218.905 299.699 217.57 297.736 217.57C295.706 217.57 294.533 219.06 294.533 221.258C294.533 223.484 295.875 224.812 297.824 224.812C299.179 224.812 300.488 224.064 300.744 222.641H299.57C299.395 223.43 298.694 223.848 297.804 223.848C296.448 223.848 295.794 222.803 295.794 221.481ZM295.801 220.638C295.794 219.599 296.414 218.514 297.729 218.514C298.991 218.514 299.591 219.438 299.591 220.638H295.801Z" fill="#00284D"/>
<g style="mix-blend-mode:color">
<rect width="320" height="120" fill="#808080"/>
</g>
<g style="mix-blend-mode:color">
<rect width="320" height="120" fill="#00284D"/>
</g>
</g>
<defs>
<clipPath id="clip0_454_540">
<rect width="320" height="120" fill="white"/>
</clipPath>
<clipPath id="clip1_454_540">
<rect width="504.436" height="204" fill="white" transform="translate(36 32)"/>
</clipPath>
</defs>
</svg>
