<svg width="320" height="120" viewBox="0 0 320 120" fill="none" xmlns="http://www.w3.org/2000/svg">
<rect width="320" height="120" fill="#C0CEDB"/>
<rect x="88" y="53" width="14" height="14" rx="3" fill="#185AE3" stroke="#185AE3" stroke-width="2"/>
<path fill-rule="evenodd" clip-rule="evenodd" d="M92.05 59.1813L91 61L93.4744 62.4286L95.3301 63.5L96.3801 61.6813L98.8301 57.4378L96.9744 56.3664L94.5244 60.6099L92.05 59.1813Z" fill="white"/>
<path d="M115.384 54.432H113.92L110.376 64.32L106.832 54.432H105.368L109.488 66H111.272L115.384 54.432ZM118.607 66.16C119.791 66.16 120.807 65.736 121.447 64.448L121.559 66H122.823V60.224C122.823 58.496 121.751 57.568 119.599 57.568C117.591 57.568 116.359 58.456 116.271 60.064H117.575C117.775 59.08 118.575 58.664 119.527 58.656C120.799 58.656 121.391 59.296 121.391 60.304V60.952L119.919 60.992C117.087 61.056 115.879 61.928 115.879 63.76C115.879 65.272 116.999 66.16 118.607 66.16ZM119.047 65.096C118.031 65.096 117.311 64.552 117.311 63.616C117.311 62.392 118.263 61.92 120.167 61.888L121.391 61.864V63.28C121.391 64.2 120.159 65.096 119.047 65.096ZM127.218 66.104C127.426 66.104 127.714 66.056 127.962 65.976V65.016L127.514 65.008C126.93 64.968 126.586 64.568 126.586 63.728V54.112H125.13V63.872C125.13 65.032 125.434 66.104 127.218 66.104ZM132.748 66.16C133.916 66.168 134.924 65.656 135.228 64.416L135.38 66H136.556V57.728H135.084V63.112C135.084 64.368 134.276 65.008 133.06 65.008C131.708 65.008 131.052 64.272 131.052 63.192V57.728H129.572V63.344C129.572 65.208 131.028 66.144 132.748 66.16ZM140.078 62.208H146.006V61.664C146.006 59.152 144.71 57.568 142.382 57.568C139.974 57.568 138.582 59.336 138.582 61.944C138.582 64.584 140.174 66.16 142.486 66.16C144.094 66.16 145.646 65.272 145.95 63.584H144.558C144.35 64.52 143.518 65.016 142.462 65.016C140.854 65.016 140.078 63.776 140.078 62.208ZM140.086 61.208C140.078 59.976 140.814 58.688 142.374 58.688C143.87 58.688 144.582 59.784 144.582 61.208H140.086Z" fill="#495057"/>
<rect x="173" y="53" width="14" height="14" rx="3" fill="white" stroke="#6C757D" stroke-width="2"/>
<path d="M200.384 54.432H198.92L195.376 64.32L191.832 54.432H190.368L194.488 66H196.272L200.384 54.432ZM203.607 66.16C204.791 66.16 205.807 65.736 206.447 64.448L206.559 66H207.823V60.224C207.823 58.496 206.751 57.568 204.599 57.568C202.591 57.568 201.359 58.456 201.271 60.064H202.575C202.775 59.08 203.575 58.664 204.527 58.656C205.799 58.656 206.391 59.296 206.391 60.304V60.952L204.919 60.992C202.087 61.056 200.879 61.928 200.879 63.76C200.879 65.272 201.999 66.16 203.607 66.16ZM204.047 65.096C203.031 65.096 202.311 64.552 202.311 63.616C202.311 62.392 203.263 61.92 205.167 61.888L206.391 61.864V63.28C206.391 64.2 205.159 65.096 204.047 65.096ZM212.218 66.104C212.426 66.104 212.714 66.056 212.962 65.976V65.016L212.514 65.008C211.93 64.968 211.586 64.568 211.586 63.728V54.112H210.13V63.872C210.13 65.032 210.434 66.104 212.218 66.104ZM217.748 66.16C218.916 66.168 219.924 65.656 220.228 64.416L220.38 66H221.556V57.728H220.084V63.112C220.084 64.368 219.276 65.008 218.06 65.008C216.708 65.008 216.052 64.272 216.052 63.192V57.728H214.572V63.344C214.572 65.208 216.028 66.144 217.748 66.16ZM225.078 62.208H231.006V61.664C231.006 59.152 229.71 57.568 227.382 57.568C224.974 57.568 223.582 59.336 223.582 61.944C223.582 64.584 225.174 66.16 227.486 66.16C229.094 66.16 230.646 65.272 230.95 63.584H229.558C229.35 64.52 228.518 65.016 227.462 65.016C225.854 65.016 225.078 63.776 225.078 62.208ZM225.086 61.208C225.078 59.976 225.814 58.688 227.374 58.688C228.87 58.688 229.582 59.784 229.582 61.208H225.086Z" fill="#495057"/>
<g style="mix-blend-mode:color">
<rect width="320" height="120" fill="#808080"/>
</g>
<g style="mix-blend-mode:color">
<rect width="320" height="120" fill="#00284D"/>
</g>
</svg>
