<svg width="320" height="120" viewBox="0 0 320 120" fill="none" xmlns="http://www.w3.org/2000/svg">
<rect width="320" height="120" fill="#C0CEDB"/>
<path d="M148 77C148 72.5817 151.582 69 156 69H164C168.418 69 172 72.5817 172 77V85C172 89.4183 168.418 93 164 93H156C151.582 93 148 89.4183 148 85V77Z" fill="#6C757D"/>
<path d="M160.273 73.75C158.086 73.75 156.664 74.6523 155.543 76.2656C155.352 76.5391 155.406 76.9492 155.707 77.1406L156.883 78.043C157.156 78.2617 157.566 78.207 157.785 77.9336C158.469 77.0859 158.988 76.5938 160.055 76.5938C160.902 76.5938 161.941 77.1133 161.941 77.9336C161.941 78.5625 161.422 78.8633 160.602 79.3281C159.617 79.875 158.332 80.5586 158.332 82.2539V82.5C158.332 82.8828 158.633 83.1562 158.988 83.1562H160.984C161.34 83.1562 161.641 82.8828 161.641 82.5V82.3633C161.641 81.1875 165.059 81.1328 165.059 77.9609C165.059 75.582 162.57 73.75 160.273 73.75ZM160 83.9766C158.934 83.9766 158.086 84.8242 158.086 85.8633C158.086 86.9023 158.934 87.75 160 87.75C161.039 87.75 161.887 86.9023 161.887 85.8633C161.887 84.8242 161.039 83.9766 160 83.9766Z" fill="white"/>
<g style="mix-blend-mode:color">
<rect width="320" height="120" fill="#808080"/>
</g>
<g style="mix-blend-mode:color">
<rect width="320" height="120" fill="#00284D"/>
</g>
<path d="M80 30C80 27.7909 81.7909 26 84 26H236C238.209 26 240 27.7909 240 30V51C240 53.2091 238.209 55 236 55H84C81.7909 55 80 53.2091 80 51V30Z" fill="#00284D"/>
<path d="M117.946 37.068H121.215V46H122.517V37.068H125.604V35.878H117.946V37.068ZM128.935 46.14C131.091 46.14 132.232 44.621 132.232 42.409C132.232 39.973 130.937 38.622 128.942 38.622C126.8 38.622 125.617 40.141 125.617 42.409C125.617 44.824 126.926 46.14 128.935 46.14ZM128.942 45.118C127.493 45.118 126.905 43.907 126.905 42.381C126.905 40.659 127.626 39.637 128.942 39.637C130.363 39.637 130.951 40.834 130.951 42.381C130.951 44.082 130.237 45.118 128.942 45.118ZM136.851 46.14C139.007 46.14 140.148 44.621 140.148 42.409C140.148 39.973 138.853 38.622 136.858 38.622C134.716 38.622 133.533 40.141 133.533 42.409C133.533 44.824 134.842 46.14 136.851 46.14ZM136.858 45.118C135.409 45.118 134.821 43.907 134.821 42.381C134.821 40.659 135.542 39.637 136.858 39.637C138.279 39.637 138.867 40.834 138.867 42.381C138.867 44.082 138.153 45.118 136.858 45.118ZM143.696 46.091C143.878 46.091 144.13 46.049 144.347 45.979V45.139L143.955 45.132C143.444 45.097 143.143 44.747 143.143 44.012V35.598H141.869V44.138C141.869 45.153 142.135 46.091 143.696 46.091ZM149.256 39.707V38.755H147.625V36.655H146.673L146.358 38.762H145.147V39.707H146.323V44.25C146.323 45.412 146.722 46.035 148.227 46.035C148.752 46.035 149.116 45.986 149.298 45.916V45.048H148.507C147.828 45.048 147.625 44.978 147.625 44.208V39.707H149.256ZM152.338 35.885H151.015V37.229H152.338V35.885ZM152.303 38.762H151.05V46H152.303V38.762ZM154.57 48.254H155.872V44.691C156.173 45.307 156.852 46.14 158.147 46.14C160.051 46.14 161.185 44.768 161.185 42.283C161.185 39.791 159.981 38.622 158.252 38.622C156.922 38.622 156.201 39.427 155.872 40.022L155.858 38.762H154.57V48.254ZM157.902 45.132C156.558 45.132 155.858 43.886 155.858 42.325C155.858 40.729 156.558 39.63 157.902 39.63C159.225 39.63 159.932 40.68 159.932 42.325C159.932 44.25 159.092 45.132 157.902 45.132ZM168.939 46.14C171.095 46.14 172.236 44.621 172.236 42.409C172.236 39.973 170.941 38.622 168.946 38.622C166.804 38.622 165.621 40.141 165.621 42.409C165.621 44.824 166.93 46.14 168.939 46.14ZM168.946 45.118C167.497 45.118 166.909 43.907 166.909 42.381C166.909 40.659 167.63 39.637 168.946 39.637C170.367 39.637 170.955 40.834 170.955 42.381C170.955 44.082 170.241 45.118 168.946 45.118ZM173.957 46H175.245V41.163C175.245 40.19 176.141 39.728 177.121 39.728C178.066 39.728 178.717 40.267 178.717 41.394V46H180.012V41.268C180.012 39.448 178.85 38.657 177.478 38.657C176.316 38.657 175.567 39.21 175.21 39.812V38.762H173.957V46ZM189.123 39.707V38.755H187.492V36.655H186.54L186.225 38.762H185.014V39.707H186.19V44.25C186.19 45.412 186.589 46.035 188.094 46.035C188.619 46.035 188.983 45.986 189.165 45.916V45.048H188.374C187.695 45.048 187.492 44.978 187.492 44.208V39.707H189.123ZM193.589 46.14C195.745 46.14 196.886 44.621 196.886 42.409C196.886 39.973 195.591 38.622 193.596 38.622C191.454 38.622 190.271 40.141 190.271 42.409C190.271 44.824 191.58 46.14 193.589 46.14ZM193.596 45.118C192.147 45.118 191.559 43.907 191.559 42.381C191.559 40.659 192.28 39.637 193.596 39.637C195.017 39.637 195.605 40.834 195.605 42.381C195.605 44.082 194.891 45.118 193.596 45.118ZM198.607 48.254H199.909V44.691C200.21 45.307 200.889 46.14 202.184 46.14C204.088 46.14 205.222 44.768 205.222 42.283C205.222 39.791 204.018 38.622 202.289 38.622C200.959 38.622 200.238 39.427 199.909 40.022L199.895 38.762H198.607V48.254ZM201.939 45.132C200.595 45.132 199.895 43.886 199.895 42.325C199.895 40.729 200.595 39.63 201.939 39.63C203.262 39.63 203.969 40.68 203.969 42.325C203.969 44.25 203.129 45.132 201.939 45.132Z" fill="white"/>
<path d="M159.5 61L152 55L167 55L159.5 61Z" fill="#00284D"/>
</svg>
