<svg width="320" height="120" viewBox="0 0 320 120" fill="none" xmlns="http://www.w3.org/2000/svg">
<rect width="320" height="120" fill="#C0CEDB"/>
<g filter="url(#filter0_d)">
<path d="M22 46.7216C22 45.7708 22.7708 45.0001 23.7215 45.0001H296.278C297.229 45.0001 298 45.7708 298 46.7216V74.2785C298 75.2293 297.229 76.0001 296.278 76.0001H23.7215C22.7708 76.0001 22 75.2293 22 74.2785V46.7216Z" fill="white"/>
<g filter="url(#filter1_d)">
<path d="M25.443 54.0444C25.443 53.0936 26.2137 52.3228 27.1645 52.3228H66.4936C67.4444 52.3228 68.2151 53.0936 68.2151 54.0444V66.9558C68.2151 67.9065 67.4444 68.6773 66.4936 68.6773H27.1645C26.2137 68.6773 25.443 67.9065 25.443 66.9558V54.0444Z" fill="#00284D"/>
<path d="M34.1075 57.0823C32.265 57.0823 30.7721 58.5752 30.7721 60.4178C30.7721 62.2603 32.265 63.7532 34.1075 63.7532C35.9501 63.7532 37.443 62.2603 37.443 60.4178C37.443 58.5752 35.9501 57.0823 34.1075 57.0823ZM35.1835 59.3418C35.4121 59.3418 35.6139 59.5436 35.6139 59.7722C35.6139 60.0143 35.4121 60.2026 35.1835 60.2026C34.9414 60.2026 34.7531 60.0143 34.7531 59.7722C34.7531 59.5436 34.9414 59.3418 35.1835 59.3418ZM33.0316 59.3418C33.2602 59.3418 33.462 59.5436 33.462 59.7722C33.462 60.0143 33.2602 60.2026 33.0316 60.2026C32.7895 60.2026 32.6012 60.0143 32.6012 59.7722C32.6012 59.5436 32.7895 59.3418 33.0316 59.3418ZM35.6408 61.6417C35.2642 62.099 34.6993 62.3545 34.1075 62.3545C33.5023 62.3545 32.9374 62.099 32.5609 61.6417C32.3726 61.413 32.7088 61.144 32.8837 61.3592C33.193 61.7224 33.6368 61.9241 34.1075 61.9241C34.5783 61.9241 35.0087 61.7224 35.318 61.3592C35.4928 61.144 35.8291 61.413 35.6408 61.6417Z" fill="white"/>
<path d="M42.0092 63.0001H43.6618C44.9323 63.0001 45.5762 62.5628 45.5762 61.6607C45.5762 61.0995 45.3145 60.6313 44.5295 60.4625C45.2112 60.2215 45.4522 59.8462 45.4522 59.3195C45.4522 58.4794 44.8187 58.0214 43.6102 58.0214H42.0092V63.0001ZM42.6461 60.2112V58.5482H43.6412C44.347 58.5482 44.8359 58.8202 44.8359 59.3986C44.8359 60.0287 44.2472 60.2112 43.7307 60.2112H42.6461ZM42.6461 62.4698V60.7518H43.7307C44.3987 60.7518 44.9289 61.01 44.9289 61.6332C44.9289 62.2013 44.4847 62.4698 43.655 62.4698H42.6461ZM47.8066 63.0689C48.3092 63.0724 48.7431 62.852 48.8739 62.3183L48.9393 63.0001H49.4454V59.44H48.8119V61.7571C48.8119 62.2977 48.4642 62.5731 47.9408 62.5731C47.359 62.5731 47.0766 62.2564 47.0766 61.7916V59.44H46.4397V61.857C46.4397 62.6592 47.0663 63.062 47.8066 63.0689ZM52.3037 59.9048V59.4365H51.5015V58.4036H51.0332L50.8783 59.44H50.2826V59.9048H50.8611V62.1393C50.8611 62.7108 51.0573 63.0173 51.7976 63.0173C52.0558 63.0173 52.2348 62.9932 52.3244 62.9587V62.5318H51.9353C51.6013 62.5318 51.5015 62.4974 51.5015 62.1186V59.9048H52.3037ZM54.6372 59.9048V59.4365H53.8349V58.4036H53.3667L53.2118 59.44H52.6161V59.9048H53.1945V62.1393C53.1945 62.7108 53.3908 63.0173 54.131 63.0173C54.3893 63.0173 54.5683 62.9932 54.6578 62.9587V62.5318H54.2688C53.9348 62.5318 53.8349 62.4974 53.8349 62.1186V59.9048H54.6372ZM56.8338 63.0689C57.8943 63.0689 58.4555 62.3218 58.4555 61.2338C58.4555 60.0356 57.8185 59.3711 56.8373 59.3711C55.7837 59.3711 55.2018 60.1182 55.2018 61.2338C55.2018 62.4216 55.8457 63.0689 56.8338 63.0689ZM56.8373 62.5662C56.1246 62.5662 55.8354 61.9706 55.8354 61.22C55.8354 60.373 56.19 59.8703 56.8373 59.8703C57.5362 59.8703 57.8254 60.4591 57.8254 61.22C57.8254 62.0567 57.4742 62.5662 56.8373 62.5662ZM59.302 63.0001H59.9355V60.6209C59.9355 60.1423 60.3762 59.9151 60.8583 59.9151C61.3231 59.9151 61.6433 60.1802 61.6433 60.7345V63.0001H62.2802V60.6726C62.2802 59.7774 61.7087 59.3883 61.0339 59.3883C60.4623 59.3883 60.0939 59.6603 59.9183 59.9564V59.44H59.302V63.0001Z" fill="white"/>
</g>
<g filter="url(#filter2_d)">
<path d="M71.6582 54.0444C71.6582 53.0936 72.429 52.3228 73.3797 52.3228H112.709C113.66 52.3228 114.43 53.0936 114.43 54.0444V66.9558C114.43 67.9065 113.66 68.6773 112.709 68.6773H73.3797C72.429 68.6773 71.6582 67.9065 71.6582 66.9558V54.0444Z" fill="#6C757D"/>
<path d="M80.3228 57.0823C78.4802 57.0823 76.9873 58.5752 76.9873 60.4178C76.9873 62.2603 78.4802 63.7532 80.3228 63.7532C82.1653 63.7532 83.6582 62.2603 83.6582 60.4178C83.6582 58.5752 82.1653 57.0823 80.3228 57.0823ZM81.3987 59.3418C81.6273 59.3418 81.8291 59.5436 81.8291 59.7722C81.8291 60.0143 81.6273 60.2026 81.3987 60.2026C81.1566 60.2026 80.9683 60.0143 80.9683 59.7722C80.9683 59.5436 81.1566 59.3418 81.3987 59.3418ZM79.2468 59.3418C79.4754 59.3418 79.6772 59.5436 79.6772 59.7722C79.6772 60.0143 79.4754 60.2026 79.2468 60.2026C79.0047 60.2026 78.8164 60.0143 78.8164 59.7722C78.8164 59.5436 79.0047 59.3418 79.2468 59.3418ZM81.856 61.6417C81.4794 62.099 80.9145 62.3545 80.3228 62.3545C79.7175 62.3545 79.1527 62.099 78.7761 61.6417C78.5878 61.413 78.924 61.144 79.0989 61.3592C79.4082 61.7224 79.852 61.9241 80.3228 61.9241C80.7935 61.9241 81.2239 61.7224 81.5332 61.3592C81.708 61.144 82.0443 61.413 81.856 61.6417Z" fill="white"/>
<path d="M88.2244 63.0001H89.8771C91.1475 63.0001 91.7914 62.5628 91.7914 61.6607C91.7914 61.0995 91.5297 60.6313 90.7447 60.4625C91.4264 60.2215 91.6674 59.8462 91.6674 59.3195C91.6674 58.4794 91.0339 58.0214 89.8254 58.0214H88.2244V63.0001ZM88.8614 60.2112V58.5482H89.8564C90.5622 58.5482 91.0511 58.8202 91.0511 59.3986C91.0511 60.0287 90.4624 60.2112 89.9459 60.2112H88.8614ZM88.8614 62.4698V60.7518H89.9459C90.6139 60.7518 91.1441 61.01 91.1441 61.6332C91.1441 62.2013 90.6999 62.4698 89.8702 62.4698H88.8614ZM94.0218 63.0689C94.5245 63.0724 94.9583 62.852 95.0891 62.3183L95.1545 63.0001H95.6607V59.44H95.0271V61.7571C95.0271 62.2977 94.6794 62.5731 94.1561 62.5731C93.5742 62.5731 93.2918 62.2564 93.2918 61.7916V59.44H92.6549V61.857C92.6549 62.6592 93.2815 63.062 94.0218 63.0689ZM98.5189 59.9048V59.4365H97.7167V58.4036H97.2484L97.0935 59.44H96.4979V59.9048H97.0763V62.1393C97.0763 62.7108 97.2725 63.0173 98.0128 63.0173C98.271 63.0173 98.4501 62.9932 98.5396 62.9587V62.5318H98.1505C97.8165 62.5318 97.7167 62.4974 97.7167 62.1186V59.9048H98.5189ZM100.852 59.9048V59.4365H100.05V58.4036H99.5819L99.427 59.44H98.8313V59.9048H99.4098V62.1393C99.4098 62.7108 99.606 63.0173 100.346 63.0173C100.604 63.0173 100.784 62.9932 100.873 62.9587V62.5318H100.484C100.15 62.5318 100.05 62.4974 100.05 62.1186V59.9048H100.852ZM103.049 63.0689C104.109 63.0689 104.671 62.3218 104.671 61.2338C104.671 60.0356 104.034 59.3711 103.052 59.3711C101.999 59.3711 101.417 60.1182 101.417 61.2338C101.417 62.4216 102.061 63.0689 103.049 63.0689ZM103.052 62.5662C102.34 62.5662 102.051 61.9706 102.051 61.22C102.051 60.373 102.405 59.8703 103.052 59.8703C103.751 59.8703 104.041 60.4591 104.041 61.22C104.041 62.0567 103.689 62.5662 103.052 62.5662ZM105.517 63.0001H106.151V60.6209C106.151 60.1423 106.591 59.9151 107.073 59.9151C107.538 59.9151 107.858 60.1802 107.858 60.7345V63.0001H108.495V60.6726C108.495 59.7774 107.924 59.3883 107.249 59.3883C106.678 59.3883 106.309 59.6603 106.134 59.9564V59.44H105.517V63.0001Z" fill="white"/>
</g>
<g filter="url(#filter3_d)">
<path d="M117.873 54.0444C117.873 53.0936 118.644 52.3228 119.595 52.3228H158.924C159.875 52.3228 160.646 53.0936 160.646 54.0444V66.9558C160.646 67.9065 159.875 68.6773 158.924 68.6773H119.595C118.644 68.6773 117.873 67.9065 117.873 66.9558V54.0444Z" fill="#6C757D"/>
<path d="M126.538 57.0823C124.695 57.0823 123.203 58.5752 123.203 60.4178C123.203 62.2603 124.695 63.7532 126.538 63.7532C128.381 63.7532 129.873 62.2603 129.873 60.4178C129.873 58.5752 128.381 57.0823 126.538 57.0823ZM127.614 59.3418C127.843 59.3418 128.044 59.5436 128.044 59.7722C128.044 60.0143 127.843 60.2026 127.614 60.2026C127.372 60.2026 127.184 60.0143 127.184 59.7722C127.184 59.5436 127.372 59.3418 127.614 59.3418ZM125.462 59.3418C125.691 59.3418 125.892 59.5436 125.892 59.7722C125.892 60.0143 125.691 60.2026 125.462 60.2026C125.22 60.2026 125.032 60.0143 125.032 59.7722C125.032 59.5436 125.22 59.3418 125.462 59.3418ZM128.071 61.6417C127.695 62.099 127.13 62.3545 126.538 62.3545C125.933 62.3545 125.368 62.099 124.991 61.6417C124.803 61.413 125.139 61.144 125.314 61.3592C125.623 61.7224 126.067 61.9241 126.538 61.9241C127.009 61.9241 127.439 61.7224 127.748 61.3592C127.923 61.144 128.259 61.413 128.071 61.6417Z" fill="white"/>
<path d="M134.44 63.0001H136.092C137.363 63.0001 138.007 62.5628 138.007 61.6607C138.007 61.0995 137.745 60.6313 136.96 60.4625C137.642 60.2215 137.883 59.8462 137.883 59.3195C137.883 58.4794 137.249 58.0214 136.041 58.0214H134.44V63.0001ZM135.077 60.2112V58.5482H136.072C136.777 58.5482 137.266 58.8202 137.266 59.3986C137.266 60.0287 136.678 60.2112 136.161 60.2112H135.077ZM135.077 62.4698V60.7518H136.161C136.829 60.7518 137.359 61.01 137.359 61.6332C137.359 62.2013 136.915 62.4698 136.085 62.4698H135.077ZM140.237 63.0689C140.74 63.0724 141.173 62.852 141.304 62.3183L141.37 63.0001H141.876V59.44H141.242V61.7571C141.242 62.2977 140.895 62.5731 140.371 62.5731C139.789 62.5731 139.507 62.2564 139.507 61.7916V59.44H138.87V61.857C138.87 62.6592 139.497 63.062 140.237 63.0689ZM144.734 59.9048V59.4365H143.932V58.4036H143.464L143.309 59.44H142.713V59.9048H143.291V62.1393C143.291 62.7108 143.488 63.0173 144.228 63.0173C144.486 63.0173 144.665 62.9932 144.755 62.9587V62.5318H144.366C144.032 62.5318 143.932 62.4974 143.932 62.1186V59.9048H144.734ZM147.068 59.9048V59.4365H146.265V58.4036H145.797L145.642 59.44H145.047V59.9048H145.625V62.1393C145.625 62.7108 145.821 63.0173 146.561 63.0173C146.82 63.0173 146.999 62.9932 147.088 62.9587V62.5318H146.699C146.365 62.5318 146.265 62.4974 146.265 62.1186V59.9048H147.068ZM149.264 63.0689C150.325 63.0689 150.886 62.3218 150.886 61.2338C150.886 60.0356 150.249 59.3711 149.268 59.3711C148.214 59.3711 147.632 60.1182 147.632 61.2338C147.632 62.4216 148.276 63.0689 149.264 63.0689ZM149.268 62.5662C148.555 62.5662 148.266 61.9706 148.266 61.22C148.266 60.373 148.62 59.8703 149.268 59.8703C149.967 59.8703 150.256 60.4591 150.256 61.22C150.256 62.0567 149.905 62.5662 149.268 62.5662ZM151.732 63.0001H152.366V60.6209C152.366 60.1423 152.807 59.9151 153.289 59.9151C153.753 59.9151 154.074 60.1802 154.074 60.7345V63.0001H154.711V60.6726C154.711 59.7774 154.139 59.3883 153.464 59.3883C152.893 59.3883 152.524 59.6603 152.349 59.9564V59.44H151.732V63.0001Z" fill="white"/>
</g>
<path d="M23.7215 45.8608H296.278V44.1393H23.7215V45.8608ZM297.139 46.7216V74.2785H298.861V46.7216H297.139ZM296.278 75.1393H23.7215V76.8608H296.278V75.1393ZM22.8608 74.2785V46.7216H21.1392V74.2785H22.8608ZM23.7215 75.1393C23.2461 75.1393 22.8608 74.7539 22.8608 74.2785H21.1392C21.1392 75.7047 22.2954 76.8608 23.7215 76.8608V75.1393ZM297.139 74.2785C297.139 74.7539 296.754 75.1393 296.278 75.1393V76.8608C297.705 76.8608 298.861 75.7047 298.861 74.2785H297.139ZM296.278 45.8608C296.754 45.8608 297.139 46.2462 297.139 46.7216H298.861C298.861 45.2954 297.705 44.1393 296.278 44.1393V45.8608ZM23.7215 44.1393C22.2954 44.1393 21.1392 45.2954 21.1392 46.7216H22.8608C22.8608 46.2462 23.2461 45.8608 23.7215 45.8608V44.1393Z" fill="#DEE2E6"/>
</g>
<g style="mix-blend-mode:color">
<rect width="320" height="120" fill="#808080"/>
</g>
<g style="mix-blend-mode:color">
<rect width="320" height="120" fill="#00284D"/>
</g>
<defs>
<filter id="filter0_d" x="21.1392" y="45.0001" width="277.722" height="32.7215" filterUnits="userSpaceOnUse" color-interpolation-filters="sRGB">
<feFlood flood-opacity="0" result="BackgroundImageFix"/>
<feColorMatrix in="SourceAlpha" type="matrix" values="0 0 0 0 0 0 0 0 0 0 0 0 0 0 0 0 0 0 127 0"/>
<feOffset dy="0.860759"/>
<feGaussianBlur stdDeviation="0.43038"/>
<feColorMatrix type="matrix" values="0 0 0 0 0 0 0 0 0 0 0 0 0 0 0 0 0 0 0.15 0"/>
<feBlend mode="normal" in2="BackgroundImageFix" result="effect1_dropShadow"/>
<feBlend mode="normal" in="SourceGraphic" in2="effect1_dropShadow" result="shape"/>
</filter>
<filter id="filter1_d" x="24.5822" y="52.3228" width="44.4937" height="18.9367" filterUnits="userSpaceOnUse" color-interpolation-filters="sRGB">
<feFlood flood-opacity="0" result="BackgroundImageFix"/>
<feColorMatrix in="SourceAlpha" type="matrix" values="0 0 0 0 0 0 0 0 0 0 0 0 0 0 0 0 0 0 127 0"/>
<feOffset dy="1.72152"/>
<feGaussianBlur stdDeviation="0.43038"/>
<feColorMatrix type="matrix" values="0 0 0 0 0 0 0 0 0 0 0 0 0 0 0 0 0 0 0.1 0"/>
<feBlend mode="normal" in2="BackgroundImageFix" result="effect1_dropShadow"/>
<feBlend mode="normal" in="SourceGraphic" in2="effect1_dropShadow" result="shape"/>
</filter>
<filter id="filter2_d" x="70.7974" y="52.3228" width="44.4937" height="18.9367" filterUnits="userSpaceOnUse" color-interpolation-filters="sRGB">
<feFlood flood-opacity="0" result="BackgroundImageFix"/>
<feColorMatrix in="SourceAlpha" type="matrix" values="0 0 0 0 0 0 0 0 0 0 0 0 0 0 0 0 0 0 127 0"/>
<feOffset dy="1.72152"/>
<feGaussianBlur stdDeviation="0.43038"/>
<feColorMatrix type="matrix" values="0 0 0 0 0 0 0 0 0 0 0 0 0 0 0 0 0 0 0.1 0"/>
<feBlend mode="normal" in2="BackgroundImageFix" result="effect1_dropShadow"/>
<feBlend mode="normal" in="SourceGraphic" in2="effect1_dropShadow" result="shape"/>
</filter>
<filter id="filter3_d" x="117.013" y="52.3228" width="44.4937" height="18.9367" filterUnits="userSpaceOnUse" color-interpolation-filters="sRGB">
<feFlood flood-opacity="0" result="BackgroundImageFix"/>
<feColorMatrix in="SourceAlpha" type="matrix" values="0 0 0 0 0 0 0 0 0 0 0 0 0 0 0 0 0 0 127 0"/>
<feOffset dy="1.72152"/>
<feGaussianBlur stdDeviation="0.43038"/>
<feColorMatrix type="matrix" values="0 0 0 0 0 0 0 0 0 0 0 0 0 0 0 0 0 0 0.1 0"/>
<feBlend mode="normal" in2="BackgroundImageFix" result="effect1_dropShadow"/>
<feBlend mode="normal" in="SourceGraphic" in2="effect1_dropShadow" result="shape"/>
</filter>
</defs>
</svg>
