<svg width="320" height="120" viewBox="0 0 320 120" fill="none" xmlns="http://www.w3.org/2000/svg">
<rect width="320" height="120" fill="#C0CEDB"/>
<g clip-path="url(#clip0_454_440)">
<rect width="290" height="68.1208" transform="translate(16 26)" fill="white"/>
<rect width="564.085" height="69.4906" transform="translate(16 25.0013)" fill="white"/>
<path d="M36.0191 44.6893C31.5845 44.6893 28.0368 48.2647 28.0368 52.6717C28.0368 54.1406 28.4248 55.5264 29.1177 56.6905C29.2563 56.9677 29.5612 57.1063 29.8661 57.1063H42.1444C42.4493 57.1063 42.7542 56.9677 42.8928 56.6905C43.5857 55.5264 44.0014 54.1406 44.0014 52.6717C44.0014 48.2647 40.426 44.6893 36.0191 44.6893ZM36.0191 46.4632C36.4071 46.4632 36.7397 46.7681 36.8506 47.1284C36.8229 47.1838 36.7675 47.2392 36.7397 47.3224L36.4903 48.0707C36.3517 48.1816 36.1854 48.237 36.0191 48.237C35.5202 48.237 35.1322 47.849 35.1322 47.3501C35.1322 46.8789 35.5202 46.4632 36.0191 46.4632ZM30.6976 54.4455C30.1987 54.4455 29.8106 54.0575 29.8106 53.5586C29.8106 53.0874 30.1987 52.6717 30.6976 52.6717C31.1687 52.6717 31.5845 53.0874 31.5845 53.5586C31.5845 54.0575 31.1687 54.4455 30.6976 54.4455ZM32.028 50.0109C31.5291 50.0109 31.141 49.6229 31.141 49.124C31.141 48.6528 31.5291 48.237 32.028 48.237C32.4991 48.237 32.9149 48.6528 32.9149 49.124C32.9149 49.6229 32.4991 50.0109 32.028 50.0109ZM38.8462 48.0153L37.1555 53.1151C37.5435 53.4477 37.793 53.9189 37.793 54.4455C37.793 54.7781 37.6821 55.083 37.5435 55.3324H34.467C34.3284 55.083 34.2453 54.7781 34.2453 54.4455C34.2453 53.5309 34.9659 52.7548 35.8805 52.6994L37.599 47.5996C37.7098 47.2392 38.0701 47.0452 38.4304 47.1838C38.7908 47.2947 38.9571 47.6827 38.8462 48.0153ZM39.2619 49.5951L39.6777 48.3202C39.7885 48.2647 39.8994 48.2647 40.0103 48.2647C40.4815 48.2647 40.8972 48.6528 40.8972 49.1517C40.8972 49.6229 40.4815 50.0386 40.0103 50.0386C39.6777 50.0109 39.4282 49.8446 39.2619 49.5951ZM41.3407 54.4455C40.8418 54.4455 40.4537 54.0575 40.4537 53.5586C40.4537 53.0874 40.8418 52.6717 41.3407 52.6717C41.8118 52.6717 42.2276 53.0874 42.2276 53.5586C42.2276 54.0575 41.8118 54.4455 41.3407 54.4455Z" fill="#C0CEDB"/>
<path d="M49.243 57.2194H51.627V53.0351H53.8651C56.387 53.0351 58.0413 51.6728 58.0413 49.3374C58.0413 46.856 56.1113 45.4937 53.557 45.4937H49.243V57.2194ZM51.6027 51.2025V47.3101H53.7678C54.9112 47.3101 55.8275 48.048 55.8275 49.2157C55.8275 50.3429 54.9842 51.2025 53.8003 51.2025H51.6027ZM61.7904 57.3815C62.9663 57.3815 63.8177 56.9923 64.3934 55.776L64.5881 57.2194H66.5667V51.3241C66.5667 49.678 65.5855 48.6724 63.023 48.6724C60.9228 48.6724 59.4064 49.5158 59.3172 51.3322H61.2877C61.5228 50.5618 62.2202 50.278 62.9095 50.2699C63.8583 50.2618 64.2961 50.6916 64.2961 51.4619V51.9647L63.242 51.9809C60.2822 52.0134 58.9604 52.9864 58.9604 54.8191C58.9604 56.4571 60.193 57.3815 61.7904 57.3815ZM62.5932 55.8246C61.8148 55.8246 61.2066 55.3624 61.2066 54.5839C61.2066 53.5622 62.2608 53.2135 63.4447 53.1973L64.2961 53.1811V54.4217C64.288 55.1434 63.4447 55.8246 62.5932 55.8246ZM72.3793 59.9926C75.3634 59.9926 76.8474 58.8574 76.8474 57.2842C76.8474 55.9625 75.8419 55.0218 73.7903 54.884C73.0524 54.8353 72.4037 54.8029 72.0469 54.7785C71.0576 54.7218 70.5791 54.6812 70.5791 54.4136C70.5791 54.2433 70.7818 54.0974 71.4143 54.0649C71.6252 54.0893 72.0469 54.0974 72.2415 54.0974C74.7472 54.0974 76.0365 52.7837 76.0365 51.3241C76.0365 51.1051 75.9716 50.7402 75.8581 50.4402L77.3015 50.205L77.3177 48.3724C76.6122 48.6643 75.3553 49.1671 74.8526 49.3617C74.2282 48.9725 73.5632 48.7049 72.4118 48.7049C70.1331 48.7049 68.4383 49.678 68.4383 51.3322C68.4383 52.2647 69.0222 53.2378 70.1331 53.7487C68.9735 53.9514 68.414 54.5109 68.414 55.1029C68.414 55.8976 69.1844 56.1976 69.4439 56.3517C69.2817 56.4409 67.8139 56.7896 67.8139 57.933C67.8139 59.1655 69.3952 59.9926 72.3793 59.9926ZM72.3145 52.7756C71.3819 52.7756 70.8143 52.2404 70.8143 51.4052C70.8143 50.5375 71.4143 49.9537 72.3145 49.9537C73.2064 49.9537 73.7984 50.5294 73.7984 51.4052C73.7984 52.2566 73.2064 52.7756 72.3145 52.7756ZM72.7604 58.6709C70.9602 58.6709 70.1331 58.3627 70.1331 57.6572C70.1331 57.1383 70.6359 56.6598 71.3981 56.7004L73.32 56.8301C74.1471 56.8869 74.5931 57.2275 74.5931 57.7302C74.5931 58.3384 74.0741 58.6709 72.7604 58.6709ZM80.4837 53.5703H86.1194V52.9297C86.1194 50.4159 84.7733 48.6724 82.2109 48.6724C79.6403 48.6724 78.1402 50.6024 78.1402 53.1243C78.1402 55.7273 79.8431 57.3815 82.3325 57.3815C84.076 57.3815 85.8275 56.3517 86.1113 54.5596H83.9787C83.7354 55.3462 83.0867 55.6705 82.2758 55.6705C81.1405 55.6705 80.4756 54.8515 80.4837 53.5703ZM80.4837 52.1593C80.4756 51.2349 81.1162 50.3267 82.2028 50.3267C83.3462 50.3267 83.9057 51.1457 83.9057 52.1593H80.4837ZM85.7101 47.602H89.2537V57.2194H91.6297V47.602H95.0922V45.4937H85.7101V47.602ZM98.7123 45.5018H96.4093V47.6345H98.7123V45.5018ZM98.6961 48.8346H96.4336V57.2194H98.6961V48.8346ZM105.793 50.4808V48.8265H103.928V46.3046H102.241L101.641 48.8346H100.206V50.4808H101.568V55.0461C101.568 56.3922 102.136 57.3086 104.35 57.3086C105.169 57.3086 105.59 57.2031 105.817 57.1058V55.6462H104.69C104.171 55.6462 103.944 55.5651 103.944 54.9488L103.928 50.4808H105.793ZM110.156 57.3653C110.472 57.3653 110.821 57.2761 111.145 57.1626V55.703L110.748 55.6786C110.018 55.5976 109.799 55.1921 109.799 54.5758V45.1693H107.48V54.8677C107.48 56.076 107.675 57.3653 110.156 57.3653ZM114.329 53.5703H119.965V52.9297C119.965 50.4159 118.619 48.6724 116.057 48.6724C113.486 48.6724 111.986 50.6024 111.986 53.1243C111.986 55.7273 113.689 57.3815 116.178 57.3815C117.922 57.3815 119.673 56.3517 119.957 54.5596H117.824C117.581 55.3462 116.932 55.6705 116.121 55.6705C114.986 55.6705 114.321 54.8515 114.329 53.5703ZM114.329 52.1593C114.321 51.2349 114.962 50.3267 116.048 50.3267C117.192 50.3267 117.751 51.1457 117.751 52.1593H114.329Z" fill="#00284D"/>
<path d="M48.7037 74.2739H49.4741V72.1047H50.7878C52.0203 72.1047 52.8596 71.4357 52.8596 70.2639C52.8596 69.0557 51.9433 68.411 50.6864 68.411H48.7037V74.2739ZM49.47 71.4722V69.0354H50.735C51.5581 69.0354 52.1298 69.4409 52.1298 70.2193C52.1298 70.9897 51.5743 71.4722 50.7715 71.4722H49.47ZM54.8095 74.355C55.4095 74.355 55.9244 74.1401 56.2488 73.4873L56.3056 74.2739H56.9462V71.3465C56.9462 70.4707 56.4029 70.0004 55.3122 70.0004C54.2945 70.0004 53.6701 70.4505 53.6255 71.2654H54.2864C54.3878 70.7667 54.7932 70.5559 55.2757 70.5518C55.9204 70.5518 56.2204 70.8762 56.2204 71.387V71.7155L55.4744 71.7357C54.0391 71.7682 53.4269 72.2101 53.4269 73.1386C53.4269 73.9049 53.9945 74.355 54.8095 74.355ZM55.0325 73.8157C54.5175 73.8157 54.1526 73.54 54.1526 73.0656C54.1526 72.4453 54.6351 72.2061 55.6001 72.1898L56.2204 72.1777V72.8953C56.2204 73.3616 55.596 73.8157 55.0325 73.8157ZM59.8876 75.6605C61.2783 75.6605 61.9514 75.1294 61.9514 74.3671C61.9514 73.6981 61.4567 73.2846 60.5809 73.2319C60.1958 73.2075 59.8795 73.1913 59.6687 73.1791C59.0848 73.1386 58.8699 73.094 58.8699 72.9399C58.8699 72.8061 59.0443 72.6764 59.62 72.6602C59.6889 72.6642 59.8065 72.6683 59.8714 72.6683C61.0431 72.6683 61.6189 72.0844 61.6189 71.3424C61.6189 71.1641 61.5662 70.9451 61.481 70.7708L62.2149 70.6329L62.219 69.9396C61.9919 70.0328 61.327 70.3085 61.1486 70.3815C60.8283 70.1504 60.4877 70.0166 59.9444 70.0166C58.8051 70.0166 58.1198 70.5275 58.1198 71.3424C58.1198 71.8249 58.4077 72.2588 58.9024 72.5061C58.4077 72.6156 58.1604 72.8548 58.1604 73.1183C58.1604 73.4427 58.4483 73.5603 58.5942 73.6454C58.4888 73.7225 57.7995 73.9536 57.7995 74.5577C57.7995 75.2672 58.5739 75.6605 59.8876 75.6605ZM59.8957 72.1858C59.2429 72.1858 58.8699 71.8817 58.8699 71.3506C58.8699 70.787 59.2794 70.4788 59.8957 70.4788C60.4958 70.4788 60.9012 70.787 60.9012 71.3506C60.9012 71.902 60.4958 72.1858 59.8957 72.1858ZM60.0214 75.178C59.0118 75.178 58.5456 74.9185 58.5456 74.4725C58.5456 74.0833 58.9632 73.7873 59.2794 73.8035L60.4552 73.8806C60.9661 73.913 61.2215 74.1441 61.2215 74.4766C61.2215 74.9469 60.7958 75.178 60.0214 75.178ZM63.577 72.352H66.5814V72.0763C66.5814 70.8032 65.9245 70.0004 64.7447 70.0004C63.5243 70.0004 62.8188 70.8965 62.8188 72.2182C62.8188 73.5562 63.6256 74.355 64.7974 74.355C65.6123 74.355 66.3989 73.9049 66.553 73.0494H65.8475C65.7421 73.5238 65.3204 73.7752 64.7852 73.7752C63.9703 73.7752 63.577 73.1467 63.577 72.352ZM63.581 71.8452C63.577 71.2208 63.95 70.568 64.7406 70.568C65.4988 70.568 65.8597 71.1235 65.8597 71.8452H63.581ZM69.535 74.2739H70.281V71.4762C70.281 70.9127 70.7919 70.641 71.3595 70.641C71.9109 70.641 72.288 70.9289 72.288 71.4276V74.2739H73.0381V71.2776C73.0381 70.5113 72.3934 70.0288 71.5744 70.0288C70.9013 70.0288 70.4756 70.3531 70.2648 70.6978V68.2489H69.535V74.2739ZM74.7586 72.352H77.763V72.0763C77.763 70.8032 77.1061 70.0004 75.9263 70.0004C74.7059 70.0004 74.0004 70.8965 74.0004 72.2182C74.0004 73.5562 74.8072 74.355 75.979 74.355C76.7939 74.355 77.5805 73.9049 77.7346 73.0494H77.0291C76.9237 73.5238 76.502 73.7752 75.9668 73.7752C75.1519 73.7752 74.7586 73.1467 74.7586 72.352ZM74.7626 71.8452C74.7586 71.2208 75.1316 70.568 75.9222 70.568C76.6804 70.568 77.0413 71.1235 77.0413 71.8452H74.7626ZM79.9205 74.355C80.5206 74.355 81.0355 74.1401 81.3599 73.4873L81.4167 74.2739H82.0573V71.3465C82.0573 70.4707 81.514 70.0004 80.4233 70.0004C79.4056 70.0004 78.7812 70.4505 78.7366 71.2654H79.3975C79.4989 70.7667 79.9043 70.5559 80.3868 70.5518C81.0315 70.5518 81.3315 70.8762 81.3315 71.387V71.7155L80.5855 71.7357C79.1502 71.7682 78.5379 72.2101 78.5379 73.1386C78.5379 73.9049 79.1056 74.355 79.9205 74.355ZM80.1435 73.8157C79.6286 73.8157 79.2637 73.54 79.2637 73.0656C79.2637 72.4453 79.7462 72.2061 80.7112 72.1898L81.3315 72.1777V72.8953C81.3315 73.3616 80.7071 73.8157 80.1435 73.8157ZM84.7554 74.355C85.7366 74.355 86.065 73.7427 86.1704 73.4143L86.2515 74.2739H86.8273V68.2489H86.0691V70.7464C85.9353 70.4748 85.4974 70.0004 84.6946 70.0004C83.5593 70.0004 82.9836 70.8559 82.9836 72.1615C82.9836 73.5968 83.6648 74.355 84.7554 74.355ZM84.8892 73.7792C84.1351 73.7792 83.7377 73.1751 83.7377 72.125C83.7377 71.0505 84.2121 70.5843 84.9014 70.5843C85.7366 70.5843 86.061 71.1438 86.0691 72.125C86.0691 73.2967 85.7366 73.7792 84.8892 73.7792ZM88.8871 68.4151H88.1208V69.1936H88.8871V68.4151ZM88.8668 70.0815H88.1411V74.2739H88.8668V70.0815ZM90.1797 74.2739H90.9258V71.4722C90.9258 70.9086 91.4447 70.641 92.0124 70.641C92.5597 70.641 92.9368 70.9532 92.9368 71.606V74.2739H93.6869V71.533C93.6869 70.4788 93.0138 70.0207 92.2192 70.0207C91.5461 70.0207 91.1123 70.341 90.9055 70.6897V70.0815H90.1797V74.2739ZM96.6317 75.6605C98.0224 75.6605 98.6954 75.1294 98.6954 74.3671C98.6954 73.6981 98.2008 73.2846 97.325 73.2319C96.9398 73.2075 96.6236 73.1913 96.4127 73.1791C95.8289 73.1386 95.614 73.094 95.614 72.9399C95.614 72.8061 95.7883 72.6764 96.3641 72.6602C96.433 72.6642 96.5506 72.6683 96.6155 72.6683C97.7872 72.6683 98.3629 72.0844 98.3629 71.3424C98.3629 71.1641 98.3102 70.9451 98.2251 70.7708L98.959 70.6329L98.963 69.9396C98.736 70.0328 98.071 70.3085 97.8926 70.3815C97.5723 70.1504 97.2317 70.0166 96.6884 70.0166C95.5491 70.0166 94.8639 70.5275 94.8639 71.3424C94.8639 71.8249 95.1518 72.2588 95.6464 72.5061C95.1518 72.6156 94.9044 72.8548 94.9044 73.1183C94.9044 73.4427 95.1923 73.5603 95.3383 73.6454C95.2329 73.7225 94.5436 73.9536 94.5436 74.5577C94.5436 75.2672 95.318 75.6605 96.6317 75.6605ZM96.6398 72.1858C95.987 72.1858 95.614 71.8817 95.614 71.3506C95.614 70.787 96.0235 70.4788 96.6398 70.4788C97.2398 70.4788 97.6453 70.787 97.6453 71.3506C97.6453 71.902 97.2398 72.1858 96.6398 72.1858ZM96.7655 75.178C95.7559 75.178 95.2896 74.9185 95.2896 74.4725C95.2896 74.0833 95.7072 73.7873 96.0235 73.8035L97.1993 73.8806C97.7102 73.913 97.9656 74.1441 97.9656 74.4766C97.9656 74.9469 97.5399 75.178 96.7655 75.178ZM101.876 74.2739H102.622V71.4722C102.622 70.8843 103.137 70.637 103.567 70.637C103.956 70.637 104.418 70.8883 104.418 71.387V74.2739H105.164V71.4722C105.164 70.8356 105.712 70.637 106.105 70.637C106.547 70.637 106.964 70.8478 106.964 71.606V74.2739H107.719V71.533C107.719 70.2923 106.944 70.0004 106.352 70.0004C105.797 70.0004 105.335 70.2761 105.075 70.6856C104.856 70.2396 104.325 70.0004 103.867 70.0004C103.214 70.0004 102.829 70.3207 102.598 70.6897V70.0815H101.876V74.2739ZM109.444 72.352H112.448V72.0763C112.448 70.8032 111.791 70.0004 110.611 70.0004C109.391 70.0004 108.685 70.8965 108.685 72.2182C108.685 73.5562 109.492 74.355 110.664 74.355C111.479 74.355 112.266 73.9049 112.42 73.0494H111.714C111.609 73.5238 111.187 73.7752 110.652 73.7752C109.837 73.7752 109.444 73.1467 109.444 72.352ZM109.448 71.8452C109.444 71.2208 109.817 70.568 110.607 70.568C111.366 70.568 111.726 71.1235 111.726 71.8452H109.448ZM114.962 74.355C115.984 74.355 116.576 73.8806 116.576 73.1102C116.576 72.6967 116.365 72.1858 115.594 71.9831L114.751 71.7722C114.289 71.6587 114.046 71.5087 114.046 71.2086C114.046 70.7627 114.415 70.5518 114.95 70.5518C115.469 70.5518 115.777 70.8032 115.834 71.2046H116.499C116.47 70.418 115.866 70.0004 114.958 70.0004C113.896 70.0004 113.356 70.5194 113.36 71.2532C113.364 71.8776 113.798 72.198 114.475 72.3601L115.343 72.575C115.724 72.6642 115.903 72.8426 115.903 73.1508C115.903 73.5887 115.525 73.7954 114.958 73.7954C114.427 73.7954 114.005 73.5441 113.9 73.0535H113.218C113.34 73.9576 114.086 74.355 114.962 74.355ZM119.056 74.355C120.078 74.355 120.67 73.8806 120.67 73.1102C120.67 72.6967 120.459 72.1858 119.689 71.9831L118.845 71.7722C118.383 71.6587 118.14 71.5087 118.14 71.2086C118.14 70.7627 118.509 70.5518 119.044 70.5518C119.563 70.5518 119.871 70.8032 119.928 71.2046H120.593C120.564 70.418 119.96 70.0004 119.052 70.0004C117.99 70.0004 117.45 70.5194 117.454 71.2532C117.459 71.8776 117.892 72.198 118.569 72.3601L119.437 72.575C119.818 72.6642 119.997 72.8426 119.997 73.1508C119.997 73.5887 119.62 73.7954 119.052 73.7954C118.521 73.7954 118.099 73.5441 117.994 73.0535H117.313C117.434 73.9576 118.18 74.355 119.056 74.355ZM122.849 74.355C123.449 74.355 123.964 74.1401 124.289 73.4873L124.345 74.2739H124.986V71.3465C124.986 70.4707 124.443 70.0004 123.352 70.0004C122.334 70.0004 121.71 70.4505 121.665 71.2654H122.326C122.428 70.7667 122.833 70.5559 123.316 70.5518C123.96 70.5518 124.26 70.8762 124.26 71.387V71.7155L123.514 71.7357C122.079 71.7682 121.467 72.2101 121.467 73.1386C121.467 73.9049 122.034 74.355 122.849 74.355ZM123.072 73.8157C122.557 73.8157 122.192 73.54 122.192 73.0656C122.192 72.4453 122.675 72.2061 123.64 72.1898L124.26 72.1777V72.8953C124.26 73.3616 123.636 73.8157 123.072 73.8157ZM127.927 75.6605C129.318 75.6605 129.991 75.1294 129.991 74.3671C129.991 73.6981 129.497 73.2846 128.621 73.2319C128.236 73.2075 127.919 73.1913 127.709 73.1791C127.125 73.1386 126.91 73.094 126.91 72.9399C126.91 72.8061 127.084 72.6764 127.66 72.6602C127.729 72.6642 127.846 72.6683 127.911 72.6683C129.083 72.6683 129.659 72.0844 129.659 71.3424C129.659 71.1641 129.606 70.9451 129.521 70.7708L130.255 70.6329L130.259 69.9396C130.032 70.0328 129.367 70.3085 129.188 70.3815C128.868 70.1504 128.528 70.0166 127.984 70.0166C126.845 70.0166 126.16 70.5275 126.16 71.3424C126.16 71.8249 126.448 72.2588 126.942 72.5061C126.448 72.6156 126.2 72.8548 126.2 73.1183C126.2 73.4427 126.488 73.5603 126.634 73.6454C126.529 73.7225 125.839 73.9536 125.839 74.5577C125.839 75.2672 126.614 75.6605 127.927 75.6605ZM127.936 72.1858C127.283 72.1858 126.91 71.8817 126.91 71.3506C126.91 70.787 127.319 70.4788 127.936 70.4788C128.536 70.4788 128.941 70.787 128.941 71.3506C128.941 71.902 128.536 72.1858 127.936 72.1858ZM128.061 75.178C127.052 75.178 126.585 74.9185 126.585 74.4725C126.585 74.0833 127.003 73.7873 127.319 73.8035L128.495 73.8806C129.006 73.913 129.261 74.1441 129.261 74.4766C129.261 74.9469 128.836 75.178 128.061 75.178ZM131.617 72.352H134.621V72.0763C134.621 70.8032 133.964 70.0004 132.785 70.0004C131.564 70.0004 130.859 70.8965 130.859 72.2182C130.859 73.5562 131.665 74.355 132.837 74.355C133.652 74.355 134.439 73.9049 134.593 73.0494H133.887C133.782 73.5238 133.36 73.7752 132.825 73.7752C132.01 73.7752 131.617 73.1467 131.617 72.352ZM131.621 71.8452C131.617 71.2208 131.99 70.568 132.78 70.568C133.539 70.568 133.9 71.1235 133.9 71.8452H131.621ZM139.347 75.6605C140.737 75.6605 141.41 75.1294 141.41 74.3671C141.41 73.6981 140.916 73.2846 140.04 73.2319C139.655 73.2075 139.339 73.1913 139.128 73.1791C138.544 73.1386 138.329 73.094 138.329 72.9399C138.329 72.8061 138.503 72.6764 139.079 72.6602C139.148 72.6642 139.266 72.6683 139.33 72.6683C140.502 72.6683 141.078 72.0844 141.078 71.3424C141.078 71.1641 141.025 70.9451 140.94 70.7708L141.674 70.6329L141.678 69.9396C141.451 70.0328 140.786 70.3085 140.608 70.3815C140.287 70.1504 139.947 70.0166 139.403 70.0166C138.264 70.0166 137.579 70.5275 137.579 71.3424C137.579 71.8249 137.867 72.2588 138.361 72.5061C137.867 72.6156 137.619 72.8548 137.619 73.1183C137.619 73.4427 137.907 73.5603 138.053 73.6454C137.948 73.7225 137.259 73.9536 137.259 74.5577C137.259 75.2672 138.033 75.6605 139.347 75.6605ZM139.355 72.1858C138.702 72.1858 138.329 71.8817 138.329 71.3506C138.329 70.787 138.738 70.4788 139.355 70.4788C139.955 70.4788 140.36 70.787 140.36 71.3506C140.36 71.902 139.955 72.1858 139.355 72.1858ZM139.48 75.178C138.471 75.178 138.005 74.9185 138.005 74.4725C138.005 74.0833 138.422 73.7873 138.738 73.8035L139.914 73.8806C140.425 73.913 140.681 74.1441 140.681 74.4766C140.681 74.9469 140.255 75.178 139.48 75.178ZM144.163 74.355C145.412 74.355 146.073 73.4751 146.073 72.1939C146.073 70.7829 145.323 70.0004 144.167 70.0004C142.927 70.0004 142.241 70.8802 142.241 72.1939C142.241 73.5927 142.999 74.355 144.163 74.355ZM144.167 73.763C143.328 73.763 142.987 73.0616 142.987 72.1777C142.987 71.1803 143.405 70.5883 144.167 70.5883C144.99 70.5883 145.331 71.2816 145.331 72.1777C145.331 73.1629 144.917 73.763 144.167 73.763ZM147.621 72.352H150.625V72.0763C150.625 70.8032 149.969 70.0004 148.789 70.0004C147.568 70.0004 146.863 70.8965 146.863 72.2182C146.863 73.5562 147.67 74.355 148.841 74.355C149.656 74.355 150.443 73.9049 150.597 73.0494H149.892C149.786 73.5238 149.365 73.7752 148.829 73.7752C148.014 73.7752 147.621 73.1467 147.621 72.352ZM147.625 71.8452C147.621 71.2208 147.994 70.568 148.785 70.568C149.543 70.568 149.904 71.1235 149.904 71.8452H147.625ZM153.139 74.355C154.161 74.355 154.753 73.8806 154.753 73.1102C154.753 72.6967 154.542 72.1858 153.772 71.9831L152.928 71.7722C152.466 71.6587 152.223 71.5087 152.223 71.2086C152.223 70.7627 152.592 70.5518 153.127 70.5518C153.646 70.5518 153.954 70.8032 154.011 71.2046H154.676C154.648 70.418 154.043 70.0004 153.135 70.0004C152.073 70.0004 151.534 70.5194 151.538 71.2532C151.542 71.8776 151.976 72.198 152.653 72.3601L153.52 72.575C153.902 72.6642 154.08 72.8426 154.08 73.1508C154.08 73.5887 153.703 73.7954 153.135 73.7954C152.604 73.7954 152.182 73.5441 152.077 73.0535H151.396C151.517 73.9576 152.264 74.355 153.139 74.355ZM157.681 74.2739H158.427V71.4762C158.427 70.9127 158.938 70.641 159.506 70.641C160.057 70.641 160.434 70.9289 160.434 71.4276V74.2739H161.184V71.2776C161.184 70.5113 160.54 70.0288 159.721 70.0288C159.047 70.0288 158.622 70.3531 158.411 70.6978V68.2489H157.681V74.2739ZM162.905 72.352H165.909V72.0763C165.909 70.8032 165.252 70.0004 164.072 70.0004C162.852 70.0004 162.147 70.8965 162.147 72.2182C162.147 73.5562 162.953 74.355 164.125 74.355C164.94 74.355 165.727 73.9049 165.881 73.0494H165.175C165.07 73.5238 164.648 73.7752 164.113 73.7752C163.298 73.7752 162.905 73.1467 162.905 72.352ZM162.909 71.8452C162.905 71.2208 163.278 70.568 164.068 70.568C164.827 70.568 165.187 71.1235 165.187 71.8452H162.909ZM166.946 74.2739H167.692V71.6668C167.692 70.9694 168.236 70.6856 168.905 70.7302C168.99 70.7302 169.14 70.7424 169.221 70.7789V70.0531C169.152 70.0166 169.022 70.0004 168.901 70.0004C168.369 70.0004 167.871 70.2842 167.66 70.8883V70.0815H166.946V74.2739ZM170.602 72.352H173.606V72.0763C173.606 70.8032 172.95 70.0004 171.77 70.0004C170.549 70.0004 169.844 70.8965 169.844 72.2182C169.844 73.5562 170.651 74.355 171.822 74.355C172.637 74.355 173.424 73.9049 173.578 73.0494H172.872C172.767 73.5238 172.345 73.7752 171.81 73.7752C170.995 73.7752 170.602 73.1467 170.602 72.352ZM170.606 71.8452C170.602 71.2208 170.975 70.568 171.766 70.568C172.524 70.568 172.885 71.1235 172.885 71.8452H170.606ZM174.469 74.2739H175.361V73.317H174.469V74.2739Z" fill="black"/>
<g filter="url(#filter0_d_454_440)">
<path d="M229.125 53.5C229.125 51.2608 230.941 49.4455 233.18 49.4455H292.316C294.555 49.4455 296.371 51.2608 296.371 53.5V66.5C296.371 68.7393 294.555 70.5545 292.316 70.5545H233.18C230.941 70.5545 229.125 68.7393 229.125 66.5V53.5Z" fill="#00284D"/>
<path d="M244.275 58.6989H241.995V56.4182C241.995 56.149 241.757 55.9114 241.488 55.9114H240.981C240.696 55.9114 240.474 56.149 240.474 56.4182V58.6989H238.193C237.908 58.6989 237.687 58.9365 237.687 59.2057V59.7125C237.687 59.9976 237.908 60.2193 238.193 60.2193H240.474V62.5C240.474 62.7851 240.696 63.0068 240.981 63.0068H241.488C241.757 63.0068 241.995 62.7851 241.995 62.5V60.2193H244.275C244.545 60.2193 244.782 59.9976 244.782 59.7125V59.2057C244.782 58.9365 244.545 58.6989 244.275 58.6989Z" fill="white"/>
<path d="M248.346 62.5H250.293C251.789 62.5 252.547 61.9851 252.547 60.9228C252.547 60.2619 252.239 59.7105 251.314 59.5118C252.117 59.228 252.401 58.7861 252.401 58.1657C252.401 57.1764 251.655 56.6372 250.232 56.6372H248.346V62.5ZM249.097 59.2158V57.2575H250.268C251.099 57.2575 251.675 57.5778 251.675 58.259C251.675 59.001 250.982 59.2158 250.374 59.2158H249.097ZM249.097 61.8756V59.8524H250.374C251.16 59.8524 251.785 60.1565 251.785 60.8904C251.785 61.5594 251.262 61.8756 250.285 61.8756H249.097ZM255.173 62.5811C255.765 62.5851 256.276 62.3257 256.43 61.6972L256.507 62.5H257.103V58.3076H256.357V61.0363C256.357 61.6729 255.948 61.9972 255.332 61.9972C254.646 61.9972 254.314 61.6242 254.314 61.0769V58.3076H253.564V61.1539C253.564 62.0986 254.302 62.573 255.173 62.5811ZM260.469 58.855V58.3036H259.525V57.0872H258.973L258.791 58.3076H258.089V58.855H258.77V61.4864C258.77 62.1594 259.002 62.5203 259.873 62.5203C260.177 62.5203 260.388 62.4919 260.494 62.4513V61.9486H260.035C259.642 61.9486 259.525 61.908 259.525 61.462V58.855H260.469ZM263.217 58.855V58.3036H262.272V57.0872H261.721L261.539 58.3076H260.837V58.855H261.518V61.4864C261.518 62.1594 261.749 62.5203 262.621 62.5203C262.925 62.5203 263.136 62.4919 263.241 62.4513V61.9486H262.783C262.39 61.9486 262.272 61.908 262.272 61.462V58.855H263.217ZM265.804 62.5811C267.053 62.5811 267.714 61.7013 267.714 60.42C267.714 59.0091 266.964 58.2265 265.808 58.2265C264.567 58.2265 263.882 59.1064 263.882 60.42C263.882 61.8188 264.64 62.5811 265.804 62.5811ZM265.808 61.9891C264.969 61.9891 264.628 61.2877 264.628 60.4038C264.628 59.4064 265.046 58.8144 265.808 58.8144C266.631 58.8144 266.972 59.5078 266.972 60.4038C266.972 61.3891 266.558 61.9891 265.808 61.9891ZM268.71 62.5H269.456V59.6983C269.456 59.1348 269.975 58.8672 270.543 58.8672C271.09 58.8672 271.468 59.1794 271.468 59.8321V62.5H272.218V59.7591C272.218 58.705 271.545 58.2468 270.75 58.2468C270.077 58.2468 269.643 58.5671 269.436 58.9158V58.3076H268.71V62.5ZM272.038 57.3264H273.932V62.5H274.686V57.3264H276.474V56.6372H272.038V57.3264ZM277.276 60.5782H280.28V60.3025C280.28 59.0293 279.623 58.2265 278.444 58.2265C277.223 58.2265 276.518 59.1226 276.518 60.4444C276.518 61.7824 277.325 62.5811 278.496 62.5811C279.311 62.5811 280.098 62.131 280.252 61.2755H279.546C279.441 61.7499 279.019 62.0013 278.484 62.0013C277.669 62.0013 277.276 61.3728 277.276 60.5782ZM277.28 60.0713C277.276 59.4469 277.649 58.7942 278.44 58.7942C279.198 58.7942 279.559 59.3496 279.559 60.0713H277.28ZM284.734 62.5L283.12 60.3227L284.613 58.3076H283.794L282.703 59.7794L281.612 58.3076H280.797L282.281 60.3227L280.667 62.5H281.486L282.699 60.8579L283.919 62.5H284.734ZM287.552 58.855V58.3036H286.607V57.0872H286.056L285.874 58.3076H285.172V58.855H285.853V61.4864C285.853 62.1594 286.084 62.5203 286.956 62.5203C287.26 62.5203 287.471 62.4919 287.577 62.4513V61.9486H287.118C286.725 61.9486 286.607 61.908 286.607 61.462V58.855H287.552Z" fill="white"/>
</g>
</g>
<g style="mix-blend-mode:color">
<rect width="320" height="120" fill="#808080"/>
</g>
<g style="mix-blend-mode:color">
<rect width="320" height="120" fill="#00284D"/>
</g>
<defs>
<filter id="filter0_d_454_440" x="229.125" y="49.4455" width="67.2454" height="23.109" filterUnits="userSpaceOnUse" color-interpolation-filters="sRGB">
<feFlood flood-opacity="0" result="BackgroundImageFix"/>
<feColorMatrix in="SourceAlpha" type="matrix" values="0 0 0 0 0 0 0 0 0 0 0 0 0 0 0 0 0 0 127 0" result="hardAlpha"/>
<feOffset dy="2"/>
<feColorMatrix type="matrix" values="0 0 0 0 0.423529 0 0 0 0 0.458824 0 0 0 0 0.490196 0 0 0 0.35 0"/>
<feBlend mode="normal" in2="BackgroundImageFix" result="effect1_dropShadow_454_440"/>
<feBlend mode="normal" in="SourceGraphic" in2="effect1_dropShadow_454_440" result="shape"/>
</filter>
<clipPath id="clip0_454_440">
<rect width="290" height="68.1208" fill="white" transform="translate(16 26)"/>
</clipPath>
</defs>
</svg>
