<svg width="320" height="120" viewBox="0 0 320 120" fill="none" xmlns="http://www.w3.org/2000/svg">
<rect width="320" height="120" fill="#C0CEDB"/>
<rect opacity="0.5" width="320" height="120" fill="#00284D"/>
<path d="M88 13C88 10.7909 89.7909 9 92 9H228.97C231.179 9 232.97 10.7909 232.97 13V107.514C232.97 109.723 231.179 111.514 228.97 111.514H92C89.7909 111.514 88 109.723 88 107.514V13Z" fill="#F8F9FA"/>
<g filter="url(#filter0_d)">
<path d="M151.58 87.6095C151.58 85.322 153.435 83.4675 155.722 83.4675H190.006C192.294 83.4675 194.148 85.322 194.148 87.6095V100.61C194.148 102.897 192.294 104.752 190.006 104.752H155.722C153.435 104.752 151.58 102.897 151.58 100.61V87.6095Z" fill="#00284D"/>
<path d="M160.784 96.6095H162.772C164.301 96.6095 165.075 96.0835 165.075 94.9983C165.075 94.3231 164.761 93.7598 163.816 93.5568C164.636 93.2669 164.926 92.8154 164.926 92.1817C164.926 91.1711 164.164 90.6202 162.71 90.6202H160.784V96.6095ZM161.55 93.2545V91.2539H162.748C163.597 91.2539 164.185 91.5811 164.185 92.277C164.185 93.035 163.477 93.2545 162.855 93.2545H161.55ZM161.55 95.9716V93.9048H162.855C163.659 93.9048 164.297 94.2154 164.297 94.9651C164.297 95.6486 163.762 95.9716 162.764 95.9716H161.55ZM167.758 96.6923C168.363 96.6965 168.885 96.4314 169.043 95.7894L169.121 96.6095H169.73V92.3267H168.968V95.1142C168.968 95.7645 168.55 96.0959 167.92 96.0959C167.22 96.0959 166.88 95.7148 166.88 95.1557V92.3267H166.114V95.2344C166.114 96.1994 166.868 96.6841 167.758 96.6923ZM173.169 92.8858V92.3225H172.203V91.0799H171.64L171.454 92.3267H170.737V92.8858H171.433V95.574C171.433 96.2616 171.669 96.6302 172.56 96.6302C172.87 96.6302 173.086 96.6012 173.193 96.5598V96.0462H172.725C172.324 96.0462 172.203 96.0048 172.203 95.5491V92.8858H173.169ZM175.976 92.8858V92.3225H175.011V91.0799H174.447L174.261 92.3267H173.544V92.8858H174.24V95.574C174.24 96.2616 174.476 96.6302 175.367 96.6302C175.678 96.6302 175.893 96.6012 176.001 96.5598V96.0462H175.533C175.131 96.0462 175.011 96.0048 175.011 95.5491V92.8858H175.976ZM178.618 96.6923C179.894 96.6923 180.569 95.7935 180.569 94.4847C180.569 93.0432 179.803 92.2438 178.622 92.2438C177.355 92.2438 176.655 93.1427 176.655 94.4847C176.655 95.9136 177.43 96.6923 178.618 96.6923ZM178.622 96.0876C177.765 96.0876 177.417 95.371 177.417 94.4681C177.417 93.4492 177.844 92.8444 178.622 92.8444C179.463 92.8444 179.811 93.5527 179.811 94.4681C179.811 95.4746 179.389 96.0876 178.622 96.0876ZM181.588 96.6095H182.35V93.7474C182.35 93.1716 182.88 92.8983 183.46 92.8983C184.019 92.8983 184.404 93.2172 184.404 93.8841V96.6095H185.17V93.8095C185.17 92.7326 184.483 92.2645 183.671 92.2645C182.983 92.2645 182.54 92.5918 182.329 92.948V92.3267H181.588V96.6095Z" fill="white"/>
</g>
<g filter="url(#filter1_d)">
<path d="M198.29 87.6095C198.29 85.322 200.144 83.4675 202.432 83.4675H224.716C227.004 83.4675 228.858 85.322 228.858 87.6095V100.61C228.858 102.897 227.004 104.752 224.716 104.752H202.432C200.144 104.752 198.29 102.897 198.29 100.61V87.6095Z" fill="#6C757D"/>
<path d="M207.586 96.6095H209.574C211.102 96.6095 211.877 96.0835 211.877 94.9983C211.877 94.3231 211.562 93.7598 210.618 93.5568C211.438 93.2669 211.728 92.8154 211.728 92.1817C211.728 91.1711 210.966 90.6202 209.512 90.6202H207.586V96.6095ZM208.352 93.2545V91.2539H209.549C210.398 91.2539 210.986 91.5811 210.986 92.277C210.986 93.035 210.278 93.2545 209.657 93.2545H208.352ZM208.352 95.9716V93.9048H209.657C210.46 93.9048 211.098 94.2154 211.098 94.9651C211.098 95.6486 210.564 95.9716 209.566 95.9716H208.352ZM215.165 92.8858V92.3225H214.2V91.0799H213.636L213.45 92.3267H212.733V92.8858H213.429V95.574C213.429 96.2616 213.665 96.6302 214.556 96.6302C214.867 96.6302 215.082 96.6012 215.19 96.5598V96.0462H214.722C214.32 96.0462 214.2 96.0048 214.2 95.5491V92.8858H215.165ZM216.206 96.6095H216.968V93.7474C216.968 93.1716 217.498 92.8983 218.078 92.8983C218.637 92.8983 219.022 93.2172 219.022 93.8841V96.6095H219.789V93.8095C219.789 92.7326 219.101 92.2645 218.289 92.2645C217.602 92.2645 217.159 92.5918 216.947 92.948V92.3267H216.206V96.6095Z" fill="white"/>
</g>
<rect opacity="0.25" x="89.0355" y="75.2398" width="142.929" height="0.517753" fill="#C0CDD9"/>
<path d="M97.0751 51.6891H97.862V46.8927L99.5851 51.6891H100.302L102.037 46.8472V51.6891H102.828V45.6998H101.772L99.9413 50.6454L98.1354 45.6998H97.0751V51.6891ZM105.913 51.772C107.189 51.772 107.864 50.8732 107.864 49.5643C107.864 48.1229 107.098 47.3235 105.917 47.3235C104.65 47.3235 103.95 48.2223 103.95 49.5643C103.95 50.9933 104.725 51.772 105.913 51.772ZM105.917 51.1673C105.06 51.1673 104.712 50.4507 104.712 49.5477C104.712 48.5288 105.139 47.9241 105.917 47.9241C106.758 47.9241 107.106 48.6324 107.106 49.5477C107.106 50.5542 106.684 51.1673 105.917 51.1673ZM110.444 51.772C111.446 51.772 111.782 51.1465 111.89 50.811L111.972 51.6891H112.561V45.5341H111.786V48.0856C111.649 47.8081 111.202 47.3235 110.382 47.3235C109.222 47.3235 108.634 48.1974 108.634 49.5312C108.634 50.9974 109.33 51.772 110.444 51.772ZM110.581 51.1838C109.81 51.1838 109.404 50.5667 109.404 49.4939C109.404 48.3963 109.889 47.9199 110.593 47.9199C111.446 47.9199 111.778 48.4915 111.786 49.4939C111.786 50.6909 111.446 51.1838 110.581 51.1838ZM115.027 51.772C115.64 51.772 116.166 51.5525 116.497 50.8856L116.555 51.6891H117.209V48.6986C117.209 47.804 116.654 47.3235 115.54 47.3235C114.501 47.3235 113.863 47.7833 113.817 48.6158H114.492C114.596 48.1063 115.01 47.8909 115.503 47.8868C116.161 47.8868 116.468 48.2182 116.468 48.7401V49.0756L115.706 49.0963C114.24 49.1294 113.614 49.5809 113.614 50.5294C113.614 51.3122 114.194 51.772 115.027 51.772ZM115.254 51.2211C114.728 51.2211 114.356 50.9394 114.356 50.4548C114.356 49.8211 114.848 49.5767 115.834 49.5602L116.468 49.5477V50.2809C116.468 50.7572 115.83 51.2211 115.254 51.2211ZM119.485 51.743C119.593 51.743 119.742 51.7181 119.871 51.6767V51.1797L119.639 51.1755C119.336 51.1548 119.158 50.9477 119.158 50.5128V45.5341H118.404V50.5874C118.404 51.188 118.562 51.743 119.485 51.743ZM125.043 51.772C126.248 51.772 126.853 50.8815 126.853 49.5312C126.853 48.0773 126.17 47.3235 125.101 47.3235C124.285 47.3235 123.838 47.8081 123.697 48.0856V45.5341H122.926V51.6891H123.51L123.593 50.811C123.701 51.1465 124.041 51.772 125.043 51.772ZM124.906 51.1838C124.041 51.1838 123.697 50.6909 123.697 49.4939C123.709 48.4915 124.041 47.9199 124.89 47.9199C125.668 47.9199 126.083 48.4957 126.083 49.4939C126.083 50.6702 125.598 51.1838 124.906 51.1838ZM129.584 51.772C130.86 51.772 131.535 50.8732 131.535 49.5643C131.535 48.1229 130.769 47.3235 129.588 47.3235C128.321 47.3235 127.621 48.2223 127.621 49.5643C127.621 50.9933 128.395 51.772 129.584 51.772ZM129.588 51.1673C128.731 51.1673 128.383 50.4507 128.383 49.5477C128.383 48.5288 128.81 47.9241 129.588 47.9241C130.429 47.9241 130.777 48.6324 130.777 49.5477C130.777 50.5542 130.355 51.1673 129.588 51.1673ZM134.115 51.772C135.117 51.772 135.453 51.1465 135.56 50.811L135.643 51.6891H136.231V45.5341H135.457V48.0856C135.32 47.8081 134.873 47.3235 134.053 47.3235C132.893 47.3235 132.305 48.1974 132.305 49.5312C132.305 50.9974 133.001 51.772 134.115 51.772ZM134.252 51.1838C133.481 51.1838 133.075 50.5667 133.075 49.4939C133.075 48.3963 133.56 47.9199 134.264 47.9199C135.117 47.9199 135.449 48.4915 135.457 49.4939C135.457 50.6909 135.117 51.1838 134.252 51.1838ZM137.923 53.056C138.515 53.056 138.962 52.8282 139.298 52.0122L141.1 47.4063H140.35L139.095 50.7116L137.832 47.4063H137.057L138.731 51.5856L138.581 51.9915C138.494 52.2028 138.341 52.4844 137.703 52.4596L137.264 52.4513V52.9483C137.264 52.9483 137.422 53.056 137.923 53.056ZM146.09 47.9655V47.4022H145.125V46.1596H144.562L144.375 47.4063H143.659V47.9655H144.355V50.6537C144.355 51.3412 144.591 51.7099 145.481 51.7099C145.792 51.7099 146.007 51.6809 146.115 51.6394V51.1258H145.647C145.245 51.1258 145.125 51.0844 145.125 50.6288V47.9655H146.09ZM147.581 49.7258H150.65V49.4442C150.65 48.1436 149.979 47.3235 148.774 47.3235C147.527 47.3235 146.807 48.2389 146.807 49.5892C146.807 50.956 147.631 51.772 148.828 51.772C149.661 51.772 150.464 51.3122 150.621 50.4383H149.901C149.793 50.9229 149.362 51.1797 148.816 51.1797C147.983 51.1797 147.581 50.5377 147.581 49.7258ZM147.585 49.2081C147.581 48.5702 147.962 47.9034 148.77 47.9034C149.545 47.9034 149.913 48.4708 149.913 49.2081H147.585ZM155.2 51.6891L153.552 49.4649L155.076 47.4063H154.24L153.125 48.9099L152.011 47.4063H151.179L152.695 49.4649L151.046 51.6891H151.883L153.121 50.0116L154.368 51.6891H155.2ZM158.079 47.9655V47.4022H157.114V46.1596H156.551L156.364 47.4063H155.648V47.9655H156.344V50.6537C156.344 51.3412 156.58 51.7099 157.47 51.7099C157.781 51.7099 157.996 51.6809 158.104 51.6394V51.1258H157.636C157.234 51.1258 157.114 51.0844 157.114 50.6288V47.9655H158.079ZM162.945 53.1057C164.365 53.1057 165.053 52.5631 165.053 51.7844C165.053 51.101 164.548 50.6785 163.653 50.6247C163.26 50.5998 162.936 50.5832 162.721 50.5708C162.125 50.5294 161.905 50.4838 161.905 50.3264C161.905 50.1897 162.083 50.0572 162.671 50.0406C162.742 50.0448 162.862 50.0489 162.928 50.0489C164.125 50.0489 164.713 49.4525 164.713 48.6945C164.713 48.5122 164.66 48.2886 164.573 48.1105L165.322 47.9696L165.326 47.2614C165.094 47.3566 164.415 47.6383 164.233 47.7128C163.906 47.4767 163.558 47.3401 163.003 47.3401C161.839 47.3401 161.139 47.8619 161.139 48.6945C161.139 49.1874 161.433 49.6306 161.938 49.8832C161.433 49.9951 161.18 50.2395 161.18 50.5087C161.18 50.84 161.474 50.9602 161.623 51.0471C161.516 51.1258 160.812 51.3619 160.812 51.9791C160.812 52.7039 161.603 53.1057 162.945 53.1057ZM162.953 49.556C162.286 49.556 161.905 49.2454 161.905 48.7028C161.905 48.127 162.323 47.8122 162.953 47.8122C163.566 47.8122 163.98 48.127 163.98 48.7028C163.98 49.2661 163.566 49.556 162.953 49.556ZM163.081 52.6128C162.05 52.6128 161.574 52.3477 161.574 51.8921C161.574 51.4945 162 51.1921 162.323 51.2087L163.525 51.2874C164.047 51.3205 164.307 51.5566 164.307 51.8962C164.307 52.3767 163.873 52.6128 163.081 52.6128ZM167.865 51.772C169.141 51.772 169.816 50.8732 169.816 49.5643C169.816 48.1229 169.05 47.3235 167.869 47.3235C166.602 47.3235 165.902 48.2223 165.902 49.5643C165.902 50.9933 166.676 51.772 167.865 51.772ZM167.869 51.1673C167.012 51.1673 166.664 50.4507 166.664 49.5477C166.664 48.5288 167.091 47.9241 167.869 47.9241C168.71 47.9241 169.058 48.6324 169.058 49.5477C169.058 50.5542 168.636 51.1673 167.869 51.1673ZM171.398 49.7258H174.467V49.4442C174.467 48.1436 173.796 47.3235 172.591 47.3235C171.344 47.3235 170.623 48.2389 170.623 49.5892C170.623 50.956 171.447 51.772 172.644 51.772C173.477 51.772 174.281 51.3122 174.438 50.4383H173.717C173.61 50.9229 173.179 51.1797 172.632 51.1797C171.799 51.1797 171.398 50.5377 171.398 49.7258ZM171.402 49.2081C171.398 48.5702 171.779 47.9034 172.586 47.9034C173.361 47.9034 173.73 48.4708 173.73 49.2081H171.402ZM177.035 51.772C178.079 51.772 178.683 51.2874 178.683 50.5004C178.683 50.0779 178.468 49.556 177.681 49.3489L176.82 49.1335C176.347 49.0176 176.099 48.8643 176.099 48.5578C176.099 48.1022 176.476 47.8868 177.023 47.8868C177.553 47.8868 177.868 48.1436 177.925 48.5537H178.605C178.576 47.7501 177.959 47.3235 177.031 47.3235C175.946 47.3235 175.395 47.8537 175.399 48.6034C175.403 49.2412 175.846 49.5684 176.538 49.7341L177.424 49.9537C177.814 50.0448 177.996 50.227 177.996 50.5418C177.996 50.9892 177.611 51.2004 177.031 51.2004C176.488 51.2004 176.057 50.9436 175.95 50.4424H175.254C175.378 51.3661 176.14 51.772 177.035 51.772ZM181.675 51.6891H182.437V48.8312C182.437 48.2554 182.959 47.9779 183.539 47.9779C184.102 47.9779 184.487 48.272 184.487 48.7815V51.6891H185.253V48.6282C185.253 47.8454 184.595 47.3525 183.758 47.3525C183.071 47.3525 182.636 47.6838 182.42 48.0359V45.5341H181.675V51.6891ZM187.011 49.7258H190.08V49.4442C190.08 48.1436 189.409 47.3235 188.204 47.3235C186.957 47.3235 186.237 48.2389 186.237 49.5892C186.237 50.956 187.061 51.772 188.258 51.772C189.09 51.772 189.894 51.3122 190.051 50.4383H189.331C189.223 50.9229 188.792 51.1797 188.245 51.1797C187.413 51.1797 187.011 50.5377 187.011 49.7258ZM187.015 49.2081C187.011 48.5702 187.392 47.9034 188.2 47.9034C188.974 47.9034 189.343 48.4708 189.343 49.2081H187.015ZM191.14 51.6891H191.902V49.0258C191.902 48.3134 192.457 48.0235 193.14 48.069C193.227 48.069 193.381 48.0815 193.464 48.1188V47.3773C193.393 47.3401 193.261 47.3235 193.136 47.3235C192.594 47.3235 192.084 47.6134 191.869 48.2306V47.4063H191.14V51.6891ZM194.874 49.7258H197.944V49.4442C197.944 48.1436 197.273 47.3235 196.067 47.3235C194.821 47.3235 194.1 48.2389 194.1 49.5892C194.1 50.956 194.924 51.772 196.121 51.772C196.954 51.772 197.757 51.3122 197.915 50.4383H197.194C197.086 50.9229 196.655 51.1797 196.109 51.1797C195.276 51.1797 194.874 50.5377 194.874 49.7258ZM194.879 49.2081C194.874 48.5702 195.255 47.9034 196.063 47.9034C196.838 47.9034 197.206 48.4708 197.206 49.2081H194.879ZM198.825 51.6891H199.736V50.7116H198.825V51.6891Z" fill="black"/>
<rect opacity="0.25" x="89.0355" y="34.8875" width="142.929" height="0.517749" fill="#C0CDD9"/>
<path d="M221.9 21.4593L224.125 19.2346C224.414 18.9676 224.414 18.5227 224.125 18.2557L223.636 17.7663C223.369 17.4771 222.924 17.4771 222.657 17.7663L220.432 19.991L218.185 17.7663C217.918 17.4771 217.473 17.4771 217.206 17.7663L216.717 18.2557C216.428 18.5227 216.428 18.9676 216.717 19.2346L218.942 21.4593L216.717 23.7062C216.428 23.9732 216.428 24.4181 216.717 24.6851L217.206 25.1745C217.473 25.4637 217.918 25.4637 218.185 25.1745L220.432 22.9498L222.657 25.1745C222.924 25.4637 223.369 25.4637 223.636 25.1745L224.125 24.6851C224.414 24.4181 224.414 23.9732 224.125 23.7062L221.9 21.4593Z" fill="#6C757D"/>
<path d="M109.74 25.7307H110.579V19.6523L112.831 25.7307H113.644L115.917 19.5902V25.7307H116.756V18.2441H115.679L113.235 24.659L110.828 18.2441H109.74V25.7307ZM120.666 25.8343C122.25 25.8343 123.063 24.7159 123.063 23.0747C123.063 21.2418 122.115 20.2736 120.666 20.2736C119.081 20.2736 118.248 21.392 118.248 23.0747C118.248 24.8868 119.205 25.8343 120.666 25.8343ZM120.666 25.1819C119.537 25.1819 119.055 24.2707 119.055 23.054C119.055 21.6819 119.651 20.926 120.666 20.926C121.779 20.926 122.255 21.8321 122.255 23.054C122.255 24.4156 121.67 25.1819 120.666 25.1819ZM126.325 25.8343C127.634 25.8343 128.043 25.0059 128.163 24.6331L128.245 25.7307H128.882V18.037H128.069V21.2574C127.914 20.9415 127.365 20.2736 126.273 20.2736C124.802 20.2736 124.072 21.3661 124.072 23.0332C124.072 24.8868 124.947 25.8343 126.325 25.8343ZM126.454 25.1923C125.418 25.1923 124.89 24.3587 124.89 22.9815C124.89 21.5577 125.538 20.9208 126.475 20.9208C127.624 20.9208 128.054 21.6871 128.069 22.9815C128.069 24.5399 127.624 25.1923 126.454 25.1923ZM132.022 25.8343C132.794 25.8343 133.482 25.5495 133.912 24.7004L133.969 25.7307H134.663V22.0029C134.663 20.8639 133.948 20.2736 132.623 20.2736C131.339 20.2736 130.583 20.8587 130.526 21.8631H131.261C131.386 21.1901 131.924 20.8949 132.587 20.8949C133.467 20.8898 133.881 21.3402 133.881 22.0392V22.4844L132.851 22.5155C131.033 22.5621 130.267 23.1109 130.267 24.3017C130.267 25.2647 130.976 25.8343 132.022 25.8343ZM132.25 25.2285C131.546 25.2285 131.059 24.8557 131.059 24.2292C131.059 23.3957 131.66 23.0643 133.022 23.0436L133.881 23.0281V23.9807C133.881 24.6072 133.011 25.2285 132.25 25.2285ZM137.488 25.7877C137.607 25.7877 137.783 25.7618 137.933 25.7152V25.1871L137.633 25.1819C137.275 25.1612 137.032 24.9023 137.032 24.3173V18.037H136.235V24.3846C136.235 25.1353 136.457 25.7877 137.488 25.7877ZM144.446 20.983V20.372H143.234V18.8343H142.634L142.442 20.3772H141.552V20.983H142.422V24.4622C142.422 25.3217 142.701 25.7514 143.726 25.7514C144.084 25.7514 144.348 25.7204 144.482 25.6686V25.1094H143.933C143.385 25.1094 143.234 25.0576 143.234 24.4363V20.983H144.446ZM146.66 18.2492H145.811V19.1398H146.66V18.2492ZM146.634 20.3772H145.847V25.7307H146.634V20.3772ZM150.908 20.983V20.372H149.696V18.8343H149.096L148.904 20.3772H148.013V20.983H148.883V24.4622C148.883 25.3217 149.163 25.7514 150.188 25.7514C150.545 25.7514 150.809 25.7204 150.944 25.6686V25.1094H150.395C149.846 25.1094 149.696 25.0576 149.696 24.4363V20.983H150.908ZM153.526 25.7877C153.645 25.7877 153.821 25.7618 153.971 25.7152V25.1871L153.671 25.1819C153.314 25.1612 153.07 24.9023 153.07 24.3173V18.037H152.273V24.3846C152.273 25.1353 152.495 25.7877 153.526 25.7877ZM155.648 23.2403H159.547V22.909C159.547 21.2781 158.718 20.2736 157.243 20.2736C155.705 20.2736 154.82 21.392 154.82 23.1057C154.82 24.8247 155.835 25.8343 157.31 25.8343C158.33 25.8343 159.303 25.2803 159.505 24.2034H158.729C158.594 24.835 158.025 25.1871 157.295 25.1871C156.171 25.1871 155.643 24.3121 155.648 23.2403ZM155.653 22.6656C155.643 21.8114 156.145 20.9053 157.232 20.9053C158.268 20.9053 158.76 21.6716 158.76 22.6656H155.653Z" fill="#00284D"/>
<path d="M101.284 27.1545C102.063 27.1545 102.685 26.5316 102.685 25.7307H99.8601C99.8601 26.5316 100.483 27.1545 101.284 27.1545ZM106.067 23.8397C105.644 23.3725 104.821 22.6829 104.821 20.3914C104.821 18.6784 103.62 17.2991 101.974 16.9431V16.476C101.974 16.0978 101.662 15.764 101.284 15.764C100.883 15.764 100.572 16.0978 100.572 16.476V16.9431C98.9258 17.2991 97.7244 18.6784 97.7244 20.3914C97.7244 22.6829 96.9013 23.3725 96.4786 23.8397C96.3451 23.9732 96.2784 24.1512 96.3006 24.3069C96.3006 24.6851 96.5676 25.0188 97.0125 25.0188H105.533C105.978 25.0188 106.245 24.6851 106.267 24.3069C106.267 24.1512 106.201 23.9732 106.067 23.8397Z" fill="#C0CEDB"/>
<path d="M92 11H228.97V7H92V11ZM230.97 13V107.514H234.97V13H230.97ZM228.97 109.514H92V113.514H228.97V109.514ZM90 107.514V13H86V107.514H90ZM92 109.514C90.8954 109.514 90 108.619 90 107.514H86C86 110.828 88.6863 113.514 92 113.514V109.514ZM230.97 107.514C230.97 108.619 230.074 109.514 228.97 109.514V113.514C232.283 113.514 234.97 110.828 234.97 107.514H230.97ZM228.97 11C230.074 11 230.97 11.8954 230.97 13H234.97C234.97 9.68629 232.283 7 228.97 7V11ZM92 7C88.6863 7 86 9.6863 86 13H90C90 11.8954 90.8954 11 92 11V7Z" fill="#00284D"/>
<g style="mix-blend-mode:color">
<rect width="320" height="120" fill="#808080"/>
</g>
<g style="mix-blend-mode:color">
<rect width="320" height="120" fill="#00284D"/>
</g>
<defs>
<filter id="filter0_d" x="151.58" y="83.4675" width="42.568" height="23.284" filterUnits="userSpaceOnUse" color-interpolation-filters="sRGB">
<feFlood flood-opacity="0" result="BackgroundImageFix"/>
<feColorMatrix in="SourceAlpha" type="matrix" values="0 0 0 0 0 0 0 0 0 0 0 0 0 0 0 0 0 0 127 0"/>
<feOffset dy="2"/>
<feColorMatrix type="matrix" values="0 0 0 0 0.423529 0 0 0 0 0.458824 0 0 0 0 0.490196 0 0 0 0.35 0"/>
<feBlend mode="normal" in2="BackgroundImageFix" result="effect1_dropShadow"/>
<feBlend mode="normal" in="SourceGraphic" in2="effect1_dropShadow" result="shape"/>
</filter>
<filter id="filter1_d" x="198.29" y="83.4675" width="30.568" height="23.284" filterUnits="userSpaceOnUse" color-interpolation-filters="sRGB">
<feFlood flood-opacity="0" result="BackgroundImageFix"/>
<feColorMatrix in="SourceAlpha" type="matrix" values="0 0 0 0 0 0 0 0 0 0 0 0 0 0 0 0 0 0 127 0"/>
<feOffset dy="2"/>
<feColorMatrix type="matrix" values="0 0 0 0 0.423529 0 0 0 0 0.458824 0 0 0 0 0.490196 0 0 0 0.35 0"/>
<feBlend mode="normal" in2="BackgroundImageFix" result="effect1_dropShadow"/>
<feBlend mode="normal" in="SourceGraphic" in2="effect1_dropShadow" result="shape"/>
</filter>
</defs>
</svg>
