<svg width="320" height="120" viewBox="0 0 320 120" fill="none" xmlns="http://www.w3.org/2000/svg">
<rect width="320" height="120" fill="#C0CEDB"/>
<g clip-path="url(#clip0)">
<rect width="200" height="99.1948" transform="translate(60 10)" fill="#00284D"/>
<rect opacity="0.5" x="66.4412" y="80.8535" width="187.118" height="1.28824" fill="#00203E"/>
<path d="M214.685 93.0779V96.8035H215.442V95.2576H216.98V94.6419H215.442V93.7066H217.217L217.22 93.0779H214.685ZM218.28 95.6441H220.071V95.4406C220.071 94.6419 219.643 94.0879 218.829 94.0879C218.012 94.0879 217.536 94.7011 217.536 95.5024C217.536 96.3295 218.077 96.8551 218.868 96.8551C219.422 96.8551 219.978 96.5278 220.068 95.9584H219.391C219.314 96.2084 219.107 96.3114 218.85 96.3114C218.489 96.3114 218.278 96.0512 218.28 95.6441ZM218.28 95.1958C218.278 94.9021 218.481 94.6135 218.827 94.6135C219.19 94.6135 219.368 94.8737 219.368 95.1958H218.28ZM221.389 96.8551C221.762 96.8551 222.033 96.7314 222.216 96.3449L222.278 96.8035H222.906V94.9304C222.906 94.4074 222.595 94.0879 221.78 94.0879C221.113 94.0879 220.631 94.3559 220.603 94.933H221.229C221.304 94.6882 221.525 94.5981 221.744 94.5955C222.046 94.5929 222.185 94.7295 222.185 94.9742V95.134L221.85 95.1391C220.91 95.1494 220.49 95.4586 220.49 96.0409C220.49 96.5613 220.881 96.8551 221.389 96.8551ZM221.644 96.3604C221.397 96.3604 221.203 96.2135 221.203 95.9662C221.203 95.6415 221.538 95.5307 221.914 95.5256L222.185 95.5204V95.9146C222.182 96.1439 221.914 96.3604 221.644 96.3604ZM225.034 94.6625V94.1369H224.441V93.3356H223.905L223.715 94.1394H223.258V94.6625H223.691V96.113C223.691 96.5407 223.872 96.8319 224.575 96.8319C224.835 96.8319 224.969 96.7984 225.041 96.7675V96.3037H224.683C224.518 96.3037 224.446 96.2779 224.446 96.0821L224.441 94.6625H225.034ZM226.526 96.8551C226.84 96.8576 227.217 96.7417 227.312 96.2753L227.4 96.8035H227.966V94.1394H227.222V95.8734C227.222 96.1491 227.034 96.3088 226.74 96.3088C226.428 96.3088 226.263 96.1336 226.263 95.8863V94.1394H225.511V95.9816C225.511 96.5485 226.037 96.8525 226.526 96.8551ZM228.624 96.8035H229.377V95.3452C229.377 94.9871 229.603 94.7501 230.196 94.8016C230.232 94.8042 230.278 94.8067 230.309 94.8196V94.1034C230.289 94.0931 230.242 94.0879 230.193 94.0879C229.773 94.0879 229.474 94.3636 229.348 94.7707V94.1394H228.624V96.8035ZM231.379 95.6441H233.17V95.4406C233.17 94.6419 232.742 94.0879 231.928 94.0879C231.111 94.0879 230.635 94.7011 230.635 95.5024C230.635 96.3295 231.176 96.8551 231.967 96.8551C232.521 96.8551 233.077 96.5278 233.167 95.9584H232.49C232.412 96.2084 232.206 96.3114 231.949 96.3114C231.588 96.3114 231.377 96.0512 231.379 95.6441ZM231.379 95.1958C231.377 94.9021 231.58 94.6135 231.925 94.6135C232.289 94.6135 232.466 94.8737 232.466 95.1958H231.379ZM234.719 96.8551C235.245 96.8551 235.477 96.551 235.572 96.2573L235.657 96.8035H236.203V92.9749H235.448V94.5001C235.32 94.2734 235.026 94.0879 234.644 94.0879C233.959 94.0879 233.586 94.6212 233.586 95.456C233.586 96.3372 234.003 96.8551 234.719 96.8551ZM234.884 96.314C234.539 96.314 234.32 96.0383 234.32 95.4457C234.32 94.8609 234.562 94.6341 234.889 94.6341C235.263 94.6341 235.443 94.9021 235.448 95.4457C235.448 96.0744 235.263 96.314 234.884 96.314ZM238.105 93.0779V96.8035H240.48V96.1671H238.862V93.0779H238.105ZM241.715 93.0805H240.983V93.7581H241.715V93.0805ZM241.71 94.1394H240.991V96.8035H241.71V94.1394ZM242.372 96.8035H243.125V95.0979C243.125 94.8377 243.374 94.7063 243.622 94.7063C243.867 94.7063 244.065 94.8505 244.065 95.1391V96.8035H244.817V95.0464C244.817 94.3868 244.372 94.1162 243.885 94.1162C243.465 94.1162 243.233 94.3224 243.112 94.5156V94.1394H242.372V96.8035ZM248.001 96.8035L246.998 95.201L247.967 94.1394H247.158L246.179 95.2448V92.9749H245.427V96.8035H246.179V96.0306L246.532 95.6544L247.251 96.8035H248.001Z" fill="#FE9903"/>
<path d="M165.409 93.0779V96.8035H166.167V95.2576H167.705V94.6419H166.167V93.7066H167.942L167.945 93.0779H165.409ZM169.005 95.6441H170.796V95.4406C170.796 94.6419 170.368 94.0879 169.554 94.0879C168.737 94.0879 168.26 94.7011 168.26 95.5024C168.26 96.3295 168.801 96.8551 169.592 96.8551C170.146 96.8551 170.703 96.5278 170.793 95.9584H170.115C170.038 96.2084 169.832 96.3114 169.574 96.3114C169.214 96.3114 169.002 96.0512 169.005 95.6441ZM169.005 95.1958C169.002 94.9021 169.206 94.6135 169.551 94.6135C169.914 94.6135 170.092 94.8737 170.092 95.1958H169.005ZM172.113 96.8551C172.487 96.8551 172.758 96.7314 172.94 96.3449L173.002 96.8035H173.631V94.9304C173.631 94.4074 173.319 94.0879 172.505 94.0879C171.838 94.0879 171.356 94.3559 171.328 94.933H171.954C172.028 94.6882 172.25 94.5981 172.469 94.5955C172.77 94.5929 172.91 94.7295 172.91 94.9742V95.134L172.575 95.1391C171.634 95.1494 171.214 95.4586 171.214 96.0409C171.214 96.5613 171.606 96.8551 172.113 96.8551ZM172.369 96.3604C172.121 96.3604 171.928 96.2135 171.928 95.9662C171.928 95.6415 172.263 95.5307 172.639 95.5256L172.91 95.5204V95.9146C172.907 96.1439 172.639 96.3604 172.369 96.3604ZM175.758 94.6625V94.1369H175.166V93.3356H174.63L174.439 94.1394H173.983V94.6625H174.416V96.113C174.416 96.5407 174.596 96.8319 175.3 96.8319C175.56 96.8319 175.694 96.7984 175.766 96.7675V96.3037H175.408C175.243 96.3037 175.171 96.2779 175.171 96.0821L175.166 94.6625H175.758ZM177.251 96.8551C177.565 96.8576 177.941 96.7417 178.037 96.2753L178.124 96.8035H178.691V94.1394H177.946V95.8734C177.946 96.1491 177.758 96.3088 177.465 96.3088C177.153 96.3088 176.988 96.1336 176.988 95.8863V94.1394H176.236V95.9816C176.236 96.5485 176.761 96.8525 177.251 96.8551ZM179.349 96.8035H180.101V95.3452C180.101 94.9871 180.328 94.7501 180.92 94.8016C180.957 94.8042 181.003 94.8067 181.034 94.8196V94.1034C181.013 94.0931 180.967 94.0879 180.918 94.0879C180.498 94.0879 180.199 94.3636 180.073 94.7707V94.1394H179.349V96.8035ZM182.104 95.6441H183.894V95.4406C183.894 94.6419 183.467 94.0879 182.653 94.0879C181.836 94.0879 181.359 94.7011 181.359 95.5024C181.359 96.3295 181.9 96.8551 182.691 96.8551C183.245 96.8551 183.802 96.5278 183.892 95.9584H183.214C183.137 96.2084 182.931 96.3114 182.673 96.3114C182.312 96.3114 182.101 96.0512 182.104 95.6441ZM182.104 95.1958C182.101 94.9021 182.305 94.6135 182.65 94.6135C183.013 94.6135 183.191 94.8737 183.191 95.1958H182.104ZM185.444 96.8551C185.969 96.8551 186.201 96.551 186.297 96.2573L186.382 96.8035H186.928V92.9749H186.173V94.5001C186.044 94.2734 185.75 94.0879 185.369 94.0879C184.684 94.0879 184.31 94.6212 184.31 95.456C184.31 96.3372 184.728 96.8551 185.444 96.8551ZM185.609 96.314C185.263 96.314 185.044 96.0383 185.044 95.4457C185.044 94.8609 185.287 94.6341 185.614 94.6341C185.987 94.6341 186.168 94.9021 186.173 95.4457C186.173 96.0744 185.987 96.314 185.609 96.314ZM188.829 93.0779V96.8035H191.205V96.1671H189.587V93.0779H188.829ZM192.44 93.0805H191.708V93.7581H192.44V93.0805ZM192.434 94.1394H191.716V96.8035H192.434V94.1394ZM193.097 96.8035H193.849V95.0979C193.849 94.8377 194.099 94.7063 194.346 94.7063C194.591 94.7063 194.79 94.8505 194.79 95.1391V96.8035H195.542V95.0464C195.542 94.3868 195.096 94.1162 194.609 94.1162C194.189 94.1162 193.957 94.3224 193.836 94.5156V94.1394H193.097V96.8035ZM198.725 96.8035L197.723 95.201L198.692 94.1394H197.883L196.904 95.2448V92.9749H196.151V96.8035H196.904V96.0306L197.257 95.6544L197.976 96.8035H198.725Z" fill="#FE9903"/>
<path d="M116.134 93.0779V96.8035H116.891V95.2576H118.43V94.6419H116.891V93.7066H118.667L118.669 93.0779H116.134ZM119.73 95.6441H121.52V95.4406C121.52 94.6419 121.093 94.0879 120.278 94.0879C119.462 94.0879 118.985 94.7011 118.985 95.5024C118.985 96.3295 119.526 96.8551 120.317 96.8551C120.871 96.8551 121.427 96.5278 121.518 95.9584H120.84C120.763 96.2084 120.557 96.3114 120.299 96.3114C119.938 96.3114 119.727 96.0512 119.73 95.6441ZM119.73 95.1958C119.727 94.9021 119.931 94.6135 120.276 94.6135C120.639 94.6135 120.817 94.8737 120.817 95.1958H119.73ZM122.838 96.8551C123.212 96.8551 123.482 96.7314 123.665 96.3449L123.727 96.8035H124.356V94.9304C124.356 94.4074 124.044 94.0879 123.23 94.0879C122.562 94.0879 122.081 94.3559 122.052 94.933H122.678C122.753 94.6882 122.975 94.5981 123.194 94.5955C123.495 94.5929 123.634 94.7295 123.634 94.9742V95.134L123.299 95.1391C122.359 95.1494 121.939 95.4586 121.939 96.0409C121.939 96.5613 122.33 96.8551 122.838 96.8551ZM123.093 96.3604C122.846 96.3604 122.653 96.2135 122.653 95.9662C122.653 95.6415 122.987 95.5307 123.364 95.5256L123.634 95.5204V95.9146C123.632 96.1439 123.364 96.3604 123.093 96.3604ZM126.483 94.6625V94.1369H125.89V93.3356H125.354L125.164 94.1394H124.708V94.6625H125.141V96.113C125.141 96.5407 125.321 96.8319 126.024 96.8319C126.285 96.8319 126.418 96.7984 126.491 96.7675V96.3037H126.132C125.968 96.3037 125.895 96.2779 125.895 96.0821L125.89 94.6625H126.483ZM127.975 96.8551C128.29 96.8576 128.666 96.7417 128.761 96.2753L128.849 96.8035H129.416V94.1394H128.671V95.8734C128.671 96.1491 128.483 96.3088 128.189 96.3088C127.877 96.3088 127.713 96.1336 127.713 95.8863V94.1394H126.96V95.9816C126.96 96.5485 127.486 96.8525 127.975 96.8551ZM130.073 96.8035H130.826V95.3452C130.826 94.9871 131.053 94.7501 131.645 94.8016C131.681 94.8042 131.728 94.8067 131.758 94.8196V94.1034C131.738 94.0931 131.691 94.0879 131.643 94.0879C131.223 94.0879 130.924 94.3636 130.797 94.7707V94.1394H130.073V96.8035ZM132.828 95.6441H134.619V95.4406C134.619 94.6419 134.191 94.0879 133.377 94.0879C132.56 94.0879 132.084 94.7011 132.084 95.5024C132.084 96.3295 132.625 96.8551 133.416 96.8551C133.97 96.8551 134.526 96.5278 134.616 95.9584H133.939C133.862 96.2084 133.655 96.3114 133.398 96.3114C133.037 96.3114 132.826 96.0512 132.828 95.6441ZM132.828 95.1958C132.826 94.9021 133.029 94.6135 133.375 94.6135C133.738 94.6135 133.916 94.8737 133.916 95.1958H132.828ZM136.168 96.8551C136.694 96.8551 136.926 96.551 137.021 96.2573L137.106 96.8035H137.652V92.9749H136.898V94.5001C136.769 94.2734 136.475 94.0879 136.094 94.0879C135.408 94.0879 135.035 94.6212 135.035 95.456C135.035 96.3372 135.452 96.8551 136.168 96.8551ZM136.333 96.314C135.988 96.314 135.769 96.0383 135.769 95.4457C135.769 94.8609 136.011 94.6341 136.338 94.6341C136.712 94.6341 136.892 94.9021 136.898 95.4457C136.898 96.0744 136.712 96.314 136.333 96.314ZM139.554 93.0779V96.8035H141.929V96.1671H140.311V93.0779H139.554ZM143.164 93.0805H142.433V93.7581H143.164V93.0805ZM143.159 94.1394H142.44V96.8035H143.159V94.1394ZM143.821 96.8035H144.574V95.0979C144.574 94.8377 144.824 94.7063 145.071 94.7063C145.316 94.7063 145.514 94.8505 145.514 95.1391V96.8035H146.267V95.0464C146.267 94.3868 145.821 94.1162 145.334 94.1162C144.914 94.1162 144.682 94.3224 144.561 94.5156V94.1394H143.821V96.8035ZM149.45 96.8035L148.448 95.201L149.416 94.1394H148.607L147.628 95.2448V92.9749H146.876V96.8035H147.628V96.0306L147.981 95.6544L148.7 96.8035H149.45Z" fill="#FE9903"/>
<path d="M66.8586 93.0779V96.8035H67.616V95.2576H69.1542V94.6419H67.616V93.7066H69.3912L69.3938 93.0779H66.8586ZM70.4542 95.6441H72.2448V95.4406C72.2448 94.6419 71.8171 94.0879 71.003 94.0879C70.1862 94.0879 69.7096 94.7011 69.7096 95.5024C69.7096 96.3295 70.2506 96.8551 71.0416 96.8551C71.5955 96.8551 72.1521 96.5278 72.2422 95.9584H71.5646C71.4873 96.2084 71.2812 96.3114 71.0236 96.3114C70.6629 96.3114 70.4516 96.0512 70.4542 95.6441ZM70.4542 95.1958C70.4516 94.9021 70.6551 94.6135 71.0004 94.6135C71.3637 94.6135 71.5414 94.8737 71.5414 95.1958H70.4542ZM73.5627 96.8551C73.9362 96.8551 74.2068 96.7314 74.3897 96.3449L74.4515 96.8035H75.0802V94.9304C75.0802 94.4074 74.7685 94.0879 73.9543 94.0879C73.287 94.0879 72.8052 94.3559 72.7768 94.933H73.4029C73.4776 94.6882 73.6992 94.5981 73.9182 94.5955C74.2197 94.5929 74.3588 94.7295 74.3588 94.9742V95.134L74.0239 95.1391C73.0834 95.1494 72.6635 95.4586 72.6635 96.0409C72.6635 96.5613 73.0551 96.8551 73.5627 96.8551ZM73.8177 96.3604C73.5704 96.3604 73.3772 96.2135 73.3772 95.9662C73.3772 95.6415 73.7121 95.5307 74.0883 95.5256L74.3588 95.5204V95.9146C74.3562 96.1439 74.0883 96.3604 73.8177 96.3604ZM77.2075 94.6625V94.1369H76.6149V93.3356H76.079L75.8883 94.1394H75.4323V94.6625H75.8652V96.113C75.8652 96.5407 76.0455 96.8319 76.7489 96.8319C77.0091 96.8319 77.1431 96.7984 77.2152 96.7675V96.3037H76.8571C76.6922 96.3037 76.6201 96.2779 76.6201 96.0821L76.6149 94.6625H77.2075ZM78.7 96.8551C79.0143 96.8576 79.3905 96.7417 79.4858 96.2753L79.5734 96.8035H80.1402V94.1394H79.3956V95.8734C79.3956 96.1491 79.2075 96.3088 78.9138 96.3088C78.6021 96.3088 78.4372 96.1336 78.4372 95.8863V94.1394H77.6848V95.9816C77.6848 96.5485 78.2104 96.8525 78.7 96.8551ZM80.798 96.8035H81.5504V95.3452C81.5504 94.9871 81.7771 94.7501 82.3697 94.8016C82.4058 94.8042 82.4521 94.8067 82.4831 94.8196V94.1034C82.4625 94.0931 82.4161 94.0879 82.3671 94.0879C81.9472 94.0879 81.6483 94.3636 81.522 94.7707V94.1394H80.798V96.8035ZM83.553 95.6441H85.3437V95.4406C85.3437 94.6419 84.916 94.0879 84.1018 94.0879C83.285 94.0879 82.8084 94.7011 82.8084 95.5024C82.8084 96.3295 83.3495 96.8551 84.1404 96.8551C84.6944 96.8551 85.2509 96.5278 85.3411 95.9584H84.6635C84.5862 96.2084 84.38 96.3114 84.1224 96.3114C83.7617 96.3114 83.5504 96.0512 83.553 95.6441ZM83.553 95.1958C83.5504 94.9021 83.754 94.6135 84.0992 94.6135C84.4625 94.6135 84.6403 94.8737 84.6403 95.1958H83.553ZM86.893 96.8551C87.4186 96.8551 87.6505 96.551 87.7458 96.2573L87.8309 96.8035H88.3771V92.9749H87.6222V94.5001C87.4933 94.2734 87.1996 94.0879 86.8183 94.0879C86.1329 94.0879 85.7594 94.6212 85.7594 95.456C85.7594 96.3372 86.1767 96.8551 86.893 96.8551ZM87.0579 96.314C86.7127 96.314 86.4937 96.0383 86.4937 95.4457C86.4937 94.8609 86.7358 94.6341 87.0631 94.6341C87.4367 94.6341 87.617 94.9021 87.6222 95.4457C87.6222 96.0744 87.4367 96.314 87.0579 96.314ZM90.2784 93.0779V96.8035H92.654V96.1671H91.0359V93.0779H90.2784ZM93.8889 93.0805H93.1571V93.7581H93.8889V93.0805ZM93.8837 94.1394H93.1649V96.8035H93.8837V94.1394ZM94.546 96.8035H95.2984V95.0979C95.2984 94.8377 95.5483 94.7063 95.7956 94.7063C96.0404 94.7063 96.2388 94.8505 96.2388 95.1391V96.8035H96.9911V95.0464C96.9911 94.3868 96.5454 94.1162 96.0584 94.1162C95.6385 94.1162 95.4066 94.3224 95.2855 94.5156V94.1394H94.546V96.8035ZM100.174 96.8035L99.1722 95.201L100.141 94.1394H99.332L98.3529 95.2448V92.9749H97.6006V96.8035H98.3529V96.0306L98.7059 95.6544L99.4247 96.8035H100.174Z" fill="#FE9903"/>
<rect opacity="0.5" x="66.4412" y="109.195" width="187.118" height="1.28824" fill="#00203E"/>
<path d="M251.151 57.7745H241.464C241.037 57.7745 240.684 58.1519 240.684 58.6048V68.2415C240.684 68.6944 241.037 69.0467 241.464 69.0467H251.151C251.579 69.0467 251.957 68.6944 251.957 68.2415V58.6048C251.957 58.1519 251.579 57.7745 251.151 57.7745ZM244.081 67.4364H242.42V62.0771H244.081V67.4364ZM243.251 61.3222C242.697 61.3222 242.27 60.8945 242.27 60.3661C242.27 59.8377 242.697 59.3848 243.251 59.3848C243.779 59.3848 244.207 59.8377 244.207 60.3661C244.207 60.8945 243.779 61.3222 243.251 61.3222ZM250.346 67.4364H248.66V64.8196C248.66 64.2158 248.66 63.4106 247.805 63.4106C246.924 63.4106 246.798 64.0899 246.798 64.7945V67.4364H245.138V62.0771H246.723V62.8067H246.748C246.975 62.379 247.528 61.9261 248.333 61.9261C250.019 61.9261 250.346 63.0583 250.346 64.4925V67.4364Z" fill="#FE9903"/>
<path d="M227.56 57.7745H218.704C218.024 57.7745 217.496 58.3281 217.496 58.9823V67.8389C217.496 68.5183 218.024 69.0467 218.704 69.0467H227.56C228.215 69.0467 228.768 68.5183 228.768 67.8389V58.9823C228.768 58.3281 228.215 57.7745 227.56 57.7745ZM226.328 61.7751C226.328 61.8506 226.328 61.9261 226.328 62.0016C226.328 64.1654 224.667 66.6815 221.622 66.6815C220.691 66.6815 219.836 66.4299 219.106 65.9519C219.232 65.977 219.358 65.977 219.484 65.977C220.264 65.977 220.968 65.7003 221.547 65.2725C220.817 65.2474 220.213 64.7693 219.987 64.1151C220.264 64.1654 220.49 64.1654 220.742 64.0899C219.987 63.939 219.433 63.2848 219.433 62.4796V62.4545C219.635 62.5803 219.886 62.6558 220.163 62.6558C219.71 62.3538 219.433 61.8506 219.433 61.2971C219.433 60.97 219.509 60.6932 219.66 60.4416C220.465 61.448 221.698 62.1022 223.057 62.1777C222.83 61.0706 223.66 60.1397 224.667 60.1397C225.145 60.1397 225.573 60.341 225.875 60.668C226.252 60.5926 226.604 60.4668 226.931 60.2655C226.806 60.668 226.529 60.97 226.202 61.1713C226.529 61.1461 226.856 61.0455 227.158 60.9197C226.931 61.2468 226.629 61.5487 226.328 61.7751Z" fill="#FE9903"/>
<path d="M204.694 57.7745H195.837C195.158 57.7745 194.63 58.3281 194.63 58.9823V67.8389C194.63 68.5183 195.158 69.0467 195.837 69.0467H199.284V65.2222H197.699V63.4106H199.284V62.0519C199.284 60.4919 200.215 59.6113 201.624 59.6113C202.329 59.6113 203.033 59.7371 203.033 59.7371V61.2719H202.253C201.473 61.2719 201.222 61.75 201.222 62.2532V63.4106H202.958L202.681 65.2222H201.222V69.0467H204.694C205.348 69.0467 205.902 68.5183 205.902 67.8389V58.9823C205.902 58.3281 205.348 57.7745 204.694 57.7745Z" fill="#FE9903"/>
<path d="M112.818 60.2415C112.818 58.8186 113.972 57.665 115.394 57.665H144.836C146.259 57.665 147.412 58.8186 147.412 60.2415V68.2415C147.412 69.6645 146.259 70.818 144.836 70.818H115.394C113.972 70.818 112.818 69.6645 112.818 68.2415V60.2415Z" fill="#FE9903"/>
<path d="M123.396 65.376L122.269 64.8929C122.239 64.8828 122.209 64.8728 122.169 64.8728C122.098 64.8728 122.028 64.913 121.987 64.9633L121.484 65.5773C120.699 65.2049 120.075 64.5809 119.703 63.7959L120.317 63.2926C120.367 63.2524 120.407 63.1819 120.407 63.1014C120.407 63.0712 120.397 63.041 120.387 63.0108L119.904 61.8836C119.864 61.793 119.773 61.7327 119.673 61.7327C119.663 61.7327 119.642 61.7427 119.622 61.7427L118.576 61.9843C118.465 62.0145 118.394 62.105 118.394 62.2158C118.394 64.8023 120.478 66.8856 123.064 66.8856C123.175 66.8856 123.266 66.8152 123.296 66.7045L123.537 65.6578C123.537 65.6377 123.537 65.6175 123.537 65.6075C123.537 65.5068 123.477 65.4162 123.396 65.376Z" fill="#00284D"/>
<path d="M127.183 62.4644C126.173 62.4644 125.599 63.1523 125.599 64.3658C125.599 65.5819 126.178 66.293 127.183 66.293C128.072 66.293 128.513 65.7056 128.59 65.0692H128.082C127.997 65.5046 127.693 65.8782 127.17 65.8782C126.49 65.8782 126.127 65.4093 126.127 64.371C126.127 63.3404 126.49 62.8792 127.17 62.8792C127.693 62.8792 127.997 63.227 128.082 63.665H128.59C128.52 63.0132 127.969 62.4644 127.183 62.4644ZM129.974 66.293C130.355 66.293 130.683 66.1565 130.889 65.7417L130.925 66.2415H131.332V64.3813C131.332 63.8248 130.987 63.5259 130.294 63.5259C129.647 63.5259 129.25 63.8119 129.222 64.3298H129.642C129.706 64.0129 129.964 63.8789 130.27 63.8763C130.68 63.8763 130.871 64.0824 130.871 64.4071V64.6158L130.397 64.6286C129.485 64.6492 129.096 64.9301 129.096 65.5201C129.096 66.0071 129.456 66.293 129.974 66.293ZM130.116 65.9504C129.789 65.9504 129.557 65.7752 129.557 65.4737C129.557 65.0795 129.863 64.9275 130.477 64.9172L130.871 64.9095V65.3655C130.871 65.6618 130.474 65.9504 130.116 65.9504ZM132.748 66.275C132.815 66.275 132.907 66.2596 132.987 66.2338V65.9246L132.843 65.922C132.655 65.9091 132.544 65.7803 132.544 65.5098V62.4129H132.075V65.5562C132.075 65.9298 132.173 66.275 132.748 66.275ZM134.232 66.275C134.299 66.275 134.392 66.2596 134.472 66.2338V65.9246L134.327 65.922C134.139 65.9091 134.029 65.7803 134.029 65.5098V62.4129H133.56V65.5562C133.56 65.9298 133.658 66.275 134.232 66.275ZM139.194 64.9533V62.5159H138.715V64.9765C138.715 65.5845 138.39 65.8757 137.831 65.8757C137.272 65.8757 136.965 65.5794 136.965 64.9765V62.5159H136.471V64.9043C136.471 65.8035 136.865 66.293 137.831 66.293C138.787 66.293 139.194 65.8112 139.194 64.9533ZM140.939 66.293C141.589 66.293 141.965 65.9916 141.965 65.5021C141.965 65.2393 141.831 64.9146 141.341 64.7858L140.805 64.6518C140.512 64.5797 140.357 64.4844 140.357 64.2937C140.357 64.0103 140.591 63.8763 140.931 63.8763C141.261 63.8763 141.457 64.036 141.493 64.2911H141.916C141.898 63.7913 141.514 63.5259 140.937 63.5259C140.262 63.5259 139.919 63.8557 139.922 64.322C139.924 64.7188 140.2 64.9224 140.63 65.0254L141.181 65.162C141.424 65.2186 141.537 65.332 141.537 65.5278C141.537 65.8061 141.297 65.9375 140.937 65.9375C140.599 65.9375 140.331 65.7777 140.264 65.466H139.831C139.909 66.0405 140.383 66.293 140.939 66.293Z" fill="#00284D"/>
<path d="M66.4412 60.2415C66.4412 58.8186 67.5947 57.665 69.0177 57.665H102.459C103.882 57.665 105.035 58.8186 105.035 60.2415V68.2415C105.035 69.6645 103.882 70.818 102.459 70.818H69.0176C67.5947 70.818 66.4412 69.6645 66.4412 68.2415V60.2415Z" fill="#FE9903"/>
<path d="M77.07 63.655C76.8385 63.8361 76.5466 64.0575 75.52 64.8023C75.3188 64.9533 74.9464 65.2854 74.5941 65.2854C74.2318 65.2854 73.8695 64.9533 73.6581 64.8023C72.6316 64.0575 72.3397 63.8361 72.1082 63.655C72.0679 63.6248 72.0176 63.655 72.0176 63.7053V65.7584C72.0176 66.0302 72.229 66.2415 72.5007 66.2415H76.6875C76.9492 66.2415 77.1706 66.0302 77.1706 65.7584V63.7053C77.1706 63.655 77.1102 63.6248 77.07 63.655ZM74.5941 64.9533C74.8256 64.9633 75.1577 64.6614 75.3288 64.5406C76.6674 63.5744 76.768 63.4839 77.07 63.2423C77.1303 63.2021 77.1706 63.1316 77.1706 63.0511V62.8599C77.1706 62.5982 76.9492 62.3768 76.6875 62.3768H72.5007C72.229 62.3768 72.0176 62.5982 72.0176 62.8599V63.0511C72.0176 63.1316 72.0478 63.2021 72.1082 63.2423C72.4101 63.4839 72.5108 63.5744 73.8493 64.5406C74.0204 64.6614 74.3526 64.9633 74.5941 64.9533Z" fill="#00284D"/>
<path d="M79.4905 66.2415H81.8892V65.8164L79.9671 65.8112V64.5694H81.6522V64.152H79.9697V62.9359H81.8377L81.8402 62.5159H79.4905V66.2415ZM82.5226 66.2415H82.9967V64.4612C82.9967 64.0876 83.3239 63.9304 83.597 63.9304C83.8443 63.9304 84.1381 64.0901 84.1381 64.4071V66.2415H84.6121V64.4612C84.6121 64.0567 84.96 63.9304 85.2099 63.9304C85.4907 63.9304 85.7561 64.0644 85.7561 64.5462V66.2415H86.2353V64.4998C86.2353 63.7114 85.7432 63.5259 85.367 63.5259C85.0141 63.5259 84.7203 63.7011 84.5555 63.9613C84.4163 63.6779 84.0788 63.5259 83.7877 63.5259C83.3728 63.5259 83.1281 63.7294 82.9812 63.9639V63.5774H82.5226V66.2415ZM87.7183 66.293C88.0996 66.293 88.4268 66.1565 88.6329 65.7417L88.669 66.2415H89.0761V64.3813C89.0761 63.8248 88.7308 63.5259 88.0377 63.5259C87.391 63.5259 86.9943 63.8119 86.9659 64.3298H87.3859C87.4503 64.0129 87.7079 63.8789 88.0146 63.8763C88.4242 63.8763 88.6149 64.0824 88.6149 64.4071V64.6158L88.1408 64.6286C87.2287 64.6492 86.8397 64.9301 86.8397 65.5201C86.8397 66.0071 87.2004 66.293 87.7183 66.293ZM87.86 65.9504C87.5327 65.9504 87.3009 65.7752 87.3009 65.4737C87.3009 65.0795 87.6075 64.9275 88.2207 64.9172L88.6149 64.9095V65.3655C88.6149 65.6618 88.2181 65.9504 87.86 65.9504ZM90.3063 62.5185H89.8193V63.0132H90.3063V62.5185ZM90.2934 63.5774H89.8322V66.2415H90.2934V63.5774ZM91.8001 66.275C91.8671 66.275 91.9599 66.2596 92.0398 66.2338V65.9246L91.8955 65.922C91.7074 65.9091 91.5966 65.7803 91.5966 65.5098V62.4129H91.1277V65.5562C91.1277 65.9298 91.2256 66.275 91.8001 66.275ZM96.7619 64.9533V62.5159H96.2827V64.9765C96.2827 65.5845 95.9581 65.8757 95.399 65.8757C94.8399 65.8757 94.5333 65.5794 94.5333 64.9765V62.5159H94.0386V64.9043C94.0386 65.8035 94.4328 66.293 95.399 66.293C96.3548 66.293 96.7619 65.8112 96.7619 64.9533ZM98.5072 66.293C99.1565 66.293 99.5327 65.9916 99.5327 65.5021C99.5327 65.2393 99.3987 64.9146 98.9092 64.7858L98.3732 64.6518C98.0795 64.5797 97.9249 64.4844 97.9249 64.2937C97.9249 64.0103 98.1594 63.8763 98.4995 63.8763C98.8293 63.8763 99.0251 64.036 99.0612 64.2911H99.4837C99.4657 63.7913 99.0818 63.5259 98.5046 63.5259C97.8296 63.5259 97.4869 63.8557 97.4895 64.322C97.4921 64.7188 97.7678 64.9224 98.198 65.0254L98.7494 65.162C98.9916 65.2186 99.105 65.332 99.105 65.5278C99.105 65.8061 98.8654 65.9375 98.5046 65.9375C98.1671 65.9375 97.8992 65.7777 97.8322 65.466H97.3993C97.4766 66.0405 97.9507 66.293 98.5072 66.293Z" fill="#00284D"/>
<rect opacity="0.5" x="66.4412" y="46.0709" width="187.118" height="1.28824" fill="#00203E"/>
<path d="M67.3977 22.943V33.1884H74.2492V30.9211H70.1539V22.943H67.3977Z" fill="white"/>
<path d="M78.7006 33.3301C80.9821 33.3301 82.4275 31.7572 82.4275 29.5749C82.4275 27.3501 81.0033 25.7204 78.7148 25.7204C76.5325 25.7204 74.9879 27.2651 74.9879 29.5749C74.9879 31.7713 76.4333 33.3301 78.7006 33.3301ZM78.7148 31.332C77.822 31.332 77.6661 30.2551 77.6661 29.4757C77.6661 28.6821 77.822 27.6902 78.7148 27.6902C79.5934 27.6902 79.7492 28.6821 79.7492 29.4757C79.7492 30.2551 79.5934 31.332 78.7148 31.332Z" fill="white"/>
<path d="M87.0249 35.6116C89.8023 35.6116 91.2052 34.563 91.2052 33.1459C91.2052 32.0122 90.3125 31.0911 88.2861 30.9494C87.6626 30.9069 87.0816 30.8786 86.8265 30.8644C86.1038 30.8219 85.6503 30.8219 85.6503 30.6235C85.6503 30.5527 85.707 30.5243 85.8487 30.496C86.0896 30.5243 86.5998 30.5385 86.8265 30.5385C89.1505 30.5385 90.3833 29.2631 90.3833 28.0161C90.3833 27.9311 90.355 27.6618 90.2983 27.4493L91.5453 27.2792L91.5595 25.3237C90.7518 25.6638 89.7031 26.0605 89.1505 26.2731C88.612 25.9897 88.0452 25.7488 86.9965 25.7488C84.9985 25.7488 83.2697 26.5565 83.2697 28.0303C83.2697 28.8097 83.7798 29.7449 84.8426 30.2126C83.6948 30.3684 83.1563 30.9211 83.1563 31.5021C83.1563 32.3098 83.9782 32.6216 84.1907 32.7349C84.0774 32.7633 82.7312 32.9758 82.7312 33.9253C82.7312 34.8605 84.1341 35.6116 87.0249 35.6116ZM86.9115 29.0931C86.3872 29.0931 86.0329 28.6821 86.0329 28.1295C86.0329 27.5768 86.3872 27.095 86.9115 27.095C87.4358 27.095 87.7901 27.5768 87.7901 28.1295C87.7901 28.6821 87.4358 29.0931 86.9115 29.0931ZM87.45 34.1662C86.0471 34.1662 85.4094 34.067 85.4094 33.5994C85.4094 33.3585 85.5936 33.0325 86.3589 33.075L87.6909 33.1601C88.2577 33.2026 88.5978 33.401 88.5978 33.7127C88.5978 33.982 88.4136 34.1662 87.45 34.1662Z" fill="white"/>
<path d="M95.556 33.3301C97.8375 33.3301 99.2829 31.7572 99.2829 29.5749C99.2829 27.3501 97.8587 25.7204 95.5701 25.7204C93.3879 25.7204 91.8433 27.2651 91.8433 29.5749C91.8433 31.7713 93.2887 33.3301 95.556 33.3301ZM95.5701 31.332C94.6774 31.332 94.5215 30.2551 94.5215 29.4757C94.5215 28.6821 94.6774 27.6902 95.5701 27.6902C96.4487 27.6902 96.6046 28.6821 96.6046 29.4757C96.6046 30.2551 96.4487 31.332 95.5701 31.332Z" fill="white"/>
</g>
<g style="mix-blend-mode:color">
<rect width="320" height="120" fill="#808080"/>
</g>
<g style="mix-blend-mode:color">
<rect width="320" height="120" fill="#00284D"/>
</g>
<defs>
<clipPath id="clip0">
<rect width="200" height="99.1948" fill="white" transform="translate(60 10)"/>
</clipPath>
</defs>
</svg>
