<svg width="320" height="120" viewBox="0 0 320 120" fill="none" xmlns="http://www.w3.org/2000/svg">
<rect width="320" height="120" fill="#C0CEDB"/>
<path d="M21 40C21 38.3431 22.3431 37 24 37H296C297.657 37 299 38.3431 299 40V80C299 81.6569 297.657 83 296 83H24C22.3431 83 21 81.6569 21 80V40Z" fill="#FFECB3" stroke="#5C3400" stroke-width="2"/>
<path d="M277.836 60.75L282.133 56.4531C282.691 55.9375 282.691 55.0781 282.133 54.5625L281.188 53.6172C280.672 53.0586 279.812 53.0586 279.297 53.6172L275 57.9141L270.66 53.6172C270.145 53.0586 269.285 53.0586 268.77 53.6172L267.824 54.5625C267.266 55.0781 267.266 55.9375 267.824 56.4531L272.121 60.75L267.824 65.0898C267.266 65.6055 267.266 66.4648 267.824 66.9805L268.77 67.9258C269.285 68.4844 270.145 68.4844 270.66 67.9258L275 63.6289L279.297 67.9258C279.812 68.4844 280.672 68.4844 281.188 67.9258L282.133 66.9805C282.691 66.4648 282.691 65.6055 282.133 65.0898L277.836 60.75Z" fill="#5C3400"/>
<path d="M80.192 55.432L76.776 67H74.912L72.736 59.44L70.544 67H68.712L65.304 55.432H67.592L69.744 63.072L71.896 55.432H73.584L75.76 63.072L77.912 55.432H80.192ZM83.0719 67.16C82.2772 67.16 81.6132 66.9413 81.0799 66.504C80.5465 66.0667 80.2799 65.4427 80.2799 64.632C80.2799 63.7253 80.6159 63.0373 81.2879 62.568C81.9652 62.0933 83.0372 61.848 84.5039 61.832L85.5359 61.816V61.32C85.5359 60.9413 85.4239 60.6507 85.1999 60.448C84.9812 60.24 84.6399 60.1387 84.1759 60.144C83.8345 60.1493 83.5092 60.2293 83.1999 60.384C82.8959 60.5387 82.6879 60.808 82.5759 61.192H80.6319C80.6745 60.296 81.0345 59.6347 81.7119 59.208C82.3892 58.7813 83.2452 58.568 84.2799 58.568C85.5492 58.568 86.4479 58.8027 86.9759 59.272C87.5092 59.736 87.7759 60.3733 87.7759 61.184V67H85.8239L85.6319 65.576C85.3492 66.1733 84.9945 66.5867 84.5679 66.816C84.1465 67.0453 83.6479 67.16 83.0719 67.16ZM83.8559 65.624C84.1385 65.624 84.4079 65.56 84.6639 65.432C84.9199 65.2987 85.1279 65.128 85.2879 64.92C85.4532 64.7067 85.5359 64.48 85.5359 64.24V63.016L84.6959 63.032C84.3065 63.0373 83.9439 63.0827 83.6079 63.168C83.2719 63.2533 82.9999 63.3973 82.7919 63.6C82.5892 63.7973 82.4879 64.064 82.4879 64.4C82.4879 64.784 82.6185 65.0853 82.8799 65.304C83.1465 65.5173 83.4719 65.624 83.8559 65.624ZM89.8438 67V58.728H92.0918V60.688C92.2891 60.0533 92.6118 59.5413 93.0598 59.152C93.5078 58.7627 94.0598 58.568 94.7158 58.568C94.8918 58.568 95.0118 58.584 95.0758 58.616V60.84C95.0278 60.824 94.9691 60.8133 94.8998 60.808C94.8358 60.7973 94.7771 60.7893 94.7238 60.784C93.8011 60.704 93.1451 60.8267 92.7558 61.152C92.3718 61.4773 92.1798 61.9173 92.1798 62.472V67H89.8438ZM96.3438 67V58.728H98.6398V59.896C98.8318 59.5973 99.1171 59.3173 99.4958 59.056C99.8744 58.7893 100.389 58.656 101.04 58.656C101.546 58.656 102.018 58.7547 102.456 58.952C102.898 59.1493 103.256 59.4613 103.528 59.888C103.8 60.3093 103.936 60.8613 103.936 61.544V67H101.6V61.832C101.6 61.384 101.464 61.048 101.192 60.824C100.925 60.6 100.602 60.488 100.224 60.488C99.8398 60.488 99.4851 60.5893 99.1598 60.792C98.8398 60.9947 98.6798 61.2987 98.6798 61.704V67H96.3438ZM108.204 55.44V57.544H105.932V55.44H108.204ZM108.18 58.728V67H105.948V58.728H108.18ZM110.344 67V58.728H112.64V59.896C112.832 59.5973 113.117 59.3173 113.496 59.056C113.874 58.7893 114.389 58.656 115.04 58.656C115.546 58.656 116.018 58.7547 116.456 58.952C116.898 59.1493 117.256 59.4613 117.528 59.888C117.8 60.3093 117.936 60.8613 117.936 61.544V67H115.6V61.832C115.6 61.384 115.464 61.048 115.192 60.824C114.925 60.6 114.602 60.488 114.224 60.488C113.84 60.488 113.485 60.5893 113.16 60.792C112.84 60.9947 112.68 61.2987 112.68 61.704V67H110.344ZM123.66 69.736C122.188 69.736 121.068 69.5493 120.3 69.176C119.537 68.8027 119.156 68.312 119.156 67.704C119.156 67.4213 119.231 67.1867 119.38 67C119.529 66.808 119.703 66.6533 119.9 66.536C120.103 66.4187 120.287 66.3307 120.452 66.272C120.623 66.208 120.727 66.1653 120.764 66.144C120.679 66.096 120.553 66.0267 120.388 65.936C120.228 65.84 120.081 65.712 119.948 65.552C119.815 65.3867 119.748 65.1733 119.748 64.912C119.748 64.6187 119.887 64.3493 120.164 64.104C120.447 63.8533 120.873 63.6773 121.444 63.576C120.895 63.3253 120.479 62.9813 120.196 62.544C119.919 62.1013 119.78 61.6507 119.78 61.192C119.78 60.648 119.948 60.184 120.284 59.8C120.625 59.4107 121.092 59.1147 121.684 58.912C122.276 58.704 122.945 58.6 123.692 58.6C124.263 58.6 124.729 58.6613 125.092 58.784C125.455 58.9013 125.791 59.056 126.1 59.248C126.265 59.184 126.495 59.0933 126.788 58.976C127.087 58.8587 127.393 58.736 127.708 58.608C128.028 58.48 128.303 58.368 128.532 58.272L128.524 60.08L127.092 60.312C127.151 60.4613 127.196 60.6187 127.228 60.784C127.26 60.944 127.276 61.0773 127.276 61.184C127.276 61.664 127.135 62.112 126.852 62.528C126.569 62.944 126.151 63.28 125.596 63.536C125.041 63.792 124.353 63.92 123.532 63.92C123.431 63.92 123.295 63.9173 123.124 63.912C122.953 63.9067 122.817 63.8987 122.716 63.888C122.401 63.904 122.185 63.944 122.068 64.008C121.951 64.072 121.892 64.1467 121.892 64.232C121.892 64.36 122.009 64.4453 122.244 64.488C122.484 64.5307 122.849 64.5653 123.34 64.592C123.511 64.6027 123.748 64.6187 124.052 64.64C124.356 64.656 124.692 64.6747 125.06 64.696C126.068 64.7653 126.823 65.016 127.324 65.448C127.825 65.8747 128.076 66.4133 128.076 67.064C128.076 67.8427 127.708 68.4827 126.972 68.984C126.241 69.4853 125.137 69.736 123.66 69.736ZM123.596 62.616C124.039 62.616 124.393 62.496 124.66 62.256C124.932 62.016 125.068 61.6853 125.068 61.264C125.068 60.832 124.932 60.4853 124.66 60.224C124.393 59.9627 124.039 59.832 123.596 59.832C123.153 59.832 122.796 59.9653 122.524 60.232C122.252 60.4933 122.116 60.8373 122.116 61.264C122.116 61.6747 122.247 62.0027 122.508 62.248C122.775 62.4933 123.137 62.616 123.596 62.616ZM124.036 68.432C124.687 68.432 125.151 68.352 125.428 68.192C125.705 68.032 125.844 67.8027 125.844 67.504C125.844 67.2533 125.737 67.0507 125.524 66.896C125.311 66.736 124.999 66.6427 124.588 66.616L122.692 66.488C122.319 66.4667 122.017 66.5547 121.788 66.752C121.559 66.9493 121.444 67.176 121.444 67.432C121.444 67.7787 121.655 68.032 122.076 68.192C122.497 68.352 123.151 68.432 124.036 68.432ZM132.419 55.432L131.803 63.432H130.339L129.683 55.432H132.419ZM132.323 64.504V67H129.771V64.504H132.323ZM138.309 67V55.432H142.029C143.437 55.432 144.501 55.6907 145.221 56.208C145.947 56.7253 146.309 57.472 146.309 58.448C146.309 59.0613 146.149 59.5867 145.829 60.024C145.509 60.4613 144.955 60.8213 144.165 61.104C145.077 61.3013 145.709 61.6533 146.061 62.16C146.419 62.6613 146.597 63.2373 146.597 63.888C146.597 65.9627 145.115 67 142.149 67H138.309ZM139.789 60.52H142.309C142.709 60.52 143.107 60.464 143.501 60.352C143.896 60.24 144.224 60.048 144.485 59.776C144.747 59.504 144.877 59.1227 144.877 58.632C144.877 57.96 144.619 57.464 144.101 57.144C143.589 56.8187 142.923 56.656 142.101 56.656H139.789V60.52ZM139.789 65.768H142.133C143.099 65.768 143.832 65.6107 144.333 65.296C144.84 64.976 145.093 64.4853 145.093 63.824C145.093 63.3387 144.968 62.9467 144.717 62.648C144.472 62.344 144.139 62.1227 143.717 61.984C143.296 61.8453 142.827 61.776 142.309 61.776H139.789V65.768ZM149.858 63.208C149.858 63.7307 149.943 64.2053 150.114 64.632C150.29 65.0533 150.554 65.3893 150.906 65.64C151.263 65.8907 151.709 66.016 152.242 66.016C152.77 66.016 153.223 65.8933 153.602 65.648C153.986 65.4027 154.231 65.048 154.338 64.584H155.738C155.637 65.144 155.413 65.616 155.066 66C154.719 66.384 154.301 66.6747 153.81 66.872C153.319 67.064 152.807 67.16 152.274 67.16C151.501 67.16 150.821 66.992 150.234 66.656C149.647 66.32 149.189 65.8373 148.858 65.208C148.527 64.5787 148.362 63.824 148.362 62.944C148.362 62.0747 148.511 61.312 148.81 60.656C149.109 60 149.541 59.488 150.106 59.12C150.677 58.752 151.362 58.568 152.162 58.568C153.33 58.568 154.226 58.9387 154.85 59.68C155.474 60.416 155.786 61.4107 155.786 62.664V63.208H149.858ZM149.866 62.208H154.362C154.362 61.4987 154.181 60.9013 153.818 60.416C153.455 59.9307 152.901 59.688 152.154 59.688C151.637 59.688 151.207 59.8133 150.866 60.064C150.525 60.3093 150.271 60.6267 150.106 61.016C149.941 61.4 149.861 61.7973 149.866 62.208ZM164.489 58.568C165.379 58.568 166.129 58.8213 166.737 59.328C167.345 59.8293 167.705 60.5013 167.817 61.344H166.505C166.43 60.912 166.219 60.5413 165.873 60.232C165.526 59.9173 165.067 59.76 164.497 59.76C163.793 59.76 163.217 60.016 162.769 60.528C162.326 61.04 162.105 61.824 162.105 62.88C162.105 63.8347 162.307 64.6 162.713 65.176C163.123 65.7467 163.726 66.032 164.521 66.032C165.086 66.032 165.542 65.872 165.889 65.552C166.235 65.232 166.443 64.864 166.513 64.448H167.801C167.694 65.28 167.334 65.9413 166.721 66.432C166.113 66.9173 165.369 67.16 164.489 67.16C163.742 67.16 163.083 66.9973 162.513 66.672C161.942 66.3467 161.494 65.8667 161.169 65.232C160.843 64.5973 160.681 63.8187 160.681 62.896C160.681 62.0373 160.827 61.2827 161.121 60.632C161.419 59.9813 161.851 59.4747 162.417 59.112C162.987 58.7493 163.678 58.568 164.489 58.568ZM171.996 67.16C171.191 67.16 170.535 66.9493 170.028 66.528C169.522 66.1067 169.268 65.5173 169.268 64.76C169.268 63.8427 169.588 63.16 170.228 62.712C170.868 62.264 171.895 62.024 173.308 61.992L174.788 61.952V61.304C174.788 60.7973 174.634 60.3973 174.324 60.104C174.02 59.8053 173.551 59.656 172.916 59.656C172.442 59.6613 172.023 59.776 171.66 60C171.298 60.2187 171.066 60.5733 170.964 61.064H169.66C169.703 60.2587 170.018 59.6427 170.604 59.216C171.191 58.784 171.986 58.568 172.988 58.568C174.066 58.568 174.871 58.7947 175.404 59.248C175.943 59.7013 176.212 60.36 176.212 61.224V67H174.948L174.844 65.448C174.519 66.0933 174.111 66.5413 173.62 66.792C173.13 67.0373 172.588 67.16 171.996 67.16ZM172.444 66.096C172.812 66.096 173.175 66.008 173.532 65.832C173.895 65.656 174.194 65.432 174.428 65.16C174.663 64.8827 174.783 64.5893 174.788 64.28V62.864L173.556 62.888C172.607 62.904 171.895 63.0453 171.42 63.312C170.946 63.5733 170.708 64.008 170.708 64.616C170.708 65.0853 170.868 65.4507 171.188 65.712C171.514 65.968 171.932 66.096 172.444 66.096ZM178.74 67V58.728H180.148V60.32C180.356 59.728 180.684 59.288 181.132 59C181.585 58.712 182.073 58.568 182.596 58.568C182.718 58.568 182.836 58.576 182.948 58.592C183.065 58.608 183.158 58.6347 183.228 58.672V60.104C183.148 60.0667 183.044 60.0427 182.916 60.032C182.793 60.016 182.689 60.008 182.604 60.008C181.948 59.9653 181.385 60.0907 180.916 60.384C180.446 60.6773 180.212 61.168 180.212 61.856V67H178.74ZM185.811 63.208C185.811 63.7307 185.897 64.2053 186.067 64.632C186.243 65.0533 186.507 65.3893 186.859 65.64C187.217 65.8907 187.662 66.016 188.195 66.016C188.723 66.016 189.177 65.8933 189.555 65.648C189.939 65.4027 190.185 65.048 190.291 64.584H191.691C191.59 65.144 191.366 65.616 191.019 66C190.673 66.384 190.254 66.6747 189.763 66.872C189.273 67.064 188.761 67.16 188.227 67.16C187.454 67.16 186.774 66.992 186.187 66.656C185.601 66.32 185.142 65.8373 184.811 65.208C184.481 64.5787 184.315 63.824 184.315 62.944C184.315 62.0747 184.465 61.312 184.763 60.656C185.062 60 185.494 59.488 186.059 59.12C186.63 58.752 187.315 58.568 188.115 58.568C189.283 58.568 190.179 58.9387 190.803 59.68C191.427 60.416 191.739 61.4107 191.739 62.664V63.208H185.811ZM185.819 62.208H190.315C190.315 61.4987 190.134 60.9013 189.771 60.416C189.409 59.9307 188.854 59.688 188.107 59.688C187.59 59.688 187.161 59.8133 186.819 60.064C186.478 60.3093 186.225 60.6267 186.059 61.016C185.894 61.4 185.814 61.7973 185.819 62.208ZM198.13 58.728V59.808H196.122V67H194.634V59.808H192.89V58.728H194.634V57.448C194.634 56.104 195.304 55.432 196.642 55.432H198.202L198.21 56.48H196.97C196.634 56.48 196.405 56.5707 196.282 56.752C196.16 56.9333 196.098 57.208 196.098 57.576V58.728H198.13ZM202.998 67.16C202.422 67.1547 201.894 67.048 201.414 66.84C200.934 66.6267 200.548 66.312 200.254 65.896C199.966 65.48 199.822 64.9627 199.822 64.344V58.728H201.302V64.192C201.302 64.7307 201.468 65.168 201.798 65.504C202.134 65.84 202.638 66.008 203.31 66.008C203.918 66.008 204.406 65.8507 204.774 65.536C205.148 65.216 205.334 64.7413 205.334 64.112V58.728H206.806V67H205.63L205.478 65.416C205.329 66.04 205.025 66.488 204.566 66.76C204.108 67.032 203.585 67.1653 202.998 67.16ZM211.312 67.104C210.715 67.104 210.267 67 209.968 66.792C209.669 66.5787 209.469 66.304 209.368 65.968C209.272 65.6267 209.224 65.2613 209.224 64.872V55.112H210.68V64.728C210.68 65.1493 210.76 65.464 210.92 65.672C211.085 65.8747 211.315 65.9867 211.608 66.008L212.056 66.016V66.976C211.789 67.0613 211.541 67.104 211.312 67.104ZM213.724 67V65.112H215.484V67H213.724Z" fill="#5C3400"/>
<path d="M55.6562 60.75C55.6562 54.9062 50.8438 50.0938 45 50.0938C39.1133 50.0938 34.3438 54.9062 34.3438 60.75C34.3438 66.6367 39.1133 71.4062 45 71.4062C50.8438 71.4062 55.6562 66.6367 55.6562 60.75ZM45 62.8984C46.0742 62.8984 46.9766 63.8008 46.9766 64.875C46.9766 65.9922 46.0742 66.8516 45 66.8516C43.8828 66.8516 43.0234 65.9922 43.0234 64.875C43.0234 63.8008 43.8828 62.8984 45 62.8984ZM43.1094 55.8086C43.0664 55.5078 43.3242 55.25 43.625 55.25H46.332C46.6328 55.25 46.8906 55.5078 46.8477 55.8086L46.5469 61.6523C46.5039 61.9531 46.2891 62.125 46.0312 62.125H43.9258C43.668 62.125 43.4531 61.9531 43.4102 61.6523L43.1094 55.8086Z" fill="#5C3400"/>
<g style="mix-blend-mode:color">
<rect width="320" height="120" fill="#808080"/>
</g>
<g style="mix-blend-mode:color">
<rect width="320" height="120" fill="#00284D"/>
</g>
</svg>
