<svg width="320" height="120" viewBox="0 0 320 120" fill="none" xmlns="http://www.w3.org/2000/svg">
<rect width="320" height="120" fill="#C0CEDB"/>
<g opacity="0.2" filter="url(#filter0_ii)">
<rect x="20" y="52" width="280" height="40" rx="4" fill="white"/>
</g>
<path d="M44.288 66.432L40.184 78H38.4L34.368 66.432H35.832L39.296 76.312L42.832 66.432H44.288ZM47.4651 78.16C46.6598 78.16 46.0038 77.9493 45.4971 77.528C44.9905 77.1067 44.7371 76.5173 44.7371 75.76C44.7371 74.8427 45.0571 74.16 45.6971 73.712C46.3371 73.264 47.3638 73.024 48.7771 72.992L50.2571 72.952V72.304C50.2571 71.7973 50.1025 71.3973 49.7931 71.104C49.4891 70.8053 49.0198 70.656 48.3851 70.656C47.9105 70.6613 47.4918 70.776 47.1291 71C46.7665 71.2187 46.5345 71.5733 46.4331 72.064H45.1291C45.1718 71.2587 45.4865 70.6427 46.0731 70.216C46.6598 69.784 47.4545 69.568 48.4571 69.568C49.5345 69.568 50.3398 69.7947 50.8731 70.248C51.4118 70.7013 51.6811 71.36 51.6811 72.224V78H50.4171L50.3131 76.448C49.9878 77.0933 49.5798 77.5413 49.0891 77.792C48.5985 78.0373 48.0571 78.16 47.4651 78.16ZM47.9131 77.096C48.2811 77.096 48.6438 77.008 49.0011 76.832C49.3638 76.656 49.6625 76.432 49.8971 76.16C50.1318 75.8827 50.2518 75.5893 50.2571 75.28V73.864L49.0251 73.888C48.0758 73.904 47.3638 74.0453 46.8891 74.312C46.4145 74.5733 46.1771 75.008 46.1771 75.616C46.1771 76.0853 46.3371 76.4507 46.6571 76.712C46.9825 76.968 47.4011 77.096 47.9131 77.096ZM56.2964 78.104C55.699 78.104 55.251 78 54.9524 77.792C54.6537 77.5787 54.4537 77.304 54.3524 76.968C54.2564 76.6267 54.2084 76.2613 54.2084 75.872V66.112H55.6644V75.728C55.6644 76.1493 55.7444 76.464 55.9044 76.672C56.0697 76.8747 56.299 76.9867 56.5924 77.008L57.0404 77.016V77.976C56.7737 78.0613 56.5257 78.104 56.2964 78.104ZM61.7484 78.16C61.1724 78.1547 60.6444 78.048 60.1644 77.84C59.6844 77.6267 59.2977 77.312 59.0044 76.896C58.7164 76.48 58.5724 75.9627 58.5724 75.344V69.728H60.0524V75.192C60.0524 75.7307 60.2177 76.168 60.5484 76.504C60.8844 76.84 61.3884 77.008 62.0604 77.008C62.6684 77.008 63.1564 76.8507 63.5244 76.536C63.8977 76.216 64.0844 75.7413 64.0844 75.112V69.728H65.5564V78H64.3804L64.2284 76.416C64.079 77.04 63.775 77.488 63.3164 77.76C62.8577 78.032 62.335 78.1653 61.7484 78.16ZM68.9206 74.208C68.9206 74.7307 69.006 75.2053 69.1766 75.632C69.3526 76.0533 69.6166 76.3893 69.9686 76.64C70.326 76.8907 70.7713 77.016 71.3046 77.016C71.8326 77.016 72.286 76.8933 72.6646 76.648C73.0486 76.4027 73.294 76.048 73.4006 75.584H74.8006C74.6993 76.144 74.4753 76.616 74.1286 77C73.782 77.384 73.3633 77.6747 72.8726 77.872C72.382 78.064 71.87 78.16 71.3366 78.16C70.5633 78.16 69.8833 77.992 69.2966 77.656C68.71 77.32 68.2513 76.8373 67.9206 76.208C67.59 75.5787 67.4246 74.824 67.4246 73.944C67.4246 73.0747 67.574 72.312 67.8726 71.656C68.1713 71 68.6033 70.488 69.1686 70.12C69.7393 69.752 70.4246 69.568 71.2246 69.568C72.3926 69.568 73.2886 69.9387 73.9126 70.68C74.5366 71.416 74.8486 72.4107 74.8486 73.664V74.208H68.9206ZM68.9286 73.208H73.4246C73.4246 72.4987 73.2433 71.9013 72.8806 71.416C72.518 70.9307 71.9633 70.688 71.2166 70.688C70.6993 70.688 70.27 70.8133 69.9286 71.064C69.5873 71.3093 69.334 71.6267 69.1686 72.016C69.0033 72.4 68.9233 72.7973 68.9286 73.208Z" fill="#343A40"/>
<path d="M32.776 37.344L31.488 35.232L30.176 37.384L29.096 36.632L30.68 34.704L28.44 34.08L28.864 32.912L30.992 33.808L30.824 31.432H32.152L31.968 33.816L34.128 32.872L34.504 34.04L32.32 34.696L33.872 36.576L32.776 37.344ZM39.9236 31.432H41.8916V41.32H47.1156V43H39.9156L39.9236 31.432ZM51.4168 43.16C50.6221 43.16 49.9634 42.9467 49.4408 42.52C48.9181 42.088 48.6568 41.48 48.6568 40.696C48.6568 39.784 48.9848 39.096 49.6408 38.632C50.3021 38.168 51.3554 37.9253 52.8008 37.904L54.0328 37.872V37.312C54.0328 36.8747 53.9021 36.5333 53.6408 36.288C53.3794 36.0427 52.9794 35.92 52.4408 35.92C52.0354 35.9253 51.6674 36.0213 51.3368 36.208C51.0061 36.3947 50.7874 36.7013 50.6808 37.128H49.0247C49.0674 36.28 49.4061 35.6427 50.0408 35.216C50.6808 34.784 51.5101 34.568 52.5288 34.568C53.7074 34.568 54.5634 34.8 55.0968 35.264C55.6354 35.7227 55.9048 36.368 55.9048 37.2V43H54.2648L54.1128 41.512C53.8088 42.136 53.4301 42.568 52.9768 42.808C52.5234 43.0427 52.0034 43.16 51.4168 43.16ZM52.0488 41.84C52.3688 41.84 52.6808 41.7653 52.9848 41.616C53.2888 41.4613 53.5394 41.264 53.7368 41.024C53.9341 40.784 54.0328 40.528 54.0328 40.256V38.952L53.0168 38.968C52.2648 38.9787 51.6594 39.0987 51.2008 39.328C50.7421 39.5573 50.5128 39.9467 50.5128 40.496C50.5128 40.9173 50.6594 41.248 50.9528 41.488C51.2461 41.7227 51.6114 41.84 52.0488 41.84ZM62.5501 43.16C61.9581 43.16 61.4781 43.0613 61.1101 42.864C60.7421 42.6613 60.4595 42.416 60.2621 42.128C60.0648 41.84 59.9235 41.5653 59.8381 41.304L59.6141 43H58.1821V31.112H60.1341V35.936C60.3048 35.6213 60.6088 35.3147 61.0461 35.016C61.4835 34.7173 62.0435 34.568 62.7261 34.568C63.7555 34.568 64.5688 34.9333 65.1661 35.664C65.7635 36.3947 66.0621 37.448 66.0621 38.824C66.0621 40.1307 65.7661 41.1813 65.1741 41.976C64.5821 42.7653 63.7075 43.16 62.5501 43.16ZM62.1501 41.728C62.7315 41.728 63.2088 41.4987 63.5821 41.04C63.9555 40.576 64.1421 39.8213 64.1421 38.776C64.1421 37.864 63.9661 37.176 63.6141 36.712C63.2621 36.248 62.7661 36.016 62.1261 36.016C61.4381 36.016 60.9368 36.2507 60.6221 36.72C60.3075 37.1893 60.1448 37.8747 60.1341 38.776C60.1341 39.832 60.2941 40.5893 60.6141 41.048C60.9395 41.5013 61.4515 41.728 62.1501 41.728ZM69.3195 39.312C69.3142 40.016 69.4848 40.5947 69.8315 41.048C70.1835 41.496 70.6928 41.72 71.3595 41.72C71.8182 41.72 72.2155 41.6187 72.5515 41.416C72.8928 41.208 73.1195 40.8933 73.2315 40.472H75.0155C74.9142 41.048 74.6822 41.536 74.3195 41.936C73.9622 42.336 73.5248 42.64 73.0075 42.848C72.4955 43.056 71.9622 43.16 71.4075 43.16C70.6075 43.16 69.9035 42.992 69.2955 42.656C68.6928 42.3147 68.2208 41.8293 67.8795 41.2C67.5435 40.5707 67.3755 39.8213 67.3755 38.952C67.3755 38.104 67.5302 37.352 67.8395 36.696C68.1488 36.0347 68.5942 35.5147 69.1755 35.136C69.7568 34.7573 70.4608 34.568 71.2875 34.568C72.5088 34.568 73.4395 34.9493 74.0795 35.712C74.7195 36.4693 75.0395 37.472 75.0395 38.72V39.312H69.3195ZM69.3195 38.104H73.1995C73.1995 37.5067 73.0422 37.0027 72.7275 36.592C72.4128 36.176 71.9302 35.968 71.2795 35.968C70.8528 35.968 70.4928 36.072 70.1995 36.28C69.9062 36.488 69.6848 36.7573 69.5355 37.088C69.3862 37.4133 69.3142 37.752 69.3195 38.104ZM79.238 43.12C78.5233 43.12 77.9953 43.008 77.654 42.784C77.318 42.5547 77.0993 42.2587 76.998 41.896C76.902 41.5333 76.854 41.1573 76.854 40.768V31.112H78.758V40.544C78.758 40.9013 78.83 41.1787 78.974 41.376C79.1233 41.5733 79.3633 41.688 79.694 41.72L80.11 41.736V42.96C79.966 43.008 79.8167 43.0453 79.662 43.072C79.5127 43.104 79.3713 43.12 79.238 43.12Z" fill="#00284D"/>
<g style="mix-blend-mode:color">
<rect width="320" height="120" fill="#808080"/>
</g>
<g style="mix-blend-mode:color">
<rect width="320" height="120" fill="#00284D"/>
</g>
<defs>
<filter id="filter0_ii" x="20" y="52" width="280" height="41" filterUnits="userSpaceOnUse" color-interpolation-filters="sRGB">
<feFlood flood-opacity="0" result="BackgroundImageFix"/>
<feBlend mode="normal" in="SourceGraphic" in2="BackgroundImageFix" result="shape"/>
<feColorMatrix in="SourceAlpha" type="matrix" values="0 0 0 0 0 0 0 0 0 0 0 0 0 0 0 0 0 0 127 0" result="hardAlpha"/>
<feOffset dy="-2"/>
<feComposite in2="hardAlpha" operator="arithmetic" k2="-1" k3="1"/>
<feColorMatrix type="matrix" values="0 0 0 0 0.423529 0 0 0 0 0.458824 0 0 0 0 0.490196 0 0 0 1 0"/>
<feBlend mode="normal" in2="shape" result="effect1_innerShadow"/>
<feColorMatrix in="SourceAlpha" type="matrix" values="0 0 0 0 0 0 0 0 0 0 0 0 0 0 0 0 0 0 127 0" result="hardAlpha"/>
<feOffset dy="1"/>
<feGaussianBlur stdDeviation="0.5"/>
<feComposite in2="hardAlpha" operator="arithmetic" k2="-1" k3="1"/>
<feColorMatrix type="matrix" values="0 0 0 0 0.741176 0 0 0 0 0.756863 0 0 0 0 0.772549 0 0 0 1 0"/>
<feBlend mode="normal" in2="effect1_innerShadow" result="effect2_innerShadow"/>
</filter>
</defs>
</svg>
