<svg width="320" height="120" viewBox="0 0 320 120" fill="none" xmlns="http://www.w3.org/2000/svg">
<rect width="320" height="120" fill="#C0CEDB"/>
<g filter="url(#filter0_d)">
<path d="M14 17.3407C14 16.6002 14.6002 16 15.3407 16H106.507C107.247 16 107.847 16.6002 107.847 17.3407V101.803C107.847 102.544 107.247 103.144 106.507 103.144H15.3407C14.6002 103.144 14 102.544 14 101.803V17.3407Z" fill="white"/>
<rect x="14.3352" y="28.4012" width="93.1771" height="0.335169" fill="#DEE2E6"/>
<path d="M18.5674 20.8718C17.7265 20.8718 17.2481 21.4446 17.2481 22.4549C17.2481 23.4674 17.7308 24.0594 18.5674 24.0594C19.3074 24.0594 19.6742 23.5704 19.7386 23.0405H19.316C19.2452 23.403 18.9921 23.7141 18.5567 23.7141C17.9903 23.7141 17.6879 23.3237 17.6879 22.4592C17.6879 21.6012 17.9903 21.2172 18.5567 21.2172C18.9921 21.2172 19.2452 21.5068 19.316 21.8715H19.7386C19.6807 21.3287 19.2216 20.8718 18.5674 20.8718ZM20.8911 24.0594C21.2086 24.0594 21.481 23.9458 21.6526 23.6004L21.6826 24.0165H22.0216V22.4678C22.0216 22.0045 21.7341 21.7556 21.1571 21.7556C20.6187 21.7556 20.2883 21.9937 20.2647 22.4249H20.6144C20.668 22.161 20.8825 22.0495 21.1378 22.0474C21.4789 22.0474 21.6376 22.219 21.6376 22.4892V22.663L21.2429 22.6737C20.4835 22.6909 20.1596 22.9247 20.1596 23.4159C20.1596 23.8213 20.4599 24.0594 20.8911 24.0594ZM21.0091 23.7741C20.7367 23.7741 20.5436 23.6283 20.5436 23.3773C20.5436 23.0491 20.7989 22.9225 21.3094 22.914L21.6376 22.9075V23.2872C21.6376 23.5339 21.3073 23.7741 21.0091 23.7741ZM22.6404 24.0165H23.0351V22.6373C23.0351 22.2683 23.3225 22.1181 23.6764 22.1417C23.7215 22.1417 23.8008 22.1482 23.8437 22.1675V21.7835C23.8073 21.7642 23.7386 21.7556 23.6743 21.7556C23.3933 21.7556 23.1294 21.9058 23.0179 22.2254V21.7985H22.6404V24.0165ZM25.0914 24.0594C25.6105 24.0594 25.7842 23.7355 25.84 23.5618L25.8829 24.0165H26.1875V20.8289H25.7864V22.1503C25.7156 22.0066 25.4839 21.7556 25.0592 21.7556C24.4586 21.7556 24.154 22.2082 24.154 22.899C24.154 23.6583 24.5144 24.0594 25.0914 24.0594ZM25.1622 23.7548C24.7632 23.7548 24.553 23.4352 24.553 22.8796C24.553 22.3112 24.8039 22.0645 25.1686 22.0645C25.6105 22.0645 25.7821 22.3605 25.7864 22.8796C25.7864 23.4996 25.6105 23.7548 25.1622 23.7548ZM30.0373 22.5858V24.0165H30.4341V20.9147H30.0373V22.2361H28.3641V20.9147H27.9673V24.0165H28.3641V22.5858H30.0373ZM31.4328 22.9998H33.0223V22.8539C33.0223 22.1803 32.6748 21.7556 32.0506 21.7556C31.4049 21.7556 31.0317 22.2297 31.0317 22.929C31.0317 23.6369 31.4586 24.0594 32.0785 24.0594C32.5097 24.0594 32.9258 23.8213 33.0073 23.3687H32.6341C32.5783 23.6197 32.3552 23.7527 32.0721 23.7527C31.6409 23.7527 31.4328 23.4202 31.4328 22.9998ZM31.435 22.7316C31.4328 22.4013 31.6302 22.0559 32.0485 22.0559C32.4496 22.0559 32.6405 22.3498 32.6405 22.7316H31.435ZM34.1638 24.0594C34.4813 24.0594 34.7537 23.9458 34.9253 23.6004L34.9554 24.0165H35.2943V22.4678C35.2943 22.0045 35.0068 21.7556 34.4298 21.7556C33.8914 21.7556 33.5611 21.9937 33.5375 22.4249H33.8871C33.9407 22.161 34.1552 22.0495 34.4105 22.0474C34.7516 22.0474 34.9103 22.219 34.9103 22.4892V22.663L34.5156 22.6737C33.7563 22.6909 33.4323 22.9247 33.4323 23.4159C33.4323 23.8213 33.7327 24.0594 34.1638 24.0594ZM34.2818 23.7741C34.0094 23.7741 33.8163 23.6283 33.8163 23.3773C33.8163 23.0491 34.0716 22.9225 34.5821 22.914L34.9103 22.9075V23.2872C34.9103 23.5339 34.58 23.7741 34.2818 23.7741ZM36.7218 24.0594C37.2409 24.0594 37.4146 23.7355 37.4704 23.5618L37.5133 24.0165H37.8179V20.8289H37.4168V22.1503C37.346 22.0066 37.1143 21.7556 36.6896 21.7556C36.089 21.7556 35.7844 22.2082 35.7844 22.899C35.7844 23.6583 36.1447 24.0594 36.7218 24.0594ZM36.7926 23.7548C36.3936 23.7548 36.1833 23.4352 36.1833 22.8796C36.1833 22.3112 36.4343 22.0645 36.799 22.0645C37.2409 22.0645 37.4125 22.3605 37.4168 22.8796C37.4168 23.4996 37.2409 23.7548 36.7926 23.7548ZM38.7647 22.9998H40.3542V22.8539C40.3542 22.1803 40.0067 21.7556 39.3824 21.7556C38.7368 21.7556 38.3635 22.2297 38.3635 22.929C38.3635 23.6369 38.7904 24.0594 39.4103 24.0594C39.8415 24.0594 40.2576 23.8213 40.3391 23.3687H39.9659C39.9101 23.6197 39.687 23.7527 39.4039 23.7527C38.9727 23.7527 38.7647 23.4202 38.7647 22.9998ZM38.7668 22.7316C38.7647 22.4013 38.962 22.0559 39.3803 22.0559C39.7814 22.0559 39.9723 22.3498 39.9723 22.7316H38.7668ZM40.9029 24.0165H41.2976V22.6373C41.2976 22.2683 41.585 22.1181 41.939 22.1417C41.984 22.1417 42.0634 22.1482 42.1063 22.1675V21.7835C42.0698 21.7642 42.0012 21.7556 41.9368 21.7556C41.6558 21.7556 41.392 21.9058 41.2804 22.2254V21.7985H40.9029V24.0165Z" fill="#6C757D"/>
<rect width="93.1771" height="35.1928" transform="translate(14.3352 28.7365)" fill="#DEE2E6"/>
<line y1="-0.167585" x2="98.3076" y2="-0.167585" transform="matrix(0.937584 0.347758 -0.937584 0.347758 14.6703 29.4068)" stroke="#C6C6C6" stroke-width="0.335169"/>
<line y1="-0.167585" x2="98.3076" y2="-0.167585" transform="matrix(0.937584 -0.347758 0.937584 0.347758 15.0055 63.5941)" stroke="#C6C6C6" stroke-width="0.335169"/>
<rect x="57.9072" y="44.1542" width="6.03305" height="4.69237" fill="#DEE2E6"/>
<path d="M63.7953 49.4784C64.1357 49.4784 64.4237 49.2034 64.4237 48.85V45.0793C64.4237 44.7389 64.1357 44.4509 63.7953 44.4509H58.3488C57.9953 44.4509 57.7203 44.7389 57.7203 45.0793V48.85C57.7203 49.2034 57.9953 49.4784 58.3488 49.4784H63.7953ZM59.1867 45.184C59.5795 45.184 59.9199 45.5244 59.9199 45.9172C59.9199 46.3231 59.5795 46.6504 59.1867 46.6504C58.7808 46.6504 58.4535 46.3231 58.4535 45.9172C58.4535 45.5244 58.7808 45.184 59.1867 45.184ZM58.5583 48.6405V48.012L59.4878 47.0825C59.5533 47.017 59.6449 47.017 59.7104 47.0825L60.4436 47.8025L62.2111 46.0351C62.2765 45.9696 62.3682 45.9696 62.4336 46.0351L63.5858 47.1741V48.6405H58.5583Z" fill="#6C757D"/>
<path d="M42.2713 78.9844L41.6621 77.5772C41.9581 77.4657 42.2627 77.234 42.2627 76.7299C42.2627 76.2022 41.9259 75.8826 41.2545 75.8826H40.0533V78.9844H40.4501V77.648H41.2845L41.8508 78.9844H42.2713ZM41.1258 77.3198H40.4501V76.2065H41.2202C41.617 76.2065 41.8573 76.3888 41.8573 76.7535C41.8573 77.1289 41.5913 77.3198 41.1258 77.3198ZM43.0957 77.9676H44.6852V77.8217C44.6852 77.1482 44.3377 76.7235 43.7134 76.7235C43.0678 76.7235 42.6945 77.1975 42.6945 77.8968C42.6945 78.6047 43.1214 79.0273 43.7413 79.0273C44.1725 79.0273 44.5886 78.7892 44.6702 78.3366H44.2969C44.2411 78.5875 44.018 78.7205 43.7349 78.7205C43.3037 78.7205 43.0957 78.388 43.0957 77.9676ZM43.0978 77.6995C43.0957 77.3691 43.293 77.0238 43.7113 77.0238C44.1124 77.0238 44.3033 77.3176 44.3033 77.6995H43.0978ZM45.2339 79.6751H45.6329V78.5832C45.7251 78.772 45.9332 79.0273 46.33 79.0273C46.9135 79.0273 47.261 78.6068 47.261 77.8453C47.261 77.0817 46.8921 76.7235 46.3622 76.7235C45.9547 76.7235 45.7337 76.9701 45.6329 77.1525L45.6286 76.7664H45.2339V79.6751ZM46.255 78.7184C45.8431 78.7184 45.6286 78.3366 45.6286 77.8582C45.6286 77.3691 45.8431 77.0323 46.255 77.0323C46.6604 77.0323 46.877 77.3541 46.877 77.8582C46.877 78.4481 46.6196 78.7184 46.255 78.7184ZM48.3494 79.0123C48.4052 79.0123 48.4824 78.9994 48.5489 78.9779V78.7205L48.4288 78.7184C48.2722 78.7077 48.18 78.6004 48.18 78.3752V75.7968H47.7896V78.4138C47.7896 78.7248 47.8711 79.0123 48.3494 79.0123ZM49.6895 79.0273C50.007 79.0273 50.2794 78.9136 50.451 78.5682L50.481 78.9844H50.8199V77.4356C50.8199 76.9723 50.5325 76.7235 49.9555 76.7235C49.4171 76.7235 49.0867 76.9616 49.0631 77.3927H49.4128C49.4664 77.1289 49.6809 77.0173 49.9362 77.0152C50.2772 77.0152 50.436 77.1868 50.436 77.4571V77.6308L50.0413 77.6416C49.2819 77.6587 48.958 77.8925 48.958 78.3838C48.958 78.7892 49.2583 79.0273 49.6895 79.0273ZM49.8075 78.742C49.535 78.742 49.342 78.5961 49.342 78.3451C49.342 78.0169 49.5972 77.8904 50.1078 77.8818L50.436 77.8754V78.255C50.436 78.5017 50.1056 78.742 49.8075 78.742ZM52.3311 76.7235C51.6768 76.7235 51.31 77.1932 51.31 77.8839C51.31 78.6283 51.7305 79.0273 52.3311 79.0273C52.8009 79.0273 53.1612 78.7463 53.2192 78.3001H52.8738C52.8352 78.5232 52.6421 78.7248 52.3375 78.7248C51.9128 78.7248 51.6897 78.3923 51.6897 77.8797C51.6897 77.3134 51.9536 77.0431 52.3332 77.0431C52.6378 77.0431 52.8309 77.234 52.8695 77.4678H53.2213C53.1612 77.0152 52.8073 76.7235 52.3311 76.7235ZM54.0473 77.9676H55.6368V77.8217C55.6368 77.1482 55.2893 76.7235 54.6651 76.7235C54.0194 76.7235 53.6462 77.1975 53.6462 77.8968C53.6462 78.6047 54.0731 79.0273 54.693 79.0273C55.1242 79.0273 55.5403 78.7892 55.6218 78.3366H55.2486C55.1928 78.5875 54.9697 78.7205 54.6866 78.7205C54.2554 78.7205 54.0473 78.388 54.0473 77.9676ZM54.0495 77.6995C54.0473 77.3691 54.2447 77.0238 54.663 77.0238C55.0641 77.0238 55.255 77.3176 55.255 77.6995H54.0495ZM60.0896 76.7664H59.7185L59.2316 78.4674H59.1972L58.6781 76.7664H58.3778L57.878 78.4717H57.8437L57.3375 76.7664H56.9685L57.6549 78.9844H58.041L58.5237 77.3477L59.0278 78.9844H59.4182L60.0896 76.7664ZM60.9482 75.8847H60.5428V76.2966H60.9482V75.8847ZM60.9375 76.7664H60.5535V78.9844H60.9375V76.7664ZM62.7311 77.0559V76.7642H62.2313V76.1207H61.9395L61.843 76.7664H61.4719V77.0559H61.8323V78.4481C61.8323 78.8042 61.9545 78.9951 62.4157 78.9951C62.5766 78.9951 62.6882 78.9801 62.7439 78.9586V78.6926H62.5015C62.2935 78.6926 62.2313 78.6712 62.2313 78.4352V77.0559H62.7311ZM63.2702 78.9844H63.6649V77.5043C63.6649 77.2061 63.9352 77.0624 64.2355 77.0624C64.5272 77.0624 64.7267 77.2147 64.7267 77.4785V78.9844H65.1236V77.3992C65.1236 76.9937 64.7825 76.7385 64.3492 76.7385C63.9931 76.7385 63.7679 76.9101 63.6563 77.0924V75.7968H63.2702V78.9844ZM68.008 75.8397C67.1671 75.8397 66.6888 76.4124 66.6888 77.4228C66.6888 78.4352 67.1714 79.0273 68.008 79.0273C68.7481 79.0273 69.1149 78.5382 69.1792 78.0084H68.7566C68.6859 78.3709 68.4327 78.6819 67.9973 78.6819C67.431 78.6819 67.1285 78.2915 67.1285 77.427C67.1285 76.569 67.431 76.185 67.9973 76.185C68.4327 76.185 68.6859 76.4746 68.7566 76.8393H69.1792C69.1213 76.2966 68.6623 75.8397 68.008 75.8397ZM70.6187 79.0273C71.2794 79.0273 71.629 78.5618 71.629 77.8839C71.629 77.1375 71.2322 76.7235 70.6208 76.7235C69.9644 76.7235 69.6019 77.1889 69.6019 77.8839C69.6019 78.624 70.003 79.0273 70.6187 79.0273ZM70.6208 78.7141C70.1768 78.7141 69.9966 78.343 69.9966 77.8754C69.9966 77.3477 70.2175 77.0345 70.6208 77.0345C71.0563 77.0345 71.2365 77.4013 71.2365 77.8754C71.2365 78.3966 71.0177 78.7141 70.6208 78.7141ZM72.1564 78.9844H72.5511V77.5021C72.5511 77.204 72.8257 77.0624 73.126 77.0624C73.4156 77.0624 73.6151 77.2276 73.6151 77.5729V78.9844H74.0119V77.5343C74.0119 76.9766 73.6558 76.7342 73.2354 76.7342C72.8793 76.7342 72.6498 76.9036 72.5404 77.0881V76.7664H72.1564V78.9844ZM75.6686 77.0559V76.7642H75.1688V76.1207H74.8771L74.7805 76.7664H74.4094V77.0559H74.7698V78.4481C74.7698 78.8042 74.8921 78.9951 75.3533 78.9951C75.5142 78.9951 75.6257 78.9801 75.6815 78.9586V78.6926H75.4391C75.231 78.6926 75.1688 78.6712 75.1688 78.4352V77.0559H75.6686ZM76.4408 77.9676H78.0303V77.8217C78.0303 77.1482 77.6828 76.7235 77.0586 76.7235C76.413 76.7235 76.0397 77.1975 76.0397 77.8968C76.0397 78.6047 76.4666 79.0273 77.0865 79.0273C77.5177 79.0273 77.9338 78.7892 78.0153 78.3366H77.6421C77.5863 78.5875 77.3632 78.7205 77.0801 78.7205C76.6489 78.7205 76.4408 78.388 76.4408 77.9676ZM76.443 77.6995C76.4408 77.3691 76.6382 77.0238 77.0565 77.0238C77.4576 77.0238 77.6485 77.3176 77.6485 77.6995H76.443ZM78.5791 78.9844H78.9738V77.5021C78.9738 77.204 79.2484 77.0624 79.5487 77.0624C79.8383 77.0624 80.0377 77.2276 80.0377 77.5729V78.9844H80.4346V77.5343C80.4346 76.9766 80.0785 76.7342 79.6581 76.7342C79.302 76.7342 79.0725 76.9036 78.9631 77.0881V76.7664H78.5791V78.9844ZM82.0913 77.0559V76.7642H81.5915V76.1207H81.2998L81.2032 76.7664H80.8321V77.0559H81.1925V78.4481C81.1925 78.8042 81.3148 78.9951 81.776 78.9951C81.9368 78.9951 82.0484 78.9801 82.1042 78.9586V78.6926H81.8618C81.6537 78.6926 81.5915 78.6712 81.5915 78.4352V77.0559H82.0913Z" fill="#6C757D"/>
<path d="M18.5674 95.2795C17.7265 95.2795 17.2481 95.8522 17.2481 96.8626C17.2481 97.8751 17.7308 98.4671 18.5674 98.4671C19.3074 98.4671 19.6742 97.978 19.7386 97.4482H19.316C19.2452 97.8107 18.9921 98.1217 18.5567 98.1217C17.9903 98.1217 17.6879 97.7313 17.6879 96.8669C17.6879 96.0088 17.9903 95.6249 18.5567 95.6249C18.9921 95.6249 19.2452 95.9144 19.316 96.2791H19.7386C19.6807 95.7364 19.2216 95.2795 18.5674 95.2795ZM20.8911 98.4671C21.2086 98.4671 21.481 98.3534 21.6526 98.008L21.6826 98.4242H22.0216V96.8754C22.0216 96.4121 21.7341 96.1633 21.1571 96.1633C20.6187 96.1633 20.2883 96.4014 20.2647 96.8325H20.6144C20.668 96.5687 20.8825 96.4572 21.1378 96.455C21.4789 96.455 21.6376 96.6266 21.6376 96.8969V97.0706L21.2429 97.0814C20.4835 97.0985 20.1596 97.3323 20.1596 97.8236C20.1596 98.229 20.4599 98.4671 20.8911 98.4671ZM21.0091 98.1818C20.7367 98.1818 20.5436 98.0359 20.5436 97.785C20.5436 97.4568 20.7989 97.3302 21.3094 97.3216L21.6376 97.3152V97.6949C21.6376 97.9416 21.3073 98.1818 21.0091 98.1818ZM22.6404 98.4242H23.0351V97.0449C23.0351 96.676 23.3225 96.5258 23.6764 96.5494C23.7215 96.5494 23.8008 96.5558 23.8437 96.5751V96.1912C23.8073 96.1719 23.7386 96.1633 23.6743 96.1633C23.3933 96.1633 23.1294 96.3134 23.0179 96.633V96.2062H22.6404V98.4242ZM25.0914 98.4671C25.6105 98.4671 25.7842 98.1432 25.84 97.9694L25.8829 98.4242H26.1875V95.2366H25.7864V96.558C25.7156 96.4142 25.4839 96.1633 25.0592 96.1633C24.4586 96.1633 24.154 96.6159 24.154 97.3066C24.154 98.066 24.5144 98.4671 25.0914 98.4671ZM25.1622 98.1625C24.7632 98.1625 24.553 97.8429 24.553 97.2873C24.553 96.7189 24.8039 96.4722 25.1686 96.4722C25.6105 96.4722 25.7821 96.7682 25.7864 97.2873C25.7864 97.9072 25.6105 98.1625 25.1622 98.1625ZM27.9673 95.3224V98.4242H28.3748V97.0385H29.7434V96.6953H28.3748V95.6699H29.8978L29.9 95.3224H27.9673ZM31.2583 98.4671C31.919 98.4671 32.2686 98.0016 32.2686 97.3238C32.2686 96.5773 31.8718 96.1633 31.2604 96.1633C30.604 96.1633 30.2415 96.6288 30.2415 97.3238C30.2415 98.0638 30.6426 98.4671 31.2583 98.4671ZM31.2604 98.1539C30.8164 98.1539 30.6362 97.7828 30.6362 97.3152C30.6362 96.7875 30.8571 96.4743 31.2604 96.4743C31.6959 96.4743 31.8761 96.8411 31.8761 97.3152C31.8761 97.8364 31.6573 98.1539 31.2604 98.1539ZM33.6841 98.4671C34.3447 98.4671 34.6944 98.0016 34.6944 97.3238C34.6944 96.5773 34.2976 96.1633 33.6862 96.1633C33.0298 96.1633 32.6673 96.6288 32.6673 97.3238C32.6673 98.0638 33.0684 98.4671 33.6841 98.4671ZM33.6862 98.1539C33.2422 98.1539 33.062 97.7828 33.062 97.3152C33.062 96.7875 33.2829 96.4743 33.6862 96.4743C34.1217 96.4743 34.3018 96.8411 34.3018 97.3152C34.3018 97.8364 34.083 98.1539 33.6862 98.1539ZM36.2495 96.4958V96.204H35.7497V95.5605H35.458L35.3615 96.2062H34.9904V96.4958H35.3508V97.8879C35.3508 98.244 35.473 98.4349 35.9342 98.4349C36.0951 98.4349 36.2066 98.4199 36.2624 98.3985V98.1325H36.02C35.8119 98.1325 35.7497 98.111 35.7497 97.8751V96.4958H36.2495ZM37.0218 97.4074H38.6113V97.2616C38.6113 96.588 38.2638 96.1633 37.6396 96.1633C36.9939 96.1633 36.6206 96.6373 36.6206 97.3366C36.6206 98.0445 37.0475 98.4671 37.6674 98.4671C38.0986 98.4671 38.5148 98.229 38.5963 97.7764H38.223C38.1673 98.0274 37.9442 98.1603 37.661 98.1603C37.2298 98.1603 37.0218 97.8279 37.0218 97.4074ZM37.0239 97.1393C37.0218 96.8089 37.2191 96.4636 37.6374 96.4636C38.0385 96.4636 38.2295 96.7575 38.2295 97.1393H37.0239ZM39.16 98.4242H39.5547V97.0449C39.5547 96.676 39.8422 96.5258 40.1961 96.5494C40.2411 96.5494 40.3205 96.5558 40.3634 96.5751V96.1912C40.3269 96.1719 40.2583 96.1633 40.194 96.1633C39.9129 96.1633 39.6491 96.3134 39.5376 96.633V96.2062H39.16V98.4242Z" fill="#6C757D"/>
<path d="M89.8877 97.0416L89.4373 96.7902C89.4897 96.5389 89.4897 96.298 89.4373 96.0466L89.8877 95.7952C89.9401 95.7638 89.961 95.7009 89.9401 95.6486C89.8249 95.2715 89.6259 94.9363 89.3745 94.6535C89.3326 94.6116 89.2698 94.6012 89.2174 94.6326L88.767 94.884C88.5785 94.7269 88.369 94.6012 88.1386 94.5174V94.0041C88.1386 93.9518 88.0967 93.8994 88.0338 93.8889C87.6463 93.7947 87.2587 93.8051 86.8921 93.8889C86.8293 93.8994 86.7979 93.9518 86.7979 94.0041V94.5174C86.557 94.6012 86.3475 94.7269 86.159 94.8944L85.7086 94.6326C85.6562 94.6012 85.5934 94.6116 85.5515 94.6535C85.3001 94.9363 85.1011 95.2715 84.9859 95.6486C84.9649 95.7009 84.9859 95.7638 85.0382 95.7952L85.4886 96.0466C85.4467 96.298 85.4467 96.5389 85.4886 96.7902L85.0382 97.0416C84.9859 97.073 84.9649 97.1359 84.9859 97.1883C85.1011 97.5653 85.3001 97.9005 85.5515 98.1833C85.5934 98.2252 85.6562 98.2357 85.7086 98.2042L86.159 97.9529C86.3475 98.11 86.557 98.2357 86.7979 98.3195V98.8327C86.7979 98.8851 86.8398 98.9374 86.8921 98.9584C87.2797 99.0422 87.6672 99.0317 88.0338 98.9584C88.0967 98.9374 88.1386 98.8851 88.1386 98.8327V98.3195C88.369 98.2357 88.5785 98.11 88.767 97.9529L89.2174 98.2042C89.2698 98.2357 89.3326 98.2252 89.3745 98.1833C89.6363 97.9005 89.8249 97.5653 89.9506 97.1883C89.961 97.1359 89.9401 97.073 89.8877 97.0416ZM87.4682 97.2511C86.9969 97.2511 86.6303 96.8845 86.6303 96.4132C86.6303 95.9523 86.9969 95.5753 87.4682 95.5753C87.9291 95.5753 88.3061 95.9523 88.3061 96.4132C88.3061 96.8845 87.9291 97.2511 87.4682 97.2511Z" fill="#6C757D"/>
<path d="M101.25 97.0416L100.8 96.7902C100.852 96.5389 100.852 96.298 100.8 96.0466L101.25 95.7952C101.303 95.7638 101.324 95.7009 101.303 95.6486C101.188 95.2715 100.989 94.9363 100.737 94.6535C100.695 94.6116 100.632 94.6012 100.58 94.6326L100.13 94.884C99.9411 94.7269 99.7317 94.6012 99.5012 94.5174V94.0041C99.5012 93.9518 99.4593 93.8994 99.3965 93.8889C99.009 93.7947 98.6214 93.8051 98.2548 93.8889C98.192 93.8994 98.1606 93.9518 98.1606 94.0041V94.5174C97.9197 94.6012 97.7102 94.7269 97.5216 94.8944L97.0713 94.6326C97.0189 94.6012 96.956 94.6116 96.9141 94.6535C96.6628 94.9363 96.4638 95.2715 96.3485 95.6486C96.3276 95.7009 96.3485 95.7638 96.4009 95.7952L96.8513 96.0466C96.8094 96.298 96.8094 96.5389 96.8513 96.7902L96.4009 97.0416C96.3485 97.073 96.3276 97.1359 96.3485 97.1883C96.4638 97.5653 96.6628 97.9005 96.9141 98.1833C96.956 98.2252 97.0189 98.2357 97.0713 98.2042L97.5216 97.9529C97.7102 98.11 97.9197 98.2357 98.1606 98.3195V98.8327C98.1606 98.8851 98.2024 98.9374 98.2548 98.9584C98.6424 99.0422 99.0299 99.0317 99.3965 98.9584C99.4593 98.9374 99.5012 98.8851 99.5012 98.8327V98.3195C99.7317 98.2357 99.9411 98.11 100.13 97.9529L100.58 98.2042C100.632 98.2357 100.695 98.2252 100.737 98.1833C100.999 97.9005 101.188 97.5653 101.313 97.1883C101.324 97.1359 101.303 97.073 101.25 97.0416ZM98.8309 97.2511C98.3596 97.2511 97.993 96.8845 97.993 96.4132C97.993 95.9523 98.3596 95.5753 98.8309 95.5753C99.2918 95.5753 99.6688 95.9523 99.6688 96.4132C99.6688 96.8845 99.2918 97.2511 98.8309 97.2511Z" fill="#6C757D"/>
<rect x="14.3352" y="90.7428" width="93.1771" height="0.335169" fill="#DEE2E6"/>
<path d="M15.3407 16.3352H106.507V15.6648H15.3407V16.3352ZM107.512 17.3407V101.803H108.183V17.3407H107.512ZM106.507 102.809H15.3407V103.479H106.507V102.809ZM14.3352 101.803V17.3407H13.6648V101.803H14.3352ZM15.3407 102.809C14.7853 102.809 14.3352 102.359 14.3352 101.803H13.6648C13.6648 102.729 14.4151 103.479 15.3407 103.479V102.809ZM107.512 101.803C107.512 102.359 107.062 102.809 106.507 102.809V103.479C107.432 103.479 108.183 102.729 108.183 101.803H107.512ZM106.507 16.3352C107.062 16.3352 107.512 16.7854 107.512 17.3407H108.183C108.183 16.4151 107.432 15.6648 106.507 15.6648V16.3352ZM15.3407 15.6648C14.4151 15.6648 13.6648 16.4151 13.6648 17.3407H14.3352C14.3352 16.7854 14.7854 16.3352 15.3407 16.3352V15.6648Z" fill="#DEE2E6"/>
</g>
<g filter="url(#filter1_d)">
<path d="M114.492 17.3407C114.492 16.6002 115.092 16 115.832 16H206.998C207.739 16 208.339 16.6002 208.339 17.3407V101.803C208.339 102.544 207.739 103.144 206.998 103.144H115.832C115.092 103.144 114.492 102.544 114.492 101.803V17.3407Z" fill="white"/>
<rect x="114.827" y="28.4012" width="93.1771" height="0.335169" fill="#DEE2E6"/>
<path d="M119.059 20.8718C118.218 20.8718 117.74 21.4446 117.74 22.4549C117.74 23.4674 118.222 24.0594 119.059 24.0594C119.799 24.0594 120.166 23.5704 120.23 23.0405H119.808C119.737 23.403 119.484 23.7141 119.048 23.7141C118.482 23.7141 118.179 23.3237 118.179 22.4592C118.179 21.6012 118.482 21.2172 119.048 21.2172C119.484 21.2172 119.737 21.5068 119.808 21.8715H120.23C120.172 21.3287 119.713 20.8718 119.059 20.8718ZM121.383 24.0594C121.7 24.0594 121.973 23.9458 122.144 23.6004L122.174 24.0165H122.513V22.4678C122.513 22.0045 122.226 21.7556 121.649 21.7556C121.11 21.7556 120.78 21.9937 120.756 22.4249H121.106C121.16 22.161 121.374 22.0495 121.629 22.0474C121.97 22.0474 122.129 22.219 122.129 22.4892V22.663L121.734 22.6737C120.975 22.6909 120.651 22.9247 120.651 23.4159C120.651 23.8213 120.952 24.0594 121.383 24.0594ZM121.501 23.7741C121.228 23.7741 121.035 23.6283 121.035 23.3773C121.035 23.0491 121.29 22.9225 121.801 22.914L122.129 22.9075V23.2872C122.129 23.5339 121.799 23.7741 121.501 23.7741ZM123.132 24.0165H123.527V22.6373C123.527 22.2683 123.814 22.1181 124.168 22.1417C124.213 22.1417 124.292 22.1482 124.335 22.1675V21.7835C124.299 21.7642 124.23 21.7556 124.166 21.7556C123.885 21.7556 123.621 21.9058 123.509 22.2254V21.7985H123.132V24.0165ZM125.583 24.0594C126.102 24.0594 126.276 23.7355 126.332 23.5618L126.374 24.0165H126.679V20.8289H126.278V22.1503C126.207 22.0066 125.976 21.7556 125.551 21.7556C124.95 21.7556 124.646 22.2082 124.646 22.899C124.646 23.6583 125.006 24.0594 125.583 24.0594ZM125.654 23.7548C125.255 23.7548 125.045 23.4352 125.045 22.8796C125.045 22.3112 125.296 22.0645 125.66 22.0645C126.102 22.0645 126.274 22.3605 126.278 22.8796C126.278 23.4996 126.102 23.7548 125.654 23.7548ZM130.529 22.5858V24.0165H130.926V20.9147H130.529V22.2361H128.856V20.9147H128.459V24.0165H128.856V22.5858H130.529ZM131.924 22.9998H133.514V22.8539C133.514 22.1803 133.166 21.7556 132.542 21.7556C131.897 21.7556 131.523 22.2297 131.523 22.929C131.523 23.6369 131.95 24.0594 132.57 24.0594C133.001 24.0594 133.417 23.8213 133.499 23.3687H133.126C133.07 23.6197 132.847 23.7527 132.564 23.7527C132.132 23.7527 131.924 23.4202 131.924 22.9998ZM131.927 22.7316C131.924 22.4013 132.122 22.0559 132.54 22.0559C132.941 22.0559 133.132 22.3498 133.132 22.7316H131.927ZM134.655 24.0594C134.973 24.0594 135.245 23.9458 135.417 23.6004L135.447 24.0165H135.786V22.4678C135.786 22.0045 135.498 21.7556 134.921 21.7556C134.383 21.7556 134.053 21.9937 134.029 22.4249H134.379C134.432 22.161 134.647 22.0495 134.902 22.0474C135.243 22.0474 135.402 22.219 135.402 22.4892V22.663L135.007 22.6737C134.248 22.6909 133.924 22.9247 133.924 23.4159C133.924 23.8213 134.224 24.0594 134.655 24.0594ZM134.773 23.7741C134.501 23.7741 134.308 23.6283 134.308 23.3773C134.308 23.0491 134.563 22.9225 135.074 22.914L135.402 22.9075V23.2872C135.402 23.5339 135.072 23.7741 134.773 23.7741ZM137.213 24.0594C137.732 24.0594 137.906 23.7355 137.962 23.5618L138.005 24.0165H138.309V20.8289H137.908V22.1503C137.838 22.0066 137.606 21.7556 137.181 21.7556C136.581 21.7556 136.276 22.2082 136.276 22.899C136.276 23.6583 136.636 24.0594 137.213 24.0594ZM137.284 23.7548C136.885 23.7548 136.675 23.4352 136.675 22.8796C136.675 22.3112 136.926 22.0645 137.291 22.0645C137.732 22.0645 137.904 22.3605 137.908 22.8796C137.908 23.4996 137.732 23.7548 137.284 23.7548ZM139.256 22.9998H140.846V22.8539C140.846 22.1803 140.498 21.7556 139.874 21.7556C139.228 21.7556 138.855 22.2297 138.855 22.929C138.855 23.6369 139.282 24.0594 139.902 24.0594C140.333 24.0594 140.749 23.8213 140.831 23.3687H140.457C140.402 23.6197 140.179 23.7527 139.895 23.7527C139.464 23.7527 139.256 23.4202 139.256 22.9998ZM139.258 22.7316C139.256 22.4013 139.454 22.0559 139.872 22.0559C140.273 22.0559 140.464 22.3498 140.464 22.7316H139.258ZM141.394 24.0165H141.789V22.6373C141.789 22.2683 142.077 22.1181 142.431 22.1417C142.476 22.1417 142.555 22.1482 142.598 22.1675V21.7835C142.561 21.7642 142.493 21.7556 142.428 21.7556C142.147 21.7556 141.884 21.9058 141.772 22.2254V21.7985H141.394V24.0165Z" fill="#6C757D"/>
<rect width="93.1771" height="35.1928" transform="translate(114.827 28.7365)" fill="#DEE2E6"/>
<line y1="-0.167585" x2="98.3076" y2="-0.167585" transform="matrix(0.937584 0.347758 -0.937584 0.347758 115.162 29.4068)" stroke="#C6C6C6" stroke-width="0.335169"/>
<line y1="-0.167585" x2="98.3076" y2="-0.167585" transform="matrix(0.937584 -0.347758 0.937584 0.347758 115.497 63.5941)" stroke="#C6C6C6" stroke-width="0.335169"/>
<rect x="158.399" y="44.1542" width="6.03305" height="4.69237" fill="#DEE2E6"/>
<path d="M164.287 49.4784C164.627 49.4784 164.915 49.2034 164.915 48.85V45.0793C164.915 44.7389 164.627 44.4509 164.287 44.4509H158.84C158.487 44.4509 158.212 44.7389 158.212 45.0793V48.85C158.212 49.2034 158.487 49.4784 158.84 49.4784H164.287ZM159.678 45.184C160.071 45.184 160.411 45.5244 160.411 45.9172C160.411 46.3231 160.071 46.6504 159.678 46.6504C159.272 46.6504 158.945 46.3231 158.945 45.9172C158.945 45.5244 159.272 45.184 159.678 45.184ZM159.05 48.6405V48.012L159.979 47.0825C160.045 47.017 160.137 47.017 160.202 47.0825L160.935 47.8025L162.703 46.0351C162.768 45.9696 162.86 45.9696 162.925 46.0351L164.077 47.1741V48.6405H159.05Z" fill="#6C757D"/>
<path d="M142.763 78.9844L142.154 77.5772C142.45 77.4657 142.754 77.234 142.754 76.7299C142.754 76.2022 142.417 75.8826 141.746 75.8826H140.545V78.9844H140.942V77.648H141.776L142.342 78.9844H142.763ZM141.617 77.3198H140.942V76.2065H141.712C142.109 76.2065 142.349 76.3888 142.349 76.7535C142.349 77.1289 142.083 77.3198 141.617 77.3198ZM143.587 77.9676H145.177V77.8217C145.177 77.1482 144.829 76.7235 144.205 76.7235C143.559 76.7235 143.186 77.1975 143.186 77.8968C143.186 78.6047 143.613 79.0273 144.233 79.0273C144.664 79.0273 145.08 78.7892 145.162 78.3366H144.788C144.733 78.5875 144.51 78.7205 144.226 78.7205C143.795 78.7205 143.587 78.388 143.587 77.9676ZM143.589 77.6995C143.587 77.3691 143.785 77.0238 144.203 77.0238C144.604 77.0238 144.795 77.3176 144.795 77.6995H143.589ZM145.725 79.6751H146.124V78.5832C146.217 78.772 146.425 79.0273 146.822 79.0273C147.405 79.0273 147.753 78.6068 147.753 77.8453C147.753 77.0817 147.384 76.7235 146.854 76.7235C146.446 76.7235 146.225 76.9701 146.124 77.1525L146.12 76.7664H145.725V79.6751ZM146.747 78.7184C146.335 78.7184 146.12 78.3366 146.12 77.8582C146.12 77.3691 146.335 77.0323 146.747 77.0323C147.152 77.0323 147.369 77.3541 147.369 77.8582C147.369 78.4481 147.111 78.7184 146.747 78.7184ZM148.841 79.0123C148.897 79.0123 148.974 78.9994 149.041 78.9779V78.7205L148.92 78.7184C148.764 78.7077 148.672 78.6004 148.672 78.3752V75.7968H148.281V78.4138C148.281 78.7248 148.363 79.0123 148.841 79.0123ZM150.181 79.0273C150.499 79.0273 150.771 78.9136 150.943 78.5682L150.973 78.9844H151.312V77.4356C151.312 76.9723 151.024 76.7235 150.447 76.7235C149.909 76.7235 149.578 76.9616 149.555 77.3927H149.904C149.958 77.1289 150.172 77.0173 150.428 77.0152C150.769 77.0152 150.928 77.1868 150.928 77.4571V77.6308L150.533 77.6416C149.773 77.6587 149.45 77.8925 149.45 78.3838C149.45 78.7892 149.75 79.0273 150.181 79.0273ZM150.299 78.742C150.027 78.742 149.834 78.5961 149.834 78.3451C149.834 78.0169 150.089 77.8904 150.599 77.8818L150.928 77.8754V78.255C150.928 78.5017 150.597 78.742 150.299 78.742ZM152.823 76.7235C152.168 76.7235 151.802 77.1932 151.802 77.8839C151.802 78.6283 152.222 79.0273 152.823 79.0273C153.292 79.0273 153.653 78.7463 153.711 78.3001H153.365C153.327 78.5232 153.134 78.7248 152.829 78.7248C152.404 78.7248 152.181 78.3923 152.181 77.8797C152.181 77.3134 152.445 77.0431 152.825 77.0431C153.129 77.0431 153.322 77.234 153.361 77.4678H153.713C153.653 77.0152 153.299 76.7235 152.823 76.7235ZM154.539 77.9676H156.128V77.8217C156.128 77.1482 155.781 76.7235 155.157 76.7235C154.511 76.7235 154.138 77.1975 154.138 77.8968C154.138 78.6047 154.565 79.0273 155.185 79.0273C155.616 79.0273 156.032 78.7892 156.113 78.3366H155.74C155.684 78.5875 155.461 78.7205 155.178 78.7205C154.747 78.7205 154.539 78.388 154.539 77.9676ZM154.541 77.6995C154.539 77.3691 154.736 77.0238 155.155 77.0238C155.556 77.0238 155.747 77.3176 155.747 77.6995H154.541ZM160.581 76.7664H160.21L159.723 78.4674H159.689L159.17 76.7664H158.869L158.37 78.4717H158.335L157.829 76.7664H157.46L158.147 78.9844H158.533L159.015 77.3477L159.519 78.9844H159.91L160.581 76.7664ZM161.44 75.8847H161.034V76.2966H161.44V75.8847ZM161.429 76.7664H161.045V78.9844H161.429V76.7664ZM163.223 77.0559V76.7642H162.723V76.1207H162.431L162.335 76.7664H161.963V77.0559H162.324V78.4481C162.324 78.8042 162.446 78.9951 162.907 78.9951C163.068 78.9951 163.18 78.9801 163.236 78.9586V78.6926H162.993C162.785 78.6926 162.723 78.6712 162.723 78.4352V77.0559H163.223ZM163.762 78.9844H164.156V77.5043C164.156 77.2061 164.427 77.0624 164.727 77.0624C165.019 77.0624 165.218 77.2147 165.218 77.4785V78.9844H165.615V77.3992C165.615 76.9937 165.274 76.7385 164.841 76.7385C164.485 76.7385 164.259 76.9101 164.148 77.0924V75.7968H163.762V78.9844ZM168.5 75.8397C167.659 75.8397 167.18 76.4124 167.18 77.4228C167.18 78.4352 167.663 79.0273 168.5 79.0273C169.24 79.0273 169.606 78.5382 169.671 78.0084H169.248C169.177 78.3709 168.924 78.6819 168.489 78.6819C167.923 78.6819 167.62 78.2915 167.62 77.427C167.62 76.569 167.923 76.185 168.489 76.185C168.924 76.185 169.177 76.4746 169.248 76.8393H169.671C169.613 76.2966 169.154 75.8397 168.5 75.8397ZM171.11 79.0273C171.771 79.0273 172.121 78.5618 172.121 77.8839C172.121 77.1375 171.724 76.7235 171.112 76.7235C170.456 76.7235 170.093 77.1889 170.093 77.8839C170.093 78.624 170.495 79.0273 171.11 79.0273ZM171.112 78.7141C170.668 78.7141 170.488 78.343 170.488 77.8754C170.488 77.3477 170.709 77.0345 171.112 77.0345C171.548 77.0345 171.728 77.4013 171.728 77.8754C171.728 78.3966 171.509 78.7141 171.112 78.7141ZM172.648 78.9844H173.043V77.5021C173.043 77.204 173.317 77.0624 173.618 77.0624C173.907 77.0624 174.107 77.2276 174.107 77.5729V78.9844H174.503V77.5343C174.503 76.9766 174.147 76.7342 173.727 76.7342C173.371 76.7342 173.141 76.9036 173.032 77.0881V76.7664H172.648V78.9844ZM176.16 77.0559V76.7642H175.66V76.1207H175.369L175.272 76.7664H174.901V77.0559H175.261V78.4481C175.261 78.8042 175.384 78.9951 175.845 78.9951C176.006 78.9951 176.117 78.9801 176.173 78.9586V78.6926H175.931C175.723 78.6926 175.66 78.6712 175.66 78.4352V77.0559H176.16ZM176.932 77.9676H178.522V77.8217C178.522 77.1482 178.174 76.7235 177.55 76.7235C176.905 76.7235 176.531 77.1975 176.531 77.8968C176.531 78.6047 176.958 79.0273 177.578 79.0273C178.009 79.0273 178.425 78.7892 178.507 78.3366H178.134C178.078 78.5875 177.855 78.7205 177.572 78.7205C177.14 78.7205 176.932 78.388 176.932 77.9676ZM176.935 77.6995C176.932 77.3691 177.13 77.0238 177.548 77.0238C177.949 77.0238 178.14 77.3176 178.14 77.6995H176.935ZM179.071 78.9844H179.465V77.5021C179.465 77.204 179.74 77.0624 180.04 77.0624C180.33 77.0624 180.529 77.2276 180.529 77.5729V78.9844H180.926V77.5343C180.926 76.9766 180.57 76.7342 180.15 76.7342C179.794 76.7342 179.564 76.9036 179.455 77.0881V76.7664H179.071V78.9844ZM182.583 77.0559V76.7642H182.083V76.1207H181.791L181.695 76.7664H181.324V77.0559H181.684V78.4481C181.684 78.8042 181.806 78.9951 182.268 78.9951C182.428 78.9951 182.54 78.9801 182.596 78.9586V78.6926H182.353C182.145 78.6926 182.083 78.6712 182.083 78.4352V77.0559H182.583Z" fill="#6C757D"/>
<path d="M119.059 95.2795C118.218 95.2795 117.74 95.8522 117.74 96.8626C117.74 97.8751 118.222 98.4671 119.059 98.4671C119.799 98.4671 120.166 97.978 120.23 97.4482H119.808C119.737 97.8107 119.484 98.1217 119.048 98.1217C118.482 98.1217 118.179 97.7313 118.179 96.8669C118.179 96.0088 118.482 95.6249 119.048 95.6249C119.484 95.6249 119.737 95.9144 119.808 96.2791H120.23C120.172 95.7364 119.713 95.2795 119.059 95.2795ZM121.383 98.4671C121.7 98.4671 121.973 98.3534 122.144 98.008L122.174 98.4242H122.513V96.8754C122.513 96.4121 122.226 96.1633 121.649 96.1633C121.11 96.1633 120.78 96.4014 120.756 96.8325H121.106C121.16 96.5687 121.374 96.4572 121.629 96.455C121.97 96.455 122.129 96.6266 122.129 96.8969V97.0706L121.734 97.0814C120.975 97.0985 120.651 97.3323 120.651 97.8236C120.651 98.229 120.952 98.4671 121.383 98.4671ZM121.501 98.1818C121.228 98.1818 121.035 98.0359 121.035 97.785C121.035 97.4568 121.29 97.3302 121.801 97.3216L122.129 97.3152V97.6949C122.129 97.9416 121.799 98.1818 121.501 98.1818ZM123.132 98.4242H123.527V97.0449C123.527 96.676 123.814 96.5258 124.168 96.5494C124.213 96.5494 124.292 96.5558 124.335 96.5751V96.1912C124.299 96.1719 124.23 96.1633 124.166 96.1633C123.885 96.1633 123.621 96.3134 123.509 96.633V96.2062H123.132V98.4242ZM125.583 98.4671C126.102 98.4671 126.276 98.1432 126.332 97.9694L126.374 98.4242H126.679V95.2366H126.278V96.558C126.207 96.4142 125.976 96.1633 125.551 96.1633C124.95 96.1633 124.646 96.6159 124.646 97.3066C124.646 98.066 125.006 98.4671 125.583 98.4671ZM125.654 98.1625C125.255 98.1625 125.045 97.8429 125.045 97.2873C125.045 96.7189 125.296 96.4722 125.66 96.4722C126.102 96.4722 126.274 96.7682 126.278 97.2873C126.278 97.9072 126.102 98.1625 125.654 98.1625ZM128.459 95.3224V98.4242H128.866V97.0385H130.235V96.6953H128.866V95.6699H130.389L130.392 95.3224H128.459ZM131.75 98.4671C132.411 98.4671 132.76 98.0016 132.76 97.3238C132.76 96.5773 132.363 96.1633 131.752 96.1633C131.096 96.1633 130.733 96.6288 130.733 97.3238C130.733 98.0638 131.134 98.4671 131.75 98.4671ZM131.752 98.1539C131.308 98.1539 131.128 97.7828 131.128 97.3152C131.128 96.7875 131.349 96.4743 131.752 96.4743C132.187 96.4743 132.368 96.8411 132.368 97.3152C132.368 97.8364 132.149 98.1539 131.752 98.1539ZM134.176 98.4671C134.836 98.4671 135.186 98.0016 135.186 97.3238C135.186 96.5773 134.789 96.1633 134.178 96.1633C133.521 96.1633 133.159 96.6288 133.159 97.3238C133.159 98.0638 133.56 98.4671 134.176 98.4671ZM134.178 98.1539C133.734 98.1539 133.554 97.7828 133.554 97.3152C133.554 96.7875 133.775 96.4743 134.178 96.4743C134.613 96.4743 134.793 96.8411 134.793 97.3152C134.793 97.8364 134.575 98.1539 134.178 98.1539ZM136.741 96.4958V96.204H136.241V95.5605H135.95L135.853 96.2062H135.482V96.4958H135.842V97.8879C135.842 98.244 135.965 98.4349 136.426 98.4349C136.587 98.4349 136.698 98.4199 136.754 98.3985V98.1325H136.512C136.304 98.1325 136.241 98.111 136.241 97.8751V96.4958H136.741ZM137.513 97.4074H139.103V97.2616C139.103 96.588 138.755 96.1633 138.131 96.1633C137.485 96.1633 137.112 96.6373 137.112 97.3366C137.112 98.0445 137.539 98.4671 138.159 98.4671C138.59 98.4671 139.006 98.229 139.088 97.7764H138.715C138.659 98.0274 138.436 98.1603 138.153 98.1603C137.721 98.1603 137.513 97.8279 137.513 97.4074ZM137.515 97.1393C137.513 96.8089 137.711 96.4636 138.129 96.4636C138.53 96.4636 138.721 96.7575 138.721 97.1393H137.515ZM139.652 98.4242H140.046V97.0449C140.046 96.676 140.334 96.5258 140.688 96.5494C140.733 96.5494 140.812 96.5558 140.855 96.5751V96.1912C140.819 96.1719 140.75 96.1633 140.686 96.1633C140.405 96.1633 140.141 96.3134 140.029 96.633V96.2062H139.652V98.4242Z" fill="#6C757D"/>
<path d="M190.379 97.0416L189.929 96.7902C189.981 96.5389 189.981 96.298 189.929 96.0466L190.379 95.7952C190.432 95.7638 190.453 95.7009 190.432 95.6486C190.316 95.2715 190.117 94.9363 189.866 94.6535C189.824 94.6116 189.761 94.6012 189.709 94.6326L189.259 94.884C189.07 94.7269 188.861 94.6012 188.63 94.5174V94.0041C188.63 93.9518 188.588 93.8994 188.525 93.8889C188.138 93.7947 187.75 93.8051 187.384 93.8889C187.321 93.8994 187.289 93.9518 187.289 94.0041V94.5174C187.049 94.6012 186.839 94.7269 186.651 94.8944L186.2 94.6326C186.148 94.6012 186.085 94.6116 186.043 94.6535C185.792 94.9363 185.593 95.2715 185.477 95.6486C185.457 95.7009 185.477 95.7638 185.53 95.7952L185.98 96.0466C185.938 96.298 185.938 96.5389 185.98 96.7902L185.53 97.0416C185.477 97.073 185.457 97.1359 185.477 97.1883C185.593 97.5653 185.792 97.9005 186.043 98.1833C186.085 98.2252 186.148 98.2357 186.2 98.2042L186.651 97.9529C186.839 98.11 187.049 98.2357 187.289 98.3195V98.8327C187.289 98.8851 187.331 98.9374 187.384 98.9584C187.771 99.0422 188.159 99.0317 188.525 98.9584C188.588 98.9374 188.63 98.8851 188.63 98.8327V98.3195C188.861 98.2357 189.07 98.11 189.259 97.9529L189.709 98.2042C189.761 98.2357 189.824 98.2252 189.866 98.1833C190.128 97.9005 190.316 97.5653 190.442 97.1883C190.453 97.1359 190.432 97.073 190.379 97.0416ZM187.96 97.2511C187.488 97.2511 187.122 96.8845 187.122 96.4132C187.122 95.9523 187.488 95.5753 187.96 95.5753C188.421 95.5753 188.798 95.9523 188.798 96.4132C188.798 96.8845 188.421 97.2511 187.96 97.2511Z" fill="#6C757D"/>
<path d="M201.742 97.0416L201.292 96.7902C201.344 96.5389 201.344 96.298 201.292 96.0466L201.742 95.7952C201.794 95.7638 201.815 95.7009 201.794 95.6486C201.679 95.2715 201.48 94.9363 201.229 94.6535C201.187 94.6116 201.124 94.6012 201.072 94.6326L200.621 94.884C200.433 94.7269 200.223 94.6012 199.993 94.5174V94.0041C199.993 93.9518 199.951 93.8994 199.888 93.8889C199.501 93.7947 199.113 93.8051 198.746 93.8889C198.684 93.8994 198.652 93.9518 198.652 94.0041V94.5174C198.411 94.6012 198.202 94.7269 198.013 94.8944L197.563 94.6326C197.51 94.6012 197.448 94.6116 197.406 94.6535C197.154 94.9363 196.955 95.2715 196.84 95.6486C196.819 95.7009 196.84 95.7638 196.892 95.7952L197.343 96.0466C197.301 96.298 197.301 96.5389 197.343 96.7902L196.892 97.0416C196.84 97.073 196.819 97.1359 196.84 97.1883C196.955 97.5653 197.154 97.9005 197.406 98.1833C197.448 98.2252 197.51 98.2357 197.563 98.2042L198.013 97.9529C198.202 98.11 198.411 98.2357 198.652 98.3195V98.8327C198.652 98.8851 198.694 98.9374 198.746 98.9584C199.134 99.0422 199.521 99.0317 199.888 98.9584C199.951 98.9374 199.993 98.8851 199.993 98.8327V98.3195C200.223 98.2357 200.433 98.11 200.621 97.9529L201.072 98.2042C201.124 98.2357 201.187 98.2252 201.229 98.1833C201.491 97.9005 201.679 97.5653 201.805 97.1883C201.815 97.1359 201.794 97.073 201.742 97.0416ZM199.322 97.2511C198.851 97.2511 198.485 96.8845 198.485 96.4132C198.485 95.9523 198.851 95.5753 199.322 95.5753C199.783 95.5753 200.16 95.9523 200.16 96.4132C200.16 96.8845 199.783 97.2511 199.322 97.2511Z" fill="#6C757D"/>
<rect x="114.827" y="90.7428" width="93.1771" height="0.335169" fill="#DEE2E6"/>
<path d="M115.832 16.3352H206.998V15.6648H115.832V16.3352ZM208.004 17.3407V101.803H208.674V17.3407H208.004ZM206.998 102.809H115.832V103.479H206.998V102.809ZM114.827 101.803V17.3407H114.156V101.803H114.827ZM115.832 102.809C115.277 102.809 114.827 102.359 114.827 101.803H114.156C114.156 102.729 114.907 103.479 115.832 103.479V102.809ZM208.004 101.803C208.004 102.359 207.554 102.809 206.998 102.809V103.479C207.924 103.479 208.674 102.729 208.674 101.803H208.004ZM206.998 16.3352C207.554 16.3352 208.004 16.7854 208.004 17.3407H208.674C208.674 16.4151 207.924 15.6648 206.998 15.6648V16.3352ZM115.832 15.6648C114.907 15.6648 114.156 16.4151 114.156 17.3407H114.827C114.827 16.7854 115.277 16.3352 115.832 16.3352V15.6648Z" fill="#DEE2E6"/>
</g>
<g filter="url(#filter2_d)">
<path d="M214.153 17.3407C214.153 16.6002 214.753 16 215.493 16H306.659C307.4 16 308 16.6002 308 17.3407V101.803C308 102.544 307.4 103.144 306.659 103.144H215.493C214.753 103.144 214.153 102.544 214.153 101.803V17.3407Z" fill="white"/>
<rect x="214.488" y="28.4012" width="93.1771" height="0.335169" fill="#DEE2E6"/>
<path d="M218.72 20.8718C217.879 20.8718 217.401 21.4446 217.401 22.4549C217.401 23.4674 217.883 24.0594 218.72 24.0594C219.46 24.0594 219.827 23.5704 219.891 23.0405H219.469C219.398 23.403 219.145 23.7141 218.709 23.7141C218.143 23.7141 217.84 23.3237 217.84 22.4592C217.84 21.6012 218.143 21.2172 218.709 21.2172C219.145 21.2172 219.398 21.5068 219.469 21.8715H219.891C219.833 21.3287 219.374 20.8718 218.72 20.8718ZM221.044 24.0594C221.361 24.0594 221.634 23.9458 221.805 23.6004L221.835 24.0165H222.174V22.4678C222.174 22.0045 221.887 21.7556 221.31 21.7556C220.771 21.7556 220.441 21.9937 220.417 22.4249H220.767C220.821 22.161 221.035 22.0495 221.29 22.0474C221.631 22.0474 221.79 22.219 221.79 22.4892V22.663L221.395 22.6737C220.636 22.6909 220.312 22.9247 220.312 23.4159C220.312 23.8213 220.613 24.0594 221.044 24.0594ZM221.162 23.7741C220.889 23.7741 220.696 23.6283 220.696 23.3773C220.696 23.0491 220.951 22.9225 221.462 22.914L221.79 22.9075V23.2872C221.79 23.5339 221.46 23.7741 221.162 23.7741ZM222.793 24.0165H223.188V22.6373C223.188 22.2683 223.475 22.1181 223.829 22.1417C223.874 22.1417 223.953 22.1482 223.996 22.1675V21.7835C223.96 21.7642 223.891 21.7556 223.827 21.7556C223.546 21.7556 223.282 21.9058 223.17 22.2254V21.7985H222.793V24.0165ZM225.244 24.0594C225.763 24.0594 225.937 23.7355 225.993 23.5618L226.036 24.0165H226.34V20.8289H225.939V22.1503C225.868 22.0066 225.637 21.7556 225.212 21.7556C224.611 21.7556 224.307 22.2082 224.307 22.899C224.307 23.6583 224.667 24.0594 225.244 24.0594ZM225.315 23.7548C224.916 23.7548 224.706 23.4352 224.706 22.8796C224.706 22.3112 224.957 22.0645 225.321 22.0645C225.763 22.0645 225.935 22.3605 225.939 22.8796C225.939 23.4996 225.763 23.7548 225.315 23.7548ZM230.19 22.5858V24.0165H230.587V20.9147H230.19V22.2361H228.517V20.9147H228.12V24.0165H228.517V22.5858H230.19ZM231.585 22.9998H233.175V22.8539C233.175 22.1803 232.827 21.7556 232.203 21.7556C231.558 21.7556 231.184 22.2297 231.184 22.929C231.184 23.6369 231.611 24.0594 232.231 24.0594C232.662 24.0594 233.078 23.8213 233.16 23.3687H232.787C232.731 23.6197 232.508 23.7527 232.225 23.7527C231.793 23.7527 231.585 23.4202 231.585 22.9998ZM231.588 22.7316C231.585 22.4013 231.783 22.0559 232.201 22.0559C232.602 22.0559 232.793 22.3498 232.793 22.7316H231.588ZM234.316 24.0594C234.634 24.0594 234.906 23.9458 235.078 23.6004L235.108 24.0165H235.447V22.4678C235.447 22.0045 235.159 21.7556 234.582 21.7556C234.044 21.7556 233.714 21.9937 233.69 22.4249H234.04C234.093 22.161 234.308 22.0495 234.563 22.0474C234.904 22.0474 235.063 22.219 235.063 22.4892V22.663L234.668 22.6737C233.909 22.6909 233.585 22.9247 233.585 23.4159C233.585 23.8213 233.885 24.0594 234.316 24.0594ZM234.434 23.7741C234.162 23.7741 233.969 23.6283 233.969 23.3773C233.969 23.0491 234.224 22.9225 234.735 22.914L235.063 22.9075V23.2872C235.063 23.5339 234.733 23.7741 234.434 23.7741ZM236.874 24.0594C237.393 24.0594 237.567 23.7355 237.623 23.5618L237.666 24.0165H237.97V20.8289H237.569V22.1503C237.499 22.0066 237.267 21.7556 236.842 21.7556C236.242 21.7556 235.937 22.2082 235.937 22.899C235.937 23.6583 236.297 24.0594 236.874 24.0594ZM236.945 23.7548C236.546 23.7548 236.336 23.4352 236.336 22.8796C236.336 22.3112 236.587 22.0645 236.952 22.0645C237.393 22.0645 237.565 22.3605 237.569 22.8796C237.569 23.4996 237.393 23.7548 236.945 23.7548ZM238.917 22.9998H240.507V22.8539C240.507 22.1803 240.159 21.7556 239.535 21.7556C238.889 21.7556 238.516 22.2297 238.516 22.929C238.516 23.6369 238.943 24.0594 239.563 24.0594C239.994 24.0594 240.41 23.8213 240.492 23.3687H240.118C240.063 23.6197 239.84 23.7527 239.556 23.7527C239.125 23.7527 238.917 23.4202 238.917 22.9998ZM238.919 22.7316C238.917 22.4013 239.115 22.0559 239.533 22.0559C239.934 22.0559 240.125 22.3498 240.125 22.7316H238.919ZM241.055 24.0165H241.45V22.6373C241.45 22.2683 241.738 22.1181 242.092 22.1417C242.137 22.1417 242.216 22.1482 242.259 22.1675V21.7835C242.222 21.7642 242.154 21.7556 242.089 21.7556C241.808 21.7556 241.545 21.9058 241.433 22.2254V21.7985H241.055V24.0165Z" fill="#6C757D"/>
<rect width="93.1771" height="35.1928" transform="translate(214.488 28.7365)" fill="#DEE2E6"/>
<line y1="-0.167585" x2="98.3076" y2="-0.167585" transform="matrix(0.937584 0.347758 -0.937584 0.347758 214.823 29.4068)" stroke="#C6C6C6" stroke-width="0.335169"/>
<line y1="-0.167585" x2="98.3076" y2="-0.167585" transform="matrix(0.937584 -0.347758 0.937584 0.347758 215.158 63.5941)" stroke="#C6C6C6" stroke-width="0.335169"/>
<rect x="258.06" y="44.1542" width="6.03305" height="4.69237" fill="#DEE2E6"/>
<path d="M263.948 49.4784C264.288 49.4784 264.576 49.2034 264.576 48.85V45.0793C264.576 44.7389 264.288 44.4509 263.948 44.4509H258.501C258.148 44.4509 257.873 44.7389 257.873 45.0793V48.85C257.873 49.2034 258.148 49.4784 258.501 49.4784H263.948ZM259.339 45.184C259.732 45.184 260.072 45.5244 260.072 45.9172C260.072 46.3231 259.732 46.6504 259.339 46.6504C258.933 46.6504 258.606 46.3231 258.606 45.9172C258.606 45.5244 258.933 45.184 259.339 45.184ZM258.711 48.6405V48.012L259.64 47.0825C259.706 47.017 259.798 47.017 259.863 47.0825L260.596 47.8025L262.364 46.0351C262.429 45.9696 262.521 45.9696 262.586 46.0351L263.738 47.1741V48.6405H258.711Z" fill="#6C757D"/>
<path d="M242.424 78.9844L241.815 77.5772C242.111 77.4657 242.415 77.234 242.415 76.7299C242.415 76.2022 242.079 75.8826 241.407 75.8826H240.206V78.9844H240.603V77.648H241.437L242.003 78.9844H242.424ZM241.278 77.3198H240.603V76.2065H241.373C241.77 76.2065 242.01 76.3888 242.01 76.7535C242.01 77.1289 241.744 77.3198 241.278 77.3198ZM243.248 77.9676H244.838V77.8217C244.838 77.1482 244.49 76.7235 243.866 76.7235C243.22 76.7235 242.847 77.1975 242.847 77.8968C242.847 78.6047 243.274 79.0273 243.894 79.0273C244.325 79.0273 244.741 78.7892 244.823 78.3366H244.449C244.394 78.5875 244.171 78.7205 243.887 78.7205C243.456 78.7205 243.248 78.388 243.248 77.9676ZM243.25 77.6995C243.248 77.3691 243.446 77.0238 243.864 77.0238C244.265 77.0238 244.456 77.3176 244.456 77.6995H243.25ZM245.386 79.6751H245.785V78.5832C245.878 78.772 246.086 79.0273 246.483 79.0273C247.066 79.0273 247.414 78.6068 247.414 77.8453C247.414 77.0817 247.045 76.7235 246.515 76.7235C246.107 76.7235 245.886 76.9701 245.785 77.1525L245.781 76.7664H245.386V79.6751ZM246.408 78.7184C245.996 78.7184 245.781 78.3366 245.781 77.8582C245.781 77.3691 245.996 77.0323 246.408 77.0323C246.813 77.0323 247.03 77.3541 247.03 77.8582C247.03 78.4481 246.772 78.7184 246.408 78.7184ZM248.502 79.0123C248.558 79.0123 248.635 78.9994 248.702 78.9779V78.7205L248.581 78.7184C248.425 78.7077 248.333 78.6004 248.333 78.3752V75.7968H247.942V78.4138C247.942 78.7248 248.024 79.0123 248.502 79.0123ZM249.842 79.0273C250.16 79.0273 250.432 78.9136 250.604 78.5682L250.634 78.9844H250.973V77.4356C250.973 76.9723 250.685 76.7235 250.108 76.7235C249.57 76.7235 249.239 76.9616 249.216 77.3927H249.565C249.619 77.1289 249.833 77.0173 250.089 77.0152C250.43 77.0152 250.589 77.1868 250.589 77.4571V77.6308L250.194 77.6416C249.435 77.6587 249.111 77.8925 249.111 78.3838C249.111 78.7892 249.411 79.0273 249.842 79.0273ZM249.96 78.742C249.688 78.742 249.495 78.5961 249.495 78.3451C249.495 78.0169 249.75 77.8904 250.26 77.8818L250.589 77.8754V78.255C250.589 78.5017 250.258 78.742 249.96 78.742ZM252.484 76.7235C251.829 76.7235 251.463 77.1932 251.463 77.8839C251.463 78.6283 251.883 79.0273 252.484 79.0273C252.953 79.0273 253.314 78.7463 253.372 78.3001H253.026C252.988 78.5232 252.795 78.7248 252.49 78.7248C252.065 78.7248 251.842 78.3923 251.842 77.8797C251.842 77.3134 252.106 77.0431 252.486 77.0431C252.79 77.0431 252.983 77.234 253.022 77.4678H253.374C253.314 77.0152 252.96 76.7235 252.484 76.7235ZM254.2 77.9676H255.789V77.8217C255.789 77.1482 255.442 76.7235 254.818 76.7235C254.172 76.7235 253.799 77.1975 253.799 77.8968C253.799 78.6047 254.226 79.0273 254.846 79.0273C255.277 79.0273 255.693 78.7892 255.774 78.3366H255.401C255.345 78.5875 255.122 78.7205 254.839 78.7205C254.408 78.7205 254.2 78.388 254.2 77.9676ZM254.202 77.6995C254.2 77.3691 254.397 77.0238 254.816 77.0238C255.217 77.0238 255.408 77.3176 255.408 77.6995H254.202ZM260.242 76.7664H259.871L259.384 78.4674H259.35L258.831 76.7664H258.53L258.031 78.4717H257.996L257.49 76.7664H257.121L257.808 78.9844H258.194L258.676 77.3477L259.18 78.9844H259.571L260.242 76.7664ZM261.101 75.8847H260.695V76.2966H261.101V75.8847ZM261.09 76.7664H260.706V78.9844H261.09V76.7664ZM262.884 77.0559V76.7642H262.384V76.1207H262.092L261.996 76.7664H261.624V77.0559H261.985V78.4481C261.985 78.8042 262.107 78.9951 262.568 78.9951C262.729 78.9951 262.841 78.9801 262.897 78.9586V78.6926H262.654C262.446 78.6926 262.384 78.6712 262.384 78.4352V77.0559H262.884ZM263.423 78.9844H263.818V77.5043C263.818 77.2061 264.088 77.0624 264.388 77.0624C264.68 77.0624 264.879 77.2147 264.879 77.4785V78.9844H265.276V77.3992C265.276 76.9937 264.935 76.7385 264.502 76.7385C264.146 76.7385 263.92 76.9101 263.809 77.0924V75.7968H263.423V78.9844ZM268.161 75.8397C267.32 75.8397 266.841 76.4124 266.841 77.4228C266.841 78.4352 267.324 79.0273 268.161 79.0273C268.901 79.0273 269.267 78.5382 269.332 78.0084H268.909C268.838 78.3709 268.585 78.6819 268.15 78.6819C267.584 78.6819 267.281 78.2915 267.281 77.427C267.281 76.569 267.584 76.185 268.15 76.185C268.585 76.185 268.838 76.4746 268.909 76.8393H269.332C269.274 76.2966 268.815 75.8397 268.161 75.8397ZM270.771 79.0273C271.432 79.0273 271.782 78.5618 271.782 77.8839C271.782 77.1375 271.385 76.7235 270.773 76.7235C270.117 76.7235 269.754 77.1889 269.754 77.8839C269.754 78.624 270.156 79.0273 270.771 79.0273ZM270.773 78.7141C270.329 78.7141 270.149 78.343 270.149 77.8754C270.149 77.3477 270.37 77.0345 270.773 77.0345C271.209 77.0345 271.389 77.4013 271.389 77.8754C271.389 78.3966 271.17 78.7141 270.773 78.7141ZM272.309 78.9844H272.704V77.5021C272.704 77.204 272.978 77.0624 273.279 77.0624C273.568 77.0624 273.768 77.2276 273.768 77.5729V78.9844H274.164V77.5343C274.164 76.9766 273.808 76.7342 273.388 76.7342C273.032 76.7342 272.802 76.9036 272.693 77.0881V76.7664H272.309V78.9844ZM275.821 77.0559V76.7642H275.321V76.1207H275.03L274.933 76.7664H274.562V77.0559H274.922V78.4481C274.922 78.8042 275.045 78.9951 275.506 78.9951C275.667 78.9951 275.778 78.9801 275.834 78.9586V78.6926H275.592C275.384 78.6926 275.321 78.6712 275.321 78.4352V77.0559H275.821ZM276.593 77.9676H278.183V77.8217C278.183 77.1482 277.835 76.7235 277.211 76.7235C276.566 76.7235 276.192 77.1975 276.192 77.8968C276.192 78.6047 276.619 79.0273 277.239 79.0273C277.67 79.0273 278.086 78.7892 278.168 78.3366H277.795C277.739 78.5875 277.516 78.7205 277.233 78.7205C276.802 78.7205 276.593 78.388 276.593 77.9676ZM276.596 77.6995C276.593 77.3691 276.791 77.0238 277.209 77.0238C277.61 77.0238 277.801 77.3176 277.801 77.6995H276.596ZM278.732 78.9844H279.126V77.5021C279.126 77.204 279.401 77.0624 279.701 77.0624C279.991 77.0624 280.19 77.2276 280.19 77.5729V78.9844H280.587V77.5343C280.587 76.9766 280.231 76.7342 279.811 76.7342C279.455 76.7342 279.225 76.9036 279.116 77.0881V76.7664H278.732V78.9844ZM282.244 77.0559V76.7642H281.744V76.1207H281.452L281.356 76.7664H280.985V77.0559H281.345V78.4481C281.345 78.8042 281.467 78.9951 281.929 78.9951C282.089 78.9951 282.201 78.9801 282.257 78.9586V78.6926H282.014C281.806 78.6926 281.744 78.6712 281.744 78.4352V77.0559H282.244Z" fill="#6C757D"/>
<path d="M218.72 95.2795C217.879 95.2795 217.401 95.8522 217.401 96.8626C217.401 97.8751 217.883 98.4671 218.72 98.4671C219.46 98.4671 219.827 97.978 219.891 97.4482H219.469C219.398 97.8107 219.145 98.1217 218.709 98.1217C218.143 98.1217 217.84 97.7313 217.84 96.8669C217.84 96.0088 218.143 95.6249 218.709 95.6249C219.145 95.6249 219.398 95.9144 219.469 96.2791H219.891C219.833 95.7364 219.374 95.2795 218.72 95.2795ZM221.044 98.4671C221.361 98.4671 221.634 98.3534 221.805 98.008L221.835 98.4242H222.174V96.8754C222.174 96.4121 221.887 96.1633 221.31 96.1633C220.771 96.1633 220.441 96.4014 220.417 96.8325H220.767C220.821 96.5687 221.035 96.4572 221.29 96.455C221.631 96.455 221.79 96.6266 221.79 96.8969V97.0706L221.395 97.0814C220.636 97.0985 220.312 97.3323 220.312 97.8236C220.312 98.229 220.613 98.4671 221.044 98.4671ZM221.162 98.1818C220.889 98.1818 220.696 98.0359 220.696 97.785C220.696 97.4568 220.951 97.3302 221.462 97.3216L221.79 97.3152V97.6949C221.79 97.9416 221.46 98.1818 221.162 98.1818ZM222.793 98.4242H223.188V97.0449C223.188 96.676 223.475 96.5258 223.829 96.5494C223.874 96.5494 223.953 96.5558 223.996 96.5751V96.1912C223.96 96.1719 223.891 96.1633 223.827 96.1633C223.546 96.1633 223.282 96.3134 223.17 96.633V96.2062H222.793V98.4242ZM225.244 98.4671C225.763 98.4671 225.937 98.1432 225.993 97.9694L226.036 98.4242H226.34V95.2366H225.939V96.558C225.868 96.4142 225.637 96.1633 225.212 96.1633C224.611 96.1633 224.307 96.6159 224.307 97.3066C224.307 98.066 224.667 98.4671 225.244 98.4671ZM225.315 98.1625C224.916 98.1625 224.706 97.8429 224.706 97.2873C224.706 96.7189 224.957 96.4722 225.321 96.4722C225.763 96.4722 225.935 96.7682 225.939 97.2873C225.939 97.9072 225.763 98.1625 225.315 98.1625ZM228.12 95.3224V98.4242H228.527V97.0385H229.896V96.6953H228.527V95.6699H230.05L230.053 95.3224H228.12ZM231.411 98.4671C232.072 98.4671 232.421 98.0016 232.421 97.3238C232.421 96.5773 232.024 96.1633 231.413 96.1633C230.757 96.1633 230.394 96.6288 230.394 97.3238C230.394 98.0638 230.795 98.4671 231.411 98.4671ZM231.413 98.1539C230.969 98.1539 230.789 97.7828 230.789 97.3152C230.789 96.7875 231.01 96.4743 231.413 96.4743C231.848 96.4743 232.029 96.8411 232.029 97.3152C232.029 97.8364 231.81 98.1539 231.413 98.1539ZM233.837 98.4671C234.497 98.4671 234.847 98.0016 234.847 97.3238C234.847 96.5773 234.45 96.1633 233.839 96.1633C233.182 96.1633 232.82 96.6288 232.82 97.3238C232.82 98.0638 233.221 98.4671 233.837 98.4671ZM233.839 98.1539C233.395 98.1539 233.215 97.7828 233.215 97.3152C233.215 96.7875 233.436 96.4743 233.839 96.4743C234.274 96.4743 234.454 96.8411 234.454 97.3152C234.454 97.8364 234.236 98.1539 233.839 98.1539ZM236.402 96.4958V96.204H235.902V95.5605H235.611L235.514 96.2062H235.143V96.4958H235.503V97.8879C235.503 98.244 235.626 98.4349 236.087 98.4349C236.248 98.4349 236.359 98.4199 236.415 98.3985V98.1325H236.173C235.965 98.1325 235.902 98.111 235.902 97.8751V96.4958H236.402ZM237.174 97.4074H238.764V97.2616C238.764 96.588 238.416 96.1633 237.792 96.1633C237.146 96.1633 236.773 96.6373 236.773 97.3366C236.773 98.0445 237.2 98.4671 237.82 98.4671C238.251 98.4671 238.667 98.229 238.749 97.7764H238.376C238.32 98.0274 238.097 98.1603 237.814 98.1603C237.382 98.1603 237.174 97.8279 237.174 97.4074ZM237.177 97.1393C237.174 96.8089 237.372 96.4636 237.79 96.4636C238.191 96.4636 238.382 96.7575 238.382 97.1393H237.177ZM239.313 98.4242H239.707V97.0449C239.707 96.676 239.995 96.5258 240.349 96.5494C240.394 96.5494 240.473 96.5558 240.516 96.5751V96.1912C240.48 96.1719 240.411 96.1633 240.347 96.1633C240.066 96.1633 239.802 96.3134 239.69 96.633V96.2062H239.313V98.4242Z" fill="#6C757D"/>
<path d="M290.04 97.0416L289.59 96.7902C289.642 96.5389 289.642 96.298 289.59 96.0466L290.04 95.7952C290.093 95.7638 290.114 95.7009 290.093 95.6486C289.977 95.2715 289.778 94.9363 289.527 94.6535C289.485 94.6116 289.422 94.6012 289.37 94.6326L288.92 94.884C288.731 94.7269 288.522 94.6012 288.291 94.5174V94.0041C288.291 93.9518 288.249 93.8994 288.186 93.8889C287.799 93.7947 287.411 93.8051 287.045 93.8889C286.982 93.8994 286.95 93.9518 286.95 94.0041V94.5174C286.71 94.6012 286.5 94.7269 286.312 94.8944L285.861 94.6326C285.809 94.6012 285.746 94.6116 285.704 94.6535C285.453 94.9363 285.254 95.2715 285.138 95.6486C285.118 95.7009 285.138 95.7638 285.191 95.7952L285.641 96.0466C285.599 96.298 285.599 96.5389 285.641 96.7902L285.191 97.0416C285.138 97.073 285.118 97.1359 285.138 97.1883C285.254 97.5653 285.453 97.9005 285.704 98.1833C285.746 98.2252 285.809 98.2357 285.861 98.2042L286.312 97.9529C286.5 98.11 286.71 98.2357 286.95 98.3195V98.8327C286.95 98.8851 286.992 98.9374 287.045 98.9584C287.432 99.0422 287.82 99.0317 288.186 98.9584C288.249 98.9374 288.291 98.8851 288.291 98.8327V98.3195C288.522 98.2357 288.731 98.11 288.92 97.9529L289.37 98.2042C289.422 98.2357 289.485 98.2252 289.527 98.1833C289.789 97.9005 289.977 97.5653 290.103 97.1883C290.114 97.1359 290.093 97.073 290.04 97.0416ZM287.621 97.2511C287.149 97.2511 286.783 96.8845 286.783 96.4132C286.783 95.9523 287.149 95.5753 287.621 95.5753C288.082 95.5753 288.459 95.9523 288.459 96.4132C288.459 96.8845 288.082 97.2511 287.621 97.2511Z" fill="#6C757D"/>
<path d="M301.403 97.0416L300.953 96.7902C301.005 96.5389 301.005 96.298 300.953 96.0466L301.403 95.7952C301.455 95.7638 301.476 95.7009 301.455 95.6486C301.34 95.2715 301.141 94.9363 300.89 94.6535C300.848 94.6116 300.785 94.6012 300.733 94.6326L300.282 94.884C300.094 94.7269 299.884 94.6012 299.654 94.5174V94.0041C299.654 93.9518 299.612 93.8994 299.549 93.8889C299.162 93.7947 298.774 93.8051 298.407 93.8889C298.345 93.8994 298.313 93.9518 298.313 94.0041V94.5174C298.072 94.6012 297.863 94.7269 297.674 94.8944L297.224 94.6326C297.171 94.6012 297.109 94.6116 297.067 94.6535C296.815 94.9363 296.616 95.2715 296.501 95.6486C296.48 95.7009 296.501 95.7638 296.554 95.7952L297.004 96.0466C296.962 96.298 296.962 96.5389 297.004 96.7902L296.554 97.0416C296.501 97.073 296.48 97.1359 296.501 97.1883C296.616 97.5653 296.815 97.9005 297.067 98.1833C297.109 98.2252 297.171 98.2357 297.224 98.2042L297.674 97.9529C297.863 98.11 298.072 98.2357 298.313 98.3195V98.8327C298.313 98.8851 298.355 98.9374 298.407 98.9584C298.795 99.0422 299.182 99.0317 299.549 98.9584C299.612 98.9374 299.654 98.8851 299.654 98.8327V98.3195C299.884 98.2357 300.094 98.11 300.282 97.9529L300.733 98.2042C300.785 98.2357 300.848 98.2252 300.89 98.1833C301.152 97.9005 301.34 97.5653 301.466 97.1883C301.476 97.1359 301.455 97.073 301.403 97.0416ZM298.983 97.2511C298.512 97.2511 298.146 96.8845 298.146 96.4132C298.146 95.9523 298.512 95.5753 298.983 95.5753C299.444 95.5753 299.821 95.9523 299.821 96.4132C299.821 96.8845 299.444 97.2511 298.983 97.2511Z" fill="#6C757D"/>
<rect x="214.488" y="90.7428" width="93.1771" height="0.335169" fill="#DEE2E6"/>
<path d="M215.493 16.3352H306.659V15.6648H215.493V16.3352ZM307.665 17.3407V101.803H308.335V17.3407H307.665ZM306.659 102.809H215.493V103.479H306.659V102.809ZM214.488 101.803V17.3407H213.817V101.803H214.488ZM215.493 102.809C214.938 102.809 214.488 102.359 214.488 101.803H213.817C213.817 102.729 214.568 103.479 215.493 103.479V102.809ZM307.665 101.803C307.665 102.359 307.215 102.809 306.659 102.809V103.479C307.585 103.479 308.335 102.729 308.335 101.803H307.665ZM306.659 16.3352C307.215 16.3352 307.665 16.7854 307.665 17.3407H308.335C308.335 16.4151 307.585 15.6648 306.659 15.6648V16.3352ZM215.493 15.6648C214.568 15.6648 213.817 16.4151 213.817 17.3407H214.488C214.488 16.7854 214.938 16.3352 215.493 16.3352V15.6648Z" fill="#DEE2E6"/>
</g>
<g style="mix-blend-mode:color">
<rect width="320" height="120" fill="#808080"/>
</g>
<g style="mix-blend-mode:color">
<rect width="320" height="120" fill="#00284D"/>
</g>
<defs>
<filter id="filter0_d" x="13.3297" y="16" width="95.1881" height="88.4848" filterUnits="userSpaceOnUse" color-interpolation-filters="sRGB">
<feFlood flood-opacity="0" result="BackgroundImageFix"/>
<feColorMatrix in="SourceAlpha" type="matrix" values="0 0 0 0 0 0 0 0 0 0 0 0 0 0 0 0 0 0 127 0"/>
<feOffset dy="0.670339"/>
<feGaussianBlur stdDeviation="0.335169"/>
<feColorMatrix type="matrix" values="0 0 0 0 0 0 0 0 0 0 0 0 0 0 0 0 0 0 0.15 0"/>
<feBlend mode="normal" in2="BackgroundImageFix" result="effect1_dropShadow"/>
<feBlend mode="normal" in="SourceGraphic" in2="effect1_dropShadow" result="shape"/>
</filter>
<filter id="filter1_d" x="113.821" y="16" width="95.1881" height="88.4848" filterUnits="userSpaceOnUse" color-interpolation-filters="sRGB">
<feFlood flood-opacity="0" result="BackgroundImageFix"/>
<feColorMatrix in="SourceAlpha" type="matrix" values="0 0 0 0 0 0 0 0 0 0 0 0 0 0 0 0 0 0 127 0"/>
<feOffset dy="0.670339"/>
<feGaussianBlur stdDeviation="0.335169"/>
<feColorMatrix type="matrix" values="0 0 0 0 0 0 0 0 0 0 0 0 0 0 0 0 0 0 0.15 0"/>
<feBlend mode="normal" in2="BackgroundImageFix" result="effect1_dropShadow"/>
<feBlend mode="normal" in="SourceGraphic" in2="effect1_dropShadow" result="shape"/>
</filter>
<filter id="filter2_d" x="213.482" y="16" width="95.1881" height="88.4848" filterUnits="userSpaceOnUse" color-interpolation-filters="sRGB">
<feFlood flood-opacity="0" result="BackgroundImageFix"/>
<feColorMatrix in="SourceAlpha" type="matrix" values="0 0 0 0 0 0 0 0 0 0 0 0 0 0 0 0 0 0 127 0"/>
<feOffset dy="0.670339"/>
<feGaussianBlur stdDeviation="0.335169"/>
<feColorMatrix type="matrix" values="0 0 0 0 0 0 0 0 0 0 0 0 0 0 0 0 0 0 0.15 0"/>
<feBlend mode="normal" in2="BackgroundImageFix" result="effect1_dropShadow"/>
<feBlend mode="normal" in="SourceGraphic" in2="effect1_dropShadow" result="shape"/>
</filter>
</defs>
</svg>
