<svg width="320" height="120" viewBox="0 0 320 120" fill="none" xmlns="http://www.w3.org/2000/svg">
<rect width="320" height="120" fill="#C0CEDB"/>
<path d="M27.3904 77H31.9024L35.3344 67.496H49.5664L52.9744 77H57.5104L44.9584 42.296H39.9424L27.3904 77ZM36.5104 63.416L42.4384 46.64L48.3424 63.416H36.5104ZM70.1086 77.48C73.6606 77.48 76.7086 76.208 78.6286 72.344L78.9646 77H82.7566V59.672C82.7566 54.488 79.5406 51.704 73.0846 51.704C67.0606 51.704 63.3646 54.368 63.1006 59.192H67.0126C67.6126 56.24 70.0126 54.992 72.8686 54.968C76.6846 54.968 78.4606 56.888 78.4606 59.912V61.856L74.0446 61.976C65.5486 62.168 61.9246 64.784 61.9246 70.28C61.9246 74.816 65.2846 77.48 70.1086 77.48ZM71.4286 74.288C68.3806 74.288 66.2206 72.656 66.2206 69.848C66.2206 66.176 69.0766 64.76 74.7886 64.664L78.4606 64.592V68.84C78.4606 71.6 74.7646 74.288 71.4286 74.288ZM89.2478 77H103.888C113.968 77 117.856 74.024 117.856 67.544C117.856 64.952 117.496 60.968 111.424 59.144C115.696 57.032 117.04 54.68 117.04 51.464C117.04 45.56 112.816 42.296 103.12 42.296H89.2478V77ZM98.5838 55.832V49.304H104.128C106.336 49.304 108.064 50.6 108.064 52.664C108.064 54.488 106.672 55.832 104.464 55.832H98.5838ZM98.5838 69.992V63.032H104.464C106.816 63.032 108.352 64.472 108.352 66.392C108.352 68.216 106.96 69.992 104.224 69.992H98.5838ZM137.093 77.48C143.957 77.48 147.749 72.344 147.749 64.424C147.749 56.6 144.197 51.704 138.101 51.704C135.629 51.704 132.773 52.472 131.237 55.016V41.336H121.877V77H128.477L129.581 71.912C130.709 75.368 133.061 77.48 137.093 77.48ZM134.885 70.952C132.701 70.952 131.237 69.32 131.237 64.424C131.237 60.008 132.701 58.28 134.885 58.28C136.997 58.28 138.725 59.816 138.725 64.424C138.725 69.32 136.997 70.952 134.885 70.952ZM166.547 41.816C157.139 41.816 151.787 48.224 151.787 59.528C151.787 70.856 157.187 77.48 166.547 77.48C174.827 77.48 178.931 72.008 179.651 66.08H174.923C174.131 70.136 171.299 73.616 166.427 73.616C160.091 73.616 156.707 69.248 156.707 59.576C156.707 49.976 160.091 45.68 166.427 45.68C171.299 45.68 174.131 48.92 174.923 53H179.651C179.003 46.928 173.867 41.816 166.547 41.816ZM195.804 51.704C188.484 51.704 184.38 56.96 184.38 64.688C184.38 73.016 189.084 77.48 195.804 77.48C201.06 77.48 205.092 74.336 205.74 69.344H201.876C201.444 71.84 199.284 74.096 195.876 74.096C191.124 74.096 188.628 70.376 188.628 64.64C188.628 58.304 191.58 55.28 195.828 55.28C199.236 55.28 201.396 57.416 201.828 60.032H205.764C205.092 54.968 201.132 51.704 195.804 51.704ZM230.327 77H232.391V42.296H230.711C230.711 44.936 229.607 45.896 223.127 45.896V47.768H230.327V77ZM242.506 77H263.482V75.032H244.57V73.976C244.57 62.696 263.074 63.704 263.074 51.08C263.074 45.512 258.994 41.816 252.85 41.816C245.77 41.816 241.81 46.472 241.642 51.848H243.754C243.922 47.336 247.09 43.832 252.682 43.832C257.77 43.832 261.058 46.712 261.058 51.032C261.058 62.216 242.506 61.4 242.506 73.976V77ZM269.224 51.848H271.336C271.336 46.472 275.944 43.784 280.072 43.784C286.024 43.784 288.904 47.144 288.904 50.408C288.904 54.2 284.56 57.752 279.16 57.752H276.232V59.72H279.16C285.064 59.72 289.96 62.408 289.96 67.832C289.96 72.44 285.976 75.56 280.024 75.56C274.792 75.56 271.288 72.44 270.664 67.784H268.528C268.84 73.592 273.784 77.432 279.784 77.528C287.224 77.624 292.072 73.544 292.072 67.688C292.072 63.368 289.384 60.008 284.104 58.568C288.592 56.984 291.016 53.864 291.016 50.408C291.016 45.272 286.624 41.816 279.976 41.816C274.216 41.816 269.224 45.848 269.224 51.848Z" fill="black"/>
<g style="mix-blend-mode:color">
<rect width="320" height="120" fill="#808080"/>
</g>
<g style="mix-blend-mode:color">
<rect width="320" height="120" fill="#00284D"/>
</g>
</svg>
