<svg width="320" height="120" viewBox="0 0 320 120" fill="none" xmlns="http://www.w3.org/2000/svg">
<rect width="320" height="120" fill="#C0CEDB"/>
<g filter="url(#filter0_d_454_35)">
<path d="M205 49C205 44.5817 208.582 41 213 41H279C283.418 41 287 44.5817 287 49V71C287 75.4183 283.418 79 279 79H213C208.582 79 205 75.4183 205 71V49Z" fill="#00284D"/>
<path d="M226.244 54.432H227.724V66H226.404L220.196 56.88V66H218.716V54.432H220.132L226.244 63.424V54.432ZM231.421 62.208C231.421 62.7307 231.506 63.2053 231.677 63.632C231.853 64.0533 232.117 64.3893 232.469 64.64C232.826 64.8907 233.271 65.016 233.805 65.016C234.333 65.016 234.786 64.8933 235.165 64.648C235.549 64.4027 235.794 64.048 235.901 63.584H237.301C237.199 64.144 236.975 64.616 236.629 65C236.282 65.384 235.863 65.6747 235.373 65.872C234.882 66.064 234.37 66.16 233.837 66.16C233.063 66.16 232.383 65.992 231.797 65.656C231.21 65.32 230.751 64.8373 230.421 64.208C230.09 63.5787 229.925 62.824 229.925 61.944C229.925 61.0747 230.074 60.312 230.373 59.656C230.671 59 231.103 58.488 231.669 58.12C232.239 57.752 232.925 57.568 233.725 57.568C234.893 57.568 235.789 57.9387 236.413 58.68C237.037 59.416 237.349 60.4107 237.349 61.664V62.208H231.421ZM231.429 61.208H235.925C235.925 60.4987 235.743 59.9013 235.381 59.416C235.018 58.9307 234.463 58.688 233.717 58.688C233.199 58.688 232.77 58.8133 232.429 59.064C232.087 59.3093 231.834 59.6267 231.669 60.016C231.503 60.4 231.423 60.7973 231.429 61.208ZM246.114 66H244.506L242.098 62.76L239.706 66H238.082L241.274 61.704L238.338 57.728H239.954L242.098 60.632L244.25 57.728H245.866L242.922 61.704L246.114 66ZM251.911 58.808H250.047V63.952C250.047 64.3947 250.116 64.6667 250.255 64.768C250.399 64.864 250.666 64.912 251.055 64.912H251.959V65.904C251.852 65.9413 251.698 65.9733 251.495 66C251.292 66.0267 251.039 66.04 250.735 66.04C249.876 66.04 249.298 65.8667 248.999 65.52C248.706 65.1733 248.559 64.6667 248.559 64V58.808H247.215V57.728H248.599L248.959 55.32H250.047V57.72H251.911V58.808Z" fill="white"/>
<path d="M266.938 54.0938C266.625 54.4062 266.656 54.875 266.938 55.1875L270.719 58.75H261.75C261.312 58.75 261 59.0938 261 59.5V60.5C261 60.9375 261.312 61.25 261.75 61.25H270.719L266.938 64.8438C266.656 65.1562 266.656 65.625 266.938 65.9375L267.625 66.625C267.938 66.9062 268.406 66.9062 268.688 66.625L274.781 60.5312C275.062 60.25 275.062 59.7812 274.781 59.4688L268.688 53.4062C268.406 53.125 267.938 53.125 267.625 53.4062L266.938 54.0938Z" fill="white"/>
</g>
<g filter="url(#filter1_d_454_35)">
<path d="M31 49C31 44.5817 34.5817 41 39 41H107C111.418 41 115 44.5817 115 49V71C115 75.4183 111.418 79 107 79H39C34.5817 79 31 75.4183 31 71V49Z" fill="#6C757D"/>
<path d="M51.0312 65.9375C51.3438 65.625 51.3125 65.1562 51.0312 64.8438L47.25 61.25H56.25C56.6562 61.25 57 60.9375 57 60.5V59.5C57 59.0938 56.6562 58.75 56.25 58.75H47.25L51.0312 55.1875C51.3125 54.875 51.3438 54.4062 51.0312 54.0938L50.3438 53.4062C50.0625 53.125 49.5625 53.125 49.2812 53.4062L43.2188 59.5C42.9062 59.7812 42.9062 60.25 43.2188 60.5312L49.2812 66.625C49.5625 66.9062 50.0312 66.9062 50.3438 66.625L51.0312 65.9375Z" fill="white"/>
<path d="M66.8171 66V54.432H70.5371C71.9451 54.432 73.0091 54.6907 73.7291 55.208C74.4544 55.7253 74.8171 56.472 74.8171 57.448C74.8171 58.0613 74.6571 58.5867 74.3371 59.024C74.0171 59.4613 73.4624 59.8213 72.6731 60.104C73.5851 60.3013 74.2171 60.6533 74.5691 61.16C74.9264 61.6613 75.1051 62.2373 75.1051 62.888C75.1051 64.9627 73.6224 66 70.6571 66H66.8171ZM68.2971 59.52H70.8171C71.2171 59.52 71.6144 59.464 72.0091 59.352C72.4037 59.24 72.7317 59.048 72.9931 58.776C73.2544 58.504 73.3851 58.1227 73.3851 57.632C73.3851 56.96 73.1264 56.464 72.6091 56.144C72.0971 55.8187 71.4304 55.656 70.6091 55.656H68.2971V59.52ZM68.2971 64.768H70.6411C71.6064 64.768 72.3397 64.6107 72.8411 64.296C73.3477 63.976 73.6011 63.4853 73.6011 62.824C73.6011 62.3387 73.4757 61.9467 73.2251 61.648C72.9797 61.344 72.6464 61.1227 72.2251 60.984C71.8037 60.8453 71.3344 60.776 70.8171 60.776H68.2971V64.768ZM79.5354 66.16C78.7301 66.16 78.0741 65.9493 77.5674 65.528C77.0608 65.1067 76.8074 64.5173 76.8074 63.76C76.8074 62.8427 77.1274 62.16 77.7674 61.712C78.4074 61.264 79.4341 61.024 80.8474 60.992L82.3274 60.952V60.304C82.3274 59.7973 82.1728 59.3973 81.8634 59.104C81.5594 58.8053 81.0901 58.656 80.4554 58.656C79.9808 58.6613 79.5621 58.776 79.1994 59C78.8368 59.2187 78.6048 59.5733 78.5034 60.064H77.1994C77.2421 59.2587 77.5568 58.6427 78.1434 58.216C78.7301 57.784 79.5248 57.568 80.5274 57.568C81.6048 57.568 82.4101 57.7947 82.9434 58.248C83.4821 58.7013 83.7514 59.36 83.7514 60.224V66H82.4874L82.3834 64.448C82.0581 65.0933 81.6501 65.5413 81.1594 65.792C80.6688 66.0373 80.1274 66.16 79.5354 66.16ZM79.9834 65.096C80.3514 65.096 80.7141 65.008 81.0714 64.832C81.4341 64.656 81.7328 64.432 81.9674 64.16C82.2021 63.8827 82.3221 63.5893 82.3274 63.28V61.864L81.0954 61.888C80.1461 61.904 79.4341 62.0453 78.9594 62.312C78.4848 62.5733 78.2474 63.008 78.2474 63.616C78.2474 64.0853 78.4074 64.4507 78.7274 64.712C79.0528 64.968 79.4714 65.096 79.9834 65.096ZM89.5747 57.568C90.4654 57.568 91.2147 57.8213 91.8227 58.328C92.4307 58.8293 92.7907 59.5013 92.9027 60.344H91.5907C91.516 59.912 91.3054 59.5413 90.9587 59.232C90.612 58.9173 90.1534 58.76 89.5827 58.76C88.8787 58.76 88.3027 59.016 87.8547 59.528C87.412 60.04 87.1907 60.824 87.1907 61.88C87.1907 62.8347 87.3934 63.6 87.7987 64.176C88.2094 64.7467 88.812 65.032 89.6067 65.032C90.172 65.032 90.628 64.872 90.9747 64.552C91.3214 64.232 91.5294 63.864 91.5987 63.448H92.8867C92.78 64.28 92.42 64.9413 91.8067 65.432C91.1987 65.9173 90.4547 66.16 89.5747 66.16C88.828 66.16 88.1694 65.9973 87.5987 65.672C87.028 65.3467 86.58 64.8667 86.2547 64.232C85.9294 63.5973 85.7667 62.8187 85.7667 61.896C85.7667 61.0373 85.9134 60.2827 86.2067 59.632C86.5054 58.9813 86.9374 58.4747 87.5027 58.112C88.0734 57.7493 88.764 57.568 89.5747 57.568ZM102.168 66H100.6L98.0077 61.848L96.3757 63.536V66H94.9037V54.112H96.3757V61.864L100.264 57.728H101.96L98.9757 60.88L102.168 66Z" fill="white"/>
</g>
<g opacity="0.5">
<rect y="13" width="320" height="4" fill="#00284D"/>
</g>
<g style="mix-blend-mode:color">
<rect width="320" height="120" fill="#808080"/>
</g>
<g style="mix-blend-mode:color">
<rect width="320" height="120" fill="#00284D"/>
</g>
<defs>
<filter id="filter0_d_454_35" x="205" y="41" width="82" height="40" filterUnits="userSpaceOnUse" color-interpolation-filters="sRGB">
<feFlood flood-opacity="0" result="BackgroundImageFix"/>
<feColorMatrix in="SourceAlpha" type="matrix" values="0 0 0 0 0 0 0 0 0 0 0 0 0 0 0 0 0 0 127 0" result="hardAlpha"/>
<feOffset dy="2"/>
<feColorMatrix type="matrix" values="0 0 0 0 0.423529 0 0 0 0 0.458824 0 0 0 0 0.490196 0 0 0 0.62 0"/>
<feBlend mode="normal" in2="BackgroundImageFix" result="effect1_dropShadow_454_35"/>
<feBlend mode="normal" in="SourceGraphic" in2="effect1_dropShadow_454_35" result="shape"/>
</filter>
<filter id="filter1_d_454_35" x="31" y="41" width="84" height="40" filterUnits="userSpaceOnUse" color-interpolation-filters="sRGB">
<feFlood flood-opacity="0" result="BackgroundImageFix"/>
<feColorMatrix in="SourceAlpha" type="matrix" values="0 0 0 0 0 0 0 0 0 0 0 0 0 0 0 0 0 0 127 0" result="hardAlpha"/>
<feOffset dy="2"/>
<feColorMatrix type="matrix" values="0 0 0 0 0.423529 0 0 0 0 0.458824 0 0 0 0 0.490196 0 0 0 0.62 0"/>
<feBlend mode="normal" in2="BackgroundImageFix" result="effect1_dropShadow_454_35"/>
<feBlend mode="normal" in="SourceGraphic" in2="effect1_dropShadow_454_35" result="shape"/>
</filter>
</defs>
</svg>
