<svg width="320" height="120" viewBox="0 0 320 120" fill="none" xmlns="http://www.w3.org/2000/svg">
<rect width="320" height="120" fill="#C0CEDB"/>
<path d="M20 56C20 53.7909 21.7909 52 24 52H126.4V68H24C21.7909 68 20 66.2091 20 64V56Z" fill="#0D6211"/>
<path d="M300 64C300 66.2091 298.209 68 296 68L126 68L126 52L296 52C298.209 52 300 53.7909 300 56L300 64Z" fill="#FFECB3"/>
<path d="M59.9298 57.44H61.1074C61.1458 56.16 62.1314 55.6032 63.1234 55.6032C64.3906 55.6032 65.1202 56.2752 65.1202 57.0432C65.1202 57.9072 64.2114 58.6368 62.9954 58.656L62.2018 58.6752V59.68L63.0338 59.6992C64.3394 59.712 65.3634 60.3136 65.3634 61.4336C65.3634 62.4384 64.4866 63.1232 63.1234 63.1232C61.9778 63.1232 61.165 62.4896 60.9922 61.3376H59.8082C59.8658 63.0464 61.165 64.1216 63.0786 64.1408C65.133 64.16 66.6434 63.136 66.6434 61.4464C66.6434 60.2432 65.8434 59.4432 64.6274 59.1104C65.8242 58.6944 66.3938 57.92 66.3938 57.0048C66.3938 55.4752 65.0498 54.6176 63.1298 54.6176C61.3762 54.6176 59.9298 55.648 59.9298 57.44ZM67.9048 57.44H69.0824C69.1208 56.16 70.1064 55.6032 71.0984 55.6032C72.3656 55.6032 73.0952 56.2752 73.0952 57.0432C73.0952 57.9072 72.1864 58.6368 70.9704 58.656L70.1768 58.6752V59.68L71.0088 59.6992C72.3144 59.712 73.3384 60.3136 73.3384 61.4336C73.3384 62.4384 72.4616 63.1232 71.0984 63.1232C69.9528 63.1232 69.14 62.4896 68.9672 61.3376H67.7832C67.8408 63.0464 69.14 64.1216 71.0536 64.1408C73.108 64.16 74.6184 63.136 74.6184 61.4464C74.6184 60.2432 73.8184 59.4432 72.6024 59.1104C73.7992 58.6944 74.3688 57.92 74.3688 57.0048C74.3688 55.4752 73.0248 54.6176 71.1048 54.6176C69.3512 54.6176 67.9048 55.648 67.9048 57.44ZM78.1113 54.6048C76.8505 54.6048 75.9097 55.6416 75.9097 57.2544C75.9097 58.8672 76.8441 59.8848 78.1113 59.8848C79.3721 59.8848 80.2809 58.8672 80.2809 57.2544C80.2809 55.6416 79.3593 54.6048 78.1113 54.6048ZM84.4345 54.6432H83.6601L77.4137 64.0448L78.2137 64.0512L84.4345 54.6432ZM78.0985 59.2256C77.2793 59.2256 76.8185 58.4256 76.8185 57.2544C76.8185 56.0768 77.2857 55.264 78.0985 55.264C78.9049 55.264 79.3721 56.064 79.3721 57.2544C79.3721 58.4384 78.9177 59.2256 78.0985 59.2256ZM83.9033 58.8352C82.6489 58.8352 81.7081 59.8848 81.7081 61.4848C81.7081 63.104 82.6361 64.128 83.9033 64.128C85.1705 64.128 86.0793 63.104 86.0793 61.4848C86.0793 59.8848 85.1577 58.8352 83.9033 58.8352ZM83.8905 63.456C83.1033 63.456 82.6169 62.6368 82.6169 61.4976C82.6169 60.3456 83.1033 59.5008 83.8905 59.5008C84.6777 59.5008 85.1705 60.3328 85.1705 61.4976C85.1705 62.6368 84.6841 63.456 83.8905 63.456Z" fill="white"/>
<path d="M207.531 54.6176C205.188 54.6176 203.908 56.5376 203.908 59.5136C203.908 62.4 205.278 64.1408 207.428 64.1408C209.399 64.1408 210.647 62.8352 210.647 60.9792C210.647 59.1616 209.419 58.048 207.595 58.048C206.5 58.048 205.559 58.6752 205.214 59.616C205.06 57.0176 205.911 55.6032 207.55 55.6032C208.523 55.6032 209.195 56.1536 209.444 57.0304H210.558C210.359 55.5072 209.06 54.6176 207.531 54.6176ZM207.403 59.008C208.67 59.008 209.374 59.7696 209.374 61.0368C209.374 62.2976 208.548 63.1616 207.415 63.1616C206.193 63.1616 205.374 62.1568 205.387 60.7424C205.387 59.8016 206.385 59.008 207.403 59.008ZM215.406 54.6176C213.063 54.6176 211.783 56.5376 211.783 59.5136C211.783 62.4 213.153 64.1408 215.303 64.1408C217.274 64.1408 218.522 62.8352 218.522 60.9792C218.522 59.1616 217.294 58.048 215.47 58.048C214.375 58.048 213.434 58.6752 213.089 59.616C212.935 57.0176 213.786 55.6032 215.425 55.6032C216.398 55.6032 217.07 56.1536 217.319 57.0304H218.433C218.234 55.5072 216.935 54.6176 215.406 54.6176ZM215.278 59.008C216.545 59.008 217.249 59.7696 217.249 61.0368C217.249 62.2976 216.423 63.1616 215.29 63.1616C214.068 63.1616 213.249 62.1568 213.262 60.7424C213.262 59.8016 214.26 59.008 215.278 59.008ZM222.011 54.6048C220.75 54.6048 219.81 55.6416 219.81 57.2544C219.81 58.8672 220.744 59.8848 222.011 59.8848C223.272 59.8848 224.181 58.8672 224.181 57.2544C224.181 55.6416 223.259 54.6048 222.011 54.6048ZM228.334 54.6432H227.56L221.314 64.0448L222.114 64.0512L228.334 54.6432ZM221.998 59.2256C221.179 59.2256 220.718 58.4256 220.718 57.2544C220.718 56.0768 221.186 55.264 221.998 55.264C222.805 55.264 223.272 56.064 223.272 57.2544C223.272 58.4384 222.818 59.2256 221.998 59.2256ZM227.803 58.8352C226.549 58.8352 225.608 59.8848 225.608 61.4848C225.608 63.104 226.536 64.128 227.803 64.128C229.07 64.128 229.979 63.104 229.979 61.4848C229.979 59.8848 229.058 58.8352 227.803 58.8352ZM227.79 63.456C227.003 63.456 226.517 62.6368 226.517 61.4976C226.517 60.3456 227.003 59.5008 227.79 59.5008C228.578 59.5008 229.07 60.3328 229.07 61.4976C229.07 62.6368 228.584 63.456 227.79 63.456Z" fill="black"/>
<g style="mix-blend-mode:color">
<rect width="320" height="120" fill="#808080"/>
</g>
<g style="mix-blend-mode:color">
<rect width="320" height="120" fill="#00284D"/>
</g>
</svg>
