<svg width="320" height="120" viewBox="0 0 320 120" fill="none" xmlns="http://www.w3.org/2000/svg">
<rect width="320" height="120" fill="#C0CEDB"/>
<rect x="69" y="53" width="26" height="14" rx="7" fill="#185AE3" stroke="#185AE3" stroke-width="2"/>
<circle cx="88" cy="60" r="5" fill="white"/>
<path d="M108.384 54.432H106.92L103.376 64.32L99.832 54.432H98.368L102.488 66H104.272L108.384 54.432ZM111.607 66.16C112.791 66.16 113.807 65.736 114.447 64.448L114.559 66H115.823V60.224C115.823 58.496 114.751 57.568 112.599 57.568C110.591 57.568 109.359 58.456 109.271 60.064H110.575C110.775 59.08 111.575 58.664 112.527 58.656C113.799 58.656 114.391 59.296 114.391 60.304V60.952L112.919 60.992C110.087 61.056 108.879 61.928 108.879 63.76C108.879 65.272 109.999 66.16 111.607 66.16ZM112.047 65.096C111.031 65.096 110.311 64.552 110.311 63.616C110.311 62.392 111.263 61.92 113.167 61.888L114.391 61.864V63.28C114.391 64.2 113.159 65.096 112.047 65.096ZM120.218 66.104C120.426 66.104 120.714 66.056 120.962 65.976V65.016L120.514 65.008C119.93 64.968 119.586 64.568 119.586 63.728V54.112H118.13V63.872C118.13 65.032 118.434 66.104 120.218 66.104ZM125.748 66.16C126.916 66.168 127.924 65.656 128.228 64.416L128.38 66H129.556V57.728H128.084V63.112C128.084 64.368 127.276 65.008 126.06 65.008C124.708 65.008 124.052 64.272 124.052 63.192V57.728H122.572V63.344C122.572 65.208 124.028 66.144 125.748 66.16ZM133.078 62.208H139.006V61.664C139.006 59.152 137.71 57.568 135.382 57.568C132.974 57.568 131.582 59.336 131.582 61.944C131.582 64.584 133.174 66.16 135.486 66.16C137.094 66.16 138.646 65.272 138.95 63.584H137.558C137.35 64.52 136.518 65.016 135.462 65.016C133.854 65.016 133.078 63.776 133.078 62.208ZM133.086 61.208C133.078 59.976 133.814 58.688 135.374 58.688C136.87 58.688 137.582 59.784 137.582 61.208H133.086Z" fill="#495057"/>
<rect x="173" y="53" width="26" height="14" rx="7" fill="white" stroke="#6C757D" stroke-width="2"/>
<circle cx="180" cy="60" r="5" fill="#6C757D"/>
<path d="M212.384 54.432H210.92L207.376 64.32L203.832 54.432H202.368L206.488 66H208.272L212.384 54.432ZM215.607 66.16C216.791 66.16 217.807 65.736 218.447 64.448L218.559 66H219.823V60.224C219.823 58.496 218.751 57.568 216.599 57.568C214.591 57.568 213.359 58.456 213.271 60.064H214.575C214.775 59.08 215.575 58.664 216.527 58.656C217.799 58.656 218.391 59.296 218.391 60.304V60.952L216.919 60.992C214.087 61.056 212.879 61.928 212.879 63.76C212.879 65.272 213.999 66.16 215.607 66.16ZM216.047 65.096C215.031 65.096 214.311 64.552 214.311 63.616C214.311 62.392 215.263 61.92 217.167 61.888L218.391 61.864V63.28C218.391 64.2 217.159 65.096 216.047 65.096ZM224.218 66.104C224.426 66.104 224.714 66.056 224.962 65.976V65.016L224.514 65.008C223.93 64.968 223.586 64.568 223.586 63.728V54.112H222.13V63.872C222.13 65.032 222.434 66.104 224.218 66.104ZM229.748 66.16C230.916 66.168 231.924 65.656 232.228 64.416L232.38 66H233.556V57.728H232.084V63.112C232.084 64.368 231.276 65.008 230.06 65.008C228.708 65.008 228.052 64.272 228.052 63.192V57.728H226.572V63.344C226.572 65.208 228.028 66.144 229.748 66.16ZM237.078 62.208H243.006V61.664C243.006 59.152 241.71 57.568 239.382 57.568C236.974 57.568 235.582 59.336 235.582 61.944C235.582 64.584 237.174 66.16 239.486 66.16C241.094 66.16 242.646 65.272 242.95 63.584H241.558C241.35 64.52 240.518 65.016 239.462 65.016C237.854 65.016 237.078 63.776 237.078 62.208ZM237.086 61.208C237.078 59.976 237.814 58.688 239.374 58.688C240.87 58.688 241.582 59.784 241.582 61.208H237.086Z" fill="#495057"/>
<g style="mix-blend-mode:color">
<rect width="320" height="120" fill="#808080"/>
</g>
<g style="mix-blend-mode:color">
<rect width="320" height="120" fill="#00284D"/>
</g>
</svg>
