<svg width="320" height="120" viewBox="0 0 320 120" fill="none" xmlns="http://www.w3.org/2000/svg">
<g clip-path="url(#clip0_1886_8949)">
<rect width="320" height="120" fill="#C0CEDB"/>
<g clip-path="url(#clip1_1886_8949)">
<g style="mix-blend-mode:color">
<rect width="320" height="120" fill="#808080"/>
</g>
<g style="mix-blend-mode:color">
<rect width="320" height="120" fill="#00284D"/>
</g>
</g>
<g opacity="0.5">
<circle cx="148" cy="60" r="64" fill="#B00003"/>
<path fill-rule="evenodd" clip-rule="evenodd" d="M139.195 22.5174C139.195 27.3434 143.107 31.2568 147.932 31.2568C152.758 31.2568 156.671 27.3434 156.671 22.5173C156.671 17.6898 152.758 13.7777 147.932 13.7777C143.107 13.7777 139.196 17.6898 139.195 22.5174ZM134.398 38.8708L124.658 61.2088C124.073 62.5502 124.204 64.0959 125.006 65.3191C125.807 66.5435 127.171 67.2803 128.634 67.2803C130.36 67.2803 131.921 66.2585 132.611 64.6768L136.283 56.2554V100.306C136.283 102.918 138.402 105.037 141.014 105.037C143.628 105.037 145.747 102.918 145.747 100.304V70.5935H150.117V100.304C150.117 102.918 152.236 105.037 154.851 105.037C157.466 105.037 159.584 102.918 159.584 100.304V56.2584L163.255 64.6751C163.945 66.2568 165.506 67.2786 167.231 67.2786C168.695 67.2786 170.059 66.5417 170.86 65.3172C171.661 64.093 171.792 62.5487 171.208 61.2073L161.469 38.8723C160.489 36.6228 158.427 35.1282 156.061 34.7247C155.69 34.6254 140.174 34.6269 139.815 34.7215C137.446 35.1238 135.38 36.6184 134.398 38.8708Z" fill="white"/>
</g>
<path d="M219.268 31.133L236.269 48.2266L236.204 72.3355L219.111 89.3372L195.002 89.2722L178 72.1786L178.065 48.0696L195.159 31.068L219.268 31.133Z" fill="#B00003"/>
<path d="M209.792 46.08H202.952L204.592 66.08H208.252L209.792 46.08ZM209.552 68.76H203.172V75H209.552V68.76Z" fill="white"/>
</g>
<defs>
<clipPath id="clip0_1886_8949">
<rect width="320" height="120" fill="white"/>
</clipPath>
<clipPath id="clip1_1886_8949">
<rect width="320" height="120" fill="white"/>
</clipPath>
</defs>
</svg>
