<svg width="320" height="120" viewBox="0 0 320 120" fill="none" xmlns="http://www.w3.org/2000/svg">
<rect width="320" height="120" fill="#C0CEDB"/>
<g filter="url(#filter0_d)">
<path d="M205 45C205 42.7909 206.791 41 209 41H283C285.209 41 287 42.7909 287 45V75C287 77.2091 285.209 79 283 79H209C206.791 79 205 77.2091 205 75V45Z" fill="#00284D"/>
<path d="M226.392 54.432V63.424L220.28 54.432H218.864V66H220.344V56.88L226.552 66H227.872V54.432H226.392ZM231.601 62.208H237.529V61.664C237.529 59.152 236.233 57.568 233.905 57.568C231.497 57.568 230.105 59.336 230.105 61.944C230.105 64.584 231.697 66.16 234.009 66.16C235.617 66.16 237.169 65.272 237.473 63.584H236.081C235.873 64.52 235.041 65.016 233.985 65.016C232.377 65.016 231.601 63.776 231.601 62.208ZM231.609 61.208C231.601 59.976 232.337 58.688 233.897 58.688C235.393 58.688 236.105 59.784 236.105 61.208H231.609ZM246.317 66L243.133 61.704L246.077 57.728H244.461L242.309 60.632L240.157 57.728H238.549L241.477 61.704L238.293 66H239.909L242.301 62.76L244.709 66H246.317ZM251.877 58.808V57.72H250.013V55.32H248.925L248.565 57.728H247.181V58.808H248.525V64C248.525 65.328 248.981 66.04 250.701 66.04C251.301 66.04 251.717 65.984 251.925 65.904V64.912H251.021C250.245 64.912 250.013 64.832 250.013 63.952V58.808H251.877Z" fill="white"/>
<path d="M266.938 54.0938C266.625 54.4062 266.656 54.875 266.938 55.1875L270.719 58.75H261.75C261.312 58.75 261 59.0938 261 59.5V60.5C261 60.9375 261.312 61.25 261.75 61.25H270.719L266.938 64.8438C266.656 65.1562 266.656 65.625 266.938 65.9375L267.625 66.625C267.938 66.9062 268.406 66.9062 268.688 66.625L274.781 60.5312C275.062 60.25 275.062 59.7812 274.781 59.4688L268.688 53.4062C268.406 53.125 267.938 53.125 267.625 53.4062L266.938 54.0938Z" fill="white"/>
</g>
<g filter="url(#filter1_d)">
<path d="M31 45C31 42.7909 32.7909 41 35 41H111C113.209 41 115 42.7909 115 45V75C115 77.2091 113.209 79 111 79H35C32.7909 79 31 77.2091 31 75V45Z" fill="#6C757D"/>
<path d="M51.0312 65.9375C51.3438 65.625 51.3125 65.1562 51.0312 64.8438L47.25 61.25H56.25C56.6562 61.25 57 60.9375 57 60.5V59.5C57 59.0938 56.6562 58.75 56.25 58.75H47.25L51.0312 55.1875C51.3125 54.875 51.3438 54.4062 51.0312 54.0938L50.3438 53.4062C50.0625 53.125 49.5625 53.125 49.2812 53.4062L43.2188 59.5C42.9062 59.7812 42.9062 60.25 43.2188 60.5312L49.2812 66.625C49.5625 66.9062 50.0312 66.9062 50.3438 66.625L51.0312 65.9375Z" fill="white"/>
<path d="M66.9499 66H70.7899C73.7419 66 75.2379 64.984 75.2379 62.888C75.2379 61.584 74.6299 60.496 72.8059 60.104C74.3899 59.544 74.9499 58.672 74.9499 57.448C74.9499 55.496 73.4779 54.432 70.6699 54.432H66.9499V66ZM68.4299 59.52V55.656H70.7419C72.3819 55.656 73.5179 56.288 73.5179 57.632C73.5179 59.096 72.1499 59.52 70.9499 59.52H68.4299ZM68.4299 64.768V60.776H70.9499C72.5019 60.776 73.7339 61.376 73.7339 62.824C73.7339 64.144 72.7019 64.768 70.7739 64.768H68.4299ZM79.7003 66.16C80.8843 66.16 81.9003 65.736 82.5403 64.448L82.6523 66H83.9163V60.224C83.9163 58.496 82.8443 57.568 80.6923 57.568C78.6843 57.568 77.4523 58.456 77.3643 60.064H78.6683C78.8683 59.08 79.6683 58.664 80.6203 58.656C81.8923 58.656 82.4843 59.296 82.4843 60.304V60.952L81.0123 60.992C78.1803 61.056 76.9723 61.928 76.9723 63.76C76.9723 65.272 78.0923 66.16 79.7003 66.16ZM80.1403 65.096C79.1243 65.096 78.4043 64.552 78.4043 63.616C78.4043 62.392 79.3563 61.92 81.2603 61.888L82.4843 61.864V63.28C82.4843 64.2 81.2523 65.096 80.1403 65.096ZM89.552 57.568C87.112 57.568 85.744 59.32 85.744 61.896C85.744 64.672 87.312 66.16 89.552 66.16C91.304 66.16 92.648 65.112 92.864 63.448H91.576C91.432 64.28 90.712 65.032 89.576 65.032C87.992 65.032 87.16 63.792 87.16 61.88C87.16 59.768 88.144 58.76 89.56 58.76C90.696 58.76 91.416 59.472 91.56 60.344H92.872C92.648 58.656 91.328 57.568 89.552 57.568ZM102.082 66L98.8898 60.88L101.874 57.728H100.178L96.2898 61.864V54.112H94.8178V66H96.2898V63.536L97.9218 61.848L100.514 66H102.082Z" fill="white"/>
</g>
<g opacity="0.5">
<rect y="13" width="320" height="4" fill="#00284D"/>
</g>
<g style="mix-blend-mode:color">
<rect width="320" height="120" fill="#808080"/>
</g>
<g style="mix-blend-mode:color">
<rect width="320" height="120" fill="#00284D"/>
</g>
<defs>
<filter id="filter0_d" x="203" y="41" width="86" height="44" filterUnits="userSpaceOnUse" color-interpolation-filters="sRGB">
<feFlood flood-opacity="0" result="BackgroundImageFix"/>
<feColorMatrix in="SourceAlpha" type="matrix" values="0 0 0 0 0 0 0 0 0 0 0 0 0 0 0 0 0 0 127 0"/>
<feOffset dy="4"/>
<feGaussianBlur stdDeviation="1"/>
<feColorMatrix type="matrix" values="0 0 0 0 0 0 0 0 0 0 0 0 0 0 0 0 0 0 0.1 0"/>
<feBlend mode="normal" in2="BackgroundImageFix" result="effect1_dropShadow"/>
<feBlend mode="normal" in="SourceGraphic" in2="effect1_dropShadow" result="shape"/>
</filter>
<filter id="filter1_d" x="29" y="41" width="88" height="44" filterUnits="userSpaceOnUse" color-interpolation-filters="sRGB">
<feFlood flood-opacity="0" result="BackgroundImageFix"/>
<feColorMatrix in="SourceAlpha" type="matrix" values="0 0 0 0 0 0 0 0 0 0 0 0 0 0 0 0 0 0 127 0"/>
<feOffset dy="4"/>
<feGaussianBlur stdDeviation="1"/>
<feColorMatrix type="matrix" values="0 0 0 0 0 0 0 0 0 0 0 0 0 0 0 0 0 0 0.1 0"/>
<feBlend mode="normal" in2="BackgroundImageFix" result="effect1_dropShadow"/>
<feBlend mode="normal" in="SourceGraphic" in2="effect1_dropShadow" result="shape"/>
</filter>
</defs>
</svg>
