<svg width="320" height="120" viewBox="0 0 320 120" fill="none" xmlns="http://www.w3.org/2000/svg">
<rect width="320" height="120" fill="#C0CEDB"/>
<g style="mix-blend-mode:color">
<rect width="320" height="120" fill="#808080"/>
</g>
<g style="mix-blend-mode:color">
<rect width="320" height="120" fill="#00284D"/>
</g>
<rect x="44" y="24" width="108" height="69" rx="8" fill="white"/>
<rect x="168" y="24" width="108" height="69" rx="8" fill="#F5F5F5"/>
<path d="M98.5 71.875C91.9688 71.875 86.6406 66.8906 86.2109 60.4453L77.1875 53.4844C75.9844 55.0312 74.8672 56.5781 74.0078 58.2969C73.8359 58.6406 73.75 59.0703 73.75 59.5C73.75 60.0156 73.8359 60.4453 74.0078 60.7891C78.6484 69.8984 87.9297 76 98.5 76C100.734 76 102.969 75.6562 105.117 75.1406L100.734 71.7031C99.9609 71.875 99.1875 71.875 98.5 71.875ZM125.398 76.9453L115.945 69.5547C118.781 67.1484 121.188 64.1406 122.906 60.7891C123.078 60.4453 123.164 60.0156 123.164 59.5859C123.164 59.0703 123.078 58.6406 122.906 58.2969C118.266 49.1875 108.984 43 98.5 43C93.8594 43.0859 89.5625 44.2031 85.7812 46.2656L74.8672 37.8438C74.6094 37.6719 74.3516 37.5859 74.0078 37.5859C73.5781 37.5859 73.1484 37.7578 72.9766 38.1016L71.2578 40.25C71.0859 40.5078 71 40.7656 71 41.1094C71 41.5391 71.1719 41.8828 71.5156 42.1406L122.047 81.2422C122.305 81.4141 122.562 81.5 122.906 81.5C123.336 81.5 123.766 81.3281 124.023 80.9844L125.656 78.8359C125.828 78.5781 125.914 78.3203 125.914 77.9766C125.914 77.5469 125.742 77.2031 125.398 76.9453ZM109.672 64.7422L106.234 62.0781C106.578 61.3047 106.664 60.4453 106.75 59.5C106.75 59.5 106.75 59.5 106.75 59.4141C106.75 54.9453 103.055 51.25 98.5859 51.25C97.8125 51.25 97.0391 51.4219 96.2656 51.5938C96.7812 52.2812 97.0391 53.1406 97.125 54C97.0391 54.3438 97.0391 54.6016 96.9531 54.8594L90.5938 50.0469C92.7422 48.2422 95.4922 47.2109 98.5 47.125C105.289 47.125 110.875 52.7109 110.875 59.5C110.875 61.3906 110.359 63.1094 109.672 64.7422Z" fill="#00284D"/>
<path d="M246.406 58.2969C241.766 49.1875 232.484 43 222 43C211.43 43 202.148 49.1875 197.508 58.2969C197.336 58.6406 197.25 59.0703 197.25 59.5C197.25 60.0156 197.336 60.4453 197.508 60.7891C202.148 69.8984 211.43 76 222 76C232.484 76 241.766 69.8984 246.406 60.7891C246.578 60.4453 246.664 60.0156 246.664 59.5859C246.664 59.0703 246.578 58.6406 246.406 58.2969ZM222 71.875C215.125 71.875 209.625 66.375 209.625 59.5C209.625 52.7109 215.125 47.125 222 47.125C228.789 47.125 234.375 52.7109 234.375 59.5V59.5859C234.375 66.375 228.789 71.9609 222 71.9609V71.875ZM222 51.25C221.227 51.3359 220.453 51.4219 219.766 51.5938C220.281 52.2812 220.539 53.1406 220.539 54.0859C220.539 56.3203 218.734 58.125 216.5 58.125C215.555 58.125 214.695 57.8672 214.008 57.3516C213.836 58.0391 213.75 58.8125 213.75 59.5C213.75 64.0547 217.445 67.75 222 67.75C226.555 67.75 230.25 64.0547 230.25 59.5C230.25 54.9453 226.555 51.3359 222 51.3359V51.25Z" fill="#00284D"/>
</svg>
