<svg width="320" height="120" viewBox="0 0 320 120" fill="none" xmlns="http://www.w3.org/2000/svg">
<rect width="320" height="120" fill="#C0CEDB"/>
<rect x="21" y="53" width="278" height="38" rx="3" fill="white"/>
<path d="M281.121 72.625C280.52 72.625 280.219 73.3359 280.656 73.7461L283.91 77C284.156 77.2734 284.566 77.2734 284.84 77L288.094 73.7461C288.504 73.3359 288.203 72.625 287.629 72.625H281.121ZM288.094 69.7539L284.84 66.5C284.566 66.2539 284.156 66.2539 283.91 66.5L280.656 69.7539C280.219 70.1914 280.52 70.875 281.121 70.875H287.629C288.203 70.875 288.504 70.1914 288.094 69.7539Z" fill="#6C757D"/>
<path d="M42.904 73.4L30.968 73.408V74.576L42.904 74.56V73.4ZM55.2216 78.16C57.9656 78.16 59.5736 76.76 59.5736 75.016C59.5736 73.76 59.0856 72.232 56.7816 71.728L54.5816 71.2C53.0696 70.832 52.5976 70.352 52.5976 69.512C52.5976 68.216 53.8696 67.544 55.1736 67.544C56.5416 67.544 57.7256 68.072 57.8776 69.64H59.4056C59.3896 67.888 57.9416 66.288 55.1656 66.288C52.7576 66.288 51.0296 67.656 51.0376 69.656C51.0536 71.24 52.0776 72.184 53.7816 72.56L56.0536 73.088C57.3336 73.384 58.0616 73.984 58.0616 75.032C58.0616 76.208 56.8376 76.928 55.2136 76.928C53.7576 76.928 52.5336 76.24 52.2456 74.928H50.6936C50.9896 77.056 53.0376 78.16 55.2216 78.16ZM62.8589 74.208H68.7869V73.664C68.7869 71.152 67.4909 69.568 65.1629 69.568C62.7549 69.568 61.3629 71.336 61.3629 73.944C61.3629 76.584 62.9549 78.16 65.2669 78.16C66.8749 78.16 68.4269 77.272 68.7309 75.584H67.3389C67.1309 76.52 66.2989 77.016 65.2429 77.016C63.6349 77.016 62.8589 75.776 62.8589 74.208ZM62.8669 73.208C62.8589 71.976 63.5949 70.688 65.1549 70.688C66.6509 70.688 67.3629 71.784 67.3629 73.208H62.8669ZM72.9214 78.104C73.1294 78.104 73.4174 78.056 73.6654 77.976V77.016L73.2174 77.008C72.6334 76.968 72.2894 76.568 72.2894 75.728V66.112H70.8334V75.872C70.8334 77.032 71.1374 78.104 72.9214 78.104ZM76.3589 74.208H82.2869V73.664C82.2869 71.152 80.9909 69.568 78.6629 69.568C76.2549 69.568 74.8629 71.336 74.8629 73.944C74.8629 76.584 76.4549 78.16 78.7669 78.16C80.3749 78.16 81.9269 77.272 82.2309 75.584H80.8389C80.6309 76.52 79.7989 77.016 78.7429 77.016C77.1349 77.016 76.3589 75.776 76.3589 74.208ZM76.3669 73.208C76.3589 71.976 77.0949 70.688 78.6549 70.688C80.1509 70.688 80.8629 71.784 80.8629 73.208H76.3669ZM87.6614 69.568C85.2214 69.568 83.8534 71.32 83.8534 73.896C83.8534 76.672 85.4214 78.16 87.6614 78.16C89.4134 78.16 90.7574 77.112 90.9734 75.448H89.6854C89.5414 76.28 88.8214 77.032 87.6854 77.032C86.1014 77.032 85.2694 75.792 85.2694 73.88C85.2694 71.768 86.2534 70.76 87.6694 70.76C88.8054 70.76 89.5254 71.472 89.6694 72.344H90.9814C90.7574 70.656 89.4374 69.568 87.6614 69.568ZM96.8695 70.808V69.72H95.0055V67.32H93.9175L93.5575 69.728H92.1735V70.808H93.5175V76C93.5175 77.328 93.9735 78.04 95.6935 78.04C96.2935 78.04 96.7095 77.984 96.9175 77.904V76.912H96.0135C95.2375 76.912 95.0055 76.832 95.0055 75.952V70.808H96.8695ZM116.451 73.4L104.515 73.408V74.576L116.451 74.56V73.4Z" fill="#495057"/>
<rect x="21" y="53" width="278" height="38" rx="3" stroke="#6C757D" stroke-width="2"/>
<path d="M32.776 37.344L31.488 35.232L30.176 37.384L29.096 36.632L30.68 34.704L28.44 34.08L28.864 32.912L30.992 33.808L30.824 31.432H32.152L31.968 33.816L34.128 32.872L34.504 34.04L32.32 34.696L33.872 36.576L32.776 37.344Z" fill="#D80004"/>
<path d="M39.9236 31.432H41.8916V41.32H47.1156V43H39.9156L39.9236 31.432ZM51.4168 43.16C50.6221 43.16 49.9634 42.9467 49.4408 42.52C48.9181 42.088 48.6568 41.48 48.6568 40.696C48.6568 39.784 48.9848 39.096 49.6408 38.632C50.3021 38.168 51.3554 37.9253 52.8008 37.904L54.0328 37.872V37.312C54.0328 36.8747 53.9021 36.5333 53.6408 36.288C53.3794 36.0427 52.9794 35.92 52.4408 35.92C52.0354 35.9253 51.6674 36.0213 51.3368 36.208C51.0061 36.3947 50.7874 36.7013 50.6808 37.128H49.0247C49.0674 36.28 49.4061 35.6427 50.0408 35.216C50.6808 34.784 51.5101 34.568 52.5288 34.568C53.7074 34.568 54.5634 34.8 55.0968 35.264C55.6354 35.7227 55.9048 36.368 55.9048 37.2V43H54.2648L54.1128 41.512C53.8088 42.136 53.4301 42.568 52.9768 42.808C52.5234 43.0427 52.0034 43.16 51.4168 43.16ZM52.0488 41.84C52.3688 41.84 52.6808 41.7653 52.9848 41.616C53.2888 41.4613 53.5394 41.264 53.7368 41.024C53.9341 40.784 54.0328 40.528 54.0328 40.256V38.952L53.0168 38.968C52.2648 38.9787 51.6594 39.0987 51.2008 39.328C50.7421 39.5573 50.5128 39.9467 50.5128 40.496C50.5128 40.9173 50.6594 41.248 50.9528 41.488C51.2461 41.7227 51.6114 41.84 52.0488 41.84ZM62.5501 43.16C61.9581 43.16 61.4781 43.0613 61.1101 42.864C60.7421 42.6613 60.4595 42.416 60.2621 42.128C60.0648 41.84 59.9235 41.5653 59.8381 41.304L59.6141 43H58.1821V31.112H60.1341V35.936C60.3048 35.6213 60.6088 35.3147 61.0461 35.016C61.4835 34.7173 62.0435 34.568 62.7261 34.568C63.7555 34.568 64.5688 34.9333 65.1661 35.664C65.7635 36.3947 66.0621 37.448 66.0621 38.824C66.0621 40.1307 65.7661 41.1813 65.1741 41.976C64.5821 42.7653 63.7075 43.16 62.5501 43.16ZM62.1501 41.728C62.7315 41.728 63.2088 41.4987 63.5821 41.04C63.9555 40.576 64.1421 39.8213 64.1421 38.776C64.1421 37.864 63.9661 37.176 63.6141 36.712C63.2621 36.248 62.7661 36.016 62.1261 36.016C61.4381 36.016 60.9368 36.2507 60.6221 36.72C60.3075 37.1893 60.1448 37.8747 60.1341 38.776C60.1341 39.832 60.2941 40.5893 60.6141 41.048C60.9395 41.5013 61.4515 41.728 62.1501 41.728ZM69.3195 39.312C69.3142 40.016 69.4848 40.5947 69.8315 41.048C70.1835 41.496 70.6928 41.72 71.3595 41.72C71.8182 41.72 72.2155 41.6187 72.5515 41.416C72.8928 41.208 73.1195 40.8933 73.2315 40.472H75.0155C74.9142 41.048 74.6822 41.536 74.3195 41.936C73.9622 42.336 73.5248 42.64 73.0075 42.848C72.4955 43.056 71.9622 43.16 71.4075 43.16C70.6075 43.16 69.9035 42.992 69.2955 42.656C68.6928 42.3147 68.2208 41.8293 67.8795 41.2C67.5435 40.5707 67.3755 39.8213 67.3755 38.952C67.3755 38.104 67.5302 37.352 67.8395 36.696C68.1488 36.0347 68.5942 35.5147 69.1755 35.136C69.7568 34.7573 70.4608 34.568 71.2875 34.568C72.5088 34.568 73.4395 34.9493 74.0795 35.712C74.7195 36.4693 75.0395 37.472 75.0395 38.72V39.312H69.3195ZM69.3195 38.104H73.1995C73.1995 37.5067 73.0422 37.0027 72.7275 36.592C72.4128 36.176 71.9302 35.968 71.2795 35.968C70.8528 35.968 70.4928 36.072 70.1995 36.28C69.9062 36.488 69.6848 36.7573 69.5355 37.088C69.3862 37.4133 69.3142 37.752 69.3195 38.104ZM79.238 43.12C78.5233 43.12 77.9953 43.008 77.654 42.784C77.318 42.5547 77.0993 42.2587 76.998 41.896C76.902 41.5333 76.854 41.1573 76.854 40.768V31.112H78.758V40.544C78.758 40.9013 78.83 41.1787 78.974 41.376C79.1233 41.5733 79.3633 41.688 79.694 41.72L80.11 41.736V42.96C79.966 43.008 79.8167 43.0453 79.662 43.072C79.5127 43.104 79.3713 43.12 79.238 43.12Z" fill="#00284D"/>
<g style="mix-blend-mode:color">
<rect width="320" height="120" fill="#808080"/>
</g>
<g style="mix-blend-mode:color">
<rect width="320" height="120" fill="#00284D"/>
</g>
</svg>
