<svg width="320" height="120" viewBox="0 0 320 120" fill="none" xmlns="http://www.w3.org/2000/svg">
<rect width="320" height="120" fill="#C0CEDB"/>
<g clip-path="url(#clip0)">
<rect width="290" height="68.1208" transform="translate(16 26)" fill="white"/>
<rect width="564.085" height="69.4906" transform="translate(16 25.0012)" fill="white"/>
<path d="M36.0191 44.6892C31.5845 44.6892 28.0368 48.2646 28.0368 52.6715C28.0368 54.1405 28.4248 55.5263 29.1177 56.6904C29.2563 56.9676 29.5612 57.1062 29.8661 57.1062H42.1444C42.4493 57.1062 42.7542 56.9676 42.8928 56.6904C43.5857 55.5263 44.0014 54.1405 44.0014 52.6715C44.0014 48.2646 40.426 44.6892 36.0191 44.6892ZM36.0191 46.4631C36.4071 46.4631 36.7397 46.7679 36.8506 47.1283C36.8229 47.1837 36.7675 47.2391 36.7397 47.3223L36.4903 48.0706C36.3517 48.1815 36.1854 48.2369 36.0191 48.2369C35.5202 48.2369 35.1322 47.8489 35.1322 47.35C35.1322 46.8788 35.5202 46.4631 36.0191 46.4631ZM30.6976 54.4454C30.1987 54.4454 29.8106 54.0574 29.8106 53.5585C29.8106 53.0873 30.1987 52.6715 30.6976 52.6715C31.1687 52.6715 31.5845 53.0873 31.5845 53.5585C31.5845 54.0574 31.1687 54.4454 30.6976 54.4454ZM32.028 50.0108C31.5291 50.0108 31.141 49.6227 31.141 49.1238C31.141 48.6527 31.5291 48.2369 32.028 48.2369C32.4991 48.2369 32.9149 48.6527 32.9149 49.1238C32.9149 49.6227 32.4991 50.0108 32.028 50.0108ZM38.8462 48.0152L37.1555 53.115C37.5435 53.4476 37.793 53.9188 37.793 54.4454C37.793 54.778 37.6821 55.0829 37.5435 55.3323H34.467C34.3284 55.0829 34.2453 54.778 34.2453 54.4454C34.2453 53.5307 34.9659 52.7547 35.8805 52.6993L37.599 47.5994C37.7098 47.2391 38.0701 47.0451 38.4304 47.1837C38.7908 47.2945 38.9571 47.6826 38.8462 48.0152ZM39.2619 49.595L39.6777 48.3201C39.7885 48.2646 39.8994 48.2646 40.0103 48.2646C40.4815 48.2646 40.8972 48.6527 40.8972 49.1516C40.8972 49.6227 40.4815 50.0385 40.0103 50.0385C39.6777 50.0108 39.4282 49.8445 39.2619 49.595ZM41.3407 54.4454C40.8418 54.4454 40.4537 54.0574 40.4537 53.5585C40.4537 53.0873 40.8418 52.6715 41.3407 52.6715C41.8118 52.6715 42.2276 53.0873 42.2276 53.5585C42.2276 54.0574 41.8118 54.4454 41.3407 54.4454Z" fill="#C0CEDB"/>
<path d="M49.243 57.2192H51.627V53.035H53.8651C56.387 53.035 58.0413 51.6727 58.0413 49.3373C58.0413 46.8559 56.1113 45.4936 53.557 45.4936H49.243V57.2192ZM51.6027 51.2023V47.31H53.7678C54.9112 47.31 55.8275 48.0479 55.8275 49.2156C55.8275 50.3428 54.9842 51.2023 53.8003 51.2023H51.6027ZM61.7904 57.3814C62.9663 57.3814 63.8177 56.9922 64.3934 55.7758L64.5881 57.2192H66.5667V51.324C66.5667 49.6778 65.5855 48.6723 63.023 48.6723C60.9228 48.6723 59.4064 49.5157 59.3172 51.3321H61.2877C61.5228 50.5617 62.2202 50.2779 62.9095 50.2698C63.8583 50.2617 64.2961 50.6915 64.2961 51.4618V51.9646L63.242 51.9808C60.2822 52.0132 58.9604 52.9863 58.9604 54.819C58.9604 56.457 60.193 57.3814 61.7904 57.3814ZM62.5932 55.8245C61.8148 55.8245 61.2066 55.3623 61.2066 54.5838C61.2066 53.5621 62.2608 53.2134 63.4447 53.1972L64.2961 53.1809V54.4216C64.288 55.1433 63.4447 55.8245 62.5932 55.8245ZM72.3793 59.9925C75.3634 59.9925 76.8474 58.8573 76.8474 57.2841C76.8474 55.9623 75.8419 55.0217 73.7903 54.8838C73.0524 54.8352 72.4037 54.8027 72.0469 54.7784C71.0576 54.7217 70.5791 54.6811 70.5791 54.4135C70.5791 54.2432 70.7818 54.0973 71.4143 54.0648C71.6252 54.0892 72.0469 54.0973 72.2415 54.0973C74.7472 54.0973 76.0365 52.7836 76.0365 51.324C76.0365 51.105 75.9716 50.7401 75.8581 50.4401L77.3015 50.2049L77.3177 48.3723C76.6122 48.6642 75.3553 49.167 74.8526 49.3616C74.2282 48.9724 73.5632 48.7048 72.4118 48.7048C70.1331 48.7048 68.4383 49.6778 68.4383 51.3321C68.4383 52.2646 69.0222 53.2377 70.1331 53.7486C68.9735 53.9513 68.414 54.5108 68.414 55.1028C68.414 55.8975 69.1844 56.1975 69.4439 56.3516C69.2817 56.4408 67.8139 56.7895 67.8139 57.9328C67.8139 59.1654 69.3952 59.9925 72.3793 59.9925ZM72.3145 52.7755C71.3819 52.7755 70.8143 52.2403 70.8143 51.4051C70.8143 50.5374 71.4143 49.9535 72.3145 49.9535C73.2064 49.9535 73.7984 50.5293 73.7984 51.4051C73.7984 52.2565 73.2064 52.7755 72.3145 52.7755ZM72.7604 58.6708C70.9602 58.6708 70.1331 58.3626 70.1331 57.6571C70.1331 57.1381 70.6359 56.6597 71.3981 56.7003L73.32 56.83C74.1471 56.8868 74.5931 57.2273 74.5931 57.7301C74.5931 58.3383 74.0741 58.6708 72.7604 58.6708ZM80.4837 53.5702H86.1194V52.9296C86.1194 50.4158 84.7733 48.6723 82.2109 48.6723C79.6403 48.6723 78.1402 50.6023 78.1402 53.1242C78.1402 55.7272 79.8431 57.3814 82.3325 57.3814C84.076 57.3814 85.8275 56.3516 86.1113 54.5595H83.9787C83.7354 55.3461 83.0867 55.6704 82.2758 55.6704C81.1405 55.6704 80.4756 54.8514 80.4837 53.5702ZM80.4837 52.1592C80.4756 51.2348 81.1162 50.3266 82.2028 50.3266C83.3462 50.3266 83.9057 51.1456 83.9057 52.1592H80.4837ZM85.7101 47.6019H89.2537V57.2192H91.6297V47.6019H95.0922V45.4936H85.7101V47.6019ZM98.7123 45.5017H96.4093V47.6344H98.7123V45.5017ZM98.6961 48.8345H96.4336V57.2192H98.6961V48.8345ZM105.793 50.4806V48.8264H103.928V46.3045H102.241L101.641 48.8345H100.206V50.4806H101.568V55.046C101.568 56.3921 102.136 57.3084 104.35 57.3084C105.169 57.3084 105.59 57.203 105.817 57.1057V55.6461H104.69C104.171 55.6461 103.944 55.565 103.944 54.9487L103.928 50.4806H105.793ZM110.156 57.3652C110.472 57.3652 110.821 57.276 111.145 57.1625V55.7028L110.748 55.6785C110.018 55.5974 109.799 55.192 109.799 54.5757V45.1692H107.48V54.8676C107.48 56.0759 107.675 57.3652 110.156 57.3652ZM114.329 53.5702H119.965V52.9296C119.965 50.4158 118.619 48.6723 116.057 48.6723C113.486 48.6723 111.986 50.6023 111.986 53.1242C111.986 55.7272 113.689 57.3814 116.178 57.3814C117.922 57.3814 119.673 56.3516 119.957 54.5595H117.824C117.581 55.3461 116.932 55.6704 116.121 55.6704C114.986 55.6704 114.321 54.8514 114.329 53.5702ZM114.329 52.1592C114.321 51.2348 114.962 50.3266 116.048 50.3266C117.192 50.3266 117.751 51.1456 117.751 52.1592H114.329Z" fill="#00284D"/>
<path d="M48.7037 74.2738H49.4741V72.1046H50.7878C52.0203 72.1046 52.8596 71.4356 52.8596 70.2639C52.8596 69.0556 51.9433 68.411 50.6864 68.411H48.7037V74.2738ZM49.47 71.4721V69.0354H50.735C51.5581 69.0354 52.1298 69.4408 52.1298 70.2193C52.1298 70.9896 51.5743 71.4721 50.7715 71.4721H49.47ZM54.8095 74.3549C55.4095 74.3549 55.9244 74.14 56.2488 73.4872L56.3056 74.2738H56.9462V71.3464C56.9462 70.4707 56.4029 70.0003 55.3122 70.0003C54.2945 70.0003 53.6701 70.4504 53.6255 71.2654H54.2864C54.3878 70.7666 54.7932 70.5558 55.2757 70.5518C55.9204 70.5518 56.2204 70.8761 56.2204 71.387V71.7154L55.4744 71.7357C54.0391 71.7681 53.4269 72.2101 53.4269 73.1385C53.4269 73.9048 53.9945 74.3549 54.8095 74.3549ZM55.0325 73.8156C54.5175 73.8156 54.1526 73.5399 54.1526 73.0656C54.1526 72.4452 54.6351 72.206 55.6001 72.1898L56.2204 72.1776V72.8953C56.2204 73.3615 55.596 73.8156 55.0325 73.8156ZM59.8876 75.6604C61.2783 75.6604 61.9514 75.1293 61.9514 74.3671C61.9514 73.6981 61.4567 73.2845 60.5809 73.2318C60.1958 73.2075 59.8795 73.1912 59.6687 73.1791C59.0848 73.1385 58.8699 73.0939 58.8699 72.9399C58.8699 72.8061 59.0443 72.6763 59.62 72.6601C59.6889 72.6642 59.8065 72.6682 59.8714 72.6682C61.0431 72.6682 61.6189 72.0844 61.6189 71.3424C61.6189 71.164 61.5662 70.945 61.481 70.7707L62.2149 70.6328L62.219 69.9395C61.9919 70.0328 61.327 70.3085 61.1486 70.3815C60.8283 70.1504 60.4877 70.0166 59.9444 70.0166C58.8051 70.0166 58.1198 70.5274 58.1198 71.3424C58.1198 71.8249 58.4077 72.2587 58.9024 72.506C58.4077 72.6155 58.1604 72.8547 58.1604 73.1183C58.1604 73.4426 58.4483 73.5602 58.5942 73.6454C58.4888 73.7224 57.7995 73.9535 57.7995 74.5576C57.7995 75.2672 58.5739 75.6604 59.8876 75.6604ZM59.8957 72.1857C59.2429 72.1857 58.8699 71.8816 58.8699 71.3505C58.8699 70.7869 59.2794 70.4788 59.8957 70.4788C60.4958 70.4788 60.9012 70.7869 60.9012 71.3505C60.9012 71.9019 60.4958 72.1857 59.8957 72.1857ZM60.0214 75.178C59.0118 75.178 58.5456 74.9185 58.5456 74.4725C58.5456 74.0832 58.9632 73.7873 59.2794 73.8035L60.4552 73.8805C60.9661 73.913 61.2215 74.1441 61.2215 74.4765C61.2215 74.9469 60.7958 75.178 60.0214 75.178ZM63.577 72.352H66.5814V72.0763C66.5814 70.8031 65.9245 70.0003 64.7447 70.0003C63.5243 70.0003 62.8188 70.8964 62.8188 72.2182C62.8188 73.5562 63.6256 74.3549 64.7974 74.3549C65.6123 74.3549 66.3989 73.9048 66.553 73.0493H65.8475C65.7421 73.5237 65.3204 73.7751 64.7852 73.7751C63.9703 73.7751 63.577 73.1466 63.577 72.352ZM63.581 71.8451C63.577 71.2208 63.95 70.568 64.7406 70.568C65.4988 70.568 65.8597 71.1234 65.8597 71.8451H63.581ZM69.535 74.2738H70.281V71.4762C70.281 70.9126 70.7919 70.641 71.3595 70.641C71.9109 70.641 72.288 70.9288 72.288 71.4275V74.2738H73.0381V71.2775C73.0381 70.5112 72.3934 70.0287 71.5744 70.0287C70.9013 70.0287 70.4756 70.3531 70.2648 70.6977V68.2488H69.535V74.2738ZM74.7586 72.352H77.763V72.0763C77.763 70.8031 77.1061 70.0003 75.9263 70.0003C74.7059 70.0003 74.0004 70.8964 74.0004 72.2182C74.0004 73.5562 74.8072 74.3549 75.979 74.3549C76.7939 74.3549 77.5805 73.9048 77.7346 73.0493H77.0291C76.9237 73.5237 76.502 73.7751 75.9668 73.7751C75.1519 73.7751 74.7586 73.1466 74.7586 72.352ZM74.7626 71.8451C74.7586 71.2208 75.1316 70.568 75.9222 70.568C76.6804 70.568 77.0413 71.1234 77.0413 71.8451H74.7626ZM79.9205 74.3549C80.5206 74.3549 81.0355 74.14 81.3599 73.4872L81.4167 74.2738H82.0573V71.3464C82.0573 70.4707 81.514 70.0003 80.4233 70.0003C79.4056 70.0003 78.7812 70.4504 78.7366 71.2654H79.3975C79.4989 70.7666 79.9043 70.5558 80.3868 70.5518C81.0315 70.5518 81.3315 70.8761 81.3315 71.387V71.7154L80.5855 71.7357C79.1502 71.7681 78.5379 72.2101 78.5379 73.1385C78.5379 73.9048 79.1056 74.3549 79.9205 74.3549ZM80.1435 73.8156C79.6286 73.8156 79.2637 73.5399 79.2637 73.0656C79.2637 72.4452 79.7462 72.206 80.7112 72.1898L81.3315 72.1776V72.8953C81.3315 73.3615 80.7071 73.8156 80.1435 73.8156ZM84.7554 74.3549C85.7366 74.3549 86.065 73.7427 86.1704 73.4142L86.2515 74.2738H86.8273V68.2488H86.0691V70.7464C85.9353 70.4747 85.4974 70.0003 84.6946 70.0003C83.5593 70.0003 82.9836 70.8558 82.9836 72.1614C82.9836 73.5967 83.6648 74.3549 84.7554 74.3549ZM84.8892 73.7792C84.1351 73.7792 83.7377 73.175 83.7377 72.1249C83.7377 71.0505 84.2121 70.5842 84.9014 70.5842C85.7366 70.5842 86.061 71.1437 86.0691 72.1249C86.0691 73.2967 85.7366 73.7792 84.8892 73.7792ZM88.8871 68.415H88.1208V69.1935H88.8871V68.415ZM88.8668 70.0814H88.1411V74.2738H88.8668V70.0814ZM90.1797 74.2738H90.9258V71.4721C90.9258 70.9086 91.4447 70.641 92.0124 70.641C92.5597 70.641 92.9368 70.9532 92.9368 71.6059V74.2738H93.6869V71.533C93.6869 70.4788 93.0138 70.0206 92.2192 70.0206C91.5461 70.0206 91.1123 70.3409 90.9055 70.6896V70.0814H90.1797V74.2738ZM96.6317 75.6604C98.0224 75.6604 98.6954 75.1293 98.6954 74.3671C98.6954 73.6981 98.2008 73.2845 97.325 73.2318C96.9398 73.2075 96.6236 73.1912 96.4127 73.1791C95.8289 73.1385 95.614 73.0939 95.614 72.9399C95.614 72.8061 95.7883 72.6763 96.3641 72.6601C96.433 72.6642 96.5506 72.6682 96.6155 72.6682C97.7872 72.6682 98.3629 72.0844 98.3629 71.3424C98.3629 71.164 98.3102 70.945 98.2251 70.7707L98.959 70.6328L98.963 69.9395C98.736 70.0328 98.071 70.3085 97.8926 70.3815C97.5723 70.1504 97.2317 70.0166 96.6884 70.0166C95.5491 70.0166 94.8639 70.5274 94.8639 71.3424C94.8639 71.8249 95.1518 72.2587 95.6464 72.506C95.1518 72.6155 94.9044 72.8547 94.9044 73.1183C94.9044 73.4426 95.1923 73.5602 95.3383 73.6454C95.2329 73.7224 94.5436 73.9535 94.5436 74.5576C94.5436 75.2672 95.318 75.6604 96.6317 75.6604ZM96.6398 72.1857C95.987 72.1857 95.614 71.8816 95.614 71.3505C95.614 70.7869 96.0235 70.4788 96.6398 70.4788C97.2398 70.4788 97.6453 70.7869 97.6453 71.3505C97.6453 71.9019 97.2398 72.1857 96.6398 72.1857ZM96.7655 75.178C95.7559 75.178 95.2896 74.9185 95.2896 74.4725C95.2896 74.0832 95.7072 73.7873 96.0235 73.8035L97.1993 73.8805C97.7102 73.913 97.9656 74.1441 97.9656 74.4765C97.9656 74.9469 97.5399 75.178 96.7655 75.178ZM101.876 74.2738H102.622V71.4721C102.622 70.8842 103.137 70.6369 103.567 70.6369C103.956 70.6369 104.418 70.8883 104.418 71.387V74.2738H105.164V71.4721C105.164 70.8356 105.712 70.6369 106.105 70.6369C106.547 70.6369 106.964 70.8477 106.964 71.6059V74.2738H107.719V71.533C107.719 70.2923 106.944 70.0003 106.352 70.0003C105.797 70.0003 105.335 70.276 105.075 70.6856C104.856 70.2396 104.325 70.0003 103.867 70.0003C103.214 70.0003 102.829 70.3206 102.598 70.6896V70.0814H101.876V74.2738ZM109.444 72.352H112.448V72.0763C112.448 70.8031 111.791 70.0003 110.611 70.0003C109.391 70.0003 108.685 70.8964 108.685 72.2182C108.685 73.5562 109.492 74.3549 110.664 74.3549C111.479 74.3549 112.266 73.9048 112.42 73.0493H111.714C111.609 73.5237 111.187 73.7751 110.652 73.7751C109.837 73.7751 109.444 73.1466 109.444 72.352ZM109.448 71.8451C109.444 71.2208 109.817 70.568 110.607 70.568C111.366 70.568 111.726 71.1234 111.726 71.8451H109.448ZM114.962 74.3549C115.984 74.3549 116.576 73.8805 116.576 73.1102C116.576 72.6966 116.365 72.1857 115.594 71.983L114.751 71.7722C114.289 71.6586 114.046 71.5086 114.046 71.2086C114.046 70.7626 114.415 70.5518 114.95 70.5518C115.469 70.5518 115.777 70.8031 115.834 71.2045H116.499C116.47 70.418 115.866 70.0003 114.958 70.0003C113.896 70.0003 113.356 70.5193 113.36 71.2532C113.364 71.8776 113.798 72.1979 114.475 72.3601L115.343 72.575C115.724 72.6642 115.903 72.8426 115.903 73.1507C115.903 73.5886 115.525 73.7954 114.958 73.7954C114.427 73.7954 114.005 73.544 113.9 73.0534H113.218C113.34 73.9576 114.086 74.3549 114.962 74.3549ZM119.056 74.3549C120.078 74.3549 120.67 73.8805 120.67 73.1102C120.67 72.6966 120.459 72.1857 119.689 71.983L118.845 71.7722C118.383 71.6586 118.14 71.5086 118.14 71.2086C118.14 70.7626 118.509 70.5518 119.044 70.5518C119.563 70.5518 119.871 70.8031 119.928 71.2045H120.593C120.564 70.418 119.96 70.0003 119.052 70.0003C117.99 70.0003 117.45 70.5193 117.454 71.2532C117.459 71.8776 117.892 72.1979 118.569 72.3601L119.437 72.575C119.818 72.6642 119.997 72.8426 119.997 73.1507C119.997 73.5886 119.62 73.7954 119.052 73.7954C118.521 73.7954 118.099 73.544 117.994 73.0534H117.313C117.434 73.9576 118.18 74.3549 119.056 74.3549ZM122.849 74.3549C123.449 74.3549 123.964 74.14 124.289 73.4872L124.345 74.2738H124.986V71.3464C124.986 70.4707 124.443 70.0003 123.352 70.0003C122.334 70.0003 121.71 70.4504 121.665 71.2654H122.326C122.428 70.7666 122.833 70.5558 123.316 70.5518C123.96 70.5518 124.26 70.8761 124.26 71.387V71.7154L123.514 71.7357C122.079 71.7681 121.467 72.2101 121.467 73.1385C121.467 73.9048 122.034 74.3549 122.849 74.3549ZM123.072 73.8156C122.557 73.8156 122.192 73.5399 122.192 73.0656C122.192 72.4452 122.675 72.206 123.64 72.1898L124.26 72.1776V72.8953C124.26 73.3615 123.636 73.8156 123.072 73.8156ZM127.927 75.6604C129.318 75.6604 129.991 75.1293 129.991 74.3671C129.991 73.6981 129.497 73.2845 128.621 73.2318C128.236 73.2075 127.919 73.1912 127.709 73.1791C127.125 73.1385 126.91 73.0939 126.91 72.9399C126.91 72.8061 127.084 72.6763 127.66 72.6601C127.729 72.6642 127.846 72.6682 127.911 72.6682C129.083 72.6682 129.659 72.0844 129.659 71.3424C129.659 71.164 129.606 70.945 129.521 70.7707L130.255 70.6328L130.259 69.9395C130.032 70.0328 129.367 70.3085 129.188 70.3815C128.868 70.1504 128.528 70.0166 127.984 70.0166C126.845 70.0166 126.16 70.5274 126.16 71.3424C126.16 71.8249 126.448 72.2587 126.942 72.506C126.448 72.6155 126.2 72.8547 126.2 73.1183C126.2 73.4426 126.488 73.5602 126.634 73.6454C126.529 73.7224 125.839 73.9535 125.839 74.5576C125.839 75.2672 126.614 75.6604 127.927 75.6604ZM127.936 72.1857C127.283 72.1857 126.91 71.8816 126.91 71.3505C126.91 70.7869 127.319 70.4788 127.936 70.4788C128.536 70.4788 128.941 70.7869 128.941 71.3505C128.941 71.9019 128.536 72.1857 127.936 72.1857ZM128.061 75.178C127.052 75.178 126.585 74.9185 126.585 74.4725C126.585 74.0832 127.003 73.7873 127.319 73.8035L128.495 73.8805C129.006 73.913 129.261 74.1441 129.261 74.4765C129.261 74.9469 128.836 75.178 128.061 75.178ZM131.617 72.352H134.621V72.0763C134.621 70.8031 133.964 70.0003 132.785 70.0003C131.564 70.0003 130.859 70.8964 130.859 72.2182C130.859 73.5562 131.665 74.3549 132.837 74.3549C133.652 74.3549 134.439 73.9048 134.593 73.0493H133.887C133.782 73.5237 133.36 73.7751 132.825 73.7751C132.01 73.7751 131.617 73.1466 131.617 72.352ZM131.621 71.8451C131.617 71.2208 131.99 70.568 132.78 70.568C133.539 70.568 133.9 71.1234 133.9 71.8451H131.621ZM139.347 75.6604C140.737 75.6604 141.41 75.1293 141.41 74.3671C141.41 73.6981 140.916 73.2845 140.04 73.2318C139.655 73.2075 139.339 73.1912 139.128 73.1791C138.544 73.1385 138.329 73.0939 138.329 72.9399C138.329 72.8061 138.503 72.6763 139.079 72.6601C139.148 72.6642 139.266 72.6682 139.33 72.6682C140.502 72.6682 141.078 72.0844 141.078 71.3424C141.078 71.164 141.025 70.945 140.94 70.7707L141.674 70.6328L141.678 69.9395C141.451 70.0328 140.786 70.3085 140.608 70.3815C140.287 70.1504 139.947 70.0166 139.403 70.0166C138.264 70.0166 137.579 70.5274 137.579 71.3424C137.579 71.8249 137.867 72.2587 138.361 72.506C137.867 72.6155 137.619 72.8547 137.619 73.1183C137.619 73.4426 137.907 73.5602 138.053 73.6454C137.948 73.7224 137.259 73.9535 137.259 74.5576C137.259 75.2672 138.033 75.6604 139.347 75.6604ZM139.355 72.1857C138.702 72.1857 138.329 71.8816 138.329 71.3505C138.329 70.7869 138.738 70.4788 139.355 70.4788C139.955 70.4788 140.36 70.7869 140.36 71.3505C140.36 71.9019 139.955 72.1857 139.355 72.1857ZM139.48 75.178C138.471 75.178 138.005 74.9185 138.005 74.4725C138.005 74.0832 138.422 73.7873 138.738 73.8035L139.914 73.8805C140.425 73.913 140.681 74.1441 140.681 74.4765C140.681 74.9469 140.255 75.178 139.48 75.178ZM144.163 74.3549C145.412 74.3549 146.073 73.4751 146.073 72.1938C146.073 70.7829 145.323 70.0003 144.167 70.0003C142.927 70.0003 142.241 70.8802 142.241 72.1938C142.241 73.5926 142.999 74.3549 144.163 74.3549ZM144.167 73.7629C143.328 73.7629 142.987 73.0615 142.987 72.1776C142.987 71.1802 143.405 70.5882 144.167 70.5882C144.99 70.5882 145.331 71.2816 145.331 72.1776C145.331 73.1629 144.917 73.7629 144.167 73.7629ZM147.621 72.352H150.625V72.0763C150.625 70.8031 149.969 70.0003 148.789 70.0003C147.568 70.0003 146.863 70.8964 146.863 72.2182C146.863 73.5562 147.67 74.3549 148.841 74.3549C149.656 74.3549 150.443 73.9048 150.597 73.0493H149.892C149.786 73.5237 149.365 73.7751 148.829 73.7751C148.014 73.7751 147.621 73.1466 147.621 72.352ZM147.625 71.8451C147.621 71.2208 147.994 70.568 148.785 70.568C149.543 70.568 149.904 71.1234 149.904 71.8451H147.625ZM153.139 74.3549C154.161 74.3549 154.753 73.8805 154.753 73.1102C154.753 72.6966 154.542 72.1857 153.772 71.983L152.928 71.7722C152.466 71.6586 152.223 71.5086 152.223 71.2086C152.223 70.7626 152.592 70.5518 153.127 70.5518C153.646 70.5518 153.954 70.8031 154.011 71.2045H154.676C154.648 70.418 154.043 70.0003 153.135 70.0003C152.073 70.0003 151.534 70.5193 151.538 71.2532C151.542 71.8776 151.976 72.1979 152.653 72.3601L153.52 72.575C153.902 72.6642 154.08 72.8426 154.08 73.1507C154.08 73.5886 153.703 73.7954 153.135 73.7954C152.604 73.7954 152.182 73.544 152.077 73.0534H151.396C151.517 73.9576 152.264 74.3549 153.139 74.3549ZM157.681 74.2738H158.427V71.4762C158.427 70.9126 158.938 70.641 159.506 70.641C160.057 70.641 160.434 70.9288 160.434 71.4275V74.2738H161.184V71.2775C161.184 70.5112 160.54 70.0287 159.721 70.0287C159.047 70.0287 158.622 70.3531 158.411 70.6977V68.2488H157.681V74.2738ZM162.905 72.352H165.909V72.0763C165.909 70.8031 165.252 70.0003 164.072 70.0003C162.852 70.0003 162.147 70.8964 162.147 72.2182C162.147 73.5562 162.953 74.3549 164.125 74.3549C164.94 74.3549 165.727 73.9048 165.881 73.0493H165.175C165.07 73.5237 164.648 73.7751 164.113 73.7751C163.298 73.7751 162.905 73.1466 162.905 72.352ZM162.909 71.8451C162.905 71.2208 163.278 70.568 164.068 70.568C164.827 70.568 165.187 71.1234 165.187 71.8451H162.909ZM166.946 74.2738H167.692V71.6667C167.692 70.9694 168.236 70.6856 168.905 70.7302C168.99 70.7302 169.14 70.7423 169.221 70.7788V70.0531C169.152 70.0166 169.022 70.0003 168.901 70.0003C168.369 70.0003 167.871 70.2842 167.66 70.8883V70.0814H166.946V74.2738ZM170.602 72.352H173.606V72.0763C173.606 70.8031 172.95 70.0003 171.77 70.0003C170.549 70.0003 169.844 70.8964 169.844 72.2182C169.844 73.5562 170.651 74.3549 171.822 74.3549C172.637 74.3549 173.424 73.9048 173.578 73.0493H172.872C172.767 73.5237 172.345 73.7751 171.81 73.7751C170.995 73.7751 170.602 73.1466 170.602 72.352ZM170.606 71.8451C170.602 71.2208 170.975 70.568 171.766 70.568C172.524 70.568 172.885 71.1234 172.885 71.8451H170.606ZM174.469 74.2738H175.361V73.3169H174.469V74.2738Z" fill="black"/>
<g filter="url(#filter0_d)">
<path d="M229.125 53.5C229.125 51.2607 230.941 49.4454 233.18 49.4454H292.316C294.555 49.4454 296.371 51.2607 296.371 53.5V66.4999C296.371 68.7392 294.555 70.5545 292.316 70.5545H233.18C230.941 70.5545 229.125 68.7392 229.125 66.5V53.5Z" fill="#00284D"/>
<path d="M244.275 58.6989H241.994V56.4182C241.994 56.149 241.757 55.9114 241.488 55.9114H240.981C240.696 55.9114 240.474 56.149 240.474 56.4182V58.6989H238.193C237.908 58.6989 237.687 58.9365 237.687 59.2057V59.7125C237.687 59.9976 237.908 60.2193 238.193 60.2193H240.474V62.5C240.474 62.7851 240.696 63.0068 240.981 63.0068H241.488C241.757 63.0068 241.994 62.7851 241.994 62.5V60.2193H244.275C244.544 60.2193 244.782 59.9976 244.782 59.7125V59.2057C244.782 58.9365 244.544 58.6989 244.275 58.6989Z" fill="white"/>
<path d="M248.346 62.5H250.293C251.789 62.5 252.547 61.9851 252.547 60.9228C252.547 60.2619 252.239 59.7105 251.314 59.5118C252.117 59.228 252.401 58.7861 252.401 58.1657C252.401 57.1764 251.655 56.6372 250.232 56.6372H248.346V62.5ZM249.097 59.2158V57.2575H250.268C251.099 57.2575 251.675 57.5778 251.675 58.259C251.675 59.001 250.982 59.2158 250.374 59.2158H249.097ZM249.097 61.8756V59.8524H250.374C251.16 59.8524 251.785 60.1565 251.785 60.8904C251.785 61.5594 251.262 61.8756 250.285 61.8756H249.097ZM255.173 62.5811C255.765 62.5851 256.276 62.3257 256.43 61.6972L256.507 62.5H257.103V58.3076H256.357V61.0363C256.357 61.6729 255.948 61.9972 255.332 61.9972C254.646 61.9972 254.314 61.6242 254.314 61.0769V58.3076H253.564V61.1539C253.564 62.0986 254.302 62.573 255.173 62.5811ZM260.469 58.855V58.3036H259.525V57.0872H258.973L258.791 58.3076H258.089V58.855H258.77V61.4864C258.77 62.1594 259.002 62.5203 259.873 62.5203C260.177 62.5203 260.388 62.4919 260.494 62.4513V61.9486H260.035C259.642 61.9486 259.525 61.908 259.525 61.462V58.855H260.469ZM263.217 58.855V58.3036H262.272V57.0872H261.721L261.539 58.3076H260.837V58.855H261.518V61.4864C261.518 62.1594 261.749 62.5203 262.621 62.5203C262.925 62.5203 263.136 62.4919 263.241 62.4513V61.9486H262.783C262.39 61.9486 262.272 61.908 262.272 61.462V58.855H263.217ZM265.804 62.5811C267.053 62.5811 267.714 61.7013 267.714 60.42C267.714 59.0091 266.964 58.2265 265.808 58.2265C264.567 58.2265 263.882 59.1064 263.882 60.42C263.882 61.8188 264.64 62.5811 265.804 62.5811ZM265.808 61.9891C264.969 61.9891 264.628 61.2877 264.628 60.4038C264.628 59.4064 265.046 58.8144 265.808 58.8144C266.631 58.8144 266.972 59.5078 266.972 60.4038C266.972 61.3891 266.558 61.9891 265.808 61.9891ZM268.71 62.5H269.456V59.6983C269.456 59.1348 269.975 58.8672 270.543 58.8672C271.09 58.8672 271.468 59.1794 271.468 59.8321V62.5H272.218V59.7591C272.218 58.705 271.545 58.2468 270.75 58.2468C270.077 58.2468 269.643 58.5671 269.436 58.9158V58.3076H268.71V62.5ZM272.038 57.3264H273.932V62.5H274.686V57.3264H276.474V56.6372H272.038V57.3264ZM277.276 60.5782H280.28V60.3025C280.28 59.0293 279.623 58.2265 278.444 58.2265C277.223 58.2265 276.518 59.1226 276.518 60.4444C276.518 61.7824 277.325 62.5811 278.496 62.5811C279.311 62.5811 280.098 62.131 280.252 61.2755H279.546C279.441 61.7499 279.019 62.0013 278.484 62.0013C277.669 62.0013 277.276 61.3728 277.276 60.5782ZM277.28 60.0713C277.276 59.4469 277.649 58.7942 278.44 58.7942C279.198 58.7942 279.559 59.3496 279.559 60.0713H277.28ZM284.734 62.5L283.12 60.3227L284.613 58.3076H283.794L282.703 59.7794L281.612 58.3076H280.797L282.281 60.3227L280.667 62.5H281.486L282.699 60.8579L283.919 62.5H284.734ZM287.552 58.855V58.3036H286.607V57.0872H286.056L285.874 58.3076H285.172V58.855H285.853V61.4864C285.853 62.1594 286.084 62.5203 286.956 62.5203C287.26 62.5203 287.471 62.4919 287.577 62.4513V61.9486H287.118C286.725 61.9486 286.607 61.908 286.607 61.462V58.855H287.552Z" fill="white"/>
</g>
</g>
<g style="mix-blend-mode:color">
<rect width="320" height="120" fill="#808080"/>
</g>
<g style="mix-blend-mode:color">
<rect width="320" height="120" fill="#00284D"/>
</g>
<defs>
<filter id="filter0_d" x="229.125" y="49.4454" width="67.2453" height="22.1227" filterUnits="userSpaceOnUse" color-interpolation-filters="sRGB">
<feFlood flood-opacity="0" result="BackgroundImageFix"/>
<feColorMatrix in="SourceAlpha" type="matrix" values="0 0 0 0 0 0 0 0 0 0 0 0 0 0 0 0 0 0 127 0"/>
<feOffset dy="1.01363"/>
<feColorMatrix type="matrix" values="0 0 0 0 0.423529 0 0 0 0 0.458824 0 0 0 0 0.490196 0 0 0 0.35 0"/>
<feBlend mode="normal" in2="BackgroundImageFix" result="effect1_dropShadow"/>
<feBlend mode="normal" in="SourceGraphic" in2="effect1_dropShadow" result="shape"/>
</filter>
<clipPath id="clip0">
<rect width="290" height="68.1208" fill="white" transform="translate(16 26)"/>
</clipPath>
</defs>
</svg>
