<svg width="320" height="120" viewBox="0 0 320 120" fill="none" xmlns="http://www.w3.org/2000/svg">
<rect width="320" height="120" fill="#C0CEDB"/>
<g filter="url(#filter0_i)">
<rect x="20" y="31" width="280" height="72" rx="4" fill="white"/>
<rect x="21" y="32" width="278" height="70" rx="3" stroke="#6C757D" stroke-width="2"/>
</g>
<path d="M44.384 45.432H42.92L39.376 55.32L35.832 45.432H34.368L38.488 57H40.272L44.384 45.432ZM47.6065 57.16C48.7905 57.16 49.8065 56.736 50.4465 55.448L50.5585 57H51.8225V51.224C51.8225 49.496 50.7505 48.568 48.5985 48.568C46.5905 48.568 45.3585 49.456 45.2705 51.064H46.5745C46.7745 50.08 47.5745 49.664 48.5265 49.656C49.7985 49.656 50.3905 50.296 50.3905 51.304V51.952L48.9185 51.992C46.0865 52.056 44.8785 52.928 44.8785 54.76C44.8785 56.272 45.9985 57.16 47.6065 57.16ZM48.0465 56.096C47.0305 56.096 46.3105 55.552 46.3105 54.616C46.3105 53.392 47.2625 52.92 49.1665 52.888L50.3905 52.864V54.28C50.3905 55.2 49.1585 56.096 48.0465 56.096ZM56.2183 57.104C56.4263 57.104 56.7143 57.056 56.9623 56.976V56.016L56.5143 56.008C55.9303 55.968 55.5863 55.568 55.5863 54.728V45.112H54.1303V54.872C54.1303 56.032 54.4343 57.104 56.2183 57.104ZM61.7484 57.16C62.9164 57.168 63.9244 56.656 64.2284 55.416L64.3804 57H65.5564V48.728H64.0844V54.112C64.0844 55.368 63.2764 56.008 62.0604 56.008C60.7084 56.008 60.0524 55.272 60.0524 54.192V48.728H58.5724V54.344C58.5724 56.208 60.0284 57.144 61.7484 57.16ZM69.0776 53.208H75.0056V52.664C75.0056 50.152 73.7096 48.568 71.3816 48.568C68.9736 48.568 67.5816 50.336 67.5816 52.944C67.5816 55.584 69.1736 57.16 71.4856 57.16C73.0936 57.16 74.6456 56.272 74.9496 54.584H73.5576C73.3496 55.52 72.5176 56.016 71.4616 56.016C69.8536 56.016 69.0776 54.776 69.0776 53.208ZM69.0856 52.208C69.0776 50.976 69.8136 49.688 71.3736 49.688C72.8696 49.688 73.5816 50.784 73.5816 52.208H69.0856Z" fill="#343A40"/>
<path d="M32.776 16.344L33.872 15.576L32.32 13.696L34.504 13.04L34.128 11.872L31.968 12.816L32.152 10.432H30.824L30.992 12.808L28.864 11.912L28.44 13.08L30.68 13.704L29.096 15.632L30.176 16.384L31.488 14.232L32.776 16.344ZM40.1268 10.432L40.1188 22H47.3188V20.32H42.0948V10.432H40.1268ZM51.2616 22.16C52.4296 22.16 53.3496 21.752 53.9496 20.512L54.1096 22H55.7496V16.2C55.7496 14.536 54.7336 13.568 52.3736 13.568C50.3336 13.568 48.9576 14.424 48.8696 16.128H50.5256C50.7416 15.272 51.4776 14.936 52.2856 14.92C53.3656 14.912 53.8776 15.44 53.8776 16.312V16.872L52.6376 16.904C49.7576 16.952 48.5016 17.872 48.5016 19.696C48.5016 21.264 49.6696 22.16 51.2616 22.16ZM51.8936 20.84C51.0136 20.84 50.3576 20.344 50.3576 19.496C50.3576 18.392 51.3576 17.984 52.8616 17.968L53.8776 17.952V19.256C53.8696 20.064 52.8536 20.84 51.8936 20.84ZM62.1908 22.16C64.5108 22.16 65.7028 20.44 65.7028 17.824C65.7028 15.08 64.4228 13.568 62.3668 13.568C61.0068 13.568 60.1188 14.304 59.7748 14.936V10.112H57.8228V22H59.2548L59.4788 20.304C59.7348 21.096 60.4228 22.16 62.1908 22.16ZM61.7908 20.728C60.3908 20.728 59.7748 19.888 59.7748 17.776C59.7908 15.976 60.3908 15.016 61.7668 15.016C63.0468 15.016 63.7828 15.96 63.7828 17.776C63.7828 19.864 62.9508 20.728 61.7908 20.728ZM69.0394 18.312H74.7594V17.72C74.7594 15.224 73.4474 13.568 71.0074 13.568C68.5274 13.568 67.0954 15.416 67.0954 17.952C67.0954 20.552 68.7274 22.16 71.1194 22.16C72.7914 22.16 74.4394 21.2 74.7274 19.472H72.9514C72.7274 20.32 71.9994 20.72 71.0794 20.72C69.7434 20.72 69.0314 19.72 69.0394 18.312ZM69.0314 17.104C69.0314 16.04 69.7114 14.968 70.9994 14.968C72.2954 14.968 72.9194 15.904 72.9194 17.104H69.0314ZM79.0036 22.12C79.2676 22.12 79.5876 22.056 79.8756 21.96V20.736L79.4596 20.72C78.8036 20.664 78.5236 20.264 78.5236 19.544V10.112H76.6196V19.768C76.6196 20.944 76.8596 22.12 79.0036 22.12Z" fill="#00284D"/>
<g style="mix-blend-mode:color">
<rect width="320" height="120" fill="#808080"/>
</g>
<g style="mix-blend-mode:color">
<rect width="320" height="120" fill="#00284D"/>
</g>
<defs>
<filter id="filter0_i" x="20" y="31" width="280" height="75" filterUnits="userSpaceOnUse" color-interpolation-filters="sRGB">
<feFlood flood-opacity="0" result="BackgroundImageFix"/>
<feBlend mode="normal" in="SourceGraphic" in2="BackgroundImageFix" result="shape"/>
<feColorMatrix in="SourceAlpha" type="matrix" values="0 0 0 0 0 0 0 0 0 0 0 0 0 0 0 0 0 0 127 0" result="hardAlpha"/>
<feOffset dy="3"/>
<feGaussianBlur stdDeviation="2"/>
<feComposite in2="hardAlpha" operator="arithmetic" k2="-1" k3="1"/>
<feColorMatrix type="matrix" values="0 0 0 0 0 0 0 0 0 0 0 0 0 0 0 0 0 0 0.1 0"/>
<feBlend mode="normal" in2="shape" result="effect1_innerShadow"/>
</filter>
</defs>
</svg>
