<svg width="320" height="120" viewBox="0 0 320 120" fill="none" xmlns="http://www.w3.org/2000/svg">
<rect width="320" height="120" fill="#C0CEDB"/>
<path d="M131.909 48.3273V68.9273C131.909 82.3729 142.809 93.2727 156.255 93.2727V106.382H150.636C147.534 106.382 145.018 108.897 145.018 112H174.982C174.982 108.897 172.466 106.382 169.364 106.382H163.745V93.2727C177.191 93.2727 188.091 82.3729 188.091 68.9273V48.3273H184.345V68.9273C184.345 80.3043 175.123 89.5273 163.745 89.5273H156.255C144.877 89.5273 135.655 80.3043 135.655 68.9273V48.3273H131.909Z" fill="#00284D"/>
<path d="M160 9C149.657 9 141.273 17.3845 141.273 27.7273H152.509V31.4727H141.273V35.2182H152.509V38.9636H141.273V42.7091H152.509V46.4545H141.273V65.1818C141.273 75.5246 149.657 83.9091 160 83.9091C170.343 83.9091 178.727 75.5246 178.727 65.1818V46.4545H167.491V42.7091H178.727V38.9636H167.491V35.2182H178.727V31.4727H167.491V27.7273H178.727C178.727 17.3845 170.343 9 160 9Z" fill="#00284D"/>
<path d="M141.273 48.3273H178.727V65.1818C178.727 75.5246 170.343 83.9091 160 83.9091C149.657 83.9091 141.273 75.5246 141.273 65.1818V48.3273Z" fill="white"/>
<g style="mix-blend-mode:color">
<rect width="320" height="120" fill="#808080"/>
</g>
<g style="mix-blend-mode:color">
<rect width="320" height="120" fill="#00284D"/>
</g>
<path opacity="0.5" fill-rule="evenodd" clip-rule="evenodd" d="M96.5527 106.363H98.9881V62.1814H96.5527V106.363ZM94.4085 103.213H91.9731V62.1815H94.4085V103.213ZM41.7031 102.313H44.1385V62.2079H41.7031V102.313ZM14.2783 96.1447H16.7137V62.1814H14.2783V96.1447ZM12.161 90.824H9.72559V62.1815H12.161V90.824ZM7.58116 79.5469H5.14575V62.1814H7.58116V79.5469ZM21.2936 80.2882H18.8582V62.1815H21.2936V80.2882ZM23.4377 72.9554H25.8731V62.1814H23.4377V72.9554ZM30.4261 66.1522H27.9907V62.1815H30.4261V66.1522ZM32.5706 85.1324H35.0059V62.1814H32.5706V85.1324ZM39.5856 94.9006H37.1501V62.208H39.5856V94.9006ZM48.7184 88.7856H46.283V62.1815H48.7184V88.7856ZM50.8362 81.6912H53.2716V62.2079H50.8362V81.6912ZM57.8512 90.4269H55.4158V62.208H57.8512V90.4269ZM59.9951 96.1447H62.4305V62.1814H59.9951V96.1447ZM66.9837 91.6445H64.5483V62.2079H66.9837V91.6445ZM69.1282 85.1324H71.5636V62.1814H69.1282V85.1324ZM76.1166 68.7994H73.6812V62.208H76.1166V68.7994ZM78.2607 78.1439H80.6961V62.2079H78.2607V78.1439ZM85.276 87.2767H82.8406V62.208H85.276V87.2767ZM87.3933 95.5889H89.8287V62.1815H87.3933V95.5889ZM103.541 101.174H101.106V62.1814H103.541V101.174ZM105.686 81.6912H108.121V62.2079H105.686V81.6912ZM112.674 87.9913H110.239V62.2078H112.674V87.9913ZM114.818 80.2882H117.254V62.1815H114.818V80.2882ZM121.833 72.9554H119.398V62.1814H121.833V72.9554ZM123.951 67.5817H126.387V62.2079H123.951V67.5817Z" fill="white"/>
<path opacity="0.2" fill-rule="evenodd" clip-rule="evenodd" d="M7.58116 62.1815H5.14575V44.816H7.58116V62.1815ZM12.161 62.1815H9.72559V33.5391H12.161V62.1815ZM14.2786 62.1815H16.714V28.2183H14.2786V62.1815ZM21.2938 62.1815H18.8584V44.0748H21.2938V62.1815ZM23.4377 62.1815H25.8731V51.4075H23.4377V62.1815ZM30.4264 62.1815H27.991V58.2108H30.4264V62.1815ZM32.5708 62.1815H35.0062V39.2305H32.5708V62.1815ZM39.5856 62.1815H37.1501V29.4889H39.5856V62.1815ZM41.7034 62.1815H44.1388V22.0768H41.7034V62.1815ZM48.7186 62.1815H46.2832V35.5774H48.7186V62.1815ZM50.8362 62.1815H53.2716V42.6983H50.8362V62.1815ZM57.8512 62.1815H55.4158V33.9626H57.8512V62.1815ZM59.9954 62.1815H62.4308V28.2183H59.9954V62.1815ZM66.9837 62.1815H64.5483V32.7449H66.9837V62.1815ZM69.1282 62.1815H71.5636V39.2305H69.1282V62.1815ZM76.1168 62.1815H73.6814V55.59H76.1168V62.1815ZM78.2607 62.1815H80.6961V46.2455H78.2607V62.1815ZM85.276 62.1815H82.8406V37.1128H85.276V62.1815ZM87.3936 62.1815H89.829V28.7742H87.3936V62.1815ZM94.4088 62.1815H91.9734V21.1503H94.4088V62.1815ZM96.5527 62.1815H98.9881V18.0002H96.5527V62.1815ZM103.541 62.1815H101.106V23.1886H103.541V62.1815ZM105.686 62.1815H108.121V42.6983H105.686V62.1815ZM112.674 62.1815H110.239V36.398H112.674V62.1815ZM114.818 62.1815H117.254V44.0748H114.818V62.1815ZM121.834 62.1815H119.398V51.4075H121.834V62.1815ZM123.951 62.1815H126.387V56.8078H123.951V62.1815Z" fill="white"/>
<path opacity="0.5" fill-rule="evenodd" clip-rule="evenodd" d="M285.407 18H287.842V62.1814H285.407V18ZM283.263 21.15H280.827V62.1812H283.263V21.15ZM230.557 22.0502H232.993V62.1549H230.557V22.0502ZM203.133 28.2181H205.568V62.1814H203.133V28.2181ZM201.015 33.5388H198.58V62.1813H201.015V33.5388ZM196.435 44.8159H194V62.1814H196.435V44.8159ZM210.148 44.0746H207.712V62.1813H210.148V44.0746ZM212.292 51.4073H214.727V62.1814H212.292V51.4073ZM219.28 58.2106H216.845V62.1813H219.28V58.2106ZM221.425 39.2303H223.86V62.1814H221.425V39.2303ZM228.44 29.4622H226.004V62.1548H228.44V29.4622ZM237.573 35.5771H235.137V62.1813H237.573V35.5771ZM239.69 42.6716H242.126V62.1548H239.69V42.6716ZM246.705 33.9359H244.27V62.1548H246.705V33.9359ZM248.849 28.2181H251.285V62.1814H248.849V28.2181ZM255.838 32.7183H253.403V62.1549H255.838V32.7183ZM257.982 39.2303H260.418V62.1814H257.982V39.2303ZM264.971 55.5634H262.535V62.1548H264.971V55.5634ZM267.115 46.2189H269.55V62.1549H267.115V46.2189ZM274.13 37.0861H271.695V62.1548H274.13V37.0861ZM276.248 28.7739H278.683V62.1813H276.248V28.7739ZM292.395 23.1885H289.96V62.1814H292.395V23.1885ZM294.54 42.6716H296.975V62.1548H294.54V42.6716ZM301.528 36.3715H299.093V62.1549H301.528V36.3715ZM303.672 44.0746H306.108V62.1813H303.672V44.0746ZM310.688 51.4073H308.252V62.1814H310.688V51.4073ZM312.805 56.7811H315.241V62.1549H312.805V56.7811Z" fill="white"/>
<path opacity="0.2" fill-rule="evenodd" clip-rule="evenodd" d="M196.435 62.1813H194V79.5467H196.435V62.1813ZM201.015 62.1813H198.58V90.8237H201.015V62.1813ZM203.133 62.1813H205.568V96.1445H203.133V62.1813ZM210.148 62.1813H207.713V80.288H210.148V62.1813ZM212.292 62.1813H214.727V72.9553H212.292V62.1813ZM219.281 62.1813H216.845V66.152H219.281V62.1813ZM221.425 62.1813H223.86V85.1323H221.425V62.1813ZM228.44 62.1813H226.004V94.8739H228.44V62.1813ZM230.558 62.1813H232.993V102.286H230.558V62.1813ZM237.573 62.1813H235.137V88.7854H237.573V62.1813ZM239.69 62.1813H242.126V81.6645H239.69V62.1813ZM246.705 62.1813H244.27V90.4002H246.705V62.1813ZM248.85 62.1813H251.285V96.1445H248.85V62.1813ZM255.838 62.1813H253.403V91.6179H255.838V62.1813ZM257.982 62.1813H260.418V85.1323H257.982V62.1813ZM264.971 62.1813H262.536V68.7727H264.971V62.1813ZM267.115 62.1813H269.55V78.1173H267.115V62.1813ZM274.13 62.1813H271.695V87.25H274.13V62.1813ZM276.248 62.1813H278.683V95.5886H276.248V62.1813ZM283.263 62.1813H280.828V103.212H283.263V62.1813ZM285.407 62.1813H287.842V106.363H285.407V62.1813ZM292.396 62.1813H289.96V101.174H292.396V62.1813ZM294.54 62.1813H296.975V81.6645H294.54V62.1813ZM301.528 62.1813H299.093V87.9648H301.528V62.1813ZM303.673 62.1813H306.108V80.288H303.673V62.1813ZM310.688 62.1813H308.252V72.9553H310.688V62.1813ZM312.805 62.1813H315.241V67.555H312.805V62.1813Z" fill="white"/>
</svg>
