<svg width="320" height="120" viewBox="0 0 320 120" fill="none" xmlns="http://www.w3.org/2000/svg">
<rect width="320" height="120" fill="#C0CEDB"/>
<path d="M80 59.5C80 50.9396 86.9396 44 95.5 44H140.5C149.06 44 156 50.9396 156 59.5V59.5C156 68.0604 149.06 75 140.5 75H95.5C86.9396 75 80 68.0604 80 59.5V59.5Z" fill="#185AE3"/>
<path d="M97.5 50.6719C92.416 50.6719 88.2969 54.791 88.2969 59.875C88.2969 64.959 92.416 69.0781 97.5 69.0781C102.584 69.0781 106.703 64.959 106.703 59.875C106.703 54.791 102.584 50.6719 97.5 50.6719ZM101.99 62.3242C102.176 62.4727 102.176 62.7695 101.99 62.9551L100.543 64.4023C100.357 64.5879 100.061 64.5879 99.9121 64.4023L97.5 61.9531L95.0508 64.4023C94.9023 64.5879 94.6055 64.5879 94.4199 64.4023L92.9727 62.918C92.7871 62.7695 92.7871 62.4727 92.9727 62.2871L95.4219 59.875L92.9727 57.4629C92.7871 57.3145 92.7871 57.0176 92.9727 56.832L94.457 55.3848C94.6055 55.1992 94.9023 55.1992 95.0879 55.3848L97.5 57.7969L99.9121 55.3848C100.061 55.1992 100.357 55.1992 100.543 55.3848L101.99 56.832C102.176 57.0176 102.176 57.3145 101.99 57.4629L99.5781 59.875L101.99 62.3242Z" fill="white"/>
<path d="M113.972 54.824H115.718V63.5H113.972V54.824ZM121.093 58.514H119.713L119.725 61.82C119.725 61.972 119.743 62.086 119.779 62.162C119.819 62.234 119.879 62.282 119.959 62.306C120.043 62.326 120.149 62.336 120.277 62.336H121.111V63.416C121.031 63.452 120.905 63.486 120.733 63.518C120.565 63.55 120.329 63.566 120.025 63.566C119.481 63.566 119.059 63.496 118.759 63.356C118.463 63.216 118.257 63.02 118.141 62.768C118.025 62.516 117.967 62.224 117.967 61.892V58.514H116.958V57.296H118.027L118.465 55.424H119.713V57.29H121.093V58.514ZM123.628 60.8C123.624 61.116 123.674 61.392 123.778 61.628C123.882 61.86 124.032 62.04 124.228 62.168C124.428 62.292 124.668 62.354 124.948 62.354C125.248 62.354 125.51 62.29 125.734 62.162C125.962 62.034 126.12 61.824 126.208 61.532H127.786C127.718 61.972 127.542 62.348 127.258 62.66C126.978 62.972 126.638 63.21 126.238 63.374C125.838 63.538 125.422 63.62 124.99 63.62C124.378 63.62 123.838 63.492 123.37 63.236C122.906 62.976 122.544 62.61 122.284 62.138C122.024 61.666 121.894 61.11 121.894 60.47C121.894 59.85 122.012 59.292 122.248 58.796C122.484 58.296 122.826 57.902 123.274 57.614C123.726 57.322 124.268 57.176 124.9 57.176C125.532 57.176 126.062 57.31 126.49 57.578C126.922 57.842 127.246 58.212 127.462 58.688C127.682 59.16 127.792 59.706 127.792 60.326V60.8H123.628ZM123.622 59.756H126.154C126.154 59.508 126.108 59.28 126.016 59.072C125.924 58.864 125.784 58.7 125.596 58.58C125.412 58.46 125.18 58.4 124.9 58.4C124.628 58.4 124.396 58.466 124.204 58.598C124.016 58.726 123.872 58.894 123.772 59.102C123.672 59.31 123.622 59.528 123.622 59.756ZM129.008 63.5V57.296H130.724V58.172C130.912 57.9 131.164 57.666 131.48 57.47C131.8 57.274 132.202 57.176 132.686 57.176C132.898 57.176 133.114 57.214 133.334 57.29C133.554 57.366 133.76 57.478 133.952 57.626C134.148 57.77 134.306 57.952 134.426 58.172C134.626 57.888 134.888 57.652 135.212 57.464C135.54 57.272 135.904 57.176 136.304 57.176C136.536 57.176 136.77 57.214 137.006 57.29C137.246 57.366 137.466 57.49 137.666 57.662C137.866 57.834 138.026 58.064 138.146 58.352C138.27 58.636 138.332 58.988 138.332 59.408V63.5H136.58V59.624C136.58 59.376 136.53 59.178 136.43 59.03C136.334 58.878 136.21 58.77 136.058 58.706C135.91 58.638 135.752 58.604 135.584 58.604C135.428 58.604 135.27 58.636 135.11 58.7C134.95 58.76 134.814 58.858 134.702 58.994C134.59 59.13 134.534 59.308 134.534 59.528V63.5H132.788V59.468C132.788 59.28 132.738 59.122 132.638 58.994C132.538 58.866 132.412 58.77 132.26 58.706C132.112 58.638 131.96 58.604 131.804 58.604C131.644 58.604 131.484 58.638 131.324 58.706C131.164 58.77 131.03 58.872 130.922 59.012C130.814 59.148 130.76 59.32 130.76 59.528V63.5H129.008Z" fill="white"/>
<path d="M164 59.5C164 50.9396 170.94 44 179.5 44H224.5C233.06 44 240 50.9396 240 59.5C240 68.0604 233.06 75 224.5 75H179.5C170.94 75 164 68.0604 164 59.5Z" fill="#00284D"/>
<path d="M181.5 50.6719C176.416 50.6719 172.297 54.791 172.297 59.875C172.297 64.959 176.416 69.0781 181.5 69.0781C186.584 69.0781 190.703 64.959 190.703 59.875C190.703 54.791 186.584 50.6719 181.5 50.6719ZM185.99 62.3242C186.176 62.4727 186.176 62.7695 185.99 62.9551L184.543 64.4023C184.357 64.5879 184.061 64.5879 183.912 64.4023L181.5 61.9531L179.051 64.4023C178.902 64.5879 178.605 64.5879 178.42 64.4023L176.973 62.918C176.787 62.7695 176.787 62.4727 176.973 62.2871L179.422 59.875L176.973 57.4629C176.787 57.3145 176.787 57.0176 176.973 56.832L178.457 55.3848C178.605 55.1992 178.902 55.1992 179.088 55.3848L181.5 57.7969L183.912 55.3848C184.061 55.1992 184.357 55.1992 184.543 55.3848L185.99 56.832C186.176 57.0176 186.176 57.3145 185.99 57.4629L183.578 59.875L185.99 62.3242Z" fill="white"/>
<path d="M197.972 54.824H199.718V63.5H197.972V54.824ZM205.093 58.514H203.713L203.725 61.82C203.725 62.048 203.769 62.192 203.857 62.252C203.945 62.308 204.085 62.336 204.277 62.336H205.111V63.416C205.027 63.452 204.901 63.486 204.733 63.518C204.565 63.55 204.329 63.566 204.025 63.566C203.481 63.566 203.059 63.496 202.759 63.356C202.463 63.216 202.257 63.02 202.141 62.768C202.025 62.516 201.967 62.224 201.967 61.892V58.514H200.958V57.296H202.027L202.465 55.424H203.713V57.29H205.093V58.514ZM207.628 60.8C207.624 61.276 207.738 61.654 207.97 61.934C208.202 62.214 208.528 62.354 208.948 62.354C209.248 62.354 209.51 62.29 209.734 62.162C209.962 62.034 210.12 61.824 210.208 61.532H211.786C211.718 61.972 211.542 62.348 211.258 62.66C210.978 62.972 210.638 63.21 210.238 63.374C209.838 63.538 209.422 63.62 208.99 63.62C208.374 63.62 207.834 63.492 207.37 63.236C206.906 62.976 206.544 62.61 206.284 62.138C206.024 61.666 205.894 61.11 205.894 60.47C205.894 59.85 206.012 59.292 206.248 58.796C206.484 58.296 206.826 57.902 207.274 57.614C207.726 57.322 208.268 57.176 208.9 57.176C209.532 57.176 210.062 57.31 210.49 57.578C210.922 57.842 211.246 58.212 211.462 58.688C211.682 59.16 211.792 59.706 211.792 60.326V60.8H207.628ZM207.622 59.756H210.154C210.154 59.38 210.05 59.06 209.842 58.796C209.634 58.532 209.32 58.4 208.9 58.4C208.628 58.4 208.396 58.466 208.204 58.598C208.016 58.73 207.872 58.9 207.772 59.108C207.672 59.312 207.622 59.528 207.622 59.756ZM213.008 63.5V57.296H214.724V58.172C214.912 57.9 215.164 57.666 215.48 57.47C215.8 57.274 216.202 57.176 216.686 57.176C217.002 57.176 217.324 57.26 217.652 57.428C217.984 57.596 218.242 57.844 218.426 58.172C218.626 57.888 218.888 57.652 219.212 57.464C219.54 57.272 219.904 57.176 220.304 57.176C220.612 57.176 220.922 57.246 221.234 57.386C221.546 57.526 221.806 57.758 222.014 58.082C222.226 58.406 222.332 58.848 222.332 59.408V63.5H220.58V59.624C220.58 59.248 220.476 58.984 220.268 58.832C220.06 58.68 219.832 58.604 219.584 58.604C219.428 58.604 219.27 58.636 219.11 58.7C218.95 58.76 218.814 58.858 218.702 58.994C218.59 59.13 218.534 59.308 218.534 59.528V63.5H216.788V59.468C216.788 59.188 216.682 58.974 216.47 58.826C216.258 58.678 216.036 58.604 215.804 58.604C215.564 58.604 215.33 58.68 215.102 58.832C214.874 58.984 214.76 59.216 214.76 59.528V63.5H213.008Z" fill="white"/>
<g style="mix-blend-mode:color">
<rect width="320" height="120" fill="#808080"/>
</g>
<g style="mix-blend-mode:color">
<rect width="320" height="120" fill="#00284D"/>
</g>
</svg>
