<svg width="320" height="120" viewBox="0 0 320 120" fill="none" xmlns="http://www.w3.org/2000/svg">
<rect width="320" height="120" fill="#C0CEDB"/>
<g opacity="0.25">
<mask id="path-1-inside-1_442_3094" fill="white">
<path d="M25.0904 68.2822C26.7284 74.3956 30.1425 79.8859 34.9009 84.0589C39.6593 88.2319 45.5483 90.9001 51.8232 91.7262C58.098 92.5523 64.4769 91.4992 70.1532 88.6999C75.8295 85.9007 80.5483 81.4811 83.7128 76C86.8773 70.5189 88.3454 64.2226 87.9315 57.9071C87.5175 51.5916 85.2402 45.5408 81.3873 40.5196C77.5345 35.4985 72.2792 31.7326 66.2861 29.6982C60.2929 27.6638 53.8311 27.4523 47.7178 29.0904L51.8589 44.5452C54.9156 43.7262 58.1465 43.8319 61.143 44.8491C64.1396 45.8663 66.7672 47.7492 68.6937 50.2598C70.6201 52.7704 71.7588 55.7958 71.9657 58.9535C72.1727 62.1113 71.4387 65.2595 69.8564 68C68.2742 70.7405 65.9148 72.9503 63.0766 74.35C60.2385 75.7496 57.049 76.2762 53.9116 75.8631C50.7742 75.4501 47.8297 74.1159 45.4505 72.0294C43.0713 69.9429 41.3642 67.1978 40.5452 64.1411L25.0904 68.2822Z"/>
</mask>
<path d="M25.0904 68.2822C26.7284 74.3956 30.1425 79.8859 34.9009 84.0589C39.6593 88.2319 45.5483 90.9001 51.8232 91.7262C58.098 92.5523 64.4769 91.4992 70.1532 88.6999C75.8295 85.9007 80.5483 81.4811 83.7128 76C86.8773 70.5189 88.3454 64.2226 87.9315 57.9071C87.5175 51.5916 85.2402 45.5408 81.3873 40.5196C77.5345 35.4985 72.2792 31.7326 66.2861 29.6982C60.2929 27.6638 53.8311 27.4523 47.7178 29.0904L51.8589 44.5452C54.9156 43.7262 58.1465 43.8319 61.143 44.8491C64.1396 45.8663 66.7672 47.7492 68.6937 50.2598C70.6201 52.7704 71.7588 55.7958 71.9657 58.9535C72.1727 62.1113 71.4387 65.2595 69.8564 68C68.2742 70.7405 65.9148 72.9503 63.0766 74.35C60.2385 75.7496 57.049 76.2762 53.9116 75.8631C50.7742 75.4501 47.8297 74.1159 45.4505 72.0294C43.0713 69.9429 41.3642 67.1978 40.5452 64.1411L25.0904 68.2822Z" stroke="#004BA1" stroke-width="32" mask="url(#path-1-inside-1_442_3094)"/>
</g>
<g opacity="0.5">
<mask id="path-2-inside-2_442_3094" fill="white">
<path d="M98.5421 44C95.3776 49.4811 93.9095 55.7774 94.3234 62.0929C94.7374 68.4083 97.0148 74.4592 100.868 79.4804C104.72 84.5015 109.976 88.2674 115.969 90.3018C121.962 92.3362 128.424 92.5477 134.537 90.9096C140.65 89.2716 146.141 85.8575 150.314 81.0991C154.487 76.3407 157.155 70.4517 157.981 64.1768C158.807 57.902 157.754 51.5231 154.955 45.8468C152.156 40.1705 147.736 35.4517 142.255 32.2872L134.255 46.1436C136.995 47.7258 139.205 50.0852 140.605 52.9234C142.005 55.7615 142.531 58.951 142.118 62.0884C141.705 65.2258 140.371 68.1703 138.284 70.5495C136.198 72.9287 133.453 74.6358 130.396 75.4548C127.339 76.2738 124.108 76.1681 121.112 75.1509C118.115 74.1337 115.488 72.2507 113.561 69.7402C111.635 67.2296 110.496 64.2042 110.289 61.0464C110.082 57.8887 110.816 54.7405 112.399 52L98.5421 44Z"/>
</mask>
<path d="M98.5421 44C95.3776 49.4811 93.9095 55.7774 94.3234 62.0929C94.7374 68.4083 97.0148 74.4592 100.868 79.4804C104.72 84.5015 109.976 88.2674 115.969 90.3018C121.962 92.3362 128.424 92.5477 134.537 90.9096C140.65 89.2716 146.141 85.8575 150.314 81.0991C154.487 76.3407 157.155 70.4517 157.981 64.1768C158.807 57.902 157.754 51.5231 154.955 45.8468C152.156 40.1705 147.736 35.4517 142.255 32.2872L134.255 46.1436C136.995 47.7258 139.205 50.0852 140.605 52.9234C142.005 55.7615 142.531 58.951 142.118 62.0884C141.705 65.2258 140.371 68.1703 138.284 70.5495C136.198 72.9287 133.453 74.6358 130.396 75.4548C127.339 76.2738 124.108 76.1681 121.112 75.1509C118.115 74.1337 115.488 72.2507 113.561 69.7402C111.635 67.2296 110.496 64.2042 110.289 61.0464C110.082 57.8887 110.816 54.7405 112.399 52L98.5421 44Z" stroke="#004BA1" stroke-width="32" mask="url(#path-2-inside-2_442_3094)"/>
</g>
<g opacity="0.75">
<mask id="path-3-inside-3_442_3094" fill="white">
<path d="M185.973 29.0904C179.859 30.7284 174.369 34.1425 170.196 38.9009C166.023 43.6593 163.355 49.5483 162.529 55.8232C161.703 62.098 162.756 68.4769 165.555 74.1532C168.354 79.8295 172.774 84.5483 178.255 87.7128C183.736 90.8773 190.032 92.3454 196.348 91.9315C202.663 91.5175 208.714 89.2402 213.735 85.3873C218.756 81.5345 222.522 76.2792 224.557 70.2861C226.591 64.2929 226.803 57.8311 225.165 51.7178L209.71 55.8589C210.529 58.9156 210.423 62.1465 209.406 65.143C208.389 68.1396 206.506 70.7672 203.995 72.6937C201.484 74.6201 198.459 75.7588 195.301 75.9657C192.144 76.1727 188.995 75.4387 186.255 73.8564C183.514 72.2742 181.305 69.9148 179.905 67.0766C178.505 64.2385 177.979 61.049 178.392 57.9116C178.805 54.7742 180.139 51.8297 182.225 49.4505C184.312 47.0713 187.057 45.3642 190.114 44.5452L185.973 29.0904Z"/>
</mask>
<path d="M185.973 29.0904C179.859 30.7284 174.369 34.1425 170.196 38.9009C166.023 43.6593 163.355 49.5483 162.529 55.8232C161.703 62.098 162.756 68.4769 165.555 74.1532C168.354 79.8295 172.774 84.5483 178.255 87.7128C183.736 90.8773 190.032 92.3454 196.348 91.9315C202.663 91.5175 208.714 89.2402 213.735 85.3873C218.756 81.5345 222.522 76.2792 224.557 70.2861C226.591 64.2929 226.803 57.8311 225.165 51.7178L209.71 55.8589C210.529 58.9156 210.423 62.1465 209.406 65.143C208.389 68.1396 206.506 70.7672 203.995 72.6937C201.484 74.6201 198.459 75.7588 195.301 75.9657C192.144 76.1727 188.995 75.4387 186.255 73.8564C183.514 72.2742 181.305 69.9148 179.905 67.0766C178.505 64.2385 177.979 61.049 178.392 57.9116C178.805 54.7742 180.139 51.8297 182.225 49.4505C184.312 47.0713 187.057 45.3642 190.114 44.5452L185.973 29.0904Z" stroke="#004BA1" stroke-width="32" mask="url(#path-3-inside-3_442_3094)"/>
</g>
<mask id="path-4-inside-4_442_3094" fill="white">
<path d="M280 32.2872C274.519 29.1227 268.223 27.6546 261.907 28.0685C255.592 28.4824 249.541 30.7598 244.52 34.6127C239.499 38.4655 235.733 43.7208 233.698 49.7139C231.664 55.707 231.452 62.1688 233.09 68.2822C234.728 74.3955 238.143 79.8859 242.901 84.0589C247.659 88.2319 253.548 90.9001 259.823 91.7262C266.098 92.5523 272.477 91.4992 278.153 88.6999C283.83 85.9007 288.548 81.4811 291.713 76L277.856 68C276.274 70.7405 273.915 72.9503 271.077 74.35C268.238 75.7496 265.049 76.2762 261.912 75.8631C258.774 75.4501 255.83 74.1159 253.45 72.0294C251.071 69.9429 249.364 67.1978 248.545 64.1411C247.726 61.0844 247.832 57.8535 248.849 54.857C249.866 51.8604 251.749 49.2328 254.26 47.3063C256.77 45.3799 259.796 44.2412 262.954 44.0342C266.111 43.8273 269.259 44.5613 272 46.1436L280 32.2872Z"/>
</mask>
<path d="M280 32.2872C274.519 29.1227 268.223 27.6546 261.907 28.0685C255.592 28.4824 249.541 30.7598 244.52 34.6127C239.499 38.4655 235.733 43.7208 233.698 49.7139C231.664 55.707 231.452 62.1688 233.09 68.2822C234.728 74.3955 238.143 79.8859 242.901 84.0589C247.659 88.2319 253.548 90.9001 259.823 91.7262C266.098 92.5523 272.477 91.4992 278.153 88.6999C283.83 85.9007 288.548 81.4811 291.713 76L277.856 68C276.274 70.7405 273.915 72.9503 271.077 74.35C268.238 75.7496 265.049 76.2762 261.912 75.8631C258.774 75.4501 255.83 74.1159 253.45 72.0294C251.071 69.9429 249.364 67.1978 248.545 64.1411C247.726 61.0844 247.832 57.8535 248.849 54.857C249.866 51.8604 251.749 49.2328 254.26 47.3063C256.77 45.3799 259.796 44.2412 262.954 44.0342C266.111 43.8273 269.259 44.5613 272 46.1436L280 32.2872Z" stroke="#004BA1" stroke-width="32" mask="url(#path-4-inside-4_442_3094)"/>
<g style="mix-blend-mode:color">
<rect width="320" height="120" fill="#808080"/>
</g>
<g style="mix-blend-mode:color">
<rect width="320" height="120" fill="#00284D"/>
</g>
</svg>
