<svg width="320" height="120" viewBox="0 0 320 120" fill="none" xmlns="http://www.w3.org/2000/svg">
<rect width="320" height="120" fill="#C0CEDB"/>
<g style="mix-blend-mode:color">
<rect width="320" height="120" fill="#808080"/>
</g>
<g style="mix-blend-mode:color">
<rect width="320" height="120" fill="#00284D"/>
</g>
<path d="M103.76 31.82V36.84L85.32 29.7V24.86L103.76 17.66V22.68L91.74 27.32L103.76 31.82ZM108.586 41V11.28H114.386V23.3C114.719 22.82 115.139 22.3467 115.646 21.88C116.153 21.4 116.786 21 117.546 20.68C118.306 20.36 119.233 20.2 120.326 20.2C121.646 20.2 122.846 20.46 123.926 20.98C125.019 21.4867 125.893 22.2267 126.546 23.2C127.213 24.1733 127.546 25.36 127.546 26.76V41H121.686V27.62C121.686 26.6867 121.346 25.9733 120.666 25.48C119.999 24.9733 119.186 24.72 118.226 24.72C117.599 24.72 116.993 24.8333 116.406 25.06C115.819 25.2867 115.339 25.6333 114.966 26.1C114.606 26.5533 114.426 27.12 114.426 27.8V41H108.586ZM136.677 41V19.34H131.517V16.04C133.17 16.04 134.504 15.8867 135.517 15.58C136.544 15.26 137.31 14.8067 137.817 14.22C138.324 13.62 138.624 12.9067 138.717 12.08H142.597V41H136.677ZM149.246 31.82L161.286 27.32L149.226 22.68V17.66L167.686 24.86V29.7L149.246 36.84V31.82Z" fill="#00284D"/>
<path opacity="0.75" d="M155.08 73.736V77.16L140.904 71.656V68.312L155.096 62.744V66.2L145.32 70.008L155.08 73.736ZM159.239 81V57.224H163.079V66.856C163.346 66.44 163.698 66.04 164.135 65.656C164.573 65.2613 165.106 64.9413 165.735 64.696C166.375 64.44 167.138 64.312 168.023 64.312C169.079 64.312 170.045 64.5147 170.919 64.92C171.794 65.3253 172.493 65.912 173.015 66.68C173.538 67.4373 173.799 68.344 173.799 69.4V81H169.895V70.056C169.895 69.2027 169.591 68.5413 168.983 68.072C168.386 67.6027 167.629 67.368 166.711 67.368C166.103 67.368 165.522 67.4747 164.967 67.688C164.413 67.9013 163.965 68.2213 163.623 68.648C163.293 69.064 163.127 69.5867 163.127 70.216V81H159.239ZM177.638 81V78.92V77.848C177.638 76.664 177.857 75.6453 178.294 74.792C178.731 73.928 179.313 73.176 180.038 72.536C180.763 71.896 181.558 71.3307 182.422 70.84C183.297 70.3387 184.161 69.8693 185.014 69.432C185.878 68.984 186.673 68.5253 187.398 68.056C188.123 67.576 188.705 67.0427 189.142 66.456C189.59 65.8693 189.814 65.1707 189.814 64.36C189.814 63.3253 189.446 62.4827 188.71 61.832C187.985 61.1707 186.998 60.84 185.75 60.84C184.427 60.84 183.334 61.2187 182.47 61.976C181.617 62.7333 181.11 63.8 180.95 65.176H177.174C177.195 63.768 177.531 62.488 178.182 61.336C178.833 60.184 179.798 59.2667 181.078 58.584C182.358 57.8907 183.953 57.544 185.862 57.544C187.515 57.544 188.939 57.832 190.134 58.408C191.339 58.9733 192.267 59.768 192.918 60.792C193.579 61.8053 193.91 62.9893 193.91 64.344C193.91 65.528 193.691 66.5413 193.254 67.384C192.827 68.2267 192.257 68.9573 191.542 69.576C190.838 70.184 190.059 70.7227 189.206 71.192C188.363 71.6613 187.515 72.104 186.662 72.52C185.819 72.9253 185.041 73.352 184.326 73.8C183.622 74.2373 183.051 74.7387 182.614 75.304C182.187 75.8693 181.974 76.5467 181.974 77.336V77.672H193.958V81H177.638ZM197.42 73.736L207.212 70.008L197.404 66.2V62.744L211.612 68.312V71.656L197.42 77.16V73.736Z" fill="#00284D"/>
<path opacity="0.5" d="M168.804 103.686V106.374L156.694 101.656V99.024L168.818 94.236V96.966L160.166 100.354L168.804 103.686ZM172.561 110V89.196H175.515V97.638C175.749 97.2553 176.061 96.8913 176.453 96.546C176.855 96.2007 177.34 95.9207 177.909 95.706C178.488 95.482 179.16 95.37 179.925 95.37C180.868 95.37 181.717 95.5473 182.473 95.902C183.239 96.2473 183.845 96.7513 184.293 97.414C184.751 98.0673 184.979 98.8467 184.979 99.752V110H181.983V100.298C181.983 99.486 181.703 98.8607 181.143 98.422C180.583 97.9833 179.865 97.764 178.987 97.764C178.399 97.764 177.839 97.8667 177.307 98.072C176.785 98.268 176.36 98.5667 176.033 98.968C175.716 99.36 175.557 99.8547 175.557 100.452V110H172.561ZM188.341 95.748C188.341 94.3947 188.663 93.256 189.307 92.332C189.96 91.3987 190.828 90.6893 191.911 90.204C193.003 89.7187 194.211 89.476 195.537 89.476C196.965 89.476 198.229 89.6767 199.331 90.078C200.432 90.4793 201.295 91.072 201.921 91.856C202.555 92.64 202.873 93.606 202.873 94.754C202.873 95.7527 202.56 96.6533 201.935 97.456C201.319 98.2493 200.357 98.87 199.051 99.318C199.9 99.5513 200.651 99.8967 201.305 100.354C201.958 100.802 202.467 101.362 202.831 102.034C203.204 102.706 203.391 103.485 203.391 104.372C203.391 105.315 203.19 106.155 202.789 106.892C202.387 107.629 201.827 108.255 201.109 108.768C200.39 109.281 199.545 109.669 198.575 109.93C197.604 110.191 196.554 110.317 195.425 110.308C193.969 110.299 192.699 110.042 191.617 109.538C190.534 109.025 189.689 108.301 189.083 107.368C188.476 106.435 188.154 105.333 188.117 104.064H191.071C191.267 105.287 191.761 106.215 192.555 106.85C193.357 107.475 194.342 107.788 195.509 107.788C196.461 107.788 197.282 107.643 197.973 107.354C198.673 107.055 199.214 106.649 199.597 106.136C199.979 105.613 200.171 105.007 200.171 104.316C200.171 103.569 199.961 102.935 199.541 102.412C199.13 101.889 198.561 101.493 197.833 101.222C197.114 100.942 196.307 100.793 195.411 100.774L193.549 100.732V98.24L195.285 98.184C196.134 98.1653 196.885 98.0067 197.539 97.708C198.201 97.4 198.719 96.9987 199.093 96.504C199.466 96.0093 199.653 95.4633 199.653 94.866C199.653 94.3247 199.485 93.83 199.149 93.382C198.822 92.934 198.346 92.5793 197.721 92.318C197.105 92.0473 196.363 91.912 195.495 91.912C194.795 91.912 194.127 92.0427 193.493 92.304C192.867 92.5653 192.349 92.9807 191.939 93.55C191.537 94.11 191.318 94.8427 191.281 95.748H188.341ZM206.419 103.686L215.071 100.354L206.405 96.966V94.236L218.529 99.024V101.656L206.419 106.374V103.686Z" fill="#00284D"/>
<circle opacity="0.25" cx="111" cy="70" r="3" fill="#00284D"/>
<circle opacity="0.25" cx="127" cy="70" r="3" fill="#00284D"/>
<circle opacity="0.25" cx="143" cy="100" r="3" fill="#00284D"/>
<circle opacity="0.25" cx="127" cy="100" r="3" fill="#00284D"/>
<circle opacity="0.25" cx="111" cy="55" r="3" fill="#00284D"/>
<circle opacity="0.25" cx="111" cy="100" r="3" fill="#00284D"/>
<circle opacity="0.25" cx="111" cy="85" r="3" fill="#00284D"/>
</svg>
