<svg width="320" height="120" viewBox="0 0 320 120" fill="none" xmlns="http://www.w3.org/2000/svg">
<g clip-path="url(#clip0_1390_8914)">
<rect width="320" height="120" fill="#C0CEDB"/>
<g opacity="0.5">
<rect width="130" height="400" transform="translate(95 8)" fill="#00284D"/>
<rect x="95" y="8" width="130" height="24" fill="#00284D"/>
<rect x="225" y="8" width="553" height="24" fill="#00284D"/>
<path d="M232.438 18.3281H240.562C240.719 18.3281 240.875 18.1914 240.875 18.0156V17.2344C240.875 17.0781 240.719 16.9219 240.562 16.9219H232.438C232.262 16.9219 232.125 17.0781 232.125 17.2344V18.0156C232.125 18.1914 232.262 18.3281 232.438 18.3281ZM232.438 21.4531H240.562C240.719 21.4531 240.875 21.3164 240.875 21.1406V20.3594C240.875 20.2031 240.719 20.0469 240.562 20.0469H232.438C232.262 20.0469 232.125 20.2031 232.125 20.3594V21.1406C232.125 21.3164 232.262 21.4531 232.438 21.4531ZM232.438 24.5781H240.562C240.719 24.5781 240.875 24.4414 240.875 24.2656V23.4844C240.875 23.3281 240.719 23.1719 240.562 23.1719H232.438C232.262 23.1719 232.125 23.3281 232.125 23.4844V24.2656C232.125 24.4414 232.262 24.5781 232.438 24.5781Z" fill="white"/>
</g>
<g style="mix-blend-mode:color">
<rect width="320" height="120" fill="#808080"/>
</g>
<g style="mix-blend-mode:color">
<rect width="320" height="120" fill="#00284D"/>
</g>
<rect x="95" y="32" width="130" height="88" fill="#00284D"/>
<path d="M212.668 44.1445C212.844 44.3203 213.137 44.3203 213.312 44.1445L215.969 41.4883C216.164 41.293 216.164 41 215.969 40.8242L215.539 40.375C215.344 40.1992 215.051 40.1992 214.875 40.375L212.98 42.2695L211.105 40.375C210.93 40.1992 210.637 40.1992 210.441 40.375L210.012 40.8242C209.816 41 209.816 41.293 210.012 41.4883L212.668 44.1445Z" fill="#C0CEDB"/>
<path d="M104.469 39.0469C104.312 39.2031 104.328 39.4375 104.469 39.5938L106.359 41.375H101.875C101.656 41.375 101.5 41.5469 101.5 41.75V42.25C101.5 42.4688 101.656 42.625 101.875 42.625H106.359L104.469 44.4219C104.328 44.5781 104.328 44.8125 104.469 44.9688L104.812 45.3125C104.969 45.4531 105.203 45.4531 105.344 45.3125L108.391 42.2656C108.531 42.125 108.531 41.8906 108.391 41.7344L105.344 38.7031C105.203 38.5625 104.969 38.5625 104.812 38.7031L104.469 39.0469Z" fill="#C0CEDB"/>
<path d="M213.332 60.375C213.137 60.1992 212.844 60.1992 212.668 60.375L210.012 63.0312C209.816 63.2266 209.816 63.5195 210.012 63.6953L210.441 64.1445C210.637 64.3203 210.93 64.3203 211.105 64.1445L213 62.25L214.875 64.1445C215.051 64.3203 215.363 64.3203 215.539 64.1445L215.988 63.6953C216.164 63.5195 216.164 63.2266 215.988 63.0312L213.332 60.375Z" fill="white"/>
<path d="M104.469 59.0469C104.312 59.2031 104.328 59.4375 104.469 59.5938L106.359 61.375H101.875C101.656 61.375 101.5 61.5469 101.5 61.75V62.25C101.5 62.4688 101.656 62.625 101.875 62.625H106.359L104.469 64.4219C104.328 64.5781 104.328 64.8125 104.469 64.9688L104.812 65.3125C104.969 65.4531 105.203 65.4531 105.344 65.3125L108.391 62.2656C108.531 62.125 108.531 61.8906 108.391 61.7344L105.344 58.7031C105.203 58.5625 104.969 58.5625 104.812 58.7031L104.469 59.0469Z" fill="#C0CEDB"/>
<rect opacity="0.35" x="95" y="72" width="130" height="20" fill="black"/>
<rect opacity="0.35" x="95" y="92" width="130" height="20" fill="black"/>
<path d="M107.773 101.488C107.246 100.453 106.191 99.75 105 99.75C103.799 99.75 102.744 100.453 102.217 101.488C102.197 101.527 102.188 101.576 102.188 101.625C102.188 101.684 102.197 101.732 102.217 101.771C102.744 102.807 103.799 103.5 105 103.5C106.191 103.5 107.246 102.807 107.773 101.771C107.793 101.732 107.803 101.684 107.803 101.635C107.803 101.576 107.793 101.527 107.773 101.488ZM105 103.031C104.219 103.031 103.594 102.406 103.594 101.625C103.594 100.854 104.219 100.219 105 100.219C105.771 100.219 106.406 100.854 106.406 101.625V101.635C106.406 102.406 105.771 103.041 105 103.041V103.031ZM105 100.688C104.912 100.697 104.824 100.707 104.746 100.727C104.805 100.805 104.834 100.902 104.834 101.01C104.834 101.264 104.629 101.469 104.375 101.469C104.268 101.469 104.17 101.439 104.092 101.381C104.072 101.459 104.062 101.547 104.062 101.625C104.062 102.143 104.482 102.562 105 102.562C105.518 102.562 105.938 102.143 105.938 101.625C105.938 101.107 105.518 100.697 105 100.697V100.688Z" fill="white"/>
<g opacity="0.5">
<rect x="114" y="39" width="7" height="6" fill="white"/>
<rect x="121" y="41" width="5" height="4" fill="white"/>
<rect x="141" y="41" width="5" height="4" fill="white"/>
<rect x="126" y="41" width="5" height="4" fill="white"/>
<rect x="146" y="41" width="5" height="4" fill="white"/>
<rect x="131" y="41" width="5" height="4" fill="white"/>
<rect x="136" y="39" width="5" height="6" fill="white"/>
<rect x="151" y="39" width="5" height="6" fill="white"/>
</g>
<g opacity="0.5">
<rect x="114" y="59" width="7" height="6" fill="white"/>
<rect x="121" y="61" width="5" height="4" fill="white"/>
<rect x="141" y="61" width="5" height="4" fill="white"/>
<rect x="126" y="61" width="5" height="4" fill="white"/>
<rect x="146" y="61" width="5" height="4" fill="white"/>
<rect x="131" y="61" width="5" height="4" fill="white"/>
<rect x="136" y="59" width="5" height="6" fill="white"/>
<rect x="151" y="59" width="5" height="6" fill="white"/>
</g>
<g opacity="0.5">
<rect x="114" y="80" width="7" height="6" fill="white"/>
<rect x="121" y="82" width="5" height="4" fill="white"/>
<rect x="141" y="82" width="5" height="4" fill="white"/>
<rect x="126" y="82" width="5" height="4" fill="white"/>
<rect x="146" y="82" width="5" height="4" fill="white"/>
<rect x="131" y="82" width="5" height="4" fill="white"/>
<rect x="136" y="80" width="5" height="6" fill="white"/>
<rect x="151" y="80" width="5" height="6" fill="white"/>
</g>
<rect x="114" y="100" width="7" height="6" fill="white"/>
<rect x="121" y="102" width="5" height="4" fill="white"/>
<rect x="141" y="102" width="5" height="4" fill="white"/>
<rect x="126" y="102" width="5" height="4" fill="white"/>
<rect x="146" y="102" width="5" height="4" fill="white"/>
<rect x="131" y="102" width="5" height="4" fill="white"/>
<rect x="136" y="100" width="5" height="6" fill="white"/>
<rect x="151" y="100" width="5" height="6" fill="white"/>
<rect opacity="0.75" x="245" y="18" width="6" height="6" fill="white"/>
<rect opacity="0.75" x="251" y="20" width="5" height="4" fill="white"/>
<rect opacity="0.75" x="261" y="20" width="5" height="4" fill="white"/>
<rect opacity="0.75" x="273" y="20" width="5" height="4" fill="white"/>
<rect opacity="0.75" x="278" y="20" width="5" height="4" fill="white"/>
<rect opacity="0.75" x="283" y="20" width="5" height="4" fill="white"/>
<rect opacity="0.75" x="256" y="20" width="5" height="6" fill="white"/>
<rect opacity="0.75" x="266" y="18" width="7" height="6" fill="white"/>
<g opacity="0.5">
<rect x="100" y="18" width="5" height="6" fill="white"/>
<rect x="105" y="20" width="5" height="6" fill="white"/>
<rect x="120" y="20" width="5" height="4" fill="white"/>
<rect x="125" y="20" width="5" height="4" fill="white"/>
<rect x="130" y="20" width="5" height="4" fill="white"/>
<rect x="110" y="20" width="5" height="6" fill="white"/>
<rect x="115" y="18" width="5" height="6" fill="white"/>
</g>
</g>
<defs>
<clipPath id="clip0_1390_8914">
<rect width="320" height="120" fill="white"/>
</clipPath>
</defs>
</svg>
