<svg width="320" height="120" viewBox="0 0 320 120" fill="none" xmlns="http://www.w3.org/2000/svg">
<rect width="320" height="120" fill="#C0CEDB"/>
<rect x="242.967" y="46.7056" width="66.3271" height="26.8131" rx="4.93925" fill="white"/>
<path d="M248.172 57.4421H250.808V64.6449H251.858V57.4421H254.347V56.4824H248.172V57.4421ZM256.454 64.7578C257.29 64.7578 258.007 64.4586 258.458 63.5498L258.537 64.6449H259.429V60.5693C259.429 59.35 258.673 58.6952 257.154 58.6952C255.738 58.6952 254.868 59.3218 254.806 60.4564H255.726C255.867 59.7621 256.432 59.4686 257.104 59.4629C258.001 59.4629 258.419 59.9145 258.419 60.6258V61.083L257.38 61.1112C255.382 61.1564 254.53 61.7717 254.53 63.0643C254.53 64.1312 255.32 64.7578 256.454 64.7578ZM256.765 64.007C256.048 64.007 255.54 63.6232 255.54 62.9627C255.54 62.0991 256.212 61.766 257.555 61.7434L258.419 61.7265V62.7256C258.419 63.3748 257.55 64.007 256.765 64.007ZM263.942 64.7578C265.585 64.7578 266.409 63.5441 266.409 61.7039C266.409 59.7226 265.478 58.6952 264.021 58.6952C262.909 58.6952 262.3 59.3557 262.108 59.7339V56.2566H261.058V64.6449H261.854L261.966 63.4482C262.113 63.9054 262.576 64.7578 263.942 64.7578ZM263.756 63.9562C262.576 63.9562 262.108 63.2845 262.108 61.6531C262.125 60.2871 262.576 59.5081 263.733 59.5081C264.795 59.5081 265.359 60.2927 265.359 61.6531C265.359 63.2563 264.699 63.9562 263.756 63.9562ZM273.753 64.7578C275.932 64.7578 277.275 63.2337 277.275 60.5806C277.275 57.8993 275.921 56.3695 273.753 56.3695C271.585 56.3695 270.208 57.9049 270.208 60.5806C270.208 63.245 271.568 64.7578 273.753 64.7578ZM273.753 63.849C272.257 63.849 271.36 62.8442 271.36 60.5919C271.36 58.3227 272.257 57.2784 273.753 57.2784C275.249 57.2784 276.13 58.3114 276.13 60.5919C276.13 62.8385 275.266 63.849 273.753 63.849ZM278.676 66.4625H279.726V63.5893C279.968 64.0861 280.516 64.7578 281.56 64.7578C283.096 64.7578 284.01 63.6514 284.01 61.6475C284.01 59.6379 283.039 58.6952 281.645 58.6952C280.572 58.6952 279.991 59.3444 279.726 59.8242L279.714 58.8081H278.676V66.4625ZM281.363 63.9449C280.279 63.9449 279.714 62.9401 279.714 61.6813C279.714 60.3943 280.279 59.5081 281.363 59.5081C282.43 59.5081 283 60.3548 283 61.6813C283 63.2337 282.322 63.9449 281.363 63.9449ZM288.106 59.5702V58.8025H286.79V57.109H286.023L285.769 58.8081H284.792V59.5702H285.741V63.2337C285.741 64.1707 286.062 64.6731 287.276 64.6731C287.699 64.6731 287.993 64.6336 288.14 64.5772V63.8772H287.502C286.954 63.8772 286.79 63.8207 286.79 63.1998V59.5702H288.106ZM290.591 56.4881H289.525V57.5719H290.591V56.4881ZM290.563 58.8081H289.553V64.6449H290.563V58.8081ZM294.651 64.7578C296.389 64.7578 297.31 63.5329 297.31 61.7491C297.31 59.7847 296.265 58.6952 294.656 58.6952C292.929 58.6952 291.975 59.9201 291.975 61.7491C291.975 63.6966 293.031 64.7578 294.651 64.7578ZM294.656 63.9336C293.488 63.9336 293.014 62.9571 293.014 61.7265C293.014 60.3379 293.595 59.5137 294.656 59.5137C295.802 59.5137 296.277 60.479 296.277 61.7265C296.277 63.0982 295.701 63.9336 294.656 63.9336ZM298.697 64.6449H299.736V60.7443C299.736 59.9597 300.459 59.5871 301.249 59.5871C302.011 59.5871 302.536 60.0218 302.536 60.9306V64.6449H303.58V60.829C303.58 59.3613 302.643 58.7234 301.537 58.7234C300.6 58.7234 299.996 59.1694 299.708 59.6548V58.8081H298.697V64.6449Z" fill="#00284D"/>
<rect x="242.967" y="46.7056" width="66.3271" height="26.8131" rx="4.93925" stroke="#00284D" stroke-width="1.41121"/>
<rect x="8.70561" y="46.7056" width="66.3271" height="26.8131" rx="4.93925" fill="white"/>
<path d="M13.9101 57.4421H16.5462V64.6449H17.5962V57.4421H20.0856V56.4824H13.9101V57.4421ZM22.1928 64.7578C23.0283 64.7578 23.7452 64.4586 24.1968 63.5498L24.2758 64.6449H25.1677V60.5693C25.1677 59.35 24.4113 58.6952 22.8928 58.6952C21.4759 58.6952 20.6066 59.3218 20.5445 60.4564H21.4647C21.6058 59.7621 22.1703 59.4686 22.842 59.4629C23.7395 59.4629 24.1573 59.9145 24.1573 60.6258V61.083L23.1186 61.1112C21.1203 61.1564 20.2679 61.7717 20.2679 63.0643C20.2679 64.1312 21.0582 64.7578 22.1928 64.7578ZM22.5033 64.007C21.7864 64.007 21.2784 63.6232 21.2784 62.9627C21.2784 62.0991 21.9501 61.766 23.2936 61.7434L24.1573 61.7265V62.7256C24.1573 63.3748 23.2879 64.007 22.5033 64.007ZM29.6806 64.7578C31.3232 64.7578 32.1474 63.5441 32.1474 61.7039C32.1474 59.7226 31.216 58.6952 29.7596 58.6952C28.6476 58.6952 28.0379 59.3557 27.846 59.7339V56.2566H26.7961V64.6449H27.592L27.7049 63.4482C27.8516 63.9054 28.3145 64.7578 29.6806 64.7578ZM29.4943 63.9562C28.3145 63.9562 27.846 63.2845 27.846 61.6531C27.8629 60.2871 28.3145 59.5081 29.4717 59.5081C30.533 59.5081 31.0974 60.2927 31.0974 61.6531C31.0974 63.2563 30.437 63.9562 29.4943 63.9562ZM39.4914 64.7578C41.6703 64.7578 43.0138 63.2337 43.0138 60.5806C43.0138 57.8993 41.6591 56.3695 39.4914 56.3695C37.3238 56.3695 35.9465 57.9049 35.9465 60.5806C35.9465 63.245 37.3069 64.7578 39.4914 64.7578ZM39.4914 63.849C37.9955 63.849 37.098 62.8442 37.098 60.5919C37.098 58.3227 37.9955 57.2784 39.4914 57.2784C40.9873 57.2784 41.8679 58.3114 41.8679 60.5919C41.8679 62.8385 41.0043 63.849 39.4914 63.849ZM44.4142 66.4625H45.4641V63.5893C45.7069 64.0861 46.2544 64.7578 47.2987 64.7578C48.8341 64.7578 49.7486 63.6514 49.7486 61.6475C49.7486 59.6379 48.7777 58.6952 47.3834 58.6952C46.3109 58.6952 45.7294 59.3444 45.4641 59.8242L45.4528 58.8081H44.4142V66.4625ZM47.1011 63.9449C46.0173 63.9449 45.4528 62.9401 45.4528 61.6813C45.4528 60.3943 46.0173 59.5081 47.1011 59.5081C48.168 59.5081 48.7382 60.3548 48.7382 61.6813C48.7382 63.2337 48.0608 63.9449 47.1011 63.9449ZM53.8441 59.5702V58.8025H52.5289V57.109H51.7612L51.5071 58.8081H50.5306V59.5702H51.4789V63.2337C51.4789 64.1707 51.8007 64.6731 53.0143 64.6731C53.4377 64.6731 53.7312 64.6336 53.878 64.5772V63.8772H53.2401C52.6926 63.8772 52.5289 63.8207 52.5289 63.1998V59.5702H53.8441ZM56.3298 56.4881H55.2629V57.5719H56.3298V56.4881ZM56.3016 58.8081H55.2911V64.6449H56.3016V58.8081ZM60.3892 64.7578C62.1278 64.7578 63.048 63.5329 63.048 61.7491C63.048 59.7847 62.0037 58.6952 60.3949 58.6952C58.6675 58.6952 57.7136 59.9201 57.7136 61.7491C57.7136 63.6966 58.7692 64.7578 60.3892 64.7578ZM60.3949 63.9336C59.2264 63.9336 58.7522 62.9571 58.7522 61.7265C58.7522 60.3379 59.3336 59.5137 60.3949 59.5137C61.5408 59.5137 62.015 60.479 62.015 61.7265C62.015 63.0982 61.4392 63.9336 60.3949 63.9336ZM64.4358 64.6449H65.4745V60.7443C65.4745 59.9597 66.197 59.5871 66.9873 59.5871C67.7493 59.5871 68.2743 60.0218 68.2743 60.9306V64.6449H69.3186V60.829C69.3186 59.3613 68.3816 58.7234 67.2752 58.7234C66.3381 58.7234 65.7341 59.1694 65.4462 59.6548V58.8081H64.4358V64.6449Z" fill="#00284D"/>
<rect x="8.70561" y="46.7056" width="66.3271" height="26.8131" rx="4.93925" stroke="#00284D" stroke-width="1.41121"/>
<rect x="169.584" y="46.7056" width="66.3271" height="26.8131" rx="4.93925" fill="white"/>
<path d="M174.788 57.4421H177.425V64.6449H178.475V57.4421H180.964V56.4824H174.788V57.4421ZM183.071 64.7578C183.907 64.7578 184.624 64.4586 185.075 63.5498L185.154 64.6449H186.046V60.5693C186.046 59.35 185.29 58.6952 183.771 58.6952C182.354 58.6952 181.485 59.3218 181.423 60.4564H182.343C182.484 59.7621 183.049 59.4686 183.72 59.4629C184.618 59.4629 185.036 59.9145 185.036 60.6258V61.083L183.997 61.1112C181.999 61.1564 181.146 61.7717 181.146 63.0643C181.146 64.1312 181.937 64.7578 183.071 64.7578ZM183.382 64.007C182.665 64.007 182.157 63.6232 182.157 62.9627C182.157 62.0991 182.829 61.766 184.172 61.7434L185.036 61.7265V62.7256C185.036 63.3748 184.166 64.007 183.382 64.007ZM190.559 64.7578C192.202 64.7578 193.026 63.5441 193.026 61.7039C193.026 59.7226 192.094 58.6952 190.638 58.6952C189.526 58.6952 188.916 59.3557 188.724 59.7339V56.2566H187.674V64.6449H188.47L188.583 63.4482C188.73 63.9054 189.193 64.7578 190.559 64.7578ZM190.373 63.9562C189.193 63.9562 188.724 63.2845 188.724 61.6531C188.741 60.2871 189.193 59.5081 190.35 59.5081C191.411 59.5081 191.976 60.2927 191.976 61.6531C191.976 63.2563 191.315 63.9562 190.373 63.9562ZM200.37 64.7578C202.549 64.7578 203.892 63.2337 203.892 60.5806C203.892 57.8993 202.537 56.3695 200.37 56.3695C198.202 56.3695 196.825 57.9049 196.825 60.5806C196.825 63.245 198.185 64.7578 200.37 64.7578ZM200.37 63.849C198.874 63.849 197.976 62.8442 197.976 60.5919C197.976 58.3227 198.874 57.2784 200.37 57.2784C201.866 57.2784 202.746 58.3114 202.746 60.5919C202.746 62.8385 201.883 63.849 200.37 63.849ZM205.293 66.4625H206.343V63.5893C206.585 64.0861 207.133 64.7578 208.177 64.7578C209.713 64.7578 210.627 63.6514 210.627 61.6475C210.627 59.6379 209.656 58.6952 208.262 58.6952C207.189 58.6952 206.608 59.3444 206.343 59.8242L206.331 58.8081H205.293V66.4625ZM207.98 63.9449C206.896 63.9449 206.331 62.9401 206.331 61.6813C206.331 60.3943 206.896 59.5081 207.98 59.5081C209.046 59.5081 209.617 60.3548 209.617 61.6813C209.617 63.2337 208.939 63.9449 207.98 63.9449ZM214.723 59.5702V58.8025H213.407V57.109H212.64L212.386 58.8081H211.409V59.5702H212.357V63.2337C212.357 64.1707 212.679 64.6731 213.893 64.6731C214.316 64.6731 214.61 64.6336 214.756 64.5772V63.8772H214.119C213.571 63.8772 213.407 63.8207 213.407 63.1998V59.5702H214.723ZM217.208 56.4881H216.141V57.5719H217.208V56.4881ZM217.18 58.8081H216.17V64.6449H217.18V58.8081ZM221.268 64.7578C223.006 64.7578 223.926 63.5329 223.926 61.7491C223.926 59.7847 222.882 58.6952 221.273 58.6952C219.546 58.6952 218.592 59.9201 218.592 61.7491C218.592 63.6966 219.648 64.7578 221.268 64.7578ZM221.273 63.9336C220.105 63.9336 219.631 62.9571 219.631 61.7265C219.631 60.3379 220.212 59.5137 221.273 59.5137C222.419 59.5137 222.893 60.479 222.893 61.7265C222.893 63.0982 222.318 63.9336 221.273 63.9336ZM225.314 64.6449H226.353V60.7443C226.353 59.9597 227.075 59.5871 227.866 59.5871C228.628 59.5871 229.153 60.0218 229.153 60.9306V64.6449H230.197V60.829C230.197 59.3613 229.26 58.7234 228.154 58.7234C227.217 58.7234 226.613 59.1694 226.325 59.6548V58.8081H225.314V64.6449Z" fill="#00284D"/>
<rect x="169.584" y="46.7056" width="66.3271" height="26.8131" rx="4.93925" stroke="#00284D" stroke-width="1.41121"/>
<rect x="81.3832" y="46" width="81.8505" height="28.2243" rx="5.64486" fill="#00203E"/>
<path d="M99.6408 60.1025C98.4501 57.7652 96.0687 56.1776 93.3785 56.1776C90.6664 56.1776 88.2849 57.7652 87.0942 60.1025C87.0501 60.1908 87.0281 60.301 87.0281 60.4113C87.0281 60.5436 87.0501 60.6538 87.0942 60.742C88.2849 63.0793 90.6664 64.6449 93.3785 64.6449C96.0687 64.6449 98.4501 63.0793 99.6408 60.742C99.6849 60.6538 99.707 60.5436 99.707 60.4333C99.707 60.301 99.6849 60.1908 99.6408 60.1025ZM93.3785 63.5865C91.6145 63.5865 90.2033 62.1753 90.2033 60.4113C90.2033 58.6693 91.6145 57.236 93.3785 57.236C95.1205 57.236 96.5538 58.6693 96.5538 60.4113V60.4333C96.5538 62.1753 95.1205 63.6085 93.3785 63.6085V63.5865ZM93.3785 58.2944C93.1801 58.3165 92.9816 58.3385 92.8052 58.3826C92.9375 58.559 93.0037 58.7795 93.0037 59.0221C93.0037 59.5954 92.5406 60.0584 91.9673 60.0584C91.7248 60.0584 91.5043 59.9923 91.3279 59.86C91.2838 60.0364 91.2617 60.2349 91.2617 60.4113C91.2617 61.5799 92.2099 62.5281 93.3785 62.5281C94.5472 62.5281 95.4954 61.5799 95.4954 60.4113C95.4954 59.2426 94.5472 58.3165 93.3785 58.3165V58.2944Z" fill="white"/>
<path d="M103.246 64.6449H104.307L105.114 62.4095H108.462L109.263 64.6449H110.33L107.378 56.4824H106.198L103.246 64.6449ZM105.391 61.4499L106.785 57.5041L108.174 61.4499H105.391ZM113.85 58.6952C112.129 58.6952 111.163 59.9314 111.163 61.7491C111.163 63.7079 112.27 64.7578 113.85 64.7578C115.086 64.7578 116.035 64.0183 116.187 62.8442H115.278C115.177 63.4313 114.669 63.9619 113.867 63.9619C112.749 63.9619 112.162 63.0869 112.162 61.7378C112.162 60.2476 112.857 59.5363 113.856 59.5363C114.657 59.5363 115.165 60.0387 115.267 60.654H116.193C116.035 59.4629 115.103 58.6952 113.85 58.6952ZM120.348 59.5702V58.8025H119.032V57.109H118.265L118.011 58.8081H117.034V59.5702H117.982V63.2337C117.982 64.1707 118.304 64.6731 119.518 64.6731C119.941 64.6731 120.235 64.6336 120.381 64.5772V63.8772H119.744C119.196 63.8772 119.032 63.8207 119.032 63.1998V59.5702H120.348ZM122.833 56.4881H121.766V57.5719H122.833V56.4881ZM122.805 58.8081H121.795V64.6449H122.805V58.8081ZM129.122 58.8081H128.146L126.588 63.3353H126.492L124.94 58.8081H123.957L126.069 64.6449H127.023L129.122 58.8081ZM130.913 61.9692H135.096V61.5854C135.096 59.8129 134.182 58.6952 132.539 58.6952C130.84 58.6952 129.858 59.9427 129.858 61.783C129.858 63.6458 130.981 64.7578 132.612 64.7578C133.747 64.7578 134.842 64.1312 135.056 62.9401H134.074C133.928 63.6006 133.34 63.9506 132.595 63.9506C131.461 63.9506 130.913 63.0756 130.913 61.9692ZM130.919 61.2636C130.913 60.3943 131.432 59.4855 132.533 59.4855C133.589 59.4855 134.091 60.2588 134.091 61.2636H130.919ZM138.604 57.4421H141.24V64.6449H142.29V57.4421H144.78V56.4824H138.604V57.4421ZM146.887 64.7578C147.722 64.7578 148.439 64.4586 148.891 63.5498L148.97 64.6449H149.862V60.5693C149.862 59.35 149.105 58.6952 147.587 58.6952C146.17 58.6952 145.301 59.3218 145.239 60.4564H146.159C146.3 59.7621 146.864 59.4686 147.536 59.4629C148.434 59.4629 148.851 59.9145 148.851 60.6258V61.083L147.813 61.1112C145.814 61.1564 144.962 61.7717 144.962 63.0643C144.962 64.1312 145.752 64.7578 146.887 64.7578ZM147.197 64.007C146.48 64.007 145.972 63.6232 145.972 62.9627C145.972 62.0991 146.644 61.766 147.988 61.7434L148.851 61.7265V62.7256C148.851 63.3748 147.982 64.007 147.197 64.007ZM154.375 64.7578C156.017 64.7578 156.841 63.5441 156.841 61.7039C156.841 59.7226 155.91 58.6952 154.454 58.6952C153.342 58.6952 152.732 59.3557 152.54 59.7339V56.2566H151.49V64.6449H152.286L152.399 63.4482C152.546 63.9054 153.009 64.7578 154.375 64.7578ZM154.188 63.9562C153.009 63.9562 152.54 63.2845 152.54 61.6531C152.557 60.2871 153.009 59.5081 154.166 59.5081C155.227 59.5081 155.791 60.2927 155.791 61.6531C155.791 63.2563 155.131 63.9562 154.188 63.9562Z" fill="white"/>
<g style="mix-blend-mode:color">
<rect width="320" height="120" fill="#808080"/>
</g>
<g style="mix-blend-mode:color">
<rect width="320" height="120" fill="#00284D"/>
</g>
<g style="mix-blend-mode:color">
<rect width="320" height="120" fill="#808080"/>
</g>
<g style="mix-blend-mode:color">
<rect width="320" height="120" fill="#00284D"/>
</g>
</svg>
