<svg width="320" height="120" viewBox="0 0 320 120" fill="none" xmlns="http://www.w3.org/2000/svg">
<rect width="320" height="120" fill="#C0CEDB"/>
<path d="M20 31C20 28.7909 21.7909 27 24 27H296C298.209 27 300 28.7909 300 31V89C300 91.2091 298.209 93 296 93H24C21.7909 93 20 91.2091 20 89V31Z" fill="white"/>
<path d="M61.536 46.432H63.048V56.672H68.512V58H61.528L61.536 46.432ZM72.887 58.16C72.3537 58.16 71.8817 58.0667 71.471 57.88C71.0603 57.688 70.7377 57.4133 70.503 57.056C70.2737 56.6987 70.159 56.2667 70.159 55.76C70.159 54.8427 70.479 54.16 71.119 53.712C71.759 53.264 72.7857 53.024 74.199 52.992L75.679 52.952V52.304C75.679 51.7973 75.527 51.3973 75.223 51.104C74.919 50.8053 74.447 50.656 73.807 50.656C73.3323 50.6613 72.9137 50.7733 72.551 50.992C72.1937 51.2107 71.9617 51.568 71.855 52.064H70.551C70.583 51.5253 70.735 51.072 71.007 50.704C71.279 50.3307 71.6577 50.048 72.143 49.856C72.6337 49.664 73.2123 49.568 73.879 49.568C74.599 49.568 75.1963 49.6693 75.671 49.872C76.151 50.0747 76.5083 50.3733 76.743 50.768C76.983 51.1627 77.103 51.648 77.103 52.224V58H75.839L75.735 56.448C75.415 57.0933 75.007 57.5413 74.511 57.792C74.0203 58.0373 73.479 58.16 72.887 58.16ZM73.335 57.096C73.6123 57.096 73.887 57.0453 74.159 56.944C74.4363 56.8427 74.6897 56.7067 74.919 56.536C75.1483 56.36 75.3297 56.1653 75.463 55.952C75.6017 55.7333 75.6737 55.5093 75.679 55.28V53.864L74.447 53.888C73.8177 53.8987 73.2897 53.9627 72.863 54.08C72.4417 54.1973 72.1243 54.3813 71.911 54.632C71.703 54.8827 71.599 55.2107 71.599 55.616C71.599 56.08 71.759 56.4427 72.079 56.704C72.4043 56.9653 72.823 57.096 73.335 57.096ZM83.7183 58.16C83.2329 58.16 82.8223 58.096 82.4863 57.968C82.1556 57.84 81.8836 57.6773 81.6703 57.48C81.4569 57.2773 81.2916 57.072 81.1743 56.864C81.0569 56.6507 80.9716 56.464 80.9183 56.304L80.7582 58H79.6303V46.112H81.1183V51.04C81.1876 50.9013 81.2916 50.7493 81.4303 50.584C81.5743 50.4187 81.7583 50.2587 81.9823 50.104C82.2063 49.9493 82.4703 49.8213 82.7743 49.72C83.0836 49.6187 83.4356 49.568 83.8303 49.568C84.8649 49.568 85.6863 49.928 86.2943 50.648C86.9076 51.368 87.2143 52.4293 87.2143 53.832C87.2143 54.7013 87.0836 55.4613 86.8223 56.112C86.5609 56.7573 86.1716 57.2613 85.6543 57.624C85.1369 57.9813 84.4916 58.16 83.7183 58.16ZM83.4543 57.024C84.1263 57.024 84.6729 56.7653 85.0943 56.248C85.5156 55.7253 85.7263 54.896 85.7263 53.76C85.7263 52.7947 85.5289 52.048 85.1343 51.52C84.7449 50.9867 84.1743 50.72 83.4223 50.72C82.8729 50.72 82.4303 50.84 82.0943 51.08C81.7636 51.3147 81.5183 51.6587 81.3583 52.112C81.2036 52.5653 81.1236 53.1147 81.1183 53.76C81.1183 54.9173 81.2969 55.752 81.6543 56.264C82.0169 56.7707 82.6169 57.024 83.4543 57.024ZM90.2019 54.208C90.2019 54.7307 90.2872 55.2053 90.4579 55.632C90.6339 56.0533 90.8979 56.3893 91.2499 56.64C91.6072 56.8907 92.0525 57.016 92.5859 57.016C93.1139 57.016 93.5672 56.8933 93.9459 56.648C94.3299 56.4027 94.5752 56.048 94.6819 55.584H96.0819C95.9805 56.144 95.7565 56.616 95.4099 57C95.0632 57.384 94.6445 57.6747 94.1539 57.872C93.6632 58.064 93.1512 58.16 92.6179 58.16C91.8445 58.16 91.1645 57.992 90.5779 57.656C89.9912 57.32 89.5325 56.8373 89.2019 56.208C88.8712 55.5787 88.7059 54.824 88.7059 53.944C88.7059 53.0747 88.8552 52.312 89.1539 51.656C89.4525 51 89.8845 50.488 90.4499 50.12C91.0205 49.752 91.7059 49.568 92.5059 49.568C93.2845 49.568 93.9432 49.736 94.4819 50.072C95.0205 50.408 95.4285 50.8827 95.7059 51.496C95.9885 52.104 96.1299 52.8267 96.1299 53.664V54.208H90.2019ZM90.2099 53.208H94.7059C94.7059 52.7333 94.6259 52.3067 94.4659 51.928C94.3059 51.544 94.0605 51.2427 93.7299 51.024C93.4045 50.8 92.9939 50.688 92.4979 50.688C91.9805 50.688 91.5512 50.8133 91.2099 51.064C90.8739 51.3093 90.6205 51.6267 90.4499 52.016C90.2845 52.4 90.2045 52.7973 90.2099 53.208ZM100.25 58.104C99.8015 58.104 99.4388 58.0427 99.1615 57.92C98.8895 57.7973 98.6788 57.632 98.5295 57.424C98.3855 57.216 98.2868 56.9787 98.2335 56.712C98.1855 56.44 98.1615 56.16 98.1615 55.872V46.112H99.6175V55.728C99.6175 56.144 99.6975 56.456 99.8575 56.664C100.023 56.872 100.252 56.9867 100.546 57.008L100.994 57.016V57.976C100.871 58.0133 100.743 58.0427 100.61 58.064C100.476 58.0907 100.356 58.104 100.25 58.104Z" fill="#495057"/>
<path d="M61.2224 68.7456C61.2523 68.7456 61.3419 68.7477 61.4912 68.752C61.6448 68.752 61.8304 68.752 62.048 68.752C62.2656 68.7477 62.4917 68.7477 62.7264 68.752C62.9611 68.752 63.1765 68.7541 63.3728 68.7584C64.5077 68.7755 65.4272 68.9611 66.1312 69.3152C66.8395 69.6651 67.3579 70.1749 67.6864 70.8448C68.0192 71.5147 68.1856 72.3381 68.1856 73.3152C68.1856 74.3392 68.0064 75.1989 67.648 75.8944C67.2939 76.5899 66.752 77.1147 66.0224 77.4688C65.2971 77.8229 64.3733 78 63.2512 78H61.2224V68.7456ZM62.4384 69.7632V76.9824H63.2512C64.0149 76.9824 64.672 76.8651 65.2224 76.6304C65.7728 76.3915 66.1952 76.0053 66.4896 75.472C66.7883 74.9387 66.9376 74.2261 66.9376 73.3344C66.9376 72.4427 66.7925 71.7365 66.5024 71.216C66.2165 70.6955 65.8027 70.3243 65.2608 70.1024C64.7189 69.8763 64.0661 69.7632 63.3024 69.7632H62.4384ZM70.699 74.9664C70.699 75.3845 70.7673 75.7643 70.9038 76.1056C71.0446 76.4427 71.2558 76.7115 71.5374 76.912C71.8233 77.1125 72.1795 77.2128 72.6062 77.2128C73.0286 77.2128 73.3913 77.1147 73.6942 76.9184C74.0014 76.7221 74.1977 76.4384 74.283 76.0672H75.403C75.3219 76.5152 75.1427 76.8928 74.8654 77.2C74.5881 77.5072 74.2531 77.7397 73.8606 77.8976C73.4681 78.0512 73.0585 78.128 72.6318 78.128C72.0131 78.128 71.4691 77.9936 70.9998 77.7248C70.5305 77.456 70.1635 77.0699 69.899 76.5664C69.6345 76.0629 69.5022 75.4592 69.5022 74.7552C69.5022 74.0597 69.6217 73.4496 69.8606 72.9248C70.0995 72.4 70.4451 71.9904 70.8974 71.696C71.3539 71.4016 71.9022 71.2544 72.5422 71.2544C73.1651 71.2544 73.6921 71.3888 74.123 71.6576C74.5539 71.9264 74.8803 72.3061 75.1022 72.7968C75.3283 73.2832 75.4414 73.8613 75.4414 74.5312V74.9664H70.699ZM70.7054 74.1664H74.3022C74.3022 73.7867 74.2382 73.4453 74.1102 73.1424C73.9822 72.8352 73.7859 72.5941 73.5214 72.4192C73.2611 72.24 72.9326 72.1504 72.5358 72.1504C72.1219 72.1504 71.7785 72.2507 71.5054 72.4512C71.2366 72.6475 71.0339 72.9013 70.8974 73.2128C70.7651 73.52 70.7011 73.8379 70.7054 74.1664ZM79.3655 78.128C78.9047 78.128 78.4759 78.0576 78.0791 77.9168C77.6866 77.7717 77.3602 77.5477 77.0999 77.2448C76.8396 76.9376 76.6754 76.5472 76.6071 76.0736H77.6823C77.742 76.3339 77.8487 76.5515 78.0023 76.7264C78.1602 76.8971 78.3564 77.0272 78.5911 77.1168C78.8258 77.2021 79.0818 77.2448 79.3591 77.2448C79.8028 77.2448 80.1612 77.1616 80.4343 76.9952C80.7074 76.8288 80.8439 76.5728 80.8439 76.2272C80.8439 75.984 80.7714 75.7899 80.6263 75.6448C80.4855 75.4955 80.2658 75.3867 79.9671 75.3184L78.5975 74.9792C78.0642 74.8512 77.6375 74.6507 77.3175 74.3776C76.9975 74.1045 76.8375 73.7227 76.8375 73.232C76.8332 72.8437 76.925 72.5024 77.1127 72.208C77.3004 71.9136 77.582 71.6811 77.9575 71.5104C78.333 71.3397 78.8002 71.2544 79.3591 71.2544C80.0759 71.2544 80.654 71.4165 81.0935 71.7408C81.5372 72.0608 81.7676 72.5323 81.7847 73.1552H80.7415C80.6988 72.8395 80.5559 72.5899 80.3127 72.4064C80.0738 72.2187 79.7516 72.1248 79.3463 72.1248C78.9239 72.1248 78.5804 72.2101 78.3159 72.3808C78.0514 72.5472 77.9191 72.8075 77.9191 73.1616C77.9191 73.3963 78.013 73.5819 78.2007 73.7184C78.3884 73.8507 78.6658 73.9616 79.0327 74.0512L80.3575 74.384C80.6647 74.4651 80.9164 74.5717 81.1127 74.704C81.3132 74.8363 81.4711 74.9835 81.5863 75.1456C81.7058 75.3077 81.789 75.4784 81.8359 75.6576C81.8871 75.8325 81.9127 76.0011 81.9127 76.1632C81.9127 76.5685 81.8103 76.9184 81.6055 77.2128C81.405 77.5029 81.1148 77.7291 80.7351 77.8912C80.3596 78.0491 79.9031 78.128 79.3655 78.128ZM86.2035 71.2544C86.6771 71.2544 87.1038 71.3461 87.4835 71.5296C87.8632 71.7088 88.1726 71.9648 88.4115 72.2976C88.6547 72.6304 88.8062 73.0229 88.8659 73.4752H87.8163C87.7779 73.2448 87.6883 73.0336 87.5475 72.8416C87.411 72.6496 87.2296 72.496 87.0035 72.3808C86.7774 72.2656 86.5128 72.208 86.2099 72.208C85.6424 72.208 85.1816 72.4128 84.8275 72.8224C84.4734 73.232 84.2963 73.8592 84.2963 74.704C84.2963 75.4677 84.4584 76.08 84.7827 76.5408C85.1112 76.9973 85.5934 77.2256 86.2291 77.2256C86.532 77.2256 86.7944 77.168 87.0163 77.0528C87.2424 76.9333 87.4238 76.7776 87.5603 76.5856C87.6968 76.3893 87.7843 76.1803 87.8227 75.9584H88.8531C88.7976 76.4021 88.6483 76.7861 88.4051 77.1104C88.1619 77.4347 87.8504 77.6864 87.4707 77.8656C87.0952 78.0405 86.6728 78.128 86.2035 78.128C85.6104 78.128 85.0835 77.9979 84.6227 77.7376C84.1662 77.4773 83.8078 77.0933 83.5475 76.5856C83.2872 76.0779 83.1571 75.4549 83.1571 74.7168C83.1571 74.0256 83.2744 73.4219 83.5091 72.9056C83.748 72.3851 84.0936 71.9797 84.5459 71.6896C85.0024 71.3995 85.555 71.2544 86.2035 71.2544ZM90.4667 78V71.3824H91.5931V72.656C91.704 72.3403 91.8598 72.08 92.0603 71.8752C92.2608 71.6661 92.4891 71.5104 92.7451 71.408C93.0054 71.3056 93.2742 71.2544 93.5515 71.2544C93.6496 71.2544 93.7456 71.2608 93.8395 71.2736C93.9334 71.2864 94.0059 71.3077 94.0571 71.3376V72.4832C93.9931 72.4533 93.9099 72.4341 93.8075 72.4256C93.7094 72.4128 93.6262 72.4064 93.5579 72.4064C93.2934 72.3893 93.0459 72.4064 92.8155 72.4576C92.5851 72.5045 92.3824 72.5877 92.2075 72.7072C92.0326 72.8267 91.8939 72.9845 91.7915 73.1808C91.6934 73.3728 91.6443 73.6075 91.6443 73.8848V78H90.4667ZM96.7092 71.3824V78H95.5636V71.3824H96.7092ZM96.7348 68.752V69.9808H95.5252V68.752H96.7348ZM98.8792 80.0608V71.3824H100.057L100.07 72.5344C100.146 72.3979 100.245 72.2549 100.364 72.1056C100.488 71.9563 100.637 71.8176 100.812 71.6896C100.991 71.5616 101.198 71.4571 101.433 71.376C101.672 71.2949 101.943 71.2544 102.246 71.2544C102.775 71.2544 103.24 71.376 103.641 71.6192C104.046 71.8581 104.362 72.2251 104.588 72.72C104.814 73.2149 104.927 73.8421 104.927 74.6016C104.927 75.3611 104.816 76.0032 104.594 76.528C104.377 77.0485 104.061 77.4453 103.647 77.7184C103.233 77.9915 102.734 78.128 102.15 78.128C101.855 78.128 101.593 78.0853 101.362 78C101.136 77.9189 100.938 77.8123 100.767 77.68C100.601 77.5435 100.46 77.3984 100.345 77.2448C100.234 77.0912 100.142 76.944 100.07 76.8032V80.0608H98.8792ZM101.926 77.2064C102.472 77.2064 102.918 76.9995 103.263 76.5856C103.609 76.1675 103.782 75.5189 103.782 74.64C103.782 73.8848 103.624 73.2853 103.308 72.8416C102.992 72.3979 102.531 72.176 101.926 72.176C101.311 72.176 100.846 72.4043 100.53 72.8608C100.215 73.3131 100.057 73.9061 100.057 74.64C100.057 75.1136 100.127 75.5445 100.268 75.9328C100.409 76.3211 100.618 76.6304 100.895 76.8608C101.173 77.0912 101.516 77.2064 101.926 77.2064ZM109.629 72.2464H108.138V76.3616C108.138 76.5963 108.161 76.7691 108.208 76.88C108.259 76.9867 108.342 77.0549 108.458 77.0848C108.577 77.1147 108.739 77.1296 108.944 77.1296H109.667V77.9232C109.586 77.9531 109.462 77.9787 109.296 78C109.134 78.0213 108.931 78.032 108.688 78.032C108.231 78.032 107.877 77.9701 107.626 77.8464C107.374 77.7227 107.197 77.5392 107.094 77.296C106.996 77.0528 106.947 76.7541 106.947 76.4V72.2464H105.872V71.3824H106.979L107.267 69.456H108.138V71.376H109.629V72.2464ZM112.609 71.3824V78H111.464V71.3824H112.609ZM112.635 68.752V69.9808H111.425V68.752H112.635ZM119.863 71.3824L117.476 78H116.401L114.007 71.3824H115.121L116.881 76.5152H116.989L118.756 71.3824H119.863ZM121.737 74.9664C121.737 75.3845 121.805 75.7643 121.941 76.1056C122.082 76.4427 122.293 76.7115 122.575 76.912C122.861 77.1125 123.217 77.2128 123.644 77.2128C124.066 77.2128 124.429 77.1147 124.732 76.9184C125.039 76.7221 125.235 76.4384 125.321 76.0672H126.441C126.359 76.5152 126.18 76.8928 125.903 77.2C125.626 77.5072 125.291 77.7397 124.898 77.8976C124.506 78.0512 124.096 78.128 123.669 78.128C123.051 78.128 122.507 77.9936 122.037 77.7248C121.568 77.456 121.201 77.0699 120.937 76.5664C120.672 76.0629 120.54 75.4592 120.54 74.7552C120.54 74.0597 120.659 73.4496 120.898 72.9248C121.137 72.4 121.483 71.9904 121.935 71.696C122.391 71.4016 122.94 71.2544 123.58 71.2544C124.203 71.2544 124.73 71.3888 125.161 71.6576C125.591 71.9264 125.918 72.3061 126.14 72.7968C126.366 73.2832 126.479 73.8613 126.479 74.5312V74.9664H121.737ZM121.743 74.1664H125.34C125.34 73.7867 125.276 73.4453 125.148 73.1424C125.02 72.8352 124.823 72.5941 124.559 72.4192C124.299 72.24 123.97 72.1504 123.573 72.1504C123.159 72.1504 122.816 72.2507 122.543 72.4512C122.274 72.6475 122.071 72.9013 121.935 73.2128C121.803 73.52 121.739 73.8379 121.743 74.1664ZM134.329 72.2464H132.838V76.3616C132.838 76.5963 132.861 76.7691 132.908 76.88C132.959 76.9867 133.042 77.0549 133.158 77.0848C133.277 77.1147 133.439 77.1296 133.644 77.1296H134.367V77.9232C134.286 77.9531 134.162 77.9787 133.996 78C133.834 78.0213 133.631 78.032 133.388 78.032C132.931 78.032 132.577 77.9701 132.326 77.8464C132.074 77.7227 131.897 77.5392 131.794 77.296C131.696 77.0528 131.647 76.7541 131.647 76.4V72.2464H130.572V71.3824H131.679L131.967 69.456H132.838V71.376H134.329V72.2464ZM136.699 74.9664C136.699 75.3845 136.767 75.7643 136.904 76.1056C137.045 76.4427 137.256 76.7115 137.537 76.912C137.823 77.1125 138.18 77.2128 138.606 77.2128C139.029 77.2128 139.391 77.1147 139.694 76.9184C140.001 76.7221 140.198 76.4384 140.283 76.0672H141.403C141.322 76.5152 141.143 76.8928 140.865 77.2C140.588 77.5072 140.253 77.7397 139.861 77.8976C139.468 78.0512 139.058 78.128 138.632 78.128C138.013 78.128 137.469 77.9936 137 77.7248C136.53 77.456 136.164 77.0699 135.899 76.5664C135.634 76.0629 135.502 75.4592 135.502 74.7552C135.502 74.0597 135.622 73.4496 135.861 72.9248C136.1 72.4 136.445 71.9904 136.897 71.696C137.354 71.4016 137.902 71.2544 138.542 71.2544C139.165 71.2544 139.692 71.3888 140.123 71.6576C140.554 71.9264 140.88 72.3061 141.102 72.7968C141.328 73.2832 141.441 73.8613 141.441 74.5312V74.9664H136.699ZM136.705 74.1664H140.302C140.302 73.7867 140.238 73.4453 140.11 73.1424C139.982 72.8352 139.786 72.5941 139.521 72.4192C139.261 72.24 138.933 72.1504 138.536 72.1504C138.122 72.1504 137.778 72.2507 137.505 72.4512C137.237 72.6475 137.034 72.9013 136.897 73.2128C136.765 73.52 136.701 73.8379 136.705 74.1664ZM148.454 78H147.167L145.241 75.408L143.327 78H142.028L144.582 74.5632L142.233 71.3824H143.526L145.241 73.7056L146.962 71.3824H148.255L145.9 74.5632L148.454 78ZM153.091 72.2464H151.6V76.3616C151.6 76.5963 151.624 76.7691 151.67 76.88C151.722 76.9867 151.805 77.0549 151.92 77.0848C152.04 77.1147 152.202 77.1296 152.406 77.1296H153.13V77.9232C153.049 77.9531 152.925 77.9787 152.758 78C152.596 78.0213 152.394 78.032 152.15 78.032C151.694 78.032 151.34 77.9701 151.088 77.8464C150.836 77.7227 150.659 77.5392 150.557 77.296C150.459 77.0528 150.41 76.7541 150.41 76.4V72.2464H149.334V71.3824H150.442L150.73 69.456H151.6V71.376H153.091V72.2464ZM161.479 71.3824V72.2464H159.873V78H158.683V72.2464H157.287V71.3824H158.683V70.3584C158.683 69.8336 158.817 69.4347 159.086 69.1616C159.355 68.8843 159.756 68.7456 160.289 68.7456H161.537L161.543 69.584H160.551C160.283 69.584 160.099 69.6565 160.001 69.8016C159.903 69.9467 159.854 70.1664 159.854 70.4608V71.3824H161.479ZM165.485 78.128C164.874 78.128 164.341 77.9979 163.885 77.7376C163.428 77.4731 163.074 77.0869 162.822 76.5792C162.57 76.0715 162.445 75.4507 162.445 74.7168C162.445 74.0256 162.562 73.4197 162.797 72.8992C163.031 72.3787 163.375 71.9755 163.827 71.6896C164.284 71.3995 164.836 71.2544 165.485 71.2544C166.095 71.2544 166.624 71.3888 167.072 71.6576C167.524 71.9221 167.874 72.3125 168.121 72.8288C168.369 73.3451 168.493 73.9744 168.493 74.7168C168.493 75.3909 168.377 75.984 168.147 76.496C167.921 77.008 167.584 77.4091 167.136 77.6992C166.692 77.9851 166.142 78.128 165.485 78.128ZM165.485 77.1936C165.881 77.1936 166.216 77.0933 166.489 76.8928C166.762 76.6923 166.969 76.4043 167.11 76.0288C167.251 75.6533 167.321 75.2075 167.321 74.6912C167.321 74.2176 167.26 73.7931 167.136 73.4176C167.012 73.0379 166.814 72.7371 166.541 72.5152C166.272 72.2933 165.92 72.1824 165.485 72.1824C165.084 72.1824 164.744 72.2827 164.467 72.4832C164.19 72.6795 163.978 72.9653 163.833 73.3408C163.693 73.7163 163.622 74.1664 163.622 74.6912C163.622 75.1563 163.686 75.5787 163.814 75.9584C163.942 76.3381 164.143 76.6389 164.416 76.8608C164.689 77.0827 165.045 77.1936 165.485 77.1936ZM170.042 78V71.3824H171.168V72.656C171.279 72.3403 171.435 72.08 171.635 71.8752C171.836 71.6661 172.064 71.5104 172.32 71.408C172.58 71.3056 172.849 71.2544 173.127 71.2544C173.225 71.2544 173.321 71.2608 173.415 71.2736C173.508 71.2864 173.581 71.3077 173.632 71.3376V72.4832C173.568 72.4533 173.485 72.4341 173.383 72.4256C173.284 72.4128 173.201 72.4064 173.133 72.4064C172.868 72.3893 172.621 72.4064 172.391 72.4576C172.16 72.5045 171.957 72.5877 171.783 72.7072C171.608 72.8267 171.469 72.9845 171.367 73.1808C171.268 73.3728 171.219 73.6075 171.219 73.8848V78H170.042ZM179.625 78.0832C179.266 78.0832 178.976 78.0341 178.754 77.936C178.537 77.8379 178.368 77.7056 178.249 77.5392C178.133 77.3728 178.054 77.1829 178.012 76.9696C177.973 76.752 177.954 76.528 177.954 76.2976V68.4896H179.119V76.1824C179.119 76.5152 179.183 76.7648 179.311 76.9312C179.443 77.0976 179.627 77.1893 179.861 77.2064L180.22 77.2128V77.9808C180.122 78.0107 180.019 78.0341 179.913 78.0512C179.806 78.0725 179.71 78.0832 179.625 78.0832ZM183.535 78.128C183.108 78.128 182.73 78.0533 182.402 77.904C182.073 77.7504 181.815 77.5307 181.627 77.2448C181.444 76.9589 181.352 76.6133 181.352 76.208C181.352 75.4741 181.608 74.928 182.12 74.5696C182.632 74.2112 183.454 74.0192 184.584 73.9936L185.768 73.9616V73.4432C185.768 73.0379 185.647 72.7179 185.403 72.4832C185.16 72.2443 184.783 72.1248 184.271 72.1248C183.891 72.1291 183.556 72.2187 183.266 72.3936C182.98 72.5685 182.794 72.8544 182.709 73.2512H181.666C181.691 72.8203 181.813 72.4576 182.031 72.1632C182.248 71.8645 182.551 71.6384 182.939 71.4848C183.332 71.3312 183.795 71.2544 184.328 71.2544C184.904 71.2544 185.382 71.3355 185.762 71.4976C186.146 71.6597 186.432 71.8987 186.619 72.2144C186.811 72.5301 186.907 72.9184 186.907 73.3792V78H185.896L185.813 76.7584C185.557 77.2747 185.231 77.6331 184.834 77.8336C184.441 78.0299 184.008 78.128 183.535 78.128ZM183.893 77.2768C184.115 77.2768 184.335 77.2363 184.552 77.1552C184.774 77.0741 184.977 76.9653 185.16 76.8288C185.344 76.688 185.489 76.5323 185.595 76.3616C185.706 76.1867 185.764 76.0075 185.768 75.824V74.6912L184.783 74.7104C184.279 74.7189 183.857 74.7701 183.515 74.864C183.178 74.9579 182.924 75.1051 182.754 75.3056C182.587 75.5061 182.504 75.7685 182.504 76.0928C182.504 76.464 182.632 76.7541 182.888 76.9632C183.148 77.1723 183.483 77.2768 183.893 77.2768ZM192.2 78.128C191.811 78.128 191.483 78.0768 191.214 77.9744C190.949 77.872 190.732 77.7419 190.561 77.584C190.391 77.4219 190.258 77.2576 190.164 77.0912C190.071 76.9205 190.002 76.7712 189.96 76.6432L189.832 78H188.929V68.4896H190.12V72.432C190.175 72.3211 190.258 72.1995 190.369 72.0672C190.484 71.9349 190.632 71.8069 190.811 71.6832C190.99 71.5595 191.201 71.4571 191.444 71.376C191.692 71.2949 191.973 71.2544 192.289 71.2544C193.117 71.2544 193.774 71.5424 194.26 72.1184C194.751 72.6944 194.996 73.5435 194.996 74.6656C194.996 75.3611 194.892 75.9691 194.683 76.4896C194.474 77.0059 194.162 77.4091 193.748 77.6992C193.335 77.9851 192.818 78.128 192.2 78.128ZM191.988 77.2192C192.526 77.2192 192.963 77.0123 193.3 76.5984C193.637 76.1803 193.806 75.5168 193.806 74.608C193.806 73.8357 193.648 73.2384 193.332 72.816C193.021 72.3893 192.564 72.176 191.963 72.176C191.523 72.176 191.169 72.272 190.9 72.464C190.636 72.6517 190.44 72.9269 190.312 73.2896C190.188 73.6523 190.124 74.0917 190.12 74.608C190.12 75.5339 190.263 76.2016 190.548 76.6112C190.839 77.0165 191.319 77.2192 191.988 77.2192ZM197.387 74.9664C197.387 75.3845 197.455 75.7643 197.591 76.1056C197.732 76.4427 197.943 76.7115 198.225 76.912C198.511 77.1125 198.867 77.2128 199.294 77.2128C199.716 77.2128 200.079 77.1147 200.382 76.9184C200.689 76.7221 200.885 76.4384 200.971 76.0672H202.091C202.009 76.5152 201.83 76.8928 201.553 77.2C201.276 77.5072 200.941 77.7397 200.548 77.8976C200.156 78.0512 199.746 78.128 199.319 78.128C198.701 78.128 198.157 77.9936 197.687 77.7248C197.218 77.456 196.851 77.0699 196.587 76.5664C196.322 76.0629 196.19 75.4592 196.19 74.7552C196.19 74.0597 196.309 73.4496 196.548 72.9248C196.787 72.4 197.133 71.9904 197.585 71.696C198.041 71.4016 198.59 71.2544 199.23 71.2544C199.853 71.2544 200.38 71.3888 200.811 71.6576C201.241 71.9264 201.568 72.3061 201.79 72.7968C202.016 73.2832 202.129 73.8613 202.129 74.5312V74.9664H197.387ZM197.393 74.1664H200.99C200.99 73.7867 200.926 73.4453 200.798 73.1424C200.67 72.8352 200.473 72.5941 200.209 72.4192C199.949 72.24 199.62 72.1504 199.223 72.1504C198.809 72.1504 198.466 72.2507 198.193 72.4512C197.924 72.6475 197.721 72.9013 197.585 73.2128C197.453 73.52 197.389 73.8379 197.393 74.1664ZM205.425 78.0832C205.066 78.0832 204.776 78.0341 204.554 77.936C204.337 77.8379 204.168 77.7056 204.049 77.5392C203.933 77.3728 203.854 77.1829 203.812 76.9696C203.773 76.752 203.754 76.528 203.754 76.2976V68.4896H204.919V76.1824C204.919 76.5152 204.983 76.7648 205.111 76.9312C205.243 77.0976 205.427 77.1893 205.661 77.2064L206.02 77.2128V77.9808C205.922 78.0107 205.819 78.0341 205.713 78.0512C205.606 78.0725 205.51 78.0832 205.425 78.0832Z" fill="#495057"/>
<circle cx="46" cy="52" r="9.5" fill="white" stroke="#6C757D"/>
<path d="M24 28H296V26H24V28ZM299 31V89H301V31H299ZM296 92H24V94H296V92ZM21 89V31H19V89H21ZM24 92C22.3431 92 21 90.6569 21 89H19C19 91.7614 21.2386 94 24 94V92ZM299 89C299 90.6569 297.657 92 296 92V94C298.761 94 301 91.7614 301 89H299ZM296 28C297.657 28 299 29.3431 299 31H301C301 28.2386 298.761 26 296 26V28ZM24 26C21.2386 26 19 28.2386 19 31H21C21 29.3431 22.3431 28 24 28V26Z" fill="#DEE2E6"/>
<g style="mix-blend-mode:color">
<rect width="320" height="120" fill="#808080"/>
</g>
<g style="mix-blend-mode:color">
<rect width="320" height="120" fill="#00284D"/>
</g>
</svg>
