<svg width="320" height="120" viewBox="0 0 320 120" fill="none" xmlns="http://www.w3.org/2000/svg">
<rect width="320" height="120" fill="#C0CEDB"/>
<g filter="url(#filter0_ii)">
<rect x="90" y="40" width="140" height="40" rx="4" fill="white"/>
<path d="M128.64 66.144C128.952 66.144 129.296 66.056 129.616 65.944V64.504L129.224 64.48C128.504 64.4 128.288 64 128.288 63.392V54.112H126V63.68C126 64.872 126.192 66.144 128.64 66.144ZM133.644 66.16C134.804 66.16 135.644 65.776 136.212 64.576L136.404 66H138.356V60.184C138.356 58.56 137.388 57.568 134.86 57.568C132.788 57.568 131.292 58.4 131.204 60.192H133.148C133.38 59.432 134.068 59.152 134.748 59.144C135.684 59.136 136.116 59.56 136.116 60.32V60.816L135.076 60.832C132.156 60.864 130.852 61.824 130.852 63.632C130.852 65.248 132.068 66.16 133.644 66.16ZM134.436 64.624C133.668 64.624 133.068 64.168 133.068 63.4C133.068 62.392 134.108 62.048 135.276 62.032L136.116 62.016V63.24C136.108 63.952 135.276 64.624 134.436 64.624ZM143.5 66.16C145.564 66.16 146.988 65.224 146.988 63.568C146.988 62.816 146.596 61.608 144.756 61.152L143.412 60.848C142.508 60.672 142.1 60.44 142.1 60.008C142.1 59.424 142.684 59.136 143.484 59.136C144.268 59.136 144.82 59.496 144.94 60.136H146.892C146.868 58.512 145.548 57.568 143.516 57.568C141.252 57.568 140.036 58.696 140.044 60.184C140.052 61.552 141.02 62.248 142.484 62.552L143.94 62.856C144.692 63 144.988 63.248 144.988 63.696C144.988 64.288 144.38 64.56 143.492 64.56C142.844 64.56 142.02 64.272 141.804 63.392H139.788C140.084 65.352 141.772 66.16 143.5 66.16ZM153.555 59.352V57.72H151.715V55.232H150.051L149.459 57.728H148.043V59.352H149.387V63.856C149.387 65.184 149.947 66.088 152.131 66.088C152.939 66.088 153.355 65.984 153.579 65.888V64.448H152.467C151.955 64.448 151.731 64.368 151.731 63.76L151.715 59.352H153.555ZM163.844 57.728H162.052V56.928C162.052 56.256 162.236 55.984 162.828 55.984H163.924L163.908 54.432H162.012C160.58 54.432 159.756 55.2 159.756 56.536V57.728H158.228V59.352H159.756V66H162.1V59.352H163.844V57.728ZM167.444 54.44H165.172V56.544H167.444V54.44ZM167.428 57.728H165.196V66H167.428V57.728ZM169.484 66H171.82V61.472C171.82 60.36 172.524 59.624 174.364 59.784C174.476 59.792 174.62 59.8 174.716 59.84V57.616C174.652 57.584 174.508 57.568 174.356 57.568C173.052 57.568 172.124 58.424 171.732 59.688V57.728H169.484V66ZM179.375 66.16C181.439 66.16 182.863 65.224 182.863 63.568C182.863 62.816 182.471 61.608 180.631 61.152L179.287 60.848C178.383 60.672 177.975 60.44 177.975 60.008C177.975 59.424 178.559 59.136 179.359 59.136C180.143 59.136 180.695 59.496 180.815 60.136H182.767C182.743 58.512 181.423 57.568 179.391 57.568C177.127 57.568 175.911 58.696 175.919 60.184C175.927 61.552 176.895 62.248 178.359 62.552L179.815 62.856C180.567 63 180.863 63.248 180.863 63.696C180.863 64.288 180.255 64.56 179.367 64.56C178.719 64.56 177.895 64.272 177.679 63.392H175.663C175.959 65.352 177.647 66.16 179.375 66.16ZM189.43 59.352V57.72H187.59V55.232H185.926L185.334 57.728H183.918V59.352H185.262V63.856C185.262 65.184 185.822 66.088 188.006 66.088C188.814 66.088 189.23 65.984 189.454 65.888V64.448H188.342C187.83 64.448 187.606 64.368 187.606 63.76L187.59 59.352H189.43Z" fill="#343A40"/>
<path d="M110 59.75C111.914 59.75 113.5 58.1914 113.5 56.25C113.5 54.3359 111.914 52.75 110 52.75C108.059 52.75 106.5 54.3359 106.5 56.25C106.5 58.1914 108.059 59.75 110 59.75ZM112.434 60.625H111.969C111.367 60.9258 110.711 61.0625 110 61.0625C109.289 61.0625 108.605 60.9258 108.004 60.625H107.539C105.516 60.625 103.875 62.293 103.875 64.3164V65.4375C103.875 66.1758 104.449 66.75 105.188 66.75H114.812C115.523 66.75 116.125 66.1758 116.125 65.4375V64.3164C116.125 62.293 114.457 60.625 112.434 60.625Z" fill="black"/>
</g>
<g style="mix-blend-mode:color">
<rect width="320" height="120" fill="#808080"/>
</g>
<g style="mix-blend-mode:color">
<rect width="320" height="120" fill="#00284D"/>
</g>
<defs>
<filter id="filter0_ii" x="90" y="40" width="140" height="41" filterUnits="userSpaceOnUse" color-interpolation-filters="sRGB">
<feFlood flood-opacity="0" result="BackgroundImageFix"/>
<feBlend mode="normal" in="SourceGraphic" in2="BackgroundImageFix" result="shape"/>
<feColorMatrix in="SourceAlpha" type="matrix" values="0 0 0 0 0 0 0 0 0 0 0 0 0 0 0 0 0 0 127 0" result="hardAlpha"/>
<feOffset dy="-2"/>
<feComposite in2="hardAlpha" operator="arithmetic" k2="-1" k3="1"/>
<feColorMatrix type="matrix" values="0 0 0 0 0.423529 0 0 0 0 0.458824 0 0 0 0 0.490196 0 0 0 1 0"/>
<feBlend mode="normal" in2="shape" result="effect1_innerShadow"/>
<feColorMatrix in="SourceAlpha" type="matrix" values="0 0 0 0 0 0 0 0 0 0 0 0 0 0 0 0 0 0 127 0" result="hardAlpha"/>
<feOffset dy="1"/>
<feGaussianBlur stdDeviation="0.5"/>
<feComposite in2="hardAlpha" operator="arithmetic" k2="-1" k3="1"/>
<feColorMatrix type="matrix" values="0 0 0 0 0.741176 0 0 0 0 0.756863 0 0 0 0 0.772549 0 0 0 1 0"/>
<feBlend mode="normal" in2="effect1_innerShadow" result="effect2_innerShadow"/>
</filter>
</defs>
</svg>
