<svg width="320" height="120" viewBox="0 0 320 120" fill="none" xmlns="http://www.w3.org/2000/svg">
<rect width="320" height="120" fill="#C0CEDB"/>
<rect width="287" height="38" transform="translate(16 43)" fill="white"/>
<rect x="16" y="80" width="287" height="1" fill="#00284D"/>
<rect x="16" y="43" width="287" height="1" fill="#00284D"/>
<g clip-path="url(#clip0)">
<path d="M44.75 58.6562L39 63.4062V68.5C39 68.7812 39.2188 69 39.5 69H43C43.25 69 43.4688 68.7812 43.4688 68.5V65.5C43.4688 65.25 43.7188 65 43.9688 65H45.9688C46.25 65 46.4688 65.25 46.4688 65.5V68.5C46.4688 68.7812 46.7188 69 46.9688 69H50.5C50.75 69 51 68.7812 51 68.5V63.375L45.2188 58.6562C45.1562 58.5938 45.0625 58.5625 45 58.5625C44.9062 58.5625 44.8125 58.5938 44.75 58.6562ZM53.8438 61.875L51.25 59.7188V55.4062C51.25 55.1875 51.0625 55.0312 50.875 55.0312H49.125C48.9062 55.0312 48.75 55.1875 48.75 55.4062V57.6562L45.9375 55.3438C45.6875 55.1562 45.3438 55.0312 45 55.0312C44.625 55.0312 44.2812 55.1562 44.0312 55.3438L36.125 61.875C36.0312 61.9375 35.9688 62.0625 35.9688 62.1562C35.9688 62.25 36.0312 62.3438 36.0625 62.4062L36.875 63.375C36.9375 63.4688 37.0312 63.5 37.1562 63.5C37.25 63.5 37.3438 63.4688 37.4062 63.4062L44.75 57.375C44.8125 57.3125 44.9062 57.2812 45 57.2812C45.0625 57.2812 45.1562 57.3125 45.2188 57.375L52.5625 63.4062C52.625 63.4688 52.7188 63.5 52.8125 63.5C52.9375 63.5 53.0312 63.4688 53.0938 63.375L53.9062 62.4062C53.9688 62.3438 54 62.25 54 62.1562C54 62.0625 53.9375 61.9375 53.8438 61.875Z" fill="#185AE3"/>
<path d="M66.5 55H68.5L63 69H61L66.5 55Z" fill="#6C757D"/>
<path d="M79.3648 66.128C81.56 66.128 82.8464 65.008 82.8464 63.6128C82.8464 62.608 82.456 61.3856 80.6128 60.9824L78.8528 60.56C77.6432 60.2656 77.2656 59.8816 77.2656 59.2096C77.2656 58.1728 78.2832 57.6352 79.3264 57.6352C80.4208 57.6352 81.368 58.0576 81.4896 59.312H82.712C82.6992 57.9104 81.5408 56.6304 79.32 56.6304C77.3936 56.6304 76.0112 57.7248 76.0176 59.3248C76.0304 60.592 76.8496 61.3472 78.2128 61.648L80.0304 62.0704C81.0544 62.3072 81.6368 62.7872 81.6368 63.6256C81.6368 64.5664 80.6576 65.1424 79.3584 65.1424C78.1936 65.1424 77.2144 64.592 76.984 63.5424H75.7424C75.9792 65.2448 77.6176 66.128 79.3648 66.128ZM85.4746 62.9664H90.217V62.5312C90.217 60.5216 89.1802 59.2544 87.3178 59.2544C85.3914 59.2544 84.2778 60.6688 84.2778 62.7552C84.2778 64.8672 85.5514 66.128 87.401 66.128C88.6874 66.128 89.929 65.4176 90.1722 64.0672H89.0586C88.8922 64.816 88.2266 65.2128 87.3818 65.2128C86.0954 65.2128 85.4746 64.2208 85.4746 62.9664ZM85.481 62.1664C85.4746 61.1808 86.0634 60.1504 87.3114 60.1504C88.5082 60.1504 89.0778 61.0272 89.0778 62.1664H85.481ZM94.5166 59.2544C92.5646 59.2544 91.4702 60.656 91.4702 62.7168C91.4702 64.9376 92.7246 66.128 94.5166 66.128C95.9182 66.128 96.9934 65.2896 97.1662 63.9584H96.1358C96.0206 64.624 95.4446 65.2256 94.5358 65.2256C93.2686 65.2256 92.603 64.2336 92.603 62.704C92.603 61.0144 93.3902 60.208 94.523 60.208C95.4318 60.208 96.0078 60.7776 96.123 61.4752H97.1726C96.9934 60.1248 95.9374 59.2544 94.5166 59.2544ZM101.883 60.2464V59.376H100.392V57.456H99.5215L99.2335 59.3824H98.1263V60.2464H99.2015V64.4C99.2015 65.4624 99.5663 66.032 100.942 66.032C101.422 66.032 101.755 65.9872 101.922 65.9232V65.1296H101.198C100.578 65.1296 100.392 65.0656 100.392 64.3616V60.2464H101.883ZM104.701 56.752H103.492V57.9808H104.701V56.752ZM104.669 59.3824H103.524V66H104.669V59.3824ZM109.304 66.128C111.275 66.128 112.318 64.7392 112.318 62.7168C112.318 60.4896 111.134 59.2544 109.31 59.2544C107.352 59.2544 106.27 60.6432 106.27 62.7168C106.27 64.9248 107.467 66.128 109.304 66.128ZM109.31 65.1936C107.985 65.1936 107.448 64.0864 107.448 62.6912C107.448 61.1168 108.107 60.1824 109.31 60.1824C110.609 60.1824 111.147 61.2768 111.147 62.6912C111.147 64.2464 110.494 65.1936 109.31 65.1936ZM113.892 66H115.069V61.5776C115.069 60.688 115.888 60.2656 116.784 60.2656C117.648 60.2656 118.244 60.7584 118.244 61.7888V66H119.428V61.6736C119.428 60.0096 118.365 59.2864 117.111 59.2864C116.048 59.2864 115.364 59.792 115.037 60.3424V59.3824H113.892V66Z" fill="#00284D"/>
<path d="M132.5 55H134.5L129 69H127L132.5 55Z" fill="#6C757D"/>
<path d="M152.398 61.7312V66H153.582V56.7456H152.398V60.688H147.406V56.7456H146.222V66H147.406V61.7312H152.398ZM156.562 62.9664H161.305V62.5312C161.305 60.5216 160.268 59.2544 158.405 59.2544C156.479 59.2544 155.365 60.6688 155.365 62.7552C155.365 64.8672 156.639 66.128 158.489 66.128C159.775 66.128 161.017 65.4176 161.26 64.0672H160.146C159.98 64.816 159.314 65.2128 158.469 65.2128C157.183 65.2128 156.562 64.2208 156.562 62.9664ZM156.569 62.1664C156.562 61.1808 157.151 60.1504 158.399 60.1504C159.596 60.1504 160.165 61.0272 160.165 62.1664H156.569ZM162.942 66H164.119V61.8848C164.119 60.784 164.977 60.336 166.033 60.4064C166.167 60.4064 166.404 60.4256 166.532 60.4832V59.3376C166.423 59.28 166.219 59.2544 166.027 59.2544C165.188 59.2544 164.401 59.7024 164.068 60.656V59.3824H162.942V66ZM168.712 62.9664H173.455V62.5312C173.455 60.5216 172.418 59.2544 170.555 59.2544C168.629 59.2544 167.515 60.6688 167.515 62.7552C167.515 64.8672 168.789 66.128 170.639 66.128C171.925 66.128 173.167 65.4176 173.41 64.0672H172.296C172.13 64.816 171.464 65.2128 170.619 65.2128C169.333 65.2128 168.712 64.2208 168.712 62.9664ZM168.719 62.1664C168.712 61.1808 169.301 60.1504 170.549 60.1504C171.746 60.1504 172.315 61.0272 172.315 62.1664H168.719Z" fill="#00284D"/>
<path d="M196.875 61.5625C195.188 58.25 191.812 56 188 56C184.156 56 180.781 58.25 179.094 61.5625C179.031 61.6875 179 61.8438 179 62C179 62.1875 179.031 62.3438 179.094 62.4688C180.781 65.7812 184.156 68 188 68C191.812 68 195.188 65.7812 196.875 62.4688C196.938 62.3438 196.969 62.1875 196.969 62.0312C196.969 61.8438 196.938 61.6875 196.875 61.5625ZM188 66.5C185.5 66.5 183.5 64.5 183.5 62C183.5 59.5312 185.5 57.5 188 57.5C190.469 57.5 192.5 59.5312 192.5 62V62.0312C192.5 64.5 190.469 66.5312 188 66.5312V66.5ZM188 59C187.719 59.0312 187.438 59.0625 187.188 59.125C187.375 59.375 187.469 59.6875 187.469 60.0312C187.469 60.8438 186.812 61.5 186 61.5C185.656 61.5 185.344 61.4062 185.094 61.2188C185.031 61.4688 185 61.75 185 62C185 63.6562 186.344 65 188 65C189.656 65 191 63.6562 191 62C191 60.3438 189.656 59.0312 188 59.0312V59Z" fill="#6C757D"/>
</g>
<g style="mix-blend-mode:color">
<rect width="320" height="120" fill="#808080"/>
</g>
<g style="mix-blend-mode:color">
<rect width="320" height="120" fill="#00284D"/>
</g>
<defs>
<clipPath id="clip0">
<rect width="162" height="20" fill="white" transform="translate(35 52)"/>
</clipPath>
</defs>
</svg>
