<svg width="320" height="120" viewBox="0 0 320 120" fill="none" xmlns="http://www.w3.org/2000/svg">
<g clip-path="url(#clip0_454_538)">
<rect width="320" height="120" fill="#C0CEDB"/>
<g style="mix-blend-mode:color">
<rect width="320" height="120" fill="#808080"/>
</g>
<g style="mix-blend-mode:color">
<rect width="320" height="120" fill="#00284D"/>
</g>
<path d="M63 44C63 42.3431 64.3431 41 66 41H118C119.657 41 121 42.3431 121 44V79H63V44Z" fill="#DEE2E6"/>
<path d="M78.429 56.512V54.432H87.685V56.512H84.269V66H81.925V56.512H78.429ZM90.4156 66.16C89.8876 66.16 89.413 66.0613 88.9916 65.864C88.5703 65.6667 88.237 65.3813 87.9916 65.008C87.7463 64.6293 87.6236 64.1707 87.6236 63.632C87.6236 62.7253 87.9623 62.0373 88.6396 61.568C89.317 61.0933 90.3863 60.848 91.8476 60.832L92.8796 60.816V60.32C92.8796 59.9413 92.7676 59.6507 92.5436 59.448C92.325 59.24 91.9836 59.1387 91.5196 59.144C91.1783 59.1493 90.853 59.2293 90.5436 59.384C90.2396 59.5387 90.0316 59.808 89.9196 60.192H87.9756C88.0076 59.5947 88.181 59.104 88.4956 58.72C88.8103 58.3307 89.237 58.0427 89.7756 57.856C90.3196 57.664 90.9356 57.568 91.6236 57.568C92.4716 57.568 93.1516 57.6747 93.6636 57.888C94.1756 58.096 94.5463 58.3973 94.7756 58.792C95.005 59.1813 95.1196 59.6453 95.1196 60.184V66H93.1676L92.9756 64.576C92.693 65.1733 92.3383 65.5867 91.9116 65.816C91.4903 66.0453 90.9916 66.16 90.4156 66.16ZM91.1996 64.624C91.413 64.624 91.6183 64.5867 91.8156 64.512C92.0183 64.432 92.197 64.328 92.3516 64.2C92.5116 64.0667 92.6396 63.9173 92.7356 63.752C92.8316 63.5867 92.8796 63.416 92.8796 63.24V62.016L92.0396 62.032C91.6503 62.0373 91.2876 62.0853 90.9516 62.176C90.6156 62.2613 90.3436 62.4027 90.1356 62.6C89.933 62.7973 89.8316 63.064 89.8316 63.4C89.8316 63.784 89.965 64.0853 90.2316 64.304C90.4983 64.5173 90.821 64.624 91.1996 64.624ZM101.796 66.16C101.385 66.16 101.03 66.1067 100.732 66C100.433 65.8933 100.18 65.752 99.9715 65.576C99.7635 65.3947 99.5928 65.1947 99.4595 64.976C99.3262 64.7573 99.2222 64.5333 99.1475 64.304L98.8835 66H97.1875V54.112H99.5315V58.848C99.6328 58.672 99.7635 58.5067 99.9235 58.352C100.084 58.1973 100.27 58.0613 100.484 57.944C100.697 57.8267 100.932 57.736 101.188 57.672C101.449 57.6027 101.726 57.568 102.02 57.568C103.049 57.568 103.854 57.9387 104.436 58.68C105.022 59.4213 105.316 60.4667 105.316 61.816C105.316 62.6907 105.182 63.4533 104.916 64.104C104.649 64.7547 104.254 65.2613 103.732 65.624C103.209 65.9813 102.564 66.16 101.796 66.16ZM101.284 64.48C101.785 64.48 102.201 64.2747 102.532 63.864C102.868 63.448 103.036 62.7547 103.036 61.784C103.036 60.9253 102.876 60.2907 102.556 59.88C102.241 59.4693 101.812 59.264 101.268 59.264C100.878 59.264 100.556 59.3573 100.299 59.544C100.044 59.7253 99.8515 60.0027 99.7235 60.376C99.6008 60.7493 99.5368 61.2187 99.5315 61.784C99.5315 62.76 99.6755 63.4533 99.9635 63.864C100.257 64.2747 100.697 64.48 101.284 64.48Z" fill="#004BA1"/>
<path d="M63 44C63 42.3431 64.3431 41 66 41H118C119.657 41 121 42.3431 121 44V79H63V44Z" stroke="#DEE2E6" stroke-width="2"/>
<g filter="url(#filter0_i_454_538)">
<path d="M130 44C130 41.7909 131.791 40 134 40H186C188.209 40 190 41.7909 190 44V80H130V44Z" fill="white"/>
<path d="M146.429 56.512V54.432H155.685V56.512H152.269V66H149.925V56.512H146.429ZM158.416 66.16C157.888 66.16 157.413 66.0613 156.992 65.864C156.57 65.6667 156.237 65.3813 155.992 65.008C155.746 64.6293 155.624 64.1707 155.624 63.632C155.624 62.7253 155.962 62.0373 156.64 61.568C157.317 61.0933 158.386 60.848 159.848 60.832L160.88 60.816V60.32C160.88 59.9413 160.768 59.6507 160.544 59.448C160.325 59.24 159.984 59.1387 159.52 59.144C159.178 59.1493 158.853 59.2293 158.544 59.384C158.24 59.5387 158.032 59.808 157.92 60.192H155.976C156.008 59.5947 156.181 59.104 156.496 58.72C156.81 58.3307 157.237 58.0427 157.776 57.856C158.32 57.664 158.936 57.568 159.624 57.568C160.472 57.568 161.152 57.6747 161.664 57.888C162.176 58.096 162.546 58.3973 162.776 58.792C163.005 59.1813 163.12 59.6453 163.12 60.184V66H161.168L160.976 64.576C160.693 65.1733 160.338 65.5867 159.912 65.816C159.49 66.0453 158.992 66.16 158.416 66.16ZM159.2 64.624C159.413 64.624 159.618 64.5867 159.816 64.512C160.018 64.432 160.197 64.328 160.352 64.2C160.512 64.0667 160.64 63.9173 160.736 63.752C160.832 63.5867 160.88 63.416 160.88 63.24V62.016L160.04 62.032C159.65 62.0373 159.288 62.0853 158.952 62.176C158.616 62.2613 158.344 62.4027 158.136 62.6C157.933 62.7973 157.832 63.064 157.832 63.4C157.832 63.784 157.965 64.0853 158.232 64.304C158.498 64.5173 158.821 64.624 159.2 64.624ZM169.796 66.16C169.385 66.16 169.03 66.1067 168.732 66C168.433 65.8933 168.18 65.752 167.972 65.576C167.764 65.3947 167.593 65.1947 167.46 64.976C167.326 64.7573 167.222 64.5333 167.148 64.304L166.884 66H165.188V54.112H167.532V58.848C167.633 58.672 167.764 58.5067 167.924 58.352C168.084 58.1973 168.27 58.0613 168.484 57.944C168.697 57.8267 168.932 57.736 169.188 57.672C169.449 57.6027 169.726 57.568 170.02 57.568C171.049 57.568 171.854 57.9387 172.436 58.68C173.022 59.4213 173.316 60.4667 173.316 61.816C173.316 62.6907 173.182 63.4533 172.916 64.104C172.649 64.7547 172.254 65.2613 171.732 65.624C171.209 65.9813 170.564 66.16 169.796 66.16ZM169.284 64.48C169.785 64.48 170.201 64.2747 170.532 63.864C170.868 63.448 171.036 62.7547 171.036 61.784C171.036 60.9253 170.876 60.2907 170.556 59.88C170.241 59.4693 169.812 59.264 169.268 59.264C168.878 59.264 168.556 59.3573 168.299 59.544C168.044 59.7253 167.852 60.0027 167.724 60.376C167.601 60.7493 167.537 61.2187 167.532 61.784C167.532 62.76 167.676 63.4533 167.964 63.864C168.257 64.2747 168.697 64.48 169.284 64.48Z" fill="#495057"/>
<path d="M131 44C131 42.3431 132.343 41 134 41H186C187.657 41 189 42.3431 189 44V79H131V44Z" stroke="#DEE2E6" stroke-width="2"/>
</g>
<path d="M199 44C199 42.3431 200.343 41 202 41H254C255.657 41 257 42.3431 257 44V79H199V44Z" fill="#DEE2E6"/>
<path d="M214.429 56.512V54.432H223.685V56.512H220.269V66H217.925V56.512H214.429ZM226.416 66.16C225.888 66.16 225.413 66.0613 224.992 65.864C224.57 65.6667 224.237 65.3813 223.992 65.008C223.746 64.6293 223.624 64.1707 223.624 63.632C223.624 62.7253 223.962 62.0373 224.64 61.568C225.317 61.0933 226.386 60.848 227.848 60.832L228.88 60.816V60.32C228.88 59.9413 228.768 59.6507 228.544 59.448C228.325 59.24 227.984 59.1387 227.52 59.144C227.178 59.1493 226.853 59.2293 226.544 59.384C226.24 59.5387 226.032 59.808 225.92 60.192H223.976C224.008 59.5947 224.181 59.104 224.496 58.72C224.81 58.3307 225.237 58.0427 225.776 57.856C226.32 57.664 226.936 57.568 227.624 57.568C228.472 57.568 229.152 57.6747 229.664 57.888C230.176 58.096 230.546 58.3973 230.776 58.792C231.005 59.1813 231.12 59.6453 231.12 60.184V66H229.168L228.976 64.576C228.693 65.1733 228.338 65.5867 227.912 65.816C227.49 66.0453 226.992 66.16 226.416 66.16ZM227.2 64.624C227.413 64.624 227.618 64.5867 227.816 64.512C228.018 64.432 228.197 64.328 228.352 64.2C228.512 64.0667 228.64 63.9173 228.736 63.752C228.832 63.5867 228.88 63.416 228.88 63.24V62.016L228.04 62.032C227.65 62.0373 227.288 62.0853 226.952 62.176C226.616 62.2613 226.344 62.4027 226.136 62.6C225.933 62.7973 225.832 63.064 225.832 63.4C225.832 63.784 225.965 64.0853 226.232 64.304C226.498 64.5173 226.821 64.624 227.2 64.624ZM237.796 66.16C237.385 66.16 237.03 66.1067 236.732 66C236.433 65.8933 236.18 65.752 235.972 65.576C235.764 65.3947 235.593 65.1947 235.46 64.976C235.326 64.7573 235.222 64.5333 235.148 64.304L234.884 66H233.188V54.112H235.532V58.848C235.633 58.672 235.764 58.5067 235.924 58.352C236.084 58.1973 236.27 58.0613 236.484 57.944C236.697 57.8267 236.932 57.736 237.188 57.672C237.449 57.6027 237.726 57.568 238.02 57.568C239.049 57.568 239.854 57.9387 240.436 58.68C241.022 59.4213 241.316 60.4667 241.316 61.816C241.316 62.6907 241.182 63.4533 240.916 64.104C240.649 64.7547 240.254 65.2613 239.732 65.624C239.209 65.9813 238.564 66.16 237.796 66.16ZM237.284 64.48C237.785 64.48 238.201 64.2747 238.532 63.864C238.868 63.448 239.036 62.7547 239.036 61.784C239.036 60.9253 238.876 60.2907 238.556 59.88C238.241 59.4693 237.812 59.264 237.268 59.264C236.878 59.264 236.556 59.3573 236.299 59.544C236.044 59.7253 235.852 60.0027 235.724 60.376C235.601 60.7493 235.537 61.2187 235.532 61.784C235.532 62.76 235.676 63.4533 235.964 63.864C236.257 64.2747 236.697 64.48 237.284 64.48Z" fill="#004BA1"/>
<path d="M199 44C199 42.3431 200.343 41 202 41H254C255.657 41 257 42.3431 257 44V79H199V44Z" stroke="#DEE2E6" stroke-width="2"/>
<rect width="1115" height="2" transform="translate(62 78)" fill="#DEE2E6"/>
<g style="mix-blend-mode:color">
<rect width="320" height="120" fill="#808080"/>
</g>
<g style="mix-blend-mode:color">
<rect width="320" height="120" fill="#00284D"/>
</g>
</g>
<defs>
<filter id="filter0_i_454_538" x="130" y="40" width="60" height="40" filterUnits="userSpaceOnUse" color-interpolation-filters="sRGB">
<feFlood flood-opacity="0" result="BackgroundImageFix"/>
<feBlend mode="normal" in="SourceGraphic" in2="BackgroundImageFix" result="shape"/>
<feColorMatrix in="SourceAlpha" type="matrix" values="0 0 0 0 0 0 0 0 0 0 0 0 0 0 0 0 0 0 127 0" result="hardAlpha"/>
<feOffset dy="-2"/>
<feComposite in2="hardAlpha" operator="arithmetic" k2="-1" k3="1"/>
<feColorMatrix type="matrix" values="0 0 0 0 1 0 0 0 0 1 0 0 0 0 1 0 0 0 1 0"/>
<feBlend mode="normal" in2="shape" result="effect1_innerShadow_454_538"/>
</filter>
<clipPath id="clip0_454_538">
<rect width="320" height="120" fill="white"/>
</clipPath>
</defs>
</svg>
