<svg width="320" height="120" viewBox="0 0 320 120" fill="none" xmlns="http://www.w3.org/2000/svg">
<g clip-path="url(#clip0_1288_3644)">
<rect width="320" height="120" fill="#C0CEDB"/>
<rect width="272" height="159.297" transform="translate(24 8)" fill="#C0CEDB"/>
<rect width="51.7716" height="159" transform="translate(24 8)" fill="#00284D"/>
<rect x="24" y="8" width="51.7716" height="9.55783" fill="#00284D"/>
<path d="M26.0788 14.7877L26.904 12.4843H27.3946L28.2182 14.7877H27.7546L27.5667 14.2541H26.7383L26.5456 14.7877H26.0788ZM26.8419 13.8479H27.4552L27.1509 12.9335L26.8419 13.8479ZM28.5051 15.3007V13.1406H28.9719L28.9735 13.3779C28.9979 13.3386 29.0276 13.3031 29.0627 13.2712C29.0988 13.2383 29.1386 13.2096 29.1821 13.1852C29.2257 13.1608 29.2729 13.1422 29.3239 13.1294C29.3749 13.1156 29.4285 13.1087 29.4848 13.1087C29.6069 13.1087 29.7158 13.139 29.8114 13.1995C29.9069 13.259 29.9818 13.3514 30.036 13.4767C30.0912 13.601 30.1188 13.7592 30.1188 13.9514C30.1188 14.1511 30.0891 14.3151 30.0296 14.4436C29.9712 14.5711 29.8905 14.6656 29.7875 14.7272C29.6845 14.7888 29.5682 14.8196 29.4386 14.8196C29.3855 14.8196 29.3356 14.8121 29.2889 14.7973C29.2421 14.7835 29.1986 14.7638 29.1582 14.7383C29.1189 14.7129 29.0834 14.6836 29.0515 14.6507C29.0207 14.6167 28.9936 14.5801 28.9703 14.5408V15.3007H28.5051ZM29.3271 14.4787C29.428 14.4787 29.5124 14.4367 29.5804 14.3528C29.6494 14.2689 29.6839 14.1362 29.6839 13.9546C29.6839 13.7953 29.651 13.671 29.5852 13.5818C29.5204 13.4916 29.4344 13.4464 29.3271 13.4464C29.2071 13.4464 29.1174 13.4953 29.0579 13.593C28.9995 13.6896 28.9703 13.8102 28.9703 13.9546C28.9703 14.047 28.983 14.133 29.0085 14.2127C29.035 14.2923 29.0743 14.3566 29.1264 14.4054C29.1795 14.4543 29.2464 14.4787 29.3271 14.4787ZM30.4279 15.3007V13.1406H30.8946L30.8962 13.3779C30.9206 13.3386 30.9504 13.3031 30.9854 13.2712C31.0215 13.2383 31.0614 13.2096 31.1049 13.1852C31.1484 13.1608 31.1957 13.1422 31.2467 13.1294C31.2976 13.1156 31.3513 13.1087 31.4076 13.1087C31.5297 13.1087 31.6385 13.139 31.7341 13.1995C31.8297 13.259 31.9046 13.3514 31.9587 13.4767C32.014 13.601 32.0416 13.7592 32.0416 13.9514C32.0416 14.1511 32.0118 14.3151 31.9524 14.4436C31.894 14.5711 31.8132 14.6656 31.7102 14.7272C31.6072 14.7888 31.4909 14.8196 31.3614 14.8196C31.3083 14.8196 31.2584 14.8121 31.2116 14.7973C31.1649 14.7835 31.1214 14.7638 31.081 14.7383C31.0417 14.7129 31.0061 14.6836 30.9743 14.6507C30.9435 14.6167 30.9164 14.5801 30.893 14.5408V15.3007H30.4279ZM31.2499 14.4787C31.3507 14.4787 31.4352 14.4367 31.5031 14.3528C31.5722 14.2689 31.6067 14.1362 31.6067 13.9546C31.6067 13.7953 31.5738 13.671 31.5079 13.5818C31.4431 13.4916 31.3571 13.4464 31.2499 13.4464C31.1299 13.4464 31.0401 13.4953 30.9806 13.593C30.9222 13.6896 30.893 13.8102 30.893 13.9546C30.893 14.047 30.9058 14.133 30.9313 14.2127C30.9578 14.2923 30.9971 14.3566 31.0491 14.4054C31.1022 14.4543 31.1692 14.4787 31.2499 14.4787ZM33.9307 12.4843H34.3958V14.7877H33.9769L32.8825 13.2027V14.7877H32.4189V12.4843H32.8793L33.9307 14.0088V12.4843ZM35.3269 14.8196C35.2218 14.8196 35.1272 14.7999 35.0433 14.7606C34.9595 14.7213 34.8931 14.6645 34.8442 14.5902C34.7954 14.5148 34.771 14.4235 34.771 14.3162C34.771 14.1357 34.8384 13.9987 34.9733 13.9052C35.1081 13.8107 35.3211 13.7618 35.612 13.7587L35.8175 13.7555V13.6567C35.8175 13.5813 35.7952 13.5234 35.7506 13.4831C35.7071 13.4417 35.6391 13.4215 35.5467 13.4225C35.4788 13.4236 35.414 13.4395 35.3524 13.4703C35.2919 13.5011 35.2504 13.5548 35.2281 13.6312H34.841C34.8474 13.5123 34.8819 13.4146 34.9446 13.3381C35.0072 13.2606 35.0922 13.2032 35.1995 13.1661C35.3078 13.1278 35.4304 13.1087 35.5674 13.1087C35.7363 13.1087 35.8717 13.13 35.9736 13.1724C36.0756 13.2139 36.1494 13.2739 36.1951 13.3525C36.2407 13.43 36.2636 13.5224 36.2636 13.6296V14.7877H35.8749L35.8366 14.5042C35.7804 14.6231 35.7097 14.7054 35.6248 14.7511C35.5409 14.7967 35.4416 14.8196 35.3269 14.8196ZM35.483 14.5137C35.5255 14.5137 35.5664 14.5063 35.6057 14.4914C35.646 14.4755 35.6816 14.4548 35.7124 14.4293C35.7443 14.4028 35.7697 14.373 35.7889 14.3401C35.808 14.3072 35.8175 14.2732 35.8175 14.2381V13.9944L35.6503 13.9976C35.5727 13.9987 35.5005 14.0082 35.4336 14.0263C35.3667 14.0433 35.3126 14.0714 35.2711 14.1107C35.2308 14.15 35.2106 14.2031 35.2106 14.27C35.2106 14.3465 35.2372 14.4065 35.2903 14.45C35.3434 14.4925 35.4076 14.5137 35.483 14.5137ZM36.6753 14.7877V13.1406H37.1309V13.3732C37.1808 13.3009 37.2477 13.2388 37.3316 13.1868C37.4166 13.1347 37.5233 13.1087 37.6518 13.1087C37.7081 13.1087 37.7654 13.1188 37.8239 13.139C37.8823 13.1592 37.937 13.1889 37.9879 13.2282C38.04 13.2664 38.0819 13.3148 38.1138 13.3732C38.1669 13.2978 38.2364 13.2351 38.3225 13.1852C38.4095 13.1342 38.5062 13.1087 38.6124 13.1087C38.674 13.1087 38.7361 13.1188 38.7988 13.139C38.8625 13.1592 38.9209 13.1921 38.974 13.2378C39.0271 13.2834 39.0696 13.3445 39.1014 13.4209C39.1343 13.4964 39.1508 13.5898 39.1508 13.7013V14.7877H38.6857V13.7587C38.6857 13.6928 38.6724 13.6402 38.6458 13.601C38.6203 13.5606 38.5874 13.5319 38.5471 13.5149C38.5078 13.4969 38.4658 13.4879 38.4212 13.4879C38.3798 13.4879 38.3379 13.4964 38.2954 13.5133C38.2529 13.5293 38.2168 13.5553 38.1871 13.5914C38.1573 13.6275 38.1425 13.6748 38.1425 13.7332V14.7877H37.6789V13.7172C37.6789 13.6673 37.6656 13.6254 37.6391 13.5914C37.6125 13.5574 37.5791 13.5319 37.5387 13.5149C37.4994 13.4969 37.4591 13.4879 37.4176 13.4879C37.3752 13.4879 37.3327 13.4969 37.2902 13.5149C37.2477 13.5319 37.2122 13.559 37.1835 13.5962C37.1548 13.6323 37.1405 13.6779 37.1405 13.7332V14.7877H36.6753ZM39.9107 14.0709C39.9096 14.1548 39.9229 14.2281 39.9505 14.2907C39.9781 14.3523 40.0179 14.4001 40.07 14.4341C40.1231 14.467 40.1868 14.4835 40.2611 14.4835C40.3408 14.4835 40.4103 14.4665 40.4698 14.4325C40.5303 14.3985 40.5723 14.3427 40.5957 14.2652H41.0146C40.9966 14.382 40.9498 14.4819 40.8744 14.5647C40.8001 14.6475 40.7098 14.7107 40.6036 14.7543C40.4974 14.7978 40.387 14.8196 40.2723 14.8196C40.1098 14.8196 39.9664 14.7856 39.8422 14.7176C39.719 14.6486 39.6229 14.5514 39.5539 14.4261C39.4848 14.3008 39.4503 14.1532 39.4503 13.9833C39.4503 13.8187 39.4816 13.6705 39.5443 13.5388C39.6069 13.4061 39.6977 13.3015 39.8167 13.225C39.9367 13.1475 40.0806 13.1087 40.2484 13.1087C40.4162 13.1087 40.5569 13.1443 40.6705 13.2155C40.7852 13.2855 40.8712 13.3838 40.9286 13.5102C40.987 13.6355 41.0162 13.7804 41.0162 13.945V14.0709H39.9107ZM39.9091 13.7937H40.5813C40.5813 13.7279 40.5691 13.6673 40.5447 13.6121C40.5203 13.5569 40.4831 13.5133 40.4332 13.4815C40.3843 13.4496 40.3227 13.4337 40.2484 13.4337C40.1762 13.4337 40.1146 13.4512 40.0636 13.4863C40.0137 13.5202 39.9755 13.5648 39.9489 13.6201C39.9224 13.6753 39.9091 13.7332 39.9091 13.7937Z" fill="white"/>
<rect x="75.7715" y="8" width="220.228" height="9.55783" fill="#00284D"/>
<path d="M78.9415 12.1307H82.1772C82.2394 12.1307 82.3016 12.0762 82.3016 12.0062V11.6951C82.3016 11.6329 82.2394 11.5706 82.1772 11.5706H78.9415C78.8715 11.5706 78.817 11.6329 78.817 11.6951V12.0062C78.817 12.0762 78.8715 12.1307 78.9415 12.1307ZM78.9415 13.3752H82.1772C82.2394 13.3752 82.3016 13.3207 82.3016 13.2507V12.9396C82.3016 12.8774 82.2394 12.8151 82.1772 12.8151H78.9415C78.8715 12.8151 78.817 12.8774 78.817 12.9396V13.2507C78.817 13.3207 78.8715 13.3752 78.9415 13.3752ZM78.9415 14.6197H82.1772C82.2394 14.6197 82.3016 14.5652 82.3016 14.4952V14.1841C82.3016 14.1219 82.2394 14.0596 82.1772 14.0596H78.9415C78.8715 14.0596 78.817 14.1219 78.817 14.1841V14.4952C78.817 14.5652 78.8715 14.6197 78.9415 14.6197Z" fill="white"/>
<path d="M84.4104 14.5886V12.2851H85.2579C85.4257 12.2851 85.5759 12.3143 85.7087 12.3727C85.8414 12.4301 85.946 12.515 86.0225 12.6276C86.1 12.7402 86.1388 12.8777 86.1388 13.0402C86.1388 13.1931 86.1048 13.3237 86.0368 13.4321C85.9689 13.5404 85.8733 13.6232 85.7501 13.6806C85.628 13.7379 85.4841 13.7666 85.3184 13.7666H84.8787V14.5886H84.4104ZM84.874 13.4066H85.3057C85.4225 13.4066 85.5181 13.3694 85.5924 13.2951C85.6667 13.2197 85.7039 13.1267 85.7039 13.0163C85.7039 12.9016 85.6646 12.8108 85.586 12.7439C85.5074 12.6759 85.4119 12.642 85.2993 12.642H84.874V13.4066ZM86.8641 14.6204C86.759 14.6204 86.6645 14.6008 86.5806 14.5615C86.4967 14.5222 86.4303 14.4654 86.3815 14.391C86.3326 14.3156 86.3082 14.2243 86.3082 14.117C86.3082 13.9365 86.3756 13.7995 86.5105 13.7061C86.6454 13.6115 86.8583 13.5627 87.1493 13.5595L87.3548 13.5563V13.4576C87.3548 13.3822 87.3325 13.3243 87.2879 13.2839C87.2443 13.2425 87.1764 13.2223 87.084 13.2234C87.016 13.2244 86.9512 13.2404 86.8896 13.2712C86.8291 13.302 86.7877 13.3556 86.7654 13.4321H86.3783C86.3846 13.3131 86.4192 13.2154 86.4818 13.139C86.5445 13.0614 86.6294 13.0041 86.7367 12.9669C86.845 12.9287 86.9677 12.9096 87.1047 12.9096C87.2735 12.9096 87.4089 12.9308 87.5109 12.9733C87.6128 13.0147 87.6866 13.0747 87.7323 13.1533C87.778 13.2308 87.8008 13.3232 87.8008 13.4305V14.5886H87.4121L87.3739 14.305C87.3176 14.424 87.247 14.5063 87.162 14.5519C87.0781 14.5976 86.9788 14.6204 86.8641 14.6204ZM87.0202 14.3146C87.0627 14.3146 87.1036 14.3071 87.1429 14.2923C87.1833 14.2763 87.2188 14.2556 87.2496 14.2301C87.2815 14.2036 87.307 14.1739 87.3261 14.1409C87.3452 14.108 87.3548 14.074 87.3548 14.039V13.7953L87.1875 13.7984C87.11 13.7995 87.0378 13.8091 86.9709 13.8271C86.904 13.8441 86.8498 13.8723 86.8084 13.9115C86.768 13.9508 86.7478 14.0039 86.7478 14.0708C86.7478 14.1473 86.7744 14.2073 86.8275 14.2509C86.8806 14.2933 86.9448 14.3146 87.0202 14.3146ZM88.9756 15.1334C88.6825 15.1334 88.4595 15.0962 88.3065 15.0219C88.1547 14.9475 88.0787 14.8498 88.0787 14.7287C88.0787 14.6725 88.0936 14.6252 88.1233 14.587C88.1531 14.5487 88.1876 14.5185 88.2269 14.4962C88.2672 14.4728 88.3039 14.4553 88.3368 14.4436C88.3708 14.4309 88.3915 14.4224 88.3989 14.4181C88.3819 14.4086 88.3575 14.3948 88.3257 14.3767C88.2938 14.3576 88.2641 14.3321 88.2365 14.3002C88.2099 14.2673 88.1966 14.2248 88.1966 14.1728C88.1966 14.1144 88.2242 14.0602 88.2795 14.0103C88.3357 13.9604 88.4207 13.9259 88.5343 13.9068C88.426 13.8558 88.3437 13.7868 88.2874 13.6997C88.2311 13.6126 88.203 13.5234 88.203 13.4321C88.203 13.3237 88.237 13.2308 88.3049 13.1533C88.3729 13.0758 88.4653 13.0168 88.5821 12.9765C88.7 12.9361 88.8333 12.9159 88.982 12.9159C89.0956 12.9159 89.1885 12.9282 89.2607 12.9526C89.3329 12.9759 89.3999 13.0067 89.4614 13.045C89.4859 13.0354 89.5183 13.0232 89.5586 13.0083C89.599 12.9924 89.6425 12.9754 89.6892 12.9574C89.736 12.9382 89.7816 12.9197 89.8262 12.9016C89.8708 12.8825 89.9107 12.8655 89.9457 12.8506L89.9441 13.2106L89.659 13.2568C89.6707 13.2855 89.6797 13.3163 89.6861 13.3492C89.6924 13.3822 89.6956 13.4092 89.6956 13.4305C89.6956 13.526 89.6675 13.6153 89.6112 13.6981C89.556 13.7809 89.4726 13.8478 89.3611 13.8988C89.2506 13.9498 89.1136 13.9753 88.9501 13.9753C88.9299 13.9753 88.9028 13.9747 88.8689 13.9737C88.8359 13.9726 88.8089 13.971 88.7876 13.9689C88.725 13.9721 88.682 13.98 88.6586 13.9928C88.6352 14.0055 88.6235 14.0204 88.6235 14.0374C88.6235 14.0629 88.6474 14.0799 88.6952 14.0884C88.743 14.0958 88.8152 14.1027 88.9119 14.1091C88.9459 14.1112 88.9931 14.1139 89.0536 14.117C89.1142 14.1202 89.1811 14.1245 89.2544 14.1298C89.4561 14.1436 89.6064 14.1935 89.7052 14.2795C89.805 14.3645 89.8549 14.4717 89.8549 14.6013C89.8549 14.7553 89.7816 14.8822 89.6351 14.982C89.4896 15.0829 89.2698 15.1334 88.9756 15.1334ZM89.0505 14.8737C89.18 14.8737 89.2724 14.8578 89.3276 14.8259C89.3829 14.7941 89.4105 14.7484 89.4105 14.6889C89.4105 14.639 89.3892 14.5987 89.3468 14.5679C89.3043 14.536 89.2421 14.5174 89.1604 14.5121L88.7828 14.4866C88.734 14.4845 88.6904 14.4919 88.6522 14.5089C88.615 14.5259 88.5858 14.5493 88.5646 14.579C88.5444 14.6087 88.5343 14.6406 88.5343 14.6746C88.5343 14.7436 88.5763 14.7941 88.6602 14.8259C88.7441 14.8578 88.8742 14.8737 89.0505 14.8737ZM88.9628 13.7156C89.051 13.7156 89.1216 13.6917 89.1747 13.6439C89.2289 13.5951 89.256 13.5292 89.256 13.4464C89.256 13.3604 89.2289 13.2914 89.1747 13.2393C89.1216 13.1873 89.051 13.1613 88.9628 13.1613C88.8758 13.1613 88.8046 13.1873 88.7494 13.2393C88.6952 13.2914 88.6681 13.3604 88.6681 13.4464C88.6681 13.5282 88.6942 13.5935 88.7462 13.6423C88.7993 13.6912 88.8715 13.7156 88.9628 13.7156ZM90.555 13.8717C90.5539 13.9556 90.5672 14.0289 90.5948 14.0916C90.6224 14.1531 90.6622 14.2009 90.7143 14.2349C90.7674 14.2678 90.8311 14.2843 90.9054 14.2843C90.9851 14.2843 91.0546 14.2673 91.1141 14.2333C91.1746 14.1993 91.2166 14.1436 91.2399 14.0661H91.6589C91.6408 14.1829 91.5941 14.2827 91.5187 14.3655C91.4444 14.4484 91.3541 14.5116 91.2479 14.5551C91.1417 14.5987 91.0313 14.6204 90.9166 14.6204C90.7541 14.6204 90.6107 14.5864 90.4865 14.5185C90.3633 14.4494 90.2672 14.3523 90.1981 14.227C90.1291 14.1016 90.0946 13.954 90.0946 13.7841C90.0946 13.6195 90.1259 13.4714 90.1886 13.3397C90.2512 13.2069 90.342 13.1023 90.461 13.0259C90.581 12.9483 90.7249 12.9096 90.8927 12.9096C91.0605 12.9096 91.2012 12.9451 91.3148 13.0163C91.4295 13.0864 91.5155 13.1846 91.5729 13.311C91.6313 13.4363 91.6605 13.5813 91.6605 13.7459V13.8717H90.555ZM90.5534 13.5945H91.2256C91.2256 13.5287 91.2134 13.4682 91.189 13.4129C91.1645 13.3577 91.1274 13.3142 91.0775 13.2823C91.0286 13.2505 90.967 13.2345 90.8927 13.2345C90.8205 13.2345 90.7589 13.2521 90.7079 13.2871C90.658 13.3211 90.6198 13.3657 90.5932 13.4209C90.5667 13.4761 90.5534 13.534 90.5534 13.5945ZM93.5634 12.2851H94.0286V14.5886H93.6096L92.5152 13.0036V14.5886H92.0517V12.2851H92.5121L93.5634 13.8096V12.2851ZM94.9597 14.6204C94.8545 14.6204 94.76 14.6008 94.6761 14.5615C94.5922 14.5222 94.5258 14.4654 94.477 14.391C94.4281 14.3156 94.4037 14.2243 94.4037 14.117C94.4037 13.9365 94.4712 13.7995 94.606 13.7061C94.7409 13.6115 94.9538 13.5627 95.2448 13.5595L95.4503 13.5563V13.4576C95.4503 13.3822 95.428 13.3243 95.3834 13.2839C95.3399 13.2425 95.2719 13.2223 95.1795 13.2234C95.1115 13.2244 95.0467 13.2404 94.9852 13.2712C94.9246 13.302 94.8832 13.3556 94.8609 13.4321H94.4738C94.4802 13.3131 94.5147 13.2154 94.5774 13.139C94.64 13.0614 94.725 13.0041 94.8322 12.9669C94.9405 12.9287 95.0632 12.9096 95.2002 12.9096C95.3691 12.9096 95.5045 12.9308 95.6064 12.9733C95.7084 13.0147 95.7822 13.0747 95.8278 13.1533C95.8735 13.2308 95.8963 13.3232 95.8963 13.4305V14.5886H95.5076L95.4694 14.305C95.4131 14.424 95.3425 14.5063 95.2575 14.5519C95.1737 14.5976 95.0744 14.6204 94.9597 14.6204ZM95.1158 14.3146C95.1583 14.3146 95.1991 14.3071 95.2384 14.2923C95.2788 14.2763 95.3144 14.2556 95.3452 14.2301C95.377 14.2036 95.4025 14.1739 95.4216 14.1409C95.4407 14.108 95.4503 14.074 95.4503 14.039V13.7953L95.283 13.7984C95.2055 13.7995 95.1333 13.8091 95.0664 13.8271C94.9995 13.8441 94.9453 13.8723 94.9039 13.9115C94.8636 13.9508 94.8434 14.0039 94.8434 14.0708C94.8434 14.1473 94.8699 14.2073 94.923 14.2509C94.9761 14.2933 95.0404 14.3146 95.1158 14.3146ZM96.3081 14.5886V12.9414H96.7637V13.174C96.8136 13.1018 96.8805 13.0397 96.9644 12.9876C97.0494 12.9356 97.1561 12.9096 97.2846 12.9096C97.3409 12.9096 97.3982 12.9197 97.4566 12.9398C97.515 12.96 97.5697 12.9897 97.6207 13.029C97.6727 13.0673 97.7147 13.1156 97.7465 13.174C97.7996 13.0986 97.8692 13.0359 97.9552 12.986C98.0423 12.9351 98.1389 12.9096 98.2451 12.9096C98.3067 12.9096 98.3689 12.9197 98.4315 12.9398C98.4952 12.96 98.5537 12.9929 98.6067 13.0386C98.6598 13.0843 98.7023 13.1453 98.7342 13.2218C98.7671 13.2972 98.7836 13.3906 98.7836 13.5022V14.5886H98.3184V13.5595C98.3184 13.4937 98.3051 13.4411 98.2786 13.4018C98.2531 13.3614 98.2202 13.3328 98.1798 13.3158C98.1405 13.2977 98.0986 13.2887 98.054 13.2887C98.0126 13.2887 97.9706 13.2972 97.9281 13.3142C97.8857 13.3301 97.8496 13.3561 97.8198 13.3922C97.7901 13.4283 97.7752 13.4756 97.7752 13.534V14.5886H97.3117V13.5181C97.3117 13.4682 97.2984 13.4262 97.2718 13.3922C97.2453 13.3583 97.2118 13.3328 97.1715 13.3158C97.1322 13.2977 97.0918 13.2887 97.0504 13.2887C97.0079 13.2887 96.9655 13.2977 96.923 13.3158C96.8805 13.3328 96.8449 13.3598 96.8162 13.397C96.7876 13.4331 96.7732 13.4788 96.7732 13.534V14.5886H96.3081ZM99.5434 13.8717C99.5424 13.9556 99.5557 14.0289 99.5833 14.0916C99.6109 14.1531 99.6507 14.2009 99.7027 14.2349C99.7558 14.2678 99.8196 14.2843 99.8939 14.2843C99.9735 14.2843 100.043 14.2673 100.103 14.2333C100.163 14.1993 100.205 14.1436 100.228 14.0661H100.647C100.629 14.1829 100.583 14.2827 100.507 14.3655C100.433 14.4484 100.343 14.5116 100.236 14.5551C100.13 14.5987 100.02 14.6204 99.905 14.6204C99.7426 14.6204 99.5992 14.5864 99.4749 14.5185C99.3518 14.4494 99.2556 14.3523 99.1866 14.227C99.1176 14.1016 99.0831 13.954 99.0831 13.7841C99.0831 13.6195 99.1144 13.4714 99.1771 13.3397C99.2397 13.2069 99.3305 13.1023 99.4495 13.0259C99.5695 12.9483 99.7134 12.9096 99.8812 12.9096C100.049 12.9096 100.19 12.9451 100.303 13.0163C100.418 13.0864 100.504 13.1846 100.561 13.311C100.62 13.4363 100.649 13.5813 100.649 13.7459V13.8717H99.5434ZM99.5418 13.5945H100.214C100.214 13.5287 100.202 13.4682 100.177 13.4129C100.153 13.3577 100.116 13.3142 100.066 13.2823C100.017 13.2505 99.9555 13.2345 99.8812 13.2345C99.8089 13.2345 99.7473 13.2521 99.6964 13.2871C99.6465 13.3211 99.6082 13.3657 99.5817 13.4209C99.5551 13.4761 99.5418 13.534 99.5418 13.5945Z" fill="white"/>
<rect x="81" y="32" width="210" height="72" fill="#DEE2E6"/>
<g style="mix-blend-mode:color">
<rect width="320" height="120" fill="#808080"/>
</g>
<g style="mix-blend-mode:color">
<rect width="320" height="120" fill="#00284D"/>
</g>
<path d="M159.856 54.08H167.376V71.12H171.536V77.48H167.376V83H159.956L159.976 77.48H146.936V71.4L159.856 54.08ZM154.016 71.12H160.056V63.08L154.016 71.12ZM186.142 53.68C189.862 53.68 192.762 54.9933 194.842 57.62C196.935 60.2333 197.982 63.8933 197.982 68.6C197.982 73.28 196.955 76.9267 194.902 79.54C192.848 82.14 189.928 83.44 186.142 83.44C182.342 83.44 179.402 82.14 177.322 79.54C175.242 76.9267 174.202 73.28 174.202 68.6C174.202 65.4667 174.675 62.7867 175.622 60.56C176.582 58.3333 177.948 56.6333 179.722 55.46C181.508 54.2733 183.648 53.68 186.142 53.68ZM186.102 77.24C187.528 77.24 188.522 76.6 189.082 75.32C189.642 74.0267 189.922 71.8 189.922 68.64C189.922 65.3733 189.635 63.06 189.062 61.7C188.488 60.3267 187.502 59.64 186.102 59.64C184.688 59.64 183.688 60.3333 183.102 61.72C182.528 63.0933 182.242 65.4 182.242 68.64C182.242 71.7733 182.528 73.9933 183.102 75.3C183.675 76.5933 184.675 77.24 186.102 77.24ZM213.918 54.08H221.438V71.12H225.598V77.48H221.438V83H214.018L214.038 77.48H200.998V71.4L213.918 54.08ZM208.078 71.12H214.118V63.08L208.078 71.12Z" fill="#00203E"/>
</g>
<defs>
<clipPath id="clip0_1288_3644">
<rect width="320" height="120" fill="white"/>
</clipPath>
</defs>
</svg>
