<svg width="320" height="120" viewBox="0 0 320 120" fill="none" xmlns="http://www.w3.org/2000/svg">
<rect width="320" height="120" fill="#C0CEDB"/>
<path d="M158.755 29.7482H147.759V59.1165L173.358 52.596L158.755 29.7482ZM134.357 62.5311L134.719 62.4379V29.7482H113.963V59.0116C116.2 58.2191 118.583 57.8054 121.031 57.8054C125.943 57.8054 130.599 59.4719 134.357 62.5311ZM174.232 29.7482L186.672 49.2105L214.596 42.1015V29.7482H174.232ZM121.031 59.5535C115.845 59.5535 110.973 61.5696 107.308 65.2407C99.7388 72.81 99.7388 85.1225 107.308 92.6919C110.973 96.3571 115.851 98.3732 121.031 98.3732C126.217 98.3732 131.088 96.3571 134.753 92.6919C142.323 85.1225 142.323 72.81 134.753 65.2407C131.088 61.5755 126.211 59.5535 121.031 59.5535ZM131.822 89.7551C128.938 92.6394 125.11 94.2244 121.031 94.2244C116.952 94.2244 113.123 92.6394 110.239 89.7551C104.29 83.8056 104.29 74.1211 110.239 68.1717C113.123 65.2873 116.952 63.7023 121.031 63.7023C125.11 63.7023 128.938 65.2873 131.822 68.1717C137.772 74.1211 137.772 83.8056 131.822 89.7551ZM214.223 92.3248H214.59V55.5561L194.061 60.783L214.223 92.3248ZM147.759 72.5769V92.3248H198.746L180.758 64.1744L147.759 72.5769Z" fill="#DEE2E6"/>
<path d="M104.103 91.6663L86.0979 109.672L90.3225 113.896L108.328 95.8909C107.536 95.2966 106.778 94.644 106.067 93.9272C105.356 93.2105 104.704 92.4588 104.103 91.6663ZM130.582 69.407C128.029 66.8548 124.638 65.4504 121.025 65.4504C117.412 65.4504 114.021 66.8548 111.469 69.407C106.201 74.6747 106.201 83.2521 111.469 88.5197C114.021 91.072 117.412 92.4763 121.025 92.4763C124.638 92.4763 128.029 91.072 130.582 88.5197C135.855 83.2521 135.855 74.6805 130.582 69.407Z" fill="white"/>
<path d="M215.47 28H172.641C172.321 28 172.029 28.1748 171.872 28.4545C171.715 28.7342 171.732 29.078 171.901 29.346L185.536 50.6847C185.699 50.9411 185.979 51.0867 186.27 51.0867C186.34 51.0867 186.416 51.0809 186.486 51.0576L215.68 43.6223C216.064 43.5232 216.338 43.1736 216.338 42.7774V28.8682C216.344 28.3904 215.953 28 215.47 28ZM214.596 42.1015L186.673 49.2104L174.232 29.7481H214.596V42.1015ZM146.349 60.9344C146.507 61.0568 146.693 61.1209 146.885 61.1209C146.955 61.1209 147.031 61.1093 147.101 61.0918L174.96 54.0003C175.234 53.9303 175.455 53.738 175.555 53.4758C175.659 53.2136 175.63 52.9223 175.479 52.6834L159.967 28.4079C159.804 28.1573 159.53 28.0058 159.233 28.0058H146.885C146.402 28.0058 146.011 28.3962 146.011 28.8799V60.2468C146.011 60.5149 146.14 60.7713 146.349 60.9344ZM147.76 29.7481H158.755L173.358 52.6018L147.76 59.1222V29.7481ZM181.889 62.7059C181.685 62.3912 181.306 62.2339 180.939 62.3271L146.67 71.0502C146.285 71.1493 146.011 71.4989 146.011 71.8951V93.1988C146.011 93.6824 146.402 94.0729 146.885 94.0729H200.343C200.663 94.0729 200.955 93.898 201.112 93.6183C201.269 93.3386 201.252 92.9949 201.083 92.7268L181.889 62.7059ZM147.76 92.3248V72.5769L180.752 64.1743L198.74 92.3248H147.76ZM135.907 63.9237C136.239 63.7955 136.473 63.4808 136.473 63.1196V28.8741C136.473 28.3904 136.082 28 135.598 28H113.094C112.611 28 112.22 28.3904 112.22 28.8741V59.7224C109.965 60.7596 107.885 62.1931 106.073 64.0053C102.075 68.0026 99.8787 73.3169 99.8787 78.9633C99.8787 83.0014 101.009 86.8648 103.107 90.1979L84.2564 109.048C84.0932 109.211 84 109.433 84 109.666C84 109.899 84.0932 110.121 84.2564 110.284L89.7163 115.744C89.8853 115.913 90.1126 116 90.334 116C90.5554 116 90.7827 115.913 90.9517 115.744L109.802 96.8931C113.135 98.9909 116.999 100.121 121.037 100.121C126.642 100.121 131.91 97.9537 135.896 94.0204C136.146 93.9272 136.344 93.729 136.426 93.4727C140.144 89.5336 142.189 84.4058 142.189 78.9691C142.189 73.3169 139.986 68.0027 135.995 64.0111C135.96 63.9762 135.931 63.9528 135.907 63.9237ZM113.963 29.7481H134.719V62.4378L134.357 62.5311C130.599 59.4719 125.943 57.8053 121.031 57.8053C118.584 57.8053 116.206 58.219 113.963 59.0115V29.7481ZM90.3223 113.891L86.0977 109.666L104.103 91.6605C104.698 92.4529 105.35 93.2105 106.067 93.9214C106.778 94.6323 107.535 95.2849 108.328 95.8851L90.3223 113.891ZM134.754 92.6918C131.088 96.357 126.211 98.3732 121.031 98.3732C115.845 98.3732 110.973 96.357 107.308 92.6918C99.7388 85.1225 99.7388 72.81 107.308 65.2406C110.973 61.5754 115.851 59.5534 121.031 59.5534C126.217 59.5534 131.088 61.5696 134.754 65.2406C142.323 72.81 142.323 85.1225 134.754 92.6918ZM216.006 53.7439C215.79 53.5807 215.516 53.5224 215.254 53.5865L192.465 59.3903C192.191 59.4602 191.969 59.6525 191.87 59.9147C191.765 60.1769 191.794 60.4683 191.946 60.7072L213.011 93.6708C213.174 93.9214 213.448 94.0729 213.745 94.0729H215.47C215.953 94.0729 216.344 93.6824 216.344 93.1988V54.4315C216.344 54.1634 216.216 53.9129 216.006 53.7439ZM214.596 92.3248H214.229L194.073 60.783L214.602 55.5561V92.3248H214.596ZM121.031 63.7023C116.952 63.7023 113.124 65.2873 110.239 68.1716C104.29 74.1211 104.29 83.8056 110.239 89.755C113.124 92.6394 116.952 94.2243 121.031 94.2243C125.11 94.2243 128.938 92.6394 131.823 89.755C137.772 83.8056 137.772 74.1211 131.823 68.1716C128.938 65.2931 125.104 63.7023 121.031 63.7023ZM130.581 88.5197C128.029 91.0719 124.638 92.4762 121.025 92.4762C117.412 92.4762 114.021 91.0719 111.469 88.5197C106.201 83.252 106.201 74.6746 111.469 69.407C114.021 66.8547 117.412 65.4504 121.025 65.4504C124.638 65.4504 128.029 66.8547 130.581 69.407C135.855 74.6805 135.855 83.252 130.581 88.5197Z" fill="#6C757D"/>
<g style="mix-blend-mode:color">
<rect width="320" height="120" fill="#808080"/>
</g>
<g style="mix-blend-mode:color">
<rect width="320" height="120" fill="#00284D"/>
</g>
</svg>
