<svg width="320" height="120" viewBox="0 0 320 120" fill="none" xmlns="http://www.w3.org/2000/svg">
<rect width="320" height="120" fill="#C0CEDB"/>
<g filter="url(#filter0_ii)">
<rect x="90" y="40" width="140" height="40" rx="4" fill="white"/>
<path d="M114.812 58.875H114.156V56.9062C114.156 54.6367 112.27 52.75 110 52.75C107.703 52.75 105.844 54.6367 105.844 56.9062V58.875H105.188C104.449 58.875 103.875 59.4766 103.875 60.1875V65.4375C103.875 66.1758 104.449 66.75 105.188 66.75H114.812C115.523 66.75 116.125 66.1758 116.125 65.4375V60.1875C116.125 59.4766 115.523 58.875 114.812 58.875ZM111.969 58.875H108.031V56.9062C108.031 55.8398 108.906 54.9375 110 54.9375C111.066 54.9375 111.969 55.8398 111.969 56.9062V58.875Z" fill="black"/>
<path d="M134 55.4062C131.324 55.4062 129.156 57.5742 129.156 60.25C129.156 62.9258 131.324 65.0938 134 65.0938C136.676 65.0938 138.844 62.9258 138.844 60.25C138.844 57.5742 136.676 55.4062 134 55.4062Z" fill="black"/>
<path d="M150 55.4062C147.324 55.4062 145.156 57.5742 145.156 60.25C145.156 62.9258 147.324 65.0938 150 65.0938C152.676 65.0938 154.844 62.9258 154.844 60.25C154.844 57.5742 152.676 55.4062 150 55.4062Z" fill="black"/>
<path d="M166 55.4062C163.324 55.4062 161.156 57.5742 161.156 60.25C161.156 62.9258 163.324 65.0938 166 65.0938C168.676 65.0938 170.844 62.9258 170.844 60.25C170.844 57.5742 168.676 55.4062 166 55.4062Z" fill="black"/>
<path d="M182 55.4062C179.324 55.4062 177.156 57.5742 177.156 60.25C177.156 62.9258 179.324 65.0938 182 65.0938C184.676 65.0938 186.844 62.9258 186.844 60.25C186.844 57.5742 184.676 55.4062 182 55.4062Z" fill="black"/>
</g>
<g style="mix-blend-mode:color">
<rect width="320" height="120" fill="#808080"/>
</g>
<g style="mix-blend-mode:color">
<rect width="320" height="120" fill="#00284D"/>
</g>
<defs>
<filter id="filter0_ii" x="90" y="40" width="140" height="41" filterUnits="userSpaceOnUse" color-interpolation-filters="sRGB">
<feFlood flood-opacity="0" result="BackgroundImageFix"/>
<feBlend mode="normal" in="SourceGraphic" in2="BackgroundImageFix" result="shape"/>
<feColorMatrix in="SourceAlpha" type="matrix" values="0 0 0 0 0 0 0 0 0 0 0 0 0 0 0 0 0 0 127 0" result="hardAlpha"/>
<feOffset dy="-2"/>
<feComposite in2="hardAlpha" operator="arithmetic" k2="-1" k3="1"/>
<feColorMatrix type="matrix" values="0 0 0 0 0.423529 0 0 0 0 0.458824 0 0 0 0 0.490196 0 0 0 1 0"/>
<feBlend mode="normal" in2="shape" result="effect1_innerShadow"/>
<feColorMatrix in="SourceAlpha" type="matrix" values="0 0 0 0 0 0 0 0 0 0 0 0 0 0 0 0 0 0 127 0" result="hardAlpha"/>
<feOffset dy="1"/>
<feGaussianBlur stdDeviation="0.5"/>
<feComposite in2="hardAlpha" operator="arithmetic" k2="-1" k3="1"/>
<feColorMatrix type="matrix" values="0 0 0 0 0.741176 0 0 0 0 0.756863 0 0 0 0 0.772549 0 0 0 1 0"/>
<feBlend mode="normal" in2="effect1_innerShadow" result="effect2_innerShadow"/>
</filter>
</defs>
</svg>
