<svg width="320" height="120" viewBox="0 0 320 120" fill="none" xmlns="http://www.w3.org/2000/svg">
<rect width="320" height="120" fill="#C0CEDB"/>
<rect width="280" height="43.4766" transform="translate(20 38)" fill="#00284D"/>
<g filter="url(#filter0_d)">
<path d="M201.32 64.25C201.32 63.0419 202.3 62.0625 203.508 62.0625H234.977C236.185 62.0625 237.164 63.0419 237.164 64.25V71.25C237.164 72.4581 236.185 73.4375 234.977 73.4375H203.508C202.3 73.4375 201.32 72.4581 201.32 71.25V64.25Z" fill="white"/>
<path d="M206.22 69.25H207.27C208.078 69.25 208.487 68.9722 208.487 68.3991C208.487 68.0425 208.32 67.745 207.822 67.6378C208.255 67.4847 208.408 67.2462 208.408 66.9116C208.408 66.3778 208.005 66.0869 207.238 66.0869H206.22V69.25ZM206.625 67.4781V66.4216H207.257C207.706 66.4216 208.016 66.5944 208.016 66.9619C208.016 67.3622 207.642 67.4781 207.314 67.4781H206.625ZM206.625 68.9131V67.8216H207.314C207.739 67.8216 208.075 67.9856 208.075 68.3816C208.075 68.7425 207.793 68.9131 207.266 68.9131H206.625ZM209.904 69.2938C210.223 69.2959 210.499 69.1559 210.582 68.8169L210.623 69.25H210.945V66.9881H210.543V68.4603C210.543 68.8037 210.322 68.9787 209.989 68.9787C209.619 68.9787 209.44 68.7775 209.44 68.4822V66.9881H209.035V68.5237C209.035 69.0334 209.433 69.2894 209.904 69.2938ZM212.761 67.2834V66.9859H212.251V66.3297H211.954L211.855 66.9881H211.477V67.2834H211.844V68.7031C211.844 69.0662 211.969 69.2609 212.439 69.2609C212.604 69.2609 212.717 69.2456 212.774 69.2237V68.9525H212.527C212.315 68.9525 212.251 68.9306 212.251 68.69V67.2834H212.761ZM214.244 67.2834V66.9859H213.734V66.3297H213.436L213.338 66.9881H212.959V67.2834H213.327V68.7031C213.327 69.0662 213.452 69.2609 213.922 69.2609C214.086 69.2609 214.2 69.2456 214.257 69.2237V68.9525H214.009C213.797 68.9525 213.734 68.9306 213.734 68.69V67.2834H214.244ZM215.639 69.2938C216.313 69.2938 216.669 68.8191 216.669 68.1278C216.669 67.3666 216.265 66.9444 215.641 66.9444C214.972 66.9444 214.602 67.4191 214.602 68.1278C214.602 68.8825 215.011 69.2938 215.639 69.2938ZM215.641 68.9744C215.189 68.9744 215.005 68.5959 215.005 68.1191C215.005 67.5809 215.23 67.2616 215.641 67.2616C216.085 67.2616 216.269 67.6356 216.269 68.1191C216.269 68.6506 216.046 68.9744 215.641 68.9744ZM217.207 69.25H217.61V67.7384C217.61 67.4344 217.89 67.29 218.196 67.29C218.491 67.29 218.695 67.4584 218.695 67.8106V69.25H219.099V67.7712C219.099 67.2025 218.736 66.9553 218.308 66.9553C217.944 66.9553 217.71 67.1281 217.599 67.3162V66.9881H217.207V69.25ZM219.003 66.4587H220.024V69.25H220.431V66.4587H221.396V66.0869H219.003V66.4587ZM221.829 68.2131H223.449V68.0644C223.449 67.3775 223.095 66.9444 222.459 66.9444C221.8 66.9444 221.419 67.4278 221.419 68.1409C221.419 68.8628 221.855 69.2938 222.487 69.2938C222.927 69.2938 223.351 69.0509 223.434 68.5894H223.054C222.997 68.8453 222.769 68.9809 222.48 68.9809C222.041 68.9809 221.829 68.6419 221.829 68.2131ZM221.831 67.9397C221.829 67.6028 222.03 67.2506 222.456 67.2506C222.865 67.2506 223.06 67.5503 223.06 67.9397H221.831ZM225.852 69.25L224.982 68.0753L225.787 66.9881H225.345L224.757 67.7822L224.168 66.9881H223.728L224.529 68.0753L223.658 69.25H224.1L224.754 68.3641L225.413 69.25H225.852ZM227.373 67.2834V66.9859H226.863V66.3297H226.566L226.467 66.9881H226.089V67.2834H226.456V68.7031C226.456 69.0662 226.581 69.2609 227.051 69.2609C227.215 69.2609 227.329 69.2456 227.386 69.2237V68.9525H227.139C226.927 68.9525 226.863 68.9306 226.863 68.69V67.2834H227.373Z" fill="#00284D"/>
<path d="M230.499 65.9944C230.413 66.0798 230.422 66.208 230.499 66.2935L231.532 67.2676H229.08C228.96 67.2676 228.875 67.3616 228.875 67.4727V67.7461C228.875 67.8657 228.96 67.9512 229.08 67.9512H231.532L230.499 68.9338C230.422 69.0193 230.422 69.1475 230.499 69.2329L230.687 69.4209C230.772 69.4978 230.9 69.4978 230.977 69.4209L232.643 67.7546C232.72 67.6777 232.72 67.5496 232.643 67.4641L230.977 65.8064C230.9 65.7295 230.772 65.7295 230.687 65.8064L230.499 65.9944Z" fill="#00284D"/>
</g>
<g filter="url(#filter1_d)">
<path d="M239.352 64.25C239.352 63.0419 240.331 62.0625 241.539 62.0625H273.008C274.216 62.0625 275.195 63.0419 275.195 64.25V71.25C275.195 72.4581 274.216 73.4375 273.008 73.4375H241.539C240.331 73.4375 239.352 72.4581 239.352 71.25V64.25Z" fill="white"/>
<path d="M244.252 69.25H245.302C246.109 69.25 246.518 68.9722 246.518 68.3991C246.518 68.0425 246.352 67.745 245.853 67.6378C246.286 67.4847 246.439 67.2462 246.439 66.9116C246.439 66.3778 246.037 66.0869 245.269 66.0869H244.252V69.25ZM244.656 67.4781V66.4216H245.289C245.737 66.4216 246.048 66.5944 246.048 66.9619C246.048 67.3622 245.674 67.4781 245.345 67.4781H244.656ZM244.656 68.9131V67.8216H245.345C245.77 67.8216 246.107 67.9856 246.107 68.3816C246.107 68.7425 245.825 68.9131 245.297 68.9131H244.656ZM247.935 69.2938C248.254 69.2959 248.53 69.1559 248.613 68.8169L248.655 69.25H248.976V66.9881H248.574V68.4603C248.574 68.8037 248.353 68.9787 248.02 68.9787C247.651 68.9787 247.471 68.7775 247.471 68.4822V66.9881H247.067V68.5237C247.067 69.0334 247.465 69.2894 247.935 69.2938ZM250.792 67.2834V66.9859H250.283V66.3297H249.985L249.887 66.9881H249.508V67.2834H249.876V68.7031C249.876 69.0662 250 69.2609 250.471 69.2609C250.635 69.2609 250.749 69.2456 250.805 69.2237V68.9525H250.558C250.346 68.9525 250.283 68.9306 250.283 68.69V67.2834H250.792ZM252.275 67.2834V66.9859H251.765V66.3297H251.468L251.369 66.9881H250.991V67.2834H251.358V68.7031C251.358 69.0662 251.483 69.2609 251.953 69.2609C252.117 69.2609 252.231 69.2456 252.288 69.2237V68.9525H252.041C251.829 68.9525 251.765 68.9306 251.765 68.69V67.2834H252.275ZM253.67 69.2938C254.344 69.2938 254.701 68.8191 254.701 68.1278C254.701 67.3666 254.296 66.9444 253.673 66.9444C253.003 66.9444 252.634 67.4191 252.634 68.1278C252.634 68.8825 253.043 69.2938 253.67 69.2938ZM253.673 68.9744C253.22 68.9744 253.036 68.5959 253.036 68.1191C253.036 67.5809 253.261 67.2616 253.673 67.2616C254.117 67.2616 254.3 67.6356 254.3 68.1191C254.3 68.6506 254.077 68.9744 253.673 68.9744ZM255.239 69.25H255.641V67.7384C255.641 67.4344 255.921 67.29 256.227 67.29C256.523 67.29 256.726 67.4584 256.726 67.8106V69.25H257.131V67.7712C257.131 67.2025 256.768 66.9553 256.339 66.9553C255.976 66.9553 255.742 67.1281 255.63 67.3162V66.9881H255.239V69.25ZM257.034 66.4587H258.055V69.25H258.462V66.4587H259.427V66.0869H257.034V66.4587ZM259.86 68.2131H261.481V68.0644C261.481 67.3775 261.126 66.9444 260.49 66.9444C259.831 66.9444 259.451 67.4278 259.451 68.1409C259.451 68.8628 259.886 69.2938 260.518 69.2938C260.958 69.2938 261.382 69.0509 261.465 68.5894H261.085C261.028 68.8453 260.8 68.9809 260.512 68.9809C260.072 68.9809 259.86 68.6419 259.86 68.2131ZM259.862 67.9397C259.86 67.6028 260.061 67.2506 260.488 67.2506C260.897 67.2506 261.091 67.5503 261.091 67.9397H259.862ZM263.884 69.25L263.013 68.0753L263.818 66.9881H263.376L262.788 67.7822L262.199 66.9881H261.76L262.56 68.0753L261.69 69.25H262.132L262.786 68.3641L263.444 69.25H263.884ZM265.404 67.2834V66.9859H264.894V66.3297H264.597L264.498 66.9881H264.12V67.2834H264.488V68.7031C264.488 69.0662 264.612 69.2609 265.083 69.2609C265.247 69.2609 265.36 69.2456 265.417 69.2237V68.9525H265.17C264.958 68.9525 264.894 68.9306 264.894 68.69V67.2834H265.404Z" fill="#00284D"/>
<path d="M268.53 65.9944C268.444 66.0798 268.453 66.208 268.53 66.2935L269.564 67.2676H267.111C266.992 67.2676 266.906 67.3616 266.906 67.4727V67.7461C266.906 67.8657 266.992 67.9512 267.111 67.9512H269.564L268.53 68.9338C268.453 69.0193 268.453 69.1475 268.53 69.2329L268.718 69.4209C268.803 69.4978 268.931 69.4978 269.008 69.4209L270.675 67.7546C270.751 67.6777 270.751 67.5496 270.675 67.4641L269.008 65.8064C268.931 65.7295 268.803 65.7295 268.718 65.8064L268.53 65.9944Z" fill="#00284D"/>
</g>
<path d="M44.71 64.2712H45.7316V67.0625H46.1384V64.2712H47.1031V63.8994H44.71V64.2712ZM47.5417 67.0625H47.9442V65.5531C47.9442 65.2491 48.2198 65.1025 48.5261 65.1025C48.8236 65.1025 49.027 65.2578 49.027 65.5269V67.0625H49.4317V65.4459C49.4317 65.0325 49.0839 64.7722 48.642 64.7722C48.2789 64.7722 48.0492 64.9472 47.9355 65.1331V63.8119H47.5417V67.0625ZM50.4759 63.9016H50.0625V64.3216H50.4759V63.9016ZM50.465 64.8006H50.0734V67.0625H50.465V64.8006ZM51.9572 67.1063C52.5084 67.1063 52.8278 66.8503 52.8278 66.4347C52.8278 66.2116 52.714 65.9359 52.2984 65.8266L51.8434 65.7128C51.594 65.6516 51.4628 65.5706 51.4628 65.4087C51.4628 65.1681 51.6618 65.0544 51.9506 65.0544C52.2306 65.0544 52.3968 65.19 52.4275 65.4066H52.7862C52.7709 64.9822 52.445 64.7569 51.955 64.7569C51.3818 64.7569 51.0909 65.0369 51.0931 65.4328C51.0953 65.7697 51.3293 65.9425 51.6947 66.03L52.1628 66.1459C52.3684 66.1941 52.4647 66.2903 52.4647 66.4566C52.4647 66.6928 52.2612 66.8044 51.955 66.8044C51.6684 66.8044 51.4409 66.6687 51.384 66.4041H51.0165C51.0822 66.8919 51.4847 67.1063 51.9572 67.1063ZM54.821 63.9016H54.4076V64.3216H54.821V63.9016ZM54.8101 64.8006H54.4185V67.0625H54.8101V64.8006ZM56.3022 67.1063C56.8535 67.1063 57.1729 66.8503 57.1729 66.4347C57.1729 66.2116 57.0591 65.9359 56.6435 65.8266L56.1885 65.7128C55.9391 65.6516 55.8079 65.5706 55.8079 65.4087C55.8079 65.1681 56.0069 65.0544 56.2957 65.0544C56.5757 65.0544 56.7419 65.19 56.7726 65.4066H57.1313C57.116 64.9822 56.7901 64.7569 56.3001 64.7569C55.7269 64.7569 55.436 65.0369 55.4382 65.4328C55.4404 65.7697 55.6744 65.9425 56.0397 66.03L56.5079 66.1459C56.7135 66.1941 56.8097 66.2903 56.8097 66.4566C56.8097 66.6928 56.6063 66.8044 56.3001 66.8044C56.0135 66.8044 55.786 66.6687 55.7291 66.4041H55.3616C55.4272 66.8919 55.8297 67.1063 56.3022 67.1063ZM59.5664 67.1063C60.1177 67.1063 60.437 66.8503 60.437 66.4347C60.437 66.2116 60.3233 65.9359 59.9077 65.8266L59.4527 65.7128C59.2033 65.6516 59.072 65.5706 59.072 65.4087C59.072 65.1681 59.2711 65.0544 59.5598 65.0544C59.8398 65.0544 60.0061 65.19 60.0367 65.4066H60.3955C60.3802 64.9822 60.0542 64.7569 59.5642 64.7569C58.9911 64.7569 58.7002 65.0369 58.7023 65.4328C58.7045 65.7697 58.9386 65.9425 59.3039 66.03L59.772 66.1459C59.9777 66.1941 60.0739 66.2903 60.0739 66.4566C60.0739 66.6928 59.8705 66.8044 59.5642 66.8044C59.2777 66.8044 59.0502 66.6687 58.9933 66.4041H58.6258C58.6914 66.8919 59.0939 67.1063 59.5664 67.1063ZM60.9701 67.0625H61.3726V65.5509C61.3726 65.2337 61.6504 65.1003 61.8823 65.1003C62.0923 65.1003 62.3416 65.2359 62.3416 65.505V67.0625H62.7441V65.5509C62.7441 65.2075 63.0394 65.1003 63.2516 65.1003C63.4901 65.1003 63.7154 65.2141 63.7154 65.6231V67.0625H64.1223V65.5837C64.1223 64.9144 63.7044 64.7569 63.3851 64.7569C63.0854 64.7569 62.836 64.9056 62.696 65.1266C62.5779 64.8859 62.2913 64.7569 62.0441 64.7569C61.6919 64.7569 61.4841 64.9297 61.3594 65.1287V64.8006H60.9701V67.0625ZM65.3813 67.1063C65.705 67.1063 65.9829 66.9903 66.1579 66.6381L66.1885 67.0625H66.5341V65.4831C66.5341 65.0106 66.241 64.7569 65.6525 64.7569C65.1035 64.7569 64.7666 64.9997 64.7425 65.4394H65.0991C65.1538 65.1703 65.3725 65.0566 65.6329 65.0544C65.9807 65.0544 66.1425 65.2294 66.1425 65.505V65.6822L65.74 65.6931C64.9657 65.7106 64.6354 65.9491 64.6354 66.45C64.6354 66.8634 64.9416 67.1063 65.3813 67.1063ZM65.5016 66.8153C65.2238 66.8153 65.0269 66.6666 65.0269 66.4106C65.0269 66.0759 65.2872 65.9469 65.8079 65.9381L66.1425 65.9316V66.3187C66.1425 66.5703 65.8057 66.8153 65.5016 66.8153ZM67.7361 67.0909C67.7929 67.0909 67.8717 67.0778 67.9395 67.0559V66.7934L67.817 66.7912C67.6573 66.7803 67.5633 66.6709 67.5633 66.4412V63.8119H67.1651V66.4806C67.1651 66.7978 67.2483 67.0909 67.7361 67.0909ZM68.9964 67.0909C69.0533 67.0909 69.1321 67.0778 69.1999 67.0559V66.7934L69.0774 66.7912C68.9177 66.7803 68.8236 66.6709 68.8236 66.4412V63.8119H68.4255V66.4806C68.4255 66.7978 68.5086 67.0909 68.9964 67.0909ZM69.9364 66.0256H71.5573V65.8769C71.5573 65.19 71.2029 64.7569 70.5664 64.7569C69.9079 64.7569 69.5273 65.2403 69.5273 65.9534C69.5273 66.6753 69.9626 67.1063 70.5948 67.1063C71.0345 67.1063 71.4589 66.8634 71.542 66.4019H71.1614C71.1045 66.6578 70.877 66.7934 70.5883 66.7934C70.1486 66.7934 69.9364 66.4544 69.9364 66.0256ZM69.9386 65.7522C69.9364 65.4153 70.1376 65.0631 70.5642 65.0631C70.9733 65.0631 71.1679 65.3628 71.1679 65.7522H69.9386ZM72.1169 67.0625H72.5194V65.6559C72.5194 65.2797 72.8125 65.1266 73.1735 65.1506C73.2194 65.1506 73.3004 65.1572 73.3441 65.1769V64.7853C73.3069 64.7656 73.2369 64.7569 73.1713 64.7569C72.8847 64.7569 72.6157 64.91 72.5019 65.2359V64.8006H72.1169V67.0625ZM76.0404 65.0959V64.7984H75.5307V64.1422H75.2332L75.1347 64.8006H74.7563V65.0959H75.1238V66.5156C75.1238 66.8787 75.2485 67.0734 75.7188 67.0734C75.8829 67.0734 75.9966 67.0581 76.0535 67.0362V66.765H75.8063C75.5941 66.765 75.5307 66.7431 75.5307 66.5025V65.0959H76.0404ZM76.8279 66.0256H78.4488V65.8769C78.4488 65.19 78.0944 64.7569 77.4579 64.7569C76.7994 64.7569 76.4188 65.2403 76.4188 65.9534C76.4188 66.6753 76.8541 67.1063 77.4863 67.1063C77.926 67.1063 78.3504 66.8634 78.4335 66.4019H78.0529C77.996 66.6578 77.7685 66.7934 77.4797 66.7934C77.0401 66.7934 76.8279 66.4544 76.8279 66.0256ZM76.8301 65.7522C76.8279 65.4153 77.0291 65.0631 77.4557 65.0631C77.8647 65.0631 78.0594 65.3628 78.0594 65.7522H76.8301ZM80.8518 67.0625L79.9811 65.8878L80.7861 64.8006H80.3443L79.7558 65.5947L79.1674 64.8006H78.7277L79.5283 65.8878L78.6577 67.0625H79.0996L79.7536 66.1766L80.4121 67.0625H80.8518ZM82.3722 65.0959V64.7984H81.8625V64.1422H81.565L81.4665 64.8006H81.0881V65.0959H81.4556V66.5156C81.4556 66.8787 81.5803 67.0734 82.0506 67.0734C82.2147 67.0734 82.3284 67.0581 82.3853 67.0362V66.765H82.1381C81.9259 66.765 81.8625 66.7431 81.8625 66.5025V65.0959H82.3722ZM86.9331 64.8006H86.5547L86.0581 66.5353H86.0231L85.4937 64.8006H85.1875L84.6778 66.5397H84.6428L84.1265 64.8006H83.7503L84.4503 67.0625H84.844L85.3362 65.3934L85.8503 67.0625H86.2484L86.9331 64.8006ZM87.3952 67.0625H87.7977V65.5531C87.7977 65.2491 88.0734 65.1025 88.3796 65.1025C88.6771 65.1025 88.8805 65.2578 88.8805 65.5269V67.0625H89.2852V65.4459C89.2852 65.0325 88.9374 64.7722 88.4955 64.7722C88.1324 64.7722 87.9027 64.9472 87.789 65.1331V63.8119H87.3952V67.0625ZM90.3294 63.9016H89.916V64.3216H90.3294V63.9016ZM90.3185 64.8006H89.9269V67.0625H90.3185V64.8006ZM91.9069 64.7569C91.2397 64.7569 90.8657 65.2359 90.8657 65.9403C90.8657 66.6994 91.2944 67.1063 91.9069 67.1063C92.386 67.1063 92.7535 66.8197 92.8125 66.3647H92.4604C92.421 66.5922 92.2241 66.7978 91.9135 66.7978C91.4804 66.7978 91.2529 66.4587 91.2529 65.9359C91.2529 65.3584 91.5219 65.0828 91.9091 65.0828C92.2197 65.0828 92.4166 65.2775 92.456 65.5159H92.8147C92.7535 65.0544 92.3925 64.7569 91.9069 64.7569ZM93.3468 67.0625H93.7493V65.5531C93.7493 65.2491 94.0249 65.1025 94.3311 65.1025C94.6286 65.1025 94.8321 65.2578 94.8321 65.5269V67.0625H95.2368V65.4459C95.2368 65.0325 94.889 64.7722 94.4471 64.7722C94.084 64.7722 93.8543 64.9472 93.7405 65.1331V63.8119H93.3468V67.0625ZM97.1733 66.0256H98.7943V65.8769C98.7943 65.19 98.4399 64.7569 97.8033 64.7569C97.1449 64.7569 96.7643 65.2403 96.7643 65.9534C96.7643 66.6753 97.1996 67.1063 97.8318 67.1063C98.2715 67.1063 98.6958 66.8634 98.779 66.4019H98.3983C98.3415 66.6578 98.114 66.7934 97.8252 66.7934C97.3855 66.7934 97.1733 66.4544 97.1733 66.0256ZM97.1755 65.7522C97.1733 65.4153 97.3746 65.0631 97.8011 65.0631C98.2102 65.0631 98.4049 65.3628 98.4049 65.7522H97.1755ZM101.197 67.0625L100.327 65.8878L101.132 64.8006H100.69L100.101 65.5947L99.5129 64.8006H99.0732L99.8738 65.8878L99.0032 67.0625H99.445L100.099 66.1766L100.758 67.0625H101.197ZM101.67 67.7669H102.076V66.6534C102.17 66.8459 102.383 67.1063 102.787 67.1063C103.382 67.1063 103.737 66.6775 103.737 65.9009C103.737 65.1222 103.36 64.7569 102.82 64.7569C102.405 64.7569 102.179 65.0084 102.076 65.1944L102.072 64.8006H101.67V67.7669ZM102.711 66.7912C102.291 66.7912 102.072 66.4019 102.072 65.9141C102.072 65.4153 102.291 65.0719 102.711 65.0719C103.124 65.0719 103.345 65.4 103.345 65.9141C103.345 66.5156 103.083 66.7912 102.711 66.7912ZM104.847 67.0909C104.904 67.0909 104.982 67.0778 105.05 67.0559V66.7934L104.928 66.7912C104.768 66.7803 104.674 66.6709 104.674 66.4412V63.8119H104.276V66.4806C104.276 66.7978 104.359 67.0909 104.847 67.0909ZM106.213 67.1063C106.537 67.1063 106.815 66.9903 106.99 66.6381L107.02 67.0625H107.366V65.4831C107.366 65.0106 107.073 64.7569 106.484 64.7569C105.935 64.7569 105.599 64.9997 105.574 65.4394H105.931C105.986 65.1703 106.204 65.0566 106.465 65.0544C106.813 65.0544 106.974 65.2294 106.974 65.505V65.6822L106.572 65.6931C105.798 65.7106 105.467 65.9491 105.467 66.45C105.467 66.8634 105.774 67.1063 106.213 67.1063ZM106.334 66.8153C106.056 66.8153 105.859 66.6666 105.859 66.4106C105.859 66.0759 106.119 65.9469 106.64 65.9381L106.974 65.9316V66.3187C106.974 66.5703 106.638 66.8153 106.334 66.8153ZM108.41 63.9016H107.997V64.3216H108.41V63.9016ZM108.4 64.8006H108.008V67.0625H108.4V64.8006ZM109.108 67.0625H109.51V65.5509C109.51 65.2469 109.79 65.1025 110.097 65.1025C110.392 65.1025 110.595 65.2709 110.595 65.6231V67.0625H111V65.5837C111 65.015 110.637 64.7678 110.208 64.7678C109.845 64.7678 109.611 64.9406 109.499 65.1287V64.8006H109.108V67.0625ZM112.425 67.1063C112.977 67.1063 113.296 66.8503 113.296 66.4347C113.296 66.2116 113.182 65.9359 112.767 65.8266L112.312 65.7128C112.062 65.6516 111.931 65.5706 111.931 65.4087C111.931 65.1681 112.13 65.0544 112.419 65.0544C112.699 65.0544 112.865 65.19 112.896 65.4066H113.254C113.239 64.9822 112.913 64.7569 112.423 64.7569C111.85 64.7569 111.559 65.0369 111.561 65.4328C111.563 65.7697 111.797 65.9425 112.163 66.03L112.631 66.1459C112.837 66.1941 112.933 66.2903 112.933 66.4566C112.933 66.6928 112.729 66.8044 112.423 66.8044C112.137 66.8044 111.909 66.6687 111.852 66.4041H111.485C111.55 66.8919 111.953 67.1063 112.425 67.1063ZM116.026 65.0959V64.7984H115.517V64.1422H115.219L115.121 64.8006H114.742V65.0959H115.11V66.5156C115.11 66.8787 115.234 67.0734 115.705 67.0734C115.869 67.0734 115.983 67.0581 116.039 67.0362V66.765H115.792C115.58 66.765 115.517 66.7431 115.517 66.5025V65.0959H116.026ZM116.576 67.0625H116.979V65.5531C116.979 65.2491 117.254 65.1025 117.561 65.1025C117.858 65.1025 118.061 65.2578 118.061 65.5269V67.0625H118.466V65.4459C118.466 65.0325 118.118 64.7722 117.676 64.7722C117.313 64.7722 117.084 64.9472 116.97 65.1331V63.8119H116.576V67.0625ZM119.51 63.9016H119.097V64.3216H119.51V63.9016ZM119.499 64.8006H119.108V67.0625H119.499V64.8006ZM120.992 67.1063C121.543 67.1063 121.862 66.8503 121.862 66.4347C121.862 66.2116 121.748 65.9359 121.333 65.8266L120.878 65.7128C120.628 65.6516 120.497 65.5706 120.497 65.4087C120.497 65.1681 120.696 65.0544 120.985 65.0544C121.265 65.0544 121.431 65.19 121.462 65.4066H121.821C121.805 64.9822 121.479 64.7569 120.989 64.7569C120.416 64.7569 120.125 65.0369 120.128 65.4328C120.13 65.7697 120.364 65.9425 120.729 66.03L121.197 66.1459C121.403 66.1941 121.499 66.2903 121.499 66.4566C121.499 66.6928 121.296 66.8044 120.989 66.8044C120.703 66.8044 120.475 66.6687 120.418 66.4041H120.051C120.117 66.8919 120.519 67.1063 120.992 67.1063ZM124.56 67.1063C125.196 67.1063 125.516 66.6359 125.516 65.9228C125.516 65.155 125.155 64.7569 124.59 64.7569C124.159 64.7569 123.923 65.0128 123.849 65.1594V63.8119H123.442V67.0625H123.75L123.794 66.5987C123.851 66.7759 124.03 67.1063 124.56 67.1063ZM124.488 66.7956C124.03 66.7956 123.849 66.5353 123.849 65.9031C123.855 65.3737 124.03 65.0719 124.479 65.0719C124.89 65.0719 125.109 65.3759 125.109 65.9031C125.109 66.5244 124.853 66.7956 124.488 66.7956ZM126.623 67.0909C126.68 67.0909 126.759 67.0778 126.827 67.0559V66.7934L126.704 66.7912C126.545 66.7803 126.451 66.6709 126.451 66.4412V63.8119H126.052V66.4806C126.052 66.7978 126.136 67.0909 126.623 67.0909ZM128.171 67.1063C128.845 67.1063 129.202 66.6316 129.202 65.9403C129.202 65.1791 128.797 64.7569 128.174 64.7569C127.504 64.7569 127.135 65.2316 127.135 65.9403C127.135 66.695 127.544 67.1063 128.171 67.1063ZM128.174 66.7869C127.721 66.7869 127.537 66.4084 127.537 65.9316C127.537 65.3934 127.762 65.0741 128.174 65.0741C128.618 65.0741 128.801 65.4481 128.801 65.9316C128.801 66.4631 128.578 66.7869 128.174 66.7869ZM130.65 64.7569C129.982 64.7569 129.608 65.2359 129.608 65.9403C129.608 66.6994 130.037 67.1063 130.65 67.1063C131.129 67.1063 131.496 66.8197 131.555 66.3647H131.203C131.164 66.5922 130.967 66.7978 130.656 66.7978C130.223 66.7978 129.996 66.4587 129.996 65.9359C129.996 65.3584 130.265 65.0828 130.652 65.0828C130.962 65.0828 131.159 65.2775 131.199 65.5159H131.557C131.496 65.0544 131.135 64.7569 130.65 64.7569ZM134.076 67.0625L133.203 65.6625L134.019 64.8006H133.555L132.492 65.9316V63.8119H132.089V67.0625H132.492V66.3887L132.938 65.9272L133.647 67.0625H134.076ZM134.452 67.0625H134.933V66.5462H134.452V67.0625ZM136.329 64.2712H137.35V67.0625H137.757V64.2712H138.722V63.8994H136.329V64.2712ZM139.16 67.0625H139.563V65.5531C139.563 65.2491 139.838 65.1025 140.145 65.1025C140.442 65.1025 140.646 65.2578 140.646 65.5269V67.0625H141.05V65.4459C141.05 65.0325 140.703 64.7722 140.261 64.7722C139.898 64.7722 139.668 64.9472 139.554 65.1331V63.8119H139.16V67.0625ZM142.095 63.9016H141.681V64.3216H142.095V63.9016ZM142.084 64.8006H141.692V67.0625H142.084V64.8006ZM143.576 67.1063C144.127 67.1063 144.446 66.8503 144.446 66.4347C144.446 66.2116 144.333 65.9359 143.917 65.8266L143.462 65.7128C143.213 65.6516 143.081 65.5706 143.081 65.4087C143.081 65.1681 143.28 65.0544 143.569 65.0544C143.849 65.0544 144.015 65.19 144.046 65.4066H144.405C144.39 64.9822 144.064 64.7569 143.574 64.7569C143 64.7569 142.71 65.0369 142.712 65.4328C142.714 65.7697 142.948 65.9425 143.313 66.03L143.781 66.1459C143.987 66.1941 144.083 66.2903 144.083 66.4566C144.083 66.6928 143.88 66.8044 143.574 66.8044C143.287 66.8044 143.06 66.6687 143.003 66.4041H142.635C142.701 66.8919 143.103 67.1063 143.576 67.1063ZM146.44 63.9016H146.026V64.3216H146.44V63.9016ZM146.429 64.8006H146.037V67.0625H146.429V64.8006ZM147.921 67.1063C148.472 67.1063 148.792 66.8503 148.792 66.4347C148.792 66.2116 148.678 65.9359 148.262 65.8266L147.807 65.7128C147.558 65.6516 147.427 65.5706 147.427 65.4087C147.427 65.1681 147.626 65.0544 147.914 65.0544C148.194 65.0544 148.361 65.19 148.391 65.4066H148.75C148.735 64.9822 148.409 64.7569 147.919 64.7569C147.346 64.7569 147.055 65.0369 147.057 65.4328C147.059 65.7697 147.293 65.9425 147.658 66.03L148.127 66.1459C148.332 66.1941 148.428 66.2903 148.428 66.4566C148.428 66.6928 148.225 66.8044 147.919 66.8044C147.632 66.8044 147.405 66.6687 147.348 66.4041H146.98C147.046 66.8919 147.448 67.1063 147.921 67.1063ZM151.185 67.1063C151.736 67.1063 152.056 66.8503 152.056 66.4347C152.056 66.2116 151.942 65.9359 151.526 65.8266L151.071 65.7128C150.822 65.6516 150.691 65.5706 150.691 65.4087C150.691 65.1681 150.89 65.0544 151.178 65.0544C151.458 65.0544 151.625 65.19 151.655 65.4066H152.014C151.999 64.9822 151.673 64.7569 151.183 64.7569C150.61 64.7569 150.319 65.0369 150.321 65.4328C150.323 65.7697 150.557 65.9425 150.923 66.03L151.391 66.1459C151.596 66.1941 151.693 66.2903 151.693 66.4566C151.693 66.6928 151.489 66.8044 151.183 66.8044C150.896 66.8044 150.669 66.6687 150.612 66.4041H150.244C150.31 66.8919 150.713 67.1063 151.185 67.1063ZM152.589 67.0625H152.991V65.5509C152.991 65.2337 153.269 65.1003 153.501 65.1003C153.711 65.1003 153.96 65.2359 153.96 65.505V67.0625H154.363V65.5509C154.363 65.2075 154.658 65.1003 154.87 65.1003C155.109 65.1003 155.334 65.2141 155.334 65.6231V67.0625H155.741V65.5837C155.741 64.9144 155.323 64.7569 155.004 64.7569C154.704 64.7569 154.455 64.9056 154.315 65.1266C154.197 64.8859 153.91 64.7569 153.663 64.7569C153.311 64.7569 153.103 64.9297 152.978 65.1287V64.8006H152.589V67.0625ZM157 67.1063C157.324 67.1063 157.602 66.9903 157.777 66.6381L157.807 67.0625H158.153V65.4831C158.153 65.0106 157.86 64.7569 157.271 64.7569C156.722 64.7569 156.385 64.9997 156.361 65.4394H156.718C156.772 65.1703 156.991 65.0566 157.252 65.0544C157.599 65.0544 157.761 65.2294 157.761 65.505V65.6822L157.359 65.6931C156.584 65.7106 156.254 65.9491 156.254 66.45C156.254 66.8634 156.56 67.1063 157 67.1063ZM157.12 66.8153C156.842 66.8153 156.646 66.6666 156.646 66.4106C156.646 66.0759 156.906 65.9469 157.427 65.9381L157.761 65.9316V66.3187C157.761 66.5703 157.424 66.8153 157.12 66.8153ZM159.355 67.0909C159.412 67.0909 159.49 67.0778 159.558 67.0559V66.7934L159.436 66.7912C159.276 66.7803 159.182 66.6709 159.182 66.4412V63.8119H158.784V66.4806C158.784 66.7978 158.867 67.0909 159.355 67.0909ZM160.615 67.0909C160.672 67.0909 160.751 67.0778 160.819 67.0559V66.7934L160.696 66.7912C160.536 66.7803 160.442 66.6709 160.442 66.4412V63.8119H160.044V66.4806C160.044 66.7978 160.127 67.0909 160.615 67.0909ZM161.555 66.0256H163.176V65.8769C163.176 65.19 162.822 64.7569 162.185 64.7569C161.527 64.7569 161.146 65.2403 161.146 65.9534C161.146 66.6753 161.581 67.1063 162.213 67.1063C162.653 67.1063 163.078 66.8634 163.161 66.4019H162.78C162.723 66.6578 162.496 66.7934 162.207 66.7934C161.767 66.7934 161.555 66.4544 161.555 66.0256ZM161.557 65.7522C161.555 65.4153 161.756 65.0631 162.183 65.0631C162.592 65.0631 162.787 65.3628 162.787 65.7522H161.557ZM163.736 67.0625H164.138V65.6559C164.138 65.2797 164.431 65.1266 164.792 65.1506C164.838 65.1506 164.919 65.1572 164.963 65.1769V64.7853C164.926 64.7656 164.856 64.7569 164.79 64.7569C164.503 64.7569 164.234 64.91 164.121 65.2359V64.8006H163.736V67.0625ZM167.659 65.0959V64.7984H167.149V64.1422H166.852L166.753 64.8006H166.375V65.0959H166.742V66.5156C166.742 66.8787 166.867 67.0734 167.337 67.0734C167.502 67.0734 167.615 67.0581 167.672 67.0362V66.765H167.425C167.213 66.765 167.149 66.7431 167.149 66.5025V65.0959H167.659ZM168.447 66.0256H170.067V65.8769C170.067 65.19 169.713 64.7569 169.077 64.7569C168.418 64.7569 168.037 65.2403 168.037 65.9534C168.037 66.6753 168.473 67.1063 169.105 67.1063C169.545 67.1063 169.969 66.8634 170.052 66.4019H169.672C169.615 66.6578 169.387 66.7934 169.098 66.7934C168.659 66.7934 168.447 66.4544 168.447 66.0256ZM168.449 65.7522C168.447 65.4153 168.648 65.0631 169.074 65.0631C169.483 65.0631 169.678 65.3628 169.678 65.7522H168.449ZM172.47 67.0625L171.6 65.8878L172.405 64.8006H171.963L171.374 65.5947L170.786 64.8006H170.346L171.147 65.8878L170.276 67.0625H170.718L171.372 66.1766L172.031 67.0625H172.47ZM173.991 65.0959V64.7984H173.481V64.1422H173.184L173.085 64.8006H172.707V65.0959H173.074V66.5156C173.074 66.8787 173.199 67.0734 173.669 67.0734C173.833 67.0734 173.947 67.0581 174.004 67.0362V66.765H173.757C173.545 66.765 173.481 66.7431 173.481 66.5025V65.0959H173.991ZM47.9213 70.8006H47.5428L47.0463 72.5353H47.0113L46.4819 70.8006H46.1756L45.6659 72.5397H45.6309L45.1147 70.8006H44.7384L45.4384 73.0625H45.8322L46.3244 71.3934L46.8384 73.0625H47.2366L47.9213 70.8006ZM48.3834 73.0625H48.7859V71.5531C48.7859 71.2491 49.0615 71.1025 49.3678 71.1025C49.6653 71.1025 49.8687 71.2578 49.8687 71.5269V73.0625H50.2734V71.4459C50.2734 71.0325 49.9256 70.7722 49.4837 70.7722C49.1206 70.7722 48.8909 70.9472 48.7771 71.1331V69.8119H48.3834V73.0625ZM51.3176 69.9016H50.9041V70.3216H51.3176V69.9016ZM51.3066 70.8006H50.9151V73.0625H51.3066V70.8006ZM52.8951 70.7569C52.2279 70.7569 51.8538 71.2359 51.8538 71.9403C51.8538 72.6994 52.2826 73.1063 52.8951 73.1063C53.3741 73.1063 53.7416 72.8197 53.8007 72.3647H53.4485C53.4091 72.5922 53.2123 72.7978 52.9016 72.7978C52.4685 72.7978 52.241 72.4587 52.241 71.9359C52.241 71.3584 52.5101 71.0828 52.8973 71.0828C53.2079 71.0828 53.4048 71.2775 53.4441 71.5159H53.8029C53.7416 71.0544 53.3807 70.7569 52.8951 70.7569ZM54.3349 73.0625H54.7374V71.5531C54.7374 71.2491 55.0131 71.1025 55.3193 71.1025C55.6168 71.1025 55.8202 71.2578 55.8202 71.5269V73.0625H56.2249V71.4459C56.2249 71.0325 55.8771 70.7722 55.4352 70.7722C55.0721 70.7722 54.8424 70.9472 54.7287 71.1331V69.8119H54.3349V73.0625ZM58.1615 72.0256H59.7824V71.8769C59.7824 71.19 59.428 70.7569 58.7915 70.7569C58.133 70.7569 57.7524 71.2403 57.7524 71.9534C57.7524 72.6753 58.1877 73.1063 58.8199 73.1063C59.2596 73.1063 59.684 72.8634 59.7671 72.4019H59.3865C59.3296 72.6578 59.1021 72.7934 58.8134 72.7934C58.3737 72.7934 58.1615 72.4544 58.1615 72.0256ZM58.1637 71.7522C58.1615 71.4153 58.3627 71.0631 58.7893 71.0631C59.1984 71.0631 59.393 71.3628 59.393 71.7522H58.1637ZM62.1854 73.0625L61.3148 71.8878L62.1198 70.8006H61.6779L61.0895 71.5947L60.501 70.8006H60.0613L60.862 71.8878L59.9913 73.0625H60.4332L61.0873 72.1766L61.7457 73.0625H62.1854ZM62.6577 73.7669H63.0646V72.6534C63.1586 72.8459 63.3708 73.1063 63.7755 73.1063C64.3705 73.1063 64.7249 72.6775 64.7249 71.9009C64.7249 71.1222 64.3486 70.7569 63.8083 70.7569C63.3927 70.7569 63.1674 71.0084 63.0646 71.1944L63.0602 70.8006H62.6577V73.7669ZM63.6989 72.7912C63.2789 72.7912 63.0602 72.4019 63.0602 71.9141C63.0602 71.4153 63.2789 71.0719 63.6989 71.0719C64.1124 71.0719 64.3333 71.4 64.3333 71.9141C64.3333 72.5156 64.0708 72.7912 63.6989 72.7912ZM65.8348 73.0909C65.8917 73.0909 65.9704 73.0778 66.0383 73.0559V72.7934L65.9158 72.7912C65.7561 72.7803 65.662 72.6709 65.662 72.4412V69.8119H65.2639V72.4806C65.2639 72.7978 65.347 73.0909 65.8348 73.0909ZM67.2014 73.1063C67.5251 73.1063 67.8029 72.9903 67.9779 72.6381L68.0085 73.0625H68.3542V71.4831C68.3542 71.0106 68.061 70.7569 67.4726 70.7569C66.9235 70.7569 66.5867 70.9997 66.5626 71.4394H66.9192C66.9739 71.1703 67.1926 71.0566 67.4529 71.0544C67.8007 71.0544 67.9626 71.2294 67.9626 71.505V71.6822L67.5601 71.6931C66.7857 71.7106 66.4554 71.9491 66.4554 72.45C66.4554 72.8634 66.7617 73.1063 67.2014 73.1063ZM67.3217 72.8153C67.0439 72.8153 66.847 72.6666 66.847 72.4106C66.847 72.0759 67.1073 71.9469 67.6279 71.9381L67.9626 71.9316V72.3187C67.9626 72.5703 67.6257 72.8153 67.3217 72.8153ZM69.3986 69.9016H68.9852V70.3216H69.3986V69.9016ZM69.3877 70.8006H68.9961V73.0625H69.3877V70.8006ZM70.096 73.0625H70.4985V71.5509C70.4985 71.2469 70.7785 71.1025 71.0848 71.1025C71.3801 71.1025 71.5835 71.2709 71.5835 71.6231V73.0625H71.9882V71.5837C71.9882 71.015 71.6251 70.7678 71.1964 70.7678C70.8332 70.7678 70.5992 70.9406 70.4876 71.1287V70.8006H70.096V73.0625ZM73.4135 73.1063C73.9647 73.1063 74.2841 72.8503 74.2841 72.4347C74.2841 72.2116 74.1703 71.9359 73.7547 71.8266L73.2997 71.7128C73.0503 71.6516 72.9191 71.5706 72.9191 71.4087C72.9191 71.1681 73.1181 71.0544 73.4069 71.0544C73.6869 71.0544 73.8531 71.19 73.8838 71.4066H74.2425C74.2272 70.9822 73.9013 70.7569 73.4113 70.7569C72.8381 70.7569 72.5472 71.0369 72.5494 71.4328C72.5516 71.7697 72.7856 71.9425 73.151 72.03L73.6191 72.1459C73.8247 72.1941 73.921 72.2903 73.921 72.4566C73.921 72.6928 73.7175 72.8044 73.4113 72.8044C73.1247 72.8044 72.8972 72.6687 72.8403 72.4041H72.4728C72.5385 72.8919 72.941 73.1063 73.4135 73.1063ZM77.0145 71.0959V70.7984H76.5048V70.1422H76.2073L76.1089 70.8006H75.7304V71.0959H76.0979V72.5156C76.0979 72.8787 76.2226 73.0734 76.6929 73.0734C76.857 73.0734 76.9707 73.0581 77.0276 73.0362V72.765H76.7804C76.5682 72.765 76.5048 72.7431 76.5048 72.5025V71.0959H77.0145ZM77.5643 73.0625H77.9668V71.5531C77.9668 71.2491 78.2424 71.1025 78.5487 71.1025C78.8462 71.1025 79.0496 71.2578 79.0496 71.5269V73.0625H79.4543V71.4459C79.4543 71.0325 79.1065 70.7722 78.6646 70.7722C78.3015 70.7722 78.0718 70.9472 77.9581 71.1331V69.8119H77.5643V73.0625ZM80.4985 69.9016H80.0851V70.3216H80.4985V69.9016ZM80.4876 70.8006H80.096V73.0625H80.4876V70.8006ZM81.9797 73.1063C82.531 73.1063 82.8504 72.8503 82.8504 72.4347C82.8504 72.2116 82.7366 71.9359 82.321 71.8266L81.866 71.7128C81.6166 71.6516 81.4854 71.5706 81.4854 71.4087C81.4854 71.1681 81.6844 71.0544 81.9732 71.0544C82.2532 71.0544 82.4194 71.19 82.45 71.4066H82.8088C82.7935 70.9822 82.4675 70.7569 81.9775 70.7569C81.4044 70.7569 81.1135 71.0369 81.1157 71.4328C81.1179 71.7697 81.3519 71.9425 81.7172 72.03L82.1854 72.1459C82.391 72.1941 82.4872 72.2903 82.4872 72.4566C82.4872 72.6928 82.2838 72.8044 81.9775 72.8044C81.691 72.8044 81.4635 72.6687 81.4066 72.4041H81.0391C81.1047 72.8919 81.5072 73.1063 81.9797 73.1063ZM85.548 73.1063C86.1845 73.1063 86.5039 72.6359 86.5039 71.9228C86.5039 71.155 86.143 70.7569 85.5786 70.7569C85.1476 70.7569 84.9114 71.0128 84.837 71.1594V69.8119H84.4301V73.0625H84.7386L84.7823 72.5987C84.8392 72.7759 85.0186 73.1063 85.548 73.1063ZM85.4758 72.7956C85.0186 72.7956 84.837 72.5353 84.837 71.9031C84.8436 71.3737 85.0186 71.0719 85.467 71.0719C85.8783 71.0719 86.097 71.3759 86.097 71.9031C86.097 72.5244 85.8411 72.7956 85.4758 72.7956ZM87.6116 73.0909C87.6684 73.0909 87.7472 73.0778 87.815 73.0559V72.7934L87.6925 72.7912C87.5328 72.7803 87.4387 72.6709 87.4387 72.4412V69.8119H87.0406V72.4806C87.0406 72.7978 87.1237 73.0909 87.6116 73.0909ZM89.1596 73.1063C89.8334 73.1063 90.1899 72.6316 90.1899 71.9403C90.1899 71.1791 89.7852 70.7569 89.1618 70.7569C88.4924 70.7569 88.1227 71.2316 88.1227 71.9403C88.1227 72.695 88.5318 73.1063 89.1596 73.1063ZM89.1618 72.7869C88.709 72.7869 88.5252 72.4084 88.5252 71.9316C88.5252 71.3934 88.7506 71.0741 89.1618 71.0741C89.6059 71.0741 89.7896 71.4481 89.7896 71.9316C89.7896 72.4631 89.5665 72.7869 89.1618 72.7869ZM91.6378 70.7569C90.9706 70.7569 90.5965 71.2359 90.5965 71.9403C90.5965 72.6994 91.0253 73.1063 91.6378 73.1063C92.1168 73.1063 92.4843 72.8197 92.5434 72.3647H92.1912C92.1518 72.5922 91.9549 72.7978 91.6443 72.7978C91.2112 72.7978 90.9837 72.4587 90.9837 71.9359C90.9837 71.3584 91.2528 71.0828 91.6399 71.0828C91.9506 71.0828 92.1474 71.2775 92.1868 71.5159H92.5456C92.4843 71.0544 92.1234 70.7569 91.6378 70.7569ZM95.0639 73.0625L94.191 71.6625L95.007 70.8006H94.5432L93.4801 71.9316V69.8119H93.0776V73.0625H93.4801V72.3887L93.9264 71.9272L94.6351 73.0625H95.0639ZM95.4402 73.0625H95.9215V72.5462H95.4402V73.0625Z" fill="white"/>
<path d="M45.3181 54.75H47.7156C49.4438 54.75 50.205 54.2031 50.205 53.035C50.205 52.4487 50.0125 51.7881 48.9581 51.5081C49.7806 51.1625 50.0563 50.7119 50.0563 50.0819C50.0563 49.0144 49.2688 48.4237 47.6106 48.4237H45.3181V54.75ZM46.5913 51.04V49.4125H47.7244C48.3631 49.4125 48.8225 49.7012 48.8225 50.2481C48.8225 50.8037 48.3325 51.04 47.8119 51.04H46.5913ZM46.5913 53.7612V52.055H47.8119C48.4375 52.055 48.91 52.3481 48.91 52.9081C48.91 53.4287 48.5075 53.7612 47.7419 53.7612H46.5913ZM52.3887 48.4281H51.1462V49.5787H52.3887V48.4281ZM52.38 50.2262H51.1594V54.75H52.38V50.2262ZM55.5448 56.2463C57.1548 56.2463 57.9554 55.6338 57.9554 54.785C57.9554 54.0719 57.4129 53.5644 56.3061 53.49C55.9079 53.4638 55.5579 53.4462 55.3654 53.4331C54.8317 53.4025 54.5736 53.3806 54.5736 53.2362C54.5736 53.1444 54.6829 53.0656 55.0242 53.0481C55.1379 53.0612 55.3654 53.0656 55.4704 53.0656C56.8223 53.0656 57.5179 52.3569 57.5179 51.5694C57.5179 51.4512 57.4829 51.2544 57.4217 51.0925L58.2004 50.9656L58.2092 49.9769C57.8286 50.1344 57.1504 50.4056 56.8792 50.5106C56.5423 50.3006 56.1836 50.1562 55.5623 50.1562C54.3329 50.1562 53.4186 50.6812 53.4186 51.5737C53.4186 52.0769 53.7336 52.6019 54.3329 52.8775C53.7073 52.9869 53.4054 53.2887 53.4054 53.6081C53.4054 54.0369 53.8211 54.1987 53.9611 54.2819C53.8736 54.33 53.0817 54.5181 53.0817 55.135C53.0817 55.8 53.9348 56.2463 55.5448 56.2463ZM55.5098 52.3525C55.0067 52.3525 54.7004 52.0637 54.7004 51.6131C54.7004 51.145 55.0242 50.83 55.5098 50.83C55.9911 50.83 56.3104 51.1406 56.3104 51.6131C56.3104 52.0725 55.9911 52.3525 55.5098 52.3525ZM55.7504 55.5331C54.7792 55.5331 54.3329 55.3669 54.3329 54.9863C54.3329 54.7062 54.6042 54.4481 55.0154 54.47L56.0523 54.54C56.4986 54.5706 56.7392 54.7544 56.7392 55.0256C56.7392 55.3538 56.4592 55.5331 55.7504 55.5331ZM60.541 49.5612H62.4529V54.75H63.7348V49.5612H65.6029V48.4237H60.541V49.5612ZM66.7276 52.7812H69.7682V52.4356C69.7682 51.0794 69.042 50.1387 67.6595 50.1387C66.2726 50.1387 65.4632 51.18 65.4632 52.5406C65.4632 53.945 66.382 54.8375 67.7251 54.8375C68.6657 54.8375 69.6107 54.2819 69.7638 53.315H68.6132C68.482 53.7394 68.132 53.9144 67.6945 53.9144C67.082 53.9144 66.7232 53.4725 66.7276 52.7812ZM66.7276 52.02C66.7232 51.5212 67.0688 51.0312 67.6551 51.0312C68.272 51.0312 68.5738 51.4731 68.5738 52.02H66.7276ZM74.7831 54.75L73.0419 52.3919L74.6431 50.2262H73.3088L72.3725 51.495L71.4319 50.2262H70.0931L71.6813 52.3919L69.9444 54.75H71.2831L72.3638 53.2756L73.4444 54.75H74.7831ZM78.1182 51.1144V50.2219H77.1119V48.8612H76.2019L75.8782 50.2262H75.1038V51.1144H75.8388V53.5775C75.8388 54.3037 76.1451 54.7981 77.3394 54.7981C77.7813 54.7981 78.0088 54.7412 78.1313 54.6887V53.9012H77.5232C77.2432 53.9012 77.1207 53.8575 77.1207 53.525L77.1119 51.1144H78.1182Z" fill="white"/>
<g style="mix-blend-mode:color">
<rect width="320" height="120" fill="#808080"/>
</g>
<g style="mix-blend-mode:color">
<rect width="320" height="120" fill="#00284D"/>
</g>
<defs>
<filter id="filter0_d" x="201.32" y="62.0625" width="35.8438" height="13.375" filterUnits="userSpaceOnUse" color-interpolation-filters="sRGB">
<feFlood flood-opacity="0" result="BackgroundImageFix"/>
<feColorMatrix in="SourceAlpha" type="matrix" values="0 0 0 0 0 0 0 0 0 0 0 0 0 0 0 0 0 0 127 0"/>
<feOffset dy="2"/>
<feColorMatrix type="matrix" values="0 0 0 0 0.423529 0 0 0 0 0.458824 0 0 0 0 0.490196 0 0 0 0.35 0"/>
<feBlend mode="normal" in2="BackgroundImageFix" result="effect1_dropShadow"/>
<feBlend mode="normal" in="SourceGraphic" in2="effect1_dropShadow" result="shape"/>
</filter>
<filter id="filter1_d" x="239.352" y="62.0625" width="35.8438" height="13.375" filterUnits="userSpaceOnUse" color-interpolation-filters="sRGB">
<feFlood flood-opacity="0" result="BackgroundImageFix"/>
<feColorMatrix in="SourceAlpha" type="matrix" values="0 0 0 0 0 0 0 0 0 0 0 0 0 0 0 0 0 0 127 0"/>
<feOffset dy="2"/>
<feColorMatrix type="matrix" values="0 0 0 0 0.423529 0 0 0 0 0.458824 0 0 0 0 0.490196 0 0 0 0.35 0"/>
<feBlend mode="normal" in2="BackgroundImageFix" result="effect1_dropShadow"/>
<feBlend mode="normal" in="SourceGraphic" in2="effect1_dropShadow" result="shape"/>
</filter>
</defs>
</svg>
