<svg width="320" height="120" viewBox="0 0 320 120" fill="none" xmlns="http://www.w3.org/2000/svg">
<rect width="320" height="120" fill="#C0CEDB"/>
<path d="M206.714 39.9998H175.286C172.92 39.9998 171 41.9194 171 44.2855V75.714C171 78.0801 172.92 79.9998 175.286 79.9998H206.714C209.08 79.9998 211 78.0801 211 75.714V44.2855C211 41.9194 209.08 39.9998 206.714 39.9998ZM202.348 54.1783C202.366 54.4283 202.366 54.6873 202.366 54.9373C202.366 62.6783 196.473 71.598 185.705 71.598C182.384 71.598 179.304 70.6337 176.714 68.973C177.188 69.0265 177.643 69.0444 178.125 69.0444C180.866 69.0444 183.384 68.1158 185.393 66.5444C182.821 66.4908 180.661 64.8033 179.92 62.4819C180.821 62.6158 181.634 62.6158 182.562 62.3748C179.884 61.8301 177.875 59.473 177.875 56.6248V56.5533C178.652 56.9908 179.562 57.2587 180.518 57.2944C179.715 56.7601 179.056 56.0354 178.601 55.1847C178.146 54.3341 177.909 53.384 177.911 52.4194C177.911 51.3301 178.196 50.3301 178.705 49.464C181.589 53.0176 185.92 55.339 190.777 55.589C189.946 51.6158 192.92 48.3926 196.491 48.3926C198.179 48.3926 199.696 49.098 200.768 50.2408C202.089 49.9908 203.357 49.4998 204.482 48.8301C204.045 50.1873 203.125 51.3301 201.911 52.0533C203.089 51.9283 204.232 51.598 205.286 51.1426C204.491 52.3123 203.491 53.348 202.348 54.1783Z" fill="#00284D"/>
<path d="M147.143 40H112.848C111.277 40 110 41.2946 110 42.8839V77.1161C110 78.7054 111.277 80 112.848 80H147.143C148.714 80 150 78.7054 150 77.1161V42.8839C150 41.2946 148.714 40 147.143 40ZM122.089 74.2857H116.161V55.1964H122.098V74.2857H122.089ZM119.125 52.5893C117.223 52.5893 115.688 51.0446 115.688 49.1518C115.688 47.2589 117.223 45.7143 119.125 45.7143C121.018 45.7143 122.562 47.2589 122.562 49.1518C122.562 51.0536 121.027 52.5893 119.125 52.5893ZM144.312 74.2857H138.384V65C138.384 62.7857 138.339 59.9375 135.304 59.9375C132.214 59.9375 131.741 62.3482 131.741 64.8393V74.2857H125.813V55.1964H131.5V57.8036H131.58C132.375 56.3036 134.313 54.7232 137.196 54.7232C143.196 54.7232 144.312 58.6786 144.312 63.8214V74.2857Z" fill="#00284D"/>
<path d="M84.7143 40H53.2857C52.1491 40 51.059 40.4515 50.2553 41.2553C49.4515 42.059 49 43.1491 49 44.2857V75.7143C49 76.8509 49.4515 77.941 50.2553 78.7447C51.059 79.5485 52.1491 80 53.2857 80H65.5402V66.4009H59.9152V60H65.5402V55.1214C65.5402 49.5723 68.8438 46.5071 73.9036 46.5071C76.3268 46.5071 78.8607 46.9393 78.8607 46.9393V52.3857H76.0688C73.3179 52.3857 72.4598 54.0929 72.4598 55.8438V60H78.6009L77.6188 66.4009H72.4598V80H84.7143C85.8509 80 86.941 79.5485 87.7447 78.7447C88.5485 77.941 89 76.8509 89 75.7143V44.2857C89 43.1491 88.5485 42.059 87.7447 41.2553C86.941 40.4515 85.8509 40 84.7143 40Z" fill="#00284D"/>
<path fill-rule="evenodd" clip-rule="evenodd" d="M236 40C233.791 40 232 41.7909 232 44V76C232 78.2091 233.791 80 236 80H268C270.209 80 272 78.2091 272 76V44C272 41.7909 270.209 40 268 40H236ZM254.734 55.7422C255.117 56.0156 255.5 56.3438 255.828 56.6719C259.109 59.9531 259.055 65.2031 255.828 68.375V68.4297L252.164 72.0938C248.938 75.3203 243.633 75.3203 240.406 72.0938C237.18 68.8672 237.18 63.5625 240.406 60.3359L242.43 58.3125C242.977 57.7656 243.906 58.1484 243.906 58.9141C243.961 59.8438 244.125 60.8281 244.453 61.7578C244.562 62.0859 244.508 62.4688 244.234 62.6875L243.523 63.3984C241.992 64.9297 241.938 67.4453 243.469 68.9766C245 70.5625 247.516 70.5625 249.047 68.9766L252.766 65.3125C254.297 63.7812 254.297 61.3203 252.766 59.7344C252.547 59.5703 252.328 59.4062 252.164 59.2969C251.945 59.1328 251.781 58.9141 251.781 58.5859C251.781 58.0391 252 57.4375 252.438 56.9453L253.586 55.7969C253.914 55.5234 254.352 55.4688 254.734 55.7422ZM251.781 48.9609C255.008 45.7344 260.312 45.7344 263.539 48.9609C266.766 52.1875 266.766 57.4922 263.539 60.7188L261.516 62.7422C260.969 63.2891 260.039 62.9062 260.039 62.1406C259.984 61.2109 259.82 60.2266 259.492 59.2969C259.383 58.9688 259.438 58.5859 259.711 58.3672L260.422 57.6562C261.953 56.125 262.008 53.6094 260.477 52.0781C258.945 50.4922 256.43 50.4922 254.898 52.0781L251.18 55.7422C249.648 57.2734 249.648 59.7344 251.18 61.3203C251.398 61.4844 251.617 61.6484 251.781 61.7578C252 61.9219 252.164 62.1406 252.164 62.4688C252.164 63.0156 251.945 63.6172 251.508 64.1094L250.359 65.2578C250.031 65.5312 249.594 65.5859 249.211 65.3125C248.828 65.0391 248.445 64.7109 248.117 64.3828C244.836 61.1016 244.891 55.8516 248.117 52.6797V52.625L251.781 48.9609Z" fill="#00284D"/>
<g style="mix-blend-mode:color">
<rect width="320" height="120" fill="#808080"/>
</g>
<g style="mix-blend-mode:color">
<rect width="320" height="120" fill="#00284D"/>
</g>
</svg>
