<svg width="320" height="120" viewBox="0 0 320 120" fill="none" xmlns="http://www.w3.org/2000/svg">
<rect width="320" height="120" fill="#C0CEDB"/>
<circle cx="52" cy="84" r="7" fill="#185AE3" stroke="#185AE3" stroke-width="2"/>
<circle cx="52" cy="84" r="3" fill="white"/>
<circle cx="28" cy="84" r="7" fill="white" stroke="#6C757D" stroke-width="2"/>
<rect x="117" y="77" width="14" height="14" rx="3" fill="#185AE3" stroke="#185AE3" stroke-width="2"/>
<path fill-rule="evenodd" clip-rule="evenodd" d="M121.05 83.1813L120 85L122.474 86.4286L124.33 87.5L125.38 85.6813L127.83 81.4378L125.974 80.3664L123.524 84.6099L121.05 83.1813Z" fill="white"/>
<rect x="93" y="77" width="14" height="14" rx="3" fill="white" stroke="#6C757D" stroke-width="2"/>
<rect x="165" y="29" width="138" height="38" rx="3" fill="white"/>
<path d="M285.121 48.625C284.52 48.625 284.219 49.3359 284.656 49.7461L287.91 53C288.156 53.2734 288.566 53.2734 288.84 53L292.094 49.7461C292.504 49.3359 292.203 48.625 291.629 48.625H285.121ZM292.094 45.7539L288.84 42.5C288.566 42.2539 288.156 42.2539 287.91 42.5L284.656 45.7539C284.219 46.1914 284.52 46.875 285.121 46.875H291.629C292.203 46.875 292.504 46.1914 292.094 45.7539Z" fill="#6C757D"/>
<rect x="165" y="29" width="138" height="38" rx="3" stroke="#6C757D" stroke-width="2"/>
<g filter="url(#filter0_i_484_655)">
<rect x="16" y="28" width="140" height="40" rx="4" fill="white"/>
</g>
<rect x="201" y="77" width="26" height="14" rx="7" fill="#185AE3" stroke="#185AE3" stroke-width="2"/>
<circle cx="209" cy="84" r="5" fill="white"/>
<rect x="165" y="77" width="26" height="14" rx="7" fill="white" stroke="#6C757D" stroke-width="2"/>
<circle cx="172" cy="84" r="5" fill="#6C757D"/>
<g style="mix-blend-mode:color">
<rect width="320" height="120" fill="#808080"/>
</g>
<g style="mix-blend-mode:color">
<rect width="320" height="120" fill="#00284D"/>
</g>
<defs>
<filter id="filter0_i_484_655" x="16" y="28" width="140" height="42" filterUnits="userSpaceOnUse" color-interpolation-filters="sRGB">
<feFlood flood-opacity="0" result="BackgroundImageFix"/>
<feBlend mode="normal" in="SourceGraphic" in2="BackgroundImageFix" result="shape"/>
<feColorMatrix in="SourceAlpha" type="matrix" values="0 0 0 0 0 0 0 0 0 0 0 0 0 0 0 0 0 0 127 0" result="hardAlpha"/>
<feOffset dy="4"/>
<feGaussianBlur stdDeviation="1"/>
<feComposite in2="hardAlpha" operator="arithmetic" k2="-1" k3="1"/>
<feColorMatrix type="matrix" values="0 0 0 0 0.423529 0 0 0 0 0.458824 0 0 0 0 0.490196 0 0 0 0.25 0"/>
<feBlend mode="normal" in2="shape" result="effect1_innerShadow_484_655"/>
</filter>
</defs>
</svg>
