<svg width="320" height="120" viewBox="0 0 320 120" fill="none" xmlns="http://www.w3.org/2000/svg">
<rect width="320" height="120" fill="#C0CEDB"/>
<g filter="url(#filter0_d_454_542)">
<path d="M16 28.4743C16 26.5555 17.5555 25 19.4743 25H300.526C302.445 25 304 26.5555 304 28.4743V90.6457C304 92.5645 302.445 94.12 300.526 94.12H19.4743C17.5555 94.12 16 92.5645 16 90.6457V28.4743Z" fill="white"/>
<path d="M33.7174 76.7208V80.4286H34.7458V72.3905H33.7174V75.8147H29.3815V72.3905H28.3531V80.4286H29.3815V76.7208H33.7174ZM37.3339 77.7937H41.453V77.4157C41.453 75.6702 40.5525 74.5696 38.9348 74.5696C37.2616 74.5696 36.2944 75.7981 36.2944 77.6102C36.2944 79.4447 37.4006 80.5398 39.0071 80.5398C40.1244 80.5398 41.2029 79.9227 41.4141 78.7498H40.4469C40.3023 79.4002 39.7242 79.7448 38.9904 79.7448C37.8731 79.7448 37.3339 78.8832 37.3339 77.7937ZM37.3395 77.0988C37.3339 76.2428 37.8453 75.3478 38.9293 75.3478C39.9688 75.3478 40.4635 76.1094 40.4635 77.0988H37.3395ZM44.3259 80.5009C44.4704 80.5009 44.6705 80.4675 44.8429 80.4119V79.7448L44.5316 79.7393C44.1258 79.7115 43.8867 79.4336 43.8867 78.8499V72.1681H42.875V78.9499C42.875 79.756 43.0863 80.5009 44.3259 80.5009ZM47.5287 80.5009C47.6733 80.5009 47.8734 80.4675 48.0457 80.4119V79.7448L47.7344 79.7393C47.3286 79.7115 47.0896 79.4336 47.0896 78.8499V72.1681H46.0779V78.9499C46.0779 79.756 46.2891 80.5009 47.5287 80.5009ZM51.4627 80.5398C53.1748 80.5398 54.0809 79.3335 54.0809 77.5769C54.0809 75.6424 53.0525 74.5696 51.4682 74.5696C49.7672 74.5696 48.8278 75.7758 48.8278 77.5769C48.8278 79.4947 49.8673 80.5398 51.4627 80.5398ZM51.4682 79.7282C50.3176 79.7282 49.8506 78.7665 49.8506 77.5547C49.8506 76.1872 50.4232 75.3756 51.4682 75.3756C52.5967 75.3756 53.0636 76.3262 53.0636 77.5547C53.0636 78.9055 52.4966 79.7282 51.4682 79.7282ZM55.0807 81.8239H55.5588L56.5038 80.2618V79.1945H55.2197V80.423L55.7033 80.4508L55.0807 81.8239ZM68.2464 74.6807H67.2847L66.0228 79.0889H65.9339L64.5886 74.6807H63.8104L62.5152 79.1H62.4262L61.1143 74.6807H60.1582L61.937 80.4286H62.9376L64.1884 76.1872L65.4947 80.4286H66.5064L68.2464 74.6807ZM71.6135 80.5398C73.3257 80.5398 74.2318 79.3335 74.2318 77.5769C74.2318 75.6424 73.2034 74.5696 71.6191 74.5696C69.9181 74.5696 68.9786 75.7758 68.9786 77.5769C68.9786 79.4947 70.0182 80.5398 71.6135 80.5398ZM71.6191 79.7282C70.4684 79.7282 70.0015 78.7665 70.0015 77.5547C70.0015 76.1872 70.574 75.3756 71.6191 75.3756C72.7475 75.3756 73.2145 76.3262 73.2145 77.5547C73.2145 78.9055 72.6475 79.7282 71.6191 79.7282ZM75.5985 80.4286H76.6213V76.8542C76.6213 75.8981 77.3662 75.509 78.2834 75.5701C78.4001 75.5701 78.6058 75.5868 78.717 75.6369V74.6418C78.6225 74.5918 78.4446 74.5696 78.2778 74.5696C77.5496 74.5696 76.8659 74.9587 76.5768 75.7869V74.6807H75.5985V80.4286ZM81.3922 80.5009C81.5367 80.5009 81.7368 80.4675 81.9092 80.4119V79.7448L81.5979 79.7393C81.1921 79.7115 80.953 79.4336 80.953 78.8499V72.1681H79.9413V78.9499C79.9413 79.756 80.1526 80.5009 81.3922 80.5009ZM85.1204 80.5398C86.4657 80.5398 86.9159 79.7004 87.0605 79.2501L87.1717 80.4286H87.961V72.1681H86.9215V75.5924C86.7381 75.2199 86.1377 74.5696 85.0371 74.5696C83.4806 74.5696 82.6912 75.7425 82.6912 77.5324C82.6912 79.5003 83.6251 80.5398 85.1204 80.5398ZM85.3039 79.7504C84.2699 79.7504 83.7252 78.9221 83.7252 77.4824C83.7252 76.0093 84.3755 75.37 85.3206 75.37C86.4657 75.37 86.9104 76.1372 86.9215 77.4824C86.9215 79.0889 86.4657 79.7504 85.3039 79.7504ZM90.7925 72.3905H89.564L89.8363 78.3885H90.5256L90.7925 72.3905ZM90.7869 79.1334H89.564V80.4286H90.7869V79.1334ZM94.5574 73.3355H97.1534V80.4286H98.1873V73.3355H100.639V72.3905H94.5574V73.3355ZM101.753 80.4286H102.776V76.593C102.776 75.8203 103.477 75.4479 104.255 75.4479C105.011 75.4479 105.528 75.8425 105.528 76.5263V80.4286H106.556V76.3206C106.556 75.27 105.672 74.6085 104.549 74.6085C103.627 74.6085 103.043 75.0532 102.754 75.5257V72.1681H101.753V80.4286ZM109.21 72.396H108.159V73.4633H109.21V72.396ZM109.182 74.6807H108.187V80.4286H109.182V74.6807ZM112.974 80.5398C114.375 80.5398 115.186 79.8894 115.186 78.8332C115.186 78.2662 114.897 77.5658 113.841 77.2878L112.685 76.9988C112.051 76.8431 111.717 76.6374 111.717 76.2261C111.717 75.6146 112.223 75.3256 112.957 75.3256C113.669 75.3256 114.091 75.6702 114.169 76.2205H115.081C115.042 75.1421 114.213 74.5696 112.968 74.5696C111.512 74.5696 110.772 75.2811 110.778 76.2872C110.784 77.1433 111.378 77.5825 112.307 77.8048L113.496 78.0994C114.019 78.2217 114.263 78.4663 114.263 78.8888C114.263 79.4891 113.746 79.7726 112.968 79.7726C112.24 79.7726 111.662 79.428 111.517 78.7554H110.583C110.75 79.995 111.773 80.5398 112.974 80.5398ZM120.251 72.396H119.201V73.4633H120.251V72.396ZM120.224 74.6807H119.229V80.4286H120.224V74.6807ZM124.015 80.5398C125.416 80.5398 126.228 79.8894 126.228 78.8332C126.228 78.2662 125.939 77.5658 124.883 77.2878L123.726 76.9988C123.093 76.8431 122.759 76.6374 122.759 76.2261C122.759 75.6146 123.265 75.3256 123.999 75.3256C124.71 75.3256 125.133 75.6702 125.211 76.2205H126.122C126.083 75.1421 125.255 74.5696 124.01 74.5696C122.554 74.5696 121.814 75.2811 121.82 76.2872C121.825 77.1433 122.42 77.5825 123.348 77.8048L124.538 78.0994C125.061 78.2217 125.305 78.4663 125.305 78.8888C125.305 79.4891 124.788 79.7726 124.01 79.7726C123.282 79.7726 122.704 79.428 122.559 78.7554H121.625C121.792 79.995 122.815 80.5398 124.015 80.5398ZM131.855 80.5398C132.677 80.5398 133.383 80.2451 133.828 79.3502L133.906 80.4286H134.784V76.4151C134.784 75.2144 134.039 74.5696 132.544 74.5696C131.149 74.5696 130.292 75.1866 130.231 76.3039H131.137C131.276 75.6202 131.832 75.3311 132.494 75.3256C133.378 75.3256 133.789 75.7703 133.789 76.4707V76.9209L132.766 76.9487C130.798 76.9932 129.959 77.5991 129.959 78.8721C129.959 79.9227 130.737 80.5398 131.855 80.5398ZM132.16 79.8004C131.454 79.8004 130.954 79.4224 130.954 78.772C130.954 77.9215 131.616 77.5936 132.939 77.5713L133.789 77.5547V78.5386C133.789 79.1778 132.933 79.8004 132.16 79.8004ZM142.015 75.4312V74.6752H140.72V73.0075H139.964L139.714 74.6807H138.752V75.4312H139.686V79.0389C139.686 79.9616 140.003 80.4564 141.198 80.4564C141.615 80.4564 141.904 80.4175 142.048 80.3619V79.6726H141.42C140.881 79.6726 140.72 79.617 140.72 79.0055V75.4312H142.015ZM145.562 80.5398C147.274 80.5398 148.18 79.3335 148.18 77.5769C148.18 75.6424 147.151 74.5696 145.567 74.5696C143.866 74.5696 142.927 75.7758 142.927 77.5769C142.927 79.4947 143.966 80.5398 145.562 80.5398ZM145.567 79.7282C144.416 79.7282 143.949 78.7665 143.949 77.5547C143.949 76.1872 144.522 75.3756 145.567 75.3756C146.696 75.3756 147.162 76.3262 147.162 77.5547C147.162 78.9055 146.595 79.7282 145.567 79.7282ZM151.083 80.5398C151.905 80.5398 152.611 80.2451 153.056 79.3502L153.134 80.4286H154.012V76.4151C154.012 75.2144 153.267 74.5696 151.772 74.5696C150.377 74.5696 149.52 75.1866 149.459 76.3039H150.365C150.504 75.6202 151.06 75.3311 151.722 75.3256C152.606 75.3256 153.017 75.7703 153.017 76.4707V76.9209L151.994 76.9487C150.026 76.9932 149.187 77.5991 149.187 78.8721C149.187 79.9227 149.965 80.5398 151.083 80.5398ZM151.388 79.8004C150.682 79.8004 150.182 79.4224 150.182 78.772C150.182 77.9215 150.843 77.5936 152.167 77.5713L153.017 77.5547V78.5386C153.017 79.1778 152.161 79.8004 151.388 79.8004ZM157.629 80.5398C159.03 80.5398 159.842 79.8894 159.842 78.8332C159.842 78.2662 159.553 77.5658 158.496 77.2878L157.34 76.9988C156.706 76.8431 156.373 76.6374 156.373 76.2261C156.373 75.6146 156.879 75.3256 157.613 75.3256C158.324 75.3256 158.747 75.6702 158.824 76.2205H159.736C159.697 75.1421 158.869 74.5696 157.624 74.5696C156.167 74.5696 155.428 75.2811 155.433 76.2872C155.439 77.1433 156.034 77.5825 156.962 77.8048L158.152 78.0994C158.674 78.2217 158.919 78.4663 158.919 78.8888C158.919 79.4891 158.402 79.7726 157.624 79.7726C156.895 79.7726 156.317 79.428 156.173 78.7554H155.239C155.406 79.995 156.429 80.5398 157.629 80.5398ZM163.99 75.4312V74.6752H162.695V73.0075H161.939L161.688 74.6807H160.727V75.4312H161.661V79.0389C161.661 79.9616 161.978 80.4564 163.173 80.4564C163.59 80.4564 163.879 80.4175 164.023 80.3619V79.6726H163.395C162.856 79.6726 162.695 79.617 162.695 79.0055V75.4312H163.99ZM168.09 80.4286H169.113V76.5874C169.113 75.7814 169.819 75.4423 170.409 75.4423C170.942 75.4423 171.576 75.7869 171.576 76.4707V80.4286H172.599V76.5874C172.599 75.7147 173.349 75.4423 173.888 75.4423C174.494 75.4423 175.067 75.7314 175.067 76.7709V80.4286H176.101V76.6708C176.101 74.9698 175.039 74.5696 174.227 74.5696C173.466 74.5696 172.832 74.9476 172.476 75.509C172.176 74.8975 171.448 74.5696 170.82 74.5696C169.925 74.5696 169.397 75.0087 169.08 75.5146V74.6807H168.09V80.4286ZM178.466 77.7937H182.585V77.4157C182.585 75.6702 181.684 74.5696 180.067 74.5696C178.394 74.5696 177.426 75.7981 177.426 77.6102C177.426 79.4447 178.533 80.5398 180.139 80.5398C181.256 80.5398 182.335 79.9227 182.546 78.7498H181.579C181.434 79.4002 180.856 79.7448 180.122 79.7448C179.005 79.7448 178.466 78.8832 178.466 77.7937ZM178.471 77.0988C178.466 76.2428 178.977 75.3478 180.061 75.3478C181.101 75.3478 181.596 76.1094 181.596 77.0988H178.471ZM186.031 80.5398C187.432 80.5398 188.244 79.8894 188.244 78.8332C188.244 78.2662 187.955 77.5658 186.899 77.2878L185.742 76.9988C185.109 76.8431 184.775 76.6374 184.775 76.2261C184.775 75.6146 185.281 75.3256 186.015 75.3256C186.726 75.3256 187.149 75.6702 187.227 76.2205H188.138C188.099 75.1421 187.271 74.5696 186.026 74.5696C184.57 74.5696 183.83 75.2811 183.836 76.2872C183.841 77.1433 184.436 77.5825 185.364 77.8048L186.554 78.0994C187.077 78.2217 187.321 78.4663 187.321 78.8888C187.321 79.4891 186.804 79.7726 186.026 79.7726C185.298 79.7726 184.72 79.428 184.575 78.7554H183.641C183.808 79.995 184.831 80.5398 186.031 80.5398ZM191.645 80.5398C193.045 80.5398 193.857 79.8894 193.857 78.8332C193.857 78.2662 193.568 77.5658 192.512 77.2878L191.356 76.9988C190.722 76.8431 190.388 76.6374 190.388 76.2261C190.388 75.6146 190.894 75.3256 191.628 75.3256C192.339 75.3256 192.762 75.6702 192.84 76.2205H193.751C193.713 75.1421 192.884 74.5696 191.639 74.5696C190.183 74.5696 189.443 75.2811 189.449 76.2872C189.454 77.1433 190.049 77.5825 190.978 77.8048L192.167 78.0994C192.69 78.2217 192.934 78.4663 192.934 78.8888C192.934 79.4891 192.417 79.7726 191.639 79.7726C190.911 79.7726 190.333 79.428 190.188 78.7554H189.254C189.421 79.995 190.444 80.5398 191.645 80.5398ZM196.845 80.5398C197.668 80.5398 198.374 80.2451 198.819 79.3502L198.897 80.4286H199.775V76.4151C199.775 75.2144 199.03 74.5696 197.535 74.5696C196.139 74.5696 195.283 75.1866 195.222 76.3039H196.128C196.267 75.6202 196.823 75.3311 197.485 75.3256C198.369 75.3256 198.78 75.7703 198.78 76.4707V76.9209L197.757 76.9487C195.789 76.9932 194.95 77.5991 194.95 78.8721C194.95 79.9227 195.728 80.5398 196.845 80.5398ZM197.151 79.8004C196.445 79.8004 195.945 79.4224 195.945 78.772C195.945 77.9215 196.606 77.5936 197.929 77.5713L198.78 77.5547V78.5386C198.78 79.1778 197.924 79.8004 197.151 79.8004ZM203.808 82.3297C205.714 82.3297 206.637 81.6015 206.637 80.5564C206.637 79.6392 205.959 79.0722 204.758 79C204.23 78.9666 203.797 78.9444 203.508 78.9277C202.707 78.8721 202.412 78.811 202.412 78.5997C202.412 78.4163 202.651 78.2384 203.441 78.2162C203.535 78.2217 203.697 78.2273 203.785 78.2273C205.392 78.2273 206.181 77.4268 206.181 76.4095C206.181 76.1649 206.109 75.8648 205.992 75.6257L206.998 75.4367L207.004 74.4862C206.693 74.614 205.781 74.992 205.536 75.0921C205.097 74.7752 204.63 74.5918 203.886 74.5918C202.323 74.5918 201.384 75.2922 201.384 76.4095C201.384 77.071 201.779 77.6658 202.457 78.0049C201.779 78.155 201.44 78.483 201.44 78.8443C201.44 79.289 201.834 79.4502 202.034 79.567C201.89 79.6726 200.945 79.9894 200.945 80.8177C200.945 81.7905 202.007 82.3297 203.808 82.3297ZM203.819 77.5658C202.924 77.5658 202.412 77.1489 202.412 76.4207C202.412 75.648 202.974 75.2255 203.819 75.2255C204.642 75.2255 205.197 75.648 205.197 76.4207C205.197 77.1767 204.642 77.5658 203.819 77.5658ZM203.991 81.6682C202.607 81.6682 201.968 81.3124 201.968 80.701C201.968 80.1673 202.54 79.7615 202.974 79.7838L204.586 79.8894C205.286 79.9339 205.637 80.2507 205.637 80.7065C205.637 81.3514 205.053 81.6682 203.991 81.6682ZM208.866 77.7937H212.985V77.4157C212.985 75.6702 212.084 74.5696 210.467 74.5696C208.794 74.5696 207.826 75.7981 207.826 77.6102C207.826 79.4447 208.933 80.5398 210.539 80.5398C211.656 80.5398 212.735 79.9227 212.946 78.7498H211.979C211.834 79.4002 211.256 79.7448 210.522 79.7448C209.405 79.7448 208.866 78.8832 208.866 77.7937ZM208.871 77.0988C208.866 76.2428 209.377 75.3478 210.461 75.3478C211.501 75.3478 211.996 76.1094 211.996 77.0988H208.871ZM214.168 80.4286H215.391V79.1167H214.168V80.4286Z" fill="#495057"/>
<g clip-path="url(#clip0_454_542)">
<rect x="16.8685" y="57.1371" width="286.629" height="0.868571" fill="#DEE2E6"/>
<path d="M296.379 41.52L298.754 39.145C299.063 38.86 299.063 38.385 298.754 38.1L298.231 37.5775C297.946 37.2687 297.471 37.2687 297.186 37.5775L294.811 39.9525L292.413 37.5775C292.128 37.2687 291.653 37.2687 291.368 37.5775L290.845 38.1C290.536 38.385 290.536 38.86 290.845 39.145L293.22 41.52L290.845 43.9187C290.536 44.2037 290.536 44.6787 290.845 44.9637L291.368 45.4862C291.653 45.795 292.128 45.795 292.413 45.4862L294.811 43.1112L297.186 45.4862C297.471 45.795 297.946 45.795 298.231 45.4862L298.754 44.9637C299.063 44.6787 299.063 44.2037 298.754 43.9187L296.379 41.52Z" fill="#6C757D"/>
<path d="M228.436 45.08H229.498V37.0418H228.764C228.725 37.6922 228.325 38.0091 226.885 38.0091V38.6817H228.436V45.08ZM232.963 45.08H234.025V37.0418H233.291C233.252 37.6922 232.852 38.0091 231.412 38.0091V38.6817H232.963V45.08ZM238.977 45.08H240V41.2388C240 40.4328 240.706 40.0937 241.295 40.0937C241.828 40.0937 242.462 40.4383 242.462 41.122V45.08H243.485V41.2388C243.485 40.366 244.235 40.0937 244.775 40.0937C245.381 40.0937 245.953 40.3827 245.953 41.4222V45.08H246.987V41.3222C246.987 39.6212 245.925 39.2209 245.114 39.2209C244.352 39.2209 243.718 39.5989 243.363 40.1604C243.062 39.5489 242.334 39.2209 241.706 39.2209C240.811 39.2209 240.283 39.6601 239.966 40.1659V39.3321H238.977V45.08ZM249.647 37.0474H248.596V38.1147H249.647V37.0474ZM249.619 39.3321H248.624V45.08H249.619V39.3321ZM251.419 45.08H252.442V41.2388C252.442 40.4661 253.153 40.0992 253.932 40.0992C254.682 40.0992 255.199 40.5273 255.199 41.4222V45.08H256.227V41.3222C256.227 39.8769 255.305 39.2487 254.215 39.2487C253.292 39.2487 252.698 39.6879 252.414 40.1659V39.3321H251.419V45.08ZM259.849 45.1911C261.25 45.1911 262.062 44.5407 262.062 43.4846C262.062 42.9176 261.773 42.2171 260.716 41.9392L259.56 41.6501C258.926 41.4945 258.593 41.2888 258.593 40.8775C258.593 40.266 259.099 39.9769 259.832 39.9769C260.544 39.9769 260.966 40.3216 261.044 40.8719H261.956C261.917 39.7935 261.089 39.2209 259.844 39.2209C258.387 39.2209 257.648 39.9325 257.653 40.9386C257.659 41.7947 258.254 42.2338 259.182 42.4562L260.372 42.7508C260.894 42.8731 261.139 43.1177 261.139 43.5402C261.139 44.1405 260.622 44.424 259.844 44.424C259.115 44.424 258.537 44.0794 258.393 43.4067H257.459C257.626 44.6464 258.648 45.1911 259.849 45.1911ZM267.688 45.1911C268.511 45.1911 269.217 44.8965 269.662 44.0015L269.739 45.08H270.618V41.0665C270.618 39.8657 269.873 39.2209 268.377 39.2209C266.982 39.2209 266.126 39.838 266.065 40.9553H266.971C267.11 40.2715 267.666 39.9825 268.327 39.9769C269.211 39.9769 269.623 40.4216 269.623 41.122V41.5723L268.6 41.6001C266.632 41.6446 265.793 42.2505 265.793 43.5235C265.793 44.5741 266.571 45.1911 267.688 45.1911ZM267.994 44.4518C267.288 44.4518 266.788 44.0738 266.788 43.4234C266.788 42.5729 267.449 42.2449 268.772 42.2227L269.623 42.206V43.1899C269.623 43.8292 268.767 44.4518 267.994 44.4518ZM274.65 46.9811C276.557 46.9811 277.48 46.2529 277.48 45.2078C277.48 44.2906 276.802 43.7236 275.601 43.6513C275.073 43.618 274.639 43.5957 274.35 43.5791C273.55 43.5235 273.255 43.4623 273.255 43.2511C273.255 43.0676 273.494 42.8898 274.284 42.8675C274.378 42.8731 274.539 42.8786 274.628 42.8786C276.235 42.8786 277.024 42.0782 277.024 41.0609C277.024 40.8163 276.952 40.5161 276.835 40.2771L277.841 40.0881L277.847 39.1375C277.536 39.2654 276.624 39.6434 276.379 39.7435C275.94 39.4266 275.473 39.2432 274.728 39.2432C273.166 39.2432 272.227 39.9436 272.227 41.0609C272.227 41.7224 272.622 42.3172 273.3 42.6563C272.622 42.8064 272.282 43.1344 272.282 43.4957C272.282 43.9404 272.677 44.1016 272.877 44.2183C272.733 44.324 271.788 44.6408 271.788 45.4691C271.788 46.4419 272.849 46.9811 274.65 46.9811ZM274.662 42.2171C273.767 42.2171 273.255 41.8002 273.255 41.072C273.255 40.2993 273.817 39.8769 274.662 39.8769C275.484 39.8769 276.04 40.2993 276.04 41.072C276.04 41.828 275.484 42.2171 274.662 42.2171ZM274.834 46.3196C273.45 46.3196 272.811 45.9638 272.811 45.3523C272.811 44.8187 273.383 44.4129 273.817 44.4351L275.429 44.5407C276.129 44.5852 276.479 44.9021 276.479 45.3579C276.479 46.0027 275.896 46.3196 274.834 46.3196ZM281.254 45.1911C282.966 45.1911 283.872 43.9849 283.872 42.2283C283.872 40.2938 282.844 39.2209 281.26 39.2209C279.559 39.2209 278.619 40.4272 278.619 42.2283C278.619 44.1461 279.659 45.1911 281.254 45.1911ZM281.26 44.3795C280.109 44.3795 279.642 43.4179 279.642 42.206C279.642 40.8385 280.215 40.027 281.26 40.027C282.388 40.027 282.855 40.9775 282.855 42.206C282.855 43.5568 282.288 44.3795 281.26 44.3795Z" fill="#6C757D"/>
<path d="M46.6919 38.2912H49.8187V46.8171H51.5142V38.2912H54.5299V36.7695H46.6919V38.2912ZM57.7846 46.9561C59.9526 46.9561 61.1616 45.4413 61.1616 43.2595C61.1616 40.9039 59.8483 39.4933 57.7916 39.4933C55.6583 39.4933 54.3868 41.0012 54.3868 43.2595C54.3868 45.5872 55.7278 46.9561 57.7846 46.9561ZM57.7916 45.6706C56.513 45.6706 56.0544 44.5102 56.0544 43.2108C56.0544 41.7655 56.6103 40.7649 57.7916 40.7649C59.0492 40.7649 59.5079 41.8906 59.5079 43.2108C59.5079 44.6353 58.952 45.6706 57.7916 45.6706ZM64.718 46.9561C65.7325 46.9561 66.5316 46.6017 67.0527 45.5247L67.1917 46.8171H68.6161V41.7794C68.6161 40.3341 67.7337 39.4933 65.6838 39.4933C63.9119 39.4933 62.7168 40.2368 62.6404 41.7169H64.0787C64.2663 40.9734 64.9056 40.6815 65.6074 40.6677C66.5455 40.6607 66.9902 41.1193 66.9902 41.8767V42.3631L65.9131 42.3909C63.4116 42.4326 62.3207 43.2317 62.3207 44.8159C62.3207 46.1779 63.3352 46.9561 64.718 46.9561ZM65.2669 45.8096C64.5026 45.8096 63.9328 45.3788 63.9328 44.6422C63.9328 43.6833 64.8014 43.329 66.1077 43.3151L66.9902 43.3012V44.4338C66.9832 45.1356 66.1007 45.8096 65.2669 45.8096ZM73.1006 46.9561C74.8724 46.9561 76.0051 46.1431 76.0051 44.7534C76.0051 44.0794 75.6576 43.1066 74.1845 42.7383L72.8921 42.4256C72.1069 42.2589 71.7247 42.0296 71.7247 41.5918C71.7247 40.9664 72.2876 40.6607 73.0867 40.6607C73.858 40.6607 74.3583 41.029 74.4625 41.6474H75.9008C75.8661 40.2646 74.7752 39.4933 73.1006 39.4933C71.2036 39.4933 70.21 40.4314 70.2169 41.7099C70.2239 42.8426 71.016 43.4193 72.2389 43.6903L73.6009 44.003C74.254 44.1419 74.532 44.399 74.532 44.8507C74.532 45.4691 73.9552 45.761 73.0936 45.761C72.371 45.761 71.6553 45.4344 71.4676 44.6353H69.9807C70.2169 46.2613 71.5997 46.9561 73.1006 46.9561ZM81.47 40.8275V39.6254H79.8649V37.4991H78.6489L78.225 39.6323H77.009V40.8275H78.1764V45.0105C78.1764 46.164 78.6211 46.8727 80.3304 46.8727C80.9489 46.8727 81.3102 46.8032 81.5048 46.7268V45.6567H80.6153C80.0664 45.6567 79.8718 45.5872 79.8718 44.948L79.8649 40.8275H81.47ZM82.3983 38.2912H85.5252V46.8171H87.2206V38.2912H90.2363V36.7695H82.3983V38.2912ZM93.1678 36.7765H91.4932V38.3746H93.1678V36.7765ZM93.14 39.6323H91.521V46.8171H93.14V39.6323ZM99.0993 40.8275V39.6254H97.4942V37.4991H96.2782L95.8543 39.6323H94.6383V40.8275H95.8057V45.0105C95.8057 46.164 96.2504 46.8727 97.9597 46.8727C98.5782 46.8727 98.9395 46.8032 99.134 46.7268V45.6567H98.2446C97.6957 45.6567 97.5011 45.5872 97.5011 44.948L97.4942 40.8275H99.0993ZM102.765 46.9214C102.995 46.9214 103.273 46.8658 103.523 46.7824V45.7193L103.161 45.7054C102.592 45.6567 102.348 45.3093 102.348 44.6839V36.4916H100.695V44.8785C100.695 45.8999 100.903 46.9214 102.765 46.9214ZM106.081 43.6138H111.049V43.0997C111.049 40.9317 109.909 39.4933 107.79 39.4933C105.636 39.4933 104.392 41.0985 104.392 43.3012C104.392 45.5594 105.81 46.9561 107.887 46.9561C109.34 46.9561 110.771 46.1223 111.021 44.6214H109.479C109.284 45.3579 108.652 45.7054 107.853 45.7054C106.692 45.7054 106.074 44.8368 106.081 43.6138ZM106.074 42.5646C106.074 41.6405 106.664 40.7093 107.783 40.7093C108.909 40.7093 109.451 41.5223 109.451 42.5646H106.074Z" fill="#6C757D"/>
<path d="M35.9771 47.8629C36.8083 47.8629 37.4733 47.1979 37.4733 46.3429H34.4571C34.4571 47.1979 35.1221 47.8629 35.9771 47.8629ZM41.0833 44.3241C40.6321 43.8254 39.7533 43.0891 39.7533 40.6429C39.7533 38.8141 38.4708 37.3416 36.7133 36.9616V36.4629C36.7133 36.0591 36.3808 35.7029 35.9771 35.7029C35.5496 35.7029 35.2171 36.0591 35.2171 36.4629V36.9616C33.4596 37.3416 32.1771 38.8141 32.1771 40.6429C32.1771 43.0891 31.2983 43.8254 30.8471 44.3241C30.7046 44.4666 30.6333 44.6566 30.6571 44.8229C30.6571 45.2266 30.9421 45.5829 31.4171 45.5829H40.5133C40.9883 45.5829 41.2733 45.2266 41.2971 44.8229C41.2971 44.6566 41.2258 44.4666 41.0833 44.3241Z" fill="#6C757D"/>
</g>
<path d="M19.4743 25.8686H300.526V24.1314H19.4743V25.8686ZM303.131 28.4743V90.6457H304.869V28.4743H303.131ZM300.526 93.2514H19.4743V94.9886H300.526V93.2514ZM16.8686 90.6457V28.4743H15.1314V90.6457H16.8686ZM19.4743 93.2514C18.0352 93.2514 16.8686 92.0848 16.8686 90.6457H15.1314C15.1314 93.0442 17.0758 94.9886 19.4743 94.9886V93.2514ZM303.131 90.6457C303.131 92.0848 301.965 93.2514 300.526 93.2514V94.9886C302.924 94.9886 304.869 93.0442 304.869 90.6457H303.131ZM300.526 25.8686C301.965 25.8686 303.131 27.0352 303.131 28.4743H304.869C304.869 26.0758 302.924 24.1314 300.526 24.1314V25.8686ZM19.4743 24.1314C17.0758 24.1314 15.1314 26.0758 15.1314 28.4743H16.8686C16.8686 27.0352 18.0352 25.8686 19.4743 25.8686V24.1314Z" fill="#DEE2E6"/>
</g>
<g style="mix-blend-mode:color">
<rect width="320" height="120" fill="#808080"/>
</g>
<g style="mix-blend-mode:color">
<rect width="320" height="120" fill="#00284D"/>
</g>
<defs>
<filter id="filter0_d_454_542" x="9.05143" y="19.7886" width="301.897" height="83.0171" filterUnits="userSpaceOnUse" color-interpolation-filters="sRGB">
<feFlood flood-opacity="0" result="BackgroundImageFix"/>
<feColorMatrix in="SourceAlpha" type="matrix" values="0 0 0 0 0 0 0 0 0 0 0 0 0 0 0 0 0 0 127 0" result="hardAlpha"/>
<feOffset dy="1.73714"/>
<feGaussianBlur stdDeviation="3.47429"/>
<feColorMatrix type="matrix" values="0 0 0 0 0 0 0 0 0 0 0 0 0 0 0 0 0 0 0.25 0"/>
<feBlend mode="normal" in2="BackgroundImageFix" result="effect1_dropShadow_454_542"/>
<feBlend mode="normal" in="SourceGraphic" in2="effect1_dropShadow_454_542" result="shape"/>
</filter>
<clipPath id="clip0_454_542">
<rect width="286.263" height="32.1371" fill="white" transform="translate(16.8685 25.8685)"/>
</clipPath>
</defs>
</svg>
