<svg width="320" height="120" viewBox="0 0 320 120" fill="none" xmlns="http://www.w3.org/2000/svg">
<rect width="320" height="120" fill="#C0CEDB"/>
<rect x="46.5" y="40.5" width="227" height="39" rx="3.5" fill="white"/>
<rect x="46.5" y="40.5" width="227" height="39" rx="3.5" stroke="#6C757D"/>
<line x1="95.5" y1="41" x2="95.5" y2="79" stroke="#6C757D"/>
<line x1="138.5" y1="41" x2="138.5" y2="79" stroke="#6C757D"/>
<line x1="181.5" y1="41" x2="181.5" y2="79" stroke="#6C757D"/>
<line x1="224.5" y1="41" x2="224.5" y2="79" stroke="#6C757D"/>
<path d="M113.611 66V64.816H116.731V55.824H116.619L113.803 58.448L113.019 57.6L115.979 54.832H118.075V64.816H120.955V66H113.611Z" fill="#185AE3"/>
<path d="M163.731 66H156.403V64.624L160.051 61.264C160.574 60.784 161.011 60.2773 161.363 59.744C161.715 59.2 161.891 58.656 161.891 58.112V57.92C161.891 57.3013 161.72 56.8 161.379 56.416C161.038 56.032 160.52 55.84 159.827 55.84C159.486 55.84 159.187 55.888 158.931 55.984C158.675 56.08 158.451 56.2133 158.259 56.384C158.078 56.5547 157.923 56.7573 157.795 56.992C157.678 57.216 157.582 57.4613 157.507 57.728L156.307 57.264C156.414 56.9333 156.558 56.6133 156.739 56.304C156.931 55.984 157.166 55.7013 157.443 55.456C157.731 55.2107 158.072 55.0133 158.467 54.864C158.872 54.7147 159.347 54.64 159.891 54.64C160.435 54.64 160.92 54.72 161.347 54.88C161.774 55.04 162.131 55.264 162.419 55.552C162.707 55.84 162.926 56.1813 163.075 56.576C163.235 56.9707 163.315 57.408 163.315 57.888C163.315 58.3253 163.251 58.7307 163.123 59.104C163.006 59.4773 162.84 59.8347 162.627 60.176C162.414 60.5067 162.152 60.832 161.843 61.152C161.544 61.472 161.219 61.792 160.867 62.112L157.859 64.816H163.731V66Z" fill="#185AE3"/>
<path d="M201.379 59.568C202.136 59.568 202.702 59.3973 203.075 59.056C203.459 58.704 203.651 58.256 203.651 57.712V57.6C203.651 57.0133 203.464 56.576 203.091 56.288C202.728 55.9893 202.248 55.84 201.651 55.84C201.075 55.84 200.606 55.968 200.243 56.224C199.88 56.4693 199.582 56.8053 199.347 57.232L198.355 56.464C198.494 56.24 198.659 56.0213 198.851 55.808C199.054 55.584 199.288 55.3867 199.555 55.216C199.822 55.0453 200.131 54.9067 200.483 54.8C200.835 54.6933 201.235 54.64 201.683 54.64C202.152 54.64 202.595 54.704 203.011 54.832C203.427 54.9493 203.784 55.1307 204.083 55.376C204.392 55.6107 204.632 55.904 204.803 56.256C204.984 56.608 205.075 57.008 205.075 57.456C205.075 57.8187 205.016 58.144 204.899 58.432C204.792 58.72 204.643 58.9707 204.451 59.184C204.259 59.3973 204.03 59.5787 203.763 59.728C203.507 59.8773 203.23 59.9893 202.931 60.064V60.128C203.23 60.192 203.518 60.2987 203.795 60.448C204.083 60.5867 204.334 60.7733 204.547 61.008C204.771 61.232 204.947 61.5093 205.075 61.84C205.214 62.16 205.283 62.528 205.283 62.944C205.283 63.424 205.192 63.8667 205.011 64.272C204.83 64.6667 204.574 65.008 204.243 65.296C203.912 65.5733 203.512 65.792 203.043 65.952C202.574 66.112 202.056 66.192 201.491 66.192C201.011 66.192 200.584 66.1387 200.211 66.032C199.838 65.9253 199.507 65.7813 199.219 65.6C198.931 65.4187 198.675 65.216 198.451 64.992C198.238 64.768 198.046 64.5333 197.875 64.288L198.883 63.52C199.022 63.744 199.171 63.9467 199.331 64.128C199.502 64.3093 199.688 64.464 199.891 64.592C200.094 64.72 200.323 64.8213 200.579 64.896C200.835 64.96 201.134 64.992 201.475 64.992C202.264 64.992 202.862 64.816 203.267 64.464C203.672 64.1013 203.875 63.5893 203.875 62.928V62.8C203.875 62.1387 203.672 61.632 203.267 61.28C202.862 60.9173 202.264 60.736 201.475 60.736H200.163V59.568H201.379Z" fill="#185AE3"/>
<path d="M69.957 59.0195C69.5703 59.4492 69.5703 60.0938 69.957 60.4805L75.8008 66.3242C76.2305 66.7539 76.875 66.7539 77.2617 66.3242L78.25 65.3789C78.6367 64.9492 78.6367 64.3047 78.25 63.918L74.082 59.75L78.25 55.625C78.6367 55.2383 78.6367 54.5508 78.25 54.1641L77.2617 53.1758C76.875 52.7891 76.2305 52.7891 75.8008 53.1758L69.957 59.0195ZM61.707 60.4805L67.5508 66.3242C67.9805 66.7539 68.625 66.7539 69.0117 66.3242L70 65.3789C70.3867 64.9492 70.3867 64.3047 70 63.918L65.832 59.75L70 55.625C70.3867 55.2383 70.3867 54.5508 70 54.1641L69.0117 53.1758C68.625 52.7891 67.9805 52.7891 67.5508 53.1758L61.707 59.0195C61.3203 59.4492 61.3203 60.0938 61.707 60.4805Z" fill="#185AE3"/>
<path d="M249 60.4805C249.387 60.0938 249.387 59.4492 249 59.0195L243.156 53.1758C242.727 52.7891 242.082 52.7891 241.695 53.1758L240.707 54.1641C240.32 54.5938 240.32 55.2383 240.707 55.625L244.875 59.793L240.707 63.918C240.32 64.3047 240.32 64.9492 240.707 65.3789L241.695 66.3242C242.082 66.7539 242.727 66.7539 243.156 66.3242L249 60.4805ZM257.25 59.0195L251.406 53.1758C250.977 52.7891 250.332 52.7891 249.945 53.1758L248.957 54.1641C248.57 54.5508 248.57 55.2383 248.957 55.625L253.125 59.75L248.957 63.918C248.57 64.3047 248.57 64.9492 248.957 65.3789L249.945 66.3242C250.332 66.7539 251.02 66.7539 251.406 66.3242L257.25 60.4805C257.637 60.0938 257.637 59.4492 257.25 59.0195Z" fill="#185AE3"/>
<g style="mix-blend-mode:color">
<rect width="320" height="120" fill="#808080"/>
</g>
<g style="mix-blend-mode:color">
<rect width="320" height="120" fill="#00284D"/>
</g>
</svg>
