<svg width="320" height="120" viewBox="0 0 320 120" fill="none" xmlns="http://www.w3.org/2000/svg">
<rect width="320" height="120" fill="#C0CEDB"/>
<g filter="url(#filter0_d)">
<rect x="65.5" y="41" width="98" height="38" rx="4" fill="#FE9903"/>
<path d="M85.5 52.25C81.2188 52.25 77.75 55.7188 77.75 60C77.75 64.2812 81.2188 67.75 85.5 67.75C89.7812 67.75 93.25 64.2812 93.25 60C93.25 55.7188 89.7812 52.25 85.5 52.25ZM88 57.5C88.5312 57.5 89 57.9688 89 58.5C89 59.0625 88.5312 59.5 88 59.5C87.4375 59.5 87 59.0625 87 58.5C87 57.9688 87.4375 57.5 88 57.5ZM83 57.5C83.5312 57.5 84 57.9688 84 58.5C84 59.0625 83.5312 59.5 83 59.5C82.4375 59.5 82 59.0625 82 58.5C82 57.9688 82.4375 57.5 83 57.5ZM89.0625 62.8438C88.1875 63.9062 86.875 64.5 85.5 64.5C84.0938 64.5 82.7812 63.9062 81.9062 62.8438C81.4688 62.3125 82.25 61.6875 82.6562 62.1875C83.375 63.0312 84.4062 63.5 85.5 63.5C86.5938 63.5 87.5938 63.0312 88.3125 62.1875C88.7188 61.6875 89.5 62.3125 89.0625 62.8438Z" fill="black"/>
<path d="M103.169 66H107.009C109.961 66 111.457 64.984 111.457 62.888C111.457 61.584 110.849 60.496 109.025 60.104C110.609 59.544 111.169 58.672 111.169 57.448C111.169 55.496 109.697 54.432 106.889 54.432H103.169V66ZM104.649 59.52V55.656H106.961C108.601 55.656 109.737 56.288 109.737 57.632C109.737 59.096 108.369 59.52 107.169 59.52H104.649ZM104.649 64.768V60.776H107.169C108.721 60.776 109.953 61.376 109.953 62.824C109.953 64.144 108.921 64.768 106.993 64.768H104.649ZM116.639 66.16C117.807 66.168 118.815 65.656 119.119 64.416L119.271 66H120.447V57.728H118.975V63.112C118.975 64.368 118.167 65.008 116.951 65.008C115.599 65.008 114.943 64.272 114.943 63.192V57.728H113.463V63.344C113.463 65.208 114.919 66.144 116.639 66.16ZM127.088 58.808V57.72H125.224V55.32H124.136L123.776 57.728H122.392V58.808H123.736V64C123.736 65.328 124.192 66.04 125.912 66.04C126.512 66.04 126.928 65.984 127.136 65.904V64.912H126.232C125.456 64.912 125.224 64.832 125.224 63.952V58.808H127.088ZM132.51 58.808V57.72H130.646V55.32H129.558L129.198 57.728H127.814V58.808H129.158V64C129.158 65.328 129.614 66.04 131.334 66.04C131.934 66.04 132.35 65.984 132.558 65.904V64.912H131.654C130.878 64.912 130.646 64.832 130.646 63.952V58.808H132.51ZM137.614 66.16C140.078 66.16 141.382 64.424 141.382 61.896C141.382 59.112 139.902 57.568 137.622 57.568C135.174 57.568 133.822 59.304 133.822 61.896C133.822 64.656 135.318 66.16 137.614 66.16ZM137.622 64.992C135.966 64.992 135.294 63.608 135.294 61.864C135.294 59.896 136.118 58.728 137.622 58.728C139.246 58.728 139.918 60.096 139.918 61.864C139.918 63.808 139.102 64.992 137.622 64.992ZM143.349 66H144.821V60.472C144.821 59.36 145.845 58.832 146.965 58.832C148.045 58.832 148.789 59.448 148.789 60.736V66H150.269V60.592C150.269 58.512 148.941 57.608 147.373 57.608C146.045 57.608 145.189 58.24 144.781 58.928V57.728H143.349V66Z" fill="black"/>
</g>
<g filter="url(#filter1_d)">
<path d="M171.5 41C171.5 38.2386 173.739 36 176.5 36H289.5C292.261 36 294.5 38.2386 294.5 41V79C294.5 81.7614 292.261 84 289.5 84H176.5C173.739 84 171.5 81.7614 171.5 79V41Z" fill="#004BA1"/>
<path d="M197.5 50.8125C192.148 50.8125 187.812 55.1484 187.812 60.5C187.812 65.8516 192.148 70.1875 197.5 70.1875C202.852 70.1875 207.188 65.8516 207.188 60.5C207.188 55.1484 202.852 50.8125 197.5 50.8125ZM200.625 57.375C201.289 57.375 201.875 57.9609 201.875 58.625C201.875 59.3281 201.289 59.875 200.625 59.875C199.922 59.875 199.375 59.3281 199.375 58.625C199.375 57.9609 199.922 57.375 200.625 57.375ZM194.375 57.375C195.039 57.375 195.625 57.9609 195.625 58.625C195.625 59.3281 195.039 59.875 194.375 59.875C193.672 59.875 193.125 59.3281 193.125 58.625C193.125 57.9609 193.672 57.375 194.375 57.375ZM201.953 64.0547C200.859 65.3828 199.219 66.125 197.5 66.125C195.742 66.125 194.102 65.3828 193.008 64.0547C192.461 63.3906 193.438 62.6094 193.945 63.2344C194.844 64.2891 196.133 64.875 197.5 64.875C198.867 64.875 200.117 64.2891 201.016 63.2344C201.523 62.6094 202.5 63.3906 201.953 64.0547Z" fill="white"/>
<path d="M217.836 67H222.636C226.326 67 228.196 65.73 228.196 63.11C228.196 61.48 227.436 60.12 225.156 59.63C227.136 58.93 227.836 57.84 227.836 56.31C227.836 53.87 225.996 52.54 222.486 52.54H217.836V67ZM219.686 58.9V54.07H222.576C224.626 54.07 226.046 54.86 226.046 56.54C226.046 58.37 224.336 58.9 222.836 58.9H219.686ZM219.686 65.46V60.47H222.836C224.776 60.47 226.316 61.22 226.316 63.03C226.316 64.68 225.026 65.46 222.616 65.46H219.686ZM234.674 67.2C236.134 67.21 237.394 66.57 237.774 65.02L237.964 67H239.434V56.66H237.594V63.39C237.594 64.96 236.584 65.76 235.064 65.76C233.374 65.76 232.554 64.84 232.554 63.49V56.66H230.704V63.68C230.704 66.01 232.524 67.18 234.674 67.2ZM247.735 58.01V56.65H245.405V53.65H244.045L243.595 56.66H241.865V58.01H243.545V64.5C243.545 66.16 244.115 67.05 246.265 67.05C247.015 67.05 247.535 66.98 247.795 66.88V65.64H246.665C245.695 65.64 245.405 65.54 245.405 64.44V58.01H247.735ZM254.513 58.01V56.65H252.183V53.65H250.823L250.373 56.66H248.643V58.01H250.323V64.5C250.323 66.16 250.893 67.05 253.043 67.05C253.793 67.05 254.313 66.98 254.573 66.88V65.64H253.443C252.473 65.64 252.183 65.54 252.183 64.44V58.01H254.513ZM260.893 67.2C263.973 67.2 265.603 65.03 265.603 61.87C265.603 58.39 263.753 56.46 260.903 56.46C257.843 56.46 256.153 58.63 256.153 61.87C256.153 65.32 258.023 67.2 260.893 67.2ZM260.903 65.74C258.833 65.74 257.993 64.01 257.993 61.83C257.993 59.37 259.023 57.91 260.903 57.91C262.933 57.91 263.773 59.62 263.773 61.83C263.773 64.26 262.753 65.74 260.903 65.74ZM268.061 67H269.901V60.09C269.901 58.7 271.181 58.04 272.581 58.04C273.931 58.04 274.861 58.81 274.861 60.42V67H276.711V60.24C276.711 57.64 275.051 56.51 273.091 56.51C271.431 56.51 270.361 57.3 269.851 58.16V56.66H268.061V67Z" fill="white"/>
</g>
<g filter="url(#filter2_d)">
<path d="M25 49C25 46.7909 26.7909 45 29 45H53C55.2091 45 57 46.7909 57 49V72C57 74.2091 55.2091 76 53 76H29C26.7909 76 25 74.2091 25 72V49Z" fill="#0D6211"/>
<path d="M41 52.75C36.7188 52.75 33.25 56.2188 33.25 60.5C33.25 64.7812 36.7188 68.25 41 68.25C45.2812 68.25 48.75 64.7812 48.75 60.5C48.75 56.2188 45.2812 52.75 41 52.75ZM43.5 58C44.0312 58 44.5 58.4688 44.5 59C44.5 59.5625 44.0312 60 43.5 60C42.9375 60 42.5 59.5625 42.5 59C42.5 58.4688 42.9375 58 43.5 58ZM38.5 58C39.0312 58 39.5 58.4688 39.5 59C39.5 59.5625 39.0312 60 38.5 60C37.9375 60 37.5 59.5625 37.5 59C37.5 58.4688 37.9375 58 38.5 58ZM44.5625 63.3438C43.6875 64.4062 42.375 65 41 65C39.5938 65 38.2812 64.4062 37.4062 63.3438C36.9688 62.8125 37.75 62.1875 38.1562 62.6875C38.875 63.5312 39.9062 64 41 64C42.0938 64 43.0938 63.5312 43.8125 62.6875C44.2188 62.1875 45 62.8125 44.5625 63.3438Z" fill="white"/>
</g>
<g style="mix-blend-mode:color">
<rect width="320" height="120" fill="#808080"/>
</g>
<g style="mix-blend-mode:color">
<rect width="320" height="120" fill="#00284D"/>
</g>
<defs>
<filter id="filter0_d" x="63.5" y="41" width="102" height="44" filterUnits="userSpaceOnUse" color-interpolation-filters="sRGB">
<feFlood flood-opacity="0" result="BackgroundImageFix"/>
<feColorMatrix in="SourceAlpha" type="matrix" values="0 0 0 0 0 0 0 0 0 0 0 0 0 0 0 0 0 0 127 0"/>
<feOffset dy="4"/>
<feGaussianBlur stdDeviation="1"/>
<feColorMatrix type="matrix" values="0 0 0 0 0 0 0 0 0 0 0 0 0 0 0 0 0 0 0.1 0"/>
<feBlend mode="normal" in2="BackgroundImageFix" result="effect1_dropShadow"/>
<feBlend mode="normal" in="SourceGraphic" in2="effect1_dropShadow" result="shape"/>
</filter>
<filter id="filter1_d" x="169.5" y="36" width="127" height="54" filterUnits="userSpaceOnUse" color-interpolation-filters="sRGB">
<feFlood flood-opacity="0" result="BackgroundImageFix"/>
<feColorMatrix in="SourceAlpha" type="matrix" values="0 0 0 0 0 0 0 0 0 0 0 0 0 0 0 0 0 0 127 0"/>
<feOffset dy="4"/>
<feGaussianBlur stdDeviation="1"/>
<feColorMatrix type="matrix" values="0 0 0 0 0 0 0 0 0 0 0 0 0 0 0 0 0 0 0.1 0"/>
<feBlend mode="normal" in2="BackgroundImageFix" result="effect1_dropShadow"/>
<feBlend mode="normal" in="SourceGraphic" in2="effect1_dropShadow" result="shape"/>
</filter>
<filter id="filter2_d" x="23" y="45" width="36" height="37" filterUnits="userSpaceOnUse" color-interpolation-filters="sRGB">
<feFlood flood-opacity="0" result="BackgroundImageFix"/>
<feColorMatrix in="SourceAlpha" type="matrix" values="0 0 0 0 0 0 0 0 0 0 0 0 0 0 0 0 0 0 127 0"/>
<feOffset dy="4"/>
<feGaussianBlur stdDeviation="1"/>
<feColorMatrix type="matrix" values="0 0 0 0 0 0 0 0 0 0 0 0 0 0 0 0 0 0 0.1 0"/>
<feBlend mode="normal" in2="BackgroundImageFix" result="effect1_dropShadow"/>
<feBlend mode="normal" in="SourceGraphic" in2="effect1_dropShadow" result="shape"/>
</filter>
</defs>
</svg>
