<svg width="320" height="120" viewBox="0 0 320 120" fill="none" xmlns="http://www.w3.org/2000/svg">
<rect width="320" height="120" fill="#C0CEDB"/>
<rect width="276" height="57.4102" transform="translate(22 31)" fill="#00284D"/>
<path d="M162.525 62.358H163.532V65.1094H163.933V62.358H164.884V61.9914H162.525V62.358ZM165.316 65.1094H165.713V63.6216C165.713 63.3218 165.985 63.1774 166.287 63.1774C166.58 63.1774 166.78 63.3305 166.78 63.5957V65.1094H167.179V63.5159C167.179 63.1084 166.836 62.8518 166.401 62.8518C166.043 62.8518 165.816 63.0243 165.704 63.2076V61.9052H165.316V65.1094ZM168.209 61.9936H167.801V62.4076H168.209V61.9936ZM168.198 62.8798H167.812V65.1094H168.198V62.8798ZM169.669 65.1525C170.212 65.1525 170.527 64.9002 170.527 64.4905C170.527 64.2706 170.415 63.9989 170.005 63.8911L169.556 63.779C169.311 63.7186 169.181 63.6388 169.181 63.4792C169.181 63.2421 169.377 63.1299 169.662 63.1299C169.938 63.1299 170.102 63.2636 170.132 63.4771H170.486C170.471 63.0588 170.149 62.8367 169.666 62.8367C169.101 62.8367 168.815 63.1127 168.817 63.503C168.819 63.835 169.05 64.0054 169.41 64.0916L169.871 64.2059C170.074 64.2533 170.169 64.3482 170.169 64.5121C170.169 64.745 169.968 64.8549 169.666 64.8549C169.384 64.8549 169.16 64.7212 169.104 64.4603H168.741C168.806 64.9412 169.203 65.1525 169.669 65.1525ZM172.492 61.9936H172.084V62.4076H172.492V61.9936ZM172.481 62.8798H172.095V65.1094H172.481V62.8798ZM173.952 65.1525C174.495 65.1525 174.81 64.9002 174.81 64.4905C174.81 64.2706 174.698 63.9989 174.288 63.8911L173.839 63.779C173.594 63.7186 173.464 63.6388 173.464 63.4792C173.464 63.2421 173.661 63.1299 173.945 63.1299C174.221 63.1299 174.385 63.2636 174.415 63.4771H174.769C174.754 63.0588 174.432 62.8367 173.949 62.8367C173.385 62.8367 173.098 63.1127 173.1 63.503C173.102 63.835 173.333 64.0054 173.693 64.0916L174.154 64.2059C174.357 64.2533 174.452 64.3482 174.452 64.5121C174.452 64.745 174.251 64.8549 173.949 64.8549C173.667 64.8549 173.443 64.7212 173.387 64.4603H173.024C173.089 64.9412 173.486 65.1525 173.952 65.1525ZM177.169 65.1525C177.713 65.1525 178.027 64.9002 178.027 64.4905C178.027 64.2706 177.915 63.9989 177.506 63.8911L177.057 63.779C176.811 63.7186 176.682 63.6388 176.682 63.4792C176.682 63.2421 176.878 63.1299 177.163 63.1299C177.439 63.1299 177.603 63.2636 177.633 63.4771H177.986C177.971 63.0588 177.65 62.8367 177.167 62.8367C176.602 62.8367 176.315 63.1127 176.317 63.503C176.32 63.835 176.55 64.0054 176.91 64.0916L177.372 64.2059C177.575 64.2533 177.669 64.3482 177.669 64.5121C177.669 64.745 177.469 64.8549 177.167 64.8549C176.885 64.8549 176.66 64.7212 176.604 64.4603H176.242C176.307 64.9412 176.703 65.1525 177.169 65.1525ZM178.553 65.1094H178.949V63.6194C178.949 63.3067 179.223 63.1752 179.452 63.1752C179.659 63.1752 179.905 63.3089 179.905 63.5741V65.1094H180.301V63.6194C180.301 63.2809 180.593 63.1752 180.802 63.1752C181.037 63.1752 181.259 63.2873 181.259 63.6906V65.1094H181.66V63.6517C181.66 62.9919 181.248 62.8367 180.933 62.8367C180.638 62.8367 180.392 62.9833 180.254 63.2011C180.138 62.9639 179.855 62.8367 179.611 62.8367C179.264 62.8367 179.059 63.007 178.937 63.2032V62.8798H178.553V65.1094ZM182.901 65.1525C183.22 65.1525 183.494 65.0382 183.666 64.6911L183.697 65.1094H184.037V63.5526C184.037 63.0868 183.748 62.8367 183.168 62.8367C182.627 62.8367 182.295 63.076 182.271 63.5094H182.623C182.677 63.2442 182.892 63.1321 183.149 63.1299C183.492 63.1299 183.651 63.3024 183.651 63.5741V63.7488L183.255 63.7596C182.491 63.7768 182.166 64.0118 182.166 64.5056C182.166 64.9132 182.468 65.1525 182.901 65.1525ZM183.02 64.8657C182.746 64.8657 182.552 64.7191 182.552 64.4668C182.552 64.1369 182.808 64.0097 183.321 64.0011L183.651 63.9946V64.3762C183.651 64.6242 183.319 64.8657 183.02 64.8657ZM185.222 65.1374C185.278 65.1374 185.356 65.1245 185.423 65.1029V64.8442L185.302 64.842C185.144 64.8312 185.052 64.7234 185.052 64.497V61.9052H184.659V64.5358C184.659 64.8485 184.741 65.1374 185.222 65.1374ZM186.464 65.1374C186.521 65.1374 186.598 65.1245 186.665 65.1029V64.8442L186.544 64.842C186.387 64.8312 186.294 64.7234 186.294 64.497V61.9052H185.902V64.5358C185.902 64.8485 185.984 65.1374 186.464 65.1374ZM187.391 64.0873H188.989V63.9407C188.989 63.2636 188.639 62.8367 188.012 62.8367C187.363 62.8367 186.988 63.3132 186.988 64.0162C186.988 64.7277 187.417 65.1525 188.04 65.1525C188.473 65.1525 188.892 64.9132 188.974 64.4582H188.598C188.542 64.7105 188.318 64.8442 188.034 64.8442C187.6 64.8442 187.391 64.5099 187.391 64.0873ZM187.393 63.8178C187.391 63.4857 187.589 63.1386 188.01 63.1386C188.413 63.1386 188.605 63.434 188.605 63.8178H187.393ZM189.54 65.1094H189.937V63.7229C189.937 63.352 190.226 63.2011 190.582 63.2248C190.627 63.2248 190.707 63.2313 190.75 63.2507V62.8647C190.713 62.8453 190.644 62.8367 190.58 62.8367C190.297 62.8367 190.032 62.9876 189.92 63.3089V62.8798H189.54V65.1094ZM193.408 63.1709V62.8777H192.905V62.2308H192.612L192.515 62.8798H192.142V63.1709H192.504V64.5703C192.504 64.9282 192.627 65.1202 193.091 65.1202C193.253 65.1202 193.365 65.1051 193.421 65.0835V64.8161H193.177C192.968 64.8161 192.905 64.7946 192.905 64.5574V63.1709H193.408ZM194.184 64.0873H195.782V63.9407C195.782 63.2636 195.432 62.8367 194.805 62.8367C194.156 62.8367 193.781 63.3132 193.781 64.0162C193.781 64.7277 194.21 65.1525 194.833 65.1525C195.266 65.1525 195.685 64.9132 195.767 64.4582H195.392C195.335 64.7105 195.111 64.8442 194.827 64.8442C194.393 64.8442 194.184 64.5099 194.184 64.0873ZM194.186 63.8178C194.184 63.4857 194.382 63.1386 194.803 63.1386C195.206 63.1386 195.398 63.434 195.398 63.8178H194.186ZM198.15 65.1094L197.292 63.9515L198.086 62.8798H197.65L197.07 63.6625L196.49 62.8798H196.057L196.846 63.9515L195.988 65.1094H196.423L197.068 64.2361L197.717 65.1094H198.15ZM199.649 63.1709V62.8777H199.147V62.2308H198.853L198.756 62.8798H198.383V63.1709H198.746V64.5703C198.746 64.9282 198.869 65.1202 199.332 65.1202C199.494 65.1202 199.606 65.1051 199.662 65.0835V64.8161H199.418C199.209 64.8161 199.147 64.7946 199.147 64.5574V63.1709H199.649ZM204.145 62.8798H203.772L203.282 64.5897H203.248L202.726 62.8798H202.424L201.922 64.594H201.887L201.378 62.8798H201.008L201.698 65.1094H202.086L202.571 63.4642L203.078 65.1094H203.47L204.145 62.8798ZM204.6 65.1094H204.997V63.6216C204.997 63.3218 205.269 63.1774 205.571 63.1774C205.864 63.1774 206.065 63.3305 206.065 63.5957V65.1094H206.463V63.5159C206.463 63.1084 206.121 62.8518 205.685 62.8518C205.327 62.8518 205.101 63.0243 204.989 63.2076V61.9052H204.6V65.1094ZM207.493 61.9936H207.085V62.4076H207.493V61.9936ZM207.482 62.8798H207.096V65.1094H207.482V62.8798ZM209.048 62.8367C208.39 62.8367 208.021 63.3089 208.021 64.0032C208.021 64.7514 208.444 65.1525 209.048 65.1525C209.52 65.1525 209.882 64.87 209.94 64.4215H209.593C209.554 64.6458 209.36 64.8485 209.054 64.8485C208.627 64.8485 208.403 64.5142 208.403 63.9989C208.403 63.4297 208.668 63.158 209.05 63.158C209.356 63.158 209.55 63.3499 209.589 63.5849H209.942C209.882 63.1299 209.526 62.8367 209.048 62.8367ZM210.467 65.1094H210.864V63.6216C210.864 63.3218 211.135 63.1774 211.437 63.1774C211.73 63.1774 211.931 63.3305 211.931 63.5957V65.1094H212.33V63.5159C212.33 63.1084 211.987 62.8518 211.552 62.8518C211.194 62.8518 210.967 63.0243 210.855 63.2076V61.9052H210.467V65.1094ZM214.239 64.0873H215.837V63.9407C215.837 63.2636 215.487 62.8367 214.86 62.8367C214.211 62.8367 213.836 63.3132 213.836 64.0162C213.836 64.7277 214.265 65.1525 214.888 65.1525C215.321 65.1525 215.74 64.9132 215.822 64.4582H215.446C215.39 64.7105 215.166 64.8442 214.881 64.8442C214.448 64.8442 214.239 64.5099 214.239 64.0873ZM214.241 63.8178C214.239 63.4857 214.437 63.1386 214.858 63.1386C215.261 63.1386 215.453 63.434 215.453 63.8178H214.241ZM218.205 65.1094L217.347 63.9515L218.141 62.8798H217.705L217.125 63.6625L216.545 62.8798H216.112L216.901 63.9515L216.043 65.1094H216.478L217.123 64.2361L217.772 65.1094H218.205ZM218.671 65.8037H219.072V64.7062C219.165 64.8959 219.374 65.1525 219.773 65.1525C220.359 65.1525 220.708 64.7299 220.708 63.9644C220.708 63.1968 220.338 62.8367 219.805 62.8367C219.395 62.8367 219.173 63.0847 219.072 63.2679L219.068 62.8798H218.671V65.8037ZM219.697 64.842C219.283 64.842 219.068 64.4582 219.068 63.9773C219.068 63.4857 219.283 63.1472 219.697 63.1472C220.105 63.1472 220.322 63.4706 220.322 63.9773C220.322 64.5703 220.064 64.842 219.697 64.842ZM221.803 65.1374C221.859 65.1374 221.936 65.1245 222.003 65.1029V64.8442L221.882 64.842C221.725 64.8312 221.632 64.7234 221.632 64.497V61.9052H221.24V64.5358C221.24 64.8485 221.322 65.1374 221.803 65.1374ZM223.15 65.1525C223.469 65.1525 223.743 65.0382 223.915 64.6911L223.945 65.1094H224.286V63.5526C224.286 63.0868 223.997 62.8367 223.417 62.8367C222.876 62.8367 222.544 63.076 222.52 63.5094H222.871C222.925 63.2442 223.141 63.1321 223.398 63.1299C223.74 63.1299 223.9 63.3024 223.9 63.5741V63.7488L223.503 63.7596C222.74 63.7768 222.414 64.0118 222.414 64.5056C222.414 64.9132 222.716 65.1525 223.15 65.1525ZM223.268 64.8657C222.994 64.8657 222.8 64.7191 222.8 64.4668C222.8 64.1369 223.057 64.0097 223.57 64.0011L223.9 63.9946V64.3762C223.9 64.6242 223.568 64.8657 223.268 64.8657ZM225.315 61.9936H224.908V62.4076H225.315V61.9936ZM225.305 62.8798H224.919V65.1094H225.305V62.8798ZM226.003 65.1094H226.4V63.6194C226.4 63.3197 226.676 63.1774 226.978 63.1774C227.269 63.1774 227.469 63.3434 227.469 63.6906V65.1094H227.868V63.6517C227.868 63.0911 227.51 62.8475 227.087 62.8475C226.73 62.8475 226.499 63.0178 226.389 63.2032V62.8798H226.003V65.1094ZM229.273 65.1525C229.816 65.1525 230.131 64.9002 230.131 64.4905C230.131 64.2706 230.019 63.9989 229.609 63.8911L229.161 63.779C228.915 63.7186 228.786 63.6388 228.786 63.4792C228.786 63.2421 228.982 63.1299 229.266 63.1299C229.542 63.1299 229.706 63.2636 229.736 63.4771H230.09C230.075 63.0588 229.754 62.8367 229.271 62.8367C228.706 62.8367 228.419 63.1127 228.421 63.503C228.423 63.835 228.654 64.0054 229.014 64.0916L229.476 64.2059C229.678 64.2533 229.773 64.3482 229.773 64.5121C229.773 64.745 229.573 64.8549 229.271 64.8549C228.988 64.8549 228.764 64.7212 228.708 64.4603H228.346C228.41 64.9412 228.807 65.1525 229.273 65.1525ZM232.822 63.1709V62.8777H232.32V62.2308H232.027L231.93 62.8798H231.557V63.1709H231.919V64.5703C231.919 64.9282 232.042 65.1202 232.506 65.1202C232.667 65.1202 232.779 65.1051 232.835 65.0835V64.8161H232.592C232.383 64.8161 232.32 64.7946 232.32 64.5574V63.1709H232.822ZM233.364 65.1094H233.761V63.6216C233.761 63.3218 234.033 63.1774 234.335 63.1774C234.628 63.1774 234.829 63.3305 234.829 63.5957V65.1094H235.227V63.5159C235.227 63.1084 234.885 62.8518 234.449 62.8518C234.091 62.8518 233.865 63.0243 233.753 63.2076V61.9052H233.364V65.1094ZM236.257 61.9936H235.849V62.4076H236.257V61.9936ZM236.246 62.8798H235.86V65.1094H236.246V62.8798ZM237.717 65.1525C238.26 65.1525 238.575 64.9002 238.575 64.4905C238.575 64.2706 238.463 63.9989 238.053 63.8911L237.605 63.779C237.359 63.7186 237.229 63.6388 237.229 63.4792C237.229 63.2421 237.426 63.1299 237.71 63.1299C237.986 63.1299 238.15 63.2636 238.18 63.4771H238.534C238.519 63.0588 238.198 62.8367 237.715 62.8367C237.15 62.8367 236.863 63.1127 236.865 63.503C236.867 63.835 237.098 64.0054 237.458 64.0916L237.919 64.2059C238.122 64.2533 238.217 64.3482 238.217 64.5121C238.217 64.745 238.017 64.8549 237.715 64.8549C237.432 64.8549 237.208 64.7212 237.152 64.4603H236.79C236.854 64.9412 237.251 65.1525 237.717 65.1525ZM241.234 65.1525C241.862 65.1525 242.176 64.6889 242.176 63.986C242.176 63.2291 241.821 62.8367 241.264 62.8367C240.839 62.8367 240.607 63.089 240.533 63.2334V61.9052H240.132V65.1094H240.436L240.479 64.6522C240.535 64.8269 240.712 65.1525 241.234 65.1525ZM241.163 64.8463C240.712 64.8463 240.533 64.5897 240.533 63.9666C240.54 63.4447 240.712 63.1472 241.154 63.1472C241.56 63.1472 241.775 63.4469 241.775 63.9666C241.775 64.5789 241.523 64.8463 241.163 64.8463ZM243.268 65.1374C243.324 65.1374 243.402 65.1245 243.469 65.1029V64.8442L243.348 64.842C243.191 64.8312 243.098 64.7234 243.098 64.497V61.9052H242.705V64.5358C242.705 64.8485 242.787 65.1374 243.268 65.1374ZM244.794 65.1525C245.458 65.1525 245.81 64.6846 245.81 64.0032C245.81 63.2528 245.411 62.8367 244.796 62.8367C244.136 62.8367 243.772 63.3046 243.772 64.0032C243.772 64.7471 244.175 65.1525 244.794 65.1525ZM244.796 64.8377C244.35 64.8377 244.169 64.4647 244.169 63.9946C244.169 63.4642 244.391 63.1493 244.796 63.1493C245.234 63.1493 245.415 63.5181 245.415 63.9946C245.415 64.5186 245.195 64.8377 244.796 64.8377ZM247.237 62.8367C246.579 62.8367 246.21 63.3089 246.21 64.0032C246.21 64.7514 246.633 65.1525 247.237 65.1525C247.709 65.1525 248.071 64.87 248.13 64.4215H247.782C247.744 64.6458 247.55 64.8485 247.243 64.8485C246.816 64.8485 246.592 64.5142 246.592 63.9989C246.592 63.4297 246.857 63.158 247.239 63.158C247.545 63.158 247.739 63.3499 247.778 63.5849H248.132C248.071 63.1299 247.716 62.8367 247.237 62.8367ZM250.614 65.1094L249.754 63.7294L250.558 62.8798H250.101L249.053 63.9946V61.9052H248.656V65.1094H249.053V64.4452L249.493 63.9903L250.191 65.1094H250.614ZM250.985 65.1094H251.459V64.6005H250.985V65.1094ZM252.835 62.358H253.842V65.1094H254.243V62.358H255.194V61.9914H252.835V62.358ZM255.626 65.1094H256.023V63.6216C256.023 63.3218 256.294 63.1774 256.596 63.1774C256.89 63.1774 257.09 63.3305 257.09 63.5957V65.1094H257.489V63.5159C257.489 63.1084 257.146 62.8518 256.711 62.8518C256.353 62.8518 256.126 63.0243 256.014 63.2076V61.9052H255.626V65.1094ZM258.518 61.9936H258.111V62.4076H258.518V61.9936ZM258.508 62.8798H258.122V65.1094H258.508V62.8798ZM259.978 65.1525C260.522 65.1525 260.837 64.9002 260.837 64.4905C260.837 64.2706 260.724 63.9989 260.315 63.8911L259.866 63.779C259.62 63.7186 259.491 63.6388 259.491 63.4792C259.491 63.2421 259.687 63.1299 259.972 63.1299C260.248 63.1299 260.412 63.2636 260.442 63.4771H260.796C260.781 63.0588 260.459 62.8367 259.976 62.8367C259.411 62.8367 259.125 63.1127 259.127 63.503C259.129 63.835 259.36 64.0054 259.72 64.0916L260.181 64.2059C260.384 64.2533 260.479 64.3482 260.479 64.5121C260.479 64.745 260.278 64.8549 259.976 64.8549C259.694 64.8549 259.47 64.7212 259.413 64.4603H259.051C259.116 64.9412 259.513 65.1525 259.978 65.1525ZM262.801 61.9936H262.394V62.4076H262.801V61.9936ZM262.791 62.8798H262.405V65.1094H262.791V62.8798ZM264.261 65.1525C264.805 65.1525 265.12 64.9002 265.12 64.4905C265.12 64.2706 265.007 63.9989 264.598 63.8911L264.149 63.779C263.903 63.7186 263.774 63.6388 263.774 63.4792C263.774 63.2421 263.97 63.1299 264.255 63.1299C264.531 63.1299 264.695 63.2636 264.725 63.4771H265.079C265.064 63.0588 264.742 62.8367 264.259 62.8367C263.694 62.8367 263.408 63.1127 263.41 63.503C263.412 63.835 263.643 64.0054 264.003 64.0916L264.464 64.2059C264.667 64.2533 264.762 64.3482 264.762 64.5121C264.762 64.745 264.561 64.8549 264.259 64.8549C263.977 64.8549 263.753 64.7212 263.696 64.4603H263.334C263.399 64.9412 263.796 65.1525 264.261 65.1525ZM163.558 71.1525C164.101 71.1525 164.416 70.9002 164.416 70.4905C164.416 70.2706 164.304 69.9989 163.894 69.8911L163.446 69.779C163.2 69.7186 163.071 69.6388 163.071 69.4792C163.071 69.2421 163.267 69.1299 163.551 69.1299C163.827 69.1299 163.991 69.2636 164.021 69.4771H164.375C164.36 69.0588 164.039 68.8367 163.556 68.8367C162.991 68.8367 162.704 69.1127 162.706 69.503C162.708 69.835 162.939 70.0054 163.299 70.0916L163.761 70.2059C163.963 70.2533 164.058 70.3482 164.058 70.5121C164.058 70.745 163.858 70.8549 163.556 70.8549C163.273 70.8549 163.049 70.7212 162.993 70.4603H162.631C162.695 70.9412 163.092 71.1525 163.558 71.1525ZM164.941 71.1094H165.338V69.6194C165.338 69.3067 165.612 69.1752 165.841 69.1752C166.048 69.1752 166.293 69.3089 166.293 69.5741V71.1094H166.69V69.6194C166.69 69.2809 166.981 69.1752 167.19 69.1752C167.425 69.1752 167.648 69.2873 167.648 69.6906V71.1094H168.049V69.6517C168.049 68.9919 167.637 68.8367 167.322 68.8367C167.027 68.8367 166.781 68.9833 166.643 69.2011C166.526 68.9639 166.244 68.8367 166 68.8367C165.653 68.8367 165.448 69.007 165.325 69.2032V68.8798H164.941V71.1094ZM169.29 71.1525C169.609 71.1525 169.883 71.0382 170.055 70.6911L170.085 71.1094H170.426V69.5526C170.426 69.0868 170.137 68.8367 169.557 68.8367C169.016 68.8367 168.684 69.076 168.66 69.5094H169.011C169.065 69.2442 169.281 69.1321 169.538 69.1299C169.88 69.1299 170.04 69.3024 170.04 69.5741V69.7488L169.643 69.7596C168.88 69.7768 168.554 70.0118 168.554 70.5056C168.554 70.9132 168.856 71.1525 169.29 71.1525ZM169.408 70.8657C169.134 70.8657 168.94 70.7191 168.94 70.4668C168.94 70.1369 169.197 70.0097 169.71 70.0011L170.04 69.9946V70.3762C170.04 70.6242 169.708 70.8657 169.408 70.8657ZM171.611 71.1374C171.667 71.1374 171.744 71.1245 171.811 71.1029V70.8442L171.691 70.842C171.533 70.8312 171.44 70.7234 171.44 70.497V67.9052H171.048V70.5358C171.048 70.8485 171.13 71.1374 171.611 71.1374ZM172.853 71.1374C172.909 71.1374 172.987 71.1245 173.054 71.1029V70.8442L172.933 70.842C172.776 70.8312 172.683 70.7234 172.683 70.497V67.9052H172.29V70.5358C172.29 70.8485 172.372 71.1374 172.853 71.1374ZM173.78 70.0873H175.377V69.9407C175.377 69.2636 175.028 68.8367 174.401 68.8367C173.752 68.8367 173.376 69.3132 173.376 70.0162C173.376 70.7277 173.806 71.1525 174.429 71.1525C174.862 71.1525 175.28 70.9132 175.362 70.4582H174.987C174.931 70.7105 174.707 70.8442 174.422 70.8442C173.989 70.8442 173.78 70.5099 173.78 70.0873ZM173.782 69.8178C173.78 69.4857 173.978 69.1386 174.398 69.1386C174.802 69.1386 174.994 69.434 174.994 69.8178H173.782ZM175.929 71.1094H176.326V69.7229C176.326 69.352 176.615 69.2011 176.97 69.2248C177.016 69.2248 177.096 69.2313 177.139 69.2507V68.8647C177.102 68.8453 177.033 68.8367 176.968 68.8367C176.686 68.8367 176.421 68.9876 176.309 69.3089V68.8798H175.929V71.1094ZM179.796 69.1709V68.8777H179.294V68.2308H179.001L178.904 68.8798H178.531V69.1709H178.893V70.5703C178.893 70.9282 179.016 71.1202 179.479 71.1202C179.641 71.1202 179.753 71.1051 179.809 71.0835V70.8161H179.566C179.357 70.8161 179.294 70.7946 179.294 70.5574V69.1709H179.796ZM180.573 70.0873H182.17V69.9407C182.17 69.2636 181.821 68.8367 181.194 68.8367C180.545 68.8367 180.169 69.3132 180.169 70.0162C180.169 70.7277 180.599 71.1525 181.222 71.1525C181.655 71.1525 182.073 70.9132 182.155 70.4582H181.78C181.724 70.7105 181.5 70.8442 181.215 70.8442C180.782 70.8442 180.573 70.5099 180.573 70.0873ZM180.575 69.8178C180.573 69.4857 180.771 69.1386 181.192 69.1386C181.595 69.1386 181.787 69.434 181.787 69.8178H180.575ZM184.539 71.1094L183.681 69.9515L184.474 68.8798H184.039L183.459 69.6625L182.879 68.8798H182.445L183.235 69.9515L182.376 71.1094H182.812L183.457 70.2361L184.106 71.1094H184.539ZM186.038 69.1709V68.8777H185.535V68.2308H185.242L185.145 68.8798H184.772V69.1709H185.134V70.5703C185.134 70.9282 185.257 71.1202 185.721 71.1202C185.883 71.1202 185.995 71.1051 186.051 71.0835V70.8161H185.807C185.598 70.8161 185.535 70.7946 185.535 70.5574V69.1709H186.038ZM190.534 68.8798H190.161L189.671 70.5897H189.637L189.115 68.8798H188.813L188.31 70.594H188.276L187.767 68.8798H187.396L188.086 71.1094H188.474L188.959 69.4642L189.466 71.1094H189.859L190.534 68.8798ZM190.989 71.1094H191.386V69.6216C191.386 69.3218 191.658 69.1774 191.959 69.1774C192.253 69.1774 192.453 69.3305 192.453 69.5957V71.1094H192.852V69.5159C192.852 69.1084 192.509 68.8518 192.074 68.8518C191.716 68.8518 191.489 69.0243 191.377 69.2076V67.9052H190.989V71.1094ZM193.881 67.9936H193.474V68.4076H193.881V67.9936ZM193.871 68.8798H193.485V71.1094H193.871V68.8798ZM195.436 68.8367C194.779 68.8367 194.41 69.3089 194.41 70.0032C194.41 70.7514 194.833 71.1525 195.436 71.1525C195.909 71.1525 196.271 70.87 196.329 70.4215H195.982C195.943 70.6458 195.749 70.8485 195.443 70.8485C195.016 70.8485 194.792 70.5142 194.792 69.9989C194.792 69.4297 195.057 69.158 195.438 69.158C195.745 69.158 195.939 69.3499 195.978 69.5849H196.331C196.271 69.1299 195.915 68.8367 195.436 68.8367ZM196.856 71.1094H197.252V69.6216C197.252 69.3218 197.524 69.1774 197.826 69.1774C198.119 69.1774 198.32 69.3305 198.32 69.5957V71.1094H198.719V69.5159C198.719 69.1084 198.376 68.8518 197.94 68.8518C197.582 68.8518 197.356 69.0243 197.244 69.2076V67.9052H196.856V71.1094ZM200.627 70.0873H202.225V69.9407C202.225 69.2636 201.876 68.8367 201.248 68.8367C200.599 68.8367 200.224 69.3132 200.224 70.0162C200.224 70.7277 200.653 71.1525 201.277 71.1525C201.71 71.1525 202.128 70.9132 202.21 70.4582H201.835C201.779 70.7105 201.555 70.8442 201.27 70.8442C200.837 70.8442 200.627 70.5099 200.627 70.0873ZM200.63 69.8178C200.627 69.4857 200.826 69.1386 201.246 69.1386C201.65 69.1386 201.841 69.434 201.841 69.8178H200.63ZM204.594 71.1094L203.736 69.9515L204.529 68.8798H204.094L203.514 69.6625L202.934 68.8798H202.5L203.289 69.9515L202.431 71.1094H202.867L203.511 70.2361L204.161 71.1094H204.594ZM205.059 71.8037H205.461V70.7062C205.553 70.8959 205.762 71.1525 206.161 71.1525C206.748 71.1525 207.097 70.7299 207.097 69.9644C207.097 69.1968 206.726 68.8367 206.194 68.8367C205.784 68.8367 205.562 69.0847 205.461 69.2679L205.456 68.8798H205.059V71.8037ZM206.086 70.842C205.672 70.842 205.456 70.4582 205.456 69.9773C205.456 69.4857 205.672 69.1472 206.086 69.1472C206.493 69.1472 206.711 69.4706 206.711 69.9773C206.711 70.5703 206.452 70.842 206.086 70.842ZM208.191 71.1374C208.247 71.1374 208.325 71.1245 208.392 71.1029V70.8442L208.271 70.842C208.114 70.8312 208.021 70.7234 208.021 70.497V67.9052H207.628V70.5358C207.628 70.8485 207.71 71.1374 208.191 71.1374ZM209.538 71.1525C209.857 71.1525 210.131 71.0382 210.304 70.6911L210.334 71.1094H210.675V69.5526C210.675 69.0868 210.386 68.8367 209.806 68.8367C209.264 68.8367 208.932 69.076 208.909 69.5094H209.26C209.314 69.2442 209.53 69.1321 209.786 69.1299C210.129 69.1299 210.289 69.3024 210.289 69.5741V69.7488L209.892 69.7596C209.129 69.7768 208.803 70.0118 208.803 70.5056C208.803 70.9132 209.105 71.1525 209.538 71.1525ZM209.657 70.8657C209.383 70.8657 209.189 70.7191 209.189 70.4668C209.189 70.1369 209.446 70.0097 209.959 70.0011L210.289 69.9946V70.3762C210.289 70.6242 209.957 70.8657 209.657 70.8657ZM211.704 67.9936H211.297V68.4076H211.704V67.9936ZM211.693 68.8798H211.307V71.1094H211.693V68.8798ZM212.392 71.1094H212.788V69.6194C212.788 69.3197 213.064 69.1774 213.366 69.1774C213.657 69.1774 213.858 69.3434 213.858 69.6906V71.1094H214.257V69.6517C214.257 69.0911 213.899 68.8475 213.476 68.8475C213.118 68.8475 212.887 69.0178 212.778 69.2032V68.8798H212.392V71.1094ZM215.662 71.1525C216.205 71.1525 216.52 70.9002 216.52 70.4905C216.52 70.2706 216.408 69.9989 215.998 69.8911L215.549 69.779C215.304 69.7186 215.174 69.6388 215.174 69.4792C215.174 69.2421 215.37 69.1299 215.655 69.1299C215.931 69.1299 216.095 69.2636 216.125 69.4771H216.479C216.464 69.0588 216.142 68.8367 215.659 68.8367C215.094 68.8367 214.808 69.1127 214.81 69.503C214.812 69.835 215.043 70.0054 215.403 70.0916L215.864 70.2059C216.067 70.2533 216.162 70.3482 216.162 70.5121C216.162 70.745 215.961 70.8549 215.659 70.8549C215.377 70.8549 215.153 70.7212 215.097 70.4603H214.734C214.799 70.9412 215.196 71.1525 215.662 71.1525ZM219.211 69.1709V68.8777H218.709V68.2308H218.416L218.318 68.8798H217.945V69.1709H218.308V70.5703C218.308 70.9282 218.431 71.1202 218.894 71.1202C219.056 71.1202 219.168 71.1051 219.224 71.0835V70.8161H218.98C218.771 70.8161 218.709 70.7946 218.709 70.5574V69.1709H219.211ZM219.753 71.1094H220.15V69.6216C220.15 69.3218 220.422 69.1774 220.723 69.1774C221.017 69.1774 221.217 69.3305 221.217 69.5957V71.1094H221.616V69.5159C221.616 69.1084 221.273 68.8518 220.838 68.8518C220.48 68.8518 220.253 69.0243 220.141 69.2076V67.9052H219.753V71.1094ZM222.645 67.9936H222.238V68.4076H222.645V67.9936ZM222.635 68.8798H222.249V71.1094H222.635V68.8798ZM224.105 71.1525C224.649 71.1525 224.964 70.9002 224.964 70.4905C224.964 70.2706 224.852 69.9989 224.442 69.8911L223.993 69.779C223.748 69.7186 223.618 69.6388 223.618 69.4792C223.618 69.2421 223.814 69.1299 224.099 69.1299C224.375 69.1299 224.539 69.2636 224.569 69.4771H224.923C224.908 69.0588 224.586 68.8367 224.103 68.8367C223.538 68.8367 223.252 69.1127 223.254 69.503C223.256 69.835 223.487 70.0054 223.847 70.0916L224.308 70.2059C224.511 70.2533 224.606 70.3482 224.606 70.5121C224.606 70.745 224.405 70.8549 224.103 70.8549C223.821 70.8549 223.597 70.7212 223.541 70.4603H223.178C223.243 70.9412 223.64 71.1525 224.105 71.1525ZM227.623 71.1525C228.25 71.1525 228.565 70.6889 228.565 69.986C228.565 69.2291 228.209 68.8367 227.653 68.8367C227.228 68.8367 226.995 69.089 226.922 69.2334V67.9052H226.521V71.1094H226.825L226.868 70.6522C226.924 70.8269 227.101 71.1525 227.623 71.1525ZM227.552 70.8463C227.101 70.8463 226.922 70.5897 226.922 69.9666C226.928 69.4447 227.101 69.1472 227.543 69.1472C227.948 69.1472 228.164 69.4469 228.164 69.9666C228.164 70.5789 227.912 70.8463 227.552 70.8463ZM229.657 71.1374C229.713 71.1374 229.791 71.1245 229.857 71.1029V70.8442L229.737 70.842C229.579 70.8312 229.487 70.7234 229.487 70.497V67.9052H229.094V70.5358C229.094 70.8485 229.176 71.1374 229.657 71.1374ZM231.183 71.1525C231.847 71.1525 232.198 70.6846 232.198 70.0032C232.198 69.2528 231.799 68.8367 231.185 68.8367C230.525 68.8367 230.161 69.3046 230.161 70.0032C230.161 70.7471 230.564 71.1525 231.183 71.1525ZM231.185 70.8377C230.739 70.8377 230.557 70.4647 230.557 69.9946C230.557 69.4642 230.78 69.1493 231.185 69.1493C231.623 69.1493 231.804 69.5181 231.804 69.9946C231.804 70.5186 231.584 70.8377 231.185 70.8377ZM233.626 68.8367C232.968 68.8367 232.599 69.3089 232.599 70.0032C232.599 70.7514 233.022 71.1525 233.626 71.1525C234.098 71.1525 234.46 70.87 234.518 70.4215H234.171C234.132 70.6458 233.938 70.8485 233.632 70.8485C233.205 70.8485 232.981 70.5142 232.981 69.9989C232.981 69.4297 233.246 69.158 233.628 69.158C233.934 69.158 234.128 69.3499 234.167 69.5849H234.52C234.46 69.1299 234.104 68.8367 233.626 68.8367ZM237.003 71.1094L236.142 69.7294L236.947 68.8798H236.489L235.442 69.9946V67.9052H235.045V71.1094H235.442V70.4452L235.881 69.9903L236.58 71.1094H237.003ZM237.374 71.1094H237.848V70.6005H237.374V71.1094Z" fill="white"/>
<path d="M75.1898 71.1523H77.5531C79.2565 71.1523 80.0069 70.6133 80.0069 69.4618C80.0069 68.884 79.8171 68.2328 78.7778 67.9568C79.5886 67.6161 79.8603 67.1719 79.8603 66.5509C79.8603 65.4987 79.084 64.9165 77.4496 64.9165H75.1898V71.1523ZM76.4448 67.4953V65.8911H77.5617C78.1913 65.8911 78.6441 66.1757 78.6441 66.7148C78.6441 67.2625 78.1611 67.4953 77.648 67.4953H76.4448ZM76.4448 70.1777V68.4958H77.648C78.2646 68.4958 78.7304 68.7848 78.7304 69.3368C78.7304 69.85 78.3336 70.1777 77.579 70.1777H76.4448ZM82.1594 64.9208H80.9347V66.055H82.1594V64.9208ZM82.1508 66.6932H80.9476V71.1523H82.1508V66.6932ZM85.2704 72.6272C86.8574 72.6272 87.6466 72.0235 87.6466 71.1868C87.6466 70.4839 87.1119 69.9837 86.0208 69.9103C85.6284 69.8845 85.2834 69.8672 85.0936 69.8543C84.5675 69.8241 84.3131 69.8025 84.3131 69.6602C84.3131 69.5697 84.4209 69.492 84.7573 69.4748C84.8694 69.4877 85.0936 69.492 85.1971 69.492C86.5297 69.492 87.2154 68.7934 87.2154 68.0172C87.2154 67.9007 87.1809 67.7067 87.1205 67.5471L87.8881 67.422L87.8968 66.4474C87.5216 66.6027 86.8531 66.87 86.5858 66.9735C86.2537 66.7665 85.9001 66.6242 85.2877 66.6242C84.0759 66.6242 83.1746 67.1417 83.1746 68.0215C83.1746 68.5174 83.4851 69.0349 84.0759 69.3066C83.4592 69.4144 83.1616 69.712 83.1616 70.0268C83.1616 70.4494 83.5713 70.609 83.7093 70.6909C83.6231 70.7383 82.8425 70.9238 82.8425 71.5318C82.8425 72.1873 83.6834 72.6272 85.2704 72.6272ZM85.2359 68.7891C84.74 68.7891 84.4381 68.5045 84.4381 68.0603C84.4381 67.5988 84.7573 67.2883 85.2359 67.2883C85.7103 67.2883 86.0251 67.5945 86.0251 68.0603C86.0251 68.5131 85.7103 68.7891 85.2359 68.7891ZM85.4731 71.9243C84.5158 71.9243 84.0759 71.7604 84.0759 71.3852C84.0759 71.1092 84.3433 70.8548 84.7486 70.8763L85.7707 70.9453C86.2106 70.9755 86.4478 71.1567 86.4478 71.424C86.4478 71.7475 86.1718 71.9243 85.4731 71.9243ZM90.1952 66.0377H92.0798V71.1523H93.3434V66.0377H95.1848V64.9165H90.1952V66.0377ZM96.2935 69.2117H99.2906V68.871C99.2906 67.5342 98.5748 66.607 97.212 66.607C95.845 66.607 95.0471 67.6333 95.0471 68.9745C95.0471 70.3588 95.9528 71.2386 97.2767 71.2386C98.2039 71.2386 99.1354 70.6909 99.2863 69.7378H98.1521C98.0228 70.1562 97.6778 70.3287 97.2465 70.3287C96.6428 70.3287 96.2891 69.8931 96.2935 69.2117ZM96.2935 68.4613C96.2891 67.9697 96.6298 67.4867 97.2077 67.4867C97.8158 67.4867 98.1133 67.9223 98.1133 68.4613H96.2935ZM104.234 71.1523L102.518 68.8279L104.096 66.6932H102.781L101.858 67.9438L100.931 66.6932H99.6109L101.176 68.8279L99.4643 71.1523H100.784L101.849 69.699L102.914 71.1523H104.234ZM107.521 67.5687V66.6889H106.529V65.3477H105.632L105.313 66.6932H104.55V67.5687H105.275V69.9966C105.275 70.7125 105.576 71.1998 106.754 71.1998C107.189 71.1998 107.414 71.1437 107.534 71.092V70.3157H106.935C106.659 70.3157 106.538 70.2726 106.538 69.9448L106.529 67.5687H107.521ZM108.306 71.1523H109.686V69.781H108.306V71.1523Z" fill="white"/>
<path d="M96.0537 50.9727H88.6416C88.0941 50.9727 87.6309 51.457 87.6309 51.9834V60.7432C87.6309 61.2906 88.0941 61.7539 88.6416 61.7539H96.0537C96.5801 61.7539 97.0645 61.2906 97.0645 60.7432V51.9834C97.0645 51.457 96.5801 50.9727 96.0537 50.9727ZM90.3262 60.1536C90.3262 60.2799 90.1788 60.4062 90.0524 60.4062H89.2312C89.1049 60.4062 88.9785 60.2799 88.9785 60.1536V59.3323C88.9785 59.206 89.1049 59.0586 89.2312 59.0586H90.0524C90.1788 59.0586 90.3262 59.206 90.3262 59.3323V60.1536ZM90.3262 57.4583C90.3262 57.5846 90.1788 57.7109 90.0524 57.7109H89.2312C89.1049 57.7109 88.9785 57.5846 88.9785 57.4583V56.637C88.9785 56.5107 89.1049 56.3633 89.2312 56.3633H90.0524C90.1788 56.3633 90.3262 56.5107 90.3262 56.637V57.4583ZM93.0215 60.1536C93.0215 60.2799 92.8741 60.4062 92.7477 60.4062H91.9265C91.8002 60.4062 91.6738 60.2799 91.6738 60.1536V59.3323C91.6738 59.206 91.8002 59.0586 91.9265 59.0586H92.7477C92.8741 59.0586 93.0215 59.206 93.0215 59.3323V60.1536ZM93.0215 57.4583C93.0215 57.5846 92.8741 57.7109 92.7477 57.7109H91.9265C91.8002 57.7109 91.6738 57.5846 91.6738 57.4583V56.637C91.6738 56.5107 91.8002 56.3633 91.9265 56.3633H92.7477C92.8741 56.3633 93.0215 56.5107 93.0215 56.637V57.4583ZM95.7168 60.1536C95.7168 60.2799 95.5694 60.4062 95.4431 60.4062H94.6218C94.4955 60.4062 94.3691 60.2799 94.3691 60.1536V56.637C94.3691 56.5107 94.4955 56.3633 94.6218 56.3633H95.4431C95.5694 56.3633 95.7168 56.5107 95.7168 56.637V60.1536ZM95.7168 54.7629C95.7168 54.8893 95.5694 55.0156 95.4431 55.0156H89.2312C89.1049 55.0156 88.9785 54.8893 88.9785 54.7629V52.5941C88.9785 52.4677 89.1049 52.3203 89.2312 52.3203H95.4431C95.5694 52.3203 95.7168 52.4677 95.7168 52.5941V54.7629Z" fill="white"/>
<path d="M168.052 51.7676H164.346C164.072 51.7676 163.841 52.0097 163.841 52.2729V56.6528C163.841 56.9266 164.072 57.1582 164.346 57.1582H168.052C168.315 57.1582 168.558 56.9266 168.558 56.6528V52.2729C168.558 52.0097 168.315 51.7676 168.052 51.7676ZM165.188 56.358C165.188 56.4212 165.115 56.4844 165.052 56.4844H164.641C164.578 56.4844 164.515 56.4212 164.515 56.358V55.9474C164.515 55.8842 164.578 55.8105 164.641 55.8105H165.052C165.115 55.8105 165.188 55.8842 165.188 55.9474V56.358ZM165.188 55.0104C165.188 55.0735 165.115 55.1367 165.052 55.1367H164.641C164.578 55.1367 164.515 55.0735 164.515 55.0104V54.5998C164.515 54.5366 164.578 54.4629 164.641 54.4629H165.052C165.115 54.4629 165.188 54.5366 165.188 54.5998V55.0104ZM166.536 56.358C166.536 56.4212 166.462 56.4844 166.399 56.4844H165.989C165.925 56.4844 165.862 56.4212 165.862 56.358V55.9474C165.862 55.8842 165.925 55.8105 165.989 55.8105H166.399C166.462 55.8105 166.536 55.8842 166.536 55.9474V56.358ZM166.536 55.0104C166.536 55.0735 166.462 55.1367 166.399 55.1367H165.989C165.925 55.1367 165.862 55.0735 165.862 55.0104V54.5998C165.862 54.5366 165.925 54.4629 165.989 54.4629H166.399C166.462 54.4629 166.536 54.5366 166.536 54.5998V55.0104ZM167.884 56.358C167.884 56.4212 167.81 56.4844 167.747 56.4844H167.336C167.273 56.4844 167.21 56.4212 167.21 56.358V54.5998C167.21 54.5366 167.273 54.4629 167.336 54.4629H167.747C167.81 54.4629 167.884 54.5366 167.884 54.5998V56.358ZM167.884 53.6627C167.884 53.7259 167.81 53.7891 167.747 53.7891H164.641C164.578 53.7891 164.515 53.7259 164.515 53.6627V52.5783C164.515 52.5151 164.578 52.4414 164.641 52.4414H167.747C167.81 52.4414 167.884 52.5151 167.884 52.5783V53.6627Z" fill="white"/>
<path d="M180.451 51.7676H176.745C176.471 51.7676 176.239 52.0097 176.239 52.2729V56.6528C176.239 56.9266 176.471 57.1582 176.745 57.1582H180.451C180.714 57.1582 180.956 56.9266 180.956 56.6528V52.2729C180.956 52.0097 180.714 51.7676 180.451 51.7676ZM177.587 56.358C177.587 56.4212 177.513 56.4844 177.45 56.4844H177.039C176.976 56.4844 176.913 56.4212 176.913 56.358V55.9474C176.913 55.8842 176.976 55.8105 177.039 55.8105H177.45C177.513 55.8105 177.587 55.8842 177.587 55.9474V56.358ZM177.587 55.0104C177.587 55.0735 177.513 55.1367 177.45 55.1367H177.039C176.976 55.1367 176.913 55.0735 176.913 55.0104V54.5998C176.913 54.5366 176.976 54.4629 177.039 54.4629H177.45C177.513 54.4629 177.587 54.5366 177.587 54.5998V55.0104ZM178.935 56.358C178.935 56.4212 178.861 56.4844 178.798 56.4844H178.387C178.324 56.4844 178.261 56.4212 178.261 56.358V55.9474C178.261 55.8842 178.324 55.8105 178.387 55.8105H178.798C178.861 55.8105 178.935 55.8842 178.935 55.9474V56.358ZM178.935 55.0104C178.935 55.0735 178.861 55.1367 178.798 55.1367H178.387C178.324 55.1367 178.261 55.0735 178.261 55.0104V54.5998C178.261 54.5366 178.324 54.4629 178.387 54.4629H178.798C178.861 54.4629 178.935 54.5366 178.935 54.5998V55.0104ZM180.282 56.358C180.282 56.4212 180.209 56.4844 180.145 56.4844H179.735C179.672 56.4844 179.608 56.4212 179.608 56.358V54.5998C179.608 54.5366 179.672 54.4629 179.735 54.4629H180.145C180.209 54.4629 180.282 54.5366 180.282 54.5998V56.358ZM180.282 53.6627C180.282 53.7259 180.209 53.7891 180.145 53.7891H177.039C176.976 53.7891 176.913 53.7259 176.913 53.6627V52.5783C176.913 52.5151 176.976 52.4414 177.039 52.4414H180.145C180.209 52.4414 180.282 52.5151 180.282 52.5783V53.6627Z" fill="white"/>
<path d="M192.849 51.7676H189.143C188.869 51.7676 188.638 52.0097 188.638 52.2729V56.6528C188.638 56.9266 188.869 57.1582 189.143 57.1582H192.849C193.112 57.1582 193.354 56.9266 193.354 56.6528V52.2729C193.354 52.0097 193.112 51.7676 192.849 51.7676ZM189.985 56.358C189.985 56.4212 189.912 56.4844 189.848 56.4844H189.438C189.375 56.4844 189.312 56.4212 189.312 56.358V55.9474C189.312 55.8842 189.375 55.8105 189.438 55.8105H189.848C189.912 55.8105 189.985 55.8842 189.985 55.9474V56.358ZM189.985 55.0104C189.985 55.0735 189.912 55.1367 189.848 55.1367H189.438C189.375 55.1367 189.312 55.0735 189.312 55.0104V54.5998C189.312 54.5366 189.375 54.4629 189.438 54.4629H189.848C189.912 54.4629 189.985 54.5366 189.985 54.5998V55.0104ZM191.333 56.358C191.333 56.4212 191.259 56.4844 191.196 56.4844H190.786C190.722 56.4844 190.659 56.4212 190.659 56.358V55.9474C190.659 55.8842 190.722 55.8105 190.786 55.8105H191.196C191.259 55.8105 191.333 55.8842 191.333 55.9474V56.358ZM191.333 55.0104C191.333 55.0735 191.259 55.1367 191.196 55.1367H190.786C190.722 55.1367 190.659 55.0735 190.659 55.0104V54.5998C190.659 54.5366 190.722 54.4629 190.786 54.4629H191.196C191.259 54.4629 191.333 54.5366 191.333 54.5998V55.0104ZM192.681 56.358C192.681 56.4212 192.607 56.4844 192.544 56.4844H192.133C192.07 56.4844 192.007 56.4212 192.007 56.358V54.5998C192.007 54.5366 192.07 54.4629 192.133 54.4629H192.544C192.607 54.4629 192.681 54.5366 192.681 54.5998V56.358ZM192.681 53.6627C192.681 53.7259 192.607 53.7891 192.544 53.7891H189.438C189.375 53.7891 189.312 53.7259 189.312 53.6627V52.5783C189.312 52.5151 189.375 52.4414 189.438 52.4414H192.544C192.607 52.4414 192.681 52.5151 192.681 52.5783V53.6627Z" fill="white"/>
<g style="mix-blend-mode:color">
<rect width="320" height="120" fill="#808080"/>
</g>
<g style="mix-blend-mode:color">
<rect width="320" height="120" fill="#00284D"/>
</g>
</svg>
