<svg width="320" height="120" viewBox="0 0 320 120" fill="none" xmlns="http://www.w3.org/2000/svg">
<rect width="320" height="120" fill="#C0CEDB"/>
<rect width="288" height="38.4" transform="translate(16 41)" fill="#00284D"/>
<g clip-path="url(#clip0_454_436)">
<path d="M137.981 58.4458V57.4474H142.424V58.4458H140.784V63H139.659V58.4458H137.981ZM143.384 61.272C143.382 61.5766 143.454 61.8186 143.603 61.9978C143.751 62.177 143.96 62.2666 144.229 62.2666C144.421 62.2666 144.589 62.2256 144.732 62.1437C144.878 62.0618 144.979 61.9274 145.035 61.7405H146.045C146.002 62.0221 145.889 62.2627 145.707 62.4624C145.528 62.6621 145.31 62.8144 145.054 62.9194C144.798 63.0243 144.532 63.0768 144.256 63.0768C143.862 63.0768 143.516 62.9949 143.219 62.831C142.922 62.6646 142.69 62.4304 142.524 62.1283C142.358 61.8262 142.274 61.4704 142.274 61.0608C142.274 60.664 142.35 60.3069 142.501 59.9894C142.652 59.6694 142.871 59.4173 143.158 59.233C143.447 59.0461 143.794 58.9526 144.198 58.9526C144.603 58.9526 144.942 59.0384 145.216 59.2099C145.492 59.3789 145.7 59.6157 145.838 59.9203C145.979 60.2224 146.049 60.5718 146.049 60.9686V61.272H143.384ZM143.38 60.6038H145.001C145.001 60.3632 144.934 60.1584 144.801 59.9894C144.668 59.8205 144.467 59.736 144.198 59.736C144.024 59.736 143.876 59.7782 143.753 59.8627C143.632 59.9472 143.54 60.056 143.476 60.1891C143.412 60.3197 143.38 60.4579 143.38 60.6038ZM150.418 63H149.246L148.298 61.7059L147.346 63H146.171L147.699 60.9302L146.305 59.0294H147.476L148.302 60.143L149.124 59.0294H150.299L148.893 60.9302L150.418 63ZM153.409 59.809H152.526L152.534 61.9248C152.534 62.0707 152.562 62.1629 152.618 62.2013C152.674 62.2371 152.764 62.255 152.887 62.255H153.421V62.9462C153.367 62.9693 153.286 62.991 153.179 63.0115C153.071 63.032 152.92 63.0422 152.726 63.0422C152.378 63.0422 152.107 62.9974 151.915 62.9078C151.726 62.8182 151.594 62.6928 151.52 62.5315C151.446 62.3702 151.409 62.1834 151.409 61.9709V59.809H150.763V59.0294H151.447L151.727 57.8314H152.526V59.0256H153.409V59.809ZM156.007 57.4474H157.136V62.0515H159.548V63H156.007V57.4474ZM161.438 57.4512V58.4611H160.347V57.4512H161.438ZM161.426 59.0294V63H160.355V59.0294H161.426ZM162.465 63V59.0294H163.567V59.5901C163.659 59.4467 163.796 59.3123 163.978 59.1869C164.16 59.0589 164.407 58.9949 164.719 58.9949C164.962 58.9949 165.189 59.0422 165.399 59.137C165.611 59.2317 165.783 59.3814 165.913 59.5862C166.044 59.7885 166.109 60.0534 166.109 60.3811V63H164.988V60.5194C164.988 60.3043 164.923 60.143 164.792 60.0355C164.664 59.928 164.509 59.8742 164.327 59.8742C164.143 59.8742 163.973 59.9229 163.817 60.0202C163.663 60.1174 163.586 60.2634 163.586 60.4579V63H162.465ZM170.854 63H169.736L168.665 61.2874L168.139 61.848V63H167.017V57.2938H168.139V60.6768L169.598 59.0294H170.804L169.36 60.6115L170.854 63Z" fill="white"/>
<path d="M187.341 58.4458V57.4474H191.784V58.4458H190.144V63H189.019V58.4458H187.341ZM192.744 61.272C192.742 61.5766 192.815 61.8186 192.963 61.9978C193.112 62.177 193.32 62.2666 193.589 62.2666C193.781 62.2666 193.949 62.2256 194.092 62.1437C194.238 62.0618 194.339 61.9274 194.395 61.7405H195.405C195.362 62.0221 195.249 62.2627 195.067 62.4624C194.888 62.6621 194.671 62.8144 194.415 62.9194C194.159 63.0243 193.892 63.0768 193.616 63.0768C193.222 63.0768 192.876 62.9949 192.579 62.831C192.282 62.6646 192.05 62.4304 191.884 62.1283C191.718 61.8262 191.634 61.4704 191.634 61.0608C191.634 60.664 191.71 60.3069 191.861 59.9894C192.012 59.6694 192.231 59.4173 192.518 59.233C192.807 59.0461 193.154 58.9526 193.558 58.9526C193.963 58.9526 194.302 59.0384 194.576 59.2099C194.852 59.3789 195.06 59.6157 195.198 59.9203C195.339 60.2224 195.409 60.5718 195.409 60.9686V61.272H192.744ZM192.74 60.6038H194.361C194.361 60.3632 194.294 60.1584 194.161 59.9894C194.028 59.8205 193.827 59.736 193.558 59.736C193.384 59.736 193.236 59.7782 193.113 59.8627C192.993 59.9472 192.9 60.056 192.836 60.1891C192.772 60.3197 192.74 60.4579 192.74 60.6038ZM199.778 63H198.607L197.658 61.7059L196.706 63H195.531L197.059 60.9302L195.665 59.0294H196.836L197.662 60.143L198.484 59.0294H199.659L198.253 60.9302L199.778 63ZM202.769 59.809H201.886L201.894 61.9248C201.894 62.0707 201.922 62.1629 201.978 62.2013C202.035 62.2371 202.124 62.255 202.247 62.255H202.781V62.9462C202.727 62.9693 202.646 62.991 202.539 63.0115C202.431 63.032 202.28 63.0422 202.086 63.0422C201.738 63.0422 201.468 62.9974 201.276 62.9078C201.086 62.8182 200.954 62.6928 200.88 62.5315C200.806 62.3702 200.769 62.1834 200.769 61.9709V59.809H200.124V59.0294H200.807L201.087 57.8314H201.886V59.0256H202.769V59.809ZM205.367 57.4474H206.496V62.0515H208.908V63H205.367V57.4474ZM210.798 57.4512V58.4611H209.708V57.4512H210.798ZM210.787 59.0294V63H209.715V59.0294H210.787ZM211.825 63V59.0294H212.927V59.5901C213.019 59.4467 213.156 59.3123 213.338 59.1869C213.52 59.0589 213.767 58.9949 214.079 58.9949C214.322 58.9949 214.549 59.0422 214.759 59.137C214.971 59.2317 215.143 59.3814 215.273 59.5862C215.404 59.7885 215.469 60.0534 215.469 60.3811V63H214.348V60.5194C214.348 60.3043 214.283 60.143 214.152 60.0355C214.024 59.928 213.869 59.8742 213.688 59.8742C213.503 59.8742 213.333 59.9229 213.177 60.0202C213.023 60.1174 212.946 60.2634 212.946 60.4579V63H211.825ZM220.214 63H219.096L218.025 61.2874L217.499 61.848V63H216.378V57.2938H217.499V60.6768L218.958 59.0294H220.164L218.72 60.6115L220.214 63Z" fill="white"/>
<g filter="url(#filter0_d_454_436)">
<path d="M235.72 54C235.72 51.8792 237.439 50.16 239.56 50.16H290.08C292.201 50.16 293.92 51.8792 293.92 54V66C293.92 68.1207 292.201 69.84 290.08 69.84H239.56C237.439 69.84 235.72 68.1207 235.72 66V54Z" fill="white"/>
<path d="M247.395 62.97C247.545 62.82 247.53 62.595 247.395 62.445L245.58 60.72H249.9C250.095 60.72 250.26 60.57 250.26 60.36V59.88C250.26 59.685 250.095 59.52 249.9 59.52H245.58L247.395 57.81C247.53 57.66 247.545 57.435 247.395 57.285L247.065 56.955C246.93 56.82 246.69 56.82 246.555 56.955L243.645 59.88C243.495 60.015 243.495 60.24 243.645 60.375L246.555 63.3C246.69 63.435 246.915 63.435 247.065 63.3L247.395 62.97Z" fill="white"/>
<path d="M253.419 63V57.4474H255.204C255.88 57.4474 256.391 57.5715 256.736 57.8198C257.084 58.0682 257.259 58.4266 257.259 58.895C257.259 59.1894 257.182 59.4416 257.028 59.6515C256.875 59.8614 256.608 60.0342 256.229 60.1699C256.667 60.2646 256.971 60.4336 257.139 60.6768C257.311 60.9174 257.397 61.1939 257.397 61.5062C257.397 62.5021 256.685 63 255.262 63H253.419ZM254.129 59.8896H255.339C255.531 59.8896 255.721 59.8627 255.911 59.809C256.1 59.7552 256.258 59.663 256.383 59.5325C256.508 59.4019 256.571 59.2189 256.571 58.9834C256.571 58.6608 256.447 58.4227 256.199 58.2691C255.953 58.113 255.633 58.0349 255.239 58.0349H254.129V59.8896ZM254.129 62.4086H255.254C255.717 62.4086 256.069 62.3331 256.31 62.1821C256.553 62.0285 256.675 61.793 256.675 61.4755C256.675 61.2426 256.615 61.0544 256.494 60.911C256.377 60.7651 256.217 60.6589 256.014 60.5923C255.812 60.5258 255.587 60.4925 255.339 60.4925H254.129V62.4086ZM259.884 63.0768C259.608 63.0742 259.354 63.023 259.124 62.9232C258.894 62.8208 258.708 62.6698 258.567 62.4701C258.429 62.2704 258.36 62.0221 258.36 61.7251V59.0294H259.07V61.6522C259.07 61.9107 259.15 62.1206 259.308 62.2819C259.47 62.4432 259.711 62.5238 260.034 62.5238C260.326 62.5238 260.56 62.4483 260.737 62.2973C260.916 62.1437 261.006 61.9158 261.006 61.6138V59.0294H261.712V63H261.148L261.075 62.2397C261.003 62.5392 260.857 62.7542 260.637 62.8848C260.417 63.0154 260.166 63.0794 259.884 63.0768ZM264.89 59.5478H263.995V62.017C263.995 62.2294 264.028 62.36 264.095 62.4086C264.164 62.4547 264.292 62.4778 264.479 62.4778H264.913V62.9539C264.862 62.9718 264.787 62.9872 264.69 63C264.593 63.0128 264.471 63.0192 264.325 63.0192C263.913 63.0192 263.635 62.936 263.492 62.7696C263.351 62.6032 263.281 62.36 263.281 62.04V59.5478H262.636V59.0294H263.3L263.473 57.8736H263.995V59.0256H264.89V59.5478ZM267.882 59.5478H266.988V62.017C266.988 62.2294 267.021 62.36 267.087 62.4086C267.157 62.4547 267.285 62.4778 267.471 62.4778H267.905V62.9539C267.854 62.9718 267.78 62.9872 267.683 63C267.585 63.0128 267.464 63.0192 267.318 63.0192C266.906 63.0192 266.628 62.936 266.485 62.7696C266.344 62.6032 266.273 62.36 266.273 62.04V59.5478H265.628V59.0294H266.293L266.465 57.8736H266.988V59.0256H267.882V59.5478ZM270.376 63.0768C269.825 63.0768 269.384 62.9014 269.051 62.5507C268.718 62.2 268.552 61.6931 268.552 61.0301C268.552 60.6154 268.622 60.2518 268.763 59.9395C268.904 59.6272 269.11 59.3853 269.381 59.2138C269.653 59.0397 269.984 58.9526 270.376 58.9526C270.924 58.9526 271.361 59.1318 271.689 59.4902C272.017 59.8486 272.181 60.3619 272.181 61.0301C272.181 61.4346 272.112 61.7904 271.973 62.0976C271.838 62.4048 271.635 62.6454 271.367 62.8195C271.1 62.991 270.77 63.0768 270.376 63.0768ZM270.376 62.5162C270.732 62.5162 271.004 62.383 271.194 62.1168C271.383 61.848 271.478 61.4806 271.478 61.0147C271.478 60.7306 271.44 60.4758 271.363 60.2506C271.288 60.0227 271.171 59.8422 271.009 59.7091C270.848 59.576 270.637 59.5094 270.376 59.5094C270.015 59.5094 269.738 59.6426 269.546 59.9088C269.354 60.1725 269.258 60.5411 269.258 61.0147C269.258 61.2938 269.297 61.5472 269.374 61.775C269.45 62.0029 269.571 62.1834 269.735 62.3165C269.898 62.4496 270.112 62.5162 270.376 62.5162ZM273.11 63V59.0294H273.797V59.6054C273.895 59.439 274.047 59.2918 274.254 59.1638C274.462 59.0358 274.724 58.9718 275.042 58.9718C275.292 58.9718 275.523 59.0218 275.733 59.1216C275.945 59.2214 276.114 59.3776 276.24 59.5901C276.368 59.8 276.432 60.0714 276.432 60.4042V63H275.721V60.4733C275.721 60.1635 275.639 59.9344 275.476 59.7859C275.314 59.6349 275.104 59.5594 274.846 59.5594C274.667 59.5594 274.499 59.5888 274.343 59.6477C274.187 59.704 274.06 59.791 273.963 59.9088C273.865 60.024 273.817 60.1699 273.817 60.3466V63H273.11Z" fill="#00284D"/>
<path d="M282.23 57.285C282.08 57.435 282.095 57.66 282.23 57.81L284.045 59.52H279.74C279.53 59.52 279.38 59.685 279.38 59.88V60.36C279.38 60.57 279.53 60.72 279.74 60.72H284.045L282.23 62.445C282.095 62.595 282.095 62.82 282.23 62.97L282.56 63.3C282.71 63.435 282.935 63.435 283.07 63.3L285.995 60.375C286.13 60.24 286.13 60.015 285.995 59.865L283.07 56.955C282.935 56.82 282.71 56.82 282.56 56.955L282.23 57.285Z" fill="white"/>
</g>
</g>
<path d="M27.0256 52.4102V67.68H37.2372V64.3008H31.1335V52.4102H27.0256Z" fill="white"/>
<path d="M43.8715 67.8912C47.2718 67.8912 49.426 65.5469 49.426 62.2944C49.426 58.9785 47.3035 56.5497 43.8926 56.5497C40.6401 56.5497 38.338 58.8518 38.338 62.2944C38.338 65.568 40.4923 67.8912 43.8715 67.8912ZM43.8926 64.9133C42.562 64.9133 42.3297 63.3081 42.3297 62.1465C42.3297 60.9638 42.562 59.4854 43.8926 59.4854C45.202 59.4854 45.4344 60.9638 45.4344 62.1465C45.4344 63.3081 45.202 64.9133 43.8926 64.9133Z" fill="white"/>
<path d="M56.278 71.2915C60.4175 71.2915 62.5084 69.7286 62.5084 67.6166C62.5084 65.927 61.1778 64.5542 58.1577 64.343C57.2284 64.2797 56.3625 64.2374 55.9823 64.2163C54.9052 64.1529 54.2294 64.1529 54.2294 63.8573C54.2294 63.7517 54.3138 63.7094 54.525 63.6672C54.8841 63.7094 55.6444 63.7305 55.9823 63.7305C59.446 63.7305 61.2834 61.8297 61.2834 59.9712C61.2834 59.8445 61.2412 59.4432 61.1567 59.1264L63.0153 58.8729L63.0364 55.9584C61.8326 56.4653 60.2697 57.0566 59.446 57.3734C58.6434 56.951 57.7986 56.592 56.2358 56.592C53.2578 56.592 50.6812 57.7958 50.6812 59.9923C50.6812 61.1539 51.4415 62.5478 53.0255 63.2448C51.3148 63.4771 50.5122 64.3008 50.5122 65.1667C50.5122 66.3705 51.7372 66.8352 52.054 67.0041C51.885 67.0464 49.8786 67.3632 49.8786 68.7782C49.8786 70.1721 51.9695 71.2915 56.278 71.2915ZM56.109 61.5763C55.3276 61.5763 54.7996 60.9638 54.7996 60.1401C54.7996 59.3165 55.3276 58.5984 56.109 58.5984C56.8905 58.5984 57.4185 59.3165 57.4185 60.1401C57.4185 60.9638 56.8905 61.5763 56.109 61.5763ZM56.9116 69.1373C54.8207 69.1373 53.8703 68.9894 53.8703 68.2925C53.8703 67.9334 54.1449 67.4477 55.2854 67.511L57.2706 67.6377C58.1154 67.7011 58.6223 67.9968 58.6223 68.4614C58.6223 68.8627 58.3477 69.1373 56.9116 69.1373Z" fill="white"/>
<path d="M68.9927 67.8912C72.393 67.8912 74.5473 65.5469 74.5473 62.2944C74.5473 58.9785 72.4247 56.5497 69.0138 56.5497C65.7614 56.5497 63.4593 58.8518 63.4593 62.2944C63.4593 65.568 65.6135 67.8912 68.9927 67.8912ZM69.0138 64.9133C67.6833 64.9133 67.451 63.3081 67.451 62.1465C67.451 60.9638 67.6833 59.4854 69.0138 59.4854C70.3233 59.4854 70.5556 60.9638 70.5556 62.1465C70.5556 63.3081 70.3233 64.9133 69.0138 64.9133Z" fill="white"/>
<g style="mix-blend-mode:color">
<rect width="320" height="120" fill="#808080"/>
</g>
<g style="mix-blend-mode:color">
<rect width="320" height="120" fill="#00284D"/>
</g>
<defs>
<filter id="filter0_d_454_436" x="235.72" y="50.16" width="58.2" height="21.68" filterUnits="userSpaceOnUse" color-interpolation-filters="sRGB">
<feFlood flood-opacity="0" result="BackgroundImageFix"/>
<feColorMatrix in="SourceAlpha" type="matrix" values="0 0 0 0 0 0 0 0 0 0 0 0 0 0 0 0 0 0 127 0" result="hardAlpha"/>
<feOffset dy="2"/>
<feColorMatrix type="matrix" values="0 0 0 0 0.423529 0 0 0 0 0.458824 0 0 0 0 0.490196 0 0 0 0.35 0"/>
<feBlend mode="normal" in2="BackgroundImageFix" result="effect1_dropShadow_454_436"/>
<feBlend mode="normal" in="SourceGraphic" in2="effect1_dropShadow_454_436" result="shape"/>
</filter>
<clipPath id="clip0_454_436">
<rect width="156.92" height="19.68" fill="white" transform="translate(137 50.16)"/>
</clipPath>
</defs>
</svg>
