<svg width="320" height="120" viewBox="0 0 320 120" fill="none" xmlns="http://www.w3.org/2000/svg">
<rect width="320" height="120" fill="#C0CEDB"/>
<rect width="292" height="63.875" transform="translate(14 28)" fill="#FFF1D6"/>
<rect x="221.832" y="63.0742" width="54.75" height="21.957" rx="4.5625" fill="#DEE2E6"/>
<rect x="162.852" y="63.0742" width="54.75" height="21.957" rx="4.5625" fill="#DEE2E6"/>
<rect x="221.832" y="37.125" width="54.75" height="21.957" rx="4.5625" fill="#DEE2E6"/>
<rect x="162.852" y="37.125" width="54.75" height="21.957" rx="4.5625" fill="#DEE2E6"/>
<path d="M235.627 77.6328L233.318 74.1972L235.44 71.0354H234.646L232.93 73.6543L231.201 71.0354H230.325L232.488 74.2611L230.238 77.6328H231.037L232.88 74.8177L234.746 77.6328H235.627ZM237.508 71.04H236.76V71.8247H237.508V71.04ZM237.485 72.9152H236.792V77.6328H237.485V72.9152ZM239.041 77.6328H239.753V74.4436C239.753 73.7638 240.373 73.4399 241.062 73.4399C241.733 73.4399 242.175 73.8186 242.175 74.617V77.6328H242.887V74.5531C242.887 73.3623 242.139 72.8422 241.231 72.8422C240.478 72.8422 239.963 73.1935 239.725 73.6041V72.9152H239.041V77.6328ZM248.241 72.8239C246.849 72.8239 246.101 73.8186 246.101 75.2877C246.101 76.8937 246.977 77.7241 248.241 77.7241C249.199 77.7241 249.965 77.172 250.107 76.2321H249.468C249.377 76.7431 248.925 77.1629 248.254 77.1629C247.287 77.1629 246.79 76.4192 246.79 75.2831C246.79 74.0147 247.388 73.4125 248.245 73.4125C248.921 73.4125 249.372 73.814 249.463 74.3478H250.111C249.965 73.3942 249.208 72.8239 248.241 72.8239ZM251.267 77.6328H251.979V74.4482C251.979 73.7684 252.595 73.4399 253.284 73.4399C253.954 73.4399 254.397 73.7866 254.397 74.3843V77.6328H255.109V74.2246C255.109 73.3851 254.388 72.8467 253.462 72.8467C252.704 72.8467 252.198 73.2072 251.956 73.6087V70.8529H251.267V77.6328ZM257.657 71.0354H256.813L258.031 72.3631H258.597L257.657 71.0354ZM257.785 77.7241C258.465 77.7241 259.072 77.4731 259.45 76.7249L259.5 77.6328H260.112V74.3478C260.112 73.3441 259.482 72.8239 258.314 72.8239C257.183 72.8239 256.517 73.3395 256.466 74.2246H257.114C257.224 73.6315 257.698 73.3714 258.282 73.3714C259.058 73.3669 259.423 73.7638 259.423 74.3797V74.7721L258.515 74.7995C256.914 74.8406 256.238 75.3242 256.238 76.3736C256.238 77.2222 256.863 77.7241 257.785 77.7241ZM257.986 77.1902C257.365 77.1902 256.936 76.8617 256.936 76.3097C256.936 75.5751 257.466 75.2831 258.666 75.2649L259.423 75.2512V76.0907C259.423 76.6427 258.656 77.1902 257.986 77.1902ZM263.345 77.7241C264.741 77.7241 265.457 76.7386 265.457 75.2922C265.457 73.6771 264.622 72.8239 263.345 72.8239C261.949 72.8239 261.214 73.8094 261.214 75.2922C261.214 76.8891 262.058 77.7241 263.345 77.7241ZM263.345 77.1492C262.35 77.1492 261.926 76.3462 261.926 75.274C261.926 74.0649 262.451 73.3988 263.345 73.3988C264.326 73.3988 264.746 74.1972 264.746 75.274C264.746 76.4739 264.23 77.1492 263.345 77.1492ZM267.424 71.0354H266.561L266.749 76.0542H267.241L267.424 71.0354ZM267.428 76.6656H266.552V77.6328H267.428V76.6656Z" fill="#00284D"/>
<path d="M184.613 74.5349V77.6328H185.325V71.0354H184.613V73.8916H180.872V71.0354H180.16V77.6328H180.872V74.5349H184.613ZM188.763 77.7241C190.159 77.7241 190.876 76.7386 190.876 75.2922C190.876 73.6771 190.041 72.8239 188.763 72.8239C187.367 72.8239 186.632 73.8094 186.632 75.2922C186.632 76.8891 187.477 77.7241 188.763 77.7241ZM188.763 77.1492C187.769 77.1492 187.344 76.3462 187.344 75.274C187.344 74.0649 187.869 73.3988 188.763 73.3988C189.744 73.3988 190.164 74.1972 190.164 75.274C190.164 76.4739 189.648 77.1492 188.763 77.1492ZM193.152 77.683C193.257 77.683 193.412 77.6602 193.545 77.6191V77.1537L193.28 77.1492C192.965 77.1309 192.751 76.9028 192.751 76.3872V70.8529H192.048V76.4466C192.048 77.1081 192.244 77.683 193.152 77.683ZM196.009 77.7241C196.688 77.7241 197.295 77.4731 197.674 76.7249L197.724 77.6328H198.335V74.3478C198.335 73.3441 197.706 72.8239 196.538 72.8239C195.406 72.8239 194.74 73.3395 194.69 74.2246H195.338C195.447 73.6315 195.922 73.3714 196.506 73.3714C197.282 73.3669 197.647 73.7638 197.647 74.3797V74.7721L196.739 74.7995C195.137 74.8406 194.462 75.3242 194.462 76.3736C194.462 77.2222 195.087 77.7241 196.009 77.7241ZM196.209 77.1902C195.589 77.1902 195.16 76.8617 195.16 76.3097C195.16 75.5751 195.689 75.2831 196.889 75.2649L197.647 75.2512V76.0907C197.647 76.6427 196.88 77.1902 196.209 77.1902ZM200.515 71.0354H199.652L199.839 76.0542H200.332L200.515 71.0354ZM200.519 76.6656H199.643V77.6328H200.519V76.6656Z" fill="#00284D"/>
<path d="M232.393 51.6836H234.496C236.148 51.6836 237.015 51.1042 237.015 49.9133C237.015 49.1332 236.632 48.5309 235.61 48.321C236.522 48.0153 236.855 47.5135 236.855 46.8017C236.855 45.693 236.011 45.0862 234.442 45.0862H232.393V51.6836ZM233.105 48.0336V45.693H234.46C235.468 45.693 236.162 46.0672 236.162 46.893C236.162 47.7918 235.308 48.0336 234.588 48.0336H233.105ZM233.105 51.0677V48.6587H234.588C235.532 48.6587 236.299 49.0054 236.299 49.8997C236.299 50.7118 235.664 51.0677 234.478 51.0677H233.105ZM240.167 51.7748C241.563 51.7748 242.279 50.7893 242.279 49.343C242.279 47.7279 241.445 46.8747 240.167 46.8747C238.771 46.8747 238.036 47.8602 238.036 49.343C238.036 50.9399 238.88 51.7748 240.167 51.7748ZM240.167 51.2C239.172 51.2 238.748 50.397 238.748 49.3248C238.748 48.1157 239.273 47.4496 240.167 47.4496C241.148 47.4496 241.568 48.248 241.568 49.3248C241.568 50.5247 241.052 51.2 240.167 51.2ZM243.452 51.6836H244.164V48.4944C244.164 47.8146 244.784 47.4907 245.473 47.4907C246.144 47.4907 246.586 47.8693 246.586 48.6678V51.6836H247.298V48.6039C247.298 47.4131 246.55 46.893 245.642 46.893C244.889 46.893 244.374 47.2443 244.136 47.6549V46.966H243.452V51.6836ZM249.545 45.0908H248.774V45.8755H249.545V45.0908ZM249.518 51.9619V46.966H248.806V51.9254C248.806 52.3999 248.647 52.5778 248.209 52.6052L247.716 52.6235L247.72 53.098C247.72 53.098 247.784 53.1983 248.304 53.1983C249.226 53.1983 249.518 52.8014 249.518 51.9619ZM252.856 51.7748C254.253 51.7748 254.969 50.7893 254.969 49.343C254.969 47.7279 254.134 46.8747 252.856 46.8747C251.46 46.8747 250.726 47.8602 250.726 49.343C250.726 50.9399 251.57 51.7748 252.856 51.7748ZM252.856 51.2C251.862 51.2 251.438 50.397 251.438 49.3248C251.438 48.1157 251.962 47.4496 252.856 47.4496C253.837 47.4496 254.257 48.248 254.257 49.3248C254.257 50.5247 253.742 51.2 252.856 51.2ZM257.866 51.7748C258.569 51.7794 259.116 51.4646 259.285 50.7893L259.358 51.6836H259.933V46.966H259.226V50.032C259.226 50.8122 258.733 51.2 257.994 51.2C257.164 51.2 256.767 50.7528 256.767 50.0867V46.966H256.055V50.1506C256.055 51.2273 256.858 51.7657 257.866 51.7748ZM261.461 51.6836H262.173V48.6541C262.173 47.8237 262.839 47.5363 263.51 47.5728C263.62 47.5728 263.807 47.591 263.907 47.6367V46.9432C263.82 46.893 263.661 46.8747 263.51 46.8747C262.949 46.8747 262.374 47.1485 262.137 47.8192V46.966H261.461V51.6836ZM265.766 45.0862H264.904L265.091 50.105H265.584L265.766 45.0862ZM265.771 50.7163H264.895V51.6836H265.771V50.7163Z" fill="#00284D"/>
<path d="M183.348 48.5857V51.6836H184.06V45.0862H183.348V47.9423H179.607V45.0862H178.895V51.6836H179.607V48.5857H183.348ZM186.138 49.489H189.574V49.197C189.574 47.7598 188.844 46.8747 187.543 46.8747C186.188 46.8747 185.408 47.8602 185.408 49.3704C185.408 50.8852 186.302 51.7748 187.603 51.7748C188.502 51.7748 189.359 51.2867 189.537 50.3377H188.853C188.734 50.8943 188.232 51.2045 187.589 51.2045C186.599 51.2045 186.134 50.4335 186.138 49.489ZM186.143 48.9826C186.134 48.2298 186.576 47.4313 187.534 47.4313C188.447 47.4313 188.88 48.1066 188.88 48.9826H186.143ZM191.905 51.7338C192.01 51.7338 192.165 51.711 192.297 51.6699V51.2045L192.032 51.2C191.718 51.1817 191.503 50.9536 191.503 50.438V44.9037H190.801V50.4973C190.801 51.1589 190.997 51.7338 191.905 51.7338ZM194.471 51.7338C194.576 51.7338 194.731 51.711 194.864 51.6699V51.2045L194.599 51.2C194.284 51.1817 194.07 50.9536 194.07 50.438V44.9037H193.367V50.4973C193.367 51.1589 193.563 51.7338 194.471 51.7338ZM197.701 51.7748C199.097 51.7748 199.813 50.7893 199.813 49.343C199.813 47.7279 198.979 46.8747 197.701 46.8747C196.305 46.8747 195.57 47.8602 195.57 49.343C195.57 50.9399 196.414 51.7748 197.701 51.7748ZM197.701 51.2C196.706 51.2 196.282 50.397 196.282 49.3248C196.282 48.1157 196.807 47.4496 197.701 47.4496C198.682 47.4496 199.102 48.248 199.102 49.3248C199.102 50.5247 198.586 51.2 197.701 51.2ZM201.78 45.0862H200.918L201.105 50.105H201.597L201.78 45.0862ZM201.784 50.7163H200.908V51.6836H201.784V50.7163Z" fill="#00284D"/>
<path opacity="0.7" d="M45.171 77.8742H44.9537C44.6663 78.2985 44.4644 78.8324 44.4644 79.397C44.4644 79.9787 44.6457 80.4184 44.928 80.8992H45.1436C44.9007 80.3876 44.7706 79.9154 44.7706 79.4004C44.7706 78.8597 44.9383 78.3191 45.171 77.8742ZM46.4213 80.4766H46.7464V78.4953L47.4582 80.4766H47.7542L48.4711 78.4765V80.4766H48.7978V78.0025H48.3616L47.6053 80.0454L46.8593 78.0025H46.4213V80.4766ZM50.0722 80.5108C50.5991 80.5108 50.878 80.1395 50.878 79.5989C50.878 79.0034 50.5615 78.6732 50.0739 78.6732C49.5503 78.6732 49.2612 79.0445 49.2612 79.5989C49.2612 80.1891 49.5811 80.5108 50.0722 80.5108ZM50.0739 80.261C49.7197 80.261 49.576 79.965 49.576 79.592C49.576 79.1711 49.7522 78.9213 50.0739 78.9213C50.4212 78.9213 50.5649 79.2139 50.5649 79.592C50.5649 80.0078 50.3904 80.261 50.0739 80.261ZM51.2987 80.4766H51.6135V79.3764C51.6135 79.0821 51.8427 78.9624 52.1251 78.9812C52.161 78.9812 52.2243 78.9863 52.2585 79.0017V78.6955C52.2294 78.6801 52.1747 78.6732 52.1233 78.6732C51.8992 78.6732 51.6888 78.793 51.5998 79.0479V78.7075H51.2987V80.4766ZM52.8413 79.6656H54.1091V79.5492C54.1091 79.012 53.8319 78.6732 53.334 78.6732C52.8191 78.6732 52.5213 79.0514 52.5213 79.6091C52.5213 80.1737 52.8618 80.5108 53.3563 80.5108C53.7002 80.5108 54.0321 80.3209 54.0971 79.9599H53.7994C53.7549 80.16 53.577 80.2661 53.3512 80.2661C53.0073 80.2661 52.8413 80.0009 52.8413 79.6656ZM52.843 79.4517C52.8413 79.1882 52.9987 78.9128 53.3323 78.9128C53.6523 78.9128 53.8046 79.1472 53.8046 79.4517H52.843ZM55.802 80.4988C55.8465 80.4988 55.9081 80.4885 55.9611 80.4714V80.2661L55.8653 80.2644C55.7404 80.2559 55.6669 80.1703 55.6669 79.9907V77.9341H55.3555V80.0215C55.3555 80.2695 55.4205 80.4988 55.802 80.4988ZM56.8708 80.5108C57.1241 80.5108 57.3414 80.4201 57.4782 80.1446L57.5022 80.4766H57.7725V79.2413C57.7725 78.8717 57.5432 78.6732 57.083 78.6732C56.6536 78.6732 56.3901 78.8631 56.3713 79.207H56.6501C56.6929 78.9966 56.864 78.9076 57.0676 78.9059C57.3396 78.9059 57.4663 79.0428 57.4663 79.2584V79.397L57.1514 79.4055C56.5458 79.4192 56.2874 79.6057 56.2874 79.9975C56.2874 80.3209 56.5269 80.5108 56.8708 80.5108ZM56.9649 80.2832C56.7477 80.2832 56.5937 80.1669 56.5937 79.9667C56.5937 79.7049 56.7973 79.604 57.2045 79.5971L57.4663 79.592V79.8948C57.4663 80.0916 57.2028 80.2832 56.9649 80.2832ZM58.2661 80.4766H58.5809V79.2943C58.5809 79.0565 58.7999 78.9436 59.0394 78.9436C59.2704 78.9436 59.4295 79.0753 59.4295 79.3508V80.4766H59.746V79.32C59.746 78.8751 59.462 78.6818 59.1267 78.6818C58.8426 78.6818 58.6596 78.817 58.5723 78.9641V78.7075H58.2661V80.4766ZM60.9887 81.0617C61.5755 81.0617 61.8595 80.8376 61.8595 80.5159C61.8595 80.2336 61.6508 80.0591 61.2812 80.0369C61.1187 80.0266 60.9852 80.0197 60.8963 80.0146C60.6499 79.9975 60.5592 79.9787 60.5592 79.9137C60.5592 79.8572 60.6328 79.8025 60.8757 79.7956C60.9048 79.7973 60.9545 79.799 60.9818 79.799C61.4763 79.799 61.7192 79.5527 61.7192 79.2396C61.7192 79.1643 61.697 79.0719 61.6611 78.9983L61.9707 78.9401L61.9725 78.6476C61.8766 78.6869 61.5961 78.8033 61.5208 78.8341C61.3856 78.7365 61.2419 78.6801 61.0126 78.6801C60.5319 78.6801 60.2427 78.8957 60.2427 79.2396C60.2427 79.4432 60.3642 79.6262 60.5729 79.7306C60.3642 79.7768 60.2598 79.8777 60.2598 79.9889C60.2598 80.1258 60.3813 80.1754 60.4429 80.2114C60.3984 80.2439 60.1075 80.3414 60.1075 80.5963C60.1075 80.8957 60.4343 81.0617 60.9887 81.0617ZM60.9921 79.5954C60.7166 79.5954 60.5592 79.4671 60.5592 79.243C60.5592 79.0052 60.732 78.8751 60.9921 78.8751C61.2453 78.8751 61.4164 79.0052 61.4164 79.243C61.4164 79.4757 61.2453 79.5954 60.9921 79.5954ZM61.0451 80.8581C60.6191 80.8581 60.4224 80.7486 60.4224 80.5604C60.4224 80.3961 60.5986 80.2712 60.732 80.2781L61.2282 80.3106C61.4438 80.3243 61.5516 80.4218 61.5516 80.5621C61.5516 80.7606 61.3719 80.8581 61.0451 80.8581ZM62.9697 80.5108C63.2195 80.5125 63.435 80.403 63.5001 80.1378L63.5326 80.4766H63.7841V78.7075H63.4693V79.8589C63.4693 80.1275 63.2965 80.2644 63.0364 80.2644C62.7472 80.2644 62.607 80.107 62.607 79.876V78.7075H62.2904V79.9085C62.2904 80.3072 62.6018 80.5074 62.9697 80.5108ZM64.8006 80.5108C65.0539 80.5108 65.2711 80.4201 65.408 80.1446L65.432 80.4766H65.7023V79.2413C65.7023 78.8717 65.473 78.6732 65.0128 78.6732C64.5834 78.6732 64.3199 78.8631 64.301 79.207H64.5799C64.6227 78.9966 64.7938 78.9076 64.9974 78.9059C65.2694 78.9059 65.396 79.0428 65.396 79.2584V79.397L65.0812 79.4055C64.4756 79.4192 64.2172 79.6057 64.2172 79.9975C64.2172 80.3209 64.4567 80.5108 64.8006 80.5108ZM64.8947 80.2832C64.6775 80.2832 64.5235 80.1669 64.5235 79.9667C64.5235 79.7049 64.7271 79.604 65.1343 79.5971L65.396 79.592V79.8948C65.396 80.0916 65.1326 80.2832 64.8947 80.2832ZM66.9435 81.0617C67.5304 81.0617 67.8144 80.8376 67.8144 80.5159C67.8144 80.2336 67.6057 80.0591 67.2361 80.0369C67.0736 80.0266 66.9401 80.0197 66.8511 80.0146C66.6048 79.9975 66.5141 79.9787 66.5141 79.9137C66.5141 79.8572 66.5877 79.8025 66.8306 79.7956C66.8597 79.7973 66.9093 79.799 66.9367 79.799C67.4312 79.799 67.6741 79.5527 67.6741 79.2396C67.6741 79.1643 67.6519 79.0719 67.6159 78.9983L67.9256 78.9401L67.9273 78.6476C67.8315 78.6869 67.5509 78.8033 67.4756 78.8341C67.3405 78.7365 67.1968 78.6801 66.9675 78.6801C66.4867 78.6801 66.1976 78.8957 66.1976 79.2396C66.1976 79.4432 66.319 79.6262 66.5278 79.7306C66.319 79.7768 66.2147 79.8777 66.2147 79.9889C66.2147 80.1258 66.3362 80.1754 66.3977 80.2114C66.3533 80.2439 66.0624 80.3414 66.0624 80.5963C66.0624 80.8957 66.3892 81.0617 66.9435 81.0617ZM66.947 79.5954C66.6715 79.5954 66.5141 79.4671 66.5141 79.243C66.5141 79.0052 66.6869 78.8751 66.947 78.8751C67.2002 78.8751 67.3713 79.0052 67.3713 79.243C67.3713 79.4757 67.2002 79.5954 66.947 79.5954ZM67 80.8581C66.574 80.8581 66.3772 80.7486 66.3772 80.5604C66.3772 80.3961 66.5534 80.2712 66.6869 80.2781L67.1831 80.3106C67.3986 80.3243 67.5064 80.4218 67.5064 80.5621C67.5064 80.7606 67.3268 80.8581 67 80.8581ZM68.5004 79.6656H69.7682V79.5492C69.7682 79.012 69.491 78.6732 68.9931 78.6732C68.4781 78.6732 68.1804 79.0514 68.1804 79.6091C68.1804 80.1737 68.5209 80.5108 69.0154 80.5108C69.3593 80.5108 69.6912 80.3209 69.7562 79.9599H69.4585C69.414 80.16 69.2361 80.2661 69.0102 80.2661C68.6663 80.2661 68.5004 80.0009 68.5004 79.6656ZM68.5021 79.4517C68.5004 79.1882 68.6578 78.9128 68.9914 78.9128C69.3114 78.9128 69.4636 79.1472 69.4636 79.4517H68.5021ZM70.829 80.5108C71.2601 80.5108 71.5099 80.3106 71.5099 79.9855C71.5099 79.811 71.421 79.5954 71.0959 79.5099L70.74 79.4209C70.545 79.373 70.4423 79.3097 70.4423 79.1831C70.4423 78.9949 70.598 78.9059 70.8238 78.9059C71.0428 78.9059 71.1729 79.012 71.1968 79.1814H71.4774C71.4654 78.8495 71.2105 78.6732 70.8273 78.6732C70.379 78.6732 70.1514 78.8922 70.1531 79.2019C70.1549 79.4654 70.3379 79.6006 70.6237 79.669L70.9898 79.7597C71.1506 79.7973 71.2259 79.8726 71.2259 80.0026C71.2259 80.1874 71.0668 80.2747 70.8273 80.2747C70.6031 80.2747 70.4252 80.1686 70.3807 79.9616H70.0933C70.1446 80.3431 70.4594 80.5108 70.829 80.5108ZM73.2417 80.5108C73.4949 80.5108 73.7122 80.4201 73.8491 80.1446L73.873 80.4766H74.1434V79.2413C74.1434 78.8717 73.9141 78.6732 73.4539 78.6732C73.0244 78.6732 72.7609 78.8631 72.7421 79.207H73.021C73.0638 78.9966 73.2349 78.9076 73.4385 78.9059C73.7105 78.9059 73.8371 79.0428 73.8371 79.2584V79.397L73.5223 79.4055C72.9166 79.4192 72.6583 79.6057 72.6583 79.9975C72.6583 80.3209 72.8978 80.5108 73.2417 80.5108ZM73.3358 80.2832C73.1185 80.2832 72.9645 80.1669 72.9645 79.9667C72.9645 79.7049 73.1681 79.604 73.5753 79.5971L73.8371 79.592V79.8948C73.8371 80.0916 73.5736 80.2832 73.3358 80.2832ZM74.6369 80.4766H74.9517V79.3764C74.9517 79.0821 75.181 78.9624 75.4633 78.9812C75.4992 78.9812 75.5625 78.9863 75.5968 79.0017V78.6955C75.5677 78.6801 75.5129 78.6732 75.4616 78.6732C75.2375 78.6732 75.027 78.793 74.9381 79.0479V78.7075H74.6369V80.4766ZM76.1796 79.6656H77.4474V79.5492C77.4474 79.012 77.1702 78.6732 76.6723 78.6732C76.1573 78.6732 75.8596 79.0514 75.8596 79.6091C75.8596 80.1737 76.2001 80.5108 76.6945 80.5108C77.0384 80.5108 77.3704 80.3209 77.4354 79.9599H77.1377C77.0932 80.16 76.9153 80.2661 76.6894 80.2661C76.3455 80.2661 76.1796 80.0009 76.1796 79.6656ZM76.1813 79.4517C76.1796 79.1882 76.337 78.9128 76.6706 78.9128C76.9905 78.9128 77.1428 79.1472 77.1428 79.4517H76.1813ZM79.3586 80.5108C79.8856 80.5108 80.1645 80.1395 80.1645 79.5989C80.1645 79.0034 79.8479 78.6732 79.3603 78.6732C78.8368 78.6732 78.5476 79.0445 78.5476 79.5989C78.5476 80.1891 78.8676 80.5108 79.3586 80.5108ZM79.3603 80.261C79.0062 80.261 78.8624 79.965 78.8624 79.592C78.8624 79.1711 79.0387 78.9213 79.3603 78.9213C79.7076 78.9213 79.8514 79.2139 79.8514 79.592C79.8514 80.0078 79.6768 80.261 79.3603 80.261ZM80.5851 80.4766H80.8999V79.2943C80.8999 79.0565 81.1189 78.9436 81.3585 78.9436C81.5894 78.9436 81.7485 79.0753 81.7485 79.3508V80.4766H82.0651V79.32C82.0651 78.8751 81.7811 78.6818 81.4457 78.6818C81.1617 78.6818 80.9786 78.817 80.8914 78.9641V78.7075H80.5851V80.4766ZM84.2921 78.9384V78.7057H83.8934V78.1925H83.6607L83.5837 78.7075H83.2877V78.9384H83.5752V80.0488C83.5752 80.3328 83.6727 80.4851 84.0406 80.4851C84.1689 80.4851 84.2578 80.4731 84.3023 80.456V80.2439H84.109C83.943 80.2439 83.8934 80.2268 83.8934 80.0386V78.9384H84.2921ZM84.7221 80.4766H85.0369V79.296C85.0369 79.0582 85.2525 78.9436 85.492 78.9436C85.7247 78.9436 85.8838 79.065 85.8838 79.2755V80.4766H86.2004V79.2122C86.2004 78.8888 85.9283 78.6852 85.5827 78.6852C85.2987 78.6852 85.119 78.8221 85.0301 78.9675V77.9341H84.7221V80.4766ZM86.9264 79.6656H88.1942V79.5492C88.1942 79.012 87.917 78.6732 87.4191 78.6732C86.9041 78.6732 86.6064 79.0514 86.6064 79.6091C86.6064 80.1737 86.9469 80.5108 87.4414 80.5108C87.7853 80.5108 88.1172 80.3209 88.1822 79.9599H87.8845C87.84 80.16 87.6621 80.2661 87.4362 80.2661C87.0923 80.2661 86.9264 80.0009 86.9264 79.6656ZM86.9281 79.4517C86.9264 79.1882 87.0838 78.9128 87.4174 78.9128C87.7374 78.9128 87.8896 79.1472 87.8896 79.4517H86.9281ZM91.7457 78.7075H91.4497L91.0614 80.0642H91.034L90.6199 78.7075H90.3804L89.9818 80.0676H89.9544L89.5506 78.7075H89.2563L89.8038 80.4766H90.1118L90.4968 79.1711L90.8988 80.4766H91.2102L91.7457 78.7075ZM92.5633 80.5108C92.8165 80.5108 93.0338 80.4201 93.1707 80.1446L93.1946 80.4766H93.4649V79.2413C93.4649 78.8717 93.2357 78.6732 92.7754 78.6732C92.346 78.6732 92.0825 78.8631 92.0637 79.207H92.3426C92.3853 78.9966 92.5564 78.9076 92.76 78.9059C93.0321 78.9059 93.1587 79.0428 93.1587 79.2584V79.397L92.8439 79.4055C92.2382 79.4192 91.9798 79.6057 91.9798 79.9975C91.9798 80.3209 92.2194 80.5108 92.5633 80.5108ZM92.6574 80.2832C92.4401 80.2832 92.2861 80.1669 92.2861 79.9667C92.2861 79.7049 92.4897 79.604 92.8969 79.5971L93.1587 79.592V79.8948C93.1587 80.0916 92.8952 80.2832 92.6574 80.2832ZM94.0779 81.0412C94.3226 81.0412 94.5074 80.9471 94.6459 80.61L95.3902 78.7075H95.0805L94.5621 80.0728L94.0403 78.7075H93.7203L94.4115 80.4338L94.3499 80.6015C94.314 80.6887 94.2507 80.8051 93.9872 80.7948L93.8059 80.7914V80.9967C93.8059 80.9967 93.8709 81.0412 94.0779 81.0412ZM95.4889 80.4766H95.8653V80.0728H95.4889V80.4766ZM96.9447 77.8742C97.1774 78.3191 97.3451 78.8597 97.3451 79.4004C97.3451 79.9154 97.215 80.3876 96.9721 80.8992H97.1877C97.47 80.4184 97.6496 79.9787 97.6496 79.397C97.6496 78.8324 97.4494 78.2985 97.162 77.8742H96.9447Z" fill="#00284D"/>
<path d="M48.472 53.9396H48.0477L47.304 56.5653L46.5626 53.9396H46.2318L45.4881 56.5653L44.7581 53.9396H44.3315L45.2828 57.2383H45.6615L46.396 54.681L47.1192 57.2383H47.5093L48.472 53.9396ZM49.0251 56.157H50.7155V56.0018C50.7155 55.2855 50.3459 54.8338 49.6821 54.8338C48.9954 54.8338 48.5985 55.338 48.5985 56.0817C48.5985 56.8345 49.0524 57.2839 49.7117 57.2839C50.1703 57.2839 50.6128 57.0307 50.6995 56.5493H50.3026C50.2433 56.8162 50.006 56.9577 49.7049 56.9577C49.2463 56.9577 49.0251 56.6041 49.0251 56.157ZM49.0273 55.8718C49.0251 55.5205 49.2349 55.1532 49.6798 55.1532C50.1064 55.1532 50.3094 55.4657 50.3094 55.8718H49.0273ZM53.2259 57.2839C53.8008 57.2839 54.1339 57.017 54.1339 56.5836C54.1339 56.3509 54.0152 56.0634 53.5818 55.9494L53.1073 55.8307C52.8472 55.7669 52.7104 55.6825 52.7104 55.5137C52.7104 55.2627 52.9179 55.1441 53.2191 55.1441C53.5111 55.1441 53.6844 55.2855 53.7164 55.5114H54.0905C54.0745 55.0688 53.7346 54.8338 53.2236 54.8338C52.6259 54.8338 52.3225 55.1258 52.3248 55.5387C52.3271 55.8901 52.5712 56.0703 52.9522 56.1615L53.4404 56.2824C53.6548 56.3326 53.7552 56.433 53.7552 56.6064C53.7552 56.8527 53.543 56.9691 53.2236 56.9691C52.9248 56.9691 52.6875 56.8277 52.6282 56.5516H52.245C52.3134 57.0603 52.7332 57.2839 53.2259 57.2839ZM54.6897 57.9728H55.114V56.8117C55.2121 57.0124 55.4334 57.2839 55.8554 57.2839C56.4759 57.2839 56.8455 56.8368 56.8455 56.0269C56.8455 55.2148 56.4531 54.8338 55.8897 54.8338C55.4562 54.8338 55.2213 55.0962 55.114 55.2901L55.1095 54.8795H54.6897V57.9728ZM55.7756 56.9554C55.3376 56.9554 55.1095 56.5493 55.1095 56.0406C55.1095 55.5205 55.3376 55.1623 55.7756 55.1623C56.2068 55.1623 56.4372 55.5045 56.4372 56.0406C56.4372 56.668 56.1634 56.9554 55.7756 56.9554ZM57.7179 56.157H59.4083V56.0018C59.4083 55.2855 59.0387 54.8338 58.3749 54.8338C57.6882 54.8338 57.2913 55.338 57.2913 56.0817C57.2913 56.8345 57.7453 57.2839 58.4045 57.2839C58.8631 57.2839 59.3056 57.0307 59.3923 56.5493H58.9954C58.9361 56.8162 58.6988 56.9577 58.3977 56.9577C57.9392 56.9577 57.7179 56.6041 57.7179 56.157ZM57.7202 55.8718C57.7179 55.5205 57.9278 55.1532 58.3726 55.1532C58.7992 55.1532 59.0022 55.4657 59.0022 55.8718H57.7202ZM60.6222 57.2839C60.9599 57.2839 61.2496 57.163 61.4321 56.7957L61.464 57.2383H61.8244V55.5912C61.8244 55.0985 61.5188 54.8338 60.9051 54.8338C60.3325 54.8338 59.9812 55.0871 59.9561 55.5456H60.3279C60.385 55.265 60.6131 55.1464 60.8846 55.1441C61.2473 55.1441 61.4161 55.3266 61.4161 55.614V55.7988L60.9964 55.8102C60.1888 55.8285 59.8443 56.0771 59.8443 56.5995C59.8443 57.0307 60.1637 57.2839 60.6222 57.2839ZM60.7477 56.9805C60.458 56.9805 60.2527 56.8254 60.2527 56.5585C60.2527 56.2094 60.5241 56.0748 61.0671 56.0657L61.4161 56.0589V56.4627C61.4161 56.725 61.0648 56.9805 60.7477 56.9805ZM64.5539 57.2383L63.6437 55.7783L64.4946 54.8795H64.011L62.9023 56.0589V53.8483H62.4825V57.2383H62.9023V56.5357L63.3676 56.0543L64.1068 57.2383H64.5539ZM67.4633 54.8795H66.8839V54.551C66.8839 54.3411 66.9409 54.2384 67.1348 54.2384H67.4862L67.4839 53.9396H67.039C66.6581 53.9396 66.4687 54.1403 66.4687 54.5145V54.8795H65.9691V55.1874H66.4687V57.2383H66.8907V55.1874H67.4633V54.8795ZM68.8717 57.2839C69.5743 57.2839 69.9461 56.7889 69.9461 56.068C69.9461 55.2741 69.5241 54.8338 68.8739 54.8338C68.1759 54.8338 67.7903 55.3289 67.7903 56.068C67.7903 56.855 68.2169 57.2839 68.8717 57.2839ZM68.8739 56.9508C68.4017 56.9508 68.2101 56.5562 68.2101 56.0589C68.2101 55.4977 68.4451 55.1646 68.8739 55.1646C69.337 55.1646 69.5287 55.5547 69.5287 56.0589C69.5287 56.6132 69.296 56.9508 68.8739 56.9508ZM71.365 57.2839C71.698 57.2862 71.9855 57.1402 72.0721 56.7866L72.1155 57.2383H72.4508V54.8795H72.0311V56.4147C72.0311 56.7729 71.8007 56.9554 71.4539 56.9554C71.0684 56.9554 70.8813 56.7455 70.8813 56.4376V54.8795H70.4593V56.4809C70.4593 57.0124 70.8745 57.2793 71.365 57.2839ZM73.1759 57.2383H73.5956V55.7714C73.5956 55.3791 73.9013 55.2194 74.2777 55.2445C74.3256 55.2445 74.41 55.2513 74.4557 55.2718V54.8635C74.4169 54.843 74.3439 54.8338 74.2754 54.8338C73.9766 54.8338 73.696 54.9935 73.5774 55.3334V54.8795H73.1759V57.2383ZM76.6629 57.2679C76.7223 57.2679 76.8044 57.2543 76.8751 57.2314V56.9577L76.7473 56.9554C76.5808 56.944 76.4827 56.8299 76.4827 56.5904V53.8483H76.0675V56.6315C76.0675 56.9622 76.1542 57.2679 76.6629 57.2679ZM78.088 57.2839C78.4257 57.2839 78.7154 57.163 78.8979 56.7957L78.9298 57.2383H79.2903V55.5912C79.2903 55.0985 78.9846 54.8338 78.3709 54.8338C77.7983 54.8338 77.447 55.0871 77.4219 55.5456H77.7938C77.8508 55.265 78.0789 55.1464 78.3504 55.1441C78.7131 55.1441 78.8819 55.3266 78.8819 55.614V55.7988L78.4622 55.8102C77.6546 55.8285 77.3101 56.0771 77.3101 56.5995C77.3101 57.0307 77.6295 57.2839 78.088 57.2839ZM78.2135 56.9805C77.9238 56.9805 77.7185 56.8254 77.7185 56.5585C77.7185 56.2094 77.99 56.0748 78.5329 56.0657L78.8819 56.0589V56.4627C78.8819 56.725 78.5306 56.9805 78.2135 56.9805ZM79.9483 57.2383H80.3681V55.6619C80.3681 55.3448 80.6601 55.1943 80.9795 55.1943C81.2874 55.1943 81.4996 55.3699 81.4996 55.7372V57.2383H81.9216V55.6962C81.9216 55.103 81.5429 54.8452 81.0958 54.8452C80.7171 54.8452 80.473 55.0255 80.3567 55.2217V54.8795H79.9483V57.2383ZM83.5785 58.0185C84.361 58.0185 84.7396 57.7196 84.7396 57.2908C84.7396 56.9143 84.4613 56.6817 83.9686 56.652C83.7519 56.6383 83.5739 56.6292 83.4553 56.6223C83.1268 56.5995 83.0059 56.5744 83.0059 56.4877C83.0059 56.4125 83.104 56.3395 83.4279 56.3303C83.4667 56.3326 83.5329 56.3349 83.5694 56.3349C84.2286 56.3349 84.5526 56.0064 84.5526 55.5889C84.5526 55.4886 84.5229 55.3654 84.475 55.2673L84.8879 55.1897L84.8902 54.7996C84.7625 54.8521 84.3883 55.0072 84.288 55.0483C84.1077 54.9182 83.9161 54.843 83.6104 54.843C82.9694 54.843 82.5839 55.1304 82.5839 55.5889C82.5839 55.8604 82.7458 56.1045 83.0241 56.2437C82.7458 56.3052 82.6067 56.4398 82.6067 56.5881C82.6067 56.7706 82.7686 56.8368 82.8508 56.8847C82.7915 56.928 82.4036 57.0581 82.4036 57.398C82.4036 57.7972 82.8394 58.0185 83.5785 58.0185ZM83.583 56.0634C83.2158 56.0634 83.0059 55.8923 83.0059 55.5935C83.0059 55.2764 83.2363 55.103 83.583 55.103C83.9207 55.103 84.1488 55.2764 84.1488 55.5935C84.1488 55.9037 83.9207 56.0634 83.583 56.0634ZM83.6538 57.747C83.0857 57.747 82.8234 57.601 82.8234 57.3501C82.8234 57.1311 83.0584 56.9645 83.2363 56.9737L83.8979 57.017C84.1853 57.0352 84.329 57.1653 84.329 57.3523C84.329 57.617 84.0895 57.747 83.6538 57.747ZM86.2198 57.2839C86.5529 57.2862 86.8403 57.1402 86.927 56.7866L86.9703 57.2383H87.3057V54.8795H86.8859V56.4147C86.8859 56.7729 86.6555 56.9554 86.3088 56.9554C85.9233 56.9554 85.7362 56.7455 85.7362 56.4376V54.8795H85.3142V56.4809C85.3142 57.0124 85.7293 57.2793 86.2198 57.2839ZM88.6611 57.2839C88.9987 57.2839 89.2885 57.163 89.471 56.7957L89.5029 57.2383H89.8633V55.5912C89.8633 55.0985 89.5576 54.8338 88.944 54.8338C88.3714 54.8338 88.0201 55.0871 87.995 55.5456H88.3668C88.4239 55.265 88.652 55.1464 88.9235 55.1441C89.2862 55.1441 89.455 55.3266 89.455 55.614V55.7988L89.0352 55.8102C88.2277 55.8285 87.8832 56.0771 87.8832 56.5995C87.8832 57.0307 88.2026 57.2839 88.6611 57.2839ZM88.7866 56.9805C88.4969 56.9805 88.2915 56.8254 88.2915 56.5585C88.2915 56.2094 88.563 56.0748 89.106 56.0657L89.455 56.0589V56.4627C89.455 56.725 89.1037 56.9805 88.7866 56.9805ZM91.5183 58.0185C92.3008 58.0185 92.6795 57.7196 92.6795 57.2908C92.6795 56.9143 92.4011 56.6817 91.9084 56.652C91.6917 56.6383 91.5137 56.6292 91.3951 56.6223C91.0666 56.5995 90.9457 56.5744 90.9457 56.4877C90.9457 56.4125 91.0438 56.3395 91.3677 56.3303C91.4065 56.3326 91.4727 56.3349 91.5092 56.3349C92.1685 56.3349 92.4924 56.0064 92.4924 55.5889C92.4924 55.4886 92.4627 55.3654 92.4148 55.2673L92.8277 55.1897L92.83 54.7996C92.7023 54.8521 92.3281 55.0072 92.2278 55.0483C92.0476 54.9182 91.8559 54.843 91.5502 54.843C90.9092 54.843 90.5237 55.1304 90.5237 55.5889C90.5237 55.8604 90.6856 56.1045 90.964 56.2437C90.6856 56.3052 90.5465 56.4398 90.5465 56.5881C90.5465 56.7706 90.7085 56.8368 90.7906 56.8847C90.7313 56.928 90.3435 57.0581 90.3435 57.398C90.3435 57.7972 90.7792 58.0185 91.5183 58.0185ZM91.5229 56.0634C91.1556 56.0634 90.9457 55.8923 90.9457 55.5935C90.9457 55.2764 91.1761 55.103 91.5229 55.103C91.8605 55.103 92.0886 55.2764 92.0886 55.5935C92.0886 55.9037 91.8605 56.0634 91.5229 56.0634ZM91.5936 57.747C91.0256 57.747 90.7632 57.601 90.7632 57.3501C90.7632 57.1311 90.9982 56.9645 91.1761 56.9737L91.8377 57.017C92.1251 57.0352 92.2688 57.1653 92.2688 57.3523C92.2688 57.617 92.0293 57.747 91.5936 57.747ZM93.5941 56.157H95.2845V56.0018C95.2845 55.2855 94.9149 54.8338 94.2511 54.8338C93.5644 54.8338 93.1675 55.338 93.1675 56.0817C93.1675 56.8345 93.6215 57.2839 94.2808 57.2839C94.7393 57.2839 95.1818 57.0307 95.2685 56.5493H94.8716C94.8123 56.8162 94.575 56.9577 94.2739 56.9577C93.8154 56.9577 93.5941 56.6041 93.5941 56.157ZM93.5964 55.8718C93.5941 55.5205 93.804 55.1532 94.2488 55.1532C94.6754 55.1532 94.8784 55.4657 94.8784 55.8718H93.5964ZM96.6989 57.2839C97.2738 57.2839 97.6068 57.017 97.6068 56.5836C97.6068 56.3509 97.4882 56.0634 97.0548 55.9494L96.5803 55.8307C96.3202 55.7669 96.1833 55.6825 96.1833 55.5137C96.1833 55.2627 96.3909 55.1441 96.692 55.1441C96.984 55.1441 97.1574 55.2855 97.1893 55.5114H97.5635C97.5475 55.0688 97.2076 54.8338 96.6966 54.8338C96.0989 54.8338 95.7955 55.1258 95.7978 55.5387C95.8001 55.8901 96.0442 56.0703 96.4251 56.1615L96.9133 56.2824C97.1278 56.3326 97.2281 56.433 97.2281 56.6064C97.2281 56.8527 97.016 56.9691 96.6966 56.9691C96.3978 56.9691 96.1605 56.8277 96.1012 56.5516H95.7179C95.7864 57.0603 96.2061 57.2839 96.6989 57.2839ZM98.0646 57.2383H98.5665V56.6999H98.0646V57.2383ZM104.055 53.9396H103.631L102.887 56.5653L102.146 53.9396H101.815L101.071 56.5653L100.341 53.9396H99.9147L100.866 57.2383H101.245L101.979 54.681L102.702 57.2383H103.092L104.055 53.9396ZM104.608 56.157H106.299V56.0018C106.299 55.2855 105.929 54.8338 105.265 54.8338C104.579 54.8338 104.182 55.338 104.182 56.0817C104.182 56.8345 104.636 57.2839 105.295 57.2839C105.753 57.2839 106.196 57.0307 106.283 56.5493H105.886C105.826 56.8162 105.589 56.9577 105.288 56.9577C104.83 56.9577 104.608 56.6041 104.608 56.157ZM104.611 55.8718C104.608 55.5205 104.818 55.1532 105.263 55.1532C105.69 55.1532 105.893 55.4657 105.893 55.8718H104.611ZM108.809 57.2839C109.384 57.2839 109.717 57.017 109.717 56.5836C109.717 56.3509 109.598 56.0634 109.165 55.9494L108.69 55.8307C108.43 55.7669 108.294 55.6825 108.294 55.5137C108.294 55.2627 108.501 55.1441 108.802 55.1441C109.094 55.1441 109.268 55.2855 109.3 55.5114H109.674C109.658 55.0688 109.318 54.8338 108.807 54.8338C108.209 54.8338 107.906 55.1258 107.908 55.5387C107.91 55.8901 108.154 56.0703 108.535 56.1615L109.024 56.2824C109.238 56.3326 109.338 56.433 109.338 56.6064C109.338 56.8527 109.126 56.9691 108.807 56.9691C108.508 56.9691 108.271 56.8277 108.211 56.5516H107.828C107.897 57.0603 108.316 57.2839 108.809 57.2839ZM110.273 57.9728H110.697V56.8117C110.795 57.0124 111.017 57.2839 111.439 57.2839C112.059 57.2839 112.429 56.8368 112.429 56.0269C112.429 55.2148 112.036 54.8338 111.473 54.8338C111.039 54.8338 110.804 55.0962 110.697 55.2901L110.693 54.8795H110.273V57.9728ZM111.359 56.9554C110.921 56.9554 110.693 56.5493 110.693 56.0406C110.693 55.5205 110.921 55.1623 111.359 55.1623C111.79 55.1623 112.02 55.5045 112.02 56.0406C112.02 56.668 111.747 56.9554 111.359 56.9554ZM113.301 56.157H114.991V56.0018C114.991 55.2855 114.622 54.8338 113.958 54.8338C113.271 54.8338 112.874 55.338 112.874 56.0817C112.874 56.8345 113.328 57.2839 113.988 57.2839C114.446 57.2839 114.889 57.0307 114.976 56.5493H114.579C114.519 56.8162 114.282 56.9577 113.981 56.9577C113.522 56.9577 113.301 56.6041 113.301 56.157ZM113.303 55.8718C113.301 55.5205 113.511 55.1532 113.956 55.1532C114.382 55.1532 114.585 55.4657 114.585 55.8718H113.303ZM116.205 57.2839C116.543 57.2839 116.833 57.163 117.015 56.7957L117.047 57.2383H117.408V55.5912C117.408 55.0985 117.102 54.8338 116.488 54.8338C115.916 54.8338 115.564 55.0871 115.539 55.5456H115.911C115.968 55.265 116.196 55.1464 116.468 55.1441C116.83 55.1441 116.999 55.3266 116.999 55.614V55.7988L116.58 55.8102C115.772 55.8285 115.428 56.0771 115.428 56.5995C115.428 57.0307 115.747 57.2839 116.205 57.2839ZM116.331 56.9805C116.041 56.9805 115.836 56.8254 115.836 56.5585C115.836 56.2094 116.107 56.0748 116.65 56.0657L116.999 56.0589V56.4627C116.999 56.725 116.648 56.9805 116.331 56.9805ZM120.137 57.2383L119.227 55.7783L120.078 54.8795H119.594L118.485 56.0589V53.8483H118.066V57.2383H118.485V56.5357L118.951 56.0543L119.69 57.2383H120.137ZM44.6623 63.2383H46.7861V62.8619L45.0843 62.8573V61.7577H46.5763V61.3882H45.0866V60.3114H46.7405L46.7428 59.9396H44.6623V63.2383ZM47.347 63.2383H47.7667V61.6619C47.7667 61.3448 48.0587 61.1943 48.3781 61.1943C48.686 61.1943 48.8982 61.3699 48.8982 61.7372V63.2383H49.3202V61.6962C49.3202 61.103 48.9415 60.8452 48.4944 60.8452C48.1157 60.8452 47.8716 61.0255 47.7553 61.2217V60.8795H47.347V63.2383ZM50.9771 64.0185C51.7596 64.0185 52.1383 63.7196 52.1383 63.2908C52.1383 62.9143 51.8599 62.6817 51.3672 62.652C51.1505 62.6383 50.9725 62.6292 50.8539 62.6223C50.5254 62.5995 50.4045 62.5744 50.4045 62.4877C50.4045 62.4125 50.5026 62.3395 50.8265 62.3303C50.8653 62.3326 50.9315 62.3349 50.968 62.3349C51.6273 62.3349 51.9512 62.0064 51.9512 61.5889C51.9512 61.4886 51.9215 61.3654 51.8736 61.2673L52.2865 61.1897L52.2888 60.7996C52.1611 60.8521 51.7869 61.0072 51.6866 61.0483C51.5064 60.9182 51.3147 60.843 51.009 60.843C50.368 60.843 49.9825 61.1304 49.9825 61.5889C49.9825 61.8604 50.1444 62.1045 50.4228 62.2437C50.1444 62.3052 50.0053 62.4398 50.0053 62.5881C50.0053 62.7706 50.1673 62.8368 50.2494 62.8847C50.1901 62.928 49.8023 63.0581 49.8023 63.398C49.8023 63.7972 50.238 64.0185 50.9771 64.0185ZM50.9817 62.0634C50.6144 62.0634 50.4045 61.8923 50.4045 61.5935C50.4045 61.2764 50.6349 61.103 50.9817 61.103C51.3193 61.103 51.5474 61.2764 51.5474 61.5935C51.5474 61.9037 51.3193 62.0634 50.9817 62.0634ZM51.0524 63.747C50.4844 63.747 50.222 63.601 50.222 63.3501C50.222 63.1311 50.457 62.9645 50.6349 62.9737L51.2965 63.017C51.5839 63.0352 51.7276 63.1653 51.7276 63.3523C51.7276 63.617 51.4881 63.747 51.0524 63.747ZM53.4138 63.2679C53.4731 63.2679 53.5552 63.2543 53.626 63.2314V62.9577L53.4982 62.9554C53.3317 62.944 53.2336 62.8299 53.2336 62.5904V59.8483H52.8184V62.6315C52.8184 62.9622 52.9051 63.2679 53.4138 63.2679ZM54.6085 59.9419H54.1773V60.3799H54.6085V59.9419ZM54.5971 60.8795H54.1887V63.2383H54.5971V60.8795ZM56.1532 63.2839C56.7281 63.2839 57.0612 63.017 57.0612 62.5836C57.0612 62.3509 56.9425 62.0634 56.5091 61.9494L56.0346 61.8307C55.7745 61.7669 55.6377 61.6825 55.6377 61.5137C55.6377 61.2627 55.8453 61.1441 56.1464 61.1441C56.4384 61.1441 56.6118 61.2855 56.6437 61.5114H57.0178C57.0018 61.0688 56.6619 60.8338 56.1509 60.8338C55.5533 60.8338 55.2498 61.1258 55.2521 61.5387C55.2544 61.8901 55.4985 62.0703 55.8795 62.1615L56.3677 62.2824C56.5821 62.3326 56.6825 62.433 56.6825 62.6064C56.6825 62.8527 56.4703 62.9691 56.1509 62.9691C55.8521 62.9691 55.6148 62.8277 55.5555 62.5516H55.1723C55.2407 63.0603 55.6605 63.2839 56.1532 63.2839ZM57.617 63.2383H58.0368V61.6642C58.0368 61.3471 58.3242 61.1943 58.6436 61.1943C58.9538 61.1943 59.166 61.3562 59.166 61.6368V63.2383H59.588V61.5524C59.588 61.1213 59.2253 60.8498 58.7645 60.8498C58.3858 60.8498 58.1463 61.0323 58.0277 61.2262V59.8483H57.617V63.2383ZM60.0953 63.8109H60.2914L60.6793 63.1698V62.7318H60.1523V63.236L60.3508 63.2474L60.0953 63.8109ZM62.5113 59.9396V63.2383H62.9447V61.7646H64.4002V61.3996H62.9447V60.3092H64.5644L64.5667 59.9396H62.5113ZM65.1336 63.2383H65.5533V61.7714C65.5533 61.3791 65.859 61.2194 66.2354 61.2445C66.2833 61.2445 66.3677 61.2513 66.4134 61.2718V60.8635C66.3746 60.843 66.3016 60.8338 66.2331 60.8338C65.9343 60.8338 65.6537 60.9935 65.5351 61.3334V60.8795H65.1336V63.2383ZM67.1904 62.157H68.8808V62.0018C68.8808 61.2855 68.5113 60.8338 67.8474 60.8338C67.1608 60.8338 66.7638 61.338 66.7638 62.0817C66.7638 62.8345 67.2178 63.2839 67.8771 63.2839C68.3356 63.2839 68.7782 63.0307 68.8648 62.5493H68.4679C68.4086 62.8162 68.1713 62.9577 67.8702 62.9577C67.4117 62.9577 67.1904 62.6041 67.1904 62.157ZM67.1927 61.8718C67.1904 61.5205 67.4003 61.1532 67.8451 61.1532C68.2717 61.1532 68.4748 61.4657 68.4748 61.8718H67.1927ZM69.4644 63.2383H69.8841V61.6619C69.8841 61.3448 70.1761 61.1943 70.4955 61.1943C70.8035 61.1943 71.0156 61.3699 71.0156 61.7372V63.2383H71.4377V61.6962C71.4377 61.103 71.059 60.8452 70.6119 60.8452C70.2332 60.8452 69.9891 61.0255 69.8727 61.2217V60.8795H69.4644V63.2383ZM73.0466 60.8338C72.3508 60.8338 71.9608 61.3334 71.9608 62.068C71.9608 62.8596 72.4079 63.2839 73.0466 63.2839C73.5462 63.2839 73.9295 62.9851 73.9911 62.5106H73.6238C73.5827 62.7478 73.3774 62.9622 73.0535 62.9622C72.6018 62.9622 72.3645 62.6087 72.3645 62.0634C72.3645 61.4612 72.6451 61.1737 73.0489 61.1737C73.3728 61.1737 73.5782 61.3768 73.6192 61.6254H73.9933C73.9295 61.1441 73.5531 60.8338 73.0466 60.8338ZM74.5482 63.2383H74.9679V61.6642C74.9679 61.3471 75.2554 61.1943 75.5748 61.1943C75.885 61.1943 76.0972 61.3562 76.0972 61.6368V63.2383H76.5192V61.5524C76.5192 61.1213 76.1565 60.8498 75.6957 60.8498C75.317 60.8498 75.0774 61.0323 74.9588 61.2262V59.8483H74.5482V63.2383ZM77.0264 63.8109H77.2226L77.6104 63.1698V62.7318H77.0834V63.236L77.2819 63.2474L77.0264 63.8109ZM80.5625 63.2839C81.345 63.2839 81.8035 62.8847 81.8035 62.3874C81.8035 62.0292 81.6644 61.5935 81.0074 61.4498L80.38 61.2992C79.9489 61.1943 79.8143 61.0574 79.8143 60.8179C79.8143 60.4483 80.177 60.2567 80.5488 60.2567C80.9389 60.2567 81.2766 60.4072 81.3199 60.8544H81.7556C81.7511 60.3548 81.3382 59.8985 80.5466 59.8985C79.8599 59.8985 79.3672 60.2886 79.3694 60.8589C79.374 61.3106 79.666 61.5798 80.1519 61.687L80.7998 61.8376C81.1648 61.922 81.3724 62.0931 81.3724 62.3919C81.3724 62.7273 81.0233 62.9326 80.5602 62.9326C80.1451 62.9326 79.796 62.7364 79.7139 62.3623H79.2713C79.3557 62.9691 79.9397 63.2839 80.5625 63.2839ZM82.4301 63.9728H82.8544V62.8117C82.9525 63.0124 83.1738 63.2839 83.5958 63.2839C84.2163 63.2839 84.5859 62.8368 84.5859 62.0269C84.5859 61.2148 84.1935 60.8338 83.63 60.8338C83.1966 60.8338 82.9616 61.0962 82.8544 61.2901L82.8498 60.8795H82.4301V63.9728ZM83.516 62.9554C83.078 62.9554 82.8498 62.5493 82.8498 62.0406C82.8498 61.5205 83.078 61.1623 83.516 61.1623C83.9471 61.1623 84.1775 61.5045 84.1775 62.0406C84.1775 62.668 83.9038 62.9554 83.516 62.9554ZM85.7784 63.2839C86.116 63.2839 86.4057 63.163 86.5882 62.7957L86.6201 63.2383H86.9806V61.5912C86.9806 61.0985 86.6749 60.8338 86.0612 60.8338C85.4886 60.8338 85.1373 61.0871 85.1122 61.5456H85.4841C85.5411 61.265 85.7692 61.1464 86.0407 61.1441C86.4034 61.1441 86.5722 61.3266 86.5722 61.614V61.7988L86.1525 61.8102C85.3449 61.8285 85.0004 62.0771 85.0004 62.5995C85.0004 63.0307 85.3198 63.2839 85.7784 63.2839ZM85.9038 62.9805C85.6141 62.9805 85.4088 62.8254 85.4088 62.5585C85.4088 62.2094 85.6803 62.0748 86.2232 62.0657L86.5722 62.0589V62.4627C86.5722 62.725 86.2209 62.9805 85.9038 62.9805ZM87.6386 63.2383H88.0584V61.6619C88.0584 61.3448 88.3504 61.1943 88.6698 61.1943C88.9777 61.1943 89.1899 61.3699 89.1899 61.7372V63.2383H89.6119V61.6962C89.6119 61.103 89.2332 60.8452 88.7861 60.8452C88.4074 60.8452 88.1633 61.0255 88.047 61.2217V60.8795H87.6386V63.2383ZM90.703 59.9419H90.2719V60.3799H90.703V59.9419ZM90.6916 60.8795H90.2833V63.2383H90.6916V60.8795ZM92.2478 63.2839C92.8226 63.2839 93.1557 63.017 93.1557 62.5836C93.1557 62.3509 93.0371 62.0634 92.6036 61.9494L92.1291 61.8307C91.8691 61.7669 91.7322 61.6825 91.7322 61.5137C91.7322 61.2627 91.9398 61.1441 92.2409 61.1441C92.5329 61.1441 92.7063 61.2855 92.7382 61.5114H93.1124C93.0964 61.0688 92.7565 60.8338 92.2455 60.8338C91.6478 60.8338 91.3444 61.1258 91.3467 61.5387C91.349 61.8901 91.593 62.0703 91.974 62.1615L92.4622 62.2824C92.6766 62.3326 92.777 62.433 92.777 62.6064C92.777 62.8527 92.5649 62.9691 92.2455 62.9691C91.9466 62.9691 91.7094 62.8277 91.6501 62.5516H91.2668C91.3353 63.0603 91.755 63.2839 92.2478 63.2839ZM93.7116 63.2383H94.1313V61.6642C94.1313 61.3471 94.4188 61.1943 94.7381 61.1943C95.0484 61.1943 95.2605 61.3562 95.2605 61.6368V63.2383H95.6826V61.5524C95.6826 61.1213 95.3199 60.8498 94.859 60.8498C94.4804 60.8498 94.2408 61.0323 94.1222 61.2262V59.8483H93.7116V63.2383ZM96.1898 63.8109H96.386L96.7738 63.1698V62.7318H96.2468V63.236L96.4453 63.2474L96.1898 63.8109ZM99.1807 63.2839C99.5183 63.2839 99.808 63.163 99.9905 62.7957L100.022 63.2383H100.383V61.5912C100.383 61.0985 100.077 60.8338 99.4636 60.8338C98.891 60.8338 98.5397 61.0871 98.5146 61.5456H98.8864C98.9434 61.265 99.1716 61.1464 99.443 61.1441C99.8058 61.1441 99.9746 61.3266 99.9746 61.614V61.7988L99.5548 61.8102C98.7473 61.8285 98.4028 62.0771 98.4028 62.5995C98.4028 63.0307 98.7222 63.2839 99.1807 63.2839ZM99.3062 62.9805C99.0164 62.9805 98.8111 62.8254 98.8111 62.5585C98.8111 62.2094 99.0826 62.0748 99.6255 62.0657L99.9746 62.0589V62.4627C99.9746 62.725 99.6233 62.9805 99.3062 62.9805ZM101.041 63.2383H101.461V61.6619C101.461 61.3448 101.753 61.1943 102.072 61.1943C102.38 61.1943 102.592 61.3699 102.592 61.7372V63.2383H103.014V61.6962C103.014 61.103 102.636 60.8452 102.188 60.8452C101.81 60.8452 101.566 61.0255 101.449 61.2217V60.8795H101.041V63.2383ZM104.534 63.2839C105.086 63.2839 105.271 62.9394 105.33 62.7547L105.376 63.2383H105.7V59.8483H105.273V61.2536C105.198 61.1007 104.952 60.8338 104.5 60.8338C103.861 60.8338 103.537 61.3152 103.537 62.0497C103.537 62.8573 103.921 63.2839 104.534 63.2839ZM104.61 62.96C104.185 62.96 103.962 62.6201 103.962 62.0292C103.962 61.4247 104.229 61.1623 104.616 61.1623C105.086 61.1623 105.269 61.4772 105.273 62.0292C105.273 62.6885 105.086 62.96 104.61 62.96ZM110.011 59.9396H109.594L108.583 62.7592L107.572 59.9396H107.155L108.33 63.2383H108.839L110.011 59.9396ZM110.9 59.9419H110.469V60.3799H110.9V59.9419ZM110.889 60.8795H110.48V63.2383H110.889V60.8795ZM111.906 62.157H113.597V62.0018C113.597 61.2855 113.227 60.8338 112.563 60.8338C111.877 60.8338 111.48 61.338 111.48 62.0817C111.48 62.8345 111.934 63.2839 112.593 63.2839C113.052 63.2839 113.494 63.0307 113.581 62.5493H113.184C113.125 62.8162 112.887 62.9577 112.586 62.9577C112.128 62.9577 111.906 62.6041 111.906 62.157ZM111.909 61.8718C111.906 61.5205 112.116 61.1532 112.561 61.1532C112.988 61.1532 113.191 61.4657 113.191 61.8718H111.909ZM115.273 61.1874V60.8772H114.742V60.1928H114.432L114.329 60.8795H113.934V61.1874H114.318V62.668C114.318 63.0467 114.448 63.2497 114.938 63.2497C115.109 63.2497 115.228 63.2337 115.287 63.2109V62.928H115.029C114.808 62.928 114.742 62.9052 114.742 62.6543V61.1874H115.273ZM115.847 63.2383H116.267V61.6619C116.267 61.3448 116.559 61.1943 116.878 61.1943C117.186 61.1943 117.398 61.3699 117.398 61.7372V63.2383H117.82V61.6962C117.82 61.103 117.441 60.8452 116.994 60.8452C116.616 60.8452 116.372 61.0255 116.255 61.2217V60.8795H115.847V63.2383ZM119.133 63.2839C119.47 63.2839 119.76 63.163 119.943 62.7957L119.975 63.2383H120.335V61.5912C120.335 61.0985 120.029 60.8338 119.416 60.8338C118.843 60.8338 118.492 61.0871 118.467 61.5456H118.838C118.895 61.265 119.124 61.1464 119.395 61.1441C119.758 61.1441 119.927 61.3266 119.927 61.614V61.7988L119.507 61.8102C118.699 61.8285 118.355 62.0771 118.355 62.5995C118.355 63.0307 118.674 63.2839 119.133 63.2839ZM119.258 62.9805C118.968 62.9805 118.763 62.8254 118.763 62.5585C118.763 62.2094 119.035 62.0748 119.578 62.0657L119.927 62.0589V62.4627C119.927 62.725 119.575 62.9805 119.258 62.9805ZM120.993 63.2383H121.413V61.6619C121.413 61.3312 121.702 61.192 121.944 61.192C122.163 61.192 122.423 61.3334 122.423 61.614V63.2383H122.843V61.6619C122.843 61.3038 123.151 61.192 123.372 61.192C123.621 61.192 123.856 61.3106 123.856 61.7372V63.2383H124.28V61.6962C124.28 60.9981 123.845 60.8338 123.512 60.8338C123.199 60.8338 122.939 60.989 122.793 61.2194C122.67 60.9684 122.371 60.8338 122.113 60.8338C121.746 60.8338 121.529 61.0141 121.399 61.2217V60.8795H120.993V63.2383ZM125.251 62.157H126.941V62.0018C126.941 61.2855 126.572 60.8338 125.908 60.8338C125.221 60.8338 124.824 61.338 124.824 62.0817C124.824 62.8345 125.278 63.2839 125.938 63.2839C126.396 63.2839 126.839 63.0307 126.925 62.5493H126.528C126.469 62.8162 126.232 62.9577 125.931 62.9577C125.472 62.9577 125.251 62.6041 125.251 62.157ZM125.253 61.8718C125.251 61.5205 125.461 61.1532 125.906 61.1532C126.332 61.1532 126.535 61.4657 126.535 61.8718H125.253ZM128.356 63.2839C128.931 63.2839 129.264 63.017 129.264 62.5836C129.264 62.3509 129.145 62.0634 128.712 61.9494L128.237 61.8307C127.977 61.7669 127.84 61.6825 127.84 61.5137C127.84 61.2627 128.048 61.1441 128.349 61.1441C128.641 61.1441 128.814 61.2855 128.846 61.5114H129.22C129.204 61.0688 128.864 60.8338 128.353 60.8338C127.756 60.8338 127.452 61.1258 127.455 61.5387C127.457 61.8901 127.701 62.0703 128.082 62.1615L128.57 62.2824C128.785 62.3326 128.885 62.433 128.885 62.6064C128.885 62.8527 128.673 62.9691 128.353 62.9691C128.055 62.9691 127.817 62.8277 127.758 62.5516H127.375C127.443 63.0603 127.863 63.2839 128.356 63.2839ZM130.13 62.157H131.82V62.0018C131.82 61.2855 131.451 60.8338 130.787 60.8338C130.1 60.8338 129.703 61.338 129.703 62.0817C129.703 62.8345 130.157 63.2839 130.816 63.2839C131.275 63.2839 131.717 63.0307 131.804 62.5493H131.407C131.348 62.8162 131.111 62.9577 130.81 62.9577C130.351 62.9577 130.13 62.6041 130.13 62.157ZM130.132 61.8718C130.13 61.5205 130.34 61.1532 130.784 61.1532C131.211 61.1532 131.414 61.4657 131.414 61.8718H130.132ZM132.306 63.2383H132.808V62.6999H132.306V63.2383Z" fill="#00284D"/>
<path d="M44.3954 39.9534V46.5508H48.602V45.4238H45.7368V39.9534H44.3954ZM50.5309 44.4977H53.7018V44.1372C53.7018 42.7228 52.9444 41.7419 51.5027 41.7419C50.0564 41.7419 49.2123 42.8278 49.2123 44.2467C49.2123 45.7113 50.1704 46.642 51.5711 46.642C52.5521 46.642 53.5376 46.0626 53.6972 45.0543H52.4973C52.3604 45.4968 51.9954 45.6793 51.5392 45.6793C50.9004 45.6793 50.5263 45.2185 50.5309 44.4977ZM50.5309 43.7038C50.5263 43.1837 50.8867 42.6727 51.4981 42.6727C52.1414 42.6727 52.4562 43.1335 52.4562 43.7038H50.5309ZM57.3659 42.7593V41.8286H56.3165V40.4097H55.3675L55.0299 41.8332H54.2224V42.7593H54.9889V45.328C54.9889 46.0854 55.3082 46.601 56.5538 46.601C57.0146 46.601 57.2519 46.5417 57.3796 46.4869V45.6657H56.7454C56.4534 45.6657 56.3257 45.62 56.3257 45.2733L56.3165 42.7593H57.3659ZM58.201 42.5175H58.6938L59.6108 41.0803V39.9534H58.2649V41.2309L58.7303 41.2765L58.201 42.5175ZM62.0131 46.642C63.1902 46.642 64.0024 46.1082 64.0024 45.1638C64.0024 44.7349 63.7788 44.046 62.7294 43.7859L61.9629 43.6125C61.4474 43.5122 61.2147 43.3798 61.2147 43.1335C61.2147 42.8004 61.5477 42.6362 62.004 42.6362C62.4511 42.6362 62.7659 42.8415 62.8344 43.2065H63.9476C63.9339 42.2803 63.1811 41.7419 62.0222 41.7419C60.731 41.7419 60.0375 42.3852 60.0421 43.2338C60.0467 44.014 60.5987 44.411 61.4337 44.5843L62.264 44.7577C62.6929 44.8398 62.8617 44.9813 62.8617 45.2368C62.8617 45.5744 62.515 45.7295 62.0085 45.7295C61.639 45.7295 61.169 45.5653 61.0459 45.0634H59.8961C60.0649 46.1812 61.0276 46.642 62.0131 46.642ZM69.7702 42.7593V41.8286H68.7208V40.4097H67.7718L67.4342 41.8332H66.6267V42.7593H67.3932V45.328C67.3932 46.0854 67.7125 46.601 68.9581 46.601C69.4189 46.601 69.6562 46.5417 69.7839 46.4869V45.6657H69.1497C68.8577 45.6657 68.73 45.62 68.73 45.2733L68.7208 42.7593H69.7702ZM72.1022 46.642C72.7638 46.642 73.2429 46.423 73.5668 45.7387L73.6763 46.5508H74.7895V43.2338C74.7895 42.3077 74.2375 41.7419 72.7957 41.7419C71.614 41.7419 70.7609 42.2164 70.7107 43.2384H71.8194C71.9517 42.805 72.344 42.6453 72.7319 42.6407C73.2657 42.6362 73.512 42.878 73.512 43.3114V43.5943L72.9189 43.6034C71.2536 43.6217 70.5099 44.1692 70.5099 45.2003C70.5099 46.1219 71.2034 46.642 72.1022 46.642ZM72.5539 45.766C72.1159 45.766 71.7737 45.506 71.7737 45.068C71.7737 44.4931 72.3669 44.2969 73.033 44.2878L73.512 44.2787V44.9767C73.5075 45.3828 73.033 45.766 72.5539 45.766ZM77.3756 46.6329C77.5536 46.6329 77.7497 46.5827 77.9322 46.5188V45.6976L77.7087 45.6839C77.2981 45.6383 77.1749 45.4102 77.1749 45.0634V39.7709H75.87V45.2277C75.87 45.9075 75.9795 46.6329 77.3756 46.6329ZM83.3864 46.5508L81.6116 43.7129L83.3271 41.8332H81.8945L80.1607 43.7905V39.7709H78.8285V46.5508H80.1607V45.182L80.7858 44.5159L82.0587 46.5508H83.3864ZM83.9942 46.5508H85.4542V45.0999H83.9942V46.5508Z" fill="#00203E"/>
<g style="mix-blend-mode:color">
<rect width="320" height="120" fill="#808080"/>
</g>
<g style="mix-blend-mode:color">
<rect width="320" height="120" fill="#00284D"/>
</g>
</svg>
