<svg width="292" height="64" viewBox="0 0 292 64" fill="none" xmlns="http://www.w3.org/2000/svg">
<rect width="292" height="63.875" fill="#FE9903"/>
<rect x="207.832" y="35.0742" width="54.75" height="21.957" rx="4.5625" fill="white"/>
<rect x="148.852" y="35.0742" width="54.75" height="21.957" rx="4.5625" fill="white"/>
<rect x="207.832" y="9.125" width="54.75" height="21.957" rx="4.5625" fill="white"/>
<rect x="148.852" y="9.125" width="54.75" height="21.957" rx="4.5625" fill="white"/>
<path d="M221.627 49.6328L219.318 46.1972L221.44 43.0354H220.646L218.93 45.6543L217.201 43.0354H216.325L218.488 46.2611L216.238 49.6328H217.037L218.88 46.8177L220.746 49.6328H221.627ZM223.508 43.04H222.76V43.8247H223.508V43.04ZM223.485 44.9152H222.792V49.6328H223.485V44.9152ZM225.041 49.6328H225.753V46.4436C225.753 45.7638 226.373 45.4399 227.062 45.4399C227.733 45.4399 228.175 45.8186 228.175 46.617V49.6328H228.887V46.5531C228.887 45.3623 228.139 44.8422 227.231 44.8422C226.478 44.8422 225.963 45.1935 225.725 45.6041V44.9152H225.041V49.6328ZM234.241 44.8239C232.849 44.8239 232.101 45.8186 232.101 47.2877C232.101 48.8937 232.977 49.7241 234.241 49.7241C235.199 49.7241 235.965 49.172 236.107 48.2321H235.468C235.377 48.7431 234.925 49.1629 234.254 49.1629C233.287 49.1629 232.79 48.4192 232.79 47.2831C232.79 46.0147 233.388 45.4125 234.245 45.4125C234.921 45.4125 235.372 45.814 235.463 46.3478H236.111C235.965 45.3942 235.208 44.8239 234.241 44.8239ZM237.267 49.6328H237.979V46.4482C237.979 45.7684 238.595 45.4399 239.284 45.4399C239.954 45.4399 240.397 45.7866 240.397 46.3843V49.6328H241.109V46.2246C241.109 45.3851 240.388 44.8467 239.462 44.8467C238.704 44.8467 238.198 45.2072 237.956 45.6087V42.8529H237.267V49.6328ZM243.657 43.0354H242.813L244.031 44.3631H244.597L243.657 43.0354ZM243.785 49.7241C244.465 49.7241 245.072 49.4731 245.45 48.7249L245.5 49.6328H246.112V46.3478C246.112 45.3441 245.482 44.8239 244.314 44.8239C243.183 44.8239 242.517 45.3395 242.466 46.2246H243.114C243.224 45.6315 243.698 45.3714 244.282 45.3714C245.058 45.3669 245.423 45.7638 245.423 46.3797V46.7721L244.515 46.7995C242.914 46.8406 242.238 47.3242 242.238 48.3736C242.238 49.2222 242.863 49.7241 243.785 49.7241ZM243.986 49.1902C243.365 49.1902 242.936 48.8617 242.936 48.3097C242.936 47.5751 243.466 47.2831 244.666 47.2649L245.423 47.2512V48.0907C245.423 48.6427 244.656 49.1902 243.986 49.1902ZM249.345 49.7241C250.741 49.7241 251.457 48.7386 251.457 47.2922C251.457 45.6771 250.622 44.8239 249.345 44.8239C247.949 44.8239 247.214 45.8094 247.214 47.2922C247.214 48.8891 248.058 49.7241 249.345 49.7241ZM249.345 49.1492C248.35 49.1492 247.926 48.3462 247.926 47.274C247.926 46.0649 248.451 45.3988 249.345 45.3988C250.326 45.3988 250.746 46.1972 250.746 47.274C250.746 48.4739 250.23 49.1492 249.345 49.1492ZM253.424 43.0354H252.561L252.749 48.0542H253.241L253.424 43.0354ZM253.428 48.6656H252.552V49.6328H253.428V48.6656Z" fill="black"/>
<path d="M170.613 46.5349V49.6328H171.325V43.0354H170.613V45.8916H166.872V43.0354H166.16V49.6328H166.872V46.5349H170.613ZM174.763 49.7241C176.159 49.7241 176.876 48.7386 176.876 47.2922C176.876 45.6771 176.041 44.8239 174.763 44.8239C173.367 44.8239 172.632 45.8094 172.632 47.2922C172.632 48.8891 173.477 49.7241 174.763 49.7241ZM174.763 49.1492C173.769 49.1492 173.344 48.3462 173.344 47.274C173.344 46.0649 173.869 45.3988 174.763 45.3988C175.744 45.3988 176.164 46.1972 176.164 47.274C176.164 48.4739 175.648 49.1492 174.763 49.1492ZM179.152 49.683C179.257 49.683 179.412 49.6602 179.545 49.6191V49.1537L179.28 49.1492C178.965 49.1309 178.751 48.9028 178.751 48.3872V42.8529H178.048V48.4466C178.048 49.1081 178.244 49.683 179.152 49.683ZM182.009 49.7241C182.688 49.7241 183.295 49.4731 183.674 48.7249L183.724 49.6328H184.335V46.3478C184.335 45.3441 183.706 44.8239 182.538 44.8239C181.406 44.8239 180.74 45.3395 180.69 46.2246H181.338C181.447 45.6315 181.922 45.3714 182.506 45.3714C183.282 45.3669 183.647 45.7638 183.647 46.3797V46.7721L182.739 46.7995C181.137 46.8406 180.462 47.3242 180.462 48.3736C180.462 49.2222 181.087 49.7241 182.009 49.7241ZM182.209 49.1902C181.589 49.1902 181.16 48.8617 181.16 48.3097C181.16 47.5751 181.689 47.2831 182.889 47.2649L183.647 47.2512V48.0907C183.647 48.6427 182.88 49.1902 182.209 49.1902ZM186.515 43.0354H185.652L185.839 48.0542H186.332L186.515 43.0354ZM186.519 48.6656H185.643V49.6328H186.519V48.6656Z" fill="black"/>
<path d="M218.393 23.6836H220.496C222.148 23.6836 223.015 23.1042 223.015 21.9133C223.015 21.1332 222.632 20.5309 221.61 20.321C222.522 20.0153 222.855 19.5135 222.855 18.8017C222.855 17.693 222.011 17.0862 220.442 17.0862H218.393V23.6836ZM219.105 20.0336V17.693H220.46C221.468 17.693 222.162 18.0672 222.162 18.893C222.162 19.7918 221.308 20.0336 220.588 20.0336H219.105ZM219.105 23.0677V20.6587H220.588C221.532 20.6587 222.299 21.0054 222.299 21.8997C222.299 22.7118 221.664 23.0677 220.478 23.0677H219.105ZM226.167 23.7748C227.563 23.7748 228.279 22.7893 228.279 21.343C228.279 19.7279 227.445 18.8747 226.167 18.8747C224.771 18.8747 224.036 19.8602 224.036 21.343C224.036 22.9399 224.88 23.7748 226.167 23.7748ZM226.167 23.2C225.172 23.2 224.748 22.397 224.748 21.3248C224.748 20.1157 225.273 19.4496 226.167 19.4496C227.148 19.4496 227.568 20.248 227.568 21.3248C227.568 22.5247 227.052 23.2 226.167 23.2ZM229.452 23.6836H230.164V20.4944C230.164 19.8146 230.784 19.4907 231.473 19.4907C232.144 19.4907 232.586 19.8693 232.586 20.6678V23.6836H233.298V20.6039C233.298 19.4131 232.55 18.893 231.642 18.893C230.889 18.893 230.374 19.2443 230.136 19.6549V18.966H229.452V23.6836ZM235.545 17.0908H234.774V17.8755H235.545V17.0908ZM235.518 23.9619V18.966H234.806V23.9254C234.806 24.3999 234.647 24.5778 234.209 24.6052L233.716 24.6235L233.72 25.098C233.72 25.098 233.784 25.1983 234.304 25.1983C235.226 25.1983 235.518 24.8014 235.518 23.9619ZM238.856 23.7748C240.253 23.7748 240.969 22.7893 240.969 21.343C240.969 19.7279 240.134 18.8747 238.856 18.8747C237.46 18.8747 236.726 19.8602 236.726 21.343C236.726 22.9399 237.57 23.7748 238.856 23.7748ZM238.856 23.2C237.862 23.2 237.438 22.397 237.438 21.3248C237.438 20.1157 237.962 19.4496 238.856 19.4496C239.837 19.4496 240.257 20.248 240.257 21.3248C240.257 22.5247 239.742 23.2 238.856 23.2ZM243.866 23.7748C244.569 23.7794 245.116 23.4646 245.285 22.7893L245.358 23.6836H245.933V18.966H245.226V22.032C245.226 22.8122 244.733 23.2 243.994 23.2C243.164 23.2 242.767 22.7528 242.767 22.0867V18.966H242.055V22.1506C242.055 23.2273 242.858 23.7657 243.866 23.7748ZM247.461 23.6836H248.173V20.6541C248.173 19.8237 248.839 19.5363 249.51 19.5728C249.62 19.5728 249.807 19.591 249.907 19.6367V18.9432C249.82 18.893 249.661 18.8747 249.51 18.8747C248.949 18.8747 248.374 19.1485 248.137 19.8192V18.966H247.461V23.6836ZM251.766 17.0862H250.904L251.091 22.105H251.584L251.766 17.0862ZM251.771 22.7163H250.895V23.6836H251.771V22.7163Z" fill="black"/>
<path d="M169.348 20.5857V23.6836H170.06V17.0862H169.348V19.9423H165.607V17.0862H164.895V23.6836H165.607V20.5857H169.348ZM172.138 21.489H175.574V21.197C175.574 19.7598 174.844 18.8747 173.543 18.8747C172.188 18.8747 171.408 19.8602 171.408 21.3704C171.408 22.8852 172.302 23.7748 173.603 23.7748C174.502 23.7748 175.359 23.2867 175.537 22.3377H174.853C174.734 22.8943 174.232 23.2045 173.589 23.2045C172.599 23.2045 172.134 22.4335 172.138 21.489ZM172.143 20.9826C172.134 20.2298 172.576 19.4313 173.534 19.4313C174.447 19.4313 174.88 20.1066 174.88 20.9826H172.143ZM177.905 23.7338C178.01 23.7338 178.165 23.711 178.297 23.6699V23.2045L178.032 23.2C177.718 23.1817 177.503 22.9536 177.503 22.438V16.9037H176.801V22.4973C176.801 23.1589 176.997 23.7338 177.905 23.7338ZM180.471 23.7338C180.576 23.7338 180.731 23.711 180.864 23.6699V23.2045L180.599 23.2C180.284 23.1817 180.07 22.9536 180.07 22.438V16.9037H179.367V22.4973C179.367 23.1589 179.563 23.7338 180.471 23.7338ZM183.701 23.7748C185.097 23.7748 185.813 22.7893 185.813 21.343C185.813 19.7279 184.979 18.8747 183.701 18.8747C182.305 18.8747 181.57 19.8602 181.57 21.343C181.57 22.9399 182.414 23.7748 183.701 23.7748ZM183.701 23.2C182.706 23.2 182.282 22.397 182.282 21.3248C182.282 20.1157 182.807 19.4496 183.701 19.4496C184.682 19.4496 185.102 20.248 185.102 21.3248C185.102 22.5247 184.586 23.2 183.701 23.2ZM187.78 17.0862H186.918L187.105 22.105H187.597L187.78 17.0862ZM187.784 22.7163H186.908V23.6836H187.784V22.7163Z" fill="black"/>
<path opacity="0.8" d="M31.171 49.8742H30.9537C30.6663 50.2985 30.4644 50.8324 30.4644 51.397C30.4644 51.9787 30.6457 52.4184 30.928 52.8992H31.1436C30.9007 52.3876 30.7706 51.9154 30.7706 51.4004C30.7706 50.8597 30.9383 50.3191 31.171 49.8742ZM32.4213 52.4766H32.7464V50.4953L33.4582 52.4766H33.7542L34.4711 50.4765V52.4766H34.7978V50.0025H34.3616L33.6053 52.0454L32.8593 50.0025H32.4213V52.4766ZM36.0722 52.5108C36.5991 52.5108 36.878 52.1395 36.878 51.5989C36.878 51.0034 36.5615 50.6732 36.0739 50.6732C35.5503 50.6732 35.2612 51.0445 35.2612 51.5989C35.2612 52.1891 35.5811 52.5108 36.0722 52.5108ZM36.0739 52.261C35.7197 52.261 35.576 51.965 35.576 51.592C35.576 51.1711 35.7522 50.9213 36.0739 50.9213C36.4212 50.9213 36.5649 51.2139 36.5649 51.592C36.5649 52.0078 36.3904 52.261 36.0739 52.261ZM37.2987 52.4766H37.6135V51.3764C37.6135 51.0821 37.8427 50.9624 38.1251 50.9812C38.161 50.9812 38.2243 50.9863 38.2585 51.0017V50.6955C38.2294 50.6801 38.1747 50.6732 38.1233 50.6732C37.8992 50.6732 37.6888 50.793 37.5998 51.0479V50.7075H37.2987V52.4766ZM38.8413 51.6656H40.1091V51.5492C40.1091 51.012 39.8319 50.6732 39.334 50.6732C38.8191 50.6732 38.5213 51.0514 38.5213 51.6091C38.5213 52.1737 38.8618 52.5108 39.3563 52.5108C39.7002 52.5108 40.0321 52.3209 40.0971 51.9599H39.7994C39.7549 52.16 39.577 52.2661 39.3512 52.2661C39.0073 52.2661 38.8413 52.0009 38.8413 51.6656ZM38.843 51.4517C38.8413 51.1882 38.9987 50.9128 39.3323 50.9128C39.6523 50.9128 39.8046 51.1472 39.8046 51.4517H38.843ZM41.802 52.4988C41.8465 52.4988 41.9081 52.4885 41.9611 52.4714V52.2661L41.8653 52.2644C41.7404 52.2559 41.6669 52.1703 41.6669 51.9907V49.9341H41.3555V52.0215C41.3555 52.2695 41.4205 52.4988 41.802 52.4988ZM42.8708 52.5108C43.1241 52.5108 43.3414 52.4201 43.4782 52.1446L43.5022 52.4766H43.7725V51.2413C43.7725 50.8717 43.5432 50.6732 43.083 50.6732C42.6536 50.6732 42.3901 50.8631 42.3713 51.207H42.6501C42.6929 50.9966 42.864 50.9076 43.0676 50.9059C43.3396 50.9059 43.4663 51.0428 43.4663 51.2584V51.397L43.1514 51.4055C42.5458 51.4192 42.2874 51.6057 42.2874 51.9975C42.2874 52.3209 42.5269 52.5108 42.8708 52.5108ZM42.9649 52.2832C42.7477 52.2832 42.5937 52.1669 42.5937 51.9667C42.5937 51.7049 42.7973 51.604 43.2045 51.5971L43.4663 51.592V51.8948C43.4663 52.0916 43.2028 52.2832 42.9649 52.2832ZM44.2661 52.4766H44.5809V51.2943C44.5809 51.0565 44.7999 50.9436 45.0394 50.9436C45.2704 50.9436 45.4295 51.0753 45.4295 51.3508V52.4766H45.746V51.32C45.746 50.8751 45.462 50.6818 45.1267 50.6818C44.8426 50.6818 44.6596 50.817 44.5723 50.9641V50.7075H44.2661V52.4766ZM46.9887 53.0617C47.5755 53.0617 47.8595 52.8376 47.8595 52.5159C47.8595 52.2336 47.6508 52.0591 47.2812 52.0369C47.1187 52.0266 46.9852 52.0197 46.8963 52.0146C46.6499 51.9975 46.5592 51.9787 46.5592 51.9137C46.5592 51.8572 46.6328 51.8025 46.8757 51.7956C46.9048 51.7973 46.9545 51.799 46.9818 51.799C47.4763 51.799 47.7192 51.5527 47.7192 51.2396C47.7192 51.1643 47.697 51.0719 47.6611 50.9983L47.9707 50.9401L47.9725 50.6476C47.8766 50.6869 47.5961 50.8033 47.5208 50.8341C47.3856 50.7365 47.2419 50.6801 47.0126 50.6801C46.5319 50.6801 46.2427 50.8957 46.2427 51.2396C46.2427 51.4432 46.3642 51.6262 46.5729 51.7306C46.3642 51.7768 46.2598 51.8777 46.2598 51.9889C46.2598 52.1258 46.3813 52.1754 46.4429 52.2114C46.3984 52.2439 46.1075 52.3414 46.1075 52.5963C46.1075 52.8957 46.4343 53.0617 46.9887 53.0617ZM46.9921 51.5954C46.7166 51.5954 46.5592 51.4671 46.5592 51.243C46.5592 51.0052 46.732 50.8751 46.9921 50.8751C47.2453 50.8751 47.4164 51.0052 47.4164 51.243C47.4164 51.4757 47.2453 51.5954 46.9921 51.5954ZM47.0451 52.8581C46.6191 52.8581 46.4224 52.7486 46.4224 52.5604C46.4224 52.3961 46.5986 52.2712 46.732 52.2781L47.2282 52.3106C47.4438 52.3243 47.5516 52.4218 47.5516 52.5621C47.5516 52.7606 47.3719 52.8581 47.0451 52.8581ZM48.9697 52.5108C49.2195 52.5125 49.435 52.403 49.5001 52.1378L49.5326 52.4766H49.7841V50.7075H49.4693V51.8589C49.4693 52.1275 49.2965 52.2644 49.0364 52.2644C48.7472 52.2644 48.607 52.107 48.607 51.876V50.7075H48.2904V51.9085C48.2904 52.3072 48.6018 52.5074 48.9697 52.5108ZM50.8006 52.5108C51.0539 52.5108 51.2711 52.4201 51.408 52.1446L51.432 52.4766H51.7023V51.2413C51.7023 50.8717 51.473 50.6732 51.0128 50.6732C50.5834 50.6732 50.3199 50.8631 50.301 51.207H50.5799C50.6227 50.9966 50.7938 50.9076 50.9974 50.9059C51.2694 50.9059 51.396 51.0428 51.396 51.2584V51.397L51.0812 51.4055C50.4756 51.4192 50.2172 51.6057 50.2172 51.9975C50.2172 52.3209 50.4567 52.5108 50.8006 52.5108ZM50.8947 52.2832C50.6775 52.2832 50.5235 52.1669 50.5235 51.9667C50.5235 51.7049 50.7271 51.604 51.1343 51.5971L51.396 51.592V51.8948C51.396 52.0916 51.1326 52.2832 50.8947 52.2832ZM52.9435 53.0617C53.5304 53.0617 53.8144 52.8376 53.8144 52.5159C53.8144 52.2336 53.6057 52.0591 53.2361 52.0369C53.0736 52.0266 52.9401 52.0197 52.8511 52.0146C52.6048 51.9975 52.5141 51.9787 52.5141 51.9137C52.5141 51.8572 52.5877 51.8025 52.8306 51.7956C52.8597 51.7973 52.9093 51.799 52.9367 51.799C53.4312 51.799 53.6741 51.5527 53.6741 51.2396C53.6741 51.1643 53.6519 51.0719 53.6159 50.9983L53.9256 50.9401L53.9273 50.6476C53.8315 50.6869 53.5509 50.8033 53.4756 50.8341C53.3405 50.7365 53.1968 50.6801 52.9675 50.6801C52.4867 50.6801 52.1976 50.8957 52.1976 51.2396C52.1976 51.4432 52.319 51.6262 52.5278 51.7306C52.319 51.7768 52.2147 51.8777 52.2147 51.9889C52.2147 52.1258 52.3362 52.1754 52.3977 52.2114C52.3533 52.2439 52.0624 52.3414 52.0624 52.5963C52.0624 52.8957 52.3892 53.0617 52.9435 53.0617ZM52.947 51.5954C52.6715 51.5954 52.5141 51.4671 52.5141 51.243C52.5141 51.0052 52.6869 50.8751 52.947 50.8751C53.2002 50.8751 53.3713 51.0052 53.3713 51.243C53.3713 51.4757 53.2002 51.5954 52.947 51.5954ZM53 52.8581C52.574 52.8581 52.3772 52.7486 52.3772 52.5604C52.3772 52.3961 52.5534 52.2712 52.6869 52.2781L53.1831 52.3106C53.3986 52.3243 53.5064 52.4218 53.5064 52.5621C53.5064 52.7606 53.3268 52.8581 53 52.8581ZM54.5004 51.6656H55.7682V51.5492C55.7682 51.012 55.491 50.6732 54.9931 50.6732C54.4781 50.6732 54.1804 51.0514 54.1804 51.6091C54.1804 52.1737 54.5209 52.5108 55.0154 52.5108C55.3593 52.5108 55.6912 52.3209 55.7562 51.9599H55.4585C55.414 52.16 55.2361 52.2661 55.0102 52.2661C54.6663 52.2661 54.5004 52.0009 54.5004 51.6656ZM54.5021 51.4517C54.5004 51.1882 54.6578 50.9128 54.9914 50.9128C55.3114 50.9128 55.4636 51.1472 55.4636 51.4517H54.5021ZM56.829 52.5108C57.2601 52.5108 57.5099 52.3106 57.5099 51.9855C57.5099 51.811 57.421 51.5954 57.0959 51.5099L56.74 51.4209C56.545 51.373 56.4423 51.3097 56.4423 51.1831C56.4423 50.9949 56.598 50.9059 56.8238 50.9059C57.0428 50.9059 57.1729 51.012 57.1968 51.1814H57.4774C57.4654 50.8495 57.2105 50.6732 56.8273 50.6732C56.379 50.6732 56.1514 50.8922 56.1531 51.2019C56.1549 51.4654 56.3379 51.6006 56.6237 51.669L56.9898 51.7597C57.1506 51.7973 57.2259 51.8726 57.2259 52.0026C57.2259 52.1874 57.0668 52.2747 56.8273 52.2747C56.6031 52.2747 56.4252 52.1686 56.3807 51.9616H56.0933C56.1446 52.3431 56.4594 52.5108 56.829 52.5108ZM59.2417 52.5108C59.4949 52.5108 59.7122 52.4201 59.8491 52.1446L59.873 52.4766H60.1434V51.2413C60.1434 50.8717 59.9141 50.6732 59.4539 50.6732C59.0244 50.6732 58.7609 50.8631 58.7421 51.207H59.021C59.0638 50.9966 59.2349 50.9076 59.4385 50.9059C59.7105 50.9059 59.8371 51.0428 59.8371 51.2584V51.397L59.5223 51.4055C58.9166 51.4192 58.6583 51.6057 58.6583 51.9975C58.6583 52.3209 58.8978 52.5108 59.2417 52.5108ZM59.3358 52.2832C59.1185 52.2832 58.9645 52.1669 58.9645 51.9667C58.9645 51.7049 59.1681 51.604 59.5753 51.5971L59.8371 51.592V51.8948C59.8371 52.0916 59.5736 52.2832 59.3358 52.2832ZM60.6369 52.4766H60.9517V51.3764C60.9517 51.0821 61.181 50.9624 61.4633 50.9812C61.4992 50.9812 61.5625 50.9863 61.5968 51.0017V50.6955C61.5677 50.6801 61.5129 50.6732 61.4616 50.6732C61.2375 50.6732 61.027 50.793 60.9381 51.0479V50.7075H60.6369V52.4766ZM62.1796 51.6656H63.4474V51.5492C63.4474 51.012 63.1702 50.6732 62.6723 50.6732C62.1573 50.6732 61.8596 51.0514 61.8596 51.6091C61.8596 52.1737 62.2001 52.5108 62.6945 52.5108C63.0384 52.5108 63.3704 52.3209 63.4354 51.9599H63.1377C63.0932 52.16 62.9153 52.2661 62.6894 52.2661C62.3455 52.2661 62.1796 52.0009 62.1796 51.6656ZM62.1813 51.4517C62.1796 51.1882 62.337 50.9128 62.6706 50.9128C62.9905 50.9128 63.1428 51.1472 63.1428 51.4517H62.1813ZM65.3586 52.5108C65.8856 52.5108 66.1645 52.1395 66.1645 51.5989C66.1645 51.0034 65.8479 50.6732 65.3603 50.6732C64.8368 50.6732 64.5476 51.0445 64.5476 51.5989C64.5476 52.1891 64.8676 52.5108 65.3586 52.5108ZM65.3603 52.261C65.0062 52.261 64.8624 51.965 64.8624 51.592C64.8624 51.1711 65.0387 50.9213 65.3603 50.9213C65.7076 50.9213 65.8514 51.2139 65.8514 51.592C65.8514 52.0078 65.6768 52.261 65.3603 52.261ZM66.5851 52.4766H66.8999V51.2943C66.8999 51.0565 67.1189 50.9436 67.3585 50.9436C67.5894 50.9436 67.7485 51.0753 67.7485 51.3508V52.4766H68.0651V51.32C68.0651 50.8751 67.7811 50.6818 67.4457 50.6818C67.1617 50.6818 66.9786 50.817 66.8914 50.9641V50.7075H66.5851V52.4766ZM70.2921 50.9384V50.7057H69.8934V50.1925H69.6607L69.5837 50.7075H69.2877V50.9384H69.5752V52.0488C69.5752 52.3328 69.6727 52.4851 70.0406 52.4851C70.1689 52.4851 70.2578 52.4731 70.3023 52.456V52.2439H70.109C69.943 52.2439 69.8934 52.2268 69.8934 52.0386V50.9384H70.2921ZM70.7221 52.4766H71.0369V51.296C71.0369 51.0582 71.2525 50.9436 71.492 50.9436C71.7247 50.9436 71.8838 51.065 71.8838 51.2755V52.4766H72.2004V51.2122C72.2004 50.8888 71.9283 50.6852 71.5827 50.6852C71.2987 50.6852 71.119 50.8221 71.0301 50.9675V49.9341H70.7221V52.4766ZM72.9264 51.6656H74.1942V51.5492C74.1942 51.012 73.917 50.6732 73.4191 50.6732C72.9041 50.6732 72.6064 51.0514 72.6064 51.6091C72.6064 52.1737 72.9469 52.5108 73.4414 52.5108C73.7853 52.5108 74.1172 52.3209 74.1822 51.9599H73.8845C73.84 52.16 73.6621 52.2661 73.4362 52.2661C73.0923 52.2661 72.9264 52.0009 72.9264 51.6656ZM72.9281 51.4517C72.9264 51.1882 73.0838 50.9128 73.4174 50.9128C73.7374 50.9128 73.8896 51.1472 73.8896 51.4517H72.9281ZM77.7457 50.7075H77.4497L77.0614 52.0642H77.034L76.6199 50.7075H76.3804L75.9818 52.0676H75.9544L75.5506 50.7075H75.2563L75.8038 52.4766H76.1118L76.4968 51.1711L76.8988 52.4766H77.2102L77.7457 50.7075ZM78.5633 52.5108C78.8165 52.5108 79.0338 52.4201 79.1707 52.1446L79.1946 52.4766H79.4649V51.2413C79.4649 50.8717 79.2357 50.6732 78.7754 50.6732C78.346 50.6732 78.0825 50.8631 78.0637 51.207H78.3426C78.3853 50.9966 78.5564 50.9076 78.76 50.9059C79.0321 50.9059 79.1587 51.0428 79.1587 51.2584V51.397L78.8439 51.4055C78.2382 51.4192 77.9798 51.6057 77.9798 51.9975C77.9798 52.3209 78.2194 52.5108 78.5633 52.5108ZM78.6574 52.2832C78.4401 52.2832 78.2861 52.1669 78.2861 51.9667C78.2861 51.7049 78.4897 51.604 78.8969 51.5971L79.1587 51.592V51.8948C79.1587 52.0916 78.8952 52.2832 78.6574 52.2832ZM80.0779 53.0412C80.3226 53.0412 80.5074 52.9471 80.6459 52.61L81.3902 50.7075H81.0805L80.5621 52.0728L80.0403 50.7075H79.7203L80.4115 52.4338L80.3499 52.6015C80.314 52.6887 80.2507 52.8051 79.9872 52.7948L79.8059 52.7914V52.9967C79.8059 52.9967 79.8709 53.0412 80.0779 53.0412ZM81.4889 52.4766H81.8653V52.0728H81.4889V52.4766ZM82.9447 49.8742C83.1774 50.3191 83.3451 50.8597 83.3451 51.4004C83.3451 51.9154 83.215 52.3876 82.9721 52.8992H83.1877C83.47 52.4184 83.6496 51.9787 83.6496 51.397C83.6496 50.8324 83.4494 50.2985 83.162 49.8742H82.9447Z" fill="#00284D"/>
<path d="M34.472 25.9396H34.0477L33.304 28.5653L32.5626 25.9396H32.2318L31.4881 28.5653L30.7581 25.9396H30.3315L31.2828 29.2383H31.6615L32.396 26.681L33.1192 29.2383H33.5093L34.472 25.9396ZM35.0251 28.157H36.7155V28.0018C36.7155 27.2855 36.3459 26.8338 35.6821 26.8338C34.9954 26.8338 34.5985 27.338 34.5985 28.0817C34.5985 28.8345 35.0524 29.2839 35.7117 29.2839C36.1703 29.2839 36.6128 29.0307 36.6995 28.5493H36.3026C36.2433 28.8162 36.006 28.9577 35.7049 28.9577C35.2463 28.9577 35.0251 28.6041 35.0251 28.157ZM35.0273 27.8718C35.0251 27.5205 35.2349 27.1532 35.6798 27.1532C36.1064 27.1532 36.3094 27.4657 36.3094 27.8718H35.0273ZM39.2259 29.2839C39.8008 29.2839 40.1339 29.017 40.1339 28.5836C40.1339 28.3509 40.0152 28.0634 39.5818 27.9494L39.1073 27.8307C38.8472 27.7669 38.7104 27.6825 38.7104 27.5137C38.7104 27.2627 38.9179 27.1441 39.2191 27.1441C39.5111 27.1441 39.6844 27.2855 39.7164 27.5114H40.0905C40.0745 27.0688 39.7346 26.8338 39.2236 26.8338C38.6259 26.8338 38.3225 27.1258 38.3248 27.5387C38.3271 27.8901 38.5712 28.0703 38.9522 28.1615L39.4404 28.2824C39.6548 28.3326 39.7552 28.433 39.7552 28.6064C39.7552 28.8527 39.543 28.9691 39.2236 28.9691C38.9248 28.9691 38.6875 28.8277 38.6282 28.5516H38.245C38.3134 29.0603 38.7332 29.2839 39.2259 29.2839ZM40.6897 29.9728H41.114V28.8117C41.2121 29.0124 41.4334 29.2839 41.8554 29.2839C42.4759 29.2839 42.8455 28.8368 42.8455 28.0269C42.8455 27.2148 42.4531 26.8338 41.8897 26.8338C41.4562 26.8338 41.2213 27.0962 41.114 27.2901L41.1095 26.8795H40.6897V29.9728ZM41.7756 28.9554C41.3376 28.9554 41.1095 28.5493 41.1095 28.0406C41.1095 27.5205 41.3376 27.1623 41.7756 27.1623C42.2068 27.1623 42.4372 27.5045 42.4372 28.0406C42.4372 28.668 42.1634 28.9554 41.7756 28.9554ZM43.7179 28.157H45.4083V28.0018C45.4083 27.2855 45.0387 26.8338 44.3749 26.8338C43.6882 26.8338 43.2913 27.338 43.2913 28.0817C43.2913 28.8345 43.7453 29.2839 44.4045 29.2839C44.8631 29.2839 45.3056 29.0307 45.3923 28.5493H44.9954C44.9361 28.8162 44.6988 28.9577 44.3977 28.9577C43.9392 28.9577 43.7179 28.6041 43.7179 28.157ZM43.7202 27.8718C43.7179 27.5205 43.9278 27.1532 44.3726 27.1532C44.7992 27.1532 45.0022 27.4657 45.0022 27.8718H43.7202ZM46.6222 29.2839C46.9599 29.2839 47.2496 29.163 47.4321 28.7957L47.464 29.2383H47.8244V27.5912C47.8244 27.0985 47.5188 26.8338 46.9051 26.8338C46.3325 26.8338 45.9812 27.0871 45.9561 27.5456H46.3279C46.385 27.265 46.6131 27.1464 46.8846 27.1441C47.2473 27.1441 47.4161 27.3266 47.4161 27.614V27.7988L46.9964 27.8102C46.1888 27.8285 45.8443 28.0771 45.8443 28.5995C45.8443 29.0307 46.1637 29.2839 46.6222 29.2839ZM46.7477 28.9805C46.458 28.9805 46.2527 28.8254 46.2527 28.5585C46.2527 28.2094 46.5241 28.0748 47.0671 28.0657L47.4161 28.0589V28.4627C47.4161 28.725 47.0648 28.9805 46.7477 28.9805ZM50.5539 29.2383L49.6437 27.7783L50.4946 26.8795H50.011L48.9023 28.0589V25.8483H48.4825V29.2383H48.9023V28.5357L49.3676 28.0543L50.1068 29.2383H50.5539ZM53.4633 26.8795H52.8839V26.551C52.8839 26.3411 52.9409 26.2384 53.1348 26.2384H53.4862L53.4839 25.9396H53.039C52.6581 25.9396 52.4687 26.1403 52.4687 26.5145V26.8795H51.9691V27.1874H52.4687V29.2383H52.8907V27.1874H53.4633V26.8795ZM54.8717 29.2839C55.5743 29.2839 55.9461 28.7889 55.9461 28.068C55.9461 27.2741 55.5241 26.8338 54.8739 26.8338C54.1759 26.8338 53.7903 27.3289 53.7903 28.068C53.7903 28.855 54.2169 29.2839 54.8717 29.2839ZM54.8739 28.9508C54.4017 28.9508 54.2101 28.5562 54.2101 28.0589C54.2101 27.4977 54.4451 27.1646 54.8739 27.1646C55.337 27.1646 55.5287 27.5547 55.5287 28.0589C55.5287 28.6132 55.296 28.9508 54.8739 28.9508ZM57.365 29.2839C57.698 29.2862 57.9855 29.1402 58.0721 28.7866L58.1155 29.2383H58.4508V26.8795H58.0311V28.4147C58.0311 28.7729 57.8007 28.9554 57.4539 28.9554C57.0684 28.9554 56.8813 28.7455 56.8813 28.4376V26.8795H56.4593V28.4809C56.4593 29.0124 56.8745 29.2793 57.365 29.2839ZM59.1759 29.2383H59.5956V27.7714C59.5956 27.3791 59.9013 27.2194 60.2777 27.2445C60.3256 27.2445 60.41 27.2513 60.4557 27.2718V26.8635C60.4169 26.843 60.3439 26.8338 60.2754 26.8338C59.9766 26.8338 59.696 26.9935 59.5774 27.3334V26.8795H59.1759V29.2383ZM62.6629 29.2679C62.7223 29.2679 62.8044 29.2543 62.8751 29.2314V28.9577L62.7473 28.9554C62.5808 28.944 62.4827 28.8299 62.4827 28.5904V25.8483H62.0675V28.6315C62.0675 28.9622 62.1542 29.2679 62.6629 29.2679ZM64.088 29.2839C64.4257 29.2839 64.7154 29.163 64.8979 28.7957L64.9298 29.2383H65.2903V27.5912C65.2903 27.0985 64.9846 26.8338 64.3709 26.8338C63.7983 26.8338 63.447 27.0871 63.4219 27.5456H63.7938C63.8508 27.265 64.0789 27.1464 64.3504 27.1441C64.7131 27.1441 64.8819 27.3266 64.8819 27.614V27.7988L64.4622 27.8102C63.6546 27.8285 63.3101 28.0771 63.3101 28.5995C63.3101 29.0307 63.6295 29.2839 64.088 29.2839ZM64.2135 28.9805C63.9238 28.9805 63.7185 28.8254 63.7185 28.5585C63.7185 28.2094 63.99 28.0748 64.5329 28.0657L64.8819 28.0589V28.4627C64.8819 28.725 64.5306 28.9805 64.2135 28.9805ZM65.9483 29.2383H66.3681V27.6619C66.3681 27.3448 66.6601 27.1943 66.9795 27.1943C67.2874 27.1943 67.4996 27.3699 67.4996 27.7372V29.2383H67.9216V27.6962C67.9216 27.103 67.5429 26.8452 67.0958 26.8452C66.7171 26.8452 66.473 27.0255 66.3567 27.2217V26.8795H65.9483V29.2383ZM69.5785 30.0185C70.361 30.0185 70.7396 29.7196 70.7396 29.2908C70.7396 28.9143 70.4613 28.6817 69.9686 28.652C69.7519 28.6383 69.5739 28.6292 69.4553 28.6223C69.1268 28.5995 69.0059 28.5744 69.0059 28.4877C69.0059 28.4125 69.104 28.3395 69.4279 28.3303C69.4667 28.3326 69.5329 28.3349 69.5694 28.3349C70.2286 28.3349 70.5526 28.0064 70.5526 27.5889C70.5526 27.4886 70.5229 27.3654 70.475 27.2673L70.8879 27.1897L70.8902 26.7996C70.7625 26.8521 70.3883 27.0072 70.288 27.0483C70.1077 26.9182 69.9161 26.843 69.6104 26.843C68.9694 26.843 68.5839 27.1304 68.5839 27.5889C68.5839 27.8604 68.7458 28.1045 69.0241 28.2437C68.7458 28.3052 68.6067 28.4398 68.6067 28.5881C68.6067 28.7706 68.7686 28.8368 68.8508 28.8847C68.7915 28.928 68.4036 29.0581 68.4036 29.398C68.4036 29.7972 68.8394 30.0185 69.5785 30.0185ZM69.583 28.0634C69.2158 28.0634 69.0059 27.8923 69.0059 27.5935C69.0059 27.2764 69.2363 27.103 69.583 27.103C69.9207 27.103 70.1488 27.2764 70.1488 27.5935C70.1488 27.9037 69.9207 28.0634 69.583 28.0634ZM69.6538 29.747C69.0857 29.747 68.8234 29.601 68.8234 29.3501C68.8234 29.1311 69.0584 28.9645 69.2363 28.9737L69.8979 29.017C70.1853 29.0352 70.329 29.1653 70.329 29.3523C70.329 29.617 70.0895 29.747 69.6538 29.747ZM72.2198 29.2839C72.5529 29.2862 72.8403 29.1402 72.927 28.7866L72.9703 29.2383H73.3057V26.8795H72.8859V28.4147C72.8859 28.7729 72.6555 28.9554 72.3088 28.9554C71.9233 28.9554 71.7362 28.7455 71.7362 28.4376V26.8795H71.3142V28.4809C71.3142 29.0124 71.7293 29.2793 72.2198 29.2839ZM74.6611 29.2839C74.9987 29.2839 75.2885 29.163 75.471 28.7957L75.5029 29.2383H75.8633V27.5912C75.8633 27.0985 75.5576 26.8338 74.944 26.8338C74.3714 26.8338 74.0201 27.0871 73.995 27.5456H74.3668C74.4239 27.265 74.652 27.1464 74.9235 27.1441C75.2862 27.1441 75.455 27.3266 75.455 27.614V27.7988L75.0352 27.8102C74.2277 27.8285 73.8832 28.0771 73.8832 28.5995C73.8832 29.0307 74.2026 29.2839 74.6611 29.2839ZM74.7866 28.9805C74.4969 28.9805 74.2915 28.8254 74.2915 28.5585C74.2915 28.2094 74.563 28.0748 75.106 28.0657L75.455 28.0589V28.4627C75.455 28.725 75.1037 28.9805 74.7866 28.9805ZM77.5183 30.0185C78.3008 30.0185 78.6795 29.7196 78.6795 29.2908C78.6795 28.9143 78.4011 28.6817 77.9084 28.652C77.6917 28.6383 77.5137 28.6292 77.3951 28.6223C77.0666 28.5995 76.9457 28.5744 76.9457 28.4877C76.9457 28.4125 77.0438 28.3395 77.3677 28.3303C77.4065 28.3326 77.4727 28.3349 77.5092 28.3349C78.1685 28.3349 78.4924 28.0064 78.4924 27.5889C78.4924 27.4886 78.4627 27.3654 78.4148 27.2673L78.8277 27.1897L78.83 26.7996C78.7023 26.8521 78.3281 27.0072 78.2278 27.0483C78.0476 26.9182 77.8559 26.843 77.5502 26.843C76.9092 26.843 76.5237 27.1304 76.5237 27.5889C76.5237 27.8604 76.6856 28.1045 76.964 28.2437C76.6856 28.3052 76.5465 28.4398 76.5465 28.5881C76.5465 28.7706 76.7085 28.8368 76.7906 28.8847C76.7313 28.928 76.3435 29.0581 76.3435 29.398C76.3435 29.7972 76.7792 30.0185 77.5183 30.0185ZM77.5229 28.0634C77.1556 28.0634 76.9457 27.8923 76.9457 27.5935C76.9457 27.2764 77.1761 27.103 77.5229 27.103C77.8605 27.103 78.0886 27.2764 78.0886 27.5935C78.0886 27.9037 77.8605 28.0634 77.5229 28.0634ZM77.5936 29.747C77.0256 29.747 76.7632 29.601 76.7632 29.3501C76.7632 29.1311 76.9982 28.9645 77.1761 28.9737L77.8377 29.017C78.1251 29.0352 78.2688 29.1653 78.2688 29.3523C78.2688 29.617 78.0293 29.747 77.5936 29.747ZM79.5941 28.157H81.2845V28.0018C81.2845 27.2855 80.9149 26.8338 80.2511 26.8338C79.5644 26.8338 79.1675 27.338 79.1675 28.0817C79.1675 28.8345 79.6215 29.2839 80.2808 29.2839C80.7393 29.2839 81.1818 29.0307 81.2685 28.5493H80.8716C80.8123 28.8162 80.575 28.9577 80.2739 28.9577C79.8154 28.9577 79.5941 28.6041 79.5941 28.157ZM79.5964 27.8718C79.5941 27.5205 79.804 27.1532 80.2488 27.1532C80.6754 27.1532 80.8784 27.4657 80.8784 27.8718H79.5964ZM82.6989 29.2839C83.2738 29.2839 83.6068 29.017 83.6068 28.5836C83.6068 28.3509 83.4882 28.0634 83.0548 27.9494L82.5803 27.8307C82.3202 27.7669 82.1833 27.6825 82.1833 27.5137C82.1833 27.2627 82.3909 27.1441 82.692 27.1441C82.984 27.1441 83.1574 27.2855 83.1893 27.5114H83.5635C83.5475 27.0688 83.2076 26.8338 82.6966 26.8338C82.0989 26.8338 81.7955 27.1258 81.7978 27.5387C81.8001 27.8901 82.0442 28.0703 82.4251 28.1615L82.9133 28.2824C83.1278 28.3326 83.2281 28.433 83.2281 28.6064C83.2281 28.8527 83.016 28.9691 82.6966 28.9691C82.3978 28.9691 82.1605 28.8277 82.1012 28.5516H81.7179C81.7864 29.0603 82.2061 29.2839 82.6989 29.2839ZM84.0646 29.2383H84.5665V28.6999H84.0646V29.2383ZM90.0552 25.9396H89.6308L88.8872 28.5653L88.1458 25.9396H87.815L87.0713 28.5653L86.3413 25.9396H85.9147L86.866 29.2383H87.2447L87.9792 26.681L88.7024 29.2383H89.0925L90.0552 25.9396ZM90.6083 28.157H92.2987V28.0018C92.2987 27.2855 91.9291 26.8338 91.2653 26.8338C90.5786 26.8338 90.1817 27.338 90.1817 28.0817C90.1817 28.8345 90.6356 29.2839 91.2949 29.2839C91.7534 29.2839 92.196 29.0307 92.2827 28.5493H91.8858C91.8264 28.8162 91.5892 28.9577 91.2881 28.9577C90.8295 28.9577 90.6083 28.6041 90.6083 28.157ZM90.6105 27.8718C90.6083 27.5205 90.8181 27.1532 91.263 27.1532C91.6896 27.1532 91.8926 27.4657 91.8926 27.8718H90.6105ZM94.8091 29.2839C95.384 29.2839 95.717 29.017 95.717 28.5836C95.717 28.3509 95.5984 28.0634 95.165 27.9494L94.6905 27.8307C94.4304 27.7669 94.2935 27.6825 94.2935 27.5137C94.2935 27.2627 94.5011 27.1441 94.8023 27.1441C95.0943 27.1441 95.2676 27.2855 95.2996 27.5114H95.6737C95.6577 27.0688 95.3178 26.8338 94.8068 26.8338C94.2091 26.8338 93.9057 27.1258 93.908 27.5387C93.9103 27.8901 94.1544 28.0703 94.5354 28.1615L95.0235 28.2824C95.238 28.3326 95.3384 28.433 95.3384 28.6064C95.3384 28.8527 95.1262 28.9691 94.8068 28.9691C94.508 28.9691 94.2707 28.8277 94.2114 28.5516H93.8282C93.8966 29.0603 94.3164 29.2839 94.8091 29.2839ZM96.2729 29.9728H96.6972V28.8117C96.7953 29.0124 97.0166 29.2839 97.4386 29.2839C98.0591 29.2839 98.4287 28.8368 98.4287 28.0269C98.4287 27.2148 98.0363 26.8338 97.4729 26.8338C97.0394 26.8338 96.8045 27.0962 96.6972 27.2901L96.6927 26.8795H96.2729V29.9728ZM97.3588 28.9554C96.9208 28.9554 96.6927 28.5493 96.6927 28.0406C96.6927 27.5205 96.9208 27.1623 97.3588 27.1623C97.79 27.1623 98.0204 27.5045 98.0204 28.0406C98.0204 28.668 97.7466 28.9554 97.3588 28.9554ZM99.3011 28.157H100.991V28.0018C100.991 27.2855 100.622 26.8338 99.9581 26.8338C99.2714 26.8338 98.8745 27.338 98.8745 28.0817C98.8745 28.8345 99.3284 29.2839 99.9877 29.2839C100.446 29.2839 100.889 29.0307 100.976 28.5493H100.579C100.519 28.8162 100.282 28.9577 99.9809 28.9577C99.5223 28.9577 99.3011 28.6041 99.3011 28.157ZM99.3033 27.8718C99.3011 27.5205 99.5109 27.1532 99.9558 27.1532C100.382 27.1532 100.585 27.4657 100.585 27.8718H99.3033ZM102.205 29.2839C102.543 29.2839 102.833 29.163 103.015 28.7957L103.047 29.2383H103.408V27.5912C103.408 27.0985 103.102 26.8338 102.488 26.8338C101.916 26.8338 101.564 27.0871 101.539 27.5456H101.911C101.968 27.265 102.196 27.1464 102.468 27.1441C102.83 27.1441 102.999 27.3266 102.999 27.614V27.7988L102.58 27.8102C101.772 27.8285 101.428 28.0771 101.428 28.5995C101.428 29.0307 101.747 29.2839 102.205 29.2839ZM102.331 28.9805C102.041 28.9805 101.836 28.8254 101.836 28.5585C101.836 28.2094 102.107 28.0748 102.65 28.0657L102.999 28.0589V28.4627C102.999 28.725 102.648 28.9805 102.331 28.9805ZM106.137 29.2383L105.227 27.7783L106.078 26.8795H105.594L104.485 28.0589V25.8483H104.066V29.2383H104.485V28.5357L104.951 28.0543L105.69 29.2383H106.137ZM30.6623 35.2383H32.7861V34.8619L31.0843 34.8573V33.7577H32.5763V33.3882H31.0866V32.3114H32.7405L32.7428 31.9396H30.6623V35.2383ZM33.347 35.2383H33.7667V33.6619C33.7667 33.3448 34.0587 33.1943 34.3781 33.1943C34.686 33.1943 34.8982 33.3699 34.8982 33.7372V35.2383H35.3202V33.6962C35.3202 33.103 34.9415 32.8452 34.4944 32.8452C34.1157 32.8452 33.8716 33.0255 33.7553 33.2217V32.8795H33.347V35.2383ZM36.9771 36.0185C37.7596 36.0185 38.1383 35.7196 38.1383 35.2908C38.1383 34.9143 37.8599 34.6817 37.3672 34.652C37.1505 34.6383 36.9725 34.6292 36.8539 34.6223C36.5254 34.5995 36.4045 34.5744 36.4045 34.4877C36.4045 34.4125 36.5026 34.3395 36.8265 34.3303C36.8653 34.3326 36.9315 34.3349 36.968 34.3349C37.6273 34.3349 37.9512 34.0064 37.9512 33.5889C37.9512 33.4886 37.9215 33.3654 37.8736 33.2673L38.2865 33.1897L38.2888 32.7996C38.1611 32.8521 37.7869 33.0072 37.6866 33.0483C37.5064 32.9182 37.3147 32.843 37.009 32.843C36.368 32.843 35.9825 33.1304 35.9825 33.5889C35.9825 33.8604 36.1444 34.1045 36.4228 34.2437C36.1444 34.3052 36.0053 34.4398 36.0053 34.5881C36.0053 34.7706 36.1673 34.8368 36.2494 34.8847C36.1901 34.928 35.8023 35.0581 35.8023 35.398C35.8023 35.7972 36.238 36.0185 36.9771 36.0185ZM36.9817 34.0634C36.6144 34.0634 36.4045 33.8923 36.4045 33.5935C36.4045 33.2764 36.6349 33.103 36.9817 33.103C37.3193 33.103 37.5474 33.2764 37.5474 33.5935C37.5474 33.9037 37.3193 34.0634 36.9817 34.0634ZM37.0524 35.747C36.4844 35.747 36.222 35.601 36.222 35.3501C36.222 35.1311 36.457 34.9645 36.6349 34.9737L37.2965 35.017C37.5839 35.0352 37.7276 35.1653 37.7276 35.3523C37.7276 35.617 37.4881 35.747 37.0524 35.747ZM39.4138 35.2679C39.4731 35.2679 39.5552 35.2543 39.626 35.2314V34.9577L39.4982 34.9554C39.3317 34.944 39.2336 34.8299 39.2336 34.5904V31.8483H38.8184V34.6315C38.8184 34.9622 38.9051 35.2679 39.4138 35.2679ZM40.6085 31.9419H40.1773V32.3799H40.6085V31.9419ZM40.5971 32.8795H40.1887V35.2383H40.5971V32.8795ZM42.1532 35.2839C42.7281 35.2839 43.0612 35.017 43.0612 34.5836C43.0612 34.3509 42.9425 34.0634 42.5091 33.9494L42.0346 33.8307C41.7745 33.7669 41.6377 33.6825 41.6377 33.5137C41.6377 33.2627 41.8453 33.1441 42.1464 33.1441C42.4384 33.1441 42.6118 33.2855 42.6437 33.5114H43.0178C43.0018 33.0688 42.6619 32.8338 42.1509 32.8338C41.5533 32.8338 41.2498 33.1258 41.2521 33.5387C41.2544 33.8901 41.4985 34.0703 41.8795 34.1615L42.3677 34.2824C42.5821 34.3326 42.6825 34.433 42.6825 34.6064C42.6825 34.8527 42.4703 34.9691 42.1509 34.9691C41.8521 34.9691 41.6148 34.8277 41.5555 34.5516H41.1723C41.2407 35.0603 41.6605 35.2839 42.1532 35.2839ZM43.617 35.2383H44.0368V33.6642C44.0368 33.3471 44.3242 33.1943 44.6436 33.1943C44.9538 33.1943 45.166 33.3562 45.166 33.6368V35.2383H45.588V33.5524C45.588 33.1213 45.2253 32.8498 44.7645 32.8498C44.3858 32.8498 44.1463 33.0323 44.0277 33.2262V31.8483H43.617V35.2383ZM46.0953 35.8109H46.2914L46.6793 35.1698V34.7318H46.1523V35.236L46.3508 35.2474L46.0953 35.8109ZM48.5113 31.9396V35.2383H48.9447V33.7646H50.4002V33.3996H48.9447V32.3092H50.5644L50.5667 31.9396H48.5113ZM51.1336 35.2383H51.5533V33.7714C51.5533 33.3791 51.859 33.2194 52.2354 33.2445C52.2833 33.2445 52.3677 33.2513 52.4134 33.2718V32.8635C52.3746 32.843 52.3016 32.8338 52.2331 32.8338C51.9343 32.8338 51.6537 32.9935 51.5351 33.3334V32.8795H51.1336V35.2383ZM53.1904 34.157H54.8808V34.0018C54.8808 33.2855 54.5113 32.8338 53.8474 32.8338C53.1608 32.8338 52.7638 33.338 52.7638 34.0817C52.7638 34.8345 53.2178 35.2839 53.8771 35.2839C54.3356 35.2839 54.7782 35.0307 54.8648 34.5493H54.4679C54.4086 34.8162 54.1713 34.9577 53.8702 34.9577C53.4117 34.9577 53.1904 34.6041 53.1904 34.157ZM53.1927 33.8718C53.1904 33.5205 53.4003 33.1532 53.8451 33.1532C54.2717 33.1532 54.4748 33.4657 54.4748 33.8718H53.1927ZM55.4644 35.2383H55.8841V33.6619C55.8841 33.3448 56.1761 33.1943 56.4955 33.1943C56.8035 33.1943 57.0156 33.3699 57.0156 33.7372V35.2383H57.4377V33.6962C57.4377 33.103 57.059 32.8452 56.6119 32.8452C56.2332 32.8452 55.9891 33.0255 55.8727 33.2217V32.8795H55.4644V35.2383ZM59.0466 32.8338C58.3508 32.8338 57.9608 33.3334 57.9608 34.068C57.9608 34.8596 58.4079 35.2839 59.0466 35.2839C59.5462 35.2839 59.9295 34.9851 59.9911 34.5106H59.6238C59.5827 34.7478 59.3774 34.9622 59.0535 34.9622C58.6018 34.9622 58.3645 34.6087 58.3645 34.0634C58.3645 33.4612 58.6451 33.1737 59.0489 33.1737C59.3728 33.1737 59.5782 33.3768 59.6192 33.6254H59.9933C59.9295 33.1441 59.5531 32.8338 59.0466 32.8338ZM60.5482 35.2383H60.9679V33.6642C60.9679 33.3471 61.2554 33.1943 61.5748 33.1943C61.885 33.1943 62.0972 33.3562 62.0972 33.6368V35.2383H62.5192V33.5524C62.5192 33.1213 62.1565 32.8498 61.6957 32.8498C61.317 32.8498 61.0774 33.0323 60.9588 33.2262V31.8483H60.5482V35.2383ZM63.0264 35.8109H63.2226L63.6104 35.1698V34.7318H63.0834V35.236L63.2819 35.2474L63.0264 35.8109ZM66.5625 35.2839C67.345 35.2839 67.8035 34.8847 67.8035 34.3874C67.8035 34.0292 67.6644 33.5935 67.0074 33.4498L66.38 33.2992C65.9489 33.1943 65.8143 33.0574 65.8143 32.8179C65.8143 32.4483 66.177 32.2567 66.5488 32.2567C66.9389 32.2567 67.2766 32.4072 67.3199 32.8544H67.7556C67.7511 32.3548 67.3382 31.8985 66.5466 31.8985C65.8599 31.8985 65.3672 32.2886 65.3694 32.8589C65.374 33.3106 65.666 33.5798 66.1519 33.687L66.7998 33.8376C67.1648 33.922 67.3724 34.0931 67.3724 34.3919C67.3724 34.7273 67.0233 34.9326 66.5602 34.9326C66.1451 34.9326 65.796 34.7364 65.7139 34.3623H65.2713C65.3557 34.9691 65.9397 35.2839 66.5625 35.2839ZM68.4301 35.9728H68.8544V34.8117C68.9525 35.0124 69.1738 35.2839 69.5958 35.2839C70.2163 35.2839 70.5859 34.8368 70.5859 34.0269C70.5859 33.2148 70.1935 32.8338 69.63 32.8338C69.1966 32.8338 68.9616 33.0962 68.8544 33.2901L68.8498 32.8795H68.4301V35.9728ZM69.516 34.9554C69.078 34.9554 68.8498 34.5493 68.8498 34.0406C68.8498 33.5205 69.078 33.1623 69.516 33.1623C69.9471 33.1623 70.1775 33.5045 70.1775 34.0406C70.1775 34.668 69.9038 34.9554 69.516 34.9554ZM71.7784 35.2839C72.116 35.2839 72.4057 35.163 72.5882 34.7957L72.6201 35.2383H72.9806V33.5912C72.9806 33.0985 72.6749 32.8338 72.0612 32.8338C71.4886 32.8338 71.1373 33.0871 71.1122 33.5456H71.4841C71.5411 33.265 71.7692 33.1464 72.0407 33.1441C72.4034 33.1441 72.5722 33.3266 72.5722 33.614V33.7988L72.1525 33.8102C71.3449 33.8285 71.0004 34.0771 71.0004 34.5995C71.0004 35.0307 71.3198 35.2839 71.7784 35.2839ZM71.9038 34.9805C71.6141 34.9805 71.4088 34.8254 71.4088 34.5585C71.4088 34.2094 71.6803 34.0748 72.2232 34.0657L72.5722 34.0589V34.4627C72.5722 34.725 72.2209 34.9805 71.9038 34.9805ZM73.6386 35.2383H74.0584V33.6619C74.0584 33.3448 74.3504 33.1943 74.6698 33.1943C74.9777 33.1943 75.1899 33.3699 75.1899 33.7372V35.2383H75.6119V33.6962C75.6119 33.103 75.2332 32.8452 74.7861 32.8452C74.4074 32.8452 74.1633 33.0255 74.047 33.2217V32.8795H73.6386V35.2383ZM76.703 31.9419H76.2719V32.3799H76.703V31.9419ZM76.6916 32.8795H76.2833V35.2383H76.6916V32.8795ZM78.2478 35.2839C78.8226 35.2839 79.1557 35.017 79.1557 34.5836C79.1557 34.3509 79.0371 34.0634 78.6036 33.9494L78.1291 33.8307C77.8691 33.7669 77.7322 33.6825 77.7322 33.5137C77.7322 33.2627 77.9398 33.1441 78.2409 33.1441C78.5329 33.1441 78.7063 33.2855 78.7382 33.5114H79.1124C79.0964 33.0688 78.7565 32.8338 78.2455 32.8338C77.6478 32.8338 77.3444 33.1258 77.3467 33.5387C77.349 33.8901 77.593 34.0703 77.974 34.1615L78.4622 34.2824C78.6766 34.3326 78.777 34.433 78.777 34.6064C78.777 34.8527 78.5649 34.9691 78.2455 34.9691C77.9466 34.9691 77.7094 34.8277 77.6501 34.5516H77.2668C77.3353 35.0603 77.755 35.2839 78.2478 35.2839ZM79.7116 35.2383H80.1313V33.6642C80.1313 33.3471 80.4188 33.1943 80.7381 33.1943C81.0484 33.1943 81.2605 33.3562 81.2605 33.6368V35.2383H81.6826V33.5524C81.6826 33.1213 81.3199 32.8498 80.859 32.8498C80.4804 32.8498 80.2408 33.0323 80.1222 33.2262V31.8483H79.7116V35.2383ZM82.1898 35.8109H82.386L82.7738 35.1698V34.7318H82.2468V35.236L82.4453 35.2474L82.1898 35.8109ZM85.1807 35.2839C85.5183 35.2839 85.808 35.163 85.9905 34.7957L86.0225 35.2383H86.3829V33.5912C86.3829 33.0985 86.0772 32.8338 85.4636 32.8338C84.891 32.8338 84.5397 33.0871 84.5146 33.5456H84.8864C84.9434 33.265 85.1716 33.1464 85.443 33.1441C85.8058 33.1441 85.9746 33.3266 85.9746 33.614V33.7988L85.5548 33.8102C84.7473 33.8285 84.4028 34.0771 84.4028 34.5995C84.4028 35.0307 84.7222 35.2839 85.1807 35.2839ZM85.3062 34.9805C85.0164 34.9805 84.8111 34.8254 84.8111 34.5585C84.8111 34.2094 85.0826 34.0748 85.6255 34.0657L85.9746 34.0589V34.4627C85.9746 34.725 85.6233 34.9805 85.3062 34.9805ZM87.041 35.2383H87.4607V33.6619C87.4607 33.3448 87.7527 33.1943 88.0721 33.1943C88.3801 33.1943 88.5922 33.3699 88.5922 33.7372V35.2383H89.0143V33.6962C89.0143 33.103 88.6356 32.8452 88.1885 32.8452C87.8098 32.8452 87.5657 33.0255 87.4493 33.2217V32.8795H87.041V35.2383ZM90.5343 35.2839C91.0863 35.2839 91.2711 34.9394 91.3304 34.7547L91.376 35.2383H91.7V31.8483H91.2734V33.2536C91.1981 33.1007 90.9517 32.8338 90.5 32.8338C89.8613 32.8338 89.5374 33.3152 89.5374 34.0497C89.5374 34.8573 89.9206 35.2839 90.5343 35.2839ZM90.6095 34.96C90.1852 34.96 89.9617 34.6201 89.9617 34.0292C89.9617 33.4247 90.2286 33.1623 90.6164 33.1623C91.0863 33.1623 91.2688 33.4772 91.2734 34.0292C91.2734 34.6885 91.0863 34.96 90.6095 34.96ZM96.0111 31.9396H95.5936L94.583 34.7592L93.5725 31.9396H93.155L94.3298 35.2383H94.8385L96.0111 31.9396ZM96.9001 31.9419H96.469V32.3799H96.9001V31.9419ZM96.8887 32.8795H96.4804V35.2383H96.8887V32.8795ZM97.9065 34.157H99.5969V34.0018C99.5969 33.2855 99.2273 32.8338 98.5635 32.8338C97.8768 32.8338 97.4799 33.338 97.4799 34.0817C97.4799 34.8345 97.9338 35.2839 98.5931 35.2839C99.0517 35.2839 99.4942 35.0307 99.5809 34.5493H99.184C99.1247 34.8162 98.8874 34.9577 98.5863 34.9577C98.1278 34.9577 97.9065 34.6041 97.9065 34.157ZM97.9088 33.8718C97.9065 33.5205 98.1163 33.1532 98.5612 33.1532C98.9878 33.1532 99.1908 33.4657 99.1908 33.8718H97.9088ZM101.273 33.1874V32.8772H100.742V32.1928H100.432L100.329 32.8795H99.9344V33.1874H100.318V34.668C100.318 35.0467 100.448 35.2497 100.938 35.2497C101.109 35.2497 101.228 35.2337 101.287 35.2109V34.928H101.029C100.808 34.928 100.742 34.9052 100.742 34.6543V33.1874H101.273ZM101.847 35.2383H102.267V33.6619C102.267 33.3448 102.559 33.1943 102.878 33.1943C103.186 33.1943 103.398 33.3699 103.398 33.7372V35.2383H103.82V33.6962C103.82 33.103 103.441 32.8452 102.994 32.8452C102.616 32.8452 102.372 33.0255 102.255 33.2217V32.8795H101.847V35.2383ZM105.133 35.2839C105.47 35.2839 105.76 35.163 105.943 34.7957L105.975 35.2383H106.335V33.5912C106.335 33.0985 106.029 32.8338 105.416 32.8338C104.843 32.8338 104.492 33.0871 104.467 33.5456H104.838C104.895 33.265 105.124 33.1464 105.395 33.1441C105.758 33.1441 105.927 33.3266 105.927 33.614V33.7988L105.507 33.8102C104.699 33.8285 104.355 34.0771 104.355 34.5995C104.355 35.0307 104.674 35.2839 105.133 35.2839ZM105.258 34.9805C104.968 34.9805 104.763 34.8254 104.763 34.5585C104.763 34.2094 105.035 34.0748 105.578 34.0657L105.927 34.0589V34.4627C105.927 34.725 105.575 34.9805 105.258 34.9805ZM106.993 35.2383H107.413V33.6619C107.413 33.3312 107.702 33.192 107.944 33.192C108.163 33.192 108.423 33.3334 108.423 33.614V35.2383H108.843V33.6619C108.843 33.3038 109.151 33.192 109.372 33.192C109.621 33.192 109.856 33.3106 109.856 33.7372V35.2383H110.28V33.6962C110.28 32.9981 109.845 32.8338 109.512 32.8338C109.199 32.8338 108.939 32.989 108.793 33.2194C108.67 32.9684 108.371 32.8338 108.113 32.8338C107.746 32.8338 107.529 33.0141 107.399 33.2217V32.8795H106.993V35.2383ZM111.251 34.157H112.941V34.0018C112.941 33.2855 112.572 32.8338 111.908 32.8338C111.221 32.8338 110.824 33.338 110.824 34.0817C110.824 34.8345 111.278 35.2839 111.938 35.2839C112.396 35.2839 112.839 35.0307 112.925 34.5493H112.528C112.469 34.8162 112.232 34.9577 111.931 34.9577C111.472 34.9577 111.251 34.6041 111.251 34.157ZM111.253 33.8718C111.251 33.5205 111.461 33.1532 111.906 33.1532C112.332 33.1532 112.535 33.4657 112.535 33.8718H111.253ZM114.356 35.2839C114.931 35.2839 115.264 35.017 115.264 34.5836C115.264 34.3509 115.145 34.0634 114.712 33.9494L114.237 33.8307C113.977 33.7669 113.84 33.6825 113.84 33.5137C113.84 33.2627 114.048 33.1441 114.349 33.1441C114.641 33.1441 114.814 33.2855 114.846 33.5114H115.22C115.204 33.0688 114.864 32.8338 114.353 32.8338C113.756 32.8338 113.452 33.1258 113.455 33.5387C113.457 33.8901 113.701 34.0703 114.082 34.1615L114.57 34.2824C114.785 34.3326 114.885 34.433 114.885 34.6064C114.885 34.8527 114.673 34.9691 114.353 34.9691C114.055 34.9691 113.817 34.8277 113.758 34.5516H113.375C113.443 35.0603 113.863 35.2839 114.356 35.2839ZM116.13 34.157H117.82V34.0018C117.82 33.2855 117.451 32.8338 116.787 32.8338C116.1 32.8338 115.703 33.338 115.703 34.0817C115.703 34.8345 116.157 35.2839 116.816 35.2839C117.275 35.2839 117.717 35.0307 117.804 34.5493H117.407C117.348 34.8162 117.111 34.9577 116.81 34.9577C116.351 34.9577 116.13 34.6041 116.13 34.157ZM116.132 33.8718C116.13 33.5205 116.34 33.1532 116.784 33.1532C117.211 33.1532 117.414 33.4657 117.414 33.8718H116.132ZM118.306 35.2383H118.808V34.6999H118.306V35.2383Z" fill="#00284D"/>
<path d="M30.3954 11.9534V18.5508H34.602V17.4238H31.7368V11.9534H30.3954ZM36.5309 16.4977H39.7018V16.1372C39.7018 14.7228 38.9444 13.7419 37.5027 13.7419C36.0564 13.7419 35.2123 14.8278 35.2123 16.2467C35.2123 17.7113 36.1704 18.642 37.5711 18.642C38.5521 18.642 39.5376 18.0626 39.6972 17.0543H38.4973C38.3604 17.4968 37.9954 17.6793 37.5392 17.6793C36.9004 17.6793 36.5263 17.2185 36.5309 16.4977ZM36.5309 15.7038C36.5263 15.1837 36.8867 14.6727 37.4981 14.6727C38.1414 14.6727 38.4562 15.1335 38.4562 15.7038H36.5309ZM43.3659 14.7593V13.8286H42.3165V12.4097H41.3675L41.0299 13.8332H40.2224V14.7593H40.9889V17.328C40.9889 18.0854 41.3082 18.601 42.5538 18.601C43.0146 18.601 43.2519 18.5417 43.3796 18.4869V17.6657H42.7454C42.4534 17.6657 42.3257 17.62 42.3257 17.2733L42.3165 14.7593H43.3659ZM44.201 14.5175H44.6938L45.6108 13.0803V11.9534H44.2649V13.2309L44.7303 13.2765L44.201 14.5175ZM48.0131 18.642C49.1902 18.642 50.0024 18.1082 50.0024 17.1638C50.0024 16.7349 49.7788 16.046 48.7294 15.7859L47.9629 15.6125C47.4474 15.5122 47.2147 15.3798 47.2147 15.1335C47.2147 14.8004 47.5477 14.6362 48.004 14.6362C48.4511 14.6362 48.7659 14.8415 48.8344 15.2065H49.9476C49.9339 14.2803 49.1811 13.7419 48.0222 13.7419C46.731 13.7419 46.0375 14.3852 46.0421 15.2338C46.0467 16.014 46.5987 16.411 47.4337 16.5843L48.264 16.7577C48.6929 16.8398 48.8617 16.9813 48.8617 17.2368C48.8617 17.5744 48.515 17.7295 48.0085 17.7295C47.639 17.7295 47.169 17.5653 47.0459 17.0634H45.8961C46.0649 18.1812 47.0276 18.642 48.0131 18.642ZM55.7702 14.7593V13.8286H54.7208V12.4097H53.7718L53.4342 13.8332H52.6267V14.7593H53.3932V17.328C53.3932 18.0854 53.7125 18.601 54.9581 18.601C55.4189 18.601 55.6562 18.5417 55.7839 18.4869V17.6657H55.1497C54.8577 17.6657 54.73 17.62 54.73 17.2733L54.7208 14.7593H55.7702ZM58.1022 18.642C58.7638 18.642 59.2429 18.423 59.5668 17.7387L59.6763 18.5508H60.7895V15.2338C60.7895 14.3077 60.2375 13.7419 58.7957 13.7419C57.614 13.7419 56.7609 14.2164 56.7107 15.2384H57.8194C57.9517 14.805 58.344 14.6453 58.7319 14.6407C59.2657 14.6362 59.512 14.878 59.512 15.3114V15.5943L58.9189 15.6034C57.2536 15.6217 56.5099 16.1692 56.5099 17.2003C56.5099 18.1219 57.2034 18.642 58.1022 18.642ZM58.5539 17.766C58.1159 17.766 57.7737 17.506 57.7737 17.068C57.7737 16.4931 58.3669 16.2969 59.033 16.2878L59.512 16.2787V16.9767C59.5075 17.3828 59.033 17.766 58.5539 17.766ZM63.3756 18.6329C63.5536 18.6329 63.7497 18.5827 63.9322 18.5188V17.6976L63.7087 17.6839C63.2981 17.6383 63.1749 17.4102 63.1749 17.0634V11.7709H61.87V17.2277C61.87 17.9075 61.9795 18.6329 63.3756 18.6329ZM69.3864 18.5508L67.6116 15.7129L69.3271 13.8332H67.8945L66.1607 15.7905V11.7709H64.8285V18.5508H66.1607V17.182L66.7858 16.5159L68.0587 18.5508H69.3864ZM69.9942 18.5508H71.4542V17.0999H69.9942V18.5508Z" fill="#00284D"/>
</svg>
