<svg width="244" height="262" viewBox="0 0 244 262" fill="none" xmlns="http://www.w3.org/2000/svg">
<g filter="url(#filter0_d)">
<rect x="2" width="240" height="256" rx="8" fill="white"/>
<path d="M2 8C2 3.58172 5.58172 0 10 0H234C238.418 0 242 3.58172 242 8V156H2V8Z" fill="#6C757D"/>
<path d="M26.688 181.032V186H29.024V174.432H26.688V179.072H21.624V174.432H19.296V186H21.624V181.032H26.688ZM33.0698 182.4H38.6298V181.768C38.6298 179.288 37.3018 177.568 34.7738 177.568C32.2378 177.568 30.7578 179.472 30.7578 181.96C30.7578 184.528 32.4378 186.16 34.8938 186.16C36.6138 186.16 38.3418 185.144 38.6218 183.376H36.5178C36.2778 184.152 35.6378 184.472 34.8378 184.472C33.7178 184.472 33.0618 183.664 33.0698 182.4ZM33.0698 181.008C33.0618 180.096 33.6938 179.2 34.7658 179.2C35.8938 179.2 36.4458 180.008 36.4458 181.008H33.0698ZM42.7216 186.16C43.8816 186.16 44.7216 185.776 45.2896 184.576L45.4816 186H47.4336V180.184C47.4336 178.56 46.4656 177.568 43.9376 177.568C41.8656 177.568 40.3696 178.4 40.2816 180.192H42.2256C42.4576 179.432 43.1456 179.152 43.8256 179.144C44.7616 179.136 45.1936 179.56 45.1936 180.32V180.816L44.1536 180.832C41.2336 180.864 39.9296 181.824 39.9296 183.632C39.9296 185.248 41.1456 186.16 42.7216 186.16ZM43.5136 184.624C42.7456 184.624 42.1456 184.168 42.1456 183.4C42.1456 182.392 43.1856 182.048 44.3536 182.032L45.1936 182.016V183.24C45.1856 183.952 44.3536 184.624 43.5136 184.624ZM52.4561 186.16C54.0881 186.16 54.8081 185.216 55.1041 184.304L55.3681 186H57.0641V174.112H54.7201V178.848C54.3201 178.144 53.4081 177.568 52.2241 177.568C50.0961 177.568 48.9361 179.224 48.9361 181.816C48.9361 184.552 50.2321 186.16 52.4561 186.16ZM52.9681 184.48C51.8961 184.48 51.2161 183.624 51.2161 181.784C51.2161 179.968 51.9681 179.264 52.9841 179.264C54.1441 179.264 54.7041 180.096 54.7201 181.784C54.7201 183.736 54.1441 184.48 52.9681 184.48ZM61.3814 174.44H59.1094V176.544H61.3814V174.44ZM61.3654 177.728H59.1334V186H61.3654V177.728ZM63.4219 186H65.7579V180.704C65.7579 179.896 66.5339 179.488 67.3019 179.488C68.0619 179.488 68.6779 179.936 68.6779 180.832V186H71.0139V180.544C71.0139 178.496 69.6299 177.656 68.1179 177.656C66.8139 177.656 66.0939 178.296 65.7179 178.896V177.728H63.4219V186ZM76.7463 188.736C79.6903 188.736 81.1543 187.616 81.1543 186.064C81.1543 184.76 80.1623 183.832 78.1383 183.696C77.4103 183.648 76.7703 183.616 76.4183 183.592C75.4423 183.536 74.9703 183.496 74.9703 183.232C74.9703 183.064 75.1703 182.92 75.7943 182.888C76.0023 182.912 76.4183 182.92 76.6102 182.92C79.0823 182.92 80.3542 181.624 80.3542 180.184C80.3542 179.968 80.2903 179.608 80.1783 179.312L81.6023 179.08L81.6183 177.272C80.9223 177.56 79.6823 178.056 79.1863 178.248C78.5703 177.864 77.9143 177.6 76.7783 177.6C74.5303 177.6 72.8583 178.56 72.8583 180.192C72.8583 181.112 73.4343 182.072 74.5303 182.576C73.3863 182.776 72.8343 183.328 72.8343 183.912C72.8343 184.696 73.5943 184.992 73.8503 185.144C73.6903 185.232 72.2423 185.576 72.2423 186.704C72.2423 187.92 73.8023 188.736 76.7463 188.736ZM76.6823 181.616C75.7623 181.616 75.2023 181.088 75.2023 180.264C75.2023 179.408 75.7943 178.832 76.6823 178.832C77.5623 178.832 78.1463 179.4 78.1463 180.264C78.1463 181.104 77.5623 181.616 76.6823 181.616ZM77.1223 187.432C75.3463 187.432 74.5303 187.128 74.5303 186.432C74.5303 185.92 75.0263 185.448 75.7783 185.488L77.6743 185.616C78.4903 185.672 78.9303 186.008 78.9303 186.504C78.9303 187.104 78.4183 187.432 77.1223 187.432ZM86.1249 186.16C88.1889 186.16 89.6129 185.224 89.6129 183.568C89.6129 182.816 89.2209 181.608 87.3809 181.152L86.0369 180.848C85.1329 180.672 84.7249 180.44 84.7249 180.008C84.7249 179.424 85.3089 179.136 86.1089 179.136C86.8929 179.136 87.4449 179.496 87.5649 180.136H89.5169C89.4929 178.512 88.1729 177.568 86.1409 177.568C83.8769 177.568 82.6609 178.696 82.6689 180.184C82.6769 181.552 83.6449 182.248 85.1089 182.552L86.5649 182.856C87.3169 183 87.6129 183.248 87.6129 183.696C87.6129 184.288 87.0049 184.56 86.1169 184.56C85.4689 184.56 84.6449 184.272 84.4289 183.392H82.4129C82.7089 185.352 84.3969 186.16 86.1249 186.16Z" fill="black"/>
<path d="M23.784 198.272C20.648 198.272 18.864 200.408 18.864 204.176C18.864 207.952 20.664 210.16 23.784 210.16C26.544 210.16 27.912 208.336 28.152 206.36H26.576C26.312 207.712 25.368 208.872 23.744 208.872C21.632 208.872 20.504 207.416 20.504 204.192C20.504 200.992 21.632 199.56 23.744 199.56C25.368 199.56 26.312 200.64 26.576 202H28.152C27.936 199.976 26.224 198.272 23.784 198.272ZM30.2396 210H31.7116V204.856C31.7116 203.48 32.7836 202.92 34.1036 203.008C34.2716 203.008 34.5676 203.032 34.7276 203.104V201.672C34.5916 201.6 34.3356 201.568 34.0956 201.568C33.0476 201.568 32.0636 202.128 31.6476 203.32V201.728H30.2396V210ZM37.4526 206.208H43.3806V205.664C43.3806 203.152 42.0846 201.568 39.7566 201.568C37.3486 201.568 35.9566 203.336 35.9566 205.944C35.9566 208.584 37.5486 210.16 39.8606 210.16C41.4686 210.16 43.0206 209.272 43.3246 207.584H41.9326C41.7246 208.52 40.8926 209.016 39.8366 209.016C38.2286 209.016 37.4526 207.776 37.4526 206.208ZM37.4606 205.208C37.4526 203.976 38.1886 202.688 39.7486 202.688C41.2446 202.688 41.9566 203.784 41.9566 205.208H37.4606ZM47.6378 210.16C48.8218 210.16 49.8378 209.736 50.4778 208.448L50.5898 210H51.8538V204.224C51.8538 202.496 50.7818 201.568 48.6298 201.568C46.6218 201.568 45.3898 202.456 45.3018 204.064H46.6058C46.8058 203.08 47.6058 202.664 48.5578 202.656C49.8298 202.656 50.4218 203.296 50.4218 204.304V204.952L48.9498 204.992C46.1178 205.056 44.9098 205.928 44.9098 207.76C44.9098 209.272 46.0298 210.16 47.6378 210.16ZM48.0778 209.096C47.0618 209.096 46.3418 208.552 46.3418 207.616C46.3418 206.392 47.2938 205.92 49.1978 205.888L50.4218 205.864V207.28C50.4218 208.2 49.1898 209.096 48.0778 209.096ZM58.0258 202.808V201.72H56.1618V199.32H55.0738L54.7138 201.728H53.3298V202.808H54.6738V208C54.6738 209.328 55.1298 210.04 56.8498 210.04C57.4498 210.04 57.8658 209.984 58.0738 209.904V208.912H57.1698C56.3938 208.912 56.1618 208.832 56.1618 207.952V202.808H58.0258ZM60.9058 206.208H66.8338V205.664C66.8338 203.152 65.5378 201.568 63.2098 201.568C60.8018 201.568 59.4098 203.336 59.4098 205.944C59.4098 208.584 61.0018 210.16 63.3138 210.16C64.9218 210.16 66.4738 209.272 66.7778 207.584H65.3858C65.1778 208.52 64.3458 209.016 63.2898 209.016C61.6818 209.016 60.9058 207.776 60.9058 206.208ZM60.9138 205.208C60.9058 203.976 61.6418 202.688 63.2018 202.688C64.6978 202.688 65.4098 203.784 65.4098 205.208H60.9138ZM71.7938 210.16C73.8098 210.16 74.9778 209.224 74.9778 207.704C74.9778 206.888 74.5618 205.88 73.0418 205.48L71.3778 205.064C70.4658 204.84 69.9858 204.544 69.9858 203.952C69.9858 203.072 70.7138 202.656 71.7698 202.656C72.7938 202.656 73.4018 203.152 73.5138 203.944H74.8258C74.7698 202.392 73.5778 201.568 71.7858 201.568C69.6898 201.568 68.6258 202.592 68.6338 204.04C68.6418 205.272 69.4978 205.904 70.8338 206.224L72.5458 206.648C73.2978 206.824 73.6498 207.176 73.6498 207.784C73.6498 208.648 72.9058 209.056 71.7858 209.056C70.7378 209.056 69.9058 208.56 69.6978 207.592H68.3538C68.5938 209.376 70.0658 210.16 71.7938 210.16ZM83.7313 210.16C85.7473 210.16 86.9153 209.224 86.9153 207.704C86.9153 206.888 86.4993 205.88 84.9793 205.48L83.3153 205.064C82.4033 204.84 81.9233 204.544 81.9233 203.952C81.9233 203.072 82.6513 202.656 83.7073 202.656C84.7313 202.656 85.3393 203.152 85.4513 203.944H86.7633C86.7073 202.392 85.5153 201.568 83.7233 201.568C81.6273 201.568 80.5633 202.592 80.5713 204.04C80.5793 205.272 81.4353 205.904 82.7713 206.224L84.4833 206.648C85.2353 206.824 85.5873 207.176 85.5873 207.784C85.5873 208.648 84.8433 209.056 83.7233 209.056C82.6753 209.056 81.8433 208.56 81.6353 207.592H80.2913C80.5312 209.376 82.0033 210.16 83.7313 210.16ZM92.8851 202.808V201.72H91.0211V199.32H89.9331L89.5731 201.728H88.1891V202.808H89.5331V208C89.5331 209.328 89.9891 210.04 91.7091 210.04C92.3091 210.04 92.7251 209.984 92.9331 209.904V208.912H92.0291C91.2531 208.912 91.0211 208.832 91.0211 207.952V202.808H92.8851ZM94.8959 210H96.3679V204.856C96.3679 203.48 97.4399 202.92 98.7599 203.008C98.9279 203.008 99.2239 203.032 99.3839 203.104V201.672C99.2479 201.6 98.9919 201.568 98.7519 201.568C97.7039 201.568 96.7199 202.128 96.3039 203.32V201.728H94.8959V210ZM104.186 210.16C105.354 210.168 106.362 209.656 106.666 208.416L106.818 210H107.994V201.728H106.522V207.112C106.522 208.368 105.714 209.008 104.498 209.008C103.146 209.008 102.49 208.272 102.49 207.192V201.728H101.01V207.344C101.01 209.208 102.466 210.144 104.186 210.16ZM113.755 201.568C111.315 201.568 109.947 203.32 109.947 205.896C109.947 208.672 111.515 210.16 113.755 210.16C115.507 210.16 116.851 209.112 117.067 207.448H115.779C115.635 208.28 114.915 209.032 113.779 209.032C112.195 209.032 111.363 207.792 111.363 205.88C111.363 203.768 112.347 202.76 113.763 202.76C114.899 202.76 115.619 203.472 115.763 204.344H117.075C116.851 202.656 115.531 201.568 113.755 201.568ZM122.963 202.808V201.72H121.099V199.32H120.011L119.651 201.728H118.267V202.808H119.611V208C119.611 209.328 120.067 210.04 121.787 210.04C122.387 210.04 122.803 209.984 123.011 209.904V208.912H122.107C121.331 208.912 121.099 208.832 121.099 207.952V202.808H122.963ZM127.936 210.16C129.104 210.168 130.112 209.656 130.416 208.416L130.568 210H131.744V201.728H130.272V207.112C130.272 208.368 129.464 209.008 128.248 209.008C126.896 209.008 126.24 208.272 126.24 207.192V201.728H124.76V207.344C124.76 209.208 126.216 210.144 127.936 210.16ZM134.287 210H135.759V204.856C135.759 203.48 136.831 202.92 138.151 203.008C138.319 203.008 138.615 203.032 138.775 203.104V201.672C138.639 201.6 138.383 201.568 138.143 201.568C137.095 201.568 136.111 202.128 135.695 203.32V201.728H134.287V210ZM141.5 206.208H147.428V205.664C147.428 203.152 146.132 201.568 143.804 201.568C141.396 201.568 140.004 203.336 140.004 205.944C140.004 208.584 141.596 210.16 143.908 210.16C145.516 210.16 147.068 209.272 147.372 207.584H145.98C145.772 208.52 144.94 209.016 143.884 209.016C142.276 209.016 141.5 207.776 141.5 206.208ZM141.508 205.208C141.5 203.976 142.236 202.688 143.796 202.688C145.292 202.688 146.004 203.784 146.004 205.208H141.508ZM148.946 212.008H149.634L150.994 209.76V208.224H149.146V209.992L149.842 210.032L148.946 212.008ZM160.155 210.16C161.323 210.168 162.331 209.656 162.635 208.416L162.787 210H163.963V201.728H162.491V207.112C162.491 208.368 161.683 209.008 160.467 209.008C159.115 209.008 158.459 208.272 158.459 207.192V201.728H156.979V207.344C156.979 209.208 158.435 210.144 160.155 210.16ZM169.372 210.16C171.388 210.16 172.556 209.224 172.556 207.704C172.556 206.888 172.14 205.88 170.62 205.48L168.956 205.064C168.044 204.84 167.564 204.544 167.564 203.952C167.564 203.072 168.292 202.656 169.348 202.656C170.372 202.656 170.98 203.152 171.092 203.944H172.404C172.348 202.392 171.156 201.568 169.364 201.568C167.268 201.568 166.204 202.592 166.212 204.04C166.22 205.272 167.076 205.904 168.412 206.224L170.124 206.648C170.876 206.824 171.228 207.176 171.228 207.784C171.228 208.648 170.484 209.056 169.364 209.056C168.316 209.056 167.484 208.56 167.276 207.592H165.932C166.172 209.376 167.644 210.16 169.372 210.16ZM175.593 206.208H181.521V205.664C181.521 203.152 180.225 201.568 177.897 201.568C175.489 201.568 174.097 203.336 174.097 205.944C174.097 208.584 175.689 210.16 178.001 210.16C179.609 210.16 181.161 209.272 181.465 207.584H180.073C179.865 208.52 179.033 209.016 177.977 209.016C176.369 209.016 175.593 207.776 175.593 206.208ZM175.601 205.208C175.593 203.976 176.329 202.688 177.889 202.688C179.385 202.688 180.097 203.784 180.097 205.208H175.601ZM186.481 210.16C188.497 210.16 189.665 209.224 189.665 207.704C189.665 206.888 189.249 205.88 187.729 205.48L186.065 205.064C185.153 204.84 184.673 204.544 184.673 203.952C184.673 203.072 185.401 202.656 186.457 202.656C187.481 202.656 188.089 203.152 188.201 203.944H189.513C189.457 202.392 188.265 201.568 186.473 201.568C184.377 201.568 183.313 202.592 183.321 204.04C183.329 205.272 184.185 205.904 185.521 206.224L187.233 206.648C187.985 206.824 188.337 207.176 188.337 207.784C188.337 208.648 187.593 209.056 186.473 209.056C185.425 209.056 184.593 208.56 184.385 207.592H183.041C183.281 209.376 184.753 210.16 186.481 210.16ZM198.419 210.16C200.435 210.16 201.603 209.224 201.603 207.704C201.603 206.888 201.187 205.88 199.667 205.48L198.003 205.064C197.091 204.84 196.611 204.544 196.611 203.952C196.611 203.072 197.339 202.656 198.395 202.656C199.419 202.656 200.027 203.152 200.139 203.944H201.451C201.395 202.392 200.203 201.568 198.411 201.568C196.315 201.568 195.251 202.592 195.259 204.04C195.267 205.272 196.123 205.904 197.459 206.224L199.171 206.648C199.923 206.824 200.275 207.176 200.275 207.784C200.275 208.648 199.531 209.056 198.411 209.056C197.363 209.056 196.531 208.56 196.323 207.592H194.979C195.219 209.376 196.691 210.16 198.419 210.16ZM205.064 198.44H203.552V199.976H205.064V198.44ZM205.024 201.728H203.592V210H205.024V201.728ZM206.889 210H213.361V208.912H208.657L213.321 202.648V201.728H207.089V202.816H211.561L206.889 209.08V210ZM216.218 206.208H222.146V205.664C222.146 203.152 220.85 201.568 218.522 201.568C216.114 201.568 214.722 203.336 214.722 205.944C214.722 208.584 216.314 210.16 218.626 210.16C220.234 210.16 221.786 209.272 222.09 207.584H220.698C220.49 208.52 219.658 209.016 218.602 209.016C216.994 209.016 216.218 207.776 216.218 206.208ZM216.226 205.208C216.218 203.976 216.954 202.688 218.514 202.688C220.01 202.688 220.722 203.784 220.722 205.208H216.226ZM23.816 225.728H21.784V224.576C21.784 223.84 21.984 223.48 22.664 223.48H23.896L23.888 222.432H22.328C20.992 222.432 20.328 223.136 20.328 224.448V225.728H18.576V226.808H20.328V234H21.808V226.808H23.816V225.728ZM28.7548 234.16C31.2188 234.16 32.5228 232.424 32.5228 229.896C32.5228 227.112 31.0428 225.568 28.7628 225.568C26.3148 225.568 24.9628 227.304 24.9628 229.896C24.9628 232.656 26.4588 234.16 28.7548 234.16ZM28.7628 232.992C27.1068 232.992 26.4348 231.608 26.4348 229.864C26.4348 227.896 27.2588 226.728 28.7628 226.728C30.3868 226.728 31.0588 228.096 31.0588 229.864C31.0588 231.808 30.2428 232.992 28.7628 232.992ZM34.4896 234H35.9616V228.856C35.9616 227.48 37.0336 226.92 38.3536 227.008C38.5216 227.008 38.8176 227.032 38.9776 227.104V225.672C38.8416 225.6 38.5856 225.568 38.3456 225.568C37.2976 225.568 36.3136 226.128 35.8976 227.32V225.728H34.4896V234ZM46.9503 234.16C48.1343 234.16 49.1503 233.736 49.7903 232.448L49.9023 234H51.1663V228.224C51.1663 226.496 50.0943 225.568 47.9423 225.568C45.9343 225.568 44.7023 226.456 44.6143 228.064H45.9183C46.1183 227.08 46.9183 226.664 47.8703 226.656C49.1423 226.656 49.7343 227.296 49.7343 228.304V228.952L48.2623 228.992C45.4303 229.056 44.2223 229.928 44.2223 231.76C44.2223 233.272 45.3423 234.16 46.9503 234.16ZM47.3903 233.096C46.3743 233.096 45.6543 232.552 45.6543 231.616C45.6543 230.392 46.6063 229.92 48.5103 229.888L49.7343 229.864V231.28C49.7343 232.2 48.5023 233.096 47.3903 233.096ZM63.7273 225.728H62.3433L60.1353 232.144H59.9993L57.7993 225.728H56.4073L59.3993 234H60.7513L63.7273 225.728ZM66.8454 222.44H65.3334V223.976H66.8454V222.44ZM66.8054 225.728H65.3734V234H66.8054V225.728ZM72.2625 234.16C74.2785 234.16 75.4465 233.224 75.4465 231.704C75.4465 230.888 75.0305 229.88 73.5105 229.48L71.8465 229.064C70.9345 228.84 70.4545 228.544 70.4545 227.952C70.4545 227.072 71.1825 226.656 72.2385 226.656C73.2625 226.656 73.8705 227.152 73.9825 227.944H75.2945C75.2385 226.392 74.0465 225.568 72.2545 225.568C70.1585 225.568 69.0945 226.592 69.1025 228.04C69.1105 229.272 69.9665 229.904 71.3025 230.224L73.0145 230.648C73.7665 230.824 74.1185 231.176 74.1185 231.784C74.1185 232.648 73.3745 233.056 72.2545 233.056C71.2065 233.056 70.3745 232.56 70.1665 231.592H68.8225C69.0625 233.376 70.5345 234.16 72.2625 234.16ZM80.4359 234.16C81.6039 234.168 82.6119 233.656 82.9159 232.416L83.0679 234H84.2439V225.728H82.7719V231.112C82.7719 232.368 81.9639 233.008 80.7479 233.008C79.3959 233.008 78.7399 232.272 78.7399 231.192V225.728H77.2599V231.344C77.2599 233.208 78.7159 234.144 80.4359 234.16ZM88.9971 234.16C90.1811 234.16 91.1971 233.736 91.8371 232.448L91.9491 234H93.2131V228.224C93.2131 226.496 92.1411 225.568 89.9891 225.568C87.9811 225.568 86.7491 226.456 86.6611 228.064H87.9651C88.1651 227.08 88.9651 226.664 89.9171 226.656C91.1891 226.656 91.7811 227.296 91.7811 228.304V228.952L90.3091 228.992C87.4771 229.056 86.2691 229.928 86.2691 231.76C86.2691 233.272 87.3891 234.16 88.9971 234.16ZM89.4371 233.096C88.4211 233.096 87.7011 232.552 87.7011 231.616C87.7011 230.392 88.6531 229.92 90.5571 229.888L91.7811 229.864V231.28C91.7811 232.2 90.5491 233.096 89.4371 233.096ZM97.6089 234.104C97.8169 234.104 98.1049 234.056 98.3529 233.976V233.016L97.9049 233.008C97.3209 232.968 96.9769 232.568 96.9769 231.728V222.112H95.5209V231.872C95.5209 233.032 95.8249 234.104 97.6089 234.104ZM105.767 222.44H104.255V223.976H105.767V222.44ZM105.727 225.728H104.295V234H105.727V225.728ZM108.318 234H109.79V228.472C109.79 227.36 110.814 226.832 111.934 226.832C113.014 226.832 113.758 227.448 113.758 228.736V234H115.238V228.592C115.238 226.512 113.91 225.608 112.342 225.608C111.014 225.608 110.158 226.24 109.75 226.928V225.728H108.318V234ZM120.568 234.16C122.504 234.16 123.152 232.952 123.36 232.304L123.52 234H124.656V222.112H123.16V227.04C122.896 226.504 122.032 225.568 120.448 225.568C118.208 225.568 117.072 227.256 117.072 229.832C117.072 232.664 118.416 234.16 120.568 234.16ZM120.832 233.024C119.344 233.024 118.56 231.832 118.56 229.76C118.56 227.64 119.496 226.72 120.856 226.72C122.504 226.72 123.144 227.824 123.16 229.76C123.16 232.072 122.504 233.024 120.832 233.024ZM128.72 222.44H127.208V223.976H128.72V222.44ZM128.68 225.728H127.248V234H128.68V225.728ZM134.49 225.568C132.049 225.568 130.682 227.32 130.682 229.896C130.682 232.672 132.25 234.16 134.49 234.16C136.242 234.16 137.586 233.112 137.802 231.448H136.514C136.37 232.28 135.65 233.032 134.514 233.032C132.93 233.032 132.098 231.792 132.098 229.88C132.098 227.768 133.082 226.76 134.498 226.76C135.634 226.76 136.354 227.472 136.498 228.344H137.81C137.586 226.656 136.266 225.568 134.49 225.568ZM142.075 234.16C143.259 234.16 144.275 233.736 144.915 232.448L145.027 234H146.291V228.224C146.291 226.496 145.219 225.568 143.067 225.568C141.059 225.568 139.827 226.456 139.739 228.064H141.043C141.243 227.08 142.043 226.664 142.995 226.656C144.267 226.656 144.859 227.296 144.859 228.304V228.952L143.387 228.992C140.555 229.056 139.347 229.928 139.347 231.76C139.347 233.272 140.467 234.16 142.075 234.16ZM142.515 233.096C141.499 233.096 140.779 232.552 140.779 231.616C140.779 230.392 141.731 229.92 143.635 229.888L144.859 229.864V231.28C144.859 232.2 143.627 233.096 142.515 233.096ZM152.463 226.808V225.72H150.599V223.32H149.511L149.151 225.728H147.767V226.808H149.111V232C149.111 233.328 149.567 234.04 151.287 234.04C151.887 234.04 152.303 233.984 152.511 233.904V232.912H151.607C150.831 232.912 150.599 232.832 150.599 231.952V226.808H152.463ZM157.567 234.16C160.031 234.16 161.335 232.424 161.335 229.896C161.335 227.112 159.855 225.568 157.575 225.568C155.127 225.568 153.775 227.304 153.775 229.896C153.775 232.656 155.271 234.16 157.567 234.16ZM157.575 232.992C155.919 232.992 155.247 231.608 155.247 229.864C155.247 227.896 156.071 226.728 157.575 226.728C159.199 226.728 159.871 228.096 159.871 229.864C159.871 231.808 159.055 232.992 157.575 232.992ZM163.302 234H164.774V228.856C164.774 227.48 165.846 226.92 167.166 227.008C167.334 227.008 167.63 227.032 167.79 227.104V225.672C167.654 225.6 167.398 225.568 167.158 225.568C166.11 225.568 165.126 226.128 164.71 227.32V225.728H163.302V234ZM168.052 234H169.812V232.112H168.052V234Z" fill="black"/>
<path d="M39.72 80.58V93H45.56V64.08H39.72V75.68H27.06V64.08H21.24V93H27.06V80.58H39.72ZM55.6613 93H61.5813V64.08H57.7013C57.4413 66.56 55.4613 68.04 50.5013 68.04V71.34H55.6613V93Z" fill="white"/>
<path d="M120.376 83.064V93H125.048V69.864H120.376V79.144H110.248V69.864H105.592V93H110.248V83.064H120.376ZM129.433 93H146.425V89.064H134.633V88.856C134.633 83.944 146.457 84.728 146.457 76.536C146.457 72.36 143.241 69.544 138.057 69.544C132.025 69.544 129.033 73.048 129.001 77.464H133.465C133.833 74.76 135.593 73.416 137.929 73.416C140.153 73.416 141.545 74.728 141.545 76.568C141.545 81.608 129.433 81.304 129.433 89.512V93Z" fill="white"/>
<path d="M200.204 84.306V93H204.292V72.756H200.204V80.876H191.342V72.756H187.268V93H191.342V84.306H200.204ZM207.905 78.986H211.811C211.965 76.522 213.589 75.64 215.521 75.64C217.621 75.64 219.119 76.62 219.119 78.09C219.119 79.644 217.677 80.75 215.493 80.848L213.757 80.946V84.194L215.689 84.264C217.957 84.32 219.581 85.398 219.581 87.134C219.581 88.814 218.055 90.004 215.549 90.004C213.617 90.004 212.105 89.052 211.713 86.742H207.779C207.835 90.816 210.635 93.294 215.507 93.308C220.141 93.322 223.935 91.236 223.935 87.26C223.935 84.53 222.017 82.976 219.763 82.36C222.367 81.478 223.459 79.91 223.459 77.908C223.459 74.198 220.127 72.476 215.605 72.476C211.293 72.476 207.905 74.632 207.905 78.986Z" fill="white"/>
</g>
<defs>
<filter id="filter0_d" x="0" y="0" width="244" height="262" filterUnits="userSpaceOnUse" color-interpolation-filters="sRGB">
<feFlood flood-opacity="0" result="BackgroundImageFix"/>
<feColorMatrix in="SourceAlpha" type="matrix" values="0 0 0 0 0 0 0 0 0 0 0 0 0 0 0 0 0 0 127 0"/>
<feOffset dy="4"/>
<feGaussianBlur stdDeviation="1"/>
<feColorMatrix type="matrix" values="0 0 0 0 0 0 0 0 0 0 0 0 0 0 0 0 0 0 0.1 0"/>
<feBlend mode="normal" in2="BackgroundImageFix" result="effect1_dropShadow"/>
<feBlend mode="normal" in="SourceGraphic" in2="effect1_dropShadow" result="shape"/>
</filter>
</defs>
</svg>
