<svg width="244" height="262" viewBox="0 0 244 262" fill="none" xmlns="http://www.w3.org/2000/svg">
<g filter="url(#filter0_d)">
<rect x="2" width="240" height="256" rx="8" fill="white"/>
<path d="M2 8C2 3.58172 5.58172 0 10 0H234C238.418 0 242 3.58172 242 8V156H2V8Z" fill="#6C757D"/>
<path d="M19.296 186H21.648V181.872H23.856C26.344 181.872 27.976 180.528 27.976 178.224C27.976 175.776 26.072 174.432 23.552 174.432H19.296V186ZM21.624 180.064V176.224H23.76C24.888 176.224 25.792 176.952 25.792 178.104C25.792 179.216 24.96 180.064 23.792 180.064H21.624ZM31.6748 186.16C32.8348 186.16 33.6748 185.776 34.2428 184.576L34.4348 186H36.3868V180.184C36.3868 178.56 35.4188 177.568 32.8908 177.568C30.8188 177.568 29.3228 178.4 29.2348 180.192H31.1788C31.4108 179.432 32.0988 179.152 32.7788 179.144C33.7148 179.136 34.1468 179.56 34.1468 180.32V180.816L33.1068 180.832C30.1868 180.864 28.8828 181.824 28.8828 183.632C28.8828 185.248 30.0988 186.16 31.6748 186.16ZM32.4668 184.624C31.6988 184.624 31.0988 184.168 31.0988 183.4C31.0988 182.392 32.1388 182.048 33.3068 182.032L34.1468 182.016V183.24C34.1388 183.952 33.3068 184.624 32.4668 184.624ZM38.2812 186H40.6173V181.472C40.6173 180.36 41.3212 179.624 43.1613 179.784C43.2733 179.792 43.4173 179.8 43.5133 179.84V177.616C43.4493 177.584 43.3053 177.568 43.1533 177.568C41.8493 177.568 40.9213 178.424 40.5293 179.688V177.728H38.2812V186ZM47.1591 186.16C48.3191 186.16 49.1591 185.776 49.7271 184.576L49.9191 186H51.8711V180.184C51.8711 178.56 50.9031 177.568 48.3751 177.568C46.3031 177.568 44.8071 178.4 44.7191 180.192H46.6631C46.8951 179.432 47.5831 179.152 48.2631 179.144C49.1991 179.136 49.6311 179.56 49.6311 180.32V180.816L48.5911 180.832C45.6711 180.864 44.3671 181.824 44.3671 183.632C44.3671 185.248 45.5831 186.16 47.1591 186.16ZM47.9511 184.624C47.1831 184.624 46.5831 184.168 46.5831 183.4C46.5831 182.392 47.6231 182.048 48.7911 182.032L49.6311 182.016V183.24C49.6231 183.952 48.7911 184.624 47.9511 184.624ZM57.6056 188.736C60.5496 188.736 62.0136 187.616 62.0136 186.064C62.0136 184.76 61.0216 183.832 58.9976 183.696C58.2696 183.648 57.6296 183.616 57.2776 183.592C56.3016 183.536 55.8296 183.496 55.8296 183.232C55.8296 183.064 56.0296 182.92 56.6536 182.888C56.8616 182.912 57.2776 182.92 57.4696 182.92C59.9416 182.92 61.2136 181.624 61.2136 180.184C61.2136 179.968 61.1496 179.608 61.0376 179.312L62.4616 179.08L62.4776 177.272C61.7816 177.56 60.5416 178.056 60.0456 178.248C59.4296 177.864 58.7736 177.6 57.6376 177.6C55.3896 177.6 53.7176 178.56 53.7176 180.192C53.7176 181.112 54.2936 182.072 55.3896 182.576C54.2456 182.776 53.6936 183.328 53.6936 183.912C53.6936 184.696 54.4536 184.992 54.7096 185.144C54.5496 185.232 53.1016 185.576 53.1016 186.704C53.1016 187.92 54.6616 188.736 57.6056 188.736ZM57.5416 181.616C56.6216 181.616 56.0616 181.088 56.0616 180.264C56.0616 179.408 56.6536 178.832 57.5416 178.832C58.4216 178.832 59.0056 179.4 59.0056 180.264C59.0056 181.104 58.4216 181.616 57.5416 181.616ZM57.9816 187.432C56.2056 187.432 55.3896 187.128 55.3896 186.432C55.3896 185.92 55.8856 185.448 56.6376 185.488L58.5336 185.616C59.3496 185.672 59.7896 186.008 59.7896 186.504C59.7896 187.104 59.2776 187.432 57.9816 187.432ZM63.8281 186H66.1641V181.472C66.1641 180.36 66.8681 179.624 68.7081 179.784C68.8201 179.792 68.9641 179.8 69.0601 179.84V177.616C68.9961 177.584 68.8521 177.568 68.7001 177.568C67.3961 177.568 66.4681 178.424 66.0761 179.688V177.728H63.8281V186ZM72.706 186.16C73.866 186.16 74.706 185.776 75.274 184.576L75.466 186H77.418V180.184C77.418 178.56 76.45 177.568 73.922 177.568C71.85 177.568 70.354 178.4 70.266 180.192H72.21C72.442 179.432 73.13 179.152 73.81 179.144C74.746 179.136 75.178 179.56 75.178 180.32V180.816L74.138 180.832C71.218 180.864 69.914 181.824 69.914 183.632C69.914 185.248 71.13 186.16 72.706 186.16ZM73.498 184.624C72.73 184.624 72.13 184.168 72.13 183.4C72.13 182.392 73.17 182.048 74.338 182.032L75.178 182.016V183.24C75.17 183.952 74.338 184.624 73.498 184.624ZM79.3125 188.576H81.6485V184.76C82.1045 185.536 82.9365 186.16 84.0005 186.16C85.9605 186.16 87.4165 184.8 87.4165 181.8C87.4165 178.904 86.0805 177.568 84.2325 177.568C83.1045 177.568 82.1685 178.152 81.6645 178.92L81.6565 177.728H79.3125V188.576ZM83.4405 184.448C82.2245 184.448 81.6485 183.2 81.6485 181.816C81.6485 180.368 82.2245 179.264 83.4405 179.264C84.5125 179.264 85.2325 180.224 85.2325 181.816C85.2325 183.648 84.4485 184.448 83.4405 184.448ZM89.0312 186H91.3673V180.72C91.3673 179.904 92.1193 179.488 92.8873 179.488C93.6473 179.488 94.2713 179.896 94.2713 180.648V186H96.6153V180.304C96.6153 178.632 95.3033 177.68 93.7273 177.68C92.4153 177.68 91.7513 178.352 91.3513 178.92V174.112H89.0312V186ZM101.766 186.16C103.83 186.16 105.254 185.224 105.254 183.568C105.254 182.816 104.862 181.608 103.022 181.152L101.678 180.848C100.774 180.672 100.366 180.44 100.366 180.008C100.366 179.424 100.95 179.136 101.75 179.136C102.534 179.136 103.086 179.496 103.206 180.136H105.158C105.134 178.512 103.814 177.568 101.782 177.568C99.5175 177.568 98.3015 178.696 98.3095 180.184C98.3175 181.552 99.2855 182.248 100.75 182.552L102.206 182.856C102.958 183 103.254 183.248 103.254 183.696C103.254 184.288 102.646 184.56 101.758 184.56C101.11 184.56 100.286 184.272 100.07 183.392H98.0535C98.3495 185.352 100.038 186.16 101.766 186.16Z" fill="black"/>
<path d="M19.528 198.432V210H22.064C26.264 210 28.232 207.984 28.232 204.144C28.232 200.488 26.464 198.504 22.216 198.448C21.24 198.44 19.664 198.432 19.528 198.432ZM21.048 199.704H22.128C24.992 199.704 26.672 200.824 26.672 204.168C26.672 207.512 24.928 208.728 22.064 208.728H21.048V199.704ZM33.6298 210.16C36.0938 210.16 37.3978 208.424 37.3978 205.896C37.3978 203.112 35.9178 201.568 33.6378 201.568C31.1898 201.568 29.8378 203.304 29.8378 205.896C29.8378 208.656 31.3338 210.16 33.6298 210.16ZM33.6378 208.992C31.9818 208.992 31.3098 207.608 31.3098 205.864C31.3098 203.896 32.1338 202.728 33.6378 202.728C35.2618 202.728 35.9338 204.096 35.9338 205.864C35.9338 207.808 35.1178 208.992 33.6378 208.992ZM43.1459 210H44.6179V204.472C44.6179 203.312 45.6339 202.824 46.4819 202.824C47.2499 202.824 48.1619 203.32 48.1619 204.304V210H49.6339V204.472C49.6339 203.216 50.7139 202.824 51.4899 202.824C52.3619 202.824 53.1859 203.24 53.1859 204.736V210H54.6739V204.592C54.6739 202.144 53.1459 201.568 51.9779 201.568C50.8819 201.568 49.9699 202.112 49.4579 202.92C49.0259 202.04 47.9779 201.568 47.0739 201.568C45.7859 201.568 45.0259 202.2 44.5699 202.928V201.728H43.1459V210ZM60.3016 210.16C62.7656 210.16 64.0696 208.424 64.0696 205.896C64.0696 203.112 62.5896 201.568 60.3096 201.568C57.8616 201.568 56.5096 203.304 56.5096 205.896C56.5096 208.656 58.0056 210.16 60.3016 210.16ZM60.3096 208.992C58.6536 208.992 57.9816 207.608 57.9816 205.864C57.9816 203.896 58.8056 202.728 60.3096 202.728C61.9336 202.728 62.6056 204.096 62.6056 205.864C62.6056 207.808 61.7896 208.992 60.3096 208.992ZM68.95 210.16C70.966 210.16 72.134 209.224 72.134 207.704C72.134 206.888 71.718 205.88 70.198 205.48L68.534 205.064C67.622 204.84 67.142 204.544 67.142 203.952C67.142 203.072 67.87 202.656 68.926 202.656C69.95 202.656 70.558 203.152 70.67 203.944H71.982C71.926 202.392 70.734 201.568 68.942 201.568C66.846 201.568 65.782 202.592 65.79 204.04C65.798 205.272 66.654 205.904 67.99 206.224L69.702 206.648C70.454 206.824 70.806 207.176 70.806 207.784C70.806 208.648 70.062 209.056 68.942 209.056C67.894 209.056 67.062 208.56 66.854 207.592H65.51C65.75 209.376 67.222 210.16 68.95 210.16ZM78.1039 202.808V201.72H76.2399V199.32H75.1519L74.7919 201.728H73.4079V202.808H74.7519V208C74.7519 209.328 75.2079 210.04 76.9279 210.04C77.5279 210.04 77.9439 209.984 78.1519 209.904V208.912H77.2479C76.4719 208.912 76.2399 208.832 76.2399 207.952V202.808H78.1039ZM87.1141 210.16C89.5781 210.16 90.8821 208.424 90.8821 205.896C90.8821 203.112 89.4021 201.568 87.1221 201.568C84.6741 201.568 83.3221 203.304 83.3221 205.896C83.3221 208.656 84.8181 210.16 87.1141 210.16ZM87.1221 208.992C85.4661 208.992 84.7941 207.608 84.7941 205.864C84.7941 203.896 85.6181 202.728 87.1221 202.728C88.7461 202.728 89.4181 204.096 89.4181 205.864C89.4181 207.808 88.6021 208.992 87.1221 208.992ZM97.1285 201.728H95.0965V200.576C95.0965 199.84 95.2965 199.48 95.9765 199.48H97.2085L97.2005 198.432H95.6405C94.3045 198.432 93.6405 199.136 93.6405 200.448V201.728H91.8885V202.808H93.6405V210H95.1205V202.808H97.1285V201.728ZM106.963 202.808V201.72H105.099V199.32H104.011L103.651 201.728H102.267V202.808H103.611V208C103.611 209.328 104.067 210.04 105.787 210.04C106.387 210.04 106.803 209.984 107.011 209.904V208.912H106.107C105.331 208.912 105.099 208.832 105.099 207.952V202.808H106.963ZM108.974 210H110.446V204.48C110.446 203.368 111.454 202.832 112.574 202.832C113.662 202.832 114.406 203.4 114.406 204.384V210H115.886V204.088C115.886 202.576 114.614 201.624 112.998 201.624C111.67 201.624 110.83 202.264 110.414 202.944V198.112H108.974V210ZM119.281 206.208H125.209V205.664C125.209 203.152 123.913 201.568 121.585 201.568C119.177 201.568 117.785 203.336 117.785 205.944C117.785 208.584 119.377 210.16 121.689 210.16C123.297 210.16 124.849 209.272 125.153 207.584H123.761C123.553 208.52 122.721 209.016 121.665 209.016C120.057 209.016 119.281 207.776 119.281 206.208ZM119.289 205.208C119.281 203.976 120.017 202.688 121.577 202.688C123.073 202.688 123.785 203.784 123.785 205.208H119.289ZM141.815 201.728H140.431L138.615 208.072H138.487L136.551 201.728H135.431L133.567 208.088H133.439L131.551 201.728H130.175L132.735 210H134.175L135.975 203.896L137.855 210H139.311L141.815 201.728ZM146.661 210.16C149.125 210.16 150.429 208.424 150.429 205.896C150.429 203.112 148.949 201.568 146.669 201.568C144.221 201.568 142.869 203.304 142.869 205.896C142.869 208.656 144.365 210.16 146.661 210.16ZM146.669 208.992C145.013 208.992 144.341 207.608 144.341 205.864C144.341 203.896 145.165 202.728 146.669 202.728C148.293 202.728 148.965 204.096 148.965 205.864C148.965 207.808 148.149 208.992 146.669 208.992ZM152.396 210H153.868V204.856C153.868 203.48 154.94 202.92 156.26 203.008C156.428 203.008 156.724 203.032 156.884 203.104V201.672C156.748 201.6 156.492 201.568 156.252 201.568C155.204 201.568 154.22 202.128 153.804 203.32V201.728H152.396V210ZM165.91 210L162.718 204.88L165.702 201.728H164.006L160.118 205.864V198.112H158.646V210H160.118V207.536L161.75 205.848L164.342 210H165.91ZM176.113 201.728H174.081V200.576C174.081 199.84 174.281 199.48 174.961 199.48H176.193L176.185 198.432H174.625C173.289 198.432 172.625 199.136 172.625 200.448V201.728H170.873V202.808H172.625V210H174.105V202.808H176.113V201.728ZM181.052 210.16C183.516 210.16 184.82 208.424 184.82 205.896C184.82 203.112 183.34 201.568 181.06 201.568C178.612 201.568 177.26 203.304 177.26 205.896C177.26 208.656 178.756 210.16 181.052 210.16ZM181.06 208.992C179.404 208.992 178.732 207.608 178.732 205.864C178.732 203.896 179.556 202.728 181.06 202.728C182.684 202.728 183.356 204.096 183.356 205.864C183.356 207.808 182.54 208.992 181.06 208.992ZM186.787 210H188.259V204.856C188.259 203.48 189.331 202.92 190.651 203.008C190.819 203.008 191.115 203.032 191.275 203.104V201.672C191.139 201.6 190.883 201.568 190.643 201.568C189.595 201.568 188.611 202.128 188.195 203.32V201.728H186.787V210ZM22.24 234.16C24.176 234.16 24.824 232.952 25.032 232.304L25.192 234H26.328V222.112H24.832V227.04C24.568 226.504 23.704 225.568 22.12 225.568C19.88 225.568 18.744 227.256 18.744 229.832C18.744 232.664 20.088 234.16 22.24 234.16ZM22.504 233.024C21.016 233.024 20.232 231.832 20.232 229.76C20.232 227.64 21.168 226.72 22.528 226.72C24.176 226.72 24.816 227.824 24.832 229.76C24.832 232.072 24.176 233.024 22.504 233.024ZM32.0829 234.16C34.5469 234.16 35.8509 232.424 35.8509 229.896C35.8509 227.112 34.3709 225.568 32.0909 225.568C29.6429 225.568 28.2909 227.304 28.2909 229.896C28.2909 232.656 29.7869 234.16 32.0829 234.16ZM32.0909 232.992C30.4349 232.992 29.7629 231.608 29.7629 229.864C29.7629 227.896 30.5869 226.728 32.0909 226.728C33.7149 226.728 34.3869 228.096 34.3869 229.864C34.3869 231.808 33.5709 232.992 32.0909 232.992ZM41.1458 225.568C38.7057 225.568 37.3378 227.32 37.3378 229.896C37.3378 232.672 38.9058 234.16 41.1458 234.16C42.8978 234.16 44.2418 233.112 44.4578 231.448H43.1698C43.0258 232.28 42.3058 233.032 41.1698 233.032C39.5858 233.032 38.7538 231.792 38.7538 229.88C38.7538 227.768 39.7378 226.76 41.1538 226.76C42.2898 226.76 43.0098 227.472 43.1538 228.344H44.4658C44.2418 226.656 42.9218 225.568 41.1458 225.568ZM49.5296 234.16C50.6976 234.168 51.7056 233.656 52.0096 232.416L52.1616 234H53.3376V225.728H51.8656V231.112C51.8656 232.368 51.0576 233.008 49.8416 233.008C48.4896 233.008 47.8336 232.272 47.8336 231.192V225.728H46.3536V231.344C46.3536 233.208 47.8096 234.144 49.5296 234.16ZM55.8803 234H57.3523V228.472C57.3523 227.312 58.3683 226.824 59.2163 226.824C59.9843 226.824 60.8963 227.32 60.8963 228.304V234H62.3683V228.472C62.3683 227.216 63.4483 226.824 64.2243 226.824C65.0963 226.824 65.9203 227.24 65.9203 228.736V234H67.4083V228.592C67.4083 226.144 65.8803 225.568 64.7123 225.568C63.6163 225.568 62.7043 226.112 62.1923 226.92C61.7603 226.04 60.7123 225.568 59.8083 225.568C58.5203 225.568 57.7603 226.2 57.3043 226.928V225.728H55.8803V234ZM70.812 230.208H76.74V229.664C76.74 227.152 75.444 225.568 73.116 225.568C70.708 225.568 69.316 227.336 69.316 229.944C69.316 232.584 70.908 234.16 73.22 234.16C74.828 234.16 76.38 233.272 76.684 231.584H75.292C75.084 232.52 74.252 233.016 73.196 233.016C71.588 233.016 70.812 231.776 70.812 230.208ZM70.82 229.208C70.812 227.976 71.548 226.688 73.108 226.688C74.604 226.688 75.316 227.784 75.316 229.208H70.82ZM78.7865 234H80.2585V228.472C80.2585 227.36 81.2825 226.832 82.4025 226.832C83.4825 226.832 84.2265 227.448 84.2265 228.736V234H85.7065V228.592C85.7065 226.512 84.3785 225.608 82.8105 225.608C81.4825 225.608 80.6265 226.24 80.2185 226.928V225.728H78.7865V234ZM91.8851 226.808V225.72H90.0211V223.32H88.9331L88.5731 225.728H87.1891V226.808H88.5331V232C88.5331 233.328 88.9891 234.04 90.7091 234.04C91.3091 234.04 91.7251 233.984 91.9331 233.904V232.912H91.0291C90.2531 232.912 90.0211 232.832 90.0211 231.952V226.808H91.8851ZM96.1534 234.16C97.3374 234.16 98.3534 233.736 98.9934 232.448L99.1054 234H100.369V228.224C100.369 226.496 99.2974 225.568 97.1454 225.568C95.1374 225.568 93.9054 226.456 93.8174 228.064H95.1214C95.3214 227.08 96.1214 226.664 97.0734 226.656C98.3454 226.656 98.9374 227.296 98.9374 228.304V228.952L97.4654 228.992C94.6334 229.056 93.4254 229.928 93.4254 231.76C93.4254 233.272 94.5454 234.16 96.1534 234.16ZM96.5934 233.096C95.5774 233.096 94.8574 232.552 94.8574 231.616C94.8574 230.392 95.8094 229.92 97.7134 229.888L98.9374 229.864V231.28C98.9374 232.2 97.7054 233.096 96.5934 233.096ZM106.541 226.808V225.72H104.677V223.32H103.589L103.229 225.728H101.845V226.808H103.189V232C103.189 233.328 103.645 234.04 105.365 234.04C105.965 234.04 106.381 233.984 106.589 233.904V232.912H105.685C104.909 232.912 104.677 232.832 104.677 231.952V226.808H106.541ZM110.064 222.44H108.552V223.976H110.064V222.44ZM110.024 225.728H108.592V234H110.024V225.728ZM115.817 234.16C118.281 234.16 119.585 232.424 119.585 229.896C119.585 227.112 118.105 225.568 115.825 225.568C113.377 225.568 112.025 227.304 112.025 229.896C112.025 232.656 113.521 234.16 115.817 234.16ZM115.825 232.992C114.169 232.992 113.497 231.608 113.497 229.864C113.497 227.896 114.321 226.728 115.825 226.728C117.449 226.728 118.121 228.096 118.121 229.864C118.121 231.808 117.305 232.992 115.825 232.992ZM121.552 234H123.024V228.472C123.024 227.36 124.048 226.832 125.168 226.832C126.248 226.832 126.992 227.448 126.992 228.736V234H128.472V228.592C128.472 226.512 127.144 225.608 125.576 225.608C124.248 225.608 123.392 226.24 122.984 226.928V225.728H121.552V234ZM130.443 234H132.203V232.112H130.443V234Z" fill="black"/>
<path d="M26.368 61.792H30.104V72H31.592V61.792H35.12V60.432H26.368V61.792ZM36.724 72H38.196V66.48C38.196 65.368 39.204 64.832 40.324 64.832C41.412 64.832 42.156 65.4 42.156 66.384V72H43.636V66.088C43.636 64.576 42.364 63.624 40.748 63.624C39.42 63.624 38.58 64.264 38.164 64.944V60.112H36.724V72ZM47.0308 68.208H52.9588V67.664C52.9588 65.152 51.6628 63.568 49.3348 63.568C46.9268 63.568 45.5348 65.336 45.5348 67.944C45.5348 70.584 47.1268 72.16 49.4388 72.16C51.0468 72.16 52.5988 71.272 52.9028 69.584H51.5108C51.3028 70.52 50.4708 71.016 49.4148 71.016C47.8068 71.016 47.0308 69.776 47.0308 68.208ZM47.0388 67.208C47.0308 65.976 47.7668 64.688 49.3268 64.688C50.8228 64.688 51.5348 65.784 51.5348 67.208H47.0388ZM65.6714 74.576V63.728H64.1914L64.1754 65.168C63.7994 64.488 62.9754 63.568 61.4554 63.568C59.2954 63.568 58.1034 65.12 58.1034 67.752C58.1034 70.824 59.5834 72.16 61.5754 72.16C63.0554 72.16 63.8314 71.208 64.1754 70.504V74.576H65.6714ZM61.8554 71.008C60.3434 71.008 59.5354 69.8 59.5354 67.8C59.5354 65.728 60.4954 64.72 61.8554 64.72C63.3914 64.72 64.1914 65.976 64.1914 67.8C64.1914 69.584 63.3914 71.008 61.8554 71.008ZM71.1546 72.16C72.3226 72.168 73.3306 71.656 73.6346 70.416L73.7866 72H74.9626V63.728H73.4906V69.112C73.4906 70.368 72.6826 71.008 71.4666 71.008C70.1146 71.008 69.4586 70.272 69.4586 69.192V63.728H67.9786V69.344C67.9786 71.208 69.4346 72.144 71.1546 72.16ZM79.0173 60.44H77.5053V61.976H79.0173V60.44ZM78.9773 63.728H77.5453V72H78.9773V63.728ZM84.7864 63.568C82.3464 63.568 80.9784 65.32 80.9784 67.896C80.9784 70.672 82.5464 72.16 84.7864 72.16C86.5384 72.16 87.8824 71.112 88.0984 69.448H86.8104C86.6664 70.28 85.9464 71.032 84.8104 71.032C83.2264 71.032 82.3944 69.792 82.3944 67.88C82.3944 65.768 83.3784 64.76 84.7944 64.76C85.9304 64.76 86.6504 65.472 86.7944 66.344H88.1064C87.8824 64.656 86.5624 63.568 84.7864 63.568ZM97.3161 72L94.1241 66.88L97.1081 63.728H95.4121L91.5241 67.864V60.112H90.0521V72H91.5241V69.536L93.1561 67.848L95.7481 72H97.3161ZM107.015 72.16C109.343 72.16 110.511 70.44 110.511 67.832C110.511 65.024 109.191 63.568 107.127 63.568C105.551 63.568 104.687 64.504 104.415 65.04V60.112H102.927V72H104.055L104.215 70.304C104.423 70.952 105.079 72.16 107.015 72.16ZM106.751 71.024C105.079 71.024 104.415 70.072 104.415 67.76C104.439 65.824 105.079 64.72 106.719 64.72C108.223 64.72 109.023 65.832 109.023 67.76C109.023 70.032 108.087 71.024 106.751 71.024ZM112.474 72H113.946V66.856C113.946 65.48 115.018 64.92 116.338 65.008C116.506 65.008 116.802 65.032 116.962 65.104V63.672C116.826 63.6 116.57 63.568 116.33 63.568C115.282 63.568 114.298 64.128 113.882 65.32V63.728H112.474V72ZM121.911 72.16C124.375 72.16 125.679 70.424 125.679 67.896C125.679 65.112 124.199 63.568 121.919 63.568C119.471 63.568 118.119 65.304 118.119 67.896C118.119 70.656 119.615 72.16 121.911 72.16ZM121.919 70.992C120.263 70.992 119.591 69.608 119.591 67.864C119.591 65.896 120.415 64.728 121.919 64.728C123.543 64.728 124.215 66.096 124.215 67.864C124.215 69.808 123.399 70.992 121.919 70.992ZM138.425 63.728H137.041L135.225 70.072H135.097L133.161 63.728H132.041L130.177 70.088H130.049L128.161 63.728H126.785L129.345 72H130.785L132.585 65.896L134.465 72H135.921L138.425 63.728ZM140.115 72H141.587V66.472C141.587 65.36 142.611 64.832 143.731 64.832C144.811 64.832 145.555 65.448 145.555 66.736V72H147.035V66.592C147.035 64.512 145.707 63.608 144.139 63.608C142.811 63.608 141.955 64.24 141.547 64.928V63.728H140.115V72ZM157.832 63.728H155.8V62.576C155.8 61.84 156 61.48 156.68 61.48H157.912L157.904 60.432H156.344C155.008 60.432 154.344 61.136 154.344 62.448V63.728H152.592V64.808H154.344V72H155.824V64.808H157.832V63.728ZM162.77 72.16C165.234 72.16 166.538 70.424 166.538 67.896C166.538 65.112 165.058 63.568 162.778 63.568C160.33 63.568 158.978 65.304 158.978 67.896C158.978 70.656 160.474 72.16 162.77 72.16ZM162.778 70.992C161.122 70.992 160.45 69.608 160.45 67.864C160.45 65.896 161.274 64.728 162.778 64.728C164.402 64.728 165.074 66.096 165.074 67.864C165.074 69.808 164.258 70.992 162.778 70.992ZM175.247 72L172.063 67.704L175.007 63.728H173.391L171.239 66.632L169.087 63.728H167.479L170.407 67.704L167.223 72H168.839L171.231 68.76L173.639 72H175.247ZM28.976 84.44H27.408V85.976H28.976V84.44ZM28.936 96.368V87.728H27.456V96.32C27.456 97.088 27.192 97.384 26.448 97.44L25.632 97.48V98.464C25.632 98.464 25.768 98.656 26.672 98.656C28.36 98.656 28.936 97.912 28.936 96.368ZM34.4671 96.16C35.6351 96.168 36.6431 95.656 36.9471 94.416L37.0991 96H38.2751V87.728H36.8031V93.112C36.8031 94.368 35.9951 95.008 34.7791 95.008C33.4271 95.008 32.7711 94.272 32.7711 93.192V87.728H31.2911V93.344C31.2911 95.208 32.7471 96.144 34.4671 96.16ZM40.8178 96H42.2898V90.472C42.2898 89.312 43.3058 88.824 44.1538 88.824C44.9218 88.824 45.8338 89.32 45.8338 90.304V96H47.3058V90.472C47.3058 89.216 48.3858 88.824 49.1618 88.824C50.0338 88.824 50.8578 89.24 50.8578 90.736V96H52.3458V90.592C52.3458 88.144 50.8178 87.568 49.6498 87.568C48.5538 87.568 47.6418 88.112 47.1298 88.92C46.6978 88.04 45.6498 87.568 44.7458 87.568C43.4578 87.568 42.6978 88.2 42.2418 88.928V87.728H40.8178V96ZM54.6615 98.576H56.1495V94.504C56.4935 95.208 57.2695 96.16 58.7495 96.16C60.9255 96.16 62.2215 94.592 62.2215 91.752C62.2215 88.904 60.8455 87.568 58.8695 87.568C57.3495 87.568 56.5255 88.488 56.1495 89.168L56.1335 87.728H54.6615V98.576ZM58.4695 95.008C56.9335 95.008 56.1335 93.584 56.1335 91.8C56.1335 89.976 56.9335 88.72 58.4695 88.72C59.9815 88.72 60.7895 89.92 60.7895 91.8C60.7895 94 59.8295 95.008 58.4695 95.008ZM65.2808 92.208H71.2088V91.664C71.2088 89.152 69.9128 87.568 67.5848 87.568C65.1768 87.568 63.7848 89.336 63.7848 91.944C63.7848 94.584 65.3768 96.16 67.6888 96.16C69.2968 96.16 70.8488 95.272 71.1528 93.584H69.7608C69.5528 94.52 68.7208 95.016 67.6648 95.016C66.0568 95.016 65.2808 93.776 65.2808 92.208ZM65.2888 91.208C65.2808 89.976 66.0168 88.688 67.5768 88.688C69.0728 88.688 69.7848 89.784 69.7848 91.208H65.2888ZM76.2713 96.16C78.2073 96.16 78.8553 94.952 79.0633 94.304L79.2233 96H80.3593V84.112H78.8633V89.04C78.5993 88.504 77.7353 87.568 76.1513 87.568C73.9113 87.568 72.7753 89.256 72.7753 91.832C72.7753 94.664 74.1193 96.16 76.2713 96.16ZM76.5353 95.024C75.0473 95.024 74.2633 93.832 74.2633 91.76C74.2633 89.64 75.1993 88.72 76.5593 88.72C78.2073 88.72 78.8473 89.824 78.8633 91.76C78.8633 94.072 78.2073 95.024 76.5353 95.024ZM89.8016 96.16C92.2656 96.16 93.5696 94.424 93.5696 91.896C93.5696 89.112 92.0896 87.568 89.8096 87.568C87.3616 87.568 86.0096 89.304 86.0096 91.896C86.0096 94.656 87.5056 96.16 89.8016 96.16ZM89.8096 94.992C88.1536 94.992 87.4816 93.608 87.4816 91.864C87.4816 89.896 88.3056 88.728 89.8096 88.728C91.4336 88.728 92.1056 90.096 92.1056 91.864C92.1056 93.808 91.2896 94.992 89.8096 94.992ZM101.852 87.728H100.468L98.2603 94.144H98.1243L95.9243 87.728H94.5323L97.5243 96H98.8763L101.852 87.728ZM104.39 92.208H110.318V91.664C110.318 89.152 109.022 87.568 106.694 87.568C104.286 87.568 102.894 89.336 102.894 91.944C102.894 94.584 104.486 96.16 106.798 96.16C108.406 96.16 109.958 95.272 110.262 93.584H108.87C108.662 94.52 107.83 95.016 106.774 95.016C105.166 95.016 104.39 93.776 104.39 92.208ZM104.398 91.208C104.39 89.976 105.126 88.688 106.686 88.688C108.182 88.688 108.894 89.784 108.894 91.208H104.398ZM112.365 96H113.837V90.856C113.837 89.48 114.909 88.92 116.229 89.008C116.397 89.008 116.693 89.032 116.853 89.104V87.672C116.717 87.6 116.461 87.568 116.221 87.568C115.173 87.568 114.189 88.128 113.773 89.32V87.728H112.365V96ZM126.713 88.808V87.72H124.849V85.32H123.761L123.401 87.728H122.017V88.808H123.361V94C123.361 95.328 123.817 96.04 125.537 96.04C126.137 96.04 126.553 95.984 126.761 95.904V94.912H125.857C125.081 94.912 124.849 94.832 124.849 93.952V88.808H126.713ZM128.724 96H130.196V90.48C130.196 89.368 131.204 88.832 132.324 88.832C133.412 88.832 134.156 89.4 134.156 90.384V96H135.636V90.088C135.636 88.576 134.364 87.624 132.748 87.624C131.42 87.624 130.58 88.264 130.164 88.944V84.112H128.724V96ZM139.031 92.208H144.959V91.664C144.959 89.152 143.663 87.568 141.335 87.568C138.927 87.568 137.535 89.336 137.535 91.944C137.535 94.584 139.127 96.16 141.439 96.16C143.047 96.16 144.599 95.272 144.903 93.584H143.511C143.303 94.52 142.471 95.016 141.415 95.016C139.807 95.016 139.031 93.776 139.031 92.208ZM139.039 91.208C139.031 89.976 139.767 88.688 141.327 88.688C142.823 88.688 143.535 89.784 143.535 91.208H139.039ZM152.875 96.104C153.083 96.104 153.371 96.056 153.619 95.976V95.016L153.171 95.008C152.587 94.968 152.243 94.568 152.243 93.728V84.112H150.787V93.872C150.787 95.032 151.091 96.104 152.875 96.104ZM157.872 96.16C159.056 96.16 160.072 95.736 160.712 94.448L160.824 96H162.088V90.224C162.088 88.496 161.016 87.568 158.864 87.568C156.856 87.568 155.624 88.456 155.536 90.064H156.84C157.04 89.08 157.84 88.664 158.792 88.656C160.064 88.656 160.656 89.296 160.656 90.304V90.952L159.184 90.992C156.352 91.056 155.144 91.928 155.144 93.76C155.144 95.272 156.264 96.16 157.872 96.16ZM158.312 95.096C157.296 95.096 156.576 94.552 156.576 93.616C156.576 92.392 157.528 91.92 159.432 91.888L160.656 91.864V93.28C160.656 94.2 159.424 95.096 158.312 95.096ZM163.749 96H170.221V94.912H165.517L170.181 88.648V87.728H163.949V88.816H168.421L163.749 95.08V96ZM172.751 98.64C173.895 98.64 174.759 98.2 175.407 96.624L178.887 87.728H177.439L175.015 94.112L172.575 87.728H171.079L174.311 95.8L174.023 96.584C173.855 96.992 173.559 97.536 172.327 97.488L171.479 97.472V98.432C171.479 98.432 171.783 98.64 172.751 98.64ZM187.131 96.16C189.067 96.16 189.715 94.952 189.923 94.304L190.083 96H191.219V84.112H189.723V89.04C189.459 88.504 188.595 87.568 187.011 87.568C184.771 87.568 183.635 89.256 183.635 91.832C183.635 94.664 184.979 96.16 187.131 96.16ZM187.395 95.024C185.907 95.024 185.123 93.832 185.123 91.76C185.123 89.64 186.059 88.72 187.419 88.72C189.067 88.72 189.707 89.824 189.723 91.76C189.723 94.072 189.067 95.024 187.395 95.024ZM196.974 96.16C199.438 96.16 200.742 94.424 200.742 91.896C200.742 89.112 199.262 87.568 196.982 87.568C194.534 87.568 193.182 89.304 193.182 91.896C193.182 94.656 194.678 96.16 196.974 96.16ZM196.982 94.992C195.326 94.992 194.654 93.608 194.654 91.864C194.654 89.896 195.478 88.728 196.982 88.728C198.606 88.728 199.278 90.096 199.278 91.864C199.278 93.808 198.462 94.992 196.982 94.992ZM206.142 98.736C208.886 98.736 210.214 97.688 210.214 96.184C210.214 94.864 209.238 94.048 207.51 93.944C206.75 93.896 206.126 93.864 205.71 93.84C204.558 93.76 204.134 93.672 204.134 93.368C204.134 93.104 204.478 92.848 205.614 92.816C205.75 92.824 205.982 92.832 206.11 92.832C208.422 92.832 209.558 91.68 209.558 90.216C209.558 89.864 209.454 89.432 209.286 89.088L210.734 88.816L210.742 87.448C210.294 87.632 208.982 88.176 208.63 88.32C207.998 87.864 207.326 87.6 206.254 87.6C204.006 87.6 202.654 88.608 202.654 90.216C202.654 91.168 203.222 92.024 204.198 92.512C203.222 92.728 202.734 93.2 202.734 93.72C202.734 94.36 203.302 94.592 203.59 94.76C203.382 94.912 202.022 95.368 202.022 96.56C202.022 97.96 203.55 98.736 206.142 98.736ZM206.158 91.88C204.87 91.88 204.134 91.28 204.134 90.232C204.134 89.12 204.942 88.512 206.158 88.512C207.342 88.512 208.142 89.12 208.142 90.232C208.142 91.32 207.342 91.88 206.158 91.88ZM206.406 97.784C204.414 97.784 203.494 97.272 203.494 96.392C203.494 95.624 204.318 95.04 204.942 95.072L207.262 95.224C208.27 95.288 208.774 95.744 208.774 96.4C208.774 97.328 207.934 97.784 206.406 97.784ZM212.255 96H214.015V94.112H212.255V96Z" fill="white"/>
</g>
<defs>
<filter id="filter0_d" x="0" y="0" width="244" height="262" filterUnits="userSpaceOnUse" color-interpolation-filters="sRGB">
<feFlood flood-opacity="0" result="BackgroundImageFix"/>
<feColorMatrix in="SourceAlpha" type="matrix" values="0 0 0 0 0 0 0 0 0 0 0 0 0 0 0 0 0 0 127 0"/>
<feOffset dy="4"/>
<feGaussianBlur stdDeviation="1"/>
<feColorMatrix type="matrix" values="0 0 0 0 0 0 0 0 0 0 0 0 0 0 0 0 0 0 0.1 0"/>
<feBlend mode="normal" in2="BackgroundImageFix" result="effect1_dropShadow"/>
<feBlend mode="normal" in="SourceGraphic" in2="effect1_dropShadow" result="shape"/>
</filter>
</defs>
</svg>
