<svg width="244" height="262" viewBox="0 0 244 262" fill="none" xmlns="http://www.w3.org/2000/svg">
<g filter="url(#filter0_d)">
<rect x="2" width="240" height="256" rx="8" fill="white"/>
<path d="M2 8C2 3.58172 5.58172 0 10 0H234C238.418 0 242 3.58172 242 8V156H2V8Z" fill="#6C757D"/>
<path d="M19.296 174.432V186H26.672V184.024H21.648V174.432H19.296ZM30.5064 174.44H28.2344V176.544H30.5064V174.44ZM30.4904 177.728H28.2584V186H30.4904V177.728ZM35.828 186.16C37.892 186.16 39.316 185.224 39.316 183.568C39.316 182.816 38.924 181.608 37.084 181.152L35.74 180.848C34.836 180.672 34.428 180.44 34.428 180.008C34.428 179.424 35.012 179.136 35.812 179.136C36.596 179.136 37.148 179.496 37.268 180.136H39.22C39.196 178.512 37.876 177.568 35.844 177.568C33.58 177.568 32.364 178.696 32.372 180.184C32.38 181.552 33.348 182.248 34.812 182.552L36.268 182.856C37.02 183 37.316 183.248 37.316 183.696C37.316 184.288 36.708 184.56 35.82 184.56C35.172 184.56 34.348 184.272 34.132 183.392H32.116C32.412 185.352 34.1 186.16 35.828 186.16ZM45.8826 179.352V177.72H44.0426V175.232H42.3786L41.7866 177.728H40.3706V179.352H41.7146V183.856C41.7146 185.184 42.2746 186.088 44.4586 186.088C45.2666 186.088 45.6826 185.984 45.9066 185.888V184.448H44.7946C44.2826 184.448 44.0586 184.368 44.0586 183.76L44.0426 179.352H45.8826ZM50.8124 186.16C52.8764 186.16 54.3004 185.224 54.3004 183.568C54.3004 182.816 53.9084 181.608 52.0684 181.152L50.7244 180.848C49.8204 180.672 49.4124 180.44 49.4124 180.008C49.4124 179.424 49.9964 179.136 50.7964 179.136C51.5804 179.136 52.1324 179.496 52.2524 180.136H54.2044C54.1804 178.512 52.8604 177.568 50.8284 177.568C48.5644 177.568 47.3484 178.696 47.3564 180.184C47.3644 181.552 48.3324 182.248 49.7964 182.552L51.2524 182.856C52.0044 183 52.3004 183.248 52.3004 183.696C52.3004 184.288 51.6924 184.56 50.8044 184.56C50.1564 184.56 49.3324 184.272 49.1164 183.392H47.1004C47.3964 185.352 49.0844 186.16 50.8124 186.16Z" fill="black"/>
<path d="M19.528 198.432V210H22.064C26.264 210 28.232 207.984 28.232 204.144C28.232 200.488 26.464 198.504 22.216 198.448C21.24 198.44 19.664 198.432 19.528 198.432ZM21.048 199.704H22.128C24.992 199.704 26.672 200.824 26.672 204.168C26.672 207.512 24.928 208.728 22.064 208.728H21.048V199.704ZM31.8298 198.44H30.3178V199.976H31.8298V198.44ZM31.7898 201.728H30.3578V210H31.7898V201.728ZM38.8629 201.728H36.8309V200.576C36.8309 199.84 37.0309 199.48 37.7109 199.48H38.9429L38.9349 198.432H37.3749C36.0389 198.432 35.3749 199.136 35.3749 200.448V201.728H33.6229V202.808H35.3749V210H36.8549V202.808H38.8629V201.728ZM44.8004 201.728H42.7684V200.576C42.7684 199.84 42.9684 199.48 43.6484 199.48H44.8804L44.8724 198.432H43.3124C41.9764 198.432 41.3124 199.136 41.3124 200.448V201.728H39.5604V202.808H41.3124V210H42.7924V202.808H44.8004V201.728ZM47.5151 206.208H53.4431V205.664C53.4431 203.152 52.1471 201.568 49.8191 201.568C47.4111 201.568 46.0191 203.336 46.0191 205.944C46.0191 208.584 47.6111 210.16 49.9231 210.16C51.5311 210.16 53.0831 209.272 53.3871 207.584H51.9951C51.7871 208.52 50.9551 209.016 49.8991 209.016C48.2911 209.016 47.5151 207.776 47.5151 206.208ZM47.5231 205.208C47.5151 203.976 48.2511 202.688 49.8111 202.688C51.3071 202.688 52.0191 203.784 52.0191 205.208H47.5231ZM55.4896 210H56.9616V204.856C56.9616 203.48 58.0336 202.92 59.3536 203.008C59.5216 203.008 59.8176 203.032 59.9776 203.104V201.672C59.8416 201.6 59.5856 201.568 59.3456 201.568C58.2976 201.568 57.3136 202.128 56.8976 203.32V201.728H55.4896V210ZM62.7026 206.208H68.6306V205.664C68.6306 203.152 67.3346 201.568 65.0066 201.568C62.5986 201.568 61.2066 203.336 61.2066 205.944C61.2066 208.584 62.7986 210.16 65.1106 210.16C66.7186 210.16 68.2706 209.272 68.5746 207.584H67.1826C66.9746 208.52 66.1426 209.016 65.0866 209.016C63.4786 209.016 62.7026 207.776 62.7026 206.208ZM62.7106 205.208C62.7026 203.976 63.4386 202.688 64.9986 202.688C66.4946 202.688 67.2066 203.784 67.2066 205.208H62.7106ZM70.6771 210H72.1491V204.472C72.1491 203.36 73.1731 202.832 74.2931 202.832C75.3731 202.832 76.1171 203.448 76.1171 204.736V210H77.5971V204.592C77.5971 202.512 76.2691 201.608 74.7011 201.608C73.3731 201.608 72.5171 202.24 72.1091 202.928V201.728H70.6771V210ZM83.7758 202.808V201.72H81.9118V199.32H80.8238L80.4638 201.728H79.0798V202.808H80.4238V208C80.4238 209.328 80.8798 210.04 82.5998 210.04C83.1998 210.04 83.6158 209.984 83.8238 209.904V208.912H82.9198C82.1438 208.912 81.9118 208.832 81.9118 207.952V202.808H83.7758ZM91.7651 210.104C91.9731 210.104 92.2611 210.056 92.5091 209.976V209.016L92.0611 209.008C91.4771 208.968 91.1331 208.568 91.1331 207.728V198.112H89.6771V207.872C89.6771 209.032 89.9811 210.104 91.7651 210.104ZM95.9548 198.44H94.4428V199.976H95.9548V198.44ZM95.9148 201.728H94.4828V210H95.9148V201.728ZM101.372 210.16C103.388 210.16 104.556 209.224 104.556 207.704C104.556 206.888 104.14 205.88 102.62 205.48L100.956 205.064C100.044 204.84 99.5639 204.544 99.5639 203.952C99.5639 203.072 100.292 202.656 101.348 202.656C102.372 202.656 102.98 203.152 103.092 203.944H104.404C104.348 202.392 103.156 201.568 101.364 201.568C99.2679 201.568 98.2039 202.592 98.2119 204.04C98.2199 205.272 99.0759 205.904 100.412 206.224L102.124 206.648C102.876 206.824 103.228 207.176 103.228 207.784C103.228 208.648 102.484 209.056 101.364 209.056C100.316 209.056 99.4839 208.56 99.2759 207.592H97.9319C98.1719 209.376 99.6439 210.16 101.372 210.16ZM110.526 202.808V201.72H108.662V199.32H107.574L107.214 201.728H105.83V202.808H107.174V208C107.174 209.328 107.63 210.04 109.35 210.04C109.95 210.04 110.366 209.984 110.574 209.904V208.912H109.67C108.894 208.912 108.662 208.832 108.662 207.952V202.808H110.526ZM120.635 202.808V201.72H118.771V199.32H117.683L117.323 201.728H115.939V202.808H117.283V208C117.283 209.328 117.739 210.04 119.459 210.04C120.059 210.04 120.475 209.984 120.683 209.904V208.912H119.779C119.003 208.912 118.771 208.832 118.771 207.952V202.808H120.635ZM123.47 212.64C124.614 212.64 125.478 212.2 126.126 210.624L129.606 201.728H128.158L125.734 208.112L123.294 201.728H121.798L125.03 209.8L124.742 210.584C124.574 210.992 124.278 211.536 123.046 211.488L122.198 211.472V212.432C122.198 212.432 122.502 212.64 123.47 212.64ZM131.208 212.576H132.696V208.504C133.04 209.208 133.816 210.16 135.296 210.16C137.472 210.16 138.768 208.592 138.768 205.752C138.768 202.904 137.392 201.568 135.416 201.568C133.896 201.568 133.072 202.488 132.696 203.168L132.68 201.728H131.208V212.576ZM135.016 209.008C133.48 209.008 132.68 207.584 132.68 205.8C132.68 203.976 133.48 202.72 135.016 202.72C136.528 202.72 137.336 203.92 137.336 205.8C137.336 208 136.376 209.008 135.016 209.008ZM141.828 206.208H147.756V205.664C147.756 203.152 146.46 201.568 144.132 201.568C141.724 201.568 140.332 203.336 140.332 205.944C140.332 208.584 141.924 210.16 144.236 210.16C145.844 210.16 147.396 209.272 147.7 207.584H146.308C146.1 208.52 145.268 209.016 144.212 209.016C142.604 209.016 141.828 207.776 141.828 206.208ZM141.836 205.208C141.828 203.976 142.564 202.688 144.124 202.688C145.62 202.688 146.332 203.784 146.332 205.208H141.836ZM158.175 201.728H156.143V200.576C156.143 199.84 156.343 199.48 157.023 199.48H158.255L158.247 198.432H156.687C155.351 198.432 154.687 199.136 154.687 200.448V201.728H152.935V202.808H154.687V210H156.167V202.808H158.175V201.728ZM163.114 210.16C165.578 210.16 166.882 208.424 166.882 205.896C166.882 203.112 165.402 201.568 163.122 201.568C160.674 201.568 159.322 203.304 159.322 205.896C159.322 208.656 160.818 210.16 163.114 210.16ZM163.122 208.992C161.466 208.992 160.794 207.608 160.794 205.864C160.794 203.896 161.618 202.728 163.122 202.728C164.746 202.728 165.418 204.096 165.418 205.864C165.418 207.808 164.602 208.992 163.122 208.992ZM168.849 210H170.321V204.856C170.321 203.48 171.393 202.92 172.713 203.008C172.881 203.008 173.177 203.032 173.337 203.104V201.672C173.201 201.6 172.945 201.568 172.705 201.568C171.657 201.568 170.673 202.128 170.257 203.32V201.728H168.849V210ZM22.24 234.16C24.176 234.16 24.824 232.952 25.032 232.304L25.192 234H26.328V222.112H24.832V227.04C24.568 226.504 23.704 225.568 22.12 225.568C19.88 225.568 18.744 227.256 18.744 229.832C18.744 232.664 20.088 234.16 22.24 234.16ZM22.504 233.024C21.016 233.024 20.232 231.832 20.232 229.76C20.232 227.64 21.168 226.72 22.528 226.72C24.176 226.72 24.816 227.824 24.832 229.76C24.832 232.072 24.176 233.024 22.504 233.024ZM30.3923 222.44H28.8803V223.976H30.3923V222.44ZM30.3523 225.728H28.9203V234H30.3523V225.728ZM37.4254 225.728H35.3934V224.576C35.3934 223.84 35.5934 223.48 36.2734 223.48H37.5054L37.4974 222.432H35.9374C34.6014 222.432 33.9374 223.136 33.9374 224.448V225.728H32.1854V226.808H33.9374V234H35.4174V226.808H37.4254V225.728ZM43.3629 225.728H41.3309V224.576C41.3309 223.84 41.5309 223.48 42.2109 223.48H43.4429L43.4349 222.432H41.8749C40.5389 222.432 39.8749 223.136 39.8749 224.448V225.728H38.1229V226.808H39.8749V234H41.3549V226.808H43.3629V225.728ZM46.0776 230.208H52.0056V229.664C52.0056 227.152 50.7096 225.568 48.3816 225.568C45.9736 225.568 44.5816 227.336 44.5816 229.944C44.5816 232.584 46.1736 234.16 48.4856 234.16C50.0936 234.16 51.6456 233.272 51.9496 231.584H50.5576C50.3496 232.52 49.5176 233.016 48.4616 233.016C46.8536 233.016 46.0776 231.776 46.0776 230.208ZM46.0856 229.208C46.0776 227.976 46.8136 226.688 48.3736 226.688C49.8696 226.688 50.5816 227.784 50.5816 229.208H46.0856ZM54.0521 234H55.5241V228.856C55.5241 227.48 56.5961 226.92 57.9161 227.008C58.0841 227.008 58.3801 227.032 58.5401 227.104V225.672C58.4041 225.6 58.1481 225.568 57.9081 225.568C56.8601 225.568 55.8761 226.128 55.4601 227.32V225.728H54.0521V234ZM61.2651 230.208H67.1931V229.664C67.1931 227.152 65.8971 225.568 63.5691 225.568C61.1611 225.568 59.7691 227.336 59.7691 229.944C59.7691 232.584 61.3611 234.16 63.6731 234.16C65.2811 234.16 66.8331 233.272 67.1371 231.584H65.7451C65.5371 232.52 64.7051 233.016 63.6491 233.016C62.0411 233.016 61.2651 231.776 61.2651 230.208ZM61.2731 229.208C61.2651 227.976 62.0011 226.688 63.5611 226.688C65.0571 226.688 65.7691 227.784 65.7691 229.208H61.2731ZM69.2396 234H70.7116V228.472C70.7116 227.36 71.7356 226.832 72.8556 226.832C73.9356 226.832 74.6796 227.448 74.6796 228.736V234H76.1596V228.592C76.1596 226.512 74.8316 225.608 73.2636 225.608C71.9356 225.608 71.0796 226.24 70.6716 226.928V225.728H69.2396V234ZM82.3383 226.808V225.72H80.4743V223.32H79.3863L79.0263 225.728H77.6423V226.808H78.9863V232C78.9863 233.328 79.4423 234.04 81.1623 234.04C81.7623 234.04 82.1783 233.984 82.3863 233.904V232.912H81.4823C80.7063 232.912 80.4743 232.832 80.4743 231.952V226.808H82.3383ZM88.2396 234H89.7116V228.472C89.7116 227.312 90.7276 226.824 91.5756 226.824C92.3436 226.824 93.2556 227.32 93.2556 228.304V234H94.7276V228.472C94.7276 227.216 95.8076 226.824 96.5836 226.824C97.4556 226.824 98.2796 227.24 98.2796 228.736V234H99.7676V228.592C99.7676 226.144 98.2396 225.568 97.0716 225.568C95.9756 225.568 95.0636 226.112 94.5516 226.92C94.1196 226.04 93.0716 225.568 92.1676 225.568C90.8796 225.568 90.1196 226.2 89.6636 226.928V225.728H88.2396V234ZM103.171 230.208H109.099V229.664C109.099 227.152 107.803 225.568 105.475 225.568C103.067 225.568 101.675 227.336 101.675 229.944C101.675 232.584 103.267 234.16 105.579 234.16C107.187 234.16 108.739 233.272 109.043 231.584H107.651C107.443 232.52 106.611 233.016 105.555 233.016C103.947 233.016 103.171 231.776 103.171 230.208ZM103.179 229.208C103.171 227.976 103.907 226.688 105.467 226.688C106.963 226.688 107.675 227.784 107.675 229.208H103.179ZM113.357 234.16C114.541 234.16 115.557 233.736 116.197 232.448L116.309 234H117.573V228.224C117.573 226.496 116.501 225.568 114.349 225.568C112.341 225.568 111.109 226.456 111.021 228.064H112.325C112.525 227.08 113.325 226.664 114.277 226.656C115.549 226.656 116.141 227.296 116.141 228.304V228.952L114.669 228.992C111.837 229.056 110.629 229.928 110.629 231.76C110.629 233.272 111.749 234.16 113.357 234.16ZM113.797 233.096C112.781 233.096 112.061 232.552 112.061 231.616C112.061 230.392 113.013 229.92 114.917 229.888L116.141 229.864V231.28C116.141 232.2 114.909 233.096 113.797 233.096ZM119.88 234H121.352V228.472C121.352 227.36 122.376 226.832 123.496 226.832C124.576 226.832 125.32 227.448 125.32 228.736V234H126.8V228.592C126.8 226.512 125.472 225.608 123.904 225.608C122.576 225.608 121.72 226.24 121.312 226.928V225.728H119.88V234ZM130.627 222.44H129.115V223.976H130.627V222.44ZM130.587 225.728H129.155V234H130.587V225.728ZM133.177 234H134.649V228.472C134.649 227.36 135.673 226.832 136.793 226.832C137.873 226.832 138.617 227.448 138.617 228.736V234H140.097V228.592C140.097 226.512 138.769 225.608 137.201 225.608C135.873 225.608 135.017 226.24 134.609 226.928V225.728H133.177V234ZM145.908 236.736C148.652 236.736 149.98 235.688 149.98 234.184C149.98 232.864 149.004 232.048 147.276 231.944C146.516 231.896 145.891 231.864 145.476 231.84C144.324 231.76 143.9 231.672 143.9 231.368C143.9 231.104 144.244 230.848 145.38 230.816C145.516 230.824 145.748 230.832 145.876 230.832C148.188 230.832 149.324 229.68 149.324 228.216C149.324 227.864 149.22 227.432 149.052 227.088L150.5 226.816L150.508 225.448C150.06 225.632 148.748 226.176 148.396 226.32C147.764 225.864 147.092 225.6 146.02 225.6C143.772 225.6 142.42 226.608 142.42 228.216C142.42 229.168 142.988 230.024 143.964 230.512C142.988 230.728 142.5 231.2 142.5 231.72C142.5 232.36 143.068 232.592 143.356 232.76C143.148 232.912 141.788 233.368 141.788 234.56C141.788 235.96 143.316 236.736 145.908 236.736ZM145.924 229.88C144.636 229.88 143.9 229.28 143.9 228.232C143.9 227.12 144.708 226.512 145.924 226.512C147.108 226.512 147.908 227.12 147.908 228.232C147.908 229.32 147.108 229.88 145.924 229.88ZM146.172 235.784C144.18 235.784 143.26 235.272 143.26 234.392C143.26 233.624 144.084 233.04 144.708 233.072L147.028 233.224C148.036 233.288 148.54 233.744 148.54 234.4C148.54 235.328 147.7 235.784 146.172 235.784ZM152.021 234H153.781V232.112H152.021V234Z" fill="black"/>
<path d="M28.488 39.688C29.352 39.688 30.056 38.976 30.056 38.112C30.056 37.248 29.352 36.552 28.488 36.552C27.624 36.552 26.928 37.248 26.928 38.112C26.928 38.976 27.624 39.688 28.488 39.688ZM36.4891 32.432L36.4811 44H43.4651V42.672H38.0011V32.432H36.4891ZM46.9235 32.44H45.4115V33.976H46.9235V32.44ZM46.8835 35.728H45.4515V44H46.8835V35.728ZM52.3406 44.16C54.3566 44.16 55.5246 43.224 55.5246 41.704C55.5246 40.888 55.1086 39.88 53.5886 39.48L51.9246 39.064C51.0126 38.84 50.5326 38.544 50.5326 37.952C50.5326 37.072 51.2606 36.656 52.3166 36.656C53.3406 36.656 53.9486 37.152 54.0606 37.944H55.3726C55.3166 36.392 54.1246 35.568 52.3326 35.568C50.2366 35.568 49.1726 36.592 49.1806 38.04C49.1886 39.272 50.0446 39.904 51.3806 40.224L53.0926 40.648C53.8446 40.824 54.1966 41.176 54.1966 41.784C54.1966 42.648 53.4526 43.056 52.3326 43.056C51.2846 43.056 50.4526 42.56 50.2446 41.592H48.9006C49.1406 43.376 50.6126 44.16 52.3406 44.16ZM61.4945 36.808V35.72H59.6305V33.32H58.5425L58.1825 35.728H56.7985V36.808H58.1425V42C58.1425 43.328 58.5985 44.04 60.3185 44.04C60.9185 44.04 61.3345 43.984 61.5425 43.904V42.912H60.6385C59.8625 42.912 59.6305 42.832 59.6305 41.952V36.808H61.4945ZM67.6999 32.432V44H69.1799V32.432H67.6999ZM76.057 36.808V35.72H74.193V33.32H73.105L72.745 35.728H71.361V36.808H72.705V42C72.705 43.328 73.161 44.04 74.881 44.04C75.481 44.04 75.897 43.984 76.105 43.904V42.912H75.201C74.425 42.912 74.193 42.832 74.193 41.952V36.808H76.057ZM78.937 40.208H84.865V39.664C84.865 37.152 83.569 35.568 81.241 35.568C78.833 35.568 77.441 37.336 77.441 39.944C77.441 42.584 79.033 44.16 81.345 44.16C82.953 44.16 84.505 43.272 84.809 41.584H83.417C83.209 42.52 82.377 43.016 81.321 43.016C79.713 43.016 78.937 41.776 78.937 40.208ZM78.945 39.208C78.937 37.976 79.673 36.688 81.233 36.688C82.729 36.688 83.441 37.784 83.441 39.208H78.945ZM86.9115 44H88.3835V38.472C88.3835 37.312 89.3995 36.824 90.2475 36.824C91.0155 36.824 91.9275 37.32 91.9275 38.304V44H93.3995V38.472C93.3995 37.216 94.4795 36.824 95.2555 36.824C96.1275 36.824 96.9515 37.24 96.9515 38.736V44H98.4395V38.592C98.4395 36.144 96.9115 35.568 95.7435 35.568C94.6475 35.568 93.7355 36.112 93.2235 36.92C92.7915 36.04 91.7435 35.568 90.8395 35.568C89.5515 35.568 88.7915 36.2 88.3355 36.928V35.728H86.9115V44ZM28.488 79.688C29.352 79.688 30.056 78.976 30.056 78.112C30.056 77.248 29.352 76.552 28.488 76.552C27.624 76.552 26.928 77.248 26.928 78.112C26.928 78.976 27.624 79.688 28.488 79.688ZM36.4891 72.432L36.4811 84H43.4651V82.672H38.0011V72.432H36.4891ZM46.9235 72.44H45.4115V73.976H46.9235V72.44ZM46.8835 75.728H45.4515V84H46.8835V75.728ZM52.3406 84.16C54.3566 84.16 55.5246 83.224 55.5246 81.704C55.5246 80.888 55.1086 79.88 53.5886 79.48L51.9246 79.064C51.0126 78.84 50.5326 78.544 50.5326 77.952C50.5326 77.072 51.2606 76.656 52.3166 76.656C53.3406 76.656 53.9486 77.152 54.0606 77.944H55.3726C55.3166 76.392 54.1246 75.568 52.3326 75.568C50.2366 75.568 49.1726 76.592 49.1806 78.04C49.1886 79.272 50.0446 79.904 51.3806 80.224L53.0926 80.648C53.8446 80.824 54.1966 81.176 54.1966 81.784C54.1966 82.648 53.4526 83.056 52.3326 83.056C51.2846 83.056 50.4526 82.56 50.2446 81.592H48.9006C49.1406 83.376 50.6126 84.16 52.3406 84.16ZM61.4945 76.808V75.72H59.6305V73.32H58.5425L58.1825 75.728H56.7985V76.808H58.1425V82C58.1425 83.328 58.5985 84.04 60.3185 84.04C60.9185 84.04 61.3345 83.984 61.5425 83.904V82.912H60.6385C59.8625 82.912 59.6305 82.832 59.6305 81.952V76.808H61.4945ZM67.6999 72.432V84H69.1799V72.432H67.6999ZM76.057 76.808V75.72H74.193V73.32H73.105L72.745 75.728H71.361V76.808H72.705V82C72.705 83.328 73.161 84.04 74.881 84.04C75.481 84.04 75.897 83.984 76.105 83.904V82.912H75.201C74.425 82.912 74.193 82.832 74.193 81.952V76.808H76.057ZM78.937 80.208H84.865V79.664C84.865 77.152 83.569 75.568 81.241 75.568C78.833 75.568 77.441 77.336 77.441 79.944C77.441 82.584 79.033 84.16 81.345 84.16C82.953 84.16 84.505 83.272 84.809 81.584H83.417C83.209 82.52 82.377 83.016 81.321 83.016C79.713 83.016 78.937 81.776 78.937 80.208ZM78.945 79.208C78.937 77.976 79.673 76.688 81.233 76.688C82.729 76.688 83.441 77.784 83.441 79.208H78.945ZM86.9115 84H88.3835V78.472C88.3835 77.312 89.3995 76.824 90.2475 76.824C91.0155 76.824 91.9275 77.32 91.9275 78.304V84H93.3995V78.472C93.3995 77.216 94.4795 76.824 95.2555 76.824C96.1275 76.824 96.9515 77.24 96.9515 78.736V84H98.4395V78.592C98.4395 76.144 96.9115 75.568 95.7435 75.568C94.6475 75.568 93.7355 76.112 93.2235 76.92C92.7915 76.04 91.7435 75.568 90.8395 75.568C89.5515 75.568 88.7915 76.2 88.3355 76.928V75.728H86.9115V84ZM28.488 119.688C29.352 119.688 30.056 118.976 30.056 118.112C30.056 117.248 29.352 116.552 28.488 116.552C27.624 116.552 26.928 117.248 26.928 118.112C26.928 118.976 27.624 119.688 28.488 119.688ZM36.4891 112.432L36.4811 124H43.4651V122.672H38.0011V112.432H36.4891ZM46.9235 112.44H45.4115V113.976H46.9235V112.44ZM46.8835 115.728H45.4515V124H46.8835V115.728ZM52.3406 124.16C54.3566 124.16 55.5246 123.224 55.5246 121.704C55.5246 120.888 55.1086 119.88 53.5886 119.48L51.9246 119.064C51.0126 118.84 50.5326 118.544 50.5326 117.952C50.5326 117.072 51.2606 116.656 52.3166 116.656C53.3406 116.656 53.9486 117.152 54.0606 117.944H55.3726C55.3166 116.392 54.1246 115.568 52.3326 115.568C50.2366 115.568 49.1726 116.592 49.1806 118.04C49.1886 119.272 50.0446 119.904 51.3806 120.224L53.0926 120.648C53.8446 120.824 54.1966 121.176 54.1966 121.784C54.1966 122.648 53.4526 123.056 52.3326 123.056C51.2846 123.056 50.4526 122.56 50.2446 121.592H48.9006C49.1406 123.376 50.6126 124.16 52.3406 124.16ZM61.4945 116.808V115.72H59.6305V113.32H58.5425L58.1825 115.728H56.7985V116.808H58.1425V122C58.1425 123.328 58.5985 124.04 60.3185 124.04C60.9185 124.04 61.3345 123.984 61.5425 123.904V122.912H60.6385C59.8625 122.912 59.6305 122.832 59.6305 121.952V116.808H61.4945ZM67.6999 112.432V124H69.1799V112.432H67.6999ZM76.057 116.808V115.72H74.193V113.32H73.105L72.745 115.728H71.361V116.808H72.705V122C72.705 123.328 73.161 124.04 74.881 124.04C75.481 124.04 75.897 123.984 76.105 123.904V122.912H75.201C74.425 122.912 74.193 122.832 74.193 121.952V116.808H76.057ZM78.937 120.208H84.865V119.664C84.865 117.152 83.569 115.568 81.241 115.568C78.833 115.568 77.441 117.336 77.441 119.944C77.441 122.584 79.033 124.16 81.345 124.16C82.953 124.16 84.505 123.272 84.809 121.584H83.417C83.209 122.52 82.377 123.016 81.321 123.016C79.713 123.016 78.937 121.776 78.937 120.208ZM78.945 119.208C78.937 117.976 79.673 116.688 81.233 116.688C82.729 116.688 83.441 117.784 83.441 119.208H78.945ZM86.9115 124H88.3835V118.472C88.3835 117.312 89.3995 116.824 90.2475 116.824C91.0155 116.824 91.9275 117.32 91.9275 118.304V124H93.3995V118.472C93.3995 117.216 94.4795 116.824 95.2555 116.824C96.1275 116.824 96.9515 117.24 96.9515 118.736V124H98.4395V118.592C98.4395 116.144 96.9115 115.568 95.7435 115.568C94.6475 115.568 93.7355 116.112 93.2235 116.92C92.7915 116.04 91.7435 115.568 90.8395 115.568C89.5515 115.568 88.7915 116.2 88.3355 116.928V115.728H86.9115V124Z" fill="white"/>
<path d="M142.507 44H144.035V32.432H142.979C142.923 33.368 142.347 33.824 140.275 33.824V34.792H142.507V44ZM146.927 44H148.687V42.112H146.927V44ZM154.958 32.432L154.95 44H161.934V42.672H156.47V32.432H154.958ZM165.392 32.44H163.88V33.976H165.392V32.44ZM165.352 35.728H163.92V44H165.352V35.728ZM170.809 44.16C172.825 44.16 173.993 43.224 173.993 41.704C173.993 40.888 173.577 39.88 172.057 39.48L170.393 39.064C169.481 38.84 169.001 38.544 169.001 37.952C169.001 37.072 169.729 36.656 170.785 36.656C171.809 36.656 172.417 37.152 172.529 37.944H173.841C173.785 36.392 172.593 35.568 170.801 35.568C168.705 35.568 167.641 36.592 167.649 38.04C167.657 39.272 168.513 39.904 169.849 40.224L171.561 40.648C172.313 40.824 172.665 41.176 172.665 41.784C172.665 42.648 171.921 43.056 170.801 43.056C169.753 43.056 168.921 42.56 168.713 41.592H167.369C167.609 43.376 169.081 44.16 170.809 44.16ZM179.963 36.808V35.72H178.099V33.32H177.011L176.651 35.728H175.267V36.808H176.611V42C176.611 43.328 177.067 44.04 178.787 44.04C179.387 44.04 179.803 43.984 180.011 43.904V42.912H179.107C178.331 42.912 178.099 42.832 178.099 41.952V36.808H179.963ZM186.169 32.432V44H187.649V32.432H186.169ZM194.526 36.808V35.72H192.662V33.32H191.574L191.214 35.728H189.83V36.808H191.174V42C191.174 43.328 191.63 44.04 193.35 44.04C193.95 44.04 194.366 43.984 194.574 43.904V42.912H193.67C192.894 42.912 192.662 42.832 192.662 41.952V36.808H194.526ZM197.406 40.208H203.334V39.664C203.334 37.152 202.038 35.568 199.71 35.568C197.302 35.568 195.91 37.336 195.91 39.944C195.91 42.584 197.502 44.16 199.814 44.16C201.422 44.16 202.974 43.272 203.278 41.584H201.886C201.678 42.52 200.846 43.016 199.79 43.016C198.182 43.016 197.406 41.776 197.406 40.208ZM197.414 39.208C197.406 37.976 198.142 36.688 199.702 36.688C201.198 36.688 201.91 37.784 201.91 39.208H197.414ZM205.38 44H206.852V38.472C206.852 37.312 207.868 36.824 208.716 36.824C209.484 36.824 210.396 37.32 210.396 38.304V44H211.868V38.472C211.868 37.216 212.948 36.824 213.724 36.824C214.596 36.824 215.42 37.24 215.42 38.736V44H216.908V38.592C216.908 36.144 215.38 35.568 214.212 35.568C213.116 35.568 212.204 36.112 211.692 36.92C211.26 36.04 210.212 35.568 209.308 35.568C208.02 35.568 207.26 36.2 206.804 36.928V35.728H205.38V44ZM138.008 84H145.76V82.688H139.656V82.456C139.656 79.352 145.696 79.72 145.696 75.56C145.696 73.592 144.216 72.272 141.888 72.272C139.2 72.272 137.8 73.92 137.76 75.92H139.232C139.352 74.496 140.32 73.576 141.832 73.576C143.24 73.576 144.128 74.384 144.128 75.56C144.128 78.688 138.008 78.472 138.008 82.624V84ZM147.427 84H149.187V82.112H147.427V84ZM155.458 72.432L155.45 84H162.434V82.672H156.97V72.432H155.458ZM165.892 72.44H164.38V73.976H165.892V72.44ZM165.852 75.728H164.42V84H165.852V75.728ZM171.309 84.16C173.325 84.16 174.493 83.224 174.493 81.704C174.493 80.888 174.077 79.88 172.557 79.48L170.893 79.064C169.981 78.84 169.501 78.544 169.501 77.952C169.501 77.072 170.229 76.656 171.285 76.656C172.309 76.656 172.917 77.152 173.029 77.944H174.341C174.285 76.392 173.093 75.568 171.301 75.568C169.205 75.568 168.141 76.592 168.149 78.04C168.157 79.272 169.013 79.904 170.349 80.224L172.061 80.648C172.813 80.824 173.165 81.176 173.165 81.784C173.165 82.648 172.421 83.056 171.301 83.056C170.253 83.056 169.421 82.56 169.213 81.592H167.869C168.109 83.376 169.581 84.16 171.309 84.16ZM180.463 76.808V75.72H178.599V73.32H177.511L177.151 75.728H175.767V76.808H177.111V82C177.111 83.328 177.567 84.04 179.287 84.04C179.887 84.04 180.303 83.984 180.511 83.904V82.912H179.607C178.831 82.912 178.599 82.832 178.599 81.952V76.808H180.463ZM187.877 72.44H186.365V73.976H187.877V72.44ZM187.837 75.728H186.405V84H187.837V75.728ZM194.526 76.808V75.72H192.662V73.32H191.574L191.214 75.728H189.83V76.808H191.174V82C191.174 83.328 191.63 84.04 193.35 84.04C193.95 84.04 194.366 83.984 194.574 83.904V82.912H193.67C192.894 82.912 192.662 82.832 192.662 81.952V76.808H194.526ZM197.406 80.208H203.334V79.664C203.334 77.152 202.038 75.568 199.71 75.568C197.302 75.568 195.91 77.336 195.91 79.944C195.91 82.584 197.502 84.16 199.814 84.16C201.422 84.16 202.974 83.272 203.278 81.584H201.886C201.678 82.52 200.846 83.016 199.79 83.016C198.182 83.016 197.406 81.776 197.406 80.208ZM197.414 79.208C197.406 77.976 198.142 76.688 199.702 76.688C201.198 76.688 201.91 77.784 201.91 79.208H197.414ZM205.38 84H206.852V78.472C206.852 77.312 207.868 76.824 208.716 76.824C209.484 76.824 210.396 77.32 210.396 78.304V84H211.868V78.472C211.868 77.216 212.948 76.824 213.724 76.824C214.596 76.824 215.42 77.24 215.42 78.736V84H216.908V78.592C216.908 76.144 215.38 75.568 214.212 75.568C213.116 75.568 212.204 76.112 211.692 76.92C211.26 76.04 210.212 75.568 209.308 75.568C208.02 75.568 207.26 76.2 206.804 76.928V75.728H205.38V84ZM136.889 115.8H138.361C138.409 114.2 139.641 113.504 140.881 113.504C142.465 113.504 143.377 114.344 143.377 115.304C143.377 116.384 142.241 117.296 140.721 117.32L139.729 117.344V118.6L140.769 118.624C142.401 118.64 143.681 119.392 143.681 120.792C143.681 122.048 142.585 122.904 140.881 122.904C139.449 122.904 138.433 122.112 138.217 120.672H136.737C136.809 122.808 138.433 124.152 140.825 124.176C143.393 124.2 145.281 122.92 145.281 120.808C145.281 119.304 144.281 118.304 142.761 117.888C144.257 117.368 144.969 116.4 144.969 115.256C144.969 113.344 143.289 112.272 140.889 112.272C138.697 112.272 136.889 113.56 136.889 115.8ZM146.927 124H148.687V122.112H146.927V124ZM154.958 112.432L154.95 124H161.934V122.672H156.47V112.432H154.958ZM165.392 112.44H163.88V113.976H165.392V112.44ZM165.352 115.728H163.92V124H165.352V115.728ZM170.809 124.16C172.825 124.16 173.993 123.224 173.993 121.704C173.993 120.888 173.577 119.88 172.057 119.48L170.393 119.064C169.481 118.84 169.001 118.544 169.001 117.952C169.001 117.072 169.729 116.656 170.785 116.656C171.809 116.656 172.417 117.152 172.529 117.944H173.841C173.785 116.392 172.593 115.568 170.801 115.568C168.705 115.568 167.641 116.592 167.649 118.04C167.657 119.272 168.513 119.904 169.849 120.224L171.561 120.648C172.313 120.824 172.665 121.176 172.665 121.784C172.665 122.648 171.921 123.056 170.801 123.056C169.753 123.056 168.921 122.56 168.713 121.592H167.369C167.609 123.376 169.081 124.16 170.809 124.16ZM179.963 116.808V115.72H178.099V113.32H177.011L176.651 115.728H175.267V116.808H176.611V122C176.611 123.328 177.067 124.04 178.787 124.04C179.387 124.04 179.803 123.984 180.011 123.904V122.912H179.107C178.331 122.912 178.099 122.832 178.099 121.952V116.808H179.963ZM186.169 112.432V124H187.649V112.432H186.169ZM194.526 116.808V115.72H192.662V113.32H191.574L191.214 115.728H189.83V116.808H191.174V122C191.174 123.328 191.63 124.04 193.35 124.04C193.95 124.04 194.366 123.984 194.574 123.904V122.912H193.67C192.894 122.912 192.662 122.832 192.662 121.952V116.808H194.526ZM197.406 120.208H203.334V119.664C203.334 117.152 202.038 115.568 199.71 115.568C197.302 115.568 195.91 117.336 195.91 119.944C195.91 122.584 197.502 124.16 199.814 124.16C201.422 124.16 202.974 123.272 203.278 121.584H201.886C201.678 122.52 200.846 123.016 199.79 123.016C198.182 123.016 197.406 121.776 197.406 120.208ZM197.414 119.208C197.406 117.976 198.142 116.688 199.702 116.688C201.198 116.688 201.91 117.784 201.91 119.208H197.414ZM205.38 124H206.852V118.472C206.852 117.312 207.868 116.824 208.716 116.824C209.484 116.824 210.396 117.32 210.396 118.304V124H211.868V118.472C211.868 117.216 212.948 116.824 213.724 116.824C214.596 116.824 215.42 117.24 215.42 118.736V124H216.908V118.592C216.908 116.144 215.38 115.568 214.212 115.568C213.116 115.568 212.204 116.112 211.692 116.92C211.26 116.04 210.212 115.568 209.308 115.568C208.02 115.568 207.26 116.2 206.804 116.928V115.728H205.38V124Z" fill="white"/>
</g>
<defs>
<filter id="filter0_d" x="0" y="0" width="244" height="262" filterUnits="userSpaceOnUse" color-interpolation-filters="sRGB">
<feFlood flood-opacity="0" result="BackgroundImageFix"/>
<feColorMatrix in="SourceAlpha" type="matrix" values="0 0 0 0 0 0 0 0 0 0 0 0 0 0 0 0 0 0 127 0"/>
<feOffset dy="4"/>
<feGaussianBlur stdDeviation="1"/>
<feColorMatrix type="matrix" values="0 0 0 0 0 0 0 0 0 0 0 0 0 0 0 0 0 0 0.1 0"/>
<feBlend mode="normal" in2="BackgroundImageFix" result="effect1_dropShadow"/>
<feBlend mode="normal" in="SourceGraphic" in2="effect1_dropShadow" result="shape"/>
</filter>
</defs>
</svg>
