<svg width="244" height="262" viewBox="0 0 244 262" fill="none" xmlns="http://www.w3.org/2000/svg">
<g filter="url(#filter0_d)">
<rect x="2" width="240" height="256" rx="8" fill="white"/>
<path d="M2 8C2 3.58172 5.58172 0 10 0H234C238.418 0 242 3.58172 242 8V156H2V8Z" fill="#6C757D"/>
<path d="M28.952 174.432H26.712L23.632 183.288L20.536 174.432H18.304L22.304 186H24.952L28.952 174.432ZM32.522 174.44H30.25V176.544H32.522V174.44ZM32.506 177.728H30.274V186H32.506V177.728ZM37.8436 186.16C39.9076 186.16 41.3316 185.224 41.3316 183.568C41.3316 182.816 40.9396 181.608 39.0996 181.152L37.7556 180.848C36.8516 180.672 36.4436 180.44 36.4436 180.008C36.4436 179.424 37.0276 179.136 37.8276 179.136C38.6116 179.136 39.1636 179.496 39.2836 180.136H41.2356C41.2116 178.512 39.8916 177.568 37.8596 177.568C35.5956 177.568 34.3796 178.696 34.3876 180.184C34.3956 181.552 35.3636 182.248 36.8276 182.552L38.2836 182.856C39.0356 183 39.3316 183.248 39.3316 183.696C39.3316 184.288 38.7236 184.56 37.8356 184.56C37.1876 184.56 36.3636 184.272 36.1476 183.392H34.1316C34.4276 185.352 36.1156 186.16 37.8436 186.16ZM46.0011 186.16C46.9771 186.168 48.1451 185.808 48.4411 184.36L48.7131 186H50.4731V177.728H48.1611V183.112C48.1611 183.968 47.5771 184.464 46.6651 184.464C45.6971 184.464 45.1851 183.92 45.1851 183.152V177.728H42.8491V183.448C42.8491 185.208 44.4811 186.152 46.0011 186.16ZM54.9248 186.16C56.0848 186.16 56.9248 185.776 57.4928 184.576L57.6848 186H59.6368V180.184C59.6368 178.56 58.6688 177.568 56.1408 177.568C54.0688 177.568 52.5728 178.4 52.4848 180.192H54.4288C54.6608 179.432 55.3488 179.152 56.0288 179.144C56.9648 179.136 57.3968 179.56 57.3968 180.32V180.816L56.3568 180.832C53.4368 180.864 52.1328 181.824 52.1328 183.632C52.1328 185.248 53.3488 186.16 54.9248 186.16ZM55.7168 184.624C54.9488 184.624 54.3488 184.168 54.3488 183.4C54.3488 182.392 55.3888 182.048 56.5568 182.032L57.3968 182.016V183.24C57.3888 183.952 56.5568 184.624 55.7168 184.624ZM64.1713 186.144C64.4833 186.144 64.8273 186.056 65.1473 185.944V184.504L64.7552 184.48C64.0353 184.4 63.8193 184 63.8193 183.392V174.112H61.5312V183.68C61.5312 184.872 61.7233 186.144 64.1713 186.144ZM75.0463 186.16C77.8383 186.16 79.7183 184.72 79.7183 182.856C79.7183 181.656 79.3903 179.84 76.5663 179.296L74.5823 178.888C73.3503 178.624 72.9903 178.232 72.9903 177.56C72.9903 176.72 73.7823 176.144 75.0303 176.144C76.2383 176.144 77.1343 176.576 77.2623 177.792H79.6063C79.5743 175.84 77.9743 174.288 74.9903 174.288C72.4783 174.288 70.5183 175.656 70.5423 177.832C70.5663 179.608 71.6703 180.664 73.4143 181L75.4143 181.408C76.5263 181.632 77.3743 182 77.3743 182.872C77.3743 183.856 76.3103 184.328 75.0383 184.328C73.7823 184.328 72.8303 183.744 72.5983 182.696H70.2063C70.4463 185.016 72.7583 186.16 75.0463 186.16ZM83.772 174.44H81.5V176.544H83.772V174.44ZM83.756 177.728H81.524V186H83.756V177.728ZM85.2696 186H92.2056V184.368H88.0936L92.1816 179.032V177.728H85.4776V179.36H89.3496L85.2696 184.696V186ZM95.5698 182.4H101.13V181.768C101.13 179.288 99.8018 177.568 97.2738 177.568C94.7378 177.568 93.2578 179.472 93.2578 181.96C93.2578 184.528 94.9378 186.16 97.3938 186.16C99.1138 186.16 100.842 185.144 101.122 183.376H99.0178C98.7778 184.152 98.1378 184.472 97.3378 184.472C96.2178 184.472 95.5618 183.664 95.5698 182.4ZM95.5698 181.008C95.5618 180.096 96.1938 179.2 97.2658 179.2C98.3938 179.2 98.9458 180.008 98.9458 181.008H95.5698ZM106.109 186.16C108.173 186.16 109.597 185.224 109.597 183.568C109.597 182.816 109.205 181.608 107.365 181.152L106.021 180.848C105.117 180.672 104.709 180.44 104.709 180.008C104.709 179.424 105.293 179.136 106.093 179.136C106.877 179.136 107.429 179.496 107.549 180.136H109.501C109.477 178.512 108.157 177.568 106.125 177.568C103.861 177.568 102.645 178.696 102.653 180.184C102.661 181.552 103.629 182.248 105.093 182.552L106.549 182.856C107.301 183 107.597 183.248 107.597 183.696C107.597 184.288 106.989 184.56 106.101 184.56C105.453 184.56 104.629 184.272 104.413 183.392H102.397C102.693 185.352 104.381 186.16 106.109 186.16Z" fill="black"/>
<path d="M23.784 198.272C20.648 198.272 18.864 200.408 18.864 204.176C18.864 207.952 20.664 210.16 23.784 210.16C26.544 210.16 27.912 208.336 28.152 206.36H26.576C26.312 207.712 25.368 208.872 23.744 208.872C21.632 208.872 20.504 207.416 20.504 204.192C20.504 200.992 21.632 199.56 23.744 199.56C25.368 199.56 26.312 200.64 26.576 202H28.152C27.936 199.976 26.224 198.272 23.784 198.272ZM30.2396 210H31.7116V204.48C31.7116 203.368 32.7196 202.832 33.8396 202.832C34.9276 202.832 35.6716 203.4 35.6716 204.384V210H37.1516V204.088C37.1516 202.576 35.8796 201.624 34.2636 201.624C32.9356 201.624 32.0956 202.264 31.6796 202.944V198.112H30.2396V210ZM41.7471 210.16C42.9311 210.16 43.9471 209.736 44.5871 208.448L44.6991 210H45.9631V204.224C45.9631 202.496 44.8911 201.568 42.7391 201.568C40.7311 201.568 39.4991 202.456 39.4111 204.064H40.7151C40.9151 203.08 41.7151 202.664 42.6671 202.656C43.9391 202.656 44.5311 203.296 44.5311 204.304V204.952L43.0591 204.992C40.2271 205.056 39.0191 205.928 39.0191 207.76C39.0191 209.272 40.1391 210.16 41.7471 210.16ZM42.1871 209.096C41.1711 209.096 40.4511 208.552 40.4511 207.616C40.4511 206.392 41.4031 205.92 43.3071 205.888L44.5311 205.864V207.28C44.5311 208.2 43.2991 209.096 42.1871 209.096ZM48.2709 210H49.7429V204.472C49.7429 203.36 50.7669 202.832 51.8869 202.832C52.9669 202.832 53.7109 203.448 53.7109 204.736V210H55.1909V204.592C55.1909 202.512 53.8629 201.608 52.2949 201.608C50.9669 201.608 50.1109 202.24 49.7029 202.928V201.728H48.2709V210ZM61.0013 212.736C63.7453 212.736 65.0733 211.688 65.0733 210.184C65.0733 208.864 64.0973 208.048 62.3693 207.944C61.6093 207.896 60.9852 207.864 60.5693 207.84C59.4173 207.76 58.9933 207.672 58.9933 207.368C58.9933 207.104 59.3373 206.848 60.4733 206.816C60.6093 206.824 60.8413 206.832 60.9693 206.832C63.2813 206.832 64.4173 205.68 64.4173 204.216C64.4173 203.864 64.3133 203.432 64.1453 203.088L65.5933 202.816L65.6013 201.448C65.1533 201.632 63.8413 202.176 63.4893 202.32C62.8573 201.864 62.1853 201.6 61.1133 201.6C58.8653 201.6 57.5133 202.608 57.5133 204.216C57.5133 205.168 58.0813 206.024 59.0573 206.512C58.0813 206.728 57.5933 207.2 57.5933 207.72C57.5933 208.36 58.1613 208.592 58.4493 208.76C58.2413 208.912 56.8813 209.368 56.8813 210.56C56.8813 211.96 58.4093 212.736 61.0013 212.736ZM61.0173 205.88C59.7293 205.88 58.9933 205.28 58.9933 204.232C58.9933 203.12 59.8013 202.512 61.0173 202.512C62.2013 202.512 63.0013 203.12 63.0013 204.232C63.0013 205.32 62.2013 205.88 61.0173 205.88ZM61.2653 211.784C59.2733 211.784 58.3533 211.272 58.3533 210.392C58.3533 209.624 59.1773 209.04 59.8013 209.072L62.1213 209.224C63.1293 209.288 63.6333 209.744 63.6333 210.4C63.6333 211.328 62.7933 211.784 61.2653 211.784ZM68.2808 206.208H74.2088V205.664C74.2088 203.152 72.9128 201.568 70.5848 201.568C68.1768 201.568 66.7848 203.336 66.7848 205.944C66.7848 208.584 68.3768 210.16 70.6888 210.16C72.2968 210.16 73.8488 209.272 74.1528 207.584H72.7608C72.5528 208.52 71.7208 209.016 70.6648 209.016C69.0568 209.016 68.2808 207.776 68.2808 206.208ZM68.2888 205.208C68.2808 203.976 69.0168 202.688 70.5768 202.688C72.0728 202.688 72.7848 203.784 72.7848 205.208H68.2888ZM83.0125 210.16C85.0285 210.16 86.1965 209.224 86.1965 207.704C86.1965 206.888 85.7805 205.88 84.2605 205.48L82.5965 205.064C81.6845 204.84 81.2045 204.544 81.2045 203.952C81.2045 203.072 81.9325 202.656 82.9885 202.656C84.0125 202.656 84.6205 203.152 84.7325 203.944H86.0445C85.9885 202.392 84.7965 201.568 83.0045 201.568C80.9085 201.568 79.8445 202.592 79.8525 204.04C79.8605 205.272 80.7165 205.904 82.0525 206.224L83.7645 206.648C84.5165 206.824 84.8685 207.176 84.8685 207.784C84.8685 208.648 84.1245 209.056 83.0045 209.056C81.9565 209.056 81.1245 208.56 80.9165 207.592H79.5725C79.8125 209.376 81.2845 210.16 83.0125 210.16ZM89.6579 198.44H88.1459V199.976H89.6579V198.44ZM89.6179 201.728H88.1859V210H89.6179V201.728ZM91.483 210H97.955V208.912H93.251L97.915 202.648V201.728H91.683V202.816H96.155L91.483 209.08V210ZM100.812 206.208H106.74V205.664C106.74 203.152 105.444 201.568 103.116 201.568C100.708 201.568 99.316 203.336 99.316 205.944C99.316 208.584 100.908 210.16 103.22 210.16C104.828 210.16 106.38 209.272 106.684 207.584H105.292C105.084 208.52 104.252 209.016 103.196 209.016C101.588 209.016 100.812 207.776 100.812 206.208ZM100.82 205.208C100.812 203.976 101.548 202.688 103.108 202.688C104.604 202.688 105.316 203.784 105.316 205.208H100.82ZM108.259 212.008H108.947L110.307 209.76V208.224H108.459V209.992L109.155 210.032L108.259 212.008ZM116.427 210H117.899V204.472C117.899 203.36 118.923 202.832 120.043 202.832C121.123 202.832 121.867 203.448 121.867 204.736V210H123.347V204.592C123.347 202.512 122.019 201.608 120.451 201.608C119.123 201.608 118.267 202.24 117.859 202.928V201.728H116.427V210ZM128.974 210.16C131.438 210.16 132.742 208.424 132.742 205.896C132.742 203.112 131.262 201.568 128.982 201.568C126.534 201.568 125.182 203.304 125.182 205.896C125.182 208.656 126.678 210.16 128.974 210.16ZM128.982 208.992C127.326 208.992 126.654 207.608 126.654 205.864C126.654 203.896 127.478 202.728 128.982 202.728C130.606 202.728 131.278 204.096 131.278 205.864C131.278 207.808 130.462 208.992 128.982 208.992ZM138.541 202.808V201.72H136.677V199.32H135.589L135.229 201.728H133.845V202.808H135.189V208C135.189 209.328 135.645 210.04 137.365 210.04C137.965 210.04 138.381 209.984 138.589 209.904V208.912H137.685C136.909 208.912 136.677 208.832 136.677 207.952V202.808H138.541ZM144.443 210H145.915V204.472C145.915 203.312 146.931 202.824 147.779 202.824C148.547 202.824 149.459 203.32 149.459 204.304V210H150.931V204.472C150.931 203.216 152.011 202.824 152.787 202.824C153.659 202.824 154.483 203.24 154.483 204.736V210H155.971V204.592C155.971 202.144 154.443 201.568 153.275 201.568C152.179 201.568 151.267 202.112 150.755 202.92C150.323 202.04 149.275 201.568 148.371 201.568C147.083 201.568 146.323 202.2 145.867 202.928V201.728H144.443V210ZM159.375 206.208H165.303V205.664C165.303 203.152 164.007 201.568 161.679 201.568C159.271 201.568 157.879 203.336 157.879 205.944C157.879 208.584 159.471 210.16 161.783 210.16C163.391 210.16 164.943 209.272 165.247 207.584H163.855C163.647 208.52 162.815 209.016 161.759 209.016C160.151 209.016 159.375 207.776 159.375 206.208ZM159.383 205.208C159.375 203.976 160.111 202.688 161.671 202.688C163.167 202.688 163.879 203.784 163.879 205.208H159.383ZM169.56 210.16C170.744 210.16 171.76 209.736 172.4 208.448L172.512 210H173.776V204.224C173.776 202.496 172.704 201.568 170.552 201.568C168.544 201.568 167.312 202.456 167.224 204.064H168.528C168.728 203.08 169.528 202.664 170.48 202.656C171.752 202.656 172.344 203.296 172.344 204.304V204.952L170.872 204.992C168.04 205.056 166.832 205.928 166.832 207.76C166.832 209.272 167.952 210.16 169.56 210.16ZM170 209.096C168.984 209.096 168.264 208.552 168.264 207.616C168.264 206.392 169.216 205.92 171.12 205.888L172.344 205.864V207.28C172.344 208.2 171.112 209.096 170 209.096ZM176.083 210H177.555V204.472C177.555 203.36 178.579 202.832 179.699 202.832C180.779 202.832 181.523 203.448 181.523 204.736V210H183.003V204.592C183.003 202.512 181.675 201.608 180.107 201.608C178.779 201.608 177.923 202.24 177.515 202.928V201.728H176.083V210ZM186.83 198.44H185.318V199.976H186.83V198.44ZM186.79 201.728H185.358V210H186.79V201.728ZM189.38 210H190.852V204.472C190.852 203.36 191.876 202.832 192.996 202.832C194.076 202.832 194.82 203.448 194.82 204.736V210H196.3V204.592C196.3 202.512 194.972 201.608 193.404 201.608C192.076 201.608 191.22 202.24 190.812 202.928V201.728H189.38V210ZM202.111 212.736C204.855 212.736 206.183 211.688 206.183 210.184C206.183 208.864 205.207 208.048 203.479 207.944C202.719 207.896 202.095 207.864 201.679 207.84C200.527 207.76 200.103 207.672 200.103 207.368C200.103 207.104 200.447 206.848 201.583 206.816C201.719 206.824 201.951 206.832 202.079 206.832C204.391 206.832 205.527 205.68 205.527 204.216C205.527 203.864 205.423 203.432 205.255 203.088L206.703 202.816L206.711 201.448C206.263 201.632 204.951 202.176 204.599 202.32C203.967 201.864 203.295 201.6 202.223 201.6C199.975 201.6 198.623 202.608 198.623 204.216C198.623 205.168 199.191 206.024 200.167 206.512C199.191 206.728 198.703 207.2 198.703 207.72C198.703 208.36 199.271 208.592 199.559 208.76C199.351 208.912 197.991 209.368 197.991 210.56C197.991 211.96 199.519 212.736 202.111 212.736ZM202.127 205.88C200.839 205.88 200.103 205.28 200.103 204.232C200.103 203.12 200.911 202.512 202.127 202.512C203.311 202.512 204.111 203.12 204.111 204.232C204.111 205.32 203.311 205.88 202.127 205.88ZM202.375 211.784C200.383 211.784 199.463 211.272 199.463 210.392C199.463 209.624 200.287 209.04 200.911 209.072L203.231 209.224C204.239 209.288 204.743 209.744 204.743 210.4C204.743 211.328 203.903 211.784 202.375 211.784ZM208.224 210H209.984V208.112H208.224V210Z" fill="black"/>
<path d="M106.32 112H114L121.2 92.224H150.576L157.728 112H165.456L140.304 42.592H131.52L106.32 112ZM123.312 85.12L135.84 49.984L148.416 85.12H123.312Z" fill="white"/>
<path d="M74.1 112H79.96L82.36 105.3H92.78L95.14 112H100.96L90.62 83.08H84.44L74.1 112ZM83.68 100.2L87.54 88.7L91.36 100.2H83.68Z" fill="white"/>
</g>
<defs>
<filter id="filter0_d" x="0" y="0" width="244" height="262" filterUnits="userSpaceOnUse" color-interpolation-filters="sRGB">
<feFlood flood-opacity="0" result="BackgroundImageFix"/>
<feColorMatrix in="SourceAlpha" type="matrix" values="0 0 0 0 0 0 0 0 0 0 0 0 0 0 0 0 0 0 127 0"/>
<feOffset dy="4"/>
<feGaussianBlur stdDeviation="1"/>
<feColorMatrix type="matrix" values="0 0 0 0 0 0 0 0 0 0 0 0 0 0 0 0 0 0 0.1 0"/>
<feBlend mode="normal" in2="BackgroundImageFix" result="effect1_dropShadow"/>
<feBlend mode="normal" in="SourceGraphic" in2="effect1_dropShadow" result="shape"/>
</filter>
</defs>
</svg>
