<svg width="244" height="262" viewBox="0 0 244 262" fill="none" xmlns="http://www.w3.org/2000/svg">
<g filter="url(#filter0_d)">
<rect x="2" width="240" height="256" rx="8" fill="white"/>
<path d="M2 8C2 3.58172 5.58172 0 10 0H234C238.418 0 242 3.58172 242 8V156H2V8Z" fill="#6C757D"/>
<path d="M23.64 186.16C26.432 186.16 28.312 184.72 28.312 182.856C28.312 181.656 27.984 179.84 25.16 179.296L23.176 178.888C21.944 178.624 21.584 178.232 21.584 177.56C21.584 176.72 22.376 176.144 23.624 176.144C24.832 176.144 25.728 176.576 25.856 177.792H28.2C28.168 175.84 26.568 174.288 23.584 174.288C21.072 174.288 19.112 175.656 19.136 177.832C19.16 179.608 20.264 180.664 22.008 181L24.008 181.408C25.12 181.632 25.968 182 25.968 182.872C25.968 183.856 24.904 184.328 23.632 184.328C22.376 184.328 21.424 183.744 21.192 182.696H18.8C19.04 185.016 21.352 186.16 23.64 186.16ZM34.8514 179.352V177.72H33.0114V175.232H31.3474L30.7554 177.728H29.3394V179.352H30.6834V183.856C30.6834 185.184 31.2434 186.088 33.4274 186.088C34.2354 186.088 34.6514 185.984 34.8754 185.888V184.448H33.7634C33.2514 184.448 33.0274 184.368 33.0274 183.76L33.0114 179.352H34.8514ZM36.5156 186H38.8516V181.472C38.8516 180.36 39.5556 179.624 41.3956 179.784C41.5076 179.792 41.6516 179.8 41.7476 179.84V177.616C41.6836 177.584 41.5396 177.568 41.3876 177.568C40.0836 177.568 39.1556 178.424 38.7636 179.688V177.728H36.5156V186ZM46.7018 186.16C49.2218 186.16 50.7018 184.4 50.7018 181.912C50.7018 179.264 49.1498 177.568 46.7098 177.568C44.2538 177.568 42.7018 179.304 42.7018 181.912C42.7018 184.52 44.2698 186.16 46.7018 186.16ZM46.7098 184.424C45.3978 184.424 44.9818 183.128 44.9818 181.832C44.9818 180.424 45.4698 179.288 46.7098 179.288C48.0058 179.288 48.4138 180.52 48.4138 181.832C48.4138 183.224 47.9338 184.424 46.7098 184.424ZM52.2969 186H54.6329V180.704C54.6329 179.896 55.4089 179.488 56.1769 179.488C56.9369 179.488 57.5529 179.936 57.5529 180.832V186H59.8889V180.544C59.8889 178.496 58.5049 177.656 56.9929 177.656C55.6889 177.656 54.9689 178.296 54.5929 178.896V177.728H52.2969V186ZM65.6213 188.736C68.5653 188.736 70.0293 187.616 70.0293 186.064C70.0293 184.76 69.0373 183.832 67.0133 183.696C66.2853 183.648 65.6453 183.616 65.2933 183.592C64.3173 183.536 63.8453 183.496 63.8453 183.232C63.8453 183.064 64.0453 182.92 64.6693 182.888C64.8773 182.912 65.2933 182.92 65.4852 182.92C67.9573 182.92 69.2292 181.624 69.2292 180.184C69.2292 179.968 69.1653 179.608 69.0533 179.312L70.4773 179.08L70.4933 177.272C69.7973 177.56 68.5573 178.056 68.0613 178.248C67.4453 177.864 66.7893 177.6 65.6533 177.6C63.4053 177.6 61.7333 178.56 61.7333 180.192C61.7333 181.112 62.3093 182.072 63.4053 182.576C62.2613 182.776 61.7093 183.328 61.7093 183.912C61.7093 184.696 62.4693 184.992 62.7253 185.144C62.5653 185.232 61.1173 185.576 61.1173 186.704C61.1173 187.92 62.6773 188.736 65.6213 188.736ZM65.5573 181.616C64.6373 181.616 64.0773 181.088 64.0773 180.264C64.0773 179.408 64.6693 178.832 65.5573 178.832C66.4373 178.832 67.0213 179.4 67.0213 180.264C67.0213 181.104 66.4373 181.616 65.5573 181.616ZM65.9973 187.432C64.2213 187.432 63.4053 187.128 63.4053 186.432C63.4053 185.92 63.9013 185.448 64.6533 185.488L66.5493 185.616C67.3653 185.672 67.8053 186.008 67.8053 186.504C67.8053 187.104 67.2933 187.432 65.9973 187.432ZM80.1411 174.256C78.1251 174.256 76.7331 175.424 76.7331 176.96C76.7331 177.984 77.3011 178.624 78.1171 179.536C76.1811 180.56 75.2051 181.512 75.2051 183.096C75.2051 184.848 76.3891 186.08 78.9331 186.08C80.0771 186.08 81.4131 185.768 82.6531 184.864L83.6451 186H86.3251L84.0371 183.328C84.7411 182.168 85.7091 180.848 86.1091 179.432H83.7171C83.5971 180.504 83.1491 181.496 82.9331 181.984L81.1251 179.856C82.8531 178.84 83.6851 177.792 83.6851 176.768C83.6851 175.264 82.1091 174.256 80.1411 174.256ZM80.2531 175.68C80.9731 175.656 81.6371 176.024 81.6371 176.872C81.6371 177.448 81.3171 177.96 80.1571 178.68L79.8291 178.336C79.4211 177.896 79.0371 177.328 79.0371 176.8C79.0371 176.192 79.4931 175.696 80.2531 175.68ZM79.2611 180.864L81.5331 183.496C80.9731 184.024 80.1251 184.296 79.5091 184.296C78.7411 184.296 77.9251 183.832 77.8211 182.968C77.6931 182.056 78.4131 181.344 79.2611 180.864ZM91.8898 186H99.9138V184.016L94.2178 184.008V181.136H99.0898V179.208H94.2338V176.4H99.8258L99.8338 174.432H91.8898V186ZM101.656 186H103.992V180.704C103.992 179.872 104.744 179.472 105.384 179.472C106 179.472 106.696 179.872 106.696 180.624V186H109.024V180.704C109.024 179.824 109.808 179.472 110.424 179.472C111.088 179.472 111.752 179.832 111.752 180.832V186H114.088V180.544C114.088 178.312 112.616 177.568 111.384 177.568C110.312 177.568 109.416 178.144 108.88 178.896C108.392 178.024 107.408 177.568 106.56 177.568C105.264 177.568 104.44 178.168 103.944 178.896V177.728H101.656V186Z" fill="black"/>
<path d="M27.984 206V198.432H26.496V206.072C26.496 207.96 25.488 208.864 23.752 208.864C22.016 208.864 21.064 207.944 21.064 206.072V198.432H19.528V205.848C19.528 208.64 20.752 210.16 23.752 210.16C26.72 210.16 27.984 208.664 27.984 206ZM33.4031 210.16C35.4191 210.16 36.5871 209.224 36.5871 207.704C36.5871 206.888 36.1711 205.88 34.6511 205.48L32.9871 205.064C32.0751 204.84 31.5951 204.544 31.5951 203.952C31.5951 203.072 32.3231 202.656 33.3791 202.656C34.4031 202.656 35.0111 203.152 35.1231 203.944H36.4351C36.3791 202.392 35.1871 201.568 33.3951 201.568C31.2991 201.568 30.2351 202.592 30.2431 204.04C30.2511 205.272 31.1071 205.904 32.4431 206.224L34.1551 206.648C34.9071 206.824 35.2591 207.176 35.2591 207.784C35.2591 208.648 34.5151 209.056 33.3951 209.056C32.3471 209.056 31.5151 208.56 31.3071 207.592H29.9631C30.2031 209.376 31.6751 210.16 33.4031 210.16ZM39.6245 206.208H45.5525V205.664C45.5525 203.152 44.2565 201.568 41.9285 201.568C39.5205 201.568 38.1285 203.336 38.1285 205.944C38.1285 208.584 39.7205 210.16 42.0325 210.16C43.6405 210.16 45.1925 209.272 45.4965 207.584H44.1045C43.8965 208.52 43.0645 209.016 42.0085 209.016C40.4005 209.016 39.6245 207.776 39.6245 206.208ZM39.6325 205.208C39.6245 203.976 40.3605 202.688 41.9205 202.688C43.4165 202.688 44.1285 203.784 44.1285 205.208H39.6325ZM51.3803 210H52.8523V204.472C52.8523 203.312 53.8683 202.824 54.7163 202.824C55.4843 202.824 56.3963 203.32 56.3963 204.304V210H57.8683V204.472C57.8683 203.216 58.9483 202.824 59.7243 202.824C60.5963 202.824 61.4203 203.24 61.4203 204.736V210H62.9083V204.592C62.9083 202.144 61.3803 201.568 60.2123 201.568C59.1163 201.568 58.2043 202.112 57.6923 202.92C57.2603 202.04 56.2123 201.568 55.3083 201.568C54.0203 201.568 53.2603 202.2 52.8043 202.928V201.728H51.3803V210ZM68.536 210.16C71 210.16 72.304 208.424 72.304 205.896C72.304 203.112 70.824 201.568 68.544 201.568C66.096 201.568 64.744 203.304 64.744 205.896C64.744 208.656 66.24 210.16 68.536 210.16ZM68.544 208.992C66.888 208.992 66.216 207.608 66.216 205.864C66.216 203.896 67.04 202.728 68.544 202.728C70.168 202.728 70.84 204.096 70.84 205.864C70.84 207.808 70.024 208.992 68.544 208.992ZM77.2869 210.16C79.2229 210.16 79.8709 208.952 80.0789 208.304L80.2389 210H81.3749V198.112H79.8789V203.04C79.6149 202.504 78.7509 201.568 77.1669 201.568C74.9269 201.568 73.7909 203.256 73.7909 205.832C73.7909 208.664 75.1349 210.16 77.2869 210.16ZM77.5509 209.024C76.0629 209.024 75.2789 207.832 75.2789 205.76C75.2789 203.64 76.2149 202.72 77.5749 202.72C79.2229 202.72 79.8629 203.824 79.8789 205.76C79.8789 208.072 79.2229 209.024 77.5509 209.024ZM84.9058 206.208H90.8338V205.664C90.8338 203.152 89.5378 201.568 87.2098 201.568C84.8018 201.568 83.4098 203.336 83.4098 205.944C83.4098 208.584 85.0018 210.16 87.3138 210.16C88.9218 210.16 90.4738 209.272 90.7778 207.584H89.3858C89.1778 208.52 88.3458 209.016 87.2898 209.016C85.6818 209.016 84.9058 207.776 84.9058 206.208ZM84.9138 205.208C84.9058 203.976 85.6418 202.688 87.2018 202.688C88.6978 202.688 89.4098 203.784 89.4098 205.208H84.9138ZM92.8803 210H94.3523V204.856C94.3523 203.48 95.4243 202.92 96.7443 203.008C96.9123 203.008 97.2083 203.032 97.3683 203.104V201.672C97.2323 201.6 96.9763 201.568 96.7363 201.568C95.6883 201.568 94.7043 202.128 94.2883 203.32V201.728H92.8803V210ZM99.1303 210H100.602V204.472C100.602 203.36 101.626 202.832 102.746 202.832C103.826 202.832 104.57 203.448 104.57 204.736V210H106.05V204.592C106.05 202.512 104.722 201.608 103.154 201.608C101.826 201.608 100.97 202.24 100.562 202.928V201.728H99.1303V210ZM116.463 202.808V201.72H114.599V199.32H113.511L113.151 201.728H111.767V202.808H113.111V208C113.111 209.328 113.567 210.04 115.287 210.04C115.887 210.04 116.303 209.984 116.511 209.904V208.912H115.607C114.831 208.912 114.599 208.832 114.599 207.952V202.808H116.463ZM120.732 210.16C121.916 210.16 122.932 209.736 123.572 208.448L123.684 210H124.948V204.224C124.948 202.496 123.876 201.568 121.724 201.568C119.716 201.568 118.484 202.456 118.396 204.064H119.7C119.9 203.08 120.7 202.664 121.652 202.656C122.924 202.656 123.516 203.296 123.516 204.304V204.952L122.044 204.992C119.212 205.056 118.004 205.928 118.004 207.76C118.004 209.272 119.124 210.16 120.732 210.16ZM121.172 209.096C120.156 209.096 119.436 208.552 119.436 207.616C119.436 206.392 120.388 205.92 122.292 205.888L123.516 205.864V207.28C123.516 208.2 122.284 209.096 121.172 209.096ZM130.751 212.736C133.495 212.736 134.823 211.688 134.823 210.184C134.823 208.864 133.847 208.048 132.119 207.944C131.359 207.896 130.735 207.864 130.319 207.84C129.167 207.76 128.743 207.672 128.743 207.368C128.743 207.104 129.087 206.848 130.223 206.816C130.359 206.824 130.591 206.832 130.719 206.832C133.031 206.832 134.167 205.68 134.167 204.216C134.167 203.864 134.063 203.432 133.895 203.088L135.343 202.816L135.351 201.448C134.903 201.632 133.591 202.176 133.239 202.32C132.607 201.864 131.935 201.6 130.863 201.6C128.615 201.6 127.263 202.608 127.263 204.216C127.263 205.168 127.831 206.024 128.807 206.512C127.831 206.728 127.343 207.2 127.343 207.72C127.343 208.36 127.911 208.592 128.199 208.76C127.991 208.912 126.631 209.368 126.631 210.56C126.631 211.96 128.159 212.736 130.751 212.736ZM130.767 205.88C129.479 205.88 128.743 205.28 128.743 204.232C128.743 203.12 129.551 202.512 130.767 202.512C131.951 202.512 132.751 203.12 132.751 204.232C132.751 205.32 131.951 205.88 130.767 205.88ZM131.015 211.784C129.023 211.784 128.103 211.272 128.103 210.392C128.103 209.624 128.927 209.04 129.551 209.072L131.871 209.224C132.879 209.288 133.383 209.744 133.383 210.4C133.383 211.328 132.543 211.784 131.015 211.784ZM139.903 210.16C141.919 210.16 143.087 209.224 143.087 207.704C143.087 206.888 142.671 205.88 141.151 205.48L139.487 205.064C138.575 204.84 138.095 204.544 138.095 203.952C138.095 203.072 138.823 202.656 139.879 202.656C140.903 202.656 141.511 203.152 141.623 203.944H142.935C142.879 202.392 141.687 201.568 139.895 201.568C137.799 201.568 136.735 202.592 136.743 204.04C136.751 205.272 137.607 205.904 138.943 206.224L140.655 206.648C141.407 206.824 141.759 207.176 141.759 207.784C141.759 208.648 141.015 209.056 139.895 209.056C138.847 209.056 138.015 208.56 137.807 207.592H136.463C136.703 209.376 138.175 210.16 139.903 210.16ZM153.457 201.728H151.425V200.576C151.425 199.84 151.625 199.48 152.305 199.48H153.537L153.529 198.432H151.969C150.633 198.432 149.969 199.136 149.969 200.448V201.728H148.217V202.808H149.969V210H151.449V202.808H153.457V201.728ZM158.395 210.16C160.859 210.16 162.163 208.424 162.163 205.896C162.163 203.112 160.683 201.568 158.403 201.568C155.955 201.568 154.603 203.304 154.603 205.896C154.603 208.656 156.099 210.16 158.395 210.16ZM158.403 208.992C156.747 208.992 156.075 207.608 156.075 205.864C156.075 203.896 156.899 202.728 158.403 202.728C160.027 202.728 160.699 204.096 160.699 205.864C160.699 207.808 159.883 208.992 158.403 208.992ZM164.13 210H165.602V204.856C165.602 203.48 166.674 202.92 167.994 203.008C168.162 203.008 168.458 203.032 168.618 203.104V201.672C168.482 201.6 168.226 201.568 167.986 201.568C166.938 201.568 165.954 202.128 165.538 203.32V201.728H164.13V210ZM178.359 210.16C180.687 210.16 181.855 208.44 181.855 205.832C181.855 203.024 180.535 201.568 178.471 201.568C176.895 201.568 176.031 202.504 175.759 203.04V198.112H174.271V210H175.399L175.559 208.304C175.767 208.952 176.423 210.16 178.359 210.16ZM178.095 209.024C176.423 209.024 175.759 208.072 175.759 205.76C175.783 203.824 176.423 202.72 178.063 202.72C179.567 202.72 180.367 203.832 180.367 205.76C180.367 208.032 179.431 209.024 178.095 209.024ZM184.906 206.208H190.834V205.664C190.834 203.152 189.538 201.568 187.21 201.568C184.802 201.568 183.41 203.336 183.41 205.944C183.41 208.584 185.002 210.16 187.314 210.16C188.922 210.16 190.474 209.272 190.778 207.584H189.386C189.178 208.52 188.346 209.016 187.29 209.016C185.682 209.016 184.906 207.776 184.906 206.208ZM184.914 205.208C184.906 203.976 185.642 202.688 187.202 202.688C188.698 202.688 189.41 203.784 189.41 205.208H184.914ZM196.713 202.808V201.72H194.849V199.32H193.761L193.401 201.728H192.017V202.808H193.361V208C193.361 209.328 193.817 210.04 195.537 210.04C196.137 210.04 196.553 209.984 196.761 209.904V208.912H195.857C195.081 208.912 194.849 208.832 194.849 207.952V202.808H196.713ZM202.135 202.808V201.72H200.271V199.32H199.183L198.823 201.728H197.439V202.808H198.783V208C198.783 209.328 199.239 210.04 200.959 210.04C201.559 210.04 201.975 209.984 202.183 209.904V208.912H201.279C200.503 208.912 200.271 208.832 200.271 207.952V202.808H202.135ZM205.015 206.208H210.943V205.664C210.943 203.152 209.647 201.568 207.319 201.568C204.911 201.568 203.519 203.336 203.519 205.944C203.519 208.584 205.111 210.16 207.423 210.16C209.031 210.16 210.583 209.272 210.887 207.584H209.495C209.287 208.52 208.455 209.016 207.399 209.016C205.791 209.016 205.015 207.776 205.015 206.208ZM205.023 205.208C205.015 203.976 205.751 202.688 207.311 202.688C208.807 202.688 209.519 203.784 209.519 205.208H205.023ZM212.99 210H214.462V204.856C214.462 203.48 215.534 202.92 216.854 203.008C217.022 203.008 217.318 203.032 217.478 203.104V201.672C217.342 201.6 217.086 201.568 216.846 201.568C215.798 201.568 214.814 202.128 214.398 203.32V201.728H212.99V210ZM22.264 234.16C23.432 234.168 24.44 233.656 24.744 232.416L24.896 234H26.072V225.728H24.6V231.112C24.6 232.368 23.792 233.008 22.576 233.008C21.224 233.008 20.568 232.272 20.568 231.192V225.728H19.088V231.344C19.088 233.208 20.544 234.144 22.264 234.16ZM31.4813 234.16C33.4973 234.16 34.6653 233.224 34.6653 231.704C34.6653 230.888 34.2493 229.88 32.7293 229.48L31.0653 229.064C30.1533 228.84 29.6733 228.544 29.6733 227.952C29.6733 227.072 30.4013 226.656 31.4573 226.656C32.4813 226.656 33.0893 227.152 33.2013 227.944H34.5133C34.4573 226.392 33.2653 225.568 31.4733 225.568C29.3773 225.568 28.3133 226.592 28.3213 228.04C28.3293 229.272 29.1853 229.904 30.5213 230.224L32.2333 230.648C32.9853 230.824 33.3373 231.176 33.3373 231.784C33.3373 232.648 32.5933 233.056 31.4733 233.056C30.4253 233.056 29.5933 232.56 29.3853 231.592H28.0413C28.2812 233.376 29.7533 234.16 31.4813 234.16ZM37.7026 230.208H43.6306V229.664C43.6306 227.152 42.3346 225.568 40.0066 225.568C37.5986 225.568 36.2066 227.336 36.2066 229.944C36.2066 232.584 37.7986 234.16 40.1106 234.16C41.7186 234.16 43.2706 233.272 43.5746 231.584H42.1826C41.9746 232.52 41.1426 233.016 40.0866 233.016C38.4786 233.016 37.7026 231.776 37.7026 230.208ZM37.7106 229.208C37.7026 227.976 38.4386 226.688 39.9986 226.688C41.4946 226.688 42.2066 227.784 42.2066 229.208H37.7106ZM45.6771 234H47.1491V228.856C47.1491 227.48 48.2211 226.92 49.5411 227.008C49.7091 227.008 50.0051 227.032 50.1651 227.104V225.672C50.0291 225.6 49.7731 225.568 49.5331 225.568C48.4851 225.568 47.5011 226.128 47.0851 227.32V225.728H45.6771V234ZM56.7026 230.208H62.6306V229.664C62.6306 227.152 61.3346 225.568 59.0066 225.568C56.5986 225.568 55.2066 227.336 55.2066 229.944C55.2066 232.584 56.7986 234.16 59.1106 234.16C60.7186 234.16 62.2706 233.272 62.5746 231.584H61.1826C60.9746 232.52 60.1426 233.016 59.0866 233.016C57.4786 233.016 56.7026 231.776 56.7026 230.208ZM56.7106 229.208C56.7026 227.976 57.4386 226.688 58.9986 226.688C60.4946 226.688 61.2066 227.784 61.2066 229.208H56.7106ZM71.4186 234L68.2346 229.704L71.1786 225.728H69.5626L67.4106 228.632L65.2586 225.728H63.6506L66.5786 229.704L63.3946 234H65.0106L67.4026 230.76L69.8106 234H71.4186ZM73.1459 236.576H74.6339V232.504C74.9779 233.208 75.7539 234.16 77.2339 234.16C79.4099 234.16 80.7059 232.592 80.7059 229.752C80.7059 226.904 79.3299 225.568 77.3539 225.568C75.8339 225.568 75.0099 226.488 74.6339 227.168L74.6179 225.728H73.1459V236.576ZM76.9539 233.008C75.4179 233.008 74.6179 231.584 74.6179 229.8C74.6179 227.976 75.4179 226.72 76.9539 226.72C78.4659 226.72 79.2739 227.92 79.2739 229.8C79.2739 232 78.3139 233.008 76.9539 233.008ZM83.7651 230.208H89.6931V229.664C89.6931 227.152 88.3971 225.568 86.0691 225.568C83.6611 225.568 82.2691 227.336 82.2691 229.944C82.2691 232.584 83.8611 234.16 86.1731 234.16C87.7811 234.16 89.3331 233.272 89.6371 231.584H88.2451C88.0371 232.52 87.2051 233.016 86.1491 233.016C84.5411 233.016 83.7651 231.776 83.7651 230.208ZM83.7731 229.208C83.7651 227.976 84.5011 226.688 86.0611 226.688C87.5571 226.688 88.2691 227.784 88.2691 229.208H83.7731ZM91.7396 234H93.2116V228.856C93.2116 227.48 94.2836 226.92 95.6036 227.008C95.7716 227.008 96.0676 227.032 96.2276 227.104V225.672C96.0916 225.6 95.8356 225.568 95.5956 225.568C94.5476 225.568 93.5636 226.128 93.1476 227.32V225.728H91.7396V234ZM99.5016 222.44H97.9896V223.976H99.5016V222.44ZM99.4616 225.728H98.0296V234H99.4616V225.728ZM103.031 230.208H108.959V229.664C108.959 227.152 107.663 225.568 105.335 225.568C102.927 225.568 101.535 227.336 101.535 229.944C101.535 232.584 103.127 234.16 105.439 234.16C107.047 234.16 108.599 233.272 108.903 231.584H107.511C107.303 232.52 106.471 233.016 105.415 233.016C103.807 233.016 103.031 231.776 103.031 230.208ZM103.039 229.208C103.031 227.976 103.767 226.688 105.327 226.688C106.823 226.688 107.535 227.784 107.535 229.208H103.039ZM111.005 234H112.477V228.472C112.477 227.36 113.501 226.832 114.621 226.832C115.701 226.832 116.445 227.448 116.445 228.736V234H117.925V228.592C117.925 226.512 116.597 225.608 115.029 225.608C113.701 225.608 112.845 226.24 112.437 226.928V225.728H111.005V234ZM123.568 225.568C121.128 225.568 119.76 227.32 119.76 229.896C119.76 232.672 121.328 234.16 123.568 234.16C125.32 234.16 126.664 233.112 126.88 231.448H125.592C125.448 232.28 124.728 233.032 123.592 233.032C122.008 233.032 121.176 231.792 121.176 229.88C121.176 227.768 122.16 226.76 123.576 226.76C124.712 226.76 125.432 227.472 125.576 228.344H126.888C126.664 226.656 125.344 225.568 123.568 225.568ZM129.968 230.208H135.896V229.664C135.896 227.152 134.6 225.568 132.272 225.568C129.864 225.568 128.472 227.336 128.472 229.944C128.472 232.584 130.064 234.16 132.376 234.16C133.984 234.16 135.536 233.272 135.84 231.584H134.448C134.24 232.52 133.408 233.016 132.352 233.016C130.744 233.016 129.968 231.776 129.968 230.208ZM129.976 229.208C129.968 227.976 130.704 226.688 132.264 226.688C133.76 226.688 134.472 227.784 134.472 229.208H129.976ZM137.599 234H139.359V232.112H137.599V234Z" fill="black"/>
<path d="M52.2467 72.432H49.9667L47.8147 80.072L45.6387 72.432H43.9507L41.7987 80.072L39.6467 72.432H37.3587L40.7667 84H42.5987L44.7907 76.44L46.9667 84H48.8307L52.2467 72.432ZM54.6401 80.4H60.2001V79.768C60.2001 77.288 58.8721 75.568 56.3441 75.568C53.8081 75.568 52.3281 77.472 52.3281 79.96C52.3281 82.528 54.0081 84.16 56.4641 84.16C58.1841 84.16 59.9121 83.144 60.1921 81.376H58.0881C57.8481 82.152 57.2081 82.472 56.4081 82.472C55.2881 82.472 54.6321 81.664 54.6401 80.4ZM54.6401 79.008C54.6321 78.096 55.2641 77.2 56.3361 77.2C57.4641 77.2 58.0161 78.008 58.0161 79.008H54.6401ZM64.1548 72.44H61.8828V74.544H64.1548V72.44ZM64.1388 75.728H61.9068V84H64.1388V75.728ZM69.9259 86.736C72.8699 86.736 74.3339 85.616 74.3339 84.064C74.3339 82.76 73.3419 81.832 71.3179 81.696C70.5899 81.648 69.9499 81.616 69.5979 81.592C68.6219 81.536 68.1499 81.496 68.1499 81.232C68.1499 81.064 68.3499 80.92 68.9739 80.888C69.1819 80.912 69.5979 80.92 69.7899 80.92C72.2619 80.92 73.5339 79.624 73.5339 78.184C73.5339 77.968 73.4699 77.608 73.3579 77.312L74.7819 77.08L74.7979 75.272C74.1019 75.56 72.8619 76.056 72.3659 76.248C71.7499 75.864 71.0939 75.6 69.9579 75.6C67.7099 75.6 66.0379 76.56 66.0379 78.192C66.0379 79.112 66.6139 80.072 67.7099 80.576C66.5659 80.776 66.0139 81.328 66.0139 81.912C66.0139 82.696 66.7739 82.992 67.0299 83.144C66.8699 83.232 65.4219 83.576 65.4219 84.704C65.4219 85.92 66.9819 86.736 69.9259 86.736ZM69.8619 79.616C68.9419 79.616 68.3819 79.088 68.3819 78.264C68.3819 77.408 68.9739 76.832 69.8619 76.832C70.7419 76.832 71.3259 77.4 71.3259 78.264C71.3259 79.104 70.7419 79.616 69.8619 79.616ZM70.3019 85.432C68.5259 85.432 67.7099 85.128 67.7099 84.432C67.7099 83.92 68.2059 83.448 68.9579 83.488L70.8539 83.616C71.6699 83.672 72.1099 84.008 72.1099 84.504C72.1099 85.104 71.5979 85.432 70.3019 85.432ZM76.1484 84H78.4844V78.72C78.4844 77.904 79.2364 77.488 80.0044 77.488C80.7644 77.488 81.3884 77.896 81.3884 78.648V84H83.7324V78.304C83.7324 76.632 82.4204 75.68 80.8444 75.68C79.5324 75.68 78.8684 76.352 78.4684 76.92V72.112H76.1484V84ZM90.3436 77.352V75.72H88.5036V73.232H86.8396L86.2476 75.728H84.8316V77.352H86.1756V81.856C86.1756 83.184 86.7356 84.088 88.9196 84.088C89.7276 84.088 90.1436 83.984 90.3676 83.888V82.448H89.2556C88.7436 82.448 88.5196 82.368 88.5196 81.76L88.5036 77.352H90.3436ZM93.7182 80.4H99.2782V79.768C99.2782 77.288 97.9502 75.568 95.4222 75.568C92.8862 75.568 91.4062 77.472 91.4062 79.96C91.4062 82.528 93.0862 84.16 95.5422 84.16C97.2622 84.16 98.9902 83.144 99.2702 81.376H97.1662C96.9262 82.152 96.2862 82.472 95.4862 82.472C94.3662 82.472 93.7102 81.664 93.7182 80.4ZM93.7182 79.008C93.7102 78.096 94.3422 77.2 95.4142 77.2C96.5422 77.2 97.0942 78.008 97.0942 79.008H93.7182ZM104.089 84.16C105.721 84.16 106.441 83.216 106.737 82.304L107.001 84H108.697V72.112H106.353V76.848C105.953 76.144 105.041 75.568 103.857 75.568C101.729 75.568 100.569 77.224 100.569 79.816C100.569 82.552 101.865 84.16 104.089 84.16ZM104.601 82.48C103.529 82.48 102.849 81.624 102.849 79.784C102.849 77.968 103.601 77.264 104.617 77.264C105.777 77.264 106.337 78.096 106.353 79.784C106.353 81.736 105.777 82.48 104.601 82.48ZM110.575 84H112.335V82.112H110.575V84ZM118.014 84H125.086L125.286 82.68L119.654 82.664L120.214 78.808H125.134L125.318 77.512H120.398L120.942 73.736H126.414L126.614 72.432H119.694L118.014 84ZM127.117 84H128.549L129.373 78.344C129.541 77.2 130.557 76.728 131.341 76.728C132.053 76.728 132.837 77.216 132.693 78.176L131.861 84H133.293L134.085 78.512C134.277 77.176 135.213 76.728 136.093 76.728C136.909 76.728 137.605 77.128 137.397 78.608L136.621 84H138.053L138.853 78.48C139.189 76.168 137.845 75.568 136.733 75.568C135.757 75.568 134.781 76.056 134.149 76.864C133.877 75.984 132.941 75.568 132.093 75.568C130.869 75.568 130.061 76.168 129.533 76.88L129.701 75.728H128.309L127.117 84ZM140.094 86.576H141.558L142.094 82.504C142.342 83.208 142.95 84.16 144.342 84.16C146.398 84.16 147.854 82.592 148.23 79.752C148.614 76.904 147.486 75.568 145.606 75.568C144.182 75.568 143.27 76.488 142.822 77.168L142.99 75.728H141.55L140.094 86.576ZM144.222 83.008C142.766 83.008 142.214 81.584 142.446 79.8C142.686 77.976 143.606 76.72 145.054 76.72C146.462 76.72 147.078 77.92 146.83 79.8C146.542 82 145.494 83.008 144.222 83.008ZM149.681 84H151.129L151.889 78.456C152.033 77.368 153.041 76.832 154.097 76.832C155.113 76.832 155.737 77.4 155.601 78.36L154.833 84H156.281L157.089 78.072C157.297 76.616 156.217 75.624 154.689 75.624C153.433 75.624 152.561 76.208 152.081 76.888L152.737 72.112H151.313L149.681 84ZM160.737 84.16C161.849 84.16 162.841 83.784 163.641 82.496L163.537 84H164.769L165.601 78.224C165.833 76.6 164.937 75.568 162.905 75.568C161.009 75.568 159.641 76.624 159.345 78.064H160.617C160.937 77.128 161.801 76.664 162.673 76.656C163.737 76.656 164.345 77.248 164.201 78.304L164.105 78.952L162.729 78.992C160.033 79.056 158.753 79.928 158.497 81.76C158.289 83.272 159.209 84.16 160.737 84.16ZM161.321 83.096C160.377 83.096 159.793 82.552 159.913 81.616C160.089 80.392 161.057 79.92 162.833 79.888L163.961 79.864L163.761 81.28C163.625 82.2 162.361 83.096 161.321 83.096ZM169.76 84.16C171.68 84.16 172.936 83.224 173.152 81.704C173.264 80.888 173.016 79.88 171.6 79.48L170.104 79.064C169.264 78.84 168.856 78.544 168.936 77.952C169.056 77.072 169.808 76.656 170.8 76.656C171.752 76.656 172.264 77.152 172.256 77.944H173.536C173.704 76.392 172.68 75.568 170.96 75.568C168.96 75.568 167.8 76.592 167.6 78.04C167.44 79.272 168.168 79.904 169.4 80.224L170.96 80.648C171.648 80.824 171.928 81.176 171.84 81.784C171.72 82.648 170.968 83.056 169.912 83.056C168.928 83.056 168.208 82.56 168.144 81.592H166.832C166.816 83.376 168.112 84.16 169.76 84.16ZM176.181 73.976H177.661L177.877 72.44H176.397L176.181 73.976ZM174.813 84H176.221L177.381 75.728H175.981L174.813 84ZM178.103 84H184.271L184.431 82.912H179.991L185.287 76.648L185.399 75.728H179.559L179.407 76.816H183.511L178.215 83.08L178.103 84ZM189.326 84.16C190.854 84.16 192.47 83.272 192.998 81.584H191.646C191.31 82.52 190.462 83.016 189.47 83.016C187.958 83.016 187.398 81.776 187.638 80.208H193.246L193.318 79.664C193.686 77.152 192.686 75.568 190.462 75.568C188.174 75.568 186.59 77.336 186.222 79.944C185.838 82.584 187.118 84.16 189.326 84.16ZM187.782 79.208C187.95 77.976 188.83 76.688 190.286 76.688C191.694 76.688 192.206 77.784 192.006 79.208H187.782ZM197.613 84.16C199.437 84.16 200.221 82.952 200.517 82.304L200.445 84H201.549L203.141 72.112H201.677L201.013 77.04C200.829 76.504 200.125 75.568 198.645 75.568C196.517 75.568 195.205 77.256 194.861 79.832C194.485 82.664 195.557 84.16 197.613 84.16ZM198.021 83.024C196.629 83.024 196.045 81.832 196.325 79.76C196.605 77.64 197.613 76.72 198.893 76.72C200.437 76.72 200.885 77.824 200.653 79.76C200.341 82.072 199.589 83.024 198.021 83.024ZM204.232 84H205.992V82.112H204.232V84Z" fill="white"/>
</g>
<defs>
<filter id="filter0_d" x="0" y="0" width="244" height="262" filterUnits="userSpaceOnUse" color-interpolation-filters="sRGB">
<feFlood flood-opacity="0" result="BackgroundImageFix"/>
<feColorMatrix in="SourceAlpha" type="matrix" values="0 0 0 0 0 0 0 0 0 0 0 0 0 0 0 0 0 0 127 0"/>
<feOffset dy="4"/>
<feGaussianBlur stdDeviation="1"/>
<feColorMatrix type="matrix" values="0 0 0 0 0 0 0 0 0 0 0 0 0 0 0 0 0 0 0.1 0"/>
<feBlend mode="normal" in2="BackgroundImageFix" result="effect1_dropShadow"/>
<feBlend mode="normal" in="SourceGraphic" in2="effect1_dropShadow" result="shape"/>
</filter>
</defs>
</svg>
