<svg width="960" height="256" viewBox="0 0 960 256" fill="none" xmlns="http://www.w3.org/2000/svg">
<rect width="960" height="256" rx="8" fill="#6C757D"/>
<path d="M118.561 87H124.421L126.821 80.3H137.241L139.601 87H145.421L135.081 58.08H128.901L118.561 87ZM128.141 75.2L132.001 63.7L135.821 75.2H128.141ZM155.163 87.4C158.063 87.4 160.163 86.44 161.583 83.44L162.063 87H166.943V72.46C166.943 68.4 164.523 65.92 158.203 65.92C153.023 65.92 149.283 68 149.063 72.48H153.923C154.503 70.58 156.223 69.88 157.923 69.86C160.263 69.84 161.343 70.9 161.343 72.8V74.04L158.743 74.08C151.443 74.16 148.183 76.56 148.183 81.08C148.183 85.12 151.223 87.4 155.163 87.4ZM157.143 83.56C155.223 83.56 153.723 82.42 153.723 80.5C153.723 77.98 156.323 77.12 159.243 77.08L161.343 77.04V80.1C161.323 81.88 159.243 83.56 157.143 83.56ZM181.443 87H192.403C200.303 87 203.783 84.5 203.783 79.16C203.783 76.48 202.903 73.46 198.083 72.18C201.843 70.6 203.103 68.54 203.103 65.66C203.103 60.78 199.503 58.08 191.923 58.08H181.443V87ZM187.263 70.04V62.6H192.443C195.363 62.6 197.463 63.92 197.463 66.42C197.463 68.96 195.223 70.04 192.843 70.04H187.263ZM187.263 82.48V74.68H192.843C195.703 74.68 197.863 76.02 197.863 78.58C197.863 80.96 196.023 82.48 192.523 82.48H187.263ZM219.606 87.4C225.366 87.4 228.406 83.1 228.406 76.54C228.406 69.8 225.286 65.92 220.166 65.92C217.206 65.92 214.946 67.36 213.946 69.12V57.28H208.086V87H212.326L212.986 82.76C213.726 85.04 215.526 87.4 219.606 87.4ZM218.326 83.2C215.366 83.2 213.946 81.34 213.946 76.46C213.966 72.24 215.366 70.16 218.286 70.16C221.006 70.16 222.706 72.16 222.706 76.46C222.706 81.3 220.846 83.2 218.326 83.2ZM253.848 57.68C245.708 57.68 240.748 63.2 240.748 72.3C240.748 81.4 245.768 87.4 253.848 87.4C261.988 87.4 264.928 82.5 265.628 77H259.508C258.968 80.02 257.008 82.6 253.668 82.6C249.628 82.6 247.168 79.58 247.168 72.38C247.168 65.24 249.628 62.48 253.668 62.48C257.008 62.48 258.968 64.64 259.508 67.66H265.628C265.048 61.98 260.368 57.68 253.848 57.68ZM279.117 65.92C273.097 65.92 269.137 70.32 269.137 76.74C269.137 83.36 273.357 87.4 279.117 87.4C284.177 87.4 287.517 84.06 287.777 79.78H283.037C282.797 81.2 281.637 83.26 279.277 83.26C276.317 83.26 274.577 80.74 274.577 76.7C274.577 72.44 276.437 70.36 279.157 70.36C281.557 70.36 282.717 72.22 282.977 73.86H287.837C287.517 69.42 284.297 65.92 279.117 65.92ZM301.638 58.08V87H310.078C320.438 87 325.278 81.4 325.278 72.4C325.278 63.76 320.798 58.38 310.278 58.12C307.798 58.06 302.238 58.08 301.638 58.08ZM307.518 62.8H310.278C315.758 62.8 319.178 65.6 319.178 72.36C319.178 79.64 315.158 82.28 310.198 82.28H307.518V62.8ZM337.508 87.4C341.588 87.4 343.388 85.04 344.128 82.76L344.788 87H349.028V57.28H343.168V69.12C342.168 67.36 339.888 65.92 336.928 65.92C331.608 65.92 328.708 70.06 328.708 76.54C328.708 83.38 331.948 87.4 337.508 87.4ZM338.788 83.2C336.108 83.2 334.408 81.06 334.408 76.46C334.408 71.92 336.288 70.16 338.828 70.16C341.728 70.16 343.128 72.24 343.168 76.46C343.168 81.34 341.728 83.2 338.788 83.2ZM363.787 87H383.847V82.04L369.607 82.02V74.84H381.787V70.02H369.647V63H383.627L383.647 58.08H363.787V87ZM393.26 78H407.16V76.42C407.16 70.22 403.84 65.92 397.52 65.92C391.18 65.92 387.48 70.68 387.48 76.9C387.48 83.32 391.68 87.4 397.82 87.4C402.12 87.4 406.44 84.86 407.14 80.44H401.88C401.28 82.38 399.68 83.18 397.68 83.18C394.88 83.18 393.24 81.16 393.26 78ZM393.26 74.52C393.24 72.24 394.82 70 397.5 70C400.32 70 401.7 72.02 401.7 74.52H393.26ZM421.013 58.08V87H426.893V75H438.833V70.22H426.893V62.96H440.673L440.693 58.08H421.013ZM457.345 66.32H452.865V64.32C452.865 62.64 453.325 61.96 454.805 61.96H457.545L457.505 58.08H452.765C449.185 58.08 447.125 60 447.125 63.34V66.32H443.305V70.38H447.125V87H452.985V70.38H457.345V66.32ZM482.128 87.4C486.808 87.4 489.108 85.2 490.608 83.22V87H494.588V71.9L482.488 71.84V75.88H488.468L488.248 77.64C487.948 79.7 485.968 82.26 482.548 82.26C478.928 82.26 475.468 80.1 475.468 72.46C475.468 65.4 478.448 62.62 482.308 62.62C485.488 62.62 487.568 64.9 488.108 67.66H494.268C494.048 62.52 489.308 57.68 482.448 57.68C474.448 57.68 469.108 63.42 469.108 72.62C469.108 81.66 474.168 87.4 482.128 87.4ZM509.639 93.84C516.999 93.84 520.659 91.04 520.659 87.16C520.659 83.9 518.179 81.58 513.119 81.24C511.299 81.12 509.699 81.04 508.819 80.98C506.379 80.84 505.199 80.74 505.199 80.08C505.199 79.66 505.699 79.3 507.259 79.22C507.779 79.28 508.819 79.3 509.299 79.3C515.479 79.3 518.659 76.06 518.659 72.46C518.659 71.92 518.499 71.02 518.219 70.28L521.779 69.7L521.819 65.18C520.079 65.9 516.979 67.14 515.739 67.62C514.199 66.66 512.559 66 509.719 66C504.099 66 499.919 68.4 499.919 72.48C499.919 74.78 501.359 77.18 504.099 78.44C501.239 78.94 499.859 80.32 499.859 81.78C499.859 83.74 501.759 84.48 502.399 84.86C501.999 85.08 498.379 85.94 498.379 88.76C498.379 91.8 502.279 93.84 509.639 93.84ZM509.479 76.04C507.179 76.04 505.779 74.72 505.779 72.66C505.779 70.52 507.259 69.08 509.479 69.08C511.679 69.08 513.139 70.5 513.139 72.66C513.139 74.76 511.679 76.04 509.479 76.04ZM510.579 90.58C506.139 90.58 504.099 89.82 504.099 88.08C504.099 86.8 505.339 85.62 507.219 85.72L511.959 86.04C513.999 86.18 515.099 87.02 515.099 88.26C515.099 89.76 513.819 90.58 510.579 90.58ZM553.439 74.58V87H559.279V58.08H553.439V69.68H540.779V58.08H534.959V87H540.779V74.58H553.439ZM565 87H570.84V73.8C570.84 71.76 572.72 70.72 574.64 70.72C576.54 70.72 578.1 71.74 578.1 73.62V87H583.96V72.76C583.96 68.58 580.68 66.2 576.74 66.2C573.46 66.2 571.8 67.88 570.8 69.3V57.28H565V87ZM598.474 58.08V87H604.294V58.08H598.474ZM615.719 58.1H610.039V63.36H615.719V58.1ZM615.679 66.32H610.099V87H615.679V66.32ZM640.707 78.96V58.08H634.867V77.4C634.867 80.6 634.127 81.94 631.447 81.94C630.227 81.94 629.227 81.6 628.447 81.42L628.327 86.76C629.247 87 631.467 87.4 633.307 87.4C639.287 87.4 640.707 84.5 640.707 78.96ZM652.36 58.1H646.4V63.36H652.36V58.1ZM652.3 86.86V66.32H646.48V86.8C646.48 88.14 645.94 88.78 644.28 89L642.68 89.16L642.7 93.06C642.7 93.06 643.18 93.64 645.34 93.64C650.24 93.64 652.3 91.38 652.3 86.86ZM691.467 87L681.627 69.28L690.407 58.08H683.707L673.167 71.32V58.08H667.107V87H673.167V78.7L677.447 73.54L685.107 87H691.467ZM715.019 87L707.239 74.56L714.759 66.32H708.479L700.879 74.9V57.28H695.039V87H700.879V81L703.619 78.08L709.199 87H715.019ZM727.967 58.08V87H746.407V82.06H733.847V58.08H727.967ZM756.913 87.36C757.693 87.36 758.553 87.14 759.353 86.86V83.26L758.372 83.2C756.573 83 756.033 82 756.033 80.48V57.28H750.312V81.2C750.312 84.18 750.793 87.36 756.913 87.36ZM773.24 87H779.12V64.98L786.04 87H790.62L797.58 64.88V87H803.48V58.08H795.02L788.34 78.7L781.72 58.08H773.24V87ZM809.219 87H815.059V73.76C815.059 71.68 816.939 70.68 818.539 70.68C820.079 70.68 821.819 71.68 821.819 73.56V87H827.639V73.76C827.639 71.56 829.599 70.68 831.139 70.68C832.799 70.68 834.459 71.58 834.459 74.08V87H840.299V73.36C840.299 67.78 836.619 65.92 833.539 65.92C830.859 65.92 828.619 67.36 827.279 69.24C826.059 67.06 823.599 65.92 821.479 65.92C818.239 65.92 816.179 67.42 814.939 69.24V66.32H809.219V87ZM131.703 114.08V136.56L116.423 114.08H112.883V143H116.583V120.2L132.103 143H135.403V114.08H131.703ZM142.279 143H145.959V129.18C145.959 126.4 148.519 125.08 151.319 125.08C154.019 125.08 155.879 126.62 155.879 129.84V143H159.579V129.48C159.579 124.28 156.259 122.02 152.339 122.02C149.019 122.02 146.879 123.6 145.859 125.32V122.32H142.279V143ZM186.751 143.4C194.471 143.4 199.231 138 199.231 128.6C199.231 119.1 194.431 113.68 186.751 113.68C179.071 113.68 174.191 119.12 174.191 128.6C174.191 138.04 179.011 143.4 186.751 143.4ZM186.751 140.18C181.451 140.18 178.271 136.62 178.271 128.64C178.271 120.6 181.451 116.9 186.751 116.9C192.051 116.9 195.171 120.56 195.171 128.64C195.171 136.6 192.111 140.18 186.751 140.18ZM212.473 143.4C218.633 143.4 221.893 139.06 221.893 132.74C221.893 125.78 218.193 121.92 212.493 121.92C206.373 121.92 202.993 126.26 202.993 132.74C202.993 139.64 206.733 143.4 212.473 143.4ZM212.493 140.48C208.353 140.48 206.673 137.02 206.673 132.66C206.673 127.74 208.733 124.82 212.493 124.82C216.553 124.82 218.233 128.24 218.233 132.66C218.233 137.52 216.193 140.48 212.493 140.48ZM237.023 143H240.823V132.3H247.303C253.383 132.3 257.523 129 257.523 123.22C257.523 117.26 253.003 114.08 246.803 114.08H237.023V143ZM240.803 129.18V117.16H247.043C251.103 117.16 253.923 119.16 253.923 123C253.923 126.8 251.183 129.18 247.223 129.18H240.803ZM261.732 149.44H265.452V139.26C266.312 141.02 268.252 143.4 271.952 143.4C277.392 143.4 280.632 139.48 280.632 132.38C280.632 125.26 277.192 121.92 272.252 121.92C268.452 121.92 266.392 124.22 265.452 125.92L265.412 122.32H261.732V149.44ZM271.252 140.52C267.412 140.52 265.412 136.96 265.412 132.5C265.412 127.94 267.412 124.8 271.252 124.8C275.032 124.8 277.052 127.8 277.052 132.5C277.052 138 274.652 140.52 271.252 140.52ZM294.113 128.6C294.113 138.18 298.993 143.4 306.653 143.4C307.733 143.4 308.753 143.28 310.073 143.04C312.593 147.12 316.073 147.84 318.933 147.84V144.7C316.573 144.62 314.493 143.6 313.513 141.42C317.473 138.86 319.153 134.56 319.153 128.6C319.153 119.06 314.353 113.68 306.653 113.68C298.953 113.68 294.113 119.06 294.113 128.6ZM298.213 128.68C298.213 120.72 301.213 116.9 306.653 116.9C312.093 116.9 315.113 120.72 315.113 128.62C315.113 136.64 312.033 140.18 306.653 140.18C301.293 140.18 298.213 136.64 298.213 128.68ZM342.343 149.44V122.32H338.643L338.603 125.92C337.663 124.22 335.603 121.92 331.803 121.92C326.403 121.92 323.423 125.8 323.423 132.38C323.423 140.06 327.123 143.4 332.103 143.4C335.803 143.4 337.743 141.02 338.603 139.26V149.44H342.343ZM332.803 140.52C329.023 140.52 327.003 137.5 327.003 132.5C327.003 127.32 329.403 124.8 332.803 124.8C336.643 124.8 338.643 127.94 338.643 132.5C338.643 136.96 336.643 140.52 332.803 140.52ZM379.617 143L373.937 129.88C376.697 128.84 379.537 126.68 379.537 121.98C379.537 117.06 376.397 114.08 370.137 114.08H358.937V143H362.637V130.54H370.417L375.697 143H379.617ZM368.937 127.48H362.637V117.1H369.817C373.517 117.1 375.757 118.8 375.757 122.2C375.757 125.7 373.277 127.48 368.937 127.48ZM392.688 143.4C397.728 143.4 400.648 141.06 400.648 137.26C400.648 135.22 399.608 132.7 395.808 131.7L391.648 130.66C389.368 130.1 388.168 129.36 388.168 127.88C388.168 125.68 389.988 124.64 392.628 124.64C395.188 124.64 396.708 125.88 396.988 127.86H400.268C400.128 123.98 397.148 121.92 392.668 121.92C387.428 121.92 384.768 124.48 384.788 128.1C384.808 131.18 386.948 132.76 390.288 133.56L394.568 134.62C396.448 135.06 397.328 135.94 397.328 137.46C397.328 139.62 395.468 140.64 392.668 140.64C390.048 140.64 387.968 139.4 387.448 136.98H384.088C384.688 141.44 388.368 143.4 392.688 143.4ZM425.671 143.4C432.531 143.4 436.551 139.9 436.551 135.54C436.551 132.4 435.331 128.58 429.571 127.32L424.071 126C420.291 125.08 419.111 123.88 419.111 121.78C419.111 118.54 422.291 116.86 425.551 116.86C428.971 116.86 431.931 118.18 432.311 122.1H436.131C436.091 117.72 432.471 113.72 425.531 113.72C419.511 113.72 415.191 117.14 415.211 122.14C415.251 126.1 417.811 128.46 422.071 129.4L427.751 130.72C430.951 131.46 432.771 132.96 432.771 135.58C432.771 138.52 429.711 140.32 425.651 140.32C422.011 140.32 418.951 138.6 418.231 135.32H414.351C415.091 140.64 420.211 143.4 425.671 143.4ZM449.484 143.4C454.524 143.4 457.444 141.06 457.444 137.26C457.444 135.22 456.404 132.7 452.604 131.7L448.444 130.66C446.164 130.1 444.964 129.36 444.964 127.88C444.964 125.68 446.784 124.64 449.424 124.64C451.984 124.64 453.504 125.88 453.784 127.86H457.064C456.924 123.98 453.944 121.92 449.464 121.92C444.224 121.92 441.564 124.48 441.584 128.1C441.604 131.18 443.744 132.76 447.084 133.56L451.364 134.62C453.244 135.06 454.124 135.94 454.124 137.46C454.124 139.62 452.264 140.64 449.464 140.64C446.844 140.64 444.764 139.4 444.244 136.98H440.884C441.484 141.44 445.164 143.4 449.484 143.4ZM469.748 117.48H479.088V143H482.808V117.48H491.628V114.08H469.748V117.48ZM505.103 125.02V122.3H500.443V116.3H497.723L496.823 122.32H493.363V125.02H496.723V138C496.723 141.32 497.863 143.1 502.163 143.1C503.663 143.1 504.703 142.96 505.223 142.76V140.28H502.963C501.023 140.28 500.443 140.08 500.443 137.88V125.02H505.103ZM541.757 133V114.08H538.037V133.18C538.037 137.9 535.517 140.16 531.177 140.16C526.837 140.16 524.457 137.86 524.457 133.18V114.08H520.617V132.62C520.617 139.6 523.677 143.4 531.177 143.4C538.597 143.4 541.757 139.66 541.757 133ZM555.465 143.4C558.385 143.42 560.905 142.14 561.665 139.04L562.045 143H564.985V122.32H561.305V135.78C561.305 138.92 559.285 140.52 556.245 140.52C552.865 140.52 551.225 138.68 551.225 135.98V122.32H547.525V136.36C547.525 141.02 551.165 143.36 555.465 143.4ZM602.757 114.08H599.097L590.237 138.8L581.377 114.08H577.717L588.017 143H592.477L602.757 114.08ZM622.951 122.32H619.491L613.971 138.36H613.631L608.131 122.32H604.651L612.131 143H615.511L622.951 122.32ZM669.759 114.08H666.039L659.519 137.1L653.019 114.08H650.119L643.599 137.1L637.199 114.08H633.459L641.799 143H645.119L651.559 120.58L657.899 143H661.319L669.759 114.08ZM700.944 122.32H697.484L692.944 138.18H692.624L687.784 122.32H684.984L680.324 138.22H680.004L675.284 122.32H671.844L678.244 143H681.844L686.344 127.74L691.044 143H694.684L700.944 122.32ZM737.56 143L727.42 127.86L736.66 114.08H732.58L725.44 125.1L718.24 114.08H713.68L723.14 128.24L713.34 143H717.42L725.14 131.08L732.98 143H737.56ZM760.812 143L752.852 132.26L760.212 122.32H756.172L750.792 129.58L745.412 122.32H741.392L748.712 132.26L740.752 143H744.792L750.772 134.9L756.792 143H760.812ZM785.89 114.08H781.83L774.27 127.38L766.59 114.08H762.55L772.41 130.68V143H776.09V130.7L785.89 114.08ZM789.69 149.6C792.55 149.6 794.71 148.5 796.33 144.56L805.03 122.32H801.41L795.35 138.28L789.25 122.32H785.51L793.59 142.5L792.87 144.46C792.45 145.48 791.71 146.84 788.63 146.72L786.51 146.68V149.08C786.51 149.08 787.27 149.6 789.69 149.6ZM808.517 143H829.457V139.74H813.557L829.537 116.04V114.08H809.197V117.3H824.357L808.517 140.96V143ZM833.239 143H849.419V140.28H837.659L849.319 124.62V122.32H833.739V125.04H844.919L833.239 140.7V143ZM245.266 199H246.986V170.08H245.586C245.586 172.28 244.666 173.08 239.266 173.08V174.64H245.266V199ZM265.806 199H283.286V197.36H267.526V196.48C267.526 187.08 282.946 187.92 282.946 177.4C282.946 172.76 279.546 169.68 274.426 169.68C268.526 169.68 265.226 173.56 265.086 178.04H266.846C266.986 174.28 269.626 171.36 274.286 171.36C278.526 171.36 281.266 173.76 281.266 177.36C281.266 186.68 265.806 186 265.806 196.48V199ZM298.461 178.04H300.221C300.221 173.56 304.061 171.32 307.501 171.32C312.461 171.32 314.861 174.12 314.861 176.84C314.861 180 311.241 182.96 306.741 182.96H304.301V184.6H306.741C311.661 184.6 315.741 186.84 315.741 191.36C315.741 195.2 312.421 197.8 307.461 197.8C303.101 197.8 300.181 195.2 299.661 191.32H297.881C298.141 196.16 302.261 199.36 307.261 199.44C313.461 199.52 317.501 196.12 317.501 191.24C317.501 187.64 315.261 184.84 310.861 183.64C314.601 182.32 316.621 179.72 316.621 176.84C316.621 172.56 312.961 169.68 307.421 169.68C302.621 169.68 298.461 173.04 298.461 178.04ZM345.76 170.08L332 188.68V190.64H345.92V199H347.56V190.64H352.68V189H347.56V170.08H345.76ZM333.68 189L345.76 172.76V189H333.68ZM368.994 170.08L367.714 185.48H369.694C372.094 182.2 374.314 181.72 377.254 181.72C381.154 181.72 384.794 184.64 384.794 189.56C384.794 194.84 381.634 197.88 376.874 197.88C372.714 197.88 369.574 195.28 368.354 191.4H366.514C367.674 196.2 371.794 199.44 376.794 199.44C382.634 199.44 386.554 195.44 386.554 189.52C386.554 183.28 381.914 180.16 377.254 180.16C374.234 180.16 371.474 181.04 369.774 183.4L370.674 171.68H384.954V170.08H368.994ZM411.643 169.68C404.603 169.68 401.163 175.8 401.163 184.88C401.163 194.2 405.203 199.44 411.243 199.44C417.043 199.44 420.363 195.48 420.363 189.56C420.363 183.56 416.643 180.12 411.103 180.12C407.003 180.12 403.643 182.92 402.803 186.88C402.403 176.28 405.563 171.24 411.643 171.24C415.203 171.24 417.743 173.36 418.583 176.4H420.203C419.243 172.16 415.803 169.68 411.643 169.68ZM411.283 181.76C416.323 181.76 418.583 184.92 418.583 189.64C418.583 194.52 415.683 197.8 411.363 197.8C406.683 197.8 403.603 193.88 403.683 188.88C403.683 184.8 407.363 181.76 411.283 181.76ZM434.852 170.08V171.68H451.812C445.492 181.56 441.332 193.12 440.012 199H441.772C442.892 193.52 448.132 180.08 453.852 171.68V170.08H434.852ZM478.71 169.68C473.59 169.68 469.63 172.48 469.63 177.32C469.63 180.64 471.57 182.8 474.51 183.92C471.35 184.48 468.35 187.96 468.35 191.36C468.35 196.2 472.41 199.44 478.71 199.44C485.07 199.44 489.13 196.2 489.13 191.36C489.13 187.96 486.11 184.48 482.95 183.92C485.91 182.8 487.79 180.64 487.79 177.32C487.79 172.48 483.89 169.68 478.71 169.68ZM478.71 183.04C474.35 183.04 471.41 180.92 471.41 177.24C471.41 173.6 474.35 171.28 478.71 171.28C483.09 171.28 486.03 173.56 486.03 177.24C486.03 180.92 483.13 183.04 478.71 183.04ZM478.71 197.88C473.55 197.88 470.11 195.36 470.11 191.48C470.11 187.64 473.55 184.84 478.71 184.84C483.93 184.84 487.37 187.64 487.37 191.48C487.37 195.36 483.93 197.88 478.71 197.88ZM512.462 199.44C519.502 199.44 523.102 193.36 523.102 184.28C523.102 174.96 519.102 169.68 513.062 169.68C507.262 169.68 503.982 173.68 503.982 179.6C503.982 185.6 507.662 189.04 513.222 189.04C517.302 189.04 520.662 186.24 521.502 182.28C521.902 192.88 518.542 197.88 512.462 197.88C508.902 197.88 506.182 195.84 505.342 192.8H503.702C504.662 197.04 508.302 199.44 512.462 199.44ZM513.022 187.4C507.982 187.4 505.742 184.24 505.742 179.52C505.742 174.64 508.642 171.32 512.942 171.32C517.622 171.32 520.702 175.28 520.622 180.28C520.622 184.36 516.962 187.4 513.022 187.4ZM547.166 169.68C541.526 169.68 537.686 174.56 537.686 184.68C537.686 194.68 541.446 199.44 547.126 199.44C552.806 199.44 556.646 194.64 556.646 184.6C556.646 174.52 552.806 169.68 547.166 169.68ZM547.206 197.8C542.406 197.8 539.486 193.8 539.486 184.6C539.486 175.32 542.406 171.32 547.166 171.32C551.926 171.32 554.766 175.28 554.766 184.6C554.766 193.84 552.006 197.8 547.206 197.8ZM574.581 170.08H572.541L572.901 193.24H574.181L574.581 170.08ZM574.741 195.92H572.341V199H574.741V195.92ZM613.599 200.4L612.539 199.04C610.459 200.48 608.739 201.68 605.199 201.68C596.119 201.68 591.619 195.64 591.619 188.92C591.619 181.28 596.879 174.88 605.159 174.88C610.539 174.88 616.799 178.08 616.799 185.96C616.799 190.88 614.359 194.16 611.339 194.16C609.739 194.16 609.099 193.28 609.539 190.64L611.079 181.48H609.439L608.979 183.16C608.939 183.36 608.779 183.36 608.739 183.28C607.859 181.56 606.179 180.48 604.059 180.48C599.859 180.48 596.759 184.44 596.759 189.52C596.759 193.68 599.279 196.4 601.979 196.4C604.699 196.4 606.379 195.16 607.539 193.52C607.799 193.24 607.899 193.24 607.979 193.6C608.339 195.32 609.439 195.84 611.299 195.84C615.459 195.84 618.739 191.72 618.739 185.72C618.739 177 611.759 173.24 605.199 173.24C596.079 173.24 589.739 180.4 589.739 188.84C589.739 196.84 595.319 203.4 604.699 203.4C607.979 203.4 610.999 202.32 613.599 200.4ZM598.699 189.48C598.699 185.48 600.819 182.2 604.139 182.2C606.379 182.2 608.699 184.16 608.019 188.64C607.459 191.96 604.979 194.68 602.179 194.68C600.019 194.68 598.699 192.76 598.699 189.48ZM643.298 165.56V169.74C637.978 170.08 634.658 173.4 634.658 177.72C634.658 181.16 637.178 183.08 641.338 184.36L646.578 185.96C650.258 187.08 651.858 189.04 651.858 192C651.858 195.56 647.738 197.72 643.898 197.72C639.658 197.72 636.458 195.88 635.418 191.96L633.738 192.32C634.558 196.52 638.138 199.08 642.938 199.38V203.56H644.738V199.38C649.938 199.08 653.578 195.94 653.578 191.92C653.578 188.76 651.898 185.92 647.378 184.44L642.418 182.84C637.898 181.36 636.378 180.16 636.378 177.68C636.378 173.28 640.658 171.36 644.098 171.36C648.018 171.36 650.618 173.4 651.418 177.72L653.018 177.4C652.638 173.64 649.898 170.16 645.098 169.76V165.56H643.298ZM677.438 169.64C673.678 169.64 671.078 172.28 671.078 175.6C671.078 178.16 672.358 180.56 674.798 183.08C670.438 185.4 668.358 188.12 668.358 191.72C668.358 196.2 671.518 199.2 676.478 199.2C679.598 199.2 682.478 197.96 685.198 195.4L688.358 199H690.278L686.238 194.24C688.318 191.68 689.638 188.96 689.758 184.28H688.438C688.318 189.08 686.278 192.2 685.318 193.16L677.158 183.64C683.878 180.28 684.438 177.16 684.438 175.68C684.438 171.92 681.038 169.64 677.438 169.64ZM677.438 171.16C679.998 171.16 682.798 172.28 682.798 175.6C682.798 177.56 681.718 179.4 676.278 182.44L675.678 181.76C674.878 180.88 672.718 178.2 672.718 175.56C672.718 173.28 674.318 171.16 677.438 171.16ZM675.718 184.24L684.318 194.28C682.278 196.28 679.558 197.72 676.638 197.72C672.878 197.72 669.998 195.36 669.998 191.88C669.998 188.68 672.278 186.12 675.718 184.24ZM703.861 174.68L705.501 175.44C706.381 173.24 709.661 171.32 712.701 171.32C716.621 171.32 719.141 173.4 719.141 176.76C719.141 183.24 711.061 185.36 711.061 193.16H712.701C712.701 185.88 720.941 183.8 720.941 176.76C720.941 172.44 717.741 169.68 712.701 169.68C708.981 169.68 705.541 171.64 703.861 174.68ZM713.101 195.92H710.701V199H713.101V195.92Z" fill="white"/>
</svg>
