<svg width="120" height="48" viewBox="0 0 120 48" fill="none" xmlns="http://www.w3.org/2000/svg">
<path d="M2.96997 8.18799V40H24.244V32.96H11.528V8.18799H2.96997Z" fill="white"/>
<path d="M38.0655 40.44C45.1495 40.44 49.6375 35.556 49.6375 28.78C49.6375 21.872 45.2155 16.812 38.1095 16.812C31.3335 16.812 26.5375 21.608 26.5375 28.78C26.5375 35.6 31.0255 40.44 38.0655 40.44ZM38.1095 34.236C35.3375 34.236 34.8535 30.892 34.8535 28.472C34.8535 26.008 35.3375 22.928 38.1095 22.928C40.8375 22.928 41.3215 26.008 41.3215 28.472C41.3215 30.892 40.8375 34.236 38.1095 34.236Z" fill="white"/>
<path d="M63.9124 47.524C72.5364 47.524 76.8924 44.268 76.8924 39.868C76.8924 36.348 74.1204 33.488 67.8284 33.048C65.8924 32.916 64.0884 32.828 63.2964 32.784C61.0524 32.652 59.6444 32.652 59.6444 32.036C59.6444 31.816 59.8204 31.728 60.2604 31.64C61.0084 31.728 62.5924 31.772 63.2964 31.772C70.5124 31.772 74.3404 27.812 74.3404 23.94C74.3404 23.676 74.2524 22.84 74.0764 22.18L77.9484 21.652L77.9924 15.58C75.4844 16.636 72.2284 17.868 70.5124 18.528C68.8404 17.648 67.0804 16.9 63.8244 16.9C57.6204 16.9 52.2524 19.408 52.2524 23.984C52.2524 26.404 53.8364 29.308 57.1364 30.76C53.5724 31.244 51.9004 32.96 51.9004 34.764C51.9004 37.272 54.4524 38.24 55.1124 38.592C54.7604 38.68 50.5804 39.34 50.5804 42.288C50.5804 45.192 54.9364 47.524 63.9124 47.524ZM63.5604 27.284C61.9324 27.284 60.8324 26.008 60.8324 24.292C60.8324 22.576 61.9324 21.08 63.5604 21.08C65.1884 21.08 66.2884 22.576 66.2884 24.292C66.2884 26.008 65.1884 27.284 63.5604 27.284ZM65.2324 43.036C60.8764 43.036 58.8964 42.728 58.8964 41.276C58.8964 40.528 59.4684 39.516 61.8444 39.648L65.9804 39.912C67.7404 40.044 68.7964 40.66 68.7964 41.628C68.7964 42.464 68.2244 43.036 65.2324 43.036Z" fill="white"/>
<path d="M90.4014 40.44C97.4854 40.44 101.973 35.556 101.973 28.78C101.973 21.872 97.5514 16.812 90.4454 16.812C83.6694 16.812 78.8734 21.608 78.8734 28.78C78.8734 35.6 83.3614 40.44 90.4014 40.44ZM90.4454 34.236C87.6734 34.236 87.1894 30.892 87.1894 28.472C87.1894 26.008 87.6734 22.928 90.4454 22.928C93.1734 22.928 93.6574 26.008 93.6574 28.472C93.6574 30.892 93.1734 34.236 90.4454 34.236Z" fill="white"/>
</svg>