<svg width="206" height="48" viewBox="0 0 206 48" fill="none" xmlns="http://www.w3.org/2000/svg">
<g clip-path="url(#clip0_1176_3933)">
<path d="M22.7633 46.7002C17.7444 46.6969 12.881 44.8834 8.99681 41.567C5.11261 38.2505 2.44645 33.635 1.44998 28.5022C0.453502 23.3695 1.18798 18.0351 3.52898 13.4027C5.86999 8.77026 9.6736 5.12467 14.2955 3.08344C19.6118 0.740002 25.6024 0.696249 30.9496 2.96181C36.2968 5.22737 40.5625 9.61665 42.8083 15.1641C45.0541 20.7115 45.096 26.9626 42.9249 32.5423C40.7537 38.122 36.5473 42.5731 31.231 44.9166C28.5522 46.0995 25.6721 46.7062 22.7633 46.7002Z" fill="#008282"/>
<path d="M22.7632 1.71422C27.6902 1.71795 32.4645 3.4986 36.2774 6.75456C40.0904 10.0105 42.7077 14.5416 43.6859 19.5804C44.6641 24.6193 43.9432 29.856 41.6453 34.4038C39.3473 38.9515 35.6136 42.5307 31.0765 44.535C25.8572 46.8356 19.9758 46.8785 14.7262 44.6542C9.47665 42.4299 5.28885 38.1207 3.0841 32.6744C0.879351 27.2282 0.838259 21.0912 2.96986 15.6133C5.10147 10.1355 9.23116 5.76561 14.4505 3.465C17.0803 2.30389 19.9077 1.70841 22.7632 1.71422V1.71422ZM22.7632 0.885468C10.5297 0.885468 0.612274 11.2345 0.612274 24C0.612274 36.7655 10.5297 47.1145 22.7632 47.1145C34.9968 47.1145 44.9147 36.7655 44.9147 24C44.9147 11.2345 34.9973 0.885468 22.7632 0.885468Z" fill="#00284D"/>
<path d="M15.8538 43.8591C10.3958 43.8591 5.70148 40.7513 3.60363 35.7497L3.48279 35.4619C0.101973 33.6563 0.0134766 30.0281 0.0112305 29.8702L0 29.0306L21.1492 29.0217C21.4955 29.0227 21.8391 28.9592 22.164 28.8342C22.3957 28.7483 22.597 28.5912 22.7414 28.3835C22.8857 28.1758 22.9663 27.9273 22.9726 27.6708C22.9895 27.4087 22.9299 27.1475 22.8016 26.9215C22.6732 26.6956 22.4823 26.5155 22.2538 26.4052C19.9143 25.23 18.6745 22.4752 19.2391 19.7048C19.6884 17.5045 21.4044 15.1144 24.8791 15.007H24.9024L46.0018 14.9981V15.8269C46.0018 17.7881 44.9174 20.7792 39.7509 23.8894C36.7663 25.6852 33.0737 27.0394 31.1619 27.0394C30.4009 27.0394 29.9081 27.4022 29.6121 28.1808C29.4885 28.5052 29.3425 29.0606 29.3425 29.8622V29.8945C29.179 34.2024 27.6512 37.8206 24.924 40.3589C22.4933 42.615 19.2715 43.8591 15.8538 43.8591Z" fill="#00284D"/>
<path d="M24.9011 15.8339C19.13 16.0125 18.3389 23.5214 22.5962 25.6575C24.2282 26.4769 24.1365 28.9523 22.4389 29.61C22.0261 29.7693 21.5894 29.8506 21.1492 29.85L0.804993 29.8594C0.804993 29.8594 0.849915 33.3141 4.11304 34.8591C4.83087 35.1937 5.6084 35.3663 6.39462 35.3653H7.40267L7.46332 35.4591C10.5917 40.237 16.8403 41.4642 21.4192 38.1998C22.5927 37.3637 23.5829 36.2773 24.3243 35.0123C24.3537 34.9661 24.3991 34.9335 24.4509 34.9212C24.5028 34.909 24.5572 34.9181 24.6028 34.9467C24.6484 34.9752 24.6817 35.0211 24.6958 35.0746C24.7098 35.1281 24.7036 35.1852 24.6783 35.2341C21.6685 40.3753 15.2339 41.9972 10.3069 38.8566C9.07581 38.0718 8.01374 37.0296 7.1875 35.7956H6.39462C5.69075 35.7963 4.99223 35.6679 4.33091 35.4164C9.26199 47.1727 27.9598 45.3122 28.5438 29.8589C28.5438 29.4281 28.5438 26.2078 31.1583 26.2078C34.2772 26.2078 45.2044 21.5639 45.2044 15.8255L24.9011 15.8339Z" fill="#DEE2E6"/>
<path d="M30.382 20.5584C31.1719 20.5584 31.8123 19.8902 31.8123 19.0659C31.8123 18.2417 31.1719 17.5734 30.382 17.5734C29.5921 17.5734 28.9517 18.2417 28.9517 19.0659C28.9517 19.8902 29.5921 20.5584 30.382 20.5584Z" fill="white"/>
<path d="M30.382 19.8755C30.8105 19.8755 31.1578 19.513 31.1578 19.0659C31.1578 18.6188 30.8105 18.2564 30.382 18.2564C29.9535 18.2564 29.6062 18.6188 29.6062 19.0659C29.6062 19.513 29.9535 19.8755 30.382 19.8755Z" fill="#00284D"/>
<path d="M30.4543 15.8372C30.8642 15.8368 31.2702 15.9206 31.649 16.0838C32.0278 16.2471 32.3722 16.4867 32.6623 16.7888C32.9524 17.0909 33.1826 17.4497 33.3399 17.8447C33.4971 18.2397 33.5783 18.6631 33.5787 19.0908C33.5787 20.8448 32.2508 22.3491 30.5689 22.3491C28.4863 22.3491 26.8148 23.9634 26.7532 26.0991C26.7532 26.1366 26.7532 26.1736 26.7532 26.2106C26.7532 27.9422 27.6018 29.3513 28.5582 29.4314C28.6202 28.4334 28.9863 26.2088 31.1601 26.2088C34.2691 26.2088 45.1357 21.5939 45.2044 15.8808C45.2044 15.8648 45.2044 15.8494 45.2044 15.8339L30.4543 15.8372Z" fill="#FE9903"/>
<path d="M4.11304 34.8586C4.83087 35.1933 5.6084 35.3658 6.39463 35.3648H7.40267L7.46332 35.4586C10.5917 40.2366 16.8403 41.4637 21.4192 38.1994C22.5927 37.3632 23.5829 36.2768 24.3243 35.0119C24.3404 34.9841 24.3624 34.9606 24.3885 34.943C12.9038 42.8091 9.05894 33.9089 9.05894 33.9089C5.25586 33.9056 4.68939 29.8594 4.68939 29.8594H4.68041H0.804993C0.804993 29.8594 0.853508 33.3136 4.11304 34.8586Z" fill="#CED4DA"/>
</g>
<path d="M55.292 33V15.648H61.16C62.4 15.648 63.504 15.856 64.472 16.272C65.44 16.688 66.2 17.304 66.752 18.12C67.312 18.936 67.592 19.94 67.592 21.132C67.592 22.284 67.332 23.268 66.812 24.084C66.3 24.9 65.584 25.52 64.664 25.944C63.744 26.368 62.676 26.58 61.46 26.58H57.572V33H55.292ZM57.56 24.708H61.412C62.604 24.708 63.572 24.376 64.316 23.712C65.06 23.048 65.432 22.144 65.432 21C65.432 19.848 65.048 18.976 64.28 18.384C63.512 17.792 62.52 17.496 61.304 17.496H57.56V24.708ZM71.3263 27.312C71.3263 28.096 71.4543 28.808 71.7103 29.448C71.9743 30.08 72.3703 30.584 72.8983 30.96C73.4343 31.336 74.1023 31.524 74.9023 31.524C75.6943 31.524 76.3743 31.34 76.9423 30.972C77.5183 30.604 77.8863 30.072 78.0463 29.376H80.1463C79.9943 30.216 79.6583 30.924 79.1383 31.5C78.6183 32.076 77.9903 32.512 77.2543 32.808C76.5183 33.096 75.7503 33.24 74.9503 33.24C73.7903 33.24 72.7703 32.988 71.8903 32.484C71.0103 31.98 70.3223 31.256 69.8263 30.312C69.3303 29.368 69.0823 28.236 69.0823 26.916C69.0823 25.612 69.3063 24.468 69.7543 23.484C70.2023 22.5 70.8503 21.732 71.6983 21.18C72.5543 20.628 73.5823 20.352 74.7823 20.352C75.9503 20.352 76.9383 20.604 77.7463 21.108C78.5543 21.612 79.1663 22.324 79.5823 23.244C80.0063 24.156 80.2183 25.24 80.2183 26.496V27.312H71.3263ZM71.3383 25.812H78.0823C78.0823 25.1 77.9623 24.46 77.7223 23.892C77.4823 23.316 77.1143 22.864 76.6183 22.536C76.1303 22.2 75.5143 22.032 74.7703 22.032C73.9943 22.032 73.3503 22.22 72.8383 22.596C72.3343 22.964 71.9543 23.44 71.6983 24.024C71.4503 24.6 71.3303 25.196 71.3383 25.812ZM86.3977 33.156C85.7257 33.156 85.1817 33.064 84.7657 32.88C84.3577 32.696 84.0417 32.448 83.8177 32.136C83.6017 31.824 83.4537 31.468 83.3737 31.068C83.3017 30.66 83.2657 30.24 83.2657 29.808V15.168H85.4497V29.592C85.4497 30.216 85.5697 30.684 85.8097 30.996C86.0577 31.308 86.4017 31.48 86.8417 31.512L87.5137 31.524V32.964C87.3297 33.02 87.1377 33.064 86.9377 33.096C86.7377 33.136 86.5577 33.156 86.3977 33.156ZM92.7673 20.592V33H90.6193V20.592H92.7673ZM92.8153 15.66V17.964H90.5473V15.66H92.8153ZM101.616 20.352C102.504 20.352 103.304 20.524 104.016 20.868C104.728 21.204 105.308 21.684 105.756 22.308C106.212 22.932 106.496 23.668 106.608 24.516H104.64C104.568 24.084 104.4 23.688 104.136 23.328C103.88 22.968 103.54 22.68 103.116 22.464C102.692 22.248 102.196 22.14 101.628 22.14C100.564 22.14 99.6999 22.524 99.0359 23.292C98.3719 24.06 98.0399 25.236 98.0399 26.82C98.0399 28.252 98.3439 29.4 98.9519 30.264C99.5679 31.12 100.472 31.548 101.664 31.548C102.232 31.548 102.724 31.44 103.14 31.224C103.564 31 103.904 30.708 104.16 30.348C104.416 29.98 104.58 29.588 104.652 29.172H106.584C106.48 30.004 106.2 30.724 105.744 31.332C105.288 31.94 104.704 32.412 103.992 32.748C103.288 33.076 102.496 33.24 101.616 33.24C100.504 33.24 99.5159 32.996 98.6519 32.508C97.7959 32.02 97.1239 31.3 96.6359 30.348C96.1479 29.396 95.9039 28.228 95.9039 26.844C95.9039 25.548 96.1239 24.416 96.5639 23.448C97.0119 22.472 97.6599 21.712 98.5079 21.168C99.3639 20.624 100.4 20.352 101.616 20.352ZM112.901 33.24C112.101 33.24 111.393 33.1 110.777 32.82C110.161 32.532 109.677 32.12 109.325 31.584C108.981 31.048 108.809 30.4 108.809 29.64C108.809 28.264 109.289 27.24 110.249 26.568C111.209 25.896 112.749 25.536 114.869 25.488L117.089 25.428V24.456C117.089 23.696 116.861 23.096 116.405 22.656C115.949 22.208 115.241 21.984 114.281 21.984C113.569 21.992 112.941 22.16 112.397 22.488C111.861 22.816 111.513 23.352 111.353 24.096H109.397C109.445 23.288 109.673 22.608 110.081 22.056C110.489 21.496 111.057 21.072 111.785 20.784C112.521 20.496 113.389 20.352 114.389 20.352C115.469 20.352 116.365 20.504 117.077 20.808C117.797 21.112 118.333 21.56 118.685 22.152C119.045 22.744 119.225 23.472 119.225 24.336V33H117.329L117.173 30.672C116.693 31.64 116.081 32.312 115.337 32.688C114.601 33.056 113.789 33.24 112.901 33.24ZM113.573 31.644C113.989 31.644 114.401 31.568 114.809 31.416C115.225 31.264 115.605 31.06 115.949 30.804C116.293 30.54 116.565 30.248 116.765 29.928C116.973 29.6 117.081 29.264 117.089 28.92V26.796L115.241 26.832C114.297 26.848 113.505 26.944 112.865 27.12C112.233 27.296 111.757 27.572 111.437 27.948C111.125 28.324 110.969 28.816 110.969 29.424C110.969 30.12 111.209 30.664 111.689 31.056C112.177 31.448 112.805 31.644 113.573 31.644ZM123.016 33V20.592H125.164V22.392C125.364 22.048 125.64 21.724 125.992 21.42C126.352 21.116 126.784 20.872 127.288 20.688C127.8 20.504 128.388 20.412 129.052 20.412C129.836 20.412 130.556 20.568 131.212 20.88C131.876 21.192 132.404 21.68 132.796 22.344C133.196 23 133.396 23.848 133.396 24.888V33H131.176V25.104C131.176 24.136 130.92 23.42 130.408 22.956C129.904 22.484 129.248 22.248 128.44 22.248C127.88 22.248 127.356 22.34 126.868 22.524C126.38 22.7 125.984 22.972 125.68 23.34C125.376 23.7 125.224 24.156 125.224 24.708V33H123.016Z" fill="white"/>
<defs>
<clipPath id="clip0_1176_3933">
<rect width="46" height="48" fill="white"/>
</clipPath>
</defs>
</svg>
